/* XPM */
static char *out[] = {
/* columns rows colors chars-per-pixel */
"64 64 226 2 ",
"   c #161C2E",
".  c #1D2435",
"X  c #212435",
"o  c #24283B",
"O  c #282D3D",
"+  c #302933",
"@  c #25333C",
"#  c #333439",
"$  c #4C393C",
"%  c #3F4E34",
"&  c #444F34",
"*  c #5A693A",
"=  c #2C2E41",
"-  c #2B3846",
";  c #353549",
":  c #383C48",
">  c #3A3E52",
",  c #423F41",
"<  c #2D414B",
"1  c #34484B",
"2  c #3C5449",
"3  c #384952",
"4  c #3A455A",
"5  c #2C545B",
"6  c #3E5157",
"7  c #3C585A",
"8  c #3B635C",
"9  c #3B5D63",
"0  c #396968",
"q  c #387277",
"w  c #4C4B4C",
"e  c #4D5045",
"r  c #434055",
"t  c #494756",
"y  c #455858",
"u  c #535557",
"i  c #5D5D57",
"p  c #635958",
"a  c #4C6749",
"s  c #59774A",
"d  c #476759",
"f  c #566B54",
"g  c #57795B",
"h  c #6C794F",
"j  c #6F6252",
"k  c #4B4D63",
"l  c #465864",
"z  c #535B62",
"x  c #50576D",
"c  c #4C5A70",
"v  c #555F75",
"b  c #4B6465",
"n  c #486867",
"m  c #546B6B",
"M  c #48776A",
"N  c #537667",
"B  c #4F6F71",
"V  c #566579",
"C  c #467876",
"Z  c #547574",
"A  c #587A76",
"S  c #567B7B",
"D  c #5A7D7D",
"F  c #696867",
"G  c #72666C",
"H  c #6D7473",
"J  c #767B79",
"K  c #90625D",
"L  c #8C795E",
"P  c #857465",
"I  c #827E6C",
"U  c #8D7779",
"Y  c #9C7875",
"T  c #6F853F",
"R  c #71853E",
"E  c #5D825B",
"W  c #6C8243",
"Q  c #63814A",
"!  c #748442",
"~  c #658959",
"^  c #648A5C",
"/  c #778F5A",
"(  c #6C935C",
")  c #6D985C",
"_  c #759959",
"`  c #739C5C",
"'  c #77A25D",
"]  c #7BA45D",
"[  c #7EA95D",
"{  c #5A8666",
"}  c #5D9264",
"|  c #4B8379",
" . c #568C75",
".. c #58867A",
"X. c #69846D",
"o. c #669764",
"O. c #6B9C63",
"+. c #719B65",
"@. c #659875",
"#. c #76A566",
"$. c #73A572",
"%. c #879B58",
"&. c #98B74F",
"*. c #9BB94F",
"=. c #87A55B",
"-. c #83AC5D",
";. c #8BAE5C",
":. c #92AC5B",
">. c #8EB256",
",. c #87B05A",
"<. c #8BB159",
"1. c #94B553",
"2. c #9BB654",
"3. c #9CB850",
"4. c #94B25A",
"5. c #9BB359",
"6. c #A3AE57",
"7. c #A2B655",
"8. c #A4B852",
"9. c #ABB954",
"0. c #A3B559",
"q. c #A9B758",
"w. c #AAB759",
"e. c #B1B857",
"r. c #928A6E",
"t. c #AB9975",
"y. c #91B06F",
"u. c #A7B570",
"i. c #C49A6C",
"p. c #C8A876",
"a. c #C7AD7D",
"s. c #CEB17E",
"d. c #D4C169",
"f. c #EAE178",
"g. c #3D7D80",
"h. c #5E6F86",
"j. c #587C80",
"k. c #6D7A8B",
"l. c #3E888B",
"z. c #5B8484",
"x. c #578A85",
"c. c #5E8B8B",
"v. c #5A928B",
"b. c #4E8F92",
"n. c #45979A",
"m. c #688B88",
"M. c #788689",
"N. c #65978A",
"B. c #629494",
"V. c #679896",
"C. c #669C9C",
"Z. c #6A9D9D",
"A. c #749090",
"S. c #789B96",
"D. c #44A09F",
"F. c #6BA29C",
"G. c #78A597",
"H. c #489BA2",
"J. c #5A9BA5",
"K. c #6D9EA2",
"L. c #45A4A4",
"P. c #47ABA9",
"I. c #4AAAA9",
"U. c #56A8A9",
"Y. c #5AB4B0",
"T. c #6BA2A2",
"R. c #68A8AC",
"E. c #73AAAB",
"W. c #74A8A8",
"Q. c #73B2AF",
"!. c #7DB4B4",
"~. c #78B9B7",
"^. c #7BC5BC",
"/. c #969785",
"(. c #8A9093",
"). c #8C9695",
"_. c #A69B81",
"`. c #98AE83",
"'. c #84A59B",
"]. c #ABAF8E",
"[. c #B9AC8A",
"{. c #BBB788",
"}. c #A6A898",
"|. c #959EA0",
" X c #9BA5A5",
".X c #91B5A9",
"XX c #82B7B7",
"oX c #86BDBC",
"OX c #A8B1B2",
"+X c #D5B886",
"@X c #D2B58E",
"#X c #B5C884",
"$X c #87C3BC",
"%X c #9AC4B7",
"&X c #BBCAAC",
"*X c #A6CCBC",
"=X c #CBC393",
"-X c #DBC490",
";X c #E1DA8C",
":X c #E2CB9A",
">X c #E5D29D",
",X c #EAE38E",
"<X c #CECBAA",
"1X c #E8D8A3",
"2X c #E6E5AB",
"3X c #EFE1AB",
"4X c #F4F4A0",
"5X c #F1E6B9",
"6X c #AEB7C2",
"7X c #8BC6C3",
"8X c #9CCCC4",
"9X c #99D4C7",
"0X c #B8C1C3",
"qX c #ACD7C9",
"wX c #A8D8CB",
"eX c #B4DECC",
"rX c #B8E1CE",
"tX c #B9E6D4",
"yX c #BBE9D6",
"uX c #C6C8CC",
"iX c #C1EBD6",
"pX c #C2EDD9",
"aX c #C7F1DC",
"sX c #F6EECF",
"dX c #E4E7EA",
"fX c white",
/* pixels */
"P.P.P.P.P.P.P.P.P.P.P.P.P.P.P.P.P.P.P.P.P.P.P.P.P.P.P.P.P.P.P.P.P.P.P.P.P.P.P.P.P.P.P.P.P.P.P.P.P.P.P.P.P.P.P.P.P.P.P.P.P.P.P.P.",
"P.P.P.P.P.P.P.P.P.P.P.P.P.P.P.P.P.P.P.P.P.P.P.P.P.P.P.P.P.P.P.P.P.P.P.P.P.P.P.P.P.P.P.P.P.P.P.P.P.P.P.P.P.P.P.P.P.P.P.P.P.P.P.P.",
"P.P.P.P.P.P.P.P.P.P.P.P.P.P.P.P.P.P.P.P.P.P.P.P.P.P.P.P.P.P.P.P.P.P.P.P.P.P.P.P.P.P.P.P.P.P.P.P.P.P.P.P.P.P.P.P.P.P.P.P.P.P.P.P.",
"P.P.P.P.P.P.P.P.P.P.P.P.P.P.P.P.P.P.P.P.P.P.P.P.P.P.P.P.P.P.P.P.P.P.P.P.P.P.P.P.P.P.P.P.P.P.P.P.P.P.P.P.P.P.P.P.P.P.P.P.P.P.P.P.",
"P.P.P.P.P.P.P.P.P.P.I.I.P.P.P.P.P.P.P.I.I.I.I.I.P.P.P.P.P.P.P.P.P.P.P.P.P.P.P.P.P.P.P.P.P.P.P.P.P.P.P.P.P.P.P.P.P.P.P.P.P.P.P.P.",
"P.P.P.P.P.n.0 M q C C z.M | v.v.{ g 0 N g o.g ^ N | v.x. . .B.F.N.N.v.v. .C d N ~ d N } | | x.v.| { M C g.0 8 q P.P.P.P.P.P.P.P.",
"P.P.P.P.l.5 & [ ) ' ^ $.) [ ,.` [ ' ` ' -.>.<.<.;.[ ' 4.;.$.#.y.y.[ -.,.' O.-.-.<.-._ >.] _ #.[ [ -.~ _ a ] ' Q 8 n.P.P.P.P.P.P.",
"P.P.P.P.0 ) ~ 4.:.0.6.w.2.,.1.*.8.4.4.1.q.X.u 4 v v V k k `.u.*.1.*.8.4.;.1.&.>.*.*.*.9.q.2.2.2.7.4.,.;._ -.[ _ ~ M l.P.P.P.P.P.",
"P.P.P.P.0 s =.w.8.8.8.1.4.>.8.8.9.9.9.>.y O , v h.h.h.h.h.h.G `.1.9.9.9.9.2.-.>.>.4.>.2.*.*.*.7.4.>.>.5.0.5.[ ' E M n.P.P.P.P.P.",
"P.P.P.P.q ) [ 4.*.1.2.*.1.1.&.1.1.1.*.u.o r t x k h.h.k v h.h., &.&.1.>.&.3.&.&.1.8.1.&.*.*.1.*.*.1.1.1.q.4.-.-.E | P.P.P.P.P.P.",
"P.P.P.P.C a =.0.w.5.2.1.1.>.>.>.2.K K w ; r V h.h.h.h.h.k x h.k `.>.2.<.1.3.K K K K &.2.9.7.2.&.1.1.>.1.>.O.O.) ^ M L.P.P.P.P.P.",
"P.P.P.P.9 ) ;.0.w.8.8.8.8.2.5.5.2.K K   r x h.t r > k h.h., h.x `.5.5.3.8.9.K K K K 2.1.2.&.*.8.8.8.2.5.4.4.[ #.` M n.P.P.P.P.P.",
"P.P.P.P.o.$.#.-.;.7.8.1.4.<.2.K K d.d.  r r r ;     ; h.h.k v ; U K K K K K d.d.s.d.K K K *.*.*.1.1.<.7.3.9.7.[ O.M x.P.P.P.P.P.",
"P.P.P.P. .G.#.o.O.-.1.3.*.*.1.K K s.d.  r r r ; o     k h.c 4   Y K K K K K d.d.d.d.K K K &.*.*.*.*.1.1.1.3.4.$.| x.S P.P.P.P.P.",
"P.P.P.P...O.o.' ;.1.1.3.3.K K f.f.f.:X  = r k r =     > h.x = $ H :X+X+Xi.i.f.f.f.f.f.f.f.K K *.8.3.*.,.,.4.<.#.} V.B P.P.P.P.P.",
"P.P.P.P.x.O.#.[ 4.9.0.w.2.K K f.f.i     . r , ; = i., ; , , w p.t.p.-X@Xi.i.f.f.f.f.f.f.f.K K 9.q.3.1.>.&.9.0.-.O.n 5 P.P.P.P.P.",
"P.P.P.P.Z ' [ >.2.3.3.1.2.K K f.{.X r r o r r   r.p.p.G j P t.s.1X+X@Xi.i.i.i.i.f.f.f.f.;XK K {.&X#X&.*.*.8.8.[ ) g 0 P.P.P.P.P.",
"P.P.P.P.g [ 4.2.&.1.1.7.2.K K ;X  : r r o r =   # I >X+X-X-X>X3X+X@Xp.i.i.i.i.i.f.f.f.f.f.[.0X*X X`.1.1.2.5.0./ g ~ 7 P.P.P.P.P.",
"P.P.P.P.d ] ;.;.4.4.,.;.>.K K {.= , k r ; r . [.j     : r.3X3X1X3X3X+X@Xi.i.i.i.f.f.f.f.3XOX|. XX.`.&.*.&.1.:./ ) ] g P.P.P.P.P.",
"P.P.P.P.f =.g +.2.7.&.&.1.K K {.X , r r r ;   1Xp.p.p.3X3X3X3Xp _.3X:X@Xi.i.i.i.f.f.f.,XuXOX|. XM.`.1.1.1.=._ _ g y 6 P.P.P.P.P.",
"P.P.P.P.7 E g ( -.1.*.>.1.K K ;X  > r r r o J @Xp.p.p.3X3X3X3X    3X3Xr.t.i.i.i.f.f.f.<X0X0XOX).J ].<.>.>.<.2.w._ ^ 7 P.P.P.P.P.",
"P.P.P.P.2 g ) ) 5.5.9.7.7.K K f.H . r r =   I +Xp.p.+X2X3X3X3XI   [.3X  t.i.i.i.f.f.4X0X0X0XOX).k.u.>.8.8.8.5.:.( N 9 P.P.P.P.P.",
"P.P.P.P.3 C N [ 0.e.7.>.1.K K f.f.=X. o     @Xa.p.p.-X3X3X3X2XI   p p   [.t.i.i.f.,X0X|. X0X XM.# u.>.8.8.9.0._ 3 z.S P.P.P.P.P.",
"P.P.P.P.0 { ) [ >.5.2.&.1.K K 4XH i f.;Xr.  -Xp.s.-X>X                w w ;Xf.f.f.<XOX).OX|.).z y.>.>.1.2.5.4._ ~ a 1 P.P.P.P.P.",
"P.P.P.P.8 ' ) ) 4.w.8.8.8.K Y   (.  ;Xf.{.I -Xp.p.-X3X@XI           # 3XG {.f.f.,X0X).).OX).).u 8.8.1.<.4.<.-.` ' a - P.P.P.P.P.",
"P.P.P.P.8 } ' -.4.9.9.8.0.K G   (.uX3 t.H I p.p.p.p.p.+X:X3X@Xt.  : 1Xs.r.r.4X4X].z ). XOX).4 u.8.0.0.q.-.) O.E s 2 - P.P.P.P.P.",
"P.P.P.P.| E ' O.#.;.1.3.4.K G 1Xw V fXuX: w j r.p.p.p.p.p.p.+X3X  I +Xp.u.t.4X2X  ).).m ).H   w.1.>.<.2.[ ) O.O.) ( 1 P.P.P.P.P.",
"P.P.P.P.M q } ) o.o.' <.;.K G }.(.t.(.0XfXfX(.(.      e p.p.p.3X  r.+Xp.p.G K U u ).J M.).; z 3.3.3.7.2.1.>.<.#.+.N.B P.P.P.P.P.",
"P.P.P.P.S M } #.-.-.>.8.2.K G }.h.k.}.3X5XsXfXfXfXfXfXw p.p.p.3X  H +Xp., z K   M.).F ).H   K 8.9.2.7.4.1.2.0._ ^ Z B P.P.P.P.P.",
"P.P.P.P.B E -.4.2.2.7.5.2.K I ).h.h.h.h.3X3X3X3XsXdXk.w p.p.p.3Xi @X@X# ; o t > (.z (.).- r.K 8.2.2.1.3.8.9.4.) E d < P.P.P.P.P.",
"P.P.P.P.g E ;.w.q.>.1.8.5.K i h.h.h.h.}.3X3X3X3XsX6X4   , r.p.>X3X3X: 4   -   F z > ).J u K K 2.8.4.<.1.3.7.8.4.' E 3 P.P.P.P.P.",
"P.P.P.P.~ ( ] 5.2.2.>.1.8.K i h.h.h.h.}.1X3X3X3X5XOX4 ; =   # j j , 4 h.  x 4   X : m : _.K K >.2.3.*.*.>.5.e.4.[ ` g P.P.P.P.P.",
"P.P.P.P.d d ) -.;.>.,.>.>.K j <X}.k.h.}.a.1X3X3X5Xk.k > h.h.4 > - 3 V =   . 4 k - = =   t.U Y -.;.>.&.&.*.3.e.5.` ` d P.P.P.P.P.",
"P.P.P.P.~ ` ` -.1.2.1.1.1.K G 3X3X1X/.h.:Xp.+X3X3X Xh.X ; k h.h.V x = ; = # j   = , =   4 c   1.1.1.1.1.>.;.5.:.' g 7 P.P.P.P.P.",
"P.P.P.P.d [ ;.>.5.8.3.1.1.K G 3X3X>Xp.-X).}.<X1X3XU h.. > r r r r r r t = P , a.# . ; : l h.  4.1.1.>.1.1.4.5.5.-.^ b P.P.P.P.P.",
"P.P.P.P.d g ( -.4.5.7.1.3.>.X.@X3X>Xp.-Xh.h.h.V F - h.; r r r r r r r :     j p.p r.t . > o y.5.2.1.>.8.8.q.4.-.o.M n P.P.P.P.P.",
"P.P.P.P...o.O.;.9.4.2.*.1.>.u.w 3X3X+X>Xh.h.h.h.J 4 4 ; , r r , r , ;   = :     ].d.K Y U u.1.*.&.1.>.1.2.;.-.[ @...b P.P.P.P.P.",
"P.P.P.P.x.) ;.w.w.4.3.1.1.1.>.g [.3X-X<Xh.h.h.h.r.4 4 o = # ; = =       X r o U K K *.3.9.0.2.1.*.1.>.>.;.} } } o.N 7 P.P.P.P.P.",
"P.P.P.P.B ^ ;.w.8.3.8.9.9.8.4.4.y t.1X/.h.h.h.}.y 3 . + + + + + + , +   X , U K K K &.&.*.&.3.8.8.9.2.4.;.-.=.#.' ^ d P.P.P.P.P.",
"P.P.P.P.y +.-.<.5.3.8.8.0.4.0.w.q.y [.r.h.h.=Xe   + h W R R ! h h L *   & ! *.2.4.5.4.,.<.&.*.9.7.5.5.w.2.q.0.<.) d - P.P.P.P.P.",
"P.P.P.P.3 g ^ =.e.e.*.&.&.1.1.3.&.u.  = k./.t   % T T T T R R W R R R R ! ! *.*.*.8.*.1.3.&.*.*.*.2.1.1.2.8.1.-.` g @ P.P.P.P.P.",
"P.P.P.P.2 s ( ] 5.0.7.7.*.>.<.4.5.4.y.= J   # * T T s W R R R R R s T R W 4.>.>.>.1.1.<.4.2.2.8.9.9.2.,.>.;.;.' ~ < @ P.P.P.P.P.",
"P.P.P.P.3 @ Q -.] ] -.` =.' [ ;.;.[ -.y./.y.0.! h s s Q W a a s s s s %.0.0.5.1.2.q.:.[ 4.0.,.5.5.=.[ s s ~ -.g @ M - P.P.P.P.P.",
"P.P.P.P.- 2 ~ Q a @. .g ] E O.( ) ^ [ ^ ) ` -.-.#.+.` Q s a 2 1 h +.} ^ / =.` ;.-.' ` g O.[ O.,.O.^ 2 1 7 1 s a d B.< P.P.P.P.P.",
"P.P.P.P.< K.Z d C.!.!.z.{ n M | N n N d 8 ^ ^ { } $.`.G.N.S B.c.n M | M 8 d ~ E ( N X.d @.o...N.F. .C.F.T.v.M M c.B - P.P.P.P.P.",
"P.P.P.P.< A.E.!.oXoX!.R.K.T.| D F.E.~.F.v.d y v.F.T.R.E.oXoX7Xc.< V.E.Q.V.F.V.D 3 V.Q.T.XXT.C.E.7X$X7X7XoXQ.!.XXZ.5 . P.P.P.P.P.",
"P.P.P.P.- y S C.T.T.T.!.$X!.b S oXoX!.E.K.Z 3 K.oXR.T.!.XX!.E.c.6 S T.T.Q.!.!.z.b C.T.W.E.E.Z.- z.E.!.!.T.W.Q.T.l o 5 P.P.P.P.P.",
"P.P.P.P.0 b Z V.C.C.C.C.T.m.7 y B.C.C.C.C.z.b c.T.C.C.C.C.C.C.C.B S C.C.F.C.C.B.B Z.C.C.C.T.m.7 z.C.C.C.C.C.B.S 6 @ l.P.P.P.P.P.",
"P.P.P.P.Q.@ 7 D B.C.C.C.C.C.y 3 z.C.C.C.C.z.7 C.C.C.C.C.C.C.C.c.- b Z.F.T.T.C.c.7 B.C.C.C.C.S 4 z.V.C.C.T.T.W.m.y l I.I.P.P.P.P.",
"P.P.P.P.$X= Z V.Z.B.K.F.C.c.n - B.C.C.C.B.b - c.C.C.C.C.c.B.c.D l y E.!.E.T.C.B.6 B.C.C.C.C.S < z.B.B.C.T.!.W.j.6 D Y.P.P.P.P.P.",
"P.P.P.P.%X< z.!.7XXXE.K.C.C.z.3 c.C.Z.R.E.K.t ..C.C.C.C.B.C.C.Z.x.1 B.C.C.C.C.V.l C.C.C.C.C.S n T.C.C.C.C.C.B.Z 1 S.U.P.P.P.P.P.",
"P.P.P.P.9Xy b m.K.K.C.C.C.C.B.n D B.T.E.E.V.6 m.B.C.T.T.C.C.C.C.z.3 c.C.C.C.C.C.Z C.C.C.C.C.j.z.C.C.C.C.C.C.z.b - S.I.I.P.P.P.P.",
"P.P.P.P.9X6 b ..C.C.C.C.C.C.V.B c.C.C.C.C.m.y E.XXXXQ.K.C.C.C.C.j.6 c.C.C.C.C.C.z.F.C.C.C.C.z.c.T.C.C.C.C.C.B d 1 $XP.P.P.P.P.P.",
"P.P.P.P.7Xm.y B B.C.C.C.C.C.B.m c.C.C.C.C.c.6 z.E.T.C.C.C.C.C.c.S l x.C.C.T.T.B.Z B.C.C.C.C.S S B.C.C.C.C.c.B 6 D wXI.P.P.P.P.P.",
"P.P.P.P.Y.wXm.6 B c.B.B.B.B.A b c.C.C.C.B.Z b m B.C.C.C.B.V.B.B.c.b S C.C.C.Z.z.B B.C.C.B.c.n m c.C.C.C.B.D b M.iX9XI.P.P.P.P.P.",
"P.P.P.P.P.^.yX.Xm.z.z.V.K.G.G.S.Z z.c.B.B...'.b m D c.c.Z S Z B D '.m.B.z.D S m S.S z.x...Z A.G.z.j.D S c.m.'.pXpX^.P.P.P.P.P.P.",
"P.P.P.P.I.I.9XeXrXqX%XqXeXiXpXpX'.m.A.G..X*XtX*X'.m.D D D m.'..XeXaX%XV.m.m.'..XyX8X.XA.A..XrXeXrX*XOX.X.X8XpXpX7XI.P.P.P.P.P.P.",
"P.P.P.P.P.P.P.U.R.E.XXtXwXwXiXtXyXpXpXpXaXyX^.$XeXeXeXeXeXrXwX9XtXpXtXyXaXiXaXaX7XoXwXqXiXaXpXyXeX8X9XwX8XQ.~.Y.I.P.P.P.P.P.P.P.",
"P.P.P.P.P.P.P.P.P.H.n.J.J.n.R.~.9XyXyXwX9XQ.L.L.U.R.oX!.W.J.n.n.U.$X9XyXtXtXwX$Xn.l.H.U.~.$X~.Y.I.H.H.H.U.U.P.P.P.P.P.P.P.P.P.P.",
"P.P.P.P.P.P.P.P.P.P.H.n.b.H.L.I.J.b.b.x.q C 0 C n.n.D.H.n.b. .n.n.n.U.Y.U.J.g.g.q q j.l.n.P.D.P.P.n.H.I.L.I.P.P.P.P.P.P.P.P.P.P.",
"P.P.P.P.P.P.P.P.P.P.P.P.I.P.P.P.P.P.P.P.P.P.P.P.L.P.P.P.P.P.P.P.P.P.P.P.P.P.P.P.P.P.P.P.P.P.P.P.P.P.P.P.P.P.P.P.P.P.P.P.P.P.P.P.",
"P.P.P.P.P.P.P.P.P.P.P.P.I.P.P.P.P.P.P.P.P.P.P.P.P.P.P.P.P.P.P.P.P.P.P.P.P.P.P.P.P.P.P.P.P.P.P.P.P.P.P.P.P.P.P.P.P.P.P.P.P.P.P.P.",
"P.P.P.P.P.P.P.P.P.P.P.P.P.P.P.P.P.P.P.P.P.P.P.P.P.P.P.P.P.P.P.P.P.P.P.P.P.P.P.P.P.P.P.P.P.P.P.P.P.P.P.P.P.P.P.P.P.P.P.P.P.P.P.P.",
"P.P.P.P.P.P.P.P.P.P.P.P.P.P.P.P.P.P.P.P.P.P.P.P.P.P.P.P.P.P.P.P.P.P.P.P.P.P.P.P.P.P.P.P.P.P.P.P.P.P.P.P.P.P.P.P.P.P.P.P.P.P.P.P."
};
