/* XPM */
static char *out[] = {
/* columns rows colors chars-per-pixel */
"64 64 223 2 ",
"   c #161C2E",
".  c #1D2234",
"X  c #1A2838",
"o  c #212536",
"O  c #25293B",
"+  c #2A2C3B",
"@  c #302933",
"#  c #27333E",
"$  c #353638",
"%  c #4C393C",
"&  c #3E4D35",
"*  c #596939",
"=  c #2C2E41",
"-  c #2A3846",
";  c #373949",
":  c #423F40",
">  c #2D414B",
",  c #34474B",
"<  c #3C5449",
"1  c #374B53",
"2  c #3A455A",
"3  c #2C545B",
"4  c #3E5157",
"5  c #3C585A",
"6  c #3B635C",
"7  c #3B5D63",
"8  c #396968",
"9  c #387277",
"0  c #4C4C4D",
"q  c #4D5146",
"w  c #434055",
"e  c #474859",
"r  c #445859",
"t  c #595855",
"y  c #5D5D57",
"u  c #49664A",
"i  c #516B4C",
"p  c #57744B",
"a  c #476759",
"s  c #57795B",
"d  c #6E774F",
"f  c #6C6557",
"g  c #4A4C62",
"h  c #465865",
"j  c #525862",
"k  c #50576D",
"l  c #4C5A70",
"z  c #535B71",
"x  c #605861",
"c  c #4B6465",
"v  c #486867",
"b  c #56686A",
"n  c #48776A",
"m  c #537667",
"M  c #4F6F71",
"N  c #566579",
"B  c #467876",
"V  c #547574",
"C  c #587A76",
"Z  c #567B7B",
"A  c #5A7D7D",
"S  c #6F6F70",
"D  c #90625D",
"F  c #8C795E",
"G  c #857465",
"H  c #827E6C",
"J  c #917876",
"K  c #6F853F",
"L  c #71853E",
"P  c #5D825B",
"I  c #6C8243",
"U  c #638149",
"Y  c #748442",
"T  c #7B8443",
"R  c #658959",
"E  c #648A5C",
"W  c #778E5A",
"Q  c #6C935C",
"!  c #6D985C",
"~  c #759958",
"^  c #739C5C",
"/  c #77A25D",
"(  c #7BA45D",
")  c #7EA95D",
"_  c #598567",
"`  c #5D9264",
"'  c #4B8379",
"]  c #568C75",
"[  c #58867A",
"{  c #758368",
"}  c #669764",
"|  c #6B9C62",
" . c #739F63",
".. c #698770",
"X. c #659875",
"o. c #76A466",
"O. c #73A572",
"+. c #849C55",
"@. c #B09643",
"#. c #98B74F",
"$. c #9BB94F",
"%. c #87A55B",
"&. c #83AC5D",
"*. c #8BAD5C",
"=. c #92AC5B",
"-. c #8EB256",
";. c #87B05A",
":. c #8BB159",
">. c #94B553",
",. c #9BB654",
"<. c #9CB850",
"1. c #95B25A",
"2. c #9BB35A",
"3. c #A3AE57",
"4. c #BFA954",
"5. c #A2B655",
"6. c #AAB757",
"7. c #A4B852",
"8. c #AAB954",
"9. c #A3B559",
"0. c #AAB759",
"q. c #B1B857",
"w. c #9A8869",
"e. c #899673",
"r. c #A89270",
"t. c #83AD63",
"y. c #96A577",
"u. c #96AD75",
"i. c #ABB36F",
"p. c #C49A6C",
"a. c #C3B16A",
"s. c #C8A876",
"d. c #CCAE7B",
"f. c #CBB17B",
"g. c #ADC477",
"h. c #D4C169",
"j. c #EAE178",
"k. c #3D7D80",
"l. c #5E6F86",
"z. c #587C80",
"x. c #3E888B",
"c. c #5B8484",
"v. c #578A85",
"b. c #5E8B8B",
"n. c #5A928B",
"m. c #4E8F92",
"M. c #45979A",
"N. c #688B88",
"B. c #798587",
"V. c #65978A",
"C. c #73938C",
"Z. c #629494",
"A. c #679896",
"S. c #669C9C",
"D. c #6A9D9D",
"F. c #789B96",
"G. c #44A09F",
"H. c #6BA29C",
"J. c #78A597",
"K. c #489BA2",
"L. c #5A9BA5",
"P. c #6D9EA2",
"I. c #45A4A4",
"U. c #47ABA9",
"Y. c #4AAAA9",
"T. c #56A8A9",
"R. c #5AB4B0",
"E. c #6BA2A2",
"W. c #68A8AC",
"Q. c #73AAAB",
"!. c #74A8A8",
"~. c #73B2AF",
"^. c #7DB4B4",
"/. c #78B9B7",
"(. c #7BC5BC",
"). c #8C918F",
"_. c #8C9695",
"`. c #A78581",
"'. c #A69C81",
"]. c #8DB58B",
"[. c #84A59B",
"{. c #B8B38E",
"}. c #A6A898",
"|. c #9AA4A4",
" X c #91B5A9",
".X c #82B7B7",
"XX c #86BDBC",
"oX c #AAAFB1",
"OX c #CBAF8B",
"+X c #D3B985",
"@X c #BAC79A",
"#X c #92C4B9",
"$X c #A6CCBC",
"%X c #BAC8B5",
"&X c #D3C88D",
"*X c #DBC490",
"=X c #E1DA8C",
"-X c #E2CE99",
";X c #E6D49D",
":X c #E9E184",
">X c #CAC4A1",
",X c #DAD1A5",
"<X c #E8D7A2",
"1X c #EFE1AB",
"2X c #F4F4A0",
"3X c #EAE5B8",
"4X c #AEB7C2",
"5X c #8BC6C3",
"6X c #9CCCC4",
"7X c #99D4C7",
"8X c #B8C1C3",
"9X c #ACD7C9",
"0X c #A8D8CB",
"qX c #B4DECC",
"wX c #B8E1CE",
"eX c #B9E7D5",
"rX c #C4C6CA",
"tX c #C1EBD6",
"yX c #C2EDD9",
"uX c #C7F1DC",
"iX c #F6EECE",
"pX c #F4F1E9",
"aX c white",
/* pixels */
"U.U.U.U.U.U.U.U.U.U.U.U.U.U.U.U.U.U.U.U.U.U.U.U.U.U.U.U.U.U.U.U.U.U.U.U.U.U.U.U.U.U.U.U.U.U.U.U.U.U.U.U.U.U.U.U.U.U.U.U.U.U.U.U.",
"U.U.U.U.U.U.U.U.U.U.U.U.U.U.U.U.U.U.U.U.U.U.U.U.U.U.U.U.U.U.U.U.U.U.U.U.U.U.U.U.U.U.U.U.U.U.U.U.U.U.U.U.U.U.U.U.U.U.U.U.U.U.U.U.",
"U.U.U.U.U.U.U.U.U.U.U.U.U.U.U.U.U.U.U.U.U.U.U.U.U.U.U.U.U.U.U.U.U.U.U.U.U.U.U.U.U.U.U.U.U.U.U.U.U.U.U.U.U.U.U.U.U.U.U.U.U.U.U.U.",
"U.U.U.U.U.U.U.U.U.U.U.U.U.U.U.U.U.U.U.U.U.U.U.U.U.U.U.U.U.U.U.U.U.U.U.U.U.U.U.U.U.U.U.U.U.U.U.U.U.U.U.U.U.U.U.U.U.U.U.U.U.U.U.U.",
"U.U.U.U.U.U.I.U.U.U.U.U.U.U.U.U.U.U.U.U.U.U.U.U.U.U.U.U.U.U.U.U.U.U.U.U.U.U.U.U.U.U.U.U.U.U.U.U.U.U.U.U.U.U.U.U.U.U.U.U.U.U.U.U.",
"U.U.U.U.U.M.8 n 9 B B c.n ' n.n.m s v P s Q s E n ' m.n.[ [ D.E.V.V.n.n.v.n v P R a m E ' ' v.n.' _ n B x.8 6 9 U.U.U.U.U.U.U.U.",
"U.U.U.U.x.3 & ) Q ~ Q O.Q ) ;.^ ) / ! / *.-.>.;.&.) O.= e w w S ].:.;.;.^ ! &.&.;.;./ >.( ~ ( ) o.&.R ^ u ( ~ U 6 G.U.U.U.U.U.U.",
"U.U.U.U.8 ! Q 1.1.9.3.0.,.;.>.$.5.>.1.>.#.#.$.>.#.f . ; l.l.N k g u.<.2.:.>.>.-.#.#.$.8.8.1.2.2.7.1.;.:.~ %.&.~ R n x.U.U.U.U.U.",
"U.U.U.U.8 p %.0.6.7.7.1.>.-.7.8.8.8.7.-.;.>.;.>.e = : e k l.z l.l.k S q.8.<.;.-.-.>.*.>.$.<.<.,.1.-.-.2.9.2.) / P n M.U.U.U.U.U.",
"U.U.U.U.8 Q ) 1.<.>.>.$.>.>.#.>.>.>.$.$.>.#.>.i.  w g l.l.l.l.g z l.N ).#.#.>.#.#.5.#.$.#.#.<.$.#.#.>.>.8.1.&.&.E B U.U.U.U.U.U.",
"U.U.U.U.B i &.9.6.1.,.<.>.-.-.-.2.D D D D D -.y.= : k l.l.l.l.l.g N l.g >.$.D D D D $.,.8.9.2.>.#.-.-.>.-.| | ~ P v I.U.U.U.U.U.",
"U.U.U.U.6 | &.9.6.5.7.7.7.,.2.1.6.D D D D D >.{ ; 2 z k g k N l.l.w N z i.8.D D D D >.>.<.<.<.7.7.7.2.2.2.:.o.o./ n M.U.U.U.U.U.",
"U.U.U.U.` O.o.&.*.5.7.#.>.:.2.D D h.h.h.h.h.D l.w w w O   . ; l.l.e k 2 J D h.h.h.h.D D D #.$.$.>.>.-.5.,.8.5.) | n ' U.U.U.U.U.",
"U.U.U.U...J.O.} | &.-.<.<.$.>.D D f.h.h.h.h.J : ; w w w ; . o g l.k : . D D h.f.h.h.D D D >.#.$.<.$.#.>.#.<.1.O.' v.z.U.U.U.U.U.",
"U.U.U.U.[ | } / ;.>.>.,.$.D D j.j.j.j.j.:Xx . o . w w w + $   ; z e ; 0 x OXj.j.j.j.j.j.j.D D 7.7.#.#.;.-.-.:.) X.n.n U.U.U.U.U.",
"U.U.U.U.v.| o.) 2.8.5.0.5.D D j.j.j.j.:Xw.@ w w o = w O % s.J = w w t s.-X+X<Xj.j.j.j.j.j.D D 8.9.,.>.@X@X5.9.t.| v 7 U.U.U.U.U.",
"U.U.U.U.V ) &.-.,.<.<.>.<.D D j.j.j.j.j.  : g w = = e   S d.d.r.G r.s.d.1X+X+Xp.j.j.j.j.j.D D #.>.g.%X8XS 8.0.&.| s 8 U.U.U.U.U.",
"U.U.U.U.s o.:.,.$.>.>.5.,.D D j.j.j.j.j.  : w w = ; ; ;   t r.w.w.-X-X1X*X-XOXd.j.j.j.j.j.D D g.%XoXoX[.b ,.9.! s R 5 U.U.U.U.U.",
"U.U.U.U.u ( *.=.1.1.;.*.-.D D j.j.j.j.j.J w w w w w O 1Xs.F f G 1X1X1X1X1X1X*XOXj.j.j.j.j.D D %X4X_.|._.x 1.=.W Q ( s U.U.U.U.U.",
"U.U.U.U.s o.s ^ 2.7.#.>.>.D D j.j.j.j.j.`.= w w w :   ;Xs.s.s.1X1X1X1Xy H 1X-Xs.j.j.j.j.j.D D 8X8XoXoX_.b %.~ ~ s r 4 U.U.U.U.U.",
"U.U.U.U.r P s Q &.>.#.-.1.D D j.j.j.j.j.{.  = ; : . t *Xs.s.s.1X1X1X1XS   1X1Xf {.j.j.j.j.D oX8X8X8X_._.b -.,.3.~ E 5 U.U.U.U.U.",
"U.U.U.U.1 s Q ^ 2.,.8.5.5.D D j.j.j.j.j.p.OXx       x s.s.s.*X1X1X1X1Xr.  { >X  =Xj.j.j.j.`.8X|.8X8X_.S { 7.2.=.Q m 7 U.U.U.U.U.",
"U.U.U.U.1 n m ) 9.q.7.-.>.D D j.j.j.j.j.p.p.p.'.'.  r.s.s.s.*X1X1X1X1X'.  q $   {.j.j.j.:X8X|._.8X|.B.  g.8.0.~ 1 z.Z U.U.U.U.U.",
"U.U.U.U.v _ ! ) -.2.,.#.>.D D 2X2Xj.j.j.&X  x :Xj.. '.s.s.-X<Xx       .       w.y &X2X2X3XoX_.|.|._.e u.2.2.1.( R u , U.U.U.U.U.",
"U.U.U.U.5 / ! | 1.0.7.7.7.D D 2X2Xj.j.=X  aXj t {.  *Xs.s.s.*X;X1Xe.0       '.;Xf w.2X2Xj _._.oX_._.r -.:.;.) ^ ( u - U.U.U.U.U.",
"U.U.U.U.6 ` / ) 1.8.8.6.9.D D @.@.2X2X>X  h aX).    +Xs.s.s.s.s.+X<X1X1X  0 <Xs.w.).@.4.= _.).C._.j { 7.&.! o.P p q > U.U.U.U.U.",
"U.U.U.U.n ` /  .) :.1.#.>.D D @.@.2X2X  {.y N pXoXS S 0 G F F F r.s.d.<X. S +Xs.d.y.@.0 j _.S _.B.  u.,.( / | | ! Q , U.U.U.U.U.",
"U.U.U.U.n 9 ` | } ` ( -.:.D D 4.4.@.@.  _._.OX'.iXpXaXaXrX).).j F d.s.-X  w.+Xs.w.S a.  _.).S _.; f 5.<.>.:.&.) O.n.M U.U.U.U.U.",
"U.U.U.U.Z n `  .) &.>.7.<.D D 4.4.@.@.  _.l.l.B.>X1X3XiXaXaXaXN F s.s.-X  e.+XF = S f y _.S _.B.  i.<.1.>.,.9.~ E C M U.U.U.U.U.",
"U.U.U.U.B s &.1.2.2.<.2.2.D D 4.4.4.4.  _.l.l.l.}.1X1X1X1XiX4X2 f s.s.-Xr.3Xr.    X . B.b ; _.j { ,.#.#.7.8.2.Q P a > U.U.U.U.U.",
"U.U.U.U.s R *.0.6.:.>.7.,.D D 4.4.4.4.  _.l.l.l.}.1X1X1X1XiXoX2 . % f f.*X'.O l.  2 = O X b b X 0.1.;.1.<.5.7.1./ R 1 U.U.U.U.U.",
"U.U.U.U.R E ( 2.,.<.>.1.<.D D h.h.4.4.  }.l.l.l.}.+X1X1X1X1X4X2 2 =         z l   - l.k . + ; { y.u.#.$.-.2.q.1.) ! i U.U.U.U.U.",
"U.U.U.U.a a ^ &.*.-.;.-.-.D D h.h.4.a.G 1X,X}.l.{.OX+X1X1X,Xl.2 g N l.h h l.2 . + + $ o ; ; O   2 2 e.$.$.<.q.2.^ ^ a U.U.U.U.U.",
"U.U.U.U.E ! ^ t.1.<.>.>.>.D D h.h.h.'.e.1X1Xs.{.>XOX*X1X1X{.l.2 w e g k g : w ; = F   f @ o ; = l l.{ >.-.:.2.=.o.s 5 U.U.U.U.U.",
"U.U.U.U.a ) &.-.2.7.,.>.<.D D h.h.h.h.e 1X1X+Xs.}.l.B.}.>X'.l.  w w w w w w w w o @ f s.G     $ k - e.>.>.1.2.2.&.E c U.U.U.U.U.",
"U.U.U.U.a P Q &.>.2.5.>.<.-.$.D D h.f.t {.1X<Xs.}.l.l.l.h # l.  w w w w w w w = . = $ G 0 i.i.e.{ y.>.7.7.8.=.&.} m v U.U.U.U.U.",
"U.U.U.U.C | | =.6.1.,.$.>.-.>.D D h.h.h.t 1X1X-X}.l.l.l.l.t l.  w : : : w = .   = : = x J ,.>.$.#.-.-.>.2.*.&.) X...v U.U.U.U.U.",
"U.U.U.U.v.Q *.9.0.1.<.#.#.-.-.-.2.D D D J {.1X<Xl.l.l.l.}., k   .   .           . =   2.q.9.,.1.#.>.-.-.*.` ` ` ` _ 5 U.U.U.U.U.",
"U.U.U.U.n E %.0.6.$.<.6.8.6.1.1.1.D D D D f e.1Xh l.l.}.w.- @ % : : % % % % =   $ f i.#.$.$.<.7.7.8.,.1.;.&.%.o.| E 5 U.U.U.U.U.",
"U.U.U.U.r / t.:.2.7.7.7.9.1.9.6.6.8.7.7.#.=.  y l l._.0   $ L d d F T T +.L q   & I >.;.-.#.$.8.7.2.2.0.<.6.9.:.! a - U.U.U.U.U.",
"U.U.U.U.> s Q %.q.q.<.#.#.>.1.$.$.7.$.$.$.<.i.  l.>X; . * L L L d L L L K L K K K Y <.-.#.$.$.$.$.,.>.>.2.5.>.) o.s X U.U.U.U.U.",
"U.U.U.U.< p Q %.2.<.5.,.,.>.-.>.1.1.1.>.-.,.<.u.$ , $ * L L L d L * I Y I I I I I 1.<.;.1.5.<.7.8.8.,.;.-.*.:.^ U > # U.U.U.U.U.",
"U.U.U.U.1 # U o./ ( &.^ &.( &.*.1.) ) ) t.;.9.7.1.) t.I I u i p p U I I T T I +.2.0.=.( 1.2.t.2.2.%./ p U P t.U # n - U.U.U.U.U.",
"U.U.U.U.- < Q U a X...s ( s ! } ! E ) Q Q ^ &.t. . .) ) t.E a < < * 6 u { %.o.:.*.^ ^ s | ) o.o. .E < < 5 , p u v Z., U.U.U.U.U.",
"U.U.U.U.- !.V a S.^.^.c._ v n ' m v _ 6 a E E _ ] o.].J.V.C Z.Z.8 n ' n 6 a E s Q m _ c X.} [ O.H.' H.H.E.b.n n b.M - U.U.U.U.U.",
"U.U.U.U.> N.Q.^.XXXX^.W.S.E.[ Z D.Q.^.H.n.r r n.H.E.E.~.XXXX5Xb., V.~.Q.A.H.A.Z 1 A.^.E..XH.S.Q.5X#X5X5XXX~.~.XXD.1 X U.U.U.U.U.",
"U.U.U.U.- r C S.E.E.E.^.#X^.c Z XXXX^.Q.S.Z 1 P..XQ.E.^..X^.Q.v.5 Z E.P.~..X~.N.v S.E.!.Q.Q.D.- z.^./.Q.E.!.~.E.c X 3 U.U.U.U.U.",
"U.U.U.U.8 c V A.S.S.S.S.E.b.5 r Z.S.S.S.S.c.c N.P.S.S.S.S.S.S.S.m Z S.S.S.S.D.Z.M D.S.S.S.E.N.5 c.S.S.S.S.S.A.Z 4 # x.U.U.U.U.U.",
"U.U.U.U.~.X 5 C A.S.S.S.S.S.r 1 c.S.S.S.S.c.r S.S.S.S.S.S.S.S.b.- c D.E.E.E.S.b.4 S.S.S.S.S.Z 1 c.S.S.S.E.E.!.N.r h T.U.U.U.U.U.",
"U.U.U.U.#X- C A.D.Z.E.D.S.b.v - Z.S.S.S.Z.c - b.S.S.S.S.b.Z.b.A c r Q.~.Q.E.S.Z.4 Z.S.S.S.S.Z > c.Z.Z.S.E.^.!.z.4 A R.U.U.U.U.U.",
"U.U.U.U.#X> c..X5X.X!.P.S.S.c.1 b.S.P.W.Q.P.1 [ S.S.S.S.Z.S.S.S.c.- Z.S.S.S.S.A.h Z.S.S.S.S.Z v E.S.S.S.S.S.Z.m , C.R.Y.U.U.U.U.",
"U.U.U.U.7X4 b c.E.P.D.S.S.S.Z.c A Z.E.Q.Q.D.e N.Z.S.E.E.S.S.S.S.c.4 b.S.S.S.S.S.Z S.S.S.S.S.z.c.S.S.S.S.D.D.c.c ; D.Y.Y.U.U.U.U.",
"U.U.U.U.7X4 c A S.S.S.S.S.S.A.M c.S.S.S.S.N.4 Q..X^.Q.E.S.S.S.S.z.4 b.S.S.S.S.S.c.S.S.S.S.S.z.b.S.S.S.S.S.A.V h > XXU.U.U.U.U.U.",
"U.U.U.U.5XN.r M n.S.S.S.S.S.Z.M b.S.S.S.H.b.4 N.Q.E.D.S.S.S.A.Z.Z h b.S.S.E.E.A.V Z.S.S.S.S.A Z Z.S.S.S.S.b.M 1 A 0XY.U.U.U.U.U.",
"U.U.U.U.R.qXN.4 M b.Z.S.Z.Z.C c b.E.S.S.Z.V c M Z.D.S.S.A.Z.Z.Z.b.c C S.S.S.S.v.M Z.S.S.Z.b.v M n.S.S.S.Z.z.c C.tX0XU.U.U.U.U.U.",
"U.U.U.U.U.(.eX XN.N.c.Z.H.F.[.F.V v.b.b.Z.[ F.b M A b.b.V Z V M A J.N.Z.A A Z M _.Z c.v.A Z C.J.N.Z Z Z b.N.[.yXeX(.U.U.U.U.U.U.",
"U.U.U.U.U.Y.7XqXqX9X$X6XqXtXyXyX[.C.C.J. X$XeX$X|...A A C N.[.#XwXuX#XF.N.C.F.#XeX9X XB.C. XeXqXqX6X X X X$XyXyX5XY.U.U.U.U.U.U.",
"U.U.U.U.U.U.U.L.W.Q.XXwX9X0XtXeXeXyXtXtXuXeX/.#X0XqXqXqXwXqX$X6XwXuXeXeXtXtXtXuXXX^.6XqXeXuXeXeXqX6X0X0X7X~./.R.Y.U.U.U.U.U.U.U.",
"U.U.U.U.U.U.U.U.I.K.M.L.L.M.L.#X7XeXeXqX7X~.I.U.T.W.XX/.Q.L.M.M.T.5X5XeXeXeX9X#XK.M.M.W./.#X/.R.T.K.K.K.T.T.U.U.U.U.U.U.U.U.U.U.",
"U.U.U.U.U.U.U.U.U.U.I.M.M.K.I.U.T.m.m.m.9 B 8 9 x.K.I.M.M.m.v.m.M.M.R.R.R.M.k.k.B 9 k.x.M.U.I.U.U.M.K.U.I.U.U.U.U.U.U.U.U.U.U.U.",
"U.U.U.U.U.U.U.U.U.U.U.U.Y.U.U.U.U.U.U.U.U.U.U.U.U.U.U.U.U.U.U.U.U.U.U.U.U.U.U.U.U.U.U.U.U.U.U.U.U.U.U.U.U.U.U.U.U.U.U.U.U.U.U.U.",
"U.U.U.U.U.U.U.U.U.U.U.U.Y.U.U.U.U.U.U.U.U.U.U.U.U.U.U.U.U.U.U.U.U.U.U.U.U.U.U.U.U.U.U.U.U.U.U.U.U.U.U.U.U.U.U.U.U.U.U.U.U.U.U.U.",
"U.U.U.U.U.U.U.U.U.U.U.U.U.U.U.U.U.U.U.U.U.U.U.U.U.U.U.U.U.U.U.U.U.U.U.U.U.U.U.U.U.U.U.U.U.U.U.U.U.U.U.U.U.U.U.U.U.U.U.U.U.U.U.U.",
"U.U.U.U.U.U.U.U.U.U.U.U.U.U.U.U.U.U.U.U.U.U.U.U.U.U.U.U.U.U.U.U.U.U.U.U.U.U.U.U.U.U.U.U.U.U.U.U.U.U.U.U.U.U.U.U.U.U.U.U.U.U.U.U."
};
