/* XPM */
static char *out[] = {
/* columns rows colors chars-per-pixel */
"64 64 227 2 ",
"   c #161C2E",
".  c #1C2234",
"X  c #242736",
"o  c #24283B",
"O  c #27333C",
"+  c #33333A",
"@  c #3D3138",
"#  c #4F3B3E",
"$  c #444F34",
"%  c #2C2E41",
"&  c #2B3846",
"*  c #343549",
"=  c #393A4A",
"-  c #2D414B",
";  c #35474B",
":  c #3D5548",
">  c #394953",
",  c #3A455A",
"<  c #2C545B",
"1  c #3E5157",
"2  c #3C585A",
"3  c #3B635C",
"4  c #3B5D63",
"5  c #396968",
"6  c #387277",
"7  c #4B4C4C",
"8  c #4E5147",
"9  c #434055",
"0  c #47485A",
"q  c #445859",
"w  c #565553",
"e  c #5D5D57",
"r  c #684948",
"t  c #655A4E",
"y  c #4C674A",
"u  c #57754C",
"i  c #47675A",
"p  c #57795B",
"a  c #6B7B4E",
"s  c #6F6252",
"d  c #6F635D",
"f  c #4A4E64",
"g  c #465964",
"h  c #535B62",
"j  c #50576D",
"k  c #4C5A70",
"l  c #545E74",
"z  c #605861",
"x  c #456765",
"c  c #4B6465",
"v  c #4C6B6C",
"b  c #55696A",
"n  c #48776A",
"m  c #537667",
"M  c #4F6F71",
"N  c #566579",
"B  c #467876",
"V  c #547574",
"C  c #587A76",
"Z  c #567B7B",
"A  c #5A7D7D",
"S  c #656D72",
"D  c #6D7171",
"F  c #727A7A",
"G  c #90625D",
"H  c #8C795E",
"J  c #857465",
"K  c #827E6C",
"L  c #91706F",
"P  c #9C7B79",
"I  c #6F853F",
"U  c #71853E",
"Y  c #5C835B",
"T  c #6C8242",
"R  c #63814A",
"E  c #748442",
"W  c #7B8746",
"Q  c #658959",
"!  c #648A5B",
"~  c #778F54",
"^  c #6D945C",
"/  c #6D985C",
"(  c #759958",
")  c #739C5C",
"_  c #77A25D",
"`  c #7BA45D",
"'  c #7EA95D",
"]  c #598666",
"[  c #5D9264",
"{  c #4B8379",
"}  c #568C75",
"|  c #59857A",
" . c #669764",
".. c #6B9C62",
"X. c #739F62",
"o. c #698576",
"O. c #659875",
"+. c #76A465",
"@. c #73A572",
"#. c #89A04F",
"$. c #98B74F",
"%. c #9BB94F",
"&. c #87A55B",
"*. c #83AC5D",
"=. c #8BAD5C",
"-. c #93AD5C",
";. c #8EB256",
":. c #87B059",
">. c #8BB159",
",. c #94B553",
"<. c #9BB654",
"1. c #9CB850",
"2. c #95B25A",
"3. c #9BB359",
"4. c #9FB858",
"5. c #A3AE57",
"6. c #A3B655",
"7. c #AAB757",
"8. c #A4B852",
"9. c #AAB954",
"0. c #A3B559",
"q. c #AAB759",
"w. c #B1B857",
"e. c #9A8869",
"r. c #8C8D73",
"t. c #A7916E",
"y. c #83AC62",
"u. c #93B36F",
"i. c #A3BA6F",
"p. c #AFA77F",
"a. c #C49A6C",
"s. c #C2B16F",
"d. c #C8A876",
"f. c #CEB17E",
"g. c #ADC572",
"h. c #D4C169",
"j. c #D5C57C",
"k. c #EAE178",
"l. c #3D7D80",
"z. c #5E6F86",
"x. c #587C80",
"c. c #6E7B8A",
"v. c #3E888B",
"b. c #5B8484",
"n. c #578985",
"m. c #5E8B8B",
"M. c #5A928B",
"N. c #4E8F92",
"B. c #45979A",
"V. c #688B88",
"C. c #778587",
"Z. c #65978A",
"A. c #72958C",
"S. c #629494",
"D. c #679896",
"F. c #669C9C",
"G. c #6A9D9D",
"H. c #789B96",
"J. c #44A09F",
"K. c #6BA29C",
"L. c #78A597",
"P. c #489BA2",
"I. c #5A9BA5",
"U. c #6D9EA2",
"Y. c #45A4A4",
"T. c #47ABA9",
"R. c #4AAAA9",
"E. c #56A8A9",
"W. c #5AB4B0",
"Q. c #6BA2A2",
"!. c #68A8AC",
"~. c #71A5A4",
"^. c #73AAAB",
"/. c #76ABAB",
"(. c #77B0AE",
"). c #69B4B3",
"_. c #7DB4B4",
"`. c #78B9B7",
"'. c #7BC5BC",
"]. c #8A9193",
"[. c #8D9694",
"{. c #A69B81",
"}. c #B09086",
"|. c #8AB385",
" X c #84A59B",
".X c #B7AE8B",
"XX c #B2B193",
"oX c #9AA4A4",
"OX c #91B5A9",
"+X c #82B7B7",
"@X c #86BDBC",
"#X c #A3ABAB",
"$X c #AFB3B6",
"%X c #CCB68E",
"&X c #D5B986",
"*X c #B4C982",
"=X c #87C3BC",
"-X c #9AC4B7",
";X c #A6CCBC",
":X c #D4CA88",
">X c #DBC490",
",X c #D4C498",
"<X c #E2CE99",
"1X c #E5D29D",
"2X c #E9E28D",
"3X c #D0CDAE",
"4X c #E8D7A2",
"5X c #E6E4AC",
"6X c #EFE1AB",
"7X c #F4F4A0",
"8X c #8BC6C3",
"9X c #9CCCC4",
"0X c #99D4C7",
"qX c #B8C1C3",
"wX c #ACD7C9",
"eX c #A8D8CB",
"rX c #B4DECC",
"tX c #B8E1CE",
"yX c #B9E6D4",
"uX c #BBE9D6",
"iX c #CCCFD3",
"pX c #C1EBD6",
"aX c #C2EDD9",
"sX c #C7F1DC",
"dX c #F6EDCE",
"fX c #EFEEE7",
"gX c white",
/* pixels */
"T.T.T.T.T.T.T.T.T.T.T.T.T.T.T.T.T.T.T.T.T.T.T.T.T.T.T.T.T.T.T.T.T.T.T.T.T.T.T.T.T.T.T.T.T.T.T.T.T.T.T.T.T.T.T.T.T.T.T.T.T.T.T.T.",
"T.T.T.T.T.T.T.T.T.T.T.T.T.T.T.T.T.T.T.T.T.T.T.T.T.T.T.T.T.T.T.T.T.T.T.T.T.T.T.T.T.T.T.T.T.T.T.T.T.T.T.T.T.T.T.T.T.T.T.T.T.T.T.T.",
"T.T.T.T.T.T.T.T.T.T.T.T.T.T.T.T.T.T.T.T.T.T.T.T.T.T.T.T.T.T.T.T.T.T.T.T.T.T.T.T.T.T.T.T.T.T.T.T.T.T.T.T.T.T.T.T.T.T.T.T.T.T.T.T.",
"T.T.T.T.T.T.T.T.T.T.T.T.T.T.T.T.T.T.T.T.T.T.T.T.T.T.T.T.T.T.T.T.T.T.T.T.T.T.T.T.T.T.T.T.T.T.T.T.T.T.T.T.T.T.T.T.T.T.T.T.T.T.T.T.",
"T.T.T.T.T.T.T.T.T.T.T.R.T.T.T.T.T.T.T.T.T.R.T.).).).`.).T.T.T.T.T.T.T.T.T.T.T.T.Y.T.T.T.T.T.T.T.T.T.T.T.T.T.T.T.T.T.T.T.T.T.T.T.",
"T.T.T.T.T.B.5 n 6 B B b.n { M.M.] p 5 p m @.    j j f 9 = A.F.Q.Z.Z.M.M.n.n i ] Q i p [ { { n.M.B } n B l.5 5 6 J.T.T.T.T.T.T.T.",
"T.T.T.T.v.< $ ' / _ ! @./ ' :.) ' ` ) _ u.  % 0 N z.z.z.z.0 |.y.u.' :.>._ / ' ' ;.*.` ;.` ( ` ' *.' Q ) y ` ( R 3 v.T.T.T.T.T.T.",
"T.T.T.T.5 / Q 2.-.0.5.7.3.:.,.%.8.2.2.2.e * 9 f l z.N j N z.0 p.,.$.%.3.=.2.,.;.$.$.%.9.9.2.3.3.8.2.:.=.( *.*.( Y ] B.T.T.T.T.T.",
"T.T.T.T.5 u &.9.9.8.8.,.;.;.6.9.9.9.9.;.. 9 9 z.z.z.z.l 0 z.z.9 ,.8.9.9.9.$.:.;.;.,.=.1.%.8.%.<.,.;.;.3.0.3.*.) Y n B.T.T.T.T.T.",
"T.T.T.T.6 ^ ' 2.%.,.1.%.,.,.$.,.2.>.1.i.o 9 j z.z.z.z.z.l 0 z.j i.$.$.;.$.$.$.$.,.8.,.1.$.$.$.$.$.$.,.,.9.2.y.' Y { T.T.T.T.T.T.",
"T.T.T.T.B y &.0.9.2.6.,.,.;.;.;.3.G G K * 9 9 = * = j z.z.f N j i.;.4.:.$.%.G G G G $.<.9.0.3.,.$.;.;.,.;.....) Y n Y.T.T.T.T.T.",
"T.T.T.T.3 / *.0.7.6.8.8.8.6.3.2.0.G G L * 9 9 = . . % N z.l j f i.2.4.1.8.8.G G G G ,.,.<.$.%.8.8.7.3.3.2.-.' +._ n B.T.T.T.T.T.",
"T.T.T.T.] @.+.*.=.8.8.1.,.:.3.G G %Xd   o 9 9 9 *     f z.l 9 X P G G G G G h.h.h.h.G G G $.%.8.,.;.>.8.1.9.6.' @.n n.T.T.T.T.T.",
"T.T.T.T.O.L.@.....*.;.,.1.%.,.G P . & * . = 9 9 % + X * j f * + D }.G G G G h.f.h.h.G G G ,.$.g.*X%.$.,.$.4.2.@.{ n.B T.T.T.T.T.",
"T.T.T.T.| .. ._ :.,.;.8.%.G G k.  * 9 9 * % 9 % # d.t.% 9 9 t d.&X&X%X>Xa.a.k.k.k.k.k.k.k.}.$XqXF $.$.:.>.>.>.+.[ Z.v T.T.T.T.T.",
"T.T.T.T.n...+.` 3.7.6.7.6.G G k.  * 9 9 * % 9 o d &Xd.t.J e.d.d.4X&Xd.&Xa.a.k.k.k.k.k.k.3XqX#X#Xb 4.$.;.1.8.0.y...x 4 T.T.T.T.T.",
"T.T.T.T.V +.*.;.<.<.8.,.,.G G k.w * 9 9 = 9 9 +   w r.e.e.%X1X6X<X<X&X&Xa.a.a.a.k.k.k.5XqX[.oX[.b 1.$.8.%.9.6.&./ p 5 T.T.T.T.T.",
"T.T.T.T.p ' ;.4.1.,.,.<.<.G G k..Xo 9 9 9 9 % {.d.e.s J 6X6X6X6X6X6X<X%Xa.a.a.a.k.k.k.qXqX#X$X[.h 3.,.,.1.3.0.^ p Q 2 T.T.T.T.T.",
"T.T.T.T.q ` =.&.,.3.:.=.,.G G k.k.. = 9 9 ,   t.d.d.d.6X6X6X6Xo.z 6X6X.Xa.a.a.a.k.k.5XqXqXqXoX[.b ;.$.%.$.,.-.~ / ` p T.T.T.T.T.",
"T.T.T.T.p y.p ( 3.8.,.$.,.G G k.k.:X  . X   . 1Xd.d.d.6X6X6X6X{.  6X6Xe.t.a.a.a.k.2XqXoXqXqX[.C.D ,.,.$.-.*.( ( p q 1 T.T.T.T.T.",
"T.T.T.T.q Y p ! *.,.$.;.,.G G k.k.k.k..X      &Xd.d.&X6X6X6X6X6X  J 6X= %Xa.a.a.k.5X#X[.#XoX[.> i.,.:.,.;.;.3.7.( ! 2 T.T.T.T.T.",
"T.T.T.T.: p / ) 3.3.8.8.8.G G k.k..Xk.k.a.  F &Xd.d.&X6X6X6X6X6X  7 7   {.a.a.a.k.3X[.[.$X[.[.7 6.1.,.8.8.6.0.#.! m 4 T.T.T.T.T.",
"T.T.T.T.> n Y _ 0.w.8.;.;.G G 2Xe w e 2Xa.  p.d.d.>X4Xe               t e {.a.a.:XoX[.oX#X].= u.;.,.;.8.8.9.0.( : x.Z T.T.T.T.T.",
"T.T.T.T.5 ] ) +.;.3.<.$.,.G G   . iX[.  r.  <Xd.d.d.&X4X6X{.7       K 4Xs   k.k.  N [.#X[.c.. 1.,.,.;.,.3.2.2.` Q i ; T.T.T.T.T.",
"T.T.T.T.3 _ / ..,.7.8.8.9.G G   r.= gXqX,   t.d.d.d.d.d.&X4X4X4Xz 7 6Xf.e.  k.%X  [.F F [.& z 8.8.8.2.;.>.:.&.) ` y & T.T.T.T.T.",
"T.T.T.T.3 [ _ ' 2.9.9.7.0.G G   ,Xr.  iXgX].].  s s s s e.d.&X4Xe K >Xd.d.  7X  h [.S [.C.  P 9.6.0.6.8.*./ +.Y u : & T.T.T.T.T.",
"T.T.T.T.{ Y _ ..` *.,.,.;.G G   oXc.oX{.4XdXfXgXiX$X$XS s d.d.>Xe K >Xd.t.  5XO [.].C.[.q d G <.1.:.=.3.' X. .../ ^ ; T.T.T.T.T.",
"T.T.T.T.n 6 [ )  . .` ;.;.G G   XXz.z.z.[.6X6X6XdXfXfX= s d.d.>Xe K >Xt.    7 D [.h [.[.  G G 6.%.8.6.1.,.;.*.' X.Z.M T.T.T.T.T.",
"T.T.T.T.Z n ] +.*.*.;.8.1.G G   oXN z.z.[.6X6X6X6X6XiX, s d.d.&Xp.6X>X+   &   F S + [.S K G G 1.8.<.8.2.1.1.3.) ! C M T.T.T.T.T.",
"T.T.T.T.v Y y.3.3.3.8.3.3.G G   XXz.z.z.[.4X6X6X6X6XiX,   t H &X>X%X= ,   f , & X > h o s.G G 8.3.1.,.1.8.9.3.^ Y i - T.T.T.T.T.",
"T.T.T.T.p ! *.q.9.;.;.8.3.G G   6X[.z.z.[.d.4X6X6X6X#X, , &         k N     * k * .     w   P 1.7.2.=.,.1.3.6.,.` Q 1 T.T.T.T.T.",
"T.T.T.T.! ^ ` 3.3.1.,.2.%.G G   6X6X,XC.[.d.d.4X6X6X[.0 , z.z., , k z.o X   7   % 9 O   , k   ;.1.%.$.%.,.3.w.2.' / i T.T.T.T.T.",
"T.T.T.T.i i ) ' *.,.*.;.;.G G   6X6X>X&X%X].XX,X6X6XC., % 9 j N k f * = % s 7 H s . O * f l   :.;.;.$.1.%.8.w.2.) ) i T.T.T.T.T.",
"T.T.T.T.Q / ) *.,.<.,.,.,.G G p.r.6X4Xd.%Xz.z.z.k K h , % 9 9 9 9 9 9 9 o   8 d.e.w d   &   P ,.$.;.;.,.;.=.2.-.` p 2 T.T.T.T.T.",
"T.T.T.T.i ` *.2.0.0.%.,.,.G G :X  4X6X>X&Xz.z.z.z.F & , % 9 9 9 9 9 9 =   9   s   j.h.j.{.e.G 2.$.;.;.,.,.,.2.3.*.! g T.T.T.T.T.",
"T.T.T.R.i Y / *.,.3.8.,.<.;.1.G P r.6X5X,Xz.z.z.z.%X* , % 9 9 9 9 * % . o 9 o p.j.h.G G G 1.0.8.2.,.,.8.8.w.2.*. .n v T.T.T.T.T.",
"T.T.T.T.C X...-.7.,.3.%.,.;.$.G G .X.X4X,Xz.z.z.H.K f                 t H   w f.h.h.G G G <.,.%.%.,.;.,.3.=.*.` O.o.x T.T.T.T.T.",
"T.T.T.T.b...y.0.7.2.<.,.,.,.;.;.2.G   .X{.z.z.C..X  % @ @ @ @ @ # # X   # G G G G G ,.3.9.0.3.,.$.,.;.;.=.[ [  .[ ] 2 T.T.T.T.T.",
"T.T.T.T.n ! =.7.6.$.8.9.9.0.2.-.2.G P 7 7 N C.r.  . @ r r r r r r r r   # r H G G G %.,.%.1.1.8.8.9.4.2.*.*.*.+.) Y q T.T.T.T.T.",
"T.T.T.T.q ( *.=.3.8.8.8.0.2.0.7.7.9.8.6.w F .X  O R a E E E E E a a a U U E 6.<.,.3.2.:.;.,.%.9.8.4.2.7.<.9.0.=./ i - T.T.T.T.T.",
"T.T.T.T.- p ! =.w.w.%.$.$.,.,.1.%.8.%.%.i.    $ T T T I U U U T U U U U E #.%.%.%.8.%.,.$.$.%.%.1.1.,.,.3.7.;.*._ p O T.T.T.T.T.",
"T.T.T.T.: u ^ ` 0.3.8.<.<.,.;.,.,.2.2.,.,.<.3.W E R T T E E U W U a I U -.1.;.;.;.,.1.:.3.3.1.8.9.9.4.:.;.=.:._ R ; O T.T.T.T.T.",
"T.T.T.T.> O R *.` ` ' ` *.` *.=.-.' +.' *.*.0.8.3.+.` R R y y u ^ y.;.3.6.0.3.3.3.q.-.` 2.4.:.3.2.' ' u R Y +.R O n & T.T.T.T.T.",
"R.T.T.T.& : Q R y O.| p ` p /  ./ ! *.^ / ) y.*...X.' ' ` Q i i p ^ [ Y ~ ` ( =.*.( ) p ..y...:.+.! : ; : ; u y 5 S.; T.T.T.T.T.",
"T.T.T.T.- Q.V x F._.+Xx.] x n { n x m i i ^ ! ] } +.|.L.Z.C S.S.x n n n 5 i ! Y ^ m ] x O. .} Z.K.} F.K.Q.M.n n m.M O T.T.T.T.T.",
"T.T.T.T.& A.^._.@X@X_.!.Q.Q.| Z K.^._.K.m.2 2 m.Q.Q.~.(.@X@X8Xm.- D.(.(.D.K.D.x.> D.(.~.+XK.F.^.8X@X8X8X@X(.`.+XU.< . T.T.T.T.T.",
"T.T.T.T.& q C F.Q.F.Q.`.@X+Xx Z @X@X_.^.Q.V > U.+X^.Q._._._.~.m.q A Q.Q.(.`.(.b.v F.Q.^.^.^.G.& x._._._.Q.^.(.Q.g o < T.T.T.T.T.",
"T.T.T.T.5 c V D.F.F.F.Q.F.V.1 q D.K.F.F.F.b.c m.Q.F.F.F.F.F.F.F.v C F.F.K.F.F.S.v F.F.F.F.Q.V.q b.S.F.F.F.F.S.Z 1 O v.T.T.T.T.T.",
"T.T.T.T.(.O 2 Z S.F.F.F.F.D.g > b.F.F.F.F.x.q S.F.F.F.F.F.F.F.m.& c G.Q.Q.F.F.m.2 S.F.F.F.F.C > b.F.F.F.Q.~.~.V.q g E.T.T.T.T.T.",
"T.T.T.T.=XO V A.G.D.G.Q.F.m.x & S.F.F.F.S.x & S.F.F.F.F.S.S.m.x.g q /._.^.Q.F.S.1 S.Q.F.F.F.Z & b.S.S.F.Q._.(.x.> A W.T.T.T.T.T.",
"T.T.T.T.=X; b.+X8X+X^.Q.F.F.b.> m.F.F.^.(.U.1 Z S.F.F.F.S.F.S.Q.n.= S.F.F.F.F.D.g S.F.F.F.F.Z v Q.F.F.F.F.F.S.b ; H.W.T.T.T.T.T.",
"T.T.T.T.9Xq v b.Q.Q.F.F.F.F.S.x Z F.Q.^./.D.1 V.S.Q.Q.Q.F.F.F.F.n.> m.F.F.F.F.F.B Q.F.F.F.F.x.b.F.F.F.F.F.F.b.b & H.Y.T.T.T.T.T.",
"T.T.T.T.0X1 b C F.F.F.F.F.F.D.M b.F.F.F.F.m.1 ^.+X_.(.F.F.F.F.F.b.1 m.F.F.K.F.F.b.F.F.F.F.F.x.m.F.F.F.F.F.S.V q - =XT.T.T.T.T.T.",
"T.T.T.T.8XV.q M m.F.F.F.F.F.S.b m.F.F.F.F.m.1 V.^.~.F.F.F.F.S.S.Z q b.F.F.Q.Q.D.V S.F.F.F.F.x.Z S.F.F.F.F.m.M 1 c.eXR.T.T.T.T.T.",
"T.T.T.T.W.eXV.1 M m.S.D.F.m.C x V.F.F.F.S.V c m S.F.F.F.F.S.S.S.n.g Z F.F.F.F.b.V S.Q.F.S.m.v v M.F.F.F.S.A c V.uX0XT.T.T.T.T.T.",
"T.T.T.T.T.'.uXOXV.V.b.S.Q.L. XH.V b.m.S.S.A H.b M Z V.m.V Z V M o. XS.S.x.A C M H.C b.b.x.V A.L.V.x.Z Z V.S. XpXuX'.T.T.T.T.T.T.",
"T.T.T.T.T.W.0XyXtXwX;X9XrXpXaXsX XA.A.L.OX;XuX;X XC.A A C V.[.-XtXsX-XA.V.V.[.-XuXwX XV.A.OXtXrXrX;X;X X-X-XaXaX8XR.T.T.T.T.T.T.",
"T.T.T.T.T.T.Y.I.!.!.+XyXwXeXpXyXuXaXpXpXsXuX`.8XrXrXrXrXtXtX0X9XyXaXyXpXaXpXaXsX@X`.eXrXaXsXaXuXrX8XeXrX9X(.`.W.R.T.T.T.T.T.T.T.",
"T.T.T.T.T.T.T.T.T.P.B.I.I.P.I.=X0XuXyXeX0X).J.Y.R.!.8X`.^.I.B.N.E.'.8XuXuXuXeX'.B.B.P.E.+X=X`.W.E.P.P.P.E.R.T.T.T.T.T.T.T.T.T.T.",
"T.T.T.T.T.T.T.T.T.T.P.B.N.B.T.T.I.N.N.n.6 B 5 B B.B.T.v.B.N.N.B.B.P.W.W.R.M.v.l.6 6 x.v.B.T.Y.T.T.B.B.R.Y.R.T.T.T.T.T.T.T.T.T.T.",
"T.T.T.T.T.T.T.T.T.T.T.T.T.T.T.T.T.T.T.T.T.T.T.T.T.T.T.T.T.T.T.T.T.T.T.T.T.T.T.T.T.T.T.T.T.T.T.T.T.T.T.T.T.T.T.T.T.T.T.T.T.T.T.T.",
"T.T.T.T.T.T.T.T.T.T.T.T.T.T.T.T.T.T.T.T.T.T.T.T.T.T.T.T.T.T.T.T.T.T.T.T.T.T.T.T.T.T.T.T.T.T.T.T.T.T.T.T.T.T.T.T.T.T.T.T.T.T.T.T.",
"T.T.T.T.T.T.T.T.T.T.T.T.T.T.T.T.T.T.T.T.T.T.T.T.T.T.T.T.T.T.T.T.T.T.T.T.T.T.T.T.T.T.T.T.T.T.T.T.T.T.T.T.T.T.T.T.T.T.T.T.T.T.T.T.",
"T.T.T.T.T.T.T.T.T.T.T.T.T.T.T.T.T.T.T.T.T.T.T.T.T.T.T.T.T.T.T.T.T.T.T.T.T.T.T.T.T.T.T.T.T.T.T.T.T.T.T.T.T.T.T.T.T.T.T.T.T.T.T.T."
};
