/* XPM */
static char *out[] = {
/* columns rows colors chars-per-pixel */
"64 64 225 2 ",
"   c #161C2E",
".  c #1C2334",
"X  c #232C2F",
"o  c #212435",
"O  c #24293B",
"+  c #2A2A3B",
"@  c #28323E",
"#  c #383338",
"$  c #4C393C",
"%  c #464F34",
"&  c #5C6C3C",
"*  c #2C2E41",
"=  c #293143",
"-  c #2C3A48",
";  c #353549",
":  c #393B4A",
">  c #3E3C50",
",  c #423F40",
"<  c #2D414B",
"1  c #34474B",
"2  c #3D5548",
"3  c #384854",
"4  c #2C545B",
"5  c #3E5157",
"6  c #3C585A",
"7  c #3B635C",
"8  c #3B5D63",
"9  c #396968",
"0  c #387277",
"q  c #4B4D4D",
"w  c #514A46",
"e  c #465A44",
"r  c #434055",
"t  c #48485E",
"y  c #445759",
"u  c #5D5D57",
"i  c #575958",
"p  c #654E4F",
"a  c #4C674A",
"s  c #58764B",
"d  c #476759",
"f  c #546952",
"g  c #57795B",
"h  c #6B794C",
"j  c #6C6555",
"k  c #494D63",
"l  c #465765",
"z  c #505767",
"x  c #4C5A70",
"c  c #555E74",
"v  c #605861",
"b  c #456765",
"n  c #4B6465",
"m  c #4C6B6C",
"M  c #55696A",
"N  c #48776A",
"B  c #537666",
"V  c #4F6F71",
"C  c #566579",
"Z  c #467876",
"A  c #547574",
"S  c #587A76",
"D  c #567B7B",
"F  c #5A7D7D",
"G  c #646C72",
"H  c #6F6F72",
"J  c #90625D",
"K  c #8C795E",
"L  c #827E6C",
"P  c #8C7779",
"I  c #9C7C79",
"U  c #6F853F",
"Y  c #71853E",
"T  c #5C835B",
"R  c #6C8243",
"E  c #62804B",
"W  c #748442",
"Q  c #7D8545",
"!  c #658959",
"~  c #648A5C",
"^  c #778F5A",
"/  c #6C935C",
"(  c #6D985C",
")  c #759958",
"_  c #739C5C",
"`  c #77A25D",
"'  c #7BA45D",
"]  c #7EA95D",
"[  c #598666",
"{  c #5D9264",
"}  c #4B8379",
"|  c #568C75",
" . c #58867A",
".. c #6E8F6D",
"X. c #669764",
"o. c #6B9C62",
"O. c #659875",
"+. c #77A566",
"@. c #73A572",
"#. c #98B74F",
"$. c #9BB94F",
"%. c #87A55B",
"&. c #83AC5D",
"*. c #8BAE5C",
"=. c #92AC5B",
"-. c #8EB356",
";. c #87B05A",
":. c #8BB159",
">. c #94B553",
",. c #9BB654",
"<. c #9CB850",
"1. c #94B25A",
"2. c #9BB359",
"3. c #A3AE57",
"4. c #A3B655",
"5. c #AAB757",
"6. c #A4B952",
"7. c #AAB954",
"8. c #A3B559",
"9. c #AAB759",
"0. c #B1B857",
"q. c #9A8565",
"w. c #87947B",
"e. c #A9936F",
"r. c #86AD64",
"t. c #90B46D",
"y. c #97A476",
"u. c #9AB575",
"i. c #A8B175",
"p. c #C49A6C",
"a. c #C8A876",
"s. c #CEB17E",
"d. c #D4C169",
"f. c #D6C577",
"g. c #EAE178",
"h. c #3D7D80",
"j. c #5E6F86",
"k. c #587C80",
"l. c #3E888B",
"z. c #5B8484",
"x. c #578A85",
"c. c #5E8B8B",
"v. c #5A928B",
"b. c #4E8F92",
"n. c #45979A",
"m. c #688B88",
"M. c #798589",
"N. c #65978A",
"B. c #73938C",
"V. c #629494",
"C. c #679896",
"Z. c #669C9C",
"A. c #6A9D9D",
"S. c #789B96",
"D. c #44A09F",
"F. c #6BA29C",
"G. c #78A597",
"H. c #489BA2",
"J. c #5A9BA5",
"K. c #6D9EA2",
"L. c #45A4A4",
"P. c #47ABA9",
"I. c #4AAAA9",
"U. c #56A8A9",
"Y. c #5AB4B0",
"T. c #6BA2A2",
"R. c #68A8AC",
"E. c #71A5A4",
"W. c #73AAAB",
"Q. c #76ABAB",
"!. c #73B2AF",
"~. c #7DB4B4",
"^. c #78B9B7",
"/. c #7BC5BC",
"(. c #828B8D",
"). c #8C9694",
"_. c #909596",
"`. c #A79F81",
"'. c #8CAD84",
"]. c #84A59B",
"[. c #B8AF8B",
"{. c #B8B28D",
"}. c #A6A898",
"|. c #93B0A7",
" X c #82B7B7",
".X c #86BDBC",
"XX c #A2ABAC",
"oX c #ABB4B5",
"OX c #B0B5B6",
"+X c #D5B887",
"@X c #CCB590",
"#X c #87C3BC",
"$X c #9AC4B7",
"%X c #A6CCBC",
"&X c #D7D28E",
"*X c #CAC096",
"=X c #DBC490",
"-X c #D6CB9D",
";X c #E1DA8C",
":X c #E2CD9A",
">X c #E5D29D",
",X c #EAE396",
"<X c #D4D1AA",
"1X c #E8D7A2",
"2X c #E3E1AC",
"3X c #EFE1AB",
"4X c #F4F4A0",
"5X c #AEB7C2",
"6X c #8BC6C3",
"7X c #9CCCC4",
"8X c #99D4C7",
"9X c #B8C1C3",
"0X c #ACD7C9",
"qX c #A8D8CB",
"wX c #B4DECC",
"eX c #B8E1CE",
"rX c #B9E6D4",
"tX c #BBE9D6",
"yX c #CDD1D5",
"uX c #C1EBD6",
"iX c #C2EDD9",
"pX c #C7F1DC",
"aX c #F6EED0",
"sX c #FCFAF1",
"dX c white",
/* pixels */
"P.P.P.P.P.P.P.P.P.P.P.P.P.P.P.P.P.P.P.P.P.P.P.P.P.P.P.P.P.P.P.P.P.P.P.P.P.P.P.P.P.P.P.P.P.P.P.P.P.P.P.P.P.P.P.P.P.P.P.P.P.P.P.P.",
"P.P.P.P.P.P.P.P.P.P.P.P.P.P.P.P.P.P.P.P.P.P.P.P.P.P.P.P.P.P.P.P.P.P.P.P.P.P.P.P.P.P.P.P.P.P.P.P.P.P.P.P.P.P.P.P.P.P.P.P.P.P.P.P.",
"P.P.P.P.P.P.P.P.P.P.P.P.P.P.P.P.P.P.P.P.P.P.P.P.P.P.P.P.P.P.P.P.P.P.P.P.P.P.P.P.P.P.P.P.P.P.P.P.P.P.P.P.P.P.P.P.P.P.P.P.P.P.P.P.",
"P.P.P.P.P.P.P.P.P.P.P.P.P.P.P.P.P.P.P.P.P.P.P.P.P.P.P.P.P.P.P.P.P.P.P.P.P.P.P.P.P.P.P.P.P.P.P.P.P.P.P.P.P.P.P.P.P.P.P.P.P.P.P.P.",
"P.P.P.P.P.P.P.P.P.P.P.L.P.P.P.P.P.P.P.P.P.P.P.P.P.P.I.I.P.P.P.P.P.P.P.P.P.P.P.P.P.P.P.P.P.P.P.P.P.P.P.P.P.P.P.P.P.P.P.P.P.P.P.P.",
"P.P.P.P.P.n.9 N 0 k.Z z.N } v.v.[ g 9 B B / g ~ N  .b.c. . .Z.T.N.N.v.v.x.V d B ! d B X.} } x.v.} [ N Z l.9 7 0 P.P.P.P.P.P.P.P.",
"P.P.P.P.l.4 e ] ! ` / @./ ] ;._ ] ` ( ` *.u.'.w.w.'.'.=.:.@.r.r.t.] ;.;.` o.] ;.-.] ) -.%.( ' +.+.] ! ) a ' ) E 7 D.P.P.P.P.P.P.",
"P.P.P.P.9 ( E 1.1.,.3.9.,.;.>.$.6.1.1.>.8.  O k j.c t , ..2.8.1.>.<.<.2.*.>.>.-.$.$.$.7.7.,.,.2.6.>.;.*.^ ;.] ) ! N l.P.P.P.P.P.",
"P.P.P.P.9 s %.5.6.6.6.1.>.-.<.5.7.7.7.-.q ; , , z C j.j.z G 1.r.>.7.7.7.7.,.%.-.-.1.-.>.$.<.<.<.1.-.:.,.4.2.] ` T N n.L.P.P.P.P.",
"P.P.P.P.9 ( ] 1.<.>.#.$.>.>.$.>.>.-.#.i.. r t C j.j.c c C C H `.>.>.>.-.#.$.#.#.>.7.>.#.$.#.,.$.$.#.>.>.9.1.&.] ! Z P.P.P.P.P.P.",
"P.P.P.P.Z a %.8.5.1.8.>.>.-.-.-.,.J J I ; r C j.j.j.j.C k c j.k u.-.,.-.#.$.J J J J #.6.7.3.2.#.#.-.:.>.-.o.o.) T N L.P.P.P.P.P.",
"P.P.P.P.9 o.%.8.5.6.6.6.4.4.1.2.2.J J   r r j.j.j.j.j.j.j.t j.j.w.2.2.,.6.0.J J J J >.>.#.#.$.7.6.6.2.2.1.1.] ' ` N n.P.P.P.P.P.",
"P.P.P.P.X.@.+.&.*.4.6.>.>.:.,.J J d.d.  r r r ; O ; k C j.c x j.P J J J J J d.d.s.d.J J J $.$.$.1.>.:.6.,.5.4.+.@.N } P.P.P.P.P.",
"P.P.P.P.| G.@.o.o.&.>.<.$.$.>.J J s.i.  > r r *     * z j.c k , H J J J J J d.d.d.d.J J J #.$.6.$.$.#.>.#.<.1.@.} x.} P.P.P.P.P.",
"P.P.P.P. .o.X.` *.>.>.<.<.J J g.;Xu     * r t r *     , j.k +   @X+X=X+Xp.p.;Xg.g.g.g.g.g.J J 7.6.<.#.;.:.1.:.+.X.v.V P.P.P.P.P.",
"P.P.P.P.x.o.+.] 1.7.8.9.,.J J g.[.. r ; . r , >   j   r x ,   q.j :X+X+Xp.p.g.g.g.g.g.g.g.J }.%X).,.#.-.<.6.8.r.o.b 8 P.P.P.P.P.",
"P.P.P.P.A ` &.-.<.4.<.1.<.J J g.  : r r + r r . e.p.K , , v e.a.:Xa.@Xp.p.p.p.p.g.g.g.g.2XOXoXXXM ,.#.$.$.6.4.' ( g 9 P.P.P.P.P.",
"P.P.P.P.g ] 1.<.<.>.>.<.,.J J g.  r r r O r ;   i.=Xs.a.a.+X+X:X=Xa.@Xp.p.p.p.p.g.g.g.3X9X).XX_.M #.-.,.,.,.8.^ T ! 6 P.P.P.P.P.",
"P.P.P.P.d ' %.=.1.>.:.:.-.J J g.  r r r o r * :     H w.P 3X3X3X:X>Xa.s.p.p.p.p.g.g.g.<X9X|.OX).z -.#.$.,.>.=.^ / ' g P.P.P.P.P.",
"P.P.P.P.g +.g _ 2.4.>.>.>.J J g.i = r r , :   :Xa.K q.*X3X3X3X`.-X3X+X+Xp.p.p.p.g.g.>X9X9XOX|.).v -.>.#.>.%.) ) g y 5 P.P.P.P.P.",
"P.P.P.P.e T g / %.>.<.-.>.J J g.;X  : r > O q +Xa.a.+X3X3X3X3X  L 3X>Xe.p.p.p.p.g.g.9XXX9X9X).G y #.:.-.-.-.#.3._ ! 6 P.P.P.P.P.",
"P.P.P.P.3 g / o.2.,.6.4.2.J J g.g.{.        L +Xa.a.+X3X3X3X3Xq u 3X3X, p.p.p.p.g.,XOX).oXOX).z y.,.>.6.6.4.2.=./ B 8 P.P.P.P.P.",
"P.P.P.P.3 N B ] 8.0.6.-.>.J J g.g.g.;X{.    L a.a.a.:X3X3X3X3XL   3X@Xq p.p.p.p.g.2XXX).oX).).@ u.>.-.6.6.5.9.) 1 z.D P.P.P.P.P.",
"P.P.P.P.b [ ( ] :.2.,.#.>.J I   j ;Xg.g.&X  1Xa.a.a.@X`.`.`.`.u   u   r {.g.g.g.g.XX).|.XX).G f $.>.-.>.,.1.1.' ! a 1 P.P.P.P.P.",
"P.P.P.P.7 ` ( o.1.5.6.6.6.I   dXz u g.g.&Xw :Xa.s.3X@Xq               *X  g.g.g.;XH _.XXXX).; i.7.6.1.-.1.:.%._ ` a - P.P.P.P.P.",
"P.P.P.P.4 { ` ] 1.5.7.6.8.P : i 9XOX  *Xz L +Xa.a.a.=X3X3XL       q [.=X  *X4X4X..G _.XX).H   7.8.4.4.8.&.o.o.T f e < P.P.P.P.P.",
"P.P.P.P.} { ` o.` *.,.>.1.I `.`.v M.dXOXG v w K K L q.a.+X:X3X3X  *X=Xa.w *X4X2X  M.(.M.).= H $.#.:.:.<.] ( o.o._ X.1 P.P.P.P.P.",
"P.P.P.P.N N { o.X.X.' -.;.J u j.(.<X..aXsXdXdX(._.).w a.a.a.a.3X  3Xa.a.j z J i z ).H ).G   J #.$.<.6.,.>.-.&.] o.N.V I.P.P.P.P.",
"P.P.P.P.D N { +.] &.:.6.,.J u j.j.j.(.*X3XaXaXdXdXyXw a.a.a.a.3X  3Xa.a., = P   _.(.H ).3 P J <.6.<.8.1.,.,.8._ ~ A V P.P.P.P.P.",
"P.P.P.P.m T %.1.2.<.6.,.,.J u j.j.j.j.}.3X3X3X3XdXj.w a.a.a.a.3X# 3Xa.w ; O : z (.1 M.(.u J J 4.,.,.#.<.6.6.1./ T d < P.P.P.P.P.",
"P.P.P.P.B T ;.9.9.:.>.4.2.J u j.j.j.j.}.3X3X3X3XaX5X; , q.a.a.3X2X3X: O   j.O + : = M y e.J J <.6.1.;.1.<.4.5.-.` T 3 P.P.P.P.P.",
"P.P.P.P.! / ' 2.,.<.>.1.<.J u (.j.j.j.}.=X3X3X3X3X5X-     w q.+X=Xq = 3   = C x = . q : [.P I 1.<.$.#.$.-.,.0.1.] ` f P.P.P.P.P.",
"P.P.P.P.d d ( ] *.-.%.*.>.J u 3X<XM.j.}.a.>X3X3X3Xj.= 3 x *       * x .       ; r ;       3   u.:.-.#.$.$.6.0.2._ _ d P.P.P.P.P.",
"P.P.P.P.~ ( ` &.>.,.#.#.>.J H 3X2X1Xe.).@X+X=X3X3Xj.x * > k k t : k ; > O   j # # + : * - j.3 u.>.-.>.>.-.:.2.*.` g 6 P.P.P.P.P.",
"P.P.P.P.d &.&.1.2.4.$.>.#.J P [.3X>Xa.a.).j.M.XX3XP x * , t r r r r r r r   # a.a.#   o , x   2.1.>.-.>.>.1.2.2.&./ l P.P.P.P.P.",
"P.P.P.P.d T / &.1.,.<.2.#.-.i.q 3X3X+Xa.).j.j.c = . k * r r t , r r r r ;   . q.q.u I z .   i.2.<.>.-.6.6.9.1.&.X.N b P.P.P.P.P.",
"P.P.P.P.S o.o.=.5.1.<.$.>.-.>.H `.3X1X=X_.j.j.j.}.  k = , r r , , ; ; +   ; ;   i f.J J J <.>.<.#.>.-.>.,.*.] ] .. .n P.P.P.P.P.",
"P.P.P.P.x./ &.9.9.1.<.>.>.>.-.-.M @X3X>Xj.j.j.j.[.= 3       o           + o +   J J >.<.5.2.2.>.#.>.-.-.*.{ { X.X.[ 6 P.P.P.P.P.",
"P.P.P.P.N ~ *.9.4.,.6.7.5.6.1.1.2.j 3X3Xc j.j.}.q z o ; # # # # $ p # o p # P I J J #.#.$.<.$.6.6.5.4.1.;.&.%.+.o.~ 6 P.P.P.P.P.",
"P.P.P.P.y _ r.=.,.<.6.6.8.1.8.9.9.y.q 3X8 j.j.q.    & h Q Q h W h K & % & Q $.>.1.2.1.;.-.#.6.6.<.2.2.9.,.5.8.;.( d < P.P.P.P.P.",
"P.P.P.P.< g ~ *.0.9.$.#.>.>.>.<.,.$.y.: : M.[.+ X & U U Y U h Y Y Y Y Y Y ,.$.$.$.6.$.>.<.#.$.<.#.,.>.#.,.6.-.] ` g O P.P.P.P.P.",
"P.P.P.P.2 s / ' ,.,.6.4.<.>.:.1.2.1.>.,.y L   # U E R R W Y Y Y U & U U 2.>.-.-.>.1.>.;.1.4.<.6.7.9.<.;.:.;.;._ ! < = P.P.P.P.P.",
"P.P.P.P.1 @ E r.%.] +._ %.+.&.;.*.' &.+.t.w.y.2.R s s R R a a s s h *.2.4.9.,.1.,.9.=.] 1.2.;.2.2.%.' s E E ] E @ N - P.P.P.P.P.",
"P.P.P.P.- 2 ! h d O.[ g ] g ( / _ ! ' / ( _ ] &.o.+.r.;.+...B B g / [ { ^ ' _ *.&._ ) g o.&.o.;.o.! 7 1 6 1 E a 7 V.1 P.P.P.P.P.",
"P.P.P.P.< E.A b Z.~.~.z.[ b N } B b [ 7 d ~ ~ [ | +.'.G.N.S V.V.7 N } N 7 d ! T / B [ b O.o. .N.F.| Z.F.T.v.N V c.V = P.P.P.P.P.",
"P.P.P.P.< m.Q.!..X.X~.W.T.T. .D F.W.~.T.v.d 8 c.F.E.R.!..X.X6Xm.< C.Q.!.C.F.C.k.3 C.Q.E. XT.Z.W.6X#X6X6X.XQ.!..XF.4 . P.P.P.P.P.",
"P.P.P.P.- y D Z.T.T.T.~..X~.n D .X.X~.W.T.A 1 K. XR.T.~.~.~.R.c.5 D T.T.!.~.~.z.n Z.T.E.W.W.A.- z.Q.~.~.T.W.!.T.n o 4 P.P.P.P.P.",
"P.P.P.P.9 n A C.Z.Z.Z.Z.T.m.6 y V.Z.Z.Z.Z.z.n m.T.Z.Z.Z.Z.Z.Z.Z.B D Z.Z.F.Z.Z.V.A Z.Z.Z.Z.T.m.6 z.Z.Z.Z.Z.Z.V.D 5 @ l.P.P.P.P.P.",
"P.P.P.P.!.@ 6 F V.Z.Z.Z.Z.C.l 1  .Z.Z.Z.Z.k.6 C.Z.Z.Z.Z.Z.Z.Z.c.- m A.T.T.Z.Z.m.6 Z.Z.Z.Z.Z.A 3 z.Z.Z.Z.T.E.E.m.y l U.P.P.P.P.P.",
"P.P.P.P.#X@ A C.A.V.T.T.Z.c.n < V.Z.Z.Z.V.n - m.Z.Z.Z.Z.c.V.c.k.l y Q.!.W.T.Z.V.5 v.T.Z.Z.Z.D < z.V.V.Z.T.~.Q. .5 D Y.P.P.P.P.P.",
"P.P.P.P.$X< z. X#X XW.F.Z.Z.z.3 c.Z.A.R.~.K.3 D Z.Z.Z.Z.V.Z.Z.Z.z.- V.Z.Z.Z.Z.Z.l V.Z.Z.Z.Z.D m T.Z.Z.Z.Z.Z.C.M 1 S.U.P.P.P.P.P.",
"P.P.P.P.8X5 M z.E.K.Z.Z.Z.Z.V.n D Z.T.W.Q.C.y m.V.Z.T.T.Z.Z.Z.Z.c.3 c.Z.Z.Z.Z.Z.A Z.Z.Z.Z.Z.k.z.Z.Z.Z.Z.F.Z.z.n - S.I.P.P.P.P.P.",
"P.P.P.P.8X5 m F Z.Z.Z.Z.Z.Z.C.V z.Z.Z.Z.Z.c.5 Q. X~.Q.T.Z.Z.Z.Z.F 5 c.F.Z.Z.Z.Z.z.T.Z.Z.Z.Z.z.c.Z.Z.Z.Z.Z.V.A l < .XP.P.P.P.P.P.",
"P.P.P.P.#Xm.y V c.Z.Z.Z.Z.Z.V.V c.Z.Z.Z.Z.z.y m.Q.T.Z.Z.Z.Z.Z.c.D y x.Z.Z.T.E.V.A V.Z.Z.Z.Z.k.D V.Z.Z.Z.Z.c.V 5 F qXI.P.P.P.P.P.",
"P.P.P.P.Y.wXm.5 m c.V.Z.Z.V.S d c.T.Z.A.V.A n B V.Z.Z.Z.Z.V.V.V.z.n D Z.A.Z.A.z.A V.Z.Z.V.c.m n c.Z.Z.Z.V.z.n m.uXqXP.P.P.P.P.P.",
"P.P.P.P.P./.tX|.m.m.z.V.F.T.).S.A z.c.V.V.k.S.m V F c.m.A A A A m.].m.V.k.k.A V G.A z.x.k.A B.G.m.D D D c.m.].iXtX/.P.P.P.P.P.P.",
"P.P.P.P.P.Y.8XwXeX0X$X7XwXuXpXiX].B.B.G.|.%XuX%X].M.F  .S m.S.$XwXiX$XB.m.m.].|.tX0X|.B.B.|.eXeXwX7X|.|.|.7XiXiX6XI.P.P.P.P.P.P.",
"P.P.P.P.P.P.L.U.R.R..XrX0XqXuXtXtXtXtXiXpXtX^.#XwXwXwXwXwXwXqX7XrXiXtXtXiXiXpXpX.X^.7XwXiXiXiXtXwX8XqXwX8X!.^.Y.I.P.P.P.P.P.P.P.",
"P.P.P.P.P.P.P.P.P.n.n.J.J.n.J.#X8XtXtXwX8X!.D.P.U.R..X~.E.J.n.b.U./.8XtXtXrXqX/.n.n.H.U.^.#X^.Y.U.H.H.H.U.U.P.P.P.P.P.P.P.P.P.P.",
"P.P.P.P.P.P.P.P.P.P.I.b.n.H.L.I.J.b.b.b.0 } 9 0 l.n.L.n.n.b.b.n.n.n.U.Y.U.n.x.h.0 0 k.l.n.P.L.P.P.n.H.L.L.I.P.P.P.P.P.P.P.P.P.P.",
"P.P.P.P.P.P.P.P.P.P.P.P.I.I.P.P.P.P.P.P.P.P.P.P.P.P.P.P.P.P.P.P.P.P.P.P.P.P.P.P.P.P.P.P.P.P.P.P.P.P.P.P.P.P.P.P.P.P.P.P.P.P.P.P.",
"P.P.P.P.P.P.P.P.P.P.P.P.I.I.P.P.P.P.P.P.P.P.P.P.P.P.P.P.P.P.P.P.P.P.P.P.P.P.P.P.P.P.P.P.P.P.P.P.P.P.P.P.P.P.P.P.P.P.P.P.P.P.P.P.",
"P.P.P.P.P.P.P.P.P.P.P.P.P.P.P.P.P.P.P.P.P.P.P.P.P.P.P.P.P.P.P.P.P.P.P.P.P.P.P.P.P.P.P.P.P.P.P.P.P.P.P.P.P.P.P.P.P.P.P.P.P.P.P.P.",
"P.P.P.P.P.P.P.P.P.P.P.P.P.P.P.P.P.P.P.P.P.P.P.P.P.P.P.P.P.P.P.P.P.P.P.P.P.P.P.P.P.P.P.P.P.P.P.P.P.P.P.P.P.P.P.P.P.P.P.P.P.P.P.P."
};
