/* XPM */
static char *out[] = {
/* columns rows colors chars-per-pixel */
"64 64 228 2 ",
"   c #161C2E",
".  c #1C2335",
"X  c #242735",
"o  c #24293B",
"O  c #25333E",
"+  c #36353B",
"@  c #403F36",
"#  c #55523C",
"$  c #566E3F",
"%  c #2C2E41",
"&  c #2B3747",
"*  c #363C45",
"=  c #36364A",
"-  c #3A3B4C",
";  c #3B3C50",
":  c #423F40",
">  c #2D414B",
",  c #34474B",
"<  c #3D5548",
"1  c #394854",
"2  c #2C545B",
"3  c #3E5157",
"4  c #3C585A",
"5  c #3B635C",
"6  c #3B5D63",
"7  c #396968",
"8  c #387277",
"9  c #4A4B4C",
"0  c #4F5146",
"q  c #434055",
"w  c #464958",
"e  c #445959",
"r  c #5B5A56",
"t  c #684948",
"y  c #4C674A",
"u  c #47675A",
"i  c #567150",
"p  c #57795B",
"a  c #6E6454",
"s  c #756B5A",
"d  c #494E63",
"f  c #465765",
"g  c #525962",
"h  c #50576D",
"j  c #535C72",
"k  c #456765",
"l  c #4B6465",
"z  c #4C6B6C",
"x  c #546C6C",
"c  c #48776A",
"v  c #537667",
"b  c #4E6C70",
"n  c #566579",
"m  c #467876",
"M  c #547574",
"N  c #587A76",
"B  c #567B7B",
"V  c #5A7D7D",
"C  c #73736D",
"Z  c #656C72",
"A  c #90625D",
"S  c #8C795E",
"D  c #827E6C",
"F  c #977876",
"G  c #71853F",
"H  c #5C835B",
"J  c #668148",
"K  c #768544",
"L  c #658859",
"P  c #648A5B",
"I  c #778F5A",
"U  c #6C935C",
"Y  c #6D985C",
"T  c #759859",
"R  c #739C5C",
"E  c #77A25D",
"W  c #7BA45D",
"Q  c #7EA95D",
"!  c #598666",
"~  c #5D9264",
"^  c #4B8379",
"/  c #568C75",
"(  c #59857A",
")  c #6D8E6C",
"_  c #669764",
"`  c #6B9C62",
"'  c #659875",
"]  c #76A465",
"[  c #73A572",
"{  c #849A4F",
"}  c #978B51",
"|  c #B09643",
" . c #9BB94F",
".. c #87A55A",
"X. c #83AC5D",
"o. c #8BAE5C",
"O. c #92AC5B",
"+. c #8EB256",
"@. c #87B05A",
"#. c #8BB159",
"$. c #94B553",
"%. c #9BB554",
"&. c #9CB850",
"*. c #94B25A",
"=. c #9BB359",
"-. c #9EB959",
";. c #A3AE57",
":. c #BFA954",
">. c #A2B655",
",. c #A9B757",
"<. c #A4B952",
"1. c #AAB954",
"2. c #A3B559",
"3. c #AAB759",
"4. c #ACB858",
"5. c #B1B857",
"6. c #998667",
"7. c #918C75",
"8. c #A8926C",
"9. c #85AD63",
"0. c #96AE63",
"q. c #96AE6E",
"w. c #A7BC6A",
"e. c #AEA77F",
"r. c #A9AC78",
"t. c #C49A6C",
"y. c #C8A876",
"u. c #C7A47E",
"i. c #CEB17E",
"p. c #ABC473",
"a. c #D4C169",
"s. c #D5C57C",
"d. c #EAE178",
"f. c #3D7D80",
"g. c #5E6F86",
"h. c #587C80",
"j. c #3E888B",
"k. c #5B8484",
"l. c #578985",
"z. c #5E8B8B",
"x. c #5A928B",
"c. c #488990",
"v. c #45979A",
"b. c #599896",
"n. c #688B88",
"m. c #778388",
"M. c #65978A",
"N. c #629494",
"B. c #679896",
"V. c #669C9C",
"C. c #6A9D9D",
"Z. c #719190",
"A. c #789B96",
"S. c #44A09F",
"D. c #6BA29C",
"F. c #78A597",
"G. c #489BA2",
"H. c #5A9BA5",
"J. c #6D9EA2",
"K. c #45A4A4",
"L. c #47ABA9",
"P. c #4AAAA9",
"I. c #56A8A9",
"U. c #5BB4B0",
"Y. c #6BA2A2",
"T. c #68A8AC",
"R. c #71A5A4",
"E. c #73AAAB",
"W. c #76ABAB",
"Q. c #72B2B0",
"!. c #7DB4B4",
"~. c #78B9B7",
"^. c #7BC5BC",
"/. c #838A8C",
"(. c #8E9494",
"). c #8D9694",
"_. c #A79481",
"`. c #A69F81",
"'. c #8DB689",
"]. c #84A59B",
"[. c #B9AC89",
"{. c #B7B28D",
"}. c #A6A898",
"|. c #8AACA4",
" X c #98A1A1",
".X c #94B8AC",
"XX c #82B7B7",
"oX c #86BDBC",
"OX c #A2ABAC",
"+X c #AAB3B4",
"@X c #B0B7BA",
"#X c #C8AA8B",
"$X c #D3B887",
"%X c #BFC19B",
"&X c #87C3BC",
"*X c #9AC4B7",
"=X c #BECCA9",
"-X c #A6CCBC",
";X c #D5CC89",
":X c #CAC096",
">X c #DBC490",
",X c #E1DA8C",
"<X c #E2CE99",
"1X c #E5D29D",
"2X c #EAE38C",
"3X c #CECAA9",
"4X c #EADAA5",
"5X c #E3E1AC",
"6X c #EFE1AB",
"7X c #F4F4A0",
"8X c #8BC6C3",
"9X c #9CCCC4",
"0X c #99D4C7",
"qX c #B8C1C3",
"wX c #ACD7C9",
"eX c #A8D8CB",
"rX c #B4DECC",
"tX c #B8E1CE",
"yX c #B9E6D4",
"uX c #BBE9D6",
"iX c #CFD2D6",
"pX c #C1EBD6",
"aX c #C2EDD9",
"sX c #C7F1DC",
"dX c #F4EBC7",
"fX c #D6DBE0",
"gX c #FAF6E7",
"hX c white",
/* pixels */
"L.L.L.L.L.L.L.L.L.L.L.L.L.L.L.L.L.L.L.L.L.L.L.L.L.L.L.L.L.L.L.L.L.L.L.L.L.L.L.L.L.L.L.L.L.L.L.L.L.L.L.L.L.L.L.L.L.L.L.L.L.L.L.L.",
"L.L.L.L.L.L.L.L.L.L.L.L.L.L.L.L.L.L.L.L.L.L.L.L.L.L.L.L.L.L.L.L.L.L.L.L.L.L.L.L.L.L.L.L.L.L.L.L.L.L.L.L.L.L.L.L.L.L.L.L.L.L.L.L.",
"L.L.L.L.L.L.L.L.L.L.L.L.L.L.L.L.L.L.L.L.L.L.L.L.L.L.L.L.L.L.L.L.L.L.L.L.L.L.L.L.L.L.L.L.L.L.L.L.L.L.L.L.L.L.L.L.L.L.L.L.L.L.L.L.",
"L.L.L.L.L.L.L.L.L.L.L.L.L.L.L.L.L.L.L.L.L.L.L.L.L.L.L.L.L.L.L.L.L.L.L.L.L.L.L.L.L.L.L.L.L.L.L.L.L.L.L.L.L.L.L.L.L.L.L.L.L.L.L.L.",
"L.L.L.L.L.L.L.L.L.L.L.L.L.L.L.L.L.L.L.L.L.L.L.U.z = d Z.Z.Q.L.L.L.L.L.L.L.L.L.L.L.L.L.L.L.L.L.L.L.L.L.L.L.L.L.L.L.L.L.L.L.L.L.L.",
"L.L.L.L.L.v.7 c 7 h.m k.c ^ x.x.v p k ! v P m.  ; h h g.g.j q |.M.M.x.x.l.b k v P u v P ^ ^ l.x.^ / c m 8 7 7 7 L.L.L.L.L.L.L.L.",
"L.L.L.L.j.2 < Q Y E P [ Y Q @.R Q W R ] o.+.  % ; h n g.g.g.g.; '.@.X.@.E Y Q X.+.Q T +.W R W W Q Q L R i W R J 5 j.L.L.L.L.L.L.",
"L.L.L.L.7 T J *.#.=.;.,.%.@.$. .&.*.=.$.&.q.o q j g.g.g.h d g.g.w w.<.*.#.*.$.+. . . .1.1.%.=.=.<.$.@.o.T X.@.R P ^ j.L.L.L.L.L.",
"L.L.L.L.7 i ..,.,.<.<.$.*.+.&.1.<.1.<.+.o.q.% q g.g.g.g.g.g.: g.n r.1.1.<. .@.+.+.=.+.$.&. . .&.*.$.#.%.2.=.Q E H c v.L.L.L.L.L.",
"L.L.L.L.7 U Q =.&.$.$. . .$.$.$.$.+. . .$.C % q = q d g.g.g.g.d g.w $.$. . .$. .$.<.$.$.&. .%. . .$.$.$.1.*.X.Q H ^ L.L.L.L.L.L.",
"L.L.L.L.m y ..=.,.*.%.$.$.#.+.+.=.A A A A 1 : : : o o = d g.g.d g.= =.#. . .A A A A  .&.1.>.=.=.$.+.#.$.#.` ` R P k K.L.L.L.L.L.",
"L.L.L.L.5 ` o.2.4.>.<.1.1.&.=.=.=.A A F   . : d q =     % g.g.h h   =.&. . .A A A A $.$.$.$. .<.<.<.%.=.*.*.Q ] E c v.L.L.L.L.L.",
"L.L.L.L._ ] ] 9.o.>.<.$.$.#.=.A A a.C   %   ; q q q %   % h g.h %   F A A A a.a.a.a.A A A  . .&.$.0.+.>.%.1.2.Q ` m ^ L.L.L.L.L.",
"L.L.L.L./ F.[ _ ` X.$.&.&. .$.A A $X  - : ; . q q % % A % : d : + 8.s #XA A a.i.a.a.A A A $.p.3XqXw. .$. .&.*.[ ^ l.B L.L.L.L.L.",
"L.L.L.L.( ` _ ] o.$.$.&. .A A d.d.;X% q q q   q =   #Xu.8.: : a y.y.1X$X$Xt.2Xd.d.d.d.d.d.A qX X Xq.$.#.#.#.+.[ ~ M.b L.L.L.L.L.",
"L.L.L.L.l.` ] Q *.1.2.,.%.A A d.,X<X% q q o   : + . _.$X#Xy.#Xy.$X<X1Xy.$Xt.d.d.d.d.d.d.d.}.qX(.OX0. .+. .<.,.9.` k 7 L.L.L.L.L.",
"L.L.L.L.B E X.+.%.&.<.$.%.A A d.d.d.  - q - - q * D #   r D e.6X6X6X<X4Xy.#Xt.t.d.d.d.d.,XqXqX+X+X0. . .&.<.<.W R p 7 L.L.L.L.L.",
"L.L.L.L.p Q #.-.%.$.+.&.%.A A d.d.d.{.+ q q q = r >Xy.y.$X6X6X6X6XD [.6X<X$Xt.t.d.d.d.d.iXqXqX3X).0.+. .%.=.>.I p L 4 L.L.L.L.L.",
"L.L.L.L.y W o.O.*.$.o.o.+.A A d.d.d.,X  = q = X C y.y.y.$X6X6X6X6X  9 6X<Xy.#Xt.d.d.d.,X=X).@X-X(.9.$. .%.$...I Y W p L.L.L.L.L.",
"L.L.L.L.p ] p R %.<.$.$.$.A A d.d.d.d.C         e.y.y.y.$X6X6X6X6X9   6X6X@ _.t.d.d.2X5XOX).+X X).W $. .+.9.{ T p e 3 L.L.L.L.L.",
"L.L.L.L.e H p U X.$. .$.$.A A d.d.[.[.d.u.7.r   e.y.y.y.<X6X6X6X6XD . `.D   u.t.d.d.2X@X X(.+X).m.K +.+.+.+.&.3.T P 4 L.L.L.L.L.",
"L.L.L.L., p U R =.%.<.>.<.A A d.s Z   D t.t._.  >Xy.y.y.[.D D D D 9           u.d.d.,XOX(.+X X).r o.+.>.<.>.=.O.U v 6 L.L.L.L.L.",
"L.L.L.L.1 m v Q 2.5.<.+.$.A A {.  /.qXh a #X_.9 $Xy.$X6X$Xw .             {.D [.d.d.7.).(.@X X).  *.$.<.<.1.,.T 1 k.B L.L.L.L.L.",
"L.L.L.L.k ! Y Q o.=.%. .$.A A %XD 7.; @XfX/.  r 8.y.y.y.$X1X6X`.r r   9 :X$Xa 7.d.2Xo ).(.g.).1 e $.+.$.%.*.*.T H y , L.L.L.L.L.",
"L.L.L.L.4 E Y ` *.,.<.<.<.A A 7X9 ).3XD 7.fXhXhX(.        y.y.$X6X6X  `.$Xy.y.7.d.i.e ).) (.m.  w.<.%.#.#.@.Q R W y & L.L.L.L.L.",
"L.L.L.L.5 ~ E Q *.1.4.<.2.A A |   (.g./.}.6XdXdXhXhXhXhXZ y.y.y.y.6X. `.u.y.y.r 7X  m.).Z (.g a 4.2.=.2.o.` R H i < > L.L.L.L.L.",
"L.L.L.L.c ~ E ` ] o.$.&.$.A A |   ).g.g.g.(.6X6X6XdXgXiX& y.y.y.y.6X  `.y.y.a   (., ).1 g.).1 w.%.#.#.&.W ` ` ` T Y , L.L.L.L.L.",
"L.L.L.L.c 8 ~ R _ ~ Q #.+.A A :.  ).g.g.g.(.6X6X6X5XdXiX1 6.y.y.y.6X  $Xy.,   o   w g o C C C =. .&.>.&.$.+.9...` M.b L.L.L.L.L.",
"L.L.L.L.B c ~ ] X.o.+.<.%.A A :.  ).g.g.g.(.1X6X6X6X6XgXd : F y.y.6X6X6X@ % ; = ; %   - x , F &.<.2.>.*.=.&.2.T P N z L.L.L.L.L.",
"L.L.L.L.z H 9.*.=.%.>.%.%.A A :.  1XOXm.g.(.y.>X6X6X6X=Xd % % - a F 7.d 1 n o   = d ; % X o ; & 0 -. .$. .1.*.U H u > L.L.L.L.L.",
"L.L.L.L.p H @.4.1.#.+.>.=.A A :.8.`.6X6X[.m.1X$Xi.6X6X3Xg.  h 1 O     q ;   ; % a   . = : o & g.1 0.@.$.&.>.1.+.W P 3 L.L.L.L.L.",
"L.L.L.L.H U W =.%.%.$.$.&.A A a.`.`.6X6Xy.$X}./.{.6X6X6Xf   q q h h d d : d : 9 @ F a   . ; ; g.& -. .&.+.%.4.=.Q Y u L.L.L.L.L.",
"L.L.L.L.u u R Q o.+.#.#.$.A A a.i.9 6X6X1Xu.}.g.g.g.Z r f   q q : q q q q q =     8.S y e.9 X X q.+.$. . . .5.*.R R u L.L.L.L.L.",
"L.L.L.L.L U R X.$.%.$.$.$.A A a.a.e.[.6X6X$X}.g.g.g.g.D f   q q q q q : q ;   ; X   r i.i.A A  .$.+.$.$.+.#.=.O.] p 4 L.L.L.L.L.",
"L.L.L.L.u Q o.+.=.1.&.$.$.A A a.a.a.0 6X6X<X/.g.g.g.m.D f   9 q q : q % .     ; q   s.a.a.A A  .$.$.+.$.+.=.=.=.X.P f L.L.L.L.L.",
"L.L.L.L.u H U o.*.$.>.$.%.+.&.A A a.s.C :X6Xn g.g.m.{.& &       .   . * X   @ r 7.`.A A A  . .<.=.$.$. .<.,.*.X.` v z L.L.L.L.L.",
"L.L.L.L.V ` ` 9.,.*.%.&.$.+.$.A A a.a.;X  :X1 g.g.[.    # } } } } } } } #   # } a.a.A A A <.%. . .$.+.$.=.@.Q Q ' ' k L.L.L.L.L.",
"L.L.L.L.l.U X.,.,.*.&.$.$.$.+.+.$.A A A F , % g.OX9   X t t t t t t t t t t t t A A $.%.1.=.=.$. .$.+.$.o.~ ~ _ _ v 4 L.L.L.L.L.",
"L.L.L.L.c P o.,.1. .<.1.1.>.*.*.%.A A A A F   C S X X t t t t t t t t t t t t A A A $.$.&. .&.<.<.1.>.O.@.....] Y P 4 L.L.L.L.L.",
"L.L.L.L.e R 9.@.=.<.<.>.2.*.2.,.<.<.<.<. .#.w.) a $ i G G G s K { K $ } G { =.=.$.=.%.@.+.$.&.<.%.=.*.4.%.1.2.@.U u > L.L.L.L.L.",
"L.L.L.L.> p U ..5.1.&. .$.$.$.&. .<.&. . . .&.>.$.$.*.*.{ G J G $ G %.%. . . . . .>. .$.&.&. . .&.&.$. .%.1.+.Q R p . L.L.L.L.L.",
"L.L.L.L.< i U ..2.%.>.>.&.$.+.+.=.*.$.*.+.=.&.$.%.@.+.%.>.&.<.&. .$.*.%.$.$.+.$.$.$.$.o.$.%.%.<.1.1.&.@.#.@.@.E L , O L.L.L.L.L.",
"L.L.L.L.1 O J ] W W Q ] ..W Q o.o.Q X.Q Q o.2.>.*.Q X.#.*.L I W R #.o.=.>.2.=.$.%.1.O.Q *.2.@.=.*.W E i H J X.J O c & L.L.L.L.L.",
"L.L.L.L.& < L J u ' ! p W p R _ R H Q U U R X.X.E ` Q X.W P u k p U H H I ..R o.o.T Y p _ 9.` @.` U < , 4 , i y 5 N., L.L.L.L.L.",
"L.L.L.L.> R.M u V.!.XXh.! k c ^ v k ! k u U P H / ] '.F.M.B N.x.k c ^ c 5 u P H U v ! k ' ` / M.D./ V.D.Y.M.k c z.M & L.L.L.L.L.",
"L.L.L.L.> n.E.!.oXoX!.E.Y.Y.^ B D.E.!.D.z.4 6 x.Y.Y.Y.Q.oXoX8Xn.> B.W.Q.b.D.B.V 1 B.W.Y.XXY.V.E.8X&X8X8XoXQ.~.oXA.2 . L.L.L.L.L.",
"L.L.L.L.& e B C.Y.V.C.~.&XXXl B oXoX!.E.C.M 1 J.!.E.Y.!.!.!.E.z.3 V R.Y.W.!.!.k.z V.Y.E.E.E.C.& h.W.!.!.Y.E.Q.Y.f . 2 L.L.L.L.L.",
"L.L.L.L.7 l M N.V.V.V.Y.Y.n.3 e N.V.V.V.V.l.f n.Y.J.V.V.V.V.V.V.b B V.V.D.D.V.N.b V.V.V.V.Y.n.e k.V.V.V.b.D.N.B 3 & j.L.L.L.L.L.",
"L.L.L.L.Q.O 4 ( V.B.V.V.V.V.f , h.V.V.V.V.k.3 V.V.V.V.V.V.V.V.z.& b C.J.Y.V.V.x.3 V.V.V.V.V.M 1 k.B.V.V.Y.R.R.n.e f P.L.L.L.L.L.",
"L.L.L.L.&XO M Z.C.N.C.Y.V.z.l > N.V.V.V.b.l & N.V.V.V.V.x.N.z.h.f 3 W.!.E.Y.V.B.3 x.Y.V.V.V.B > z.N.N.V.Y.!.W.V 3 N U.L.L.L.L.L.",
"L.L.L.L.*X> k.XXoXoXE.C.V.V.k.1 z.V.V.E.W.R.w B B.V.V.V.N.V.B.C.l.> N.V.V.V.V.B.f B.V.V.V.V.B z Y.V.V.V.V.V.N.M , A.I.L.L.L.L.L.",
"L.L.L.L.0Xw z k.Y.Y.V.V.V.C.N.k B V.Y.E.W.B.3 n.N.D.Y.C.V.V.V.V.k.1 z.V.V.V.V.V.m D.V.V.V.V.V k.V.V.V.V.C.C.k.l & A.P.L.L.L.L.L.",
"L.L.L.L.0X3 l ( V.V.V.V.V.V.B.x k.V.V.V.V.z.3 W.XX!.Q.C.V.V.V.V.( 3 z.V.V.V.V.B.h.V.V.V.V.V.k.z.V.V.V.V.V.B.M e , &XL.L.L.L.L.L.",
"L.L.L.L.8Xn.e z x.V.V.V.V.V.N.b k.V.Y.V.V.z.e k.E.R.C.V.V.V.B.N.B e z.V.V.Y.Y.B.M B.V.V.V.V.B B b.V.V.V.V.z.x 1 V eXP.L.L.L.L.L.",
"L.L.L.L.U.rXn.3 x z.N.N.V.n.N l N.V.V.V.N.M k M b.V.V.V.B.V.N.N.z.f B V.V.V.V.k.b V.Y.V.N.z.z z z.B.V.V.N.h.z n.pXeXL.L.L.L.L.L.",
"L.L.L.L.L.^.yX.Xn.n.k.B.D.R.F.A.M k.k.N.N.( ).l x V z.z.M B b b ( ].n.N.h.V B c ).M k.l.V M Z.F.n.h.V B z.n.|.pXuX^.L.L.L.L.L.L.",
"L.L.L.L.L.P.0XrXtXwX*XwXrXpXaXaX|.n.Z.F.|.wXuX-X|.) ( V N n.A.*XtXsX*XZ.n.n.]..XuX-X|.Z.Z.|.yXrXrX-X*X|..X9XaXuX8XP.L.L.L.L.L.L.",
"L.L.L.L.L.L.L.H.T.T.oXyXeXeXpXyXuXuXaXaXsXuX~.&XrXrXrXtXtXrXeX-XyXaXyXuXaXaXsXsXoX!.eXrXaXsXaXuXrX9XeXrX9X!.~.U.P.L.L.L.L.L.L.L.",
"L.L.L.L.L.L.L.L.L.G.v.H.J.v.T.~.0XuXyXyX0XQ.K.K.H.T.oX!.R.H.v.v.I.8X8XuXuXuXeX&XG.v.G.I.XX&X~.U.P.G.G.G.H.P.L.L.L.L.L.L.L.L.L.L.",
"L.L.L.L.L.L.L.L.L.L.K.c.v.G.K.L.b.c.b.c.8 m 7 m j.G.L.v.v.c.c.v.v.v.U.U.I.b.f.f.8 8 h.j.v.L.S.L.K.v.v.P.L.L.L.L.L.L.L.L.L.L.L.L.",
"L.L.L.L.L.L.L.L.L.L.L.L.L.L.L.L.L.L.L.L.L.L.L.L.L.L.L.L.L.L.L.L.L.L.L.L.L.L.L.L.L.L.L.L.L.L.L.L.L.L.L.L.L.L.L.L.L.L.L.L.L.L.L.L.",
"L.L.L.L.L.L.L.L.L.L.L.L.L.L.L.L.L.L.L.L.L.L.L.L.L.L.L.L.L.L.L.L.L.L.L.L.L.L.L.L.L.L.L.L.L.L.L.L.L.L.L.L.L.L.L.L.L.L.L.L.L.L.L.L.",
"L.L.L.L.L.L.L.L.L.L.L.L.L.L.L.L.L.L.L.L.L.L.L.L.L.L.L.L.L.L.L.L.L.L.L.L.L.L.L.L.L.L.L.L.L.L.L.L.L.L.L.L.L.L.L.L.L.L.L.L.L.L.L.L.",
"L.L.L.L.L.L.L.L.L.L.L.L.L.L.L.L.L.L.L.L.L.L.L.L.L.L.L.L.L.L.L.L.L.L.L.L.L.L.L.L.L.L.L.L.L.L.L.L.L.L.L.L.L.L.L.L.L.L.L.L.L.L.L.L."
};
