/* XPM */
static char *out[] = {
/* columns rows colors chars-per-pixel */
"64 64 230 2 ",
"   c #161C2E",
".  c #1D2435",
"X  c #212536",
"o  c #2B2B31",
"O  c #292833",
"+  c #24293B",
"@  c #27333C",
"#  c #3A3239",
"$  c #523C3F",
"%  c #4D5D35",
"&  c #54653A",
"*  c #2C2E41",
"=  c #293143",
"-  c #2C3A49",
";  c #353549",
":  c #393B48",
">  c #3E3C50",
",  c #423F40",
"<  c #2D414B",
"1  c #35474B",
"2  c #3D5548",
"3  c #394854",
"4  c #2C545B",
"5  c #3E5157",
"6  c #3C585A",
"7  c #3B635C",
"8  c #3B5D63",
"9  c #396968",
"0  c #387277",
"q  c #4B4C4D",
"w  c #4F5046",
"e  c #434055",
"r  c #444959",
"t  c #445858",
"y  c #5A5A55",
"u  c #665454",
"i  c #4C674A",
"p  c #526B4F",
"a  c #57744B",
"s  c #476759",
"d  c #57795B",
"f  c #677E47",
"g  c #6A6758",
"h  c #454E63",
"j  c #4A4D63",
"k  c #465865",
"l  c #505462",
"z  c #50576D",
"x  c #525D73",
"c  c #4B6465",
"v  c #486867",
"b  c #556A6B",
"n  c #48776A",
"m  c #537666",
"M  c #4F6F71",
"N  c #57677A",
"B  c #467876",
"V  c #547574",
"C  c #587A76",
"Z  c #567B7B",
"A  c #5A7D7D",
"S  c #777668",
"D  c #646B72",
"F  c #6B7272",
"G  c #737B7C",
"H  c #90625D",
"J  c #8C795E",
"K  c #827E6C",
"L  c #937978",
"P  c #6F853F",
"I  c #70853E",
"U  c #5D825B",
"Y  c #6C8243",
"T  c #62804A",
"R  c #748442",
"E  c #7B8443",
"W  c #658959",
"Q  c #648A5C",
"!  c #778F5A",
"~  c #6C935C",
"^  c #6D985C",
"/  c #759958",
"(  c #739C5C",
")  c #77A25D",
"_  c #7BA45D",
"`  c #7EA95D",
"'  c #598666",
"]  c #5D9264",
"[  c #4B8379",
"{  c #568C75",
"}  c #58867A",
"|  c #6B866D",
" . c #669764",
".. c #6B9C62",
"X. c #719D64",
"o. c #659875",
"O. c #76A565",
"+. c #73A572",
"@. c #B09643",
"#. c #98B74F",
"$. c #9BB94F",
"%. c #87A45B",
"&. c #83AC5D",
"*. c #8BAE5C",
"=. c #92AC5B",
"-. c #8EB256",
";. c #87B05A",
":. c #8BB159",
">. c #94B553",
",. c #9BB654",
"<. c #9CB850",
"1. c #94B25A",
"2. c #9BB359",
"3. c #A3AE57",
"4. c #BFA954",
"5. c #A2B655",
"6. c #AAB757",
"7. c #A4B852",
"8. c #AAB954",
"9. c #A3B559",
"0. c #AAB759",
"q. c #B1B857",
"w. c #958E70",
"e. c #AA906A",
"r. c #A59B75",
"t. c #B09A7F",
"y. c #82AC63",
"u. c #94A375",
"i. c #93B472",
"p. c #ADAB6A",
"a. c #A3BC69",
"s. c #AFA67F",
"d. c #A3B973",
"f. c #C49A6C",
"g. c #C8A876",
"h. c #CCAE7B",
"j. c #CEB17E",
"k. c #D4C169",
"l. c #EAE178",
"z. c #3D7D80",
"x. c #5E6F86",
"c. c #587C80",
"v. c #6E7B8A",
"b. c #3E888B",
"n. c #5B8484",
"m. c #578A85",
"M. c #5E8B8B",
"N. c #5A928B",
"B. c #4E8F92",
"V. c #45979A",
"C. c #688B88",
"Z. c #79878A",
"A. c #65978A",
"S. c #73938C",
"D. c #629494",
"F. c #679896",
"G. c #669C9C",
"H. c #6A9D9D",
"J. c #789B96",
"K. c #44A09F",
"L. c #6BA29C",
"P. c #78A597",
"I. c #489BA2",
"U. c #5A9BA5",
"Y. c #6D9EA2",
"T. c #45A4A4",
"R. c #47ABA9",
"E. c #4AAAA9",
"W. c #56A8A9",
"Q. c #5AB4B0",
"!. c #6BA2A2",
"~. c #68A8AC",
"^. c #73AAAB",
"/. c #74A8A8",
"(. c #73B2AF",
"). c #7DB4B4",
"_. c #78B9B7",
"`. c #7BC5BC",
"'. c #8F9594",
"]. c #8C9695",
"[. c #AD8F8C",
"{. c #A69E81",
"}. c #93B284",
"|. c #84A59B",
" X c #B8AF8B",
".X c #B1B48E",
"XX c #A8A997",
"oX c #939FAE",
"OX c #9BA5A5",
"+X c #91B5A9",
"@X c #82B7B7",
"#X c #86BDBC",
"$X c #A2ABAC",
"%X c #ABB4B5",
"&X c #B1B7B9",
"*X c #CCB388",
"=X c #D3B784",
"-X c #B3C885",
";X c #87C3BC",
":X c #9AC4B7",
">X c #A6CCBC",
",X c #BAC8B7",
"<X c #D3CB8D",
"1X c #DBC490",
"2X c #D5C99B",
"3X c #E2D096",
"4X c #E5D29D",
"5X c #E9E287",
"6X c #D6D4A5",
"7X c #E8D7A2",
"8X c #EFE1AB",
"9X c #F4F4A0",
"0X c #F1E6B9",
"qX c #8BC6C3",
"wX c #9CCCC4",
"eX c #99D4C7",
"rX c #B8C1C3",
"tX c #ACD7C9",
"yX c #A8D8CB",
"uX c #B4DECC",
"iX c #B8E1CE",
"pX c #B9E6D4",
"aX c #BBE9D6",
"sX c #D1D3D6",
"dX c #C1EBD6",
"fX c #C2EDD9",
"gX c #C7F1DC",
"hX c #F3EECF",
"jX c #F3F2EA",
"kX c white",
/* pixels */
"R.R.R.R.R.R.R.R.R.R.R.R.R.R.R.R.R.R.R.R.R.R.R.R.R.R.R.R.R.R.R.R.R.R.R.R.R.R.R.R.R.R.R.R.R.R.R.R.R.R.R.R.R.R.R.R.R.R.R.R.R.R.R.R.",
"R.R.R.R.R.R.R.R.R.R.R.R.R.R.R.R.R.R.R.R.R.R.R.R.R.R.R.R.R.R.R.R.R.R.R.R.R.R.R.R.R.R.R.R.R.R.R.R.R.R.R.R.R.R.R.R.R.R.R.R.R.R.R.R.",
"R.R.R.R.R.R.R.R.R.R.R.R.R.R.R.R.R.R.R.R.R.R.R.R.R.R.R.R.R.R.R.R.R.R.R.R.R.R.R.R.R.R.R.R.R.R.R.R.R.R.R.R.R.R.R.R.R.R.R.R.R.R.R.R.",
"R.R.R.R.R.R.R.R.R.R.R.R.R.R.R.R.R.R.R.R.R.R.R.R.R.R.R.R.R.R.R.R.R.R.R.R.R.R.R.R.R.R.R.R.R.R.R.R.R.R.R.R.R.R.R.R.R.R.R.R.R.R.R.R.",
"R.R.R.R.R.R.T.R.R.R.R.R.R.R.R.R.R.R.R.R.R.R.R.R.R.R.R.R.R.R.R.R.R.R.R.R.R.R.R.R.R.R.R.R.R.R.E.E.R.R.R.R.R.R.R.R.R.R.R.R.R.R.R.R.",
"R.R.R.R.R.V.9 n 0 c.B M.n B N.N.' m v d d ~ d Q n [ N.m.} { G.!.A.A.N.N.m.B v d W s m  .[ [ { N.B ' n B z.9 9 0 T.R.R.R.R.R.R.R.",
"R.R.R.R.b.4 % ` W ) ~ X.^ ` ;.) ` ) ^ ) ;.-.-.-.&.` O.2.*.+.+.y.i.` ;.;.( ~ &.&.;.&./ 1.&.( O.O.O.&.Q ( i _ / T 7 V.R.R.R.R.R.R.",
"R.R.R.R.9 ^ W *.1.2.3.0.2.;.>.$.7.1.>.>.#.#.#.#.9.d.| r z w.d.d.>.$.<.,.;.1.#.-.$.$.<.7.8.2.,.2.8.>.;.-./ &.&.( W n b.R.R.R.R.R.",
"R.R.R.R.9 a %.8.7.7.7.>.1.-.7.7.8.7.8.-.;.>.-.d.  ; e x.x.x.x.j | d.q.q.7.#.:.:.-.1.:.#.$.$.<.<.1.-.-.,.9.2.` ) W n V.R.R.R.R.R.",
"R.R.R.R.0 ~ ` 1.$.>.>.$.>.>.$.>.>.>.<.$.>.$.d.  > , j z x x.x.x.N e d.>.#.$.#.#.#.7.>.#.$.<.>.$.$.>.>.>.8.1.&.&.U B R.R.R.R.R.R.",
"R.R.R.R.B i %.9.6.2.,.,.>.-.-.-.>.H H H H H   ; e z x x x.x j z z N g ;.#.$.H H H H #.7.7.6.,.#.#.-.-.>.-.....( Q v T.R.R.R.R.R.",
"R.R.R.R.7 ^ %.9.6.5.7.7.5.,.2.2.,.H H H H L   e j x.x.x.x.x.x.x.j z x d.7.8.H H H H #.1.>.$.$.7.5.7.2.2.2.*._ O.) n V.R.R.R.R.R.",
"R.R.R.R. .+.O.&.*.5.7.<.>.-.2.H H k.k.k.j.*X+ e h z j e , j x.x.x.e N L H H k.k.h.k.H H H $.$.$.>.>.-.5.,.8.9.` +.n m.R.R.R.R.R.",
"R.R.R.R.{ P.+...^ &.-.,.$.$.>.H H k.k.k.k.*X* e e ; +     ; z x.N e e L H H k.h.k.k.H H H #.$.$.$.$.$.>.#.<.1.+.[ m.B R.R.R.R.R.",
"R.R.R.R.} ....) ;.>.>.<.<.H H l.l.l.l.l.l.w.  ; e e e *   * e x.j ;   =Xf.f.5Xl.l.l.l.l.l.H H $.7.$.>.;.-.:.:.O.] A.v R.R.R.R.R.",
"R.R.R.R.m...O.O.2.8.2.6.5.H H l.l.l.l.3X  =   X e e ;   e   e z , . K g *Xf.l.l.l.l.l.l.l.H H 8.7.,.>.>.<.7.9.y...v 9 R.R.R.R.R.",
"R.R.R.R.V ` &.-.,.7.<.1.#.H H l.l.l.l.. ; e :   e ; . e.g.g , e g e.h.4Xg.*Xf.f.l.l.l.l.l.H H ,.1.-X,X%X.X7.9._ ^ d 9 R.R.R.R.R.",
"R.R.R.R.d O.:.,.<.>.>.,.<.H H l.l.l.<XX e e ,   , +   {.1Xg.g.g.g.=X7X=Xg.=Xf.f.l.l.l.l.l.H H -XrX%X$XG d.,.9.~ d W 6 R.R.R.R.R.",
"R.R.R.R.t ) *.=.1.>.;.;.-.H H l.l.l.<X* e e j   e   q   , K K {.8X8X4X4X4X*Xf.f.l.l.l.l.l.H H ,XOX].OXG .X#.=.! ^ ) d R.R.R.R.R.",
"R.R.R.R.d y.d ( 2.7.#.>.>.H H l.l.l.<X@ e , > > * K 1Xg.K e.*X8X8X8X[.8X8X=X*Xf.l.l.l.l.l.H [.rX&XOXOXG }.%./ / d s 5 E.R.R.R.R.",
"R.R.R.R.t U d ~ &.>.$.1.>.H H l.l.l.5X  e e e e X  Xg.g.g.1X8X8X8X8X  *X7X2X{.f.l.l.l.l.l.H rXrXrX%X].| }.1.<.9./ Q 6 R.R.R.R.R.",
"R.R.R.R.1 U ^ ^ 1.2.7.5.7.H H l.l.l.l.S X > e X   8Xg.g.g.1X8X8X8X8X; K 0X*X  f.l.l.l.l.l.XX&X&XrX$X].F .X0.2.=.~ m 8 R.R.R.R.R.",
"R.R.R.R.3 n d ` 6.q.7.-.1.H H l.l.l.l.l.[.y     @ 1Xg.g.g.8X8X8X8X8Xy   8Xy K f.l.l.l.l.5XrXOXOX&X].v.w 7.8.0./ 3 c.V R.R.R.R.R.",
"R.R.R.R.v ' ^ O.-.2.,.#.>.H H 9X9Xl.y S l.l.5X Xy =Xg.g.g. XK K K K :         S l.l.9X9X0X$X].$XOX].1 d.1.1.1./ W i 1 R.R.R.R.R.",
"R.R.R.R.6 ..^ ..1.6.7.7.5.H H 9X9XS D   S l.l. XK g.g.*X7X Xq             # 8X. l.l.9X9X&X].].%X].].t -.1.:.%.( _ i - R.R.R.R.R.",
"R.R.R.R.7 ] ) &.1.8.8.7.9.H H @.w.  D sX'.G 7X  r.g.g.g.h.=X7X2X{.y q   y 2Xj.  7X9X@.p.3 ].].OX].1 s.5.&.....U a 2 < R.R.R.R.R.",
"R.R.R.R.n ] O...) *.1.<.>.H H @.r.K w.j rXsXy   y J g.g.g.g.g.*X1X8X{.  8Xh.g.g 6X9X@.  D ].l ].G   i.,.` ......^ ~ 1 R.R.R.R.R.",
"R.R.R.R.n n ] ^  . .O.-.-.H H 4.r.K v. XK %XkXkX&X'.        g.g.g.g.{.  8Xg.g.g p.@.r.. ].].G ].- g 7.<.>.-.&.` X.F.M R.R.R.R.R.",
"R.R.R.R.[ n ] X.` ;.-.7.,.H H 4.r.K x.x.].XX8XhXhXjXkXkXjX  g.g.g.g.t.  8Xg.e., r @.q D ].F ].G   a.5.1.,.,.9.( Q V M R.R.R.R.R.",
"R.R.R.R.M d y.2.2.,.7.2.,.H H 4.r.K x.x.x.x.8X8X8X8X0XhXoX  g.g.g.g.r.q 8Xe.  3 + g ; ].D G ].e u.>.>.<.7.8.1.~ U s < R.R.R.R.R.",
"R.R.R.R.d Q &.0.8.-.-.5.2.H H 4.r.K x.x.x.x.8X8X8X8X8XhXoX  , e.g.g.8X8X8X* * * -   q G = G Z.@ 5.1.;.,.<.,.5.1.) Q 3 R.R.R.R.R.",
"R.R.R.R.W ~ _ 2.,.,.>.>.<.H H k.s.K v.x.x.x.3X7X8X8X8X0XoX  ; . w g w.w.: k ;   k z ; @ + b 3 u.<.<.#.$.>.,.q.1.` ^ p R.R.R.R.R.",
"R.R.R.R.s s ( O.;.-.;.;.>.H H k. XK 8XXXx.x.1Xg.7X8X8X8Xx.  r x.> =     h e .   w = r j +     q   b $.$.$.<.q.2.X.( s R.R.R.R.R.",
"R.R.R.R.W ( ( &.1.,.>.>.>.H H k.j.q 8X8X3X'.XX1X*X4X8X8Xv.= ; e z x.x.x.z * e   y g   + > : + + x.= i.>.-.1.2.*.) d 6 R.R.R.R.R.",
"R.R.E.R.i O.&.1.2.5.<.>.>.H H k.k.y 2X8X1X*X7Xx.'..XXX8Xv., = e , e e e e e e = $ w g J O + ; = x.- i.,.>.>.2.2.%.Q c R.R.R.R.R.",
"R.R.E.E.s ' ~ &.1.,.7.,.,.-.<.H H s.K 8X8Xj.1Xx.x.x.x.= > 3 = e h , e e e e e .     g.g.# u.  + = g >.5.7.6.1.&...n v R.R.R.R.R.",
"R.R.R.R.} ....1.6.,.,.$.>.-.>.H H k.S 7X8X1X7Xx.x.x.x.$X- 3 * , e , , , e ; +   :   , e L 7.>.u.u.-.>.>.2.;.` O.X.} v R.R.R.R.R.",
"R.R.R.R.m.^ %.9.6.1.,.#.>.>.-.-.>.H L w.8X7X.Xx.x.x.x. X> * X + + * X           > ; q d.5.2.,.>.#.>.-.-.*.] ]  .] ' 6 R.R.R.R.R.",
"R.R.R.R.M W y.0.5.<.<.8.8.5.1.:.2.H H L q 7X'.x.x.x.2Xe : o $ $ ; $ $ $ u o X , X   a.>.<.<.$.7.7.8.,.1.;.&.%.O.X.Q 6 R.R.R.R.R.",
"R.R.R.R.t ( *.:.2.7.7.7.9.1.0.6.6.7.7.7.g K K x.x.2Xq   o f f f f f E E E & , y %.2.1.;.-.#.7.5.9.2.2.0.,.6.5.*.^ c - R.R.R.R.R.",
"R.R.R.R.< d ~ %.q.q.$.,.#.>.>.<.,.$.$.$.$.|   x.XX,   % & P I I f f I I R R P Y ,.7.<.>.<.$.$.<.,.,.>.#.5.7.-.` ( d @ R.R.R.R.R.",
"R.R.R.R.2 a ~ _ 9.2.7.<.7.-.-.1.2.1.1.,.-.,.g q # @ & Y R I f I f f f f Y Y Y :.>.,.>.;.1.,.<.7.8.8.5.;.1.;.;._ W 1 @ R.R.R.R.R.",
"R.R.R.R.3 @ T &._ _ &./ _ _ &.*.*.&.O.&.y.;.6.u.u.y.O.Y Y i i a a f f E R 2.2.>.,.0.=.` 1.9.y.2.1.&.) & T U O.T @ n = R.R.R.R.R.",
"R.R.R.R.- 2 W T i o.{ d _ d ..~ ^ W &.Q ^ ( y.%...) &.` O. .m m | X.Q T ! %.( *.%.( ( d  .&.X.O.O.Q 7 1 2 1 a i 7 D.1 R.R.R.R.R.",
"R.R.R.R.< Y.C s G.).).n.' v n [ m 9 ' s s ~ Q ' { O.}.P.A.A D.N.s n [ n 7 s W U ^ m | 7 o...} +.L.{ G.L.!.N.n n M.M = R.R.R.R.R.",
"R.R.R.R.< C./.).#X#X).~.H.!.[ Z L.^.).L.M.6 6 M.L.!.~.(.#X#XqXC.- D.(.^.F.H.F.A 3 F.(.!.@X!.H.^.qX;XqXqX#X^.).#XH.4 . R.R.R.R.R.",
"R.R.R.R.- t Z G.!.!.!.).qX).c c.#X#X).^.H.V 3 Y.).^.!.(.@X).~.M.t Z !.!.(.).).n.v G.!././.^.H.- c.(.).(.!.^.(.!.c . 4 R.R.R.R.R.",
"R.R.R.R.9 c V F.G.G.G.G.!.C.5 t F.G.G.G.G.n.c M.Y.Y.H.G.G.G.G.G.M Z G.G.L.G.G.D.V G.G.G.G.!.M.t C.G.G.G.G.G.D.Z 5 = b.R.R.R.R.R.",
"R.R.R.R.(.@ t Z F.G.G.G.G.G.k 1 n.G.G.G.G.c.t G.G.G.G.G.G.G.G.M.- c H.!.!.G.G.M.6 G.G.G.G.G.V 3 n.D.G.G.!././.C.t k E.R.R.R.R.R.",
"R.R.R.R.;X@ V F.H.D.Y.G.G.M.v - D.G.G.G.D.c - N.G.G.G.G.N.G.M.c.c r ).(./.!.G.D.5 D.G.G.G.G.Z < n.D.D.G.!.)./.c.5 Z Q.R.R.R.R.R.",
"R.R.R.R.;X1 n.@X#X#X/.Y.G.G.n.3 M.G.G.~.).Y.5 Z G.G.G.G.D.D.G.G.n.- D.L.G.G.G.G.k D.G.G.G.G.Z M !.G.G.G.G.G.D.b 1 J.W.R.R.R.R.R.",
"R.R.R.R.wX5 b M.!.!.H.H.G.L.D.c Z G.!.^./.F.r C.C.!.!.G.G.G.G.G.m.3 M.G.G.G.G.G.V G.G.G.G.G.c.c.G.G.G.G.G.G.n.b - J.E.R.R.R.R.R.",
"R.R.R.R.eX5 c A G.G.G.G.G.G.D.m M.G.G.G.G.C.5 /.).#X(.Y.G.G.!.G.A 6 M.G.G.G.G.F.n.!.G.G.G.G.n.M.G.G.G.G.G.F.V t 1 ;XR.R.R.R.R.R.",
"R.R.R.R.qXC.t m M.G.G.G.G.G.D.M M.G.G.G.L.n.t C.^.!.G.G.G.G.D.C.Z t M.G.G.!./.D.V D.G.G.G.G.Z Z D.G.G.H.G.M.M 5 G yXE.R.R.R.R.R.",
"R.R.R.R.Q.yXC.5 M M.D.G.F.D.V c M.G.G.G.D.V c V D.G.G.G.F.G.D.D.M.c Z G.G.G.G.M.V D.G.G.D.M.M v D.G.G.G.D.n.c C.pXeXR.R.R.R.R.R.",
"R.R.R.R.R.`.aX+XC.C.n.F.H.H.|.J.V c.M.D.D.} J.c M A M.M.V V V M } |.C.M.c.c.V b P.V n.m.c.V S.P.n.c.Z Z M.C.|.dXaX`.R.R.R.R.R.R.",
"R.R.R.R.R.Q.eXpXiXtX:XwXuXfXgXfX|.S.S.P.+X>XpX>X|.C.A } C C.].:XiXgX:XS.C.C.].:XaXtX|.S.S.+XpXiXiX>X%X+X+XwXfXfXqXR.R.R.R.R.R.R.",
"R.R.R.R.R.R.T.U.~.~.#XpXtXtXdXaXaXfXaXdXgXaX`.;XuXuXuXuXiXiXeXwXpXfXpXaXfXfXgXfX#X_.yXuXdXgXaXaXuXwXeXyXyX(._.Q.E.R.R.R.R.R.R.R.",
"R.R.R.R.R.R.R.R.R.V.V.U.U.I.U.;XeXaXaXyXeX(.T.T.U.~.#X)./.U.V.V.U.`.eXpXaXaXyX`.V.V.I.W.).;X_.Q.E.I.I.I.U.E.R.R.R.R.R.R.R.R.R.R.",
"R.R.R.R.R.R.R.R.R.R.T.B.B.V.R.R.U.B.B.m.0 B 9 B V.V.T.V.V.B.m.V.I.V.Q.Q.W.I.z.z.0 0 c.b.I.T.K.R.R.V.V.R.R.R.R.R.R.R.R.R.R.R.R.R.",
"R.R.R.R.R.R.R.R.R.R.R.R.R.R.R.R.R.R.R.R.R.R.R.R.R.R.R.R.R.R.R.R.R.R.R.R.R.R.R.R.R.R.R.R.R.R.R.R.R.R.R.R.R.R.R.R.R.R.R.R.R.R.R.R.",
"R.R.R.R.R.R.R.R.R.R.R.R.R.R.R.R.R.R.R.R.R.R.R.R.R.R.R.R.R.R.R.R.R.R.R.R.R.R.R.R.R.R.R.R.R.R.R.R.R.R.R.R.R.R.R.R.R.R.R.R.R.R.R.R.",
"R.R.R.R.R.R.R.R.R.R.R.R.R.R.R.R.R.R.R.R.R.R.R.R.R.R.R.R.R.R.R.R.R.R.R.R.R.R.R.R.R.R.R.R.R.R.R.R.R.R.R.R.R.R.R.R.R.R.R.R.R.R.R.R.",
"R.R.R.R.R.R.R.R.R.R.R.R.R.R.R.R.R.R.R.R.R.R.R.R.R.R.R.R.R.R.R.R.R.R.R.R.R.R.R.R.R.R.R.R.R.R.R.R.R.R.R.R.R.R.R.R.R.R.R.R.R.R.R.R."
};
