/* XPM */
static char *out[] = {
/* columns rows colors chars-per-pixel */
"64 64 228 2 ",
"   c #161C2E",
".  c #1C2234",
"X  c #212536",
"o  c #24283B",
"O  c #2A2C3C",
"+  c #26333E",
"@  c #373239",
"#  c #4C393C",
"$  c #3F4E34",
"%  c #464F34",
"&  c #586939",
"*  c #617339",
"=  c #262E41",
"-  c #2C2E41",
";  c #2A3845",
":  c #38394A",
">  c #3B3E52",
",  c #423F41",
"<  c #2D414B",
"1  c #34484B",
"2  c #3C5449",
"3  c #384954",
"4  c #2C545B",
"5  c #3E5157",
"6  c #3C585A",
"7  c #3B635C",
"8  c #3B5D63",
"9  c #396968",
"0  c #387277",
"q  c #464749",
"w  c #4C4D4D",
"e  c #4A5549",
"r  c #434055",
"t  c #474A56",
"y  c #42595B",
"u  c #5A5B57",
"i  c #4C6749",
"p  c #526B4F",
"a  c #58764A",
"s  c #476759",
"d  c #55765B",
"f  c #587B5A",
"g  c #667E48",
"h  c #6F6252",
"j  c #646B5E",
"k  c #414B60",
"l  c #4B4E64",
"z  c #455864",
"x  c #515866",
"c  c #4C5A70",
"v  c #545E74",
"b  c #605861",
"n  c #456765",
"m  c #4B6465",
"M  c #4C6B6C",
"N  c #546C6C",
"B  c #48776A",
"V  c #547766",
"C  c #4F6F71",
"Z  c #566579",
"A  c #467876",
"S  c #547574",
"D  c #587A76",
"F  c #567B7B",
"G  c #5A7D7D",
"H  c #71736F",
"J  c #90625D",
"K  c #8C795E",
"L  c #827E6C",
"P  c #887676",
"I  c #9C7A77",
"U  c #6E853F",
"Y  c #71853E",
"T  c #5D825B",
"R  c #6C8243",
"E  c #62804B",
"W  c #748442",
"Q  c #7B8445",
"!  c #658959",
"~  c #648A5C",
"^  c #778E5A",
"/  c #6C935C",
"(  c #6D985C",
")  c #769859",
"_  c #739C5C",
"`  c #77A25D",
"'  c #7BA45D",
"]  c #7EA95D",
"[  c #598567",
"{  c #5D9264",
"}  c #4B8379",
"|  c #568C75",
" . c #59877A",
".. c #679664",
"X. c #6B9C63",
"o. c #6C906B",
"O. c #659875",
"+. c #76A466",
"@. c #73A572",
"#. c #8AA04F",
"$. c #98B74F",
"%. c #9BB94F",
"&. c #87A55B",
"*. c #83AC5D",
"=. c #8BAD5C",
"-. c #92AC5B",
";. c #8EB256",
":. c #87B05A",
">. c #8BB159",
",. c #94B553",
"<. c #9BB654",
"1. c #9CB850",
"2. c #94B25A",
"3. c #9BB359",
"4. c #A3AE57",
"5. c #A2B655",
"6. c #A9B757",
"7. c #A4B952",
"8. c #AAB954",
"9. c #A3B559",
"0. c #AAB759",
"q. c #ACB858",
"w. c #B1B857",
"e. c #8F9178",
"r. c #AD9672",
"t. c #89AC6E",
"y. c #92A273",
"u. c #AEB16F",
"i. c #C49A6C",
"p. c #C8A876",
"a. c #CEB17E",
"s. c #A8C26B",
"d. c #D4C169",
"f. c #D6C577",
"g. c #EAE178",
"h. c #3D7D80",
"j. c #5E6F86",
"k. c #587C80",
"l. c #757F80",
"z. c #3E888B",
"x. c #5B8484",
"c. c #578984",
"v. c #5E8B8B",
"b. c #5A928B",
"n. c #488990",
"m. c #45979A",
"M. c #599896",
"N. c #688B88",
"B. c #798787",
"V. c #65978A",
"C. c #629494",
"Z. c #679896",
"A. c #669C9C",
"S. c #6A9D9D",
"D. c #749090",
"F. c #789B96",
"G. c #44A09F",
"H. c #6BA397",
"J. c #6BA29D",
"K. c #78A597",
"L. c #489BA2",
"P. c #5A9BA5",
"I. c #6D9EA2",
"U. c #45A4A4",
"Y. c #47ABA9",
"T. c #4AAAA9",
"R. c #56A8A9",
"E. c #5AB4B0",
"W. c #6BA2A2",
"Q. c #68A8AC",
"!. c #71A5A4",
"~. c #73AAAB",
"^. c #76ABAB",
"/. c #73B2AF",
"(. c #7DB4B4",
"). c #78B9B7",
"_. c #7BC5BC",
"`. c #878D93",
"'. c #8C9695",
"]. c #939D9C",
"[. c #A69F81",
"{. c #95AE83",
"}. c #84A59B",
"|. c #ABAD8E",
" X c #B4AA8B",
".X c #BCBA9D",
"XX c #939FAE",
"oX c #93B0A7",
"OX c #82B7B7",
"+X c #86BDBC",
"@X c #A2ABAC",
"#X c #ABB4B5",
"$X c #B3B6BA",
"%X c #C9BA85",
"&X c #D5B987",
"*X c #CAB492",
"=X c #BDC493",
"-X c #87C3BC",
";X c #9AC4B7",
":X c #A6CCBC",
">X c #D7D28E",
",X c #D9C592",
"<X c #E1DA8C",
"1X c #E3D09B",
"2X c #E9E292",
"3X c #D0D1B1",
"4X c #E8D7A2",
"5X c #E7E7AB",
"6X c #EFE1AB",
"7X c #F4F4A0",
"8X c #AEB7C2",
"9X c #8BC6C3",
"0X c #9CCCC4",
"qX c #99D4C7",
"wX c #B8C1C3",
"eX c #ACD7C9",
"rX c #A8D8CB",
"tX c #B4DECC",
"yX c #B8E1CE",
"uX c #B9E6D4",
"iX c #BBE9D6",
"pX c #D8D9DC",
"aX c #C1EBD6",
"sX c #C2EDD9",
"dX c #C7F1DC",
"fX c #F6EECE",
"gX c #FAF6E7",
"hX c #FEFEFC",
/* pixels */
"Y.Y.Y.Y.Y.Y.Y.Y.Y.Y.Y.Y.Y.Y.Y.Y.Y.Y.Y.Y.Y.Y.Y.Y.Y.Y.Y.Y.Y.Y.Y.Y.Y.Y.Y.Y.Y.Y.Y.Y.Y.Y.Y.Y.Y.Y.Y.Y.Y.Y.Y.Y.Y.Y.Y.Y.Y.Y.Y.Y.Y.Y.Y.Y.",
"Y.Y.Y.Y.Y.Y.Y.Y.Y.Y.Y.Y.Y.Y.Y.Y.Y.Y.Y.Y.Y.Y.Y.Y.Y.Y.Y.Y.Y.Y.Y.Y.Y.Y.Y.Y.Y.Y.Y.Y.Y.Y.Y.Y.Y.Y.Y.Y.Y.Y.Y.Y.Y.Y.Y.Y.Y.Y.Y.Y.Y.Y.Y.Y.",
"Y.Y.Y.Y.Y.Y.Y.Y.Y.Y.Y.Y.Y.Y.Y.Y.Y.Y.Y.Y.Y.Y.Y.Y.Y.Y.Y.Y.Y.Y.Y.Y.Y.Y.Y.Y.Y.Y.Y.Y.Y.Y.Y.Y.Y.Y.Y.Y.Y.Y.Y.Y.Y.Y.Y.Y.Y.Y.Y.Y.Y.Y.Y.Y.",
"Y.Y.Y.Y.Y.Y.Y.Y.Y.Y.Y.Y.Y.Y.Y.Y.Y.Y.Y.Y.Y.Y.Y.Y.Y.Y.Y.Y.Y.Y.Y.Y.Y.Y.Y.Y.Y.Y.Y.Y.Y.Y.Y.Y.Y.Y.Y.Y.Y.Y.Y.Y.Y.Y.Y.Y.Y.Y.Y.Y.Y.Y.Y.Y.",
"Y.Y.Y.Y.Y.Y.Y.Y.Y.Y.Y.T.Y.Y.Y.Y.Y.Y.Y.Y.Y.T.T.T.Y.Y.T.Y.Y.Y.Y.Y.Y.Y.Y.Y.Y.Y.Y.Y.Y.Y.Y.Y.Y.Y.Y.Y.Y.Y.Y.Y.Y.Y.Y.Y.Y.Y.Y.Y.Y.Y.Y.Y.",
"Y.Y.Y.Y.Y.m.9 B 0 k.A x.B } b.b.[ V n f d / f ! N.F.S.b. .c.A.W.V.V.b.b.| A s [ ~ s d { } } | b.} [ B A z.9 7 0 Y.Y.Y.Y.Y.Y.Y.Y.",
"Y.Y.Y.Y.z.4 % ] ! ` ~ @.( ] :._ *.) _ _ *.2.v   = c t , {.}.t.t.t.] *.:._ ( *.*.>.*.` ,.&._ ' +.+.*.! ) i ' ) E 7 G.Y.Y.Y.Y.Y.Y.",
"Y.Y.Y.Y.9 ( ! 2.>.<.4.6.<.:.,.%.1.2.2.,.$.y.X > l j.j.Z c , u.,.$.%.7.3.=.,.,.;.$.$.%.8.q.2.3.3.7.2.:.=.^ :.] ) ! B z.Y.Y.Y.Y.Y.",
"Y.Y.Y.Y.9 a &.q.8.7.7.,.2.;.7.8.8.8.8.;.t.X k r l j.j.c j.j.l {.,.q.8.8.8.<.:.;.;.2.;.,.%.%.%.1.,.;.;.3.9.3.] ` T B m.Y.Y.Y.Y.Y.",
"Y.Y.Y.Y.0 / ] 2.%.,.,.%.,.,.$.,.,.,.$.$.y.O , c j.j.j.j., v j.l s.,.,.;.$.%.,.,.$.7.$.%.%.$.<.%.1.,.,.,.6.2.*.] ~ A Y.Y.Y.Y.Y.Y.",
"Y.Y.Y.Y.A i &.9.q.2.<.<.,.;.;.;.<.J J J I : , j.j.j.j.j.j.r j.v {.;.<.>.,.%.J J J J $.<.8.5.9.,.,.;.;.,.;.X.X._ ~ n U.Y.Y.Y.Y.Y.",
"Y.Y.Y.Y.6 ( *.9.q.7.7.7.7.<.3.2.7.J J J   : r l l l l j.j.j.l j.t 3.3.<.7.8.J J J J ,.,.,.<.$.7.7.7.3.3.2.2.] ` _ B m.Y.Y.Y.Y.Y.",
"Y.Y.Y.Y.{ +.+.*.=.5.7.,.,.>.3.J J d.d.d.. r r r .   - l j.j.l j.= J J J J J d.d.a.d.J J J %.%.%.,.,.>.7.<.8.9.] @.B } Y.Y.Y.Y.Y.",
"Y.Y.Y.Y.| K.@.X.( *.,.$.1.%.,.J J a.a.    , r r >     - j.j.l c   J J J J J d.d.d.d.J J J $.$.$.%.%.1.,.,.1.2.@.} c.} Y.Y.Y.Y.Y.",
"Y.Y.Y.Y. .X.X.` :.,.;.7.%.J J g.g.<X. - - - r r , o   X l j.l o @ *X&X,Xi.i.g.g.g.g.g.g.g.J J 7.s.s.,.:.>.2.2.+...b.M Y.Y.Y.Y.Y.",
"Y.Y.Y.Y.c.+.+.+.2.8.9.6.5.J J g.<X  > r r . r r - , p.- r r , , p.r.*X,Xi.i.g.g.g.g.g.g.g.J  XwX$X|.,.,.1.5.9.*.X.n 9 Y.Y.Y.Y.Y.",
"Y.Y.Y.Y.F +.] ;.<.1.7.,.1.J J g.<X  r r r = , r   p.p.r., , h a.p.4Xp.*Xi.i.i.i.g.g.g.g.2X$X#X$XB.u.,.%.%.8.5.] ( d 9 Y.Y.Y.Y.Y.",
"Y.Y.Y.Y.f ] 2.<.1.,.;.1.3.J J g. X  r r > - r >   H e.,X&X&X&X,X4X&X&X&Xi.i.i.i.g.g.g.g.3X#X'.@XB.|.;.,.,.<.5.^ T ! 6 Y.Y.Y.Y.Y.",
"Y.Y.Y.Y.y ` =.-.2.3.:.>.;.J J g.g.  : r r r r . r.h     w P 6X6X6X6X6Xp.&Xi.i.i.g.g.g.5XwXwX@X].`.{.$.%.$.2.-.^ / ` d Y.Y.Y.Y.Y.",
"Y.Y.Y.Y.f ' f _ <.7.,.,.,.J J g.g.^ - , r , >   1Xp.p.&X6X6X6X6Xe.*X6X,X*Xi.i.i.g.g.2XwXwXwX$X'.B.{.,.$.2.=.) ) d s 5 Y.Y.Y.Y.Y.",
"Y.Y.Y.Y.e T d / *.,.1.;.1.J J g.g.<X  O r > X r &Xp.p.&X6X6X6X6X  L 6X1Xr.p.i.i.g.g.2X#X$XwX@X'.o.{.>.,.;.;.<.6.) ~ 6 Y.Y.Y.Y.Y.",
"Y.Y.Y.Y.4 f ( _ 3.<.7.9.7.J J g.g.g.>Xu       P &Xp.p.&X6X6X6X6Xu q 6X6XO i.i.i.g.g.3X].].8X].'.w 9.;.7.7.5.3.#./ V 8 Y.Y.Y.Y.Y.",
"Y.Y.Y.Y.3 B f ] 9.w.7.;.,.J J g.g.<X>Xg.*XP    Xp.p.p.,X6X6X6X6XL   6Xw H i.i.i.g.2X#X'.].@X'.x y.;.,.7.7.q.9.) 3 k.S Y.Y.Y.Y.Y.",
"Y.Y.Y.Y.n [ X.' >.3.<.$.,.J J 7X5X    >Xg.,X  4Xp.p.p.%XL L L L w       . H g.g.g..XXX'.#X].'.  s.;.;.,.,.3.2.' E s 1 Y.Y.Y.Y.Y.",
"Y.Y.Y.Y.6 ` ( X.2.6.7.7.8.J J 5X  N $X,  X Xu ,Xp.a.1X,XL u           @ ,X  <Xg.,X. '.'.@X'.q ^ 7.8.3.>.2.:.&._ ] i ; Y.Y.Y.Y.Y.",
"Y.Y.Y.Y.6 { ` ] 2.8.8.7.0.J J r.w w `.hX`.  w p.p.p.p.p.,X6X6XL L   L 6X&X  *X7X  x '.N '.B.  u.5.9.<.7.*.X.X.T p e < Y.Y.Y.Y.Y.",
"Y.Y.Y.Y.A { ` X.+.>.2.,.2.J J r.P |.b x hXpX'.t @ h h h h p.,X6X6X  6X&Xp.h =X5X  `.'.H '.x b %.<.>.:.5.' ` X.X._ / 1 Y.Y.Y.Y.Y.",
"Y.Y.Y.Y.B B { X...{ ] ;.2.J J u.H j.D.*Xe.fXgXhXhX$X$X$X  p.p.p.6X  6Xp.p.h P H H '.o.'.'.o I %.%.%.7.$.;.>.*.] @.b.C Y.Y.Y.Y.Y.",
"Y.Y.Y.Y.F B { +.*.*.;.5.1.J J u.e.j.j.j.j..X6X6X6XfXhX8X  p.p.p.6X  6Xp.r.  b - ].B.Z '.u H J 7.8.1.5.2.<.<.9.) ..S M Y.Y.Y.Y.Y.",
"Y.Y.Y.Y.C f *.2.3.<.7.3.3.J J p.H j.j.j.j..X6X6X6X6XfXXX  p.p.p.6X, 6Xp.@     : H 1 x `.: I J 5.<.<.$.<.7.8.2./ f p < Y.Y.Y.Y.Y.",
"Y.Y.Y.Y.d T *.q.8.>.,.7.<.J J u.e.j.j.j.j..X4X6X6X6XfXXX  h r.p.4X6X.X- 3   3 > -   u r w J J 7.9.,.:.,.<.<.6.;.` ! 4 T.Y.Y.Y.Y.",
"Y.Y.Y.Y.~ / ] 3.<.1.2.,.1.J J %XL *XB.j.j. X&X6X6X6X6XD.  =   , h h   c j.    5 k =     H   x ,.<.%.$.%.,.3.w.2.] _ p Y.Y.Y.Y.Y.",
"Y.Y.Y.Y.s s _ ] =.;.:.>.;.J J %XP 6X6X|.j. Xp.&X6X6X4Xj.  j.c -     c j.o X , - X : , o   j.= '.;.;.$.$.%.%.w.3._ _ s Y.Y.Y.Y.Y.",
"Y.Y.Y.Y.! ( _ *.,.<.,.,.,.J J %XH 6X6Xa.*X.X.X,X4X6X6Xj.  > l j.j.v v - : - h - h   o , . c 3 t.$.;.,.$.;.2.3.=.' d 6 Y.Y.Y.Y.Y.",
"Y.Y.Y.Y.s ] *.2.<.9.1.,.,.J J f.1 6X6X&Xp.|.j.j.`.`.[.l   r r r , r r r ,   @ L p.w j   - > t u.,.,.:.,.;.2.3.3.*./ z Y.Y.Y.Y.Y.",
"Y.Y.Y.T.s T / *.2.3.7.,.<.,.%.J b L 6X4Xp.|.j.j.j.j.t l   r r r r r r r - - O @ q j J J P e.7.5.<.,.,.%.7.q.-.*...B M Y.Y.Y.Y.Y.",
"Y.Y.Y.Y. .X.X.-.8.,.<.%.,.;.,.J J   6X6X,X*Xj.j.j.j.o.l   , , r r , , O   , r X  Xd.J J J <.,.1.%.;.;.,.3.:.] ] @. .n Y.Y.Y.Y.Y.",
"Y.Y.Y.Y.c.( =.9.q.2.<.,.,.,.;.;.<.I L 6X4X].j.j.j.*Xt k   O - = - o     , l o P J J $.<.8.9.<.,.$.$.;.2.=.{ { ..{ [ 6 Y.Y.Y.Y.Y.",
"Y.Y.Y.Y.C T =.q.5.1.7.8.8.5.2.-.2.J I w 4XH j.j.|.w - X @ @ # @ , , #     J J J J J ,.,.1.1.1.7.7.8.<.2.=.*.*.` _ ~ 6 Y.Y.Y.Y.Y.",
"Y.Y.Y.Y.y _ *.=.9.%.7.7.9.2.6.0.8.8.7.j w x j.B.P     * W W W Q * K g % O g #.-.,.3.<.:.;.,.1.7.5.<.2.q.<.8.9.=./ s ; Y.Y.Y.Y.Y.",
"Y.Y.Y.Y.< d ..-.w.w.%.$.,.,.,.%.$.7.%.%.y.O |.H   $ R U U Y Y * g Y Y * & * U 1.1.7.<.,.1.%.%.1.1.1.,.;.7.5.;.] _ d = Y.Y.Y.Y.Y.",
"Y.Y.Y.Y.2 a ( ) 9.3.7.1.7.,.;.2.3.;.2.2.2.y.  . * g g R W Y Y Y * W R W R R >.>.,.,.,.>.2.<.1.7.q.q.9.:.;.=.:._ ! 1 = Y.Y.Y.Y.Y.",
"Y.Y.Y.Y.3 + E *.' ' ] ` ] ' *.=.-.] ] *.*.=.9.Q g g E E g i i a a R g R W 0.3.2.3.q.-.' 2.9.:.3.2.&.` a a E *.g + B ; Y.Y.Y.Y.Y.",
"Y.Y.Y.Y.; 2 ! E i O.| d ` f X...( ! ] ~ ( X.*.*.+...' R a i 2 1 e ~ V o.^ &._ =.*.` ) d ..*.X.:.+.~ 2 1 6 2 f i 7 C.1 Y.Y.Y.Y.Y.",
"Y.Y.Y.Y.< !.S n A.^.+Xk.[ n B } B n V s s ..! T [ @.{.H.V.F v.C.9 B B B n s ! f / V [ s O.X. .V.H.| M.J.W.b.B B c.S = Y.Y.Y.Y.Y.",
"Y.Y.Y.Y.< N.^.(.+X+X(.~.J.W. .F H.^.(.J.v.y 8 b.W.W.Q./.+X+X9XN.< V././.M.H.Z.F 3 Z.^.!.+XW.A.~.9X-X9X9X+X~./.+XF.4 . Y.Y.Y.Y.Y.",
"Y.Y.Y.Y.; y D Z.W.W.W.(.9X(.z G +X+X(.~.A.S 3 I.OX~.W.(.OX(.Q.v.5 G W.W.(.(.(.N.m A.W.~.~.~.S.; k./.OX(.W.~./.W.m . 4 Y.Y.Y.Y.Y.",
"Y.Y.Y.Y.9 m S Z.A.A.A.A.W.v.y y Z.A.A.A.A.v.z N.W.A.A.A.A.A.A.A.C F A.A.H.A.A.M.C A.A.A.A.W.N.6 x.A.A.A.A.A.Z.F 6 = z.Y.Y.Y.Y.Y.",
"Y.Y.Y.Y./.+ 5 G C.A.A.A.A.C.y 3 x.A.A.A.A.x.6 A.A.A.A.A.A.A.A.v.; M Z.W.W.A.A.C.y Z.A.A.A.A.S 3 v.C.A.A.W.!.!.N.y z R.Y.Y.Y.Y.Y.",
"Y.Y.Y.Y.-X; S Z.S.Z.W.A.A.C.m ; C.A.A.A.C.m : b.A.A.A.A.C.C.v.F z y ^.(.^.A.A.C.5 M.W.A.A.A.F < x.C.C.A.W.OX^.G 5 D E.Y.Y.Y.Y.Y.",
"Y.Y.Y.Y.;X< x.(.+XOX^.W.A.A.x.3 x.A.A.~.^.!.3 F A.A.A.A.Z.A.Z.A.x.< C.A.A.A.A.Z.z C.A.A.A.A.F M I.A.A.A.A.A.Z.N 1 F.R.Y.Y.Y.Y.Y.",
"Y.Y.Y.Y.0Xy m N.!.W.A.A.A.J.C.m F A.W.~.^.Z.t N.C.A.W.W.A.A.A.A.x.3 v.A.A.A.A.A.S A.A.A.A.A.k.k.A.A.I.A.A.A.x.m ; F.T.T.Y.Y.Y.Y.",
"Y.Y.Y.Y.qX5 m  .A.A.A.A.A.A.Z.C x.A.A.A.A.v.5 ^.OX(.^.W.A.A.A.A. .t v.A.A.A.A.A.x.A.A.A.A.A.x.v.A.A.A.A.A.Z.S z < -XY.Y.Y.Y.Y.Y.",
"Y.Y.Y.Y.9XN.y C v.A.A.A.A.A.C.C v.A.A.A.A.v.y N.^.W.A.A.A.A.C.C.G y v.A.A.W.W.C.S Z.A.A.A.A.F F M.A.A.A.A.v.C 5 l.rXT.Y.Y.Y.Y.Y.",
"Y.Y.Y.Y.E.tXN.5 M v.C.A.C.C.S m C.A.A.A.C.S m N C.A.A.A.Z.Z.M.C.v.m F A.A.A.A.c.C C.A.A.C.v.M M v.Z.A.A.Z.k.n N.uXqXY.Y.Y.Y.Y.Y.",
"Y.Y.Y.Y.Y._.uXoXN.N.x.Z.A.K.}.F.S k.v.C.C. .F.N C G v.v.S F S N  .'.C.b.x.F F C '.F x.c. .D N.}.N.G F F v.N.}.sXiX_.Y.Y.Y.Y.Y.Y.",
"Y.Y.Y.Y.Y.T.qXtXyXeX;X0XyXaXsXsX}.V.D.K.oX:XiX;X}.B.G  .D N.F.;XyXdX;XZ.N.B.K.oXiXeXoXD.D.oXyXtXtX:X;XoX+X0XiXiX9XY.Y.Y.Y.Y.Y.Y.",
"Y.Y.Y.Y.Y.Y.Y.P.Q.~.OXuXeXeXaXiXiXsXsXsXdXiX).9XtXtXtXtXyXtXrX:XuXsXuXiXsXsXdXdX9X).0XtXiXdXsXiXtX9XrXtX0X/.).E.E.Y.Y.Y.Y.Y.Y.Y.",
"Y.Y.Y.Y.Y.Y.Y.Y.Y.G.m.P.P.m.Q.).qXiXuXuXqX/.U.U.R.Q.-X(.!.P.m.m.P._.qXiXiXiXrX-XL.z.m.R.).-X).E.R.L.L.L.W.T.Y.Y.Y.Y.Y.Y.Y.Y.Y.Y.",
"Y.Y.Y.Y.Y.Y.Y.Y.Y.Y.L.m.m.L.Y.T.M.n.M.n.0 A 9 A z.m.U.m.m.n.n.m.L.m.R.E.R.M.z.h.0 0 k.z.G.U.U.Y.Y.m.m.U.Y.T.Y.Y.Y.Y.Y.Y.Y.Y.Y.Y.",
"Y.Y.Y.Y.Y.Y.Y.Y.Y.Y.Y.Y.T.T.Y.Y.Y.Y.Y.Y.Y.Y.Y.Y.Y.Y.Y.Y.Y.Y.Y.Y.Y.Y.Y.Y.Y.Y.Y.Y.Y.Y.Y.Y.Y.Y.Y.Y.Y.Y.Y.Y.Y.Y.Y.Y.Y.Y.Y.Y.Y.Y.Y.Y.",
"Y.Y.Y.Y.Y.Y.Y.Y.Y.Y.Y.Y.T.T.Y.Y.Y.Y.Y.Y.Y.Y.Y.Y.Y.Y.Y.Y.Y.Y.Y.Y.Y.Y.Y.Y.Y.Y.Y.Y.Y.Y.Y.Y.Y.Y.Y.Y.Y.Y.Y.Y.Y.Y.Y.Y.Y.Y.Y.Y.Y.Y.Y.Y.",
"Y.Y.Y.Y.Y.Y.Y.Y.Y.Y.Y.Y.Y.Y.Y.Y.Y.Y.Y.Y.Y.Y.Y.Y.Y.Y.Y.Y.Y.Y.Y.Y.Y.Y.Y.Y.Y.Y.Y.Y.Y.Y.Y.Y.Y.Y.Y.Y.Y.Y.Y.Y.Y.Y.Y.Y.Y.Y.Y.Y.Y.Y.Y.Y.",
"Y.Y.Y.Y.Y.Y.Y.Y.Y.Y.Y.Y.Y.Y.Y.Y.Y.Y.Y.Y.Y.Y.Y.Y.Y.Y.Y.Y.Y.Y.Y.Y.Y.Y.Y.Y.Y.Y.Y.Y.Y.Y.Y.Y.Y.Y.Y.Y.Y.Y.Y.Y.Y.Y.Y.Y.Y.Y.Y.Y.Y.Y.Y.Y."
};
