/* XPM */
static char *out[] = {
/* columns rows colors chars-per-pixel */
"64 64 226 2 ",
"   c #161C2E",
".  c #1C2334",
"X  c #232738",
"o  c #24293B",
"O  c #302933",
"+  c #27333E",
"@  c #34333A",
"#  c #4C393C",
"$  c #434E35",
"%  c #5A6939",
"&  c #2C2E41",
"*  c #2A3846",
"=  c #353549",
"-  c #373B48",
";  c #3B3C50",
":  c #2D414B",
">  c #35474B",
",  c #3C5449",
"<  c #384A52",
"1  c #3A455A",
"2  c #2C545B",
"3  c #3E5157",
"4  c #3C585A",
"5  c #3B635C",
"6  c #3B5D63",
"7  c #396968",
"8  c #387277",
"9  c #4C4D4D",
"0  c #4C5146",
"q  c #434055",
"w  c #48495E",
"e  c #43595A",
"r  c #5B5B57",
"t  c #4C6749",
"y  c #536B4A",
"u  c #58764A",
"i  c #476759",
"p  c #55765B",
"a  c #587B5A",
"s  c #706F52",
"d  c #4A4C62",
"f  c #455B62",
"g  c #515868",
"h  c #4C5A70",
"j  c #555F75",
"k  c #605861",
"l  c #456765",
"z  c #4B6465",
"x  c #4C6B6C",
"c  c #566869",
"v  c #48776A",
"b  c #537667",
"n  c #4F6F71",
"m  c #57657A",
"M  c #467876",
"N  c #547574",
"B  c #587A76",
"V  c #567B7B",
"C  c #5A7D7D",
"Z  c #736969",
"A  c #636974",
"S  c #717470",
"D  c #90625D",
"F  c #8C795E",
"G  c #827D6B",
"H  c #8C7477",
"J  c #9C7875",
"K  c #6F853F",
"L  c #71853E",
"P  c #5D825B",
"I  c #6C8243",
"U  c #62804B",
"Y  c #738342",
"T  c #658959",
"R  c #648A5C",
"E  c #778F5A",
"W  c #6C935C",
"Q  c #6D985C",
"!  c #759959",
"~  c #739C5C",
"^  c #77A25D",
"/  c #7BA45D",
"(  c #7EA95D",
")  c #598567",
"_  c #5D9264",
"`  c #4B8379",
"'  c #568C75",
"]  c #58867A",
"[  c #6B856D",
"{  c #669764",
"}  c #6B9C63",
"|  c #719C63",
" . c #659875",
".. c #76A466",
"X. c #73A572",
"o. c #A59949",
"O. c #98B74F",
"+. c #9BB94F",
"@. c #87A55B",
"#. c #83AC5D",
"$. c #8BAD5C",
"%. c #92AC5B",
"&. c #8EB256",
"*. c #87B05A",
"=. c #8BB159",
"-. c #94B553",
";. c #9BB654",
":. c #9CB850",
">. c #94B25A",
",. c #9BB359",
"<. c #A3AE57",
"1. c #BFA954",
"2. c #A2B655",
"3. c #A9B757",
"4. c #A4B952",
"5. c #AAB954",
"6. c #A3B559",
"7. c #AAB759",
"8. c #ACB858",
"9. c #B1B857",
"0. c #928C6E",
"q. c #8C8873",
"w. c #AA926D",
"e. c #8FB26F",
"r. c #93A274",
"t. c #A8BB6A",
"y. c #ACAD77",
"u. c #C49A6C",
"i. c #C8A876",
"p. c #CCAE7B",
"a. c #CEB17E",
"s. c #D4C169",
"d. c #D5C57C",
"f. c #EAE178",
"g. c #3D7D80",
"h. c #5E6F86",
"j. c #587C80",
"k. c #6E7B8A",
"l. c #3E888B",
"z. c #5B8484",
"x. c #578A85",
"c. c #5E8B8B",
"v. c #5A928B",
"b. c #488990",
"n. c #45979A",
"m. c #599896",
"M. c #688B88",
"N. c #788588",
"B. c #65978A",
"V. c #73938C",
"C. c #629494",
"Z. c #679896",
"A. c #669C9C",
"S. c #6A9D9D",
"D. c #789B96",
"F. c #44A09F",
"G. c #6BA397",
"H. c #6BA29D",
"J. c #78A597",
"K. c #489BA2",
"L. c #5A9BA5",
"P. c #6D9EA2",
"I. c #45A4A4",
"U. c #47ABA9",
"Y. c #4AAAA9",
"T. c #56A8A9",
"R. c #5AB4B0",
"E. c #6BA2A2",
"W. c #68A8AC",
"Q. c #71A5A4",
"!. c #73AAAB",
"~. c #76ABAB",
"^. c #73B2AF",
"/. c #7DB4B4",
"(. c #78B9B7",
"). c #7BC5BC",
"_. c #899090",
"`. c #8C9695",
"'. c #A78581",
"]. c #A69C81",
"[. c #8EAD85",
"{. c #84A59B",
"}. c #B6B28A",
"|. c #A6A898",
" X c #9AA4A4",
".X c #91B5A9",
"XX c #82B7B7",
"oX c #86BDBC",
"OX c #AAAEB0",
"+X c #ACB5B6",
"@X c #CCB48A",
"#X c #D5B986",
"$X c #87C3BC",
"%X c #9AC4B7",
"&X c #A6CCBC",
"*X c #CFCB90",
"=X c #DBC490",
"-X c #D6CB9D",
";X c #E2DB8C",
":X c #E2CD9A",
">X c #E5D29D",
",X c #E9E28B",
"<X c #CECCAA",
"1X c #E8D8A3",
"2X c #E5E4AA",
"3X c #EFE1AB",
"4X c #F4F4A0",
"5X c #F1E6B9",
"6X c #AEB7C2",
"7X c #8BC6C3",
"8X c #9CCCC4",
"9X c #99D4C7",
"0X c #B8C1C3",
"qX c #ACD7C9",
"wX c #A8D8CB",
"eX c #B4DECC",
"rX c #B8E1CE",
"tX c #B9E6D4",
"yX c #BBE9D6",
"uX c #C4C6CA",
"iX c #C1EBD6",
"pX c #C2EDD9",
"aX c #C7F1DC",
"sX c #F6EECE",
"dX c #F4F1E9",
"fX c white",
/* pixels */
"U.U.U.U.U.U.U.U.U.U.U.U.U.U.U.U.U.U.U.U.U.U.U.U.U.U.U.U.U.U.U.U.U.U.U.U.U.U.U.U.U.U.U.U.U.U.U.U.U.U.U.U.U.U.U.U.U.U.U.U.U.U.U.U.",
"U.U.U.U.U.U.U.U.U.U.U.U.U.U.U.U.U.U.U.U.U.U.U.U.U.U.U.U.U.U.U.U.U.U.U.U.U.U.U.U.U.U.U.U.U.U.U.U.U.U.U.U.U.U.U.U.U.U.U.U.U.U.U.U.",
"U.U.U.U.U.U.U.U.U.U.U.U.U.U.U.U.U.U.U.U.U.U.U.U.U.U.U.U.U.U.U.U.U.U.U.U.U.U.U.U.U.U.U.U.U.U.U.U.U.U.U.U.U.U.U.U.U.U.U.U.U.U.U.U.",
"U.U.U.U.U.U.U.U.U.U.U.U.U.U.U.U.U.U.U.U.U.U.U.U.U.U.U.U.U.U.U.U.U.U.U.U.U.U.U.U.U.U.U.U.U.U.U.U.U.U.U.U.U.U.U.U.U.U.U.U.U.U.U.U.",
"U.U.U.U.U.U.U.U.U.U.Y.Y.U.U.U.U.U.U.U.U.U.U.Y.Y.U.U.U.U.U.U.U.U.U.U.U.U.U.U.U.U.U.U.U.U.U.U.U.U.U.U.Y.Y.U.U.U.U.U.U.U.U.U.U.U.U.",
"U.U.U.U.U.n.7 v 8 M M z.v M v.v.) b l a b W a R v ` v.x.] ] A.H.B. .v.m.x.v 7 a R i b { ` ` ] v.` ) v M 8 7 7 8 F.U.U.U.U.U.U.U.",
"U.U.U.U.l.2 $ ( W ^ R X.W ( *.^ ( ~ ~ ~ #.-.>.e.& q A [.t.X.#.e.e.( *.$.~ Q #.#.&.( ~ -.@.~ ( ..( #.T ~ y ( ~ U 5 n.U.U.U.U.U.U.",
"U.U.U.U.7 Q W &.>.6.<.3.2.#.-.+.4.>.-.-.O.O.t.  = h.h.g 1 A 6.,.-.;.:.,.$.-.O.&.:.O.:.5.5.-.-.,.2.&.#.$.! #.( ~ T v n.U.U.U.U.U.",
"U.U.U.U.7 u @.8.4.4.4.-.>.&.:.5.5.4.5.&.#.t.  ; q d h.m h.m q t.,.5.5.5.4.:.*.*.&.-.$.-.+.+.4.;.>.*.&.,.6.,.( ^ P v n.U.U.U.U.U.",
"U.U.U.U.8 W ( >.:.-.-.+.O.-.O.>.O.-.+.O.-.  & q j h.h.h m h.h S -.-.-.&.O.+.O.O.O.5.;.O.+.O.-.+.+.O.-.-.8.>.#.( T M U.U.U.U.U.U.",
"U.U.U.U.M t @.6.8.>.6.-.-.&.&.&.+.D D D D   = q h.h.h.h.d h.h.d t.&.;.=.O.+.D D D D +.:.5.2.;.-.O.&.&.-.&.} } ~ P l I.U.U.U.U.U.",
"U.U.U.U.4 Q #.6.3.4.4.4.4.:.,.,.4.D D D J   ; d j j h.h.h.q m h.[.,.,.:.4.4.D D D D -.>.;.O.O.4.4.4.,.,.,.=.( ..^ v n.U.U.U.U.U.",
"U.U.U.U.) ....#.$.2.4.-.>.&.-.D D s.s.s.@XX q q ; & w j h.j q h.H D D D D D s.s.s.s.D D D +.+.+.-.-.&.2.;.5.;.#.} ` ` U.U.U.U.U.",
"U.U.U.U. .J.X.} Q #.-.O.+.+.>.D D a.s.s.q.& q q q   o q h.h.d m 1 D D D D D s.a.s.s.D D D -.O.O.+.+.O.-.O.:.>.X.) x.V U.U.U.U.U.",
"U.U.U.U.] } } ^ *.-.>.:.+.D D f.f.f.}.  . . q q q =   . d h.g w & #X#X=Xu.u.f.f.f.f.f.f.f.D D O.4.-.O.*.=.>.>.X.' v.x U.U.U.U.U.",
"U.U.U.U.x.} ....,.5.2.3.2.D D f.f.,X  = q   & q q =     = m d = @ S :X#Xu.u.f.f.f.f.f.f.f.D D *X0XOXO.&.+.4.6.#.} i 7 U.U.U.U.U.",
"U.U.U.U.V ^ ( =.:.:.4.-.;.D D f.f.}.X q q + & q =   w.# & q q @ w.w.i.@Xu.u.u.u.f.f.f.f.f.'.0X6X Xc :.+.O.5.<./ Q p 7 U.U.U.U.U.",
"U.U.U.U.P ( =.;.O.>.&.:.;.D D f.f.0.= q = X & q   s p.i.D Z G w.@X1X#X#Xu.u.u.u.f.f.f.f.3X+X|. X`.c -.;.O.;.2.E P T 4 U.U.U.U.U.",
"U.U.U.U.e / $.%.>.-.*.$.>.D D f.f.0.q q ; & q =     Z >X*X=X=X=X1X#X=Xi.u.u.u.u.f.f.f.f.uX<X XOX`.c O.O.O.&.%.E W ^ p U.U.U.U.U.",
"U.U.U.U.u ..a ~ ,.4.O.O.-.D D f.f.}.* q q q q & }.s @     G 3X3X3X3X5X#X@Xu.u.u.f.f.f.3X0X6X+X X`.c -.-.&.@.@.! p i 3 U.U.U.U.U.",
"U.U.U.U.e P p { $.-.O.&.O.D D f.f.;X  + q q q . >Xi.i.i.3X3X3X3Xq.].3X:X@Xu.u.u.f.f.f.<X+X&X0X`._.r *.-.&.&.;.<.! T 4 U.U.U.U.U.",
"U.U.U.U., a W ~ %.;.5.2.3.D D f.f.f.;X  X &   r =Xi.i.i.3X3X3X3Xr   3X3XF ].u.u.f.f.2X6X X0X+X`.= r.-.4.4.2.,.%.W b 6 U.U.U.U.U.",
"U.U.U.U.< v a ..2.9.4.&.-.D D f.f.f.f.;Xr     r @Xi.i.#X3X3X3X3Xy.  }.3X  ].u.u.f.f.0X X`.6X`.k.  &.-.2.4.5.6.! < j.B U.U.U.U.U.",
"U.U.U.U.l ) Q ( %.,.;.O.-.D D 4X4X0.  }.,X=X  0.i.i.i.=X3X3X3X3X].  k r   ;Xf.f.f.-X+X`.OX X`.r t.&.&.-.,.>.>./ U i > U.U.U.U.U.",
"U.U.U.U., ..Q } >.8.4.4.4.D D 4XS A uX  }.f.  0.p.i.=X>X                9 0 ;Xf.f.r `.`.OX`.`.0 4.5.;.=.>.=.@.~ ( t * U.U.U.U.U.",
"U.U.U.U.5 _ ^ ( >.5.5.4.2.D D o..   uXfXq S   :Xi.i.#X3X3Xq.          - 3XZ @X4X3X+ `._.N.`.g [ 4.6.,.4.#.} } P y 0 : U.U.U.U.U.",
"U.U.U.U.` _ ..} ^ $.-.;.-.D D o.  }.r A dX+XA Z 9 F F F F @X3X@X].  - 1Xa.F `.4Xg c `.S _.N.  t.-.=.=.;./ | } } } W > U.U.U.U.U.",
"U.U.U.U.v 7 _ Q { { ..&.>.D D 1.  `.N.-X].sXdXfXfXuX_._.g F p.a.1X  G #Xi.i.Z J . `.V.S `.- r :.+.4.4.O.-.=.#.( X.B.x U.U.U.U.U.",
"U.U.U.U.V v _ ..#.#.&.2.;.D D 1.  `.h.h.N.<X3X5XsXdXfXfXA F i.i.>X  G #Xi.i.Z g r `.A `.k.  q.4.4.;.4.>.,.:.6.! R B n U.U.U.U.U.",
"U.U.U.U.n P #.,.,.;.4.;.;.D D 1.  `.h.h.h.|.3X3X3X3XsX6X1 F i.i.:X  G #Xw.@     N.c ; `.g Z D 2.;.;.O.;.4.5.>.W P i : U.U.U.U.U.",
"U.U.U.U.p P #.9.5.&.&.4.,.D D 1.  `.h.h.h.|.3X3X3X3XsX6X1 F i.i.:XG 3Xy.  & = & o X c c O D D ;.4.>.*.-.;.:.3.&.^ R , U.U.U.U.U.",
"U.U.U.U.R W ..,.;.;.>.-.:.D D s.  |.h.h.h.|.@X3X3X3X3X6X1 @ 0.i.=X3X3X- h 1 o h.h . O ; q.H H -.;.:.O.:.-.,.9.>.( Q i U.U.U.U.U.",
"U.U.U.U.i i | #.#.&.#.&.&.D D s.  3X-X|.k.|.i.#X3X3X3Xh.1 * X   0 9 @ d 1 . o @ X = = o   ; 1 q.&.&.O.+.:.:.9.,.| ~ i U.U.U.U.U.",
"U.U.U.U.T W ~ #.;.;.-.-.-.D D s.  3X3X=X@X-X|.=X1X3X3Xh 1 = d m 1 = q ; & q 0   s @ X = & h h.[ O.&.O.&.&.&.,.=...a 4 U.U.U.U.U.",
"U.U.U.U.i #.#.=.,.4.+.-.;.D D s.Z *X3X>Xi.=Xh.h.|.|.3X; 1 = q q q q q q q =   s i.F     & h & r.-.-.&.&.-.>.,.,.#.R e U.U.U.U.U.",
"U.U.U.Y.i P W #.>.;.4.-.;.&.O.D J S 3X1X@X=Xh.h.h.j < 1 1 = q q q q q q ;   & @ F 9 J J H S r.4.-.-.-.4.4.8.>.( { b x U.U.U.U.U.",
"U.U.U.U.] } } %.3.;.;.:.-.&.-.D D q.3X3X:X3Xh.h.h.h.S 1 1 = q q q q q -   & q X S d.D D D :.-.+.+.-.&.-.,.=.( (  . .l U.U.U.U.U.",
"U.U.U.U.] Q #.7.8.>.;.-.O.>.&.&.>.J 9 3X>X|.h.h.h.h.G h & + & & & O         &   D D O.;.5.,.,.-.O.-.&.&.=._ _ { { b 4 U.U.U.U.U.",
"U.U.U.U.n R $.7.4.+.:.5.5.4.>.>.,.D J @ -X_.h.h.k.}.1 o O O O O O O # O   @ D J D D O.O.:.:.:.4.4.5.2.>.*.#.#...~ R 4 U.U.U.U.U.",
"U.U.U.U.e | #.$.,.4.4.4.6.>.6.8.5.5.5.t.- 9 h.N.}.    % L L L s s @.L %   $ s &.-.,.>.*.=.O.4.4.2.,.>.8.,.5.6.=.{ i : U.U.U.U.U.",
"U.U.U.U.: p R $.9.9.:.;.O.-.-.+.O.:.4.+.r.  h.}..   % L L L K K % L L L L L L :.:.4.;.-.:.O.+.:.:.;.-.-.2.4.&.( ~ p . U.U.U.U.U.",
"U.U.U.U., u W @.;.,.4.;.:.-.&.>.,.>.-.;.&.r.- + $ % U I Y L L K L K I K L u >.-.-.-.-.&.>.6.:.4.5.9.,.*.&.#.&.~ U > + U.U.U.U.U.",
"U.U.U.U., + T ( @./ / / @.^ ( $.=.( #...#.#.4.t.I u u I I t y u u u u Y @.7.,.-.,.3.%./ >.,.$.,.>.@.^ u u U #.U + v * U.U.U.U.U.",
"U.U.U.U.* 0 T u t  .' p ..P Q { | T ( R W ~ #.@.^ ....! u t > , t E ) { E @.~ $.#./ ~ p } #.} ....R , > 4 , a t l C.< U.U.U.U.U.",
"U.U.U.U.* P.N l A.^.XXj.) l v ` v i b l i W R P ' ..[.J.B.V C.C.l v ` v 5 i R P W b ) l  .} ] X.G.` G.G.E.v.v v c.n * U.U.U.U.U.",
"U.U.U.U.: C.~./.oXoXXXW.S.E.] V H.!./.H.c.4 6 v.E.E.W.^.oXoX7Xc.: C.^.~.Z.G.Z.j.< Z.~.Q.XXE.A.!.7X7X7X7XoX~./.XXS.2 . U.U.U.U.U.",
"U.U.U.U.* e B A.P.E.P.(.7X/.z V $XoX/.!.S.N < P.XX!.P./.XX/.Q.c.3 C E.E.^././.z.z A.E.!.!.!.S.* j.~.(.^.E.!.^.E.z X 2 U.U.U.U.U.",
"U.U.U.U.7 z N Z.A.A.A.E.A.M.4 e C.S.A.A.A.c.f M.S.A.A.A.A.A.A.A.x B A.A.H.A.A.C.n A.A.A.A.P.M.4 c.A.A.A.A.A.C.V 3 + l.U.U.U.U.U.",
"U.U.U.U.^.+ 4 C C.A.A.A.A.A.e < j.A.A.A.S.z.4 Z.A.A.A.A.A.A.A.c.* z S.E.E.A.A.c.e m.E.A.A.A.V < z.Z.A.A.E.Q.Q.M.e f Y.Y.Y.U.U.U.",
"U.U.U.U.$X+ N Z.S.Z.E.E.A.c.z * m.A.A.S.m.z * C.A.A.A.A.C.C.c.V f e ~./.!.H.A.C.1 C.A.A.A.A.V * z.C.C.A.E./.~.C 3 V R.U.U.U.U.U.",
"U.U.U.U.%X: z.XXoXXX~.S.A.A.z.< z.A.E.Q.~.D.1 C A.A.A.A.C.A.A.A.z.: C.A.A.A.A.A.f A.A.A.A.A.V x E.A.P.A.A.A.C.n > D.T.U.U.U.U.U.",
"U.U.U.U.9X3 c z.Q.E.A.A.A.H.C.z V A.E.!.~.S.3 M.C.E.E.S.A.A.A.A.c.< c.A.A.A.A.A.N A.A.A.A.A.j.z.A.A.A.A.A.Z.M.c * D.Y.U.U.U.U.U.",
"U.U.U.U.9X3 z C A.A.A.A.A.A.Z.N z.A.A.A.A.M.3 ~.XX/.^.S.A.A.A.A.C 3 c.A.A.A.A.A.z.H.A.A.A.A.z.c.L.A.A.A.A.Z.N e > oXU.U.U.U.U.U.",
"U.U.U.U.$XM.e n C.A.A.A.A.A.C.x c.A.A.A.A.c.3 M.~.E.S.A.A.A.C.C.V e c.A.A.E.Q.C.N C.A.A.A.A.V V C.A.A.A.A.c.n < C wXY.U.U.U.U.U.",
"U.U.U.U.R.eXM.3 z c.Z.A.Z.C.N z C.A.A.A.C.N z b C.A.A.A.Z.C.C.C.c.f V A.A.A.A.M.N C.A.A.C.c.x z c.Z.A.A.C.j.z M.iX9XU.U.U.U.U.U.",
"U.U.U.U.U.).yX.XM.M.j.Z.A.J.J.D.N z.c.C.v.z.D.z n C c.c.N B N n ] {.M.C.C C N n D.N z.x.j.B V.J.M.C V V c.M..XyXpX).U.U.U.U.U.U.",
"U.U.U.U.U.R.9XeXrXqX&X8XeXiXpXpX.XM.V.J..X&XyX&X.X[ C C [ M.`.%XrXaX%XV.M.M.`.%XyX8X.XV.V..XtXeXrX&X+X.X.X8XpXpX7XY.U.U.U.U.U.U.",
"U.U.U.U.U.U.I.L.W.W.XXtXqXqXiXyXyXyXyXpXaXyXoX$XwXeXrXeXeXrX9X8XtXpXtXyXpXpXpXaX7XoX8XeXiXaXpXyXeX8X9XwX8X^.(.R.Y.U.U.U.U.U.U.U.",
"U.U.U.U.U.U.U.U.U.K.n.L.L.K.W.(.9XyXtXtX9X^.I.U.L.W.oX/.W.L.n.n.L.).9XtXyXyXwX).K.l.n.T./.$X(.R.Y.K.K.K.T.T.U.U.U.U.U.U.U.U.U.U.",
"U.U.U.U.U.U.U.U.U.U.K.n.n.n.U.Y.m.b.m.b.8 M 7 8 l.K.I.K.n.b.b.n.K.n.R.R.T.m.g.g.8 8 j.l.n.U.I.U.U.n.K.I.U.Y.U.U.U.U.U.U.U.U.U.U.",
"U.U.U.U.U.U.U.U.U.U.U.U.Y.Y.U.U.U.U.U.U.U.U.U.U.U.U.U.U.U.U.U.U.U.U.U.U.U.U.U.U.U.U.U.U.U.U.U.U.U.U.U.U.U.U.U.U.U.U.U.U.U.U.U.U.",
"U.U.U.U.U.U.U.U.U.U.U.U.Y.Y.U.U.U.U.U.U.U.U.U.U.U.U.U.U.U.U.U.U.U.U.U.U.U.U.U.U.U.U.U.U.U.U.U.U.U.U.U.U.U.U.U.U.U.U.U.U.U.U.U.U.",
"U.U.U.U.U.U.U.U.U.U.U.U.U.U.U.U.U.U.U.U.U.U.U.U.U.U.U.U.U.U.U.U.U.U.U.U.U.U.U.U.U.U.U.U.U.U.U.U.U.U.U.U.U.U.U.U.U.U.U.U.U.U.U.U.",
"U.U.U.U.U.U.U.U.U.U.U.U.U.U.U.U.U.U.U.U.U.U.U.U.U.U.U.U.U.U.U.U.U.U.U.U.U.U.U.U.U.U.U.U.U.U.U.U.U.U.U.U.U.U.U.U.U.U.U.U.U.U.U.U."
};
