/* XPM */
static char *out[] = {
/* columns rows colors chars-per-pixel */
"64 64 221 2 ",
"   c #161C2E",
".  c #1C2334",
"X  c #232C2F",
"o  c #232739",
"O  c #24293B",
"+  c #28323C",
"@  c #333439",
"#  c #3D4D35",
"$  c #414E34",
"%  c #4C5F38",
"&  c #586B39",
"*  c #2C2E41",
"=  c #293143",
"-  c #2C3A48",
";  c #353549",
":  c #383B4A",
">  c #3E3C50",
",  c #423F40",
"<  c #2D414B",
"1  c #35464A",
"2  c #3D5548",
"3  c #384854",
"4  c #2C545B",
"5  c #3E5157",
"6  c #3C585A",
"7  c #3B635C",
"8  c #3B5D63",
"9  c #396968",
"0  c #387277",
"q  c #4C4D4D",
"w  c #514A46",
"e  c #434055",
"r  c #48485E",
"t  c #4C5551",
"y  c #43585A",
"u  c #5E5D57",
"i  c #525B5B",
"p  c #60575C",
"a  c #4C674A",
"s  c #57704E",
"d  c #47675A",
"f  c #57795B",
"g  c #70744F",
"h  c #68695A",
"j  c #494D63",
"k  c #465765",
"l  c #505767",
"z  c #4C5A70",
"x  c #555E74",
"c  c #456765",
"v  c #4B6465",
"b  c #4C6B6C",
"n  c #55696A",
"m  c #48776A",
"M  c #537667",
"N  c #4F6F71",
"B  c #566579",
"V  c #467876",
"C  c #547574",
"Z  c #587A76",
"A  c #567B7B",
"S  c #5A7D7D",
"D  c #646C72",
"F  c #6B7170",
"G  c #6C777A",
"H  c #8C795E",
"J  c #827E6C",
"K  c #6E853F",
"L  c #71853F",
"P  c #5C835B",
"I  c #6C8243",
"U  c #638149",
"Y  c #768442",
"T  c #658859",
"R  c #648A5B",
"E  c #778F5A",
"W  c #6D945C",
"Q  c #6D985C",
"!  c #759859",
"~  c #739C5C",
"^  c #77A25D",
"/  c #7BA45D",
"(  c #7EA95D",
")  c #598666",
"_  c #5D9264",
"`  c #4B8379",
"'  c #568C75",
"]  c #59857A",
"[  c #748169",
"{  c #669764",
"}  c #6B9C62",
"|  c #6C946C",
" . c #659875",
".. c #76A465",
"X. c #73A572",
"o. c #98B74F",
"O. c #9BB94F",
"+. c #87A55B",
"@. c #83AC5D",
"#. c #8BAE5C",
"$. c #92AC5B",
"%. c #8EB256",
"&. c #87B05A",
"*. c #8BB159",
"=. c #94B553",
"-. c #9BB654",
";. c #9CB851",
":. c #95B25A",
">. c #9BB359",
",. c #A2B453",
"<. c #A2B755",
"1. c #A9B757",
"2. c #A4B852",
"3. c #AAB954",
"4. c #A3B55A",
"5. c #AAB759",
"6. c #AAB95A",
"7. c #B1B857",
"8. c #9A8565",
"9. c #869478",
"0. c #A78D69",
"q. c #87AA6D",
"w. c #93A373",
"e. c #9CB575",
"r. c #A7BC6A",
"t. c #B0AA7A",
"y. c #A5B873",
"u. c #C8A876",
"i. c #CEB17E",
"p. c #AFC372",
"a. c #3D7D80",
"s. c #5E6F86",
"d. c #587C80",
"f. c #3E888B",
"g. c #5B8484",
"h. c #578985",
"j. c #5E8B8B",
"k. c #5A928B",
"l. c #488990",
"z. c #45979A",
"x. c #599896",
"c. c #688B88",
"v. c #798589",
"b. c #65978A",
"n. c #6F908F",
"m. c #629494",
"M. c #679896",
"N. c #669C9C",
"B. c #6A9D9D",
"V. c #789B96",
"C. c #44A09F",
"Z. c #6BA397",
"A. c #6BA29D",
"S. c #78A597",
"D. c #489BA2",
"F. c #5A9BA5",
"G. c #6D9EA2",
"H. c #45A4A4",
"J. c #47ABA9",
"K. c #4AAAA9",
"L. c #56A8A9",
"P. c #5BB4B0",
"I. c #6BA2A2",
"U. c #68A9AD",
"Y. c #71A5A4",
"T. c #73AAAB",
"R. c #76ABAB",
"E. c #72B2B0",
"W. c #7DB4B4",
"Q. c #78B9B7",
"!. c #7BC5BC",
"~. c #828B8D",
"^. c #8C9694",
"/. c #909596",
"(. c #A69F81",
"). c #AB9E84",
"_. c #81B286",
"`. c #84A59B",
"'. c #B8AF8B",
"]. c #A6A898",
"[. c #B2AD90",
"{. c #93B0A7",
"}. c #82B7B7",
"|. c #86BDBC",
" X c #A2ACAB",
".X c #ABB4B5",
"XX c #B1B6BA",
"oX c #C7BA8D",
"OX c #D1B683",
"+X c #D5BB87",
"@X c #B7C88B",
"#X c #87C3BC",
"$X c #9AC4B7",
"%X c #A6CCBC",
"&X c #BFCAB2",
"*X c #C8C297",
"=X c #DBC490",
"-X c #D6CB9D",
";X c #E2CE99",
":X c #E5D29D",
">X c #CEC7A2",
",X c #E8D7A2",
"<X c #EFE1AB",
"1X c #AEB7C2",
"2X c #8BC6C3",
"3X c #9CCCC4",
"4X c #99D4C7",
"5X c #B8C1C3",
"6X c #ACD7C9",
"7X c #A8D8CB",
"8X c #B4DECC",
"9X c #B8E1CE",
"0X c #B9E6D4",
"qX c #BBE9D6",
"wX c #CDD1D5",
"eX c #C1EBD6",
"rX c #C2EDD9",
"tX c #C7F1DC",
"yX c #F6EED0",
"uX c #FCFAF1",
"iX c white",
/* pixels */
"J.J.J.J.J.J.J.J.J.J.J.J.J.J.J.J.J.J.J.J.J.J.J.J.J.J.J.J.J.J.J.J.J.J.J.J.J.J.J.J.J.J.J.J.J.J.J.J.J.J.J.J.J.J.J.J.J.J.J.J.J.J.J.J.",
"J.J.J.J.J.J.J.J.J.J.J.J.J.J.J.J.J.J.J.J.J.J.J.J.J.J.J.J.J.J.J.J.J.J.J.J.J.J.J.J.J.J.J.J.J.J.J.J.J.J.J.J.J.J.J.J.J.J.J.J.J.J.J.J.",
"J.J.J.J.J.J.J.J.J.J.J.J.J.J.J.J.J.J.J.J.J.J.J.J.J.J.J.J.J.J.J.J.J.J.J.J.J.J.J.J.J.J.J.J.J.J.J.J.J.J.J.J.J.J.J.J.J.J.J.J.J.J.J.J.",
"J.J.J.J.J.J.J.J.J.J.J.J.J.J.J.J.J.J.J.J.J.J.J.J.J.J.J.J.J.J.J.J.J.J.J.J.J.J.J.J.J.J.J.J.J.J.J.J.J.J.J.J.J.J.J.J.J.J.J.J.J.J.J.J.",
"J.J.J.J.J.J.J.J.J.J.K.K.J.J.J.J.J.J.J.J.J.J.P.U.c.n.Y.E.J.J.K.K.J.J.J.J.J.K.K.J.J.J.J.J.J.J.J.J.J.J.J.J.J.J.J.J.J.J.J.J.J.J.J.J.",
"J.J.J.J.J.z.9 m 0 d.V g.m V k.k.) f 9 M M v.. . j s.x j , s.M.G.b.b.k.k.h.V c f R d f _ ` ` h.k.l.) m V 0 9 9 0 C.J.J.J.J.J.J.J.",
"J.J.J.J.f.4 # ( W ~ R X.W ( &.^ ( ^ ! ^ &.t > e > z x s.s.j D q.q.&.@.&.} Q @.@.%.@.! %.+.~ / ..( +.T ! a ( ~ U 7 z.H.J.J.J.J.J.",
"J.J.J.J.9 ! W *.#.-.,.1.<.@.=.O.2.:.:.=.e.. , e x s.s.x s.s.x F _.O.2.>.*.=.o.%.o.;.O.3.1.;.-.:.<.%.&.#.! &.@.~ T m z.J.J.J.J.J.",
"J.J.J.J.9 s +.5.3.2.2.=.*.*.<.3.3.2.1.%.w.; e s.s.s.s.s.x j x s.l t.7.3.2.-.&.*.%.:.*.o.;.;.2.;.:.%.%.:.4.>.( ~ P m z.J.J.J.J.J.",
"J.J.J.J.9 ! ( :.O.=.;.O.;.=.o.=.=.=.O.o.  > e s.s.s.s.s.s.s.j s.s.9.o.o.o.;.=.;.o.2.=.;.O.o.o.o.;.o.=.=.1.:.@.@.R V J.J.J.J.J.J.",
"J.J.J.J.V a +.4.1.:.4.=.=.*.%.%.>.*.=.>.  3 , e ; o ; j s.s.x z B 9.-.*.=.O.o.o.*.=.o.;.3.4.-.>.o.%.%.o.%.} } ~ P c H.J.J.J.J.J.",
"J.J.J.J.8 } @.4.1.2.2.2.2.<.>.:.>.;.2.w.  > r e *     * j s.x j 3 [ >.-.O.;.O.o.=.=.:.=.=.;.O.2.2.<.>.>.:.:./ ..^ m z.J.J.J.J.J.",
"J.J.J.J.{ X...@.#.<.2.=.=.*.>.;.-.<.t     * e e , *     e s.l *   y.O.O.O.2.O.o.;.<.-.%.=.O.O.;.o.*.*.<.-.1.<.( ..m ` J.J.J.J.J.",
"J.J.J.J.' S.X.} } @.=.o.O.O.=.=.-.w.. , ; . e e >   p   e z ,   H h p.O.O.O.o.o.o.O.o.*.%.o.o.@X5X^.O.=.o.;.:.X.` h.` J.J.J.J.J.",
"J.J.J.J.] } { ^ @.=.=.2.O.o.%.*.$.  ; e e O r e . 0.u.H e e p 0.i.;Xu.'.o.o.&.%.%.%.=.*.%.&X%X.X Xn o.&.*.:.*... .b.b J.J.J.J.J.",
"J.J.J.J.h.} ..( >.3.>.5.<.=.=.=.$.  e e e * , ,   ).=XOXu.u.u.OX:X=Xu.+X;.%.%.*.o.=.2.2.p.5X^. X/.n o.%.-.2.4.@.} c 9 J.J.J.J.J.",
"J.J.J.J.C ^ ( %.;.;.<.=.:.o.O.;.;.  e e e . e = :     F 8.G <X<X<X;X:Xu.p.%.*.=.*.:.;.=.>X5X/.XX/.n O.;.;.3.<.( W s 9 J.J.J.J.J.",
"J.J.J.J.P ( *.-.;.=.=.;.-.=.=.;.;.t ; , e e >   ;Xu.H 8.=X<X<X<X(.-X<X+Xp.o.;.-.2.;.;.@X5X5XXX{./.n %.O.-.-.4.E P R 6 J.J.J.J.J.",
"J.J.J.J.d / #.$.:.:.&.#.%.=.o.o.O.r.  ; , > . r +Xu.u.+X<X<X<X<X  J <X:Xt.=.%.%.%.%.( 5X.X5X5X^.D r o.,.o.%.+.E W ^ f J.J.J.J.J.",
"J.J.J.J.s ..f ~ -.<.o.=.=.=.o.=.=.=.w.        J +Xu.u.+X<X<X<X<Xq u <X<X@ >.O.o.o.o.@X.X^..X.X^.i w.o.o.%.+.+.! f d 3 J.J.J.J.J.",
"J.J.J.J.y P f W @.o.o.=.=.*.=.%.%.@.*.y.w.    J u.u.u.;X<X<X<X<XJ   <X'.t =.;.;.o.o.@X.X^..X^.^.+ e.*.o.%.*.-.4.! R 6 J.J.J.J.J.",
"J.J.J.J.3 f Q ~ :.>.2.<.<.%.;.y.  t r.=.:.e.  ,Xu.u.u.oX).).).).u   u   1 w.o.o.o.o. X^./. X^.D u =.%.<.2.<.>.$.W M 8 J.J.J.J.J.",
"J.J.J.J.3 m P ^ 5.7.<.%.=.%.y.  iXl t :.@.e.q =Xu.+X<XoXq               *X  &.%.%.e.G ^. X X^.: e.%.=.<.2.3.6.! 3 g.A J.J.J.J.J.",
"J.J.J.J.c ) } ^ #.>.;.o.=.%.w.: l 5XXX  w.t J OXu.u.u.=X<X,XJ       q '.=X  w.=.%.h D ^. X^.G   o.=.%.=.-.:.:./ T a 1 J.J.J.J.J.",
"J.J.J.J.6 ^ { } :.6.2.2.2.2.e.(.(.u s.iXXXD l w H J H 0.u.OX;X<X<X  oX=Xu.w w.O.e.  v.~.v.^.+ [ 2.1.=.*.:.#.( ~ / a - J.J.J.J.J.",
"J.J.J.J.6 _ ^ ( :.3.3.3.5.>.4.u s.~.>X8.yXuXiXiX/.~.~.w u.u.u.u.<X  <Xu.u.h h ;.h i ^.D ^.D   3.2.4.4.2.@.} ~ P a 2 < J.J.J.J.J.",
"J.J.J.J.m _ ..} ..#.=.;.%.%.=.u s.s.s.~.>X<XyXyXiXiXwXw u.u.u.u.<X  <Xu.u., = w.  ^./.s.^.3 w.O.=.%.*.-./ ~ } } ~ W 1 J.J.J.J.J.",
"J.J.J.J.m m _ } { { ^ *.*.=.=.u s.s.s.s.].<X<X<X<XiXs.w u.u.u.u.<X@ <Xu.w - O 1 i ~.q G ~.i O.O.;.;.<.;.%.%.@.@.X.b.b J.J.J.J.J.",
"J.J.J.J.A m _ ..( &.%.2.>.o.%.u s.s.s.s. X<X<X<X<XyX1X- , 8.OXu.<X<X<X, O   s.* = > = n r w.-.<.3.;.<.:.-.>.4.! R Z N J.J.J.J.J.",
"J.J.J.J.N P @.:.>.>.2.>.;.=.o.u ~.s.s.s.].+X<X<X<X<X1X;     w J +X+Xr = 3   = z z = . r 1 w.w.y.>.;.=.o.2.2.:.W P d 1 J.J.J.J.J.",
"J.J.J.J.f P &.6.3.%.%.2.>.*.%.u <X>Xv.s.].u.:X<X<X<Xs.- 3 s..       = z .       > , ;       3 . r.:.*.=.;.<.1.%./ T 1 J.J.J.J.J.",
"J.J.J.J.P W / >.>.O.=.=.;.;.O.[ <X<X,X).^.oX+X=X<X<X~.j * , r j > > j ; , o . h @ @ O : * ; s.3 y.;.o.;.%.-.7.:.( Q d J.J.J.J.J.",
"J.J.J.J.d d ~ ..&.%.*.*.%.=.=.w.'.<X,Xu.u./.s.~.].<XF 8 = e e e , r e e e e   * u.u.@   o , z   %.%.o.O.O.;.7.>.~ ~ d J.J.J.J.J.",
"J.J.J.J.T ~ ^ @.=.>.=.=.=.=.=.e.q <X<X+Xu.^.s.s.s.*   z * e e e e r e e e ;     8.8.t r.D     e.o.%.=.=.%.%.>.#...f 6 J.J.J.J.J.",
"J.J.J.J.a ..@.:.>.2.O.=.=.%.=.=.F (.<X,X+X^.s.s.s.].  z * , , e e e ; ; *   ; ;   t r.3.1.-.<.;.=.=.*.=.=.:.:.>.@.R y J.J.J.J.J.",
"J.J.K.K.d ) W @.:.>.2.=.>.%.;.2.3.h oX<X:Xs.s.s.s.).= 3   .               + . *   ;.=.O.o.o.O.<.>.=.=.;.2.7.:.( { M b J.J.J.J.J.",
"J.J.J.J.S } } $.1.>.;.O.=.%.=.%.=.*.h <X<Xx s.s.].r l o # $ $ # # % g # X g $ w.r.;.;.O.;.;.:.;.O.=.=.=.>.@.( ( |  .c J.J.J.J.J.",
"J.J.J.J.] { #.4.1.:.;.=.=.=.%.%.:.=.w.t <Xk s.s.J   . & Y Y K I U I I & # & K o.*.=.=.>.3.<.>.=.o.=.%.%.#._ _ { { M 6 J.J.J.J.J.",
"J.J.J.J.m R +.5.1.O.;.3.3.2.:.$.:.;.;.w.: 1 v.[.@ X & L L Y Y Y I I I I L L o.o.=.=.o.=.O.O.O.2.2.3.>.:.*.@.+...} R 6 J.J.J.J.J.",
"J.J.J.J.y ^ @.:.>.;.2.<.>.:.5.5.3.2.2.2.O.t [   @ K g L L Y Y I I Y Y Y L 1.o.o.=.>.:.&.*.;.;.3.2.>.>.1.;.1.5.@.{ d < J.J.J.J.J.",
"J.J.J.J.< f W +.5.7.O.O.=.=.=.;.;.;.O.O.O.r.w.w.:.I I Y L L I I I I I >.2.O.O.O.O.2.;.%.;.;.O.O.;.;.=.=.>.2.%.( ~ f O J.J.J.J.J.",
"J.J.J.J.2 s W / 4.>.<.<.;.=.*.=.-.:.:.:.=.-.-.o.=.&.*.>.4.>.4.4.>.*.=.;.=.=.%.%.=.=.o.*.=.>.=.2.3.6.<.&.:.&.&.^ T 1 O J.J.J.J.J.",
"J.J.J.J.1 + U @.( / ..~ @./ ( #.*.@.@.( @.@.4.<.:.( @.%.:.T E / ~ #.#.>.4.4.>.=.-.5.$./ :.4.@.>.:.@.^ & U P ( U + m - J.J.J.J.J.",
"J.J.J.J.- 1 W U a | ' f / f ~ { } R ..W W ~ +.@.^ ^ ..@...R d m f W P _ E +.~ :.@.^ ~ f } @.} &...R 7 1 2 1 s a d k.3 J.J.J.J.J.",
"J.J.J.J.< Y.C c M.W.W.g.) c m ` M 9 ) d d { T P ' .._.S.b.S m.m.c m ` m 7 d T f W M ) c  .} ' b.Z.` N.Z.I.k.m m j.N = J.J.J.J.J.",
"J.J.J.J.< c.Y.W.|.|.W.T.I.I.] A B.T.W.A.j.6 8 k.A.I.Y.E.|.|.2Xj.< M.R.E.x.Z.M.] 3 M.R.I.}.I.N.T.2X2X2X2X|.T.W.|.G.4 . J.J.J.J.J.",
"J.J.J.J.- y Z A.I.I.I.W.#XW.v A |.|.W.T.B.Z 3 G.}.T.I.W.W.W.T.g.5 S Y.I.W.W.W.g.v N.I.T.T.T.B.- g.R.W.W.I.T.E.I.v . 4 J.J.J.J.J.",
"J.J.J.J.9 v C M.N.N.N.N.B.m.5 y M.N.N.N.N.g.k c.I.B.N.N.N.N.N.N.b A N.N.N.N.N.m.N N.B.N.N.I.c.y g.N.N.N.N.N.M.A 5 + f.J.J.J.J.J.",
"J.J.J.J.E.+ 6 S M.N.N.N.N.N.k 1 g.N.N.N.N.g.5 M.N.N.A.N.N.N.N.j.; b M.G.I.N.N.j.y M.N.N.N.N.A 3 g.N.N.N.I.Y.Y.c.5 k K.J.J.J.J.J.",
"J.J.J.J.#X= C M.M.m.B.I.M.j.v < m.N.N.N.m.k - m.N.N.N.N.m.m.j.A 8 y R.W.T.I.I.m.5 x.N.N.N.N.A - g.m.m.N.I.W.R.c.3 A P.J.J.J.J.J.",
"J.J.J.J.$X< g.W.2X}.T.I.N.N.h.3 g.N.N.T.W.Y.3 S N.N.N.N.x.M.N.I.g.< x.B.N.N.N.M.k m.N.N.N.N.A b I.N.N.N.N.N.m.M 1 V.L.J.J.J.J.J.",
"J.J.J.J.4X5 n g.Y.I.N.N.N.N.m.v A N.I.T.R.M.5 c.m.N.I.I.N.N.N.N.g.3 j.N.N.N.N.N.C N.N.N.N.N.] g.N.N.N.N.N.N.g.v - V.K.J.J.J.J.J.",
"J.J.J.J.4X3 b A N.N.N.N.N.N.M.N g.N.N.N.N.j.5 R.W.W.W.N.N.N.M.M.] 5 j.N.N.N.N.M.g.I.N.N.N.N.g.j.N.N.N.N.N.M.N l 1 }.J.J.J.J.J.J.",
"J.J.J.J.2Xc.y M k.N.N.N.N.N.m.N j.N.N.N.A.j.y g.T.Y.N.N.N.N.m.m.A k g.N.N.I.I.M.C x.N.N.N.M.A A x.N.N.N.N.j.N 5 G 7XP.J.J.J.J.J.",
"J.J.J.J.P.8Xc.5 N j.m.M.M.k.Z v j.I.N.N.m.C c C m.M.N.N.N.N.m.m.h.v A N.N.N.B.g.C m.N.N.m.j.b b j.M.N.N.m.d.v c.qX4XJ.J.J.J.J.J.",
"J.J.J.J.J.!.qX{.c.c.g.m.I.V.`.V.C g.j.m.k.] ^.v N S j.j.C C C N ] `.c.m.g.A A n V.A g.g.S Z n.S.c.S A A j.n.`.rXqX!.J.J.J.J.J.J.",
"J.J.J.J.J.K.4X8X9X6X$X3X9XeXrXtX`.n.n.S.{.%XeX%X`. .S S F c.`.$X9XtX$Xn.c.c.`.{.qX6X{.n.n.{.9X8X8X3X{.{.{.3XtXqX2XJ.J.J.J.J.J.J.",
"J.J.J.J.J.J.J.F.U.T.}.0X6X7XqXqXqXqXrXrXtXqXQ.2X8X8X8X8X8X8X7X$X0XtX0XeXrXeXtXtX|.Q.3X8XeXtXrXqX8X4X7X8X4XQ.Q.P.J.J.J.J.J.J.J.J.",
"J.J.J.J.J.J.J.J.J.D.z.F.G.z.U.Q.4XqXqX7X4XE.H.J.F.U.#XW.U.F.z.z.F.!.4X0XqXqX7X#Xz.z.D.L.W.#XQ.P.L.D.D.D.L.L.J.J.J.J.J.J.J.J.J.J.",
"J.J.J.J.J.J.J.J.J.J.D.z.z.D.H.K.x.z.x.d.0 V 9 0 z.D.J.z.z.l.l.z.z.H.L.P.L.x.f.a.0 0 d.f.C.H.H.J.J.z.z.J.H.J.J.J.J.J.J.J.J.J.J.J.",
"J.J.J.J.J.J.J.J.J.J.J.J.J.J.J.J.J.J.J.J.J.J.J.J.J.J.J.J.J.J.J.J.J.J.J.J.J.J.J.J.J.J.J.J.J.J.J.J.J.J.J.J.J.J.J.J.J.J.J.J.J.J.J.J.",
"J.J.J.J.J.J.J.J.J.J.J.J.J.J.J.J.J.J.J.J.J.J.J.J.J.J.J.J.J.J.J.J.J.J.J.J.J.J.J.J.J.J.J.J.J.J.J.J.J.J.J.J.J.J.J.J.J.J.J.J.J.J.J.J.",
"J.J.J.J.J.J.J.J.J.J.J.J.J.J.J.J.J.J.J.J.J.J.J.J.J.J.J.J.J.J.J.J.J.J.J.J.J.J.J.J.J.J.J.J.J.J.J.J.J.J.J.J.J.J.J.J.J.J.J.J.J.J.J.J.",
"J.J.J.J.J.J.J.J.J.J.J.J.J.J.J.J.J.J.J.J.J.J.J.J.J.J.J.J.J.J.J.J.J.J.J.J.J.J.J.J.J.J.J.J.J.J.J.J.J.J.J.J.J.J.J.J.J.J.J.J.J.J.J.J."
};
