/* XPM */
static char *out[] = {
/* columns rows colors chars-per-pixel */
"64 64 225 2 ",
"   c #161C2E",
".  c #1D2435",
"X  c #212537",
"o  c #292B36",
"O  c #24293B",
"+  c #2C3034",
"@  c #28343A",
"#  c #3E4D35",
"$  c #424F34",
"%  c #55663A",
"&  c #69793C",
"*  c #2C2E41",
"=  c #293143",
"-  c #2A3B47",
";  c #2E374B",
":  c #353549",
">  c #393B48",
",  c #3E3C50",
"<  c #423F40",
"1  c #2D414B",
"2  c #35474B",
"3  c #3D5548",
"4  c #394854",
"5  c #2C545B",
"6  c #3E5157",
"7  c #3C585A",
"8  c #3B635C",
"9  c #3B5D63",
"0  c #396968",
"q  c #387277",
"w  c #4F4E47",
"e  c #4A4C4D",
"r  c #434055",
"t  c #444959",
"y  c #4B5451",
"u  c #42595B",
"i  c #5E5D57",
"p  c #4C674A",
"a  c #56744D",
"s  c #47675A",
"d  c #5A695B",
"f  c #57795B",
"g  c #647F47",
"h  c #6F6252",
"j  c #626D5E",
"k  c #454E63",
"l  c #4A4D63",
"z  c #465865",
"x  c #50576D",
"c  c #4C5A70",
"v  c #555F75",
"b  c #456765",
"n  c #4B6465",
"m  c #4C6B6C",
"M  c #546A6B",
"N  c #48776A",
"B  c #537667",
"V  c #4F6F71",
"C  c #467876",
"Z  c #547574",
"A  c #587A76",
"S  c #567B7B",
"D  c #5A7D7D",
"F  c #646B72",
"G  c #6B7270",
"H  c #767975",
"J  c #737C7D",
"K  c #8C795E",
"L  c #827E6C",
"P  c #6E853F",
"I  c #71853F",
"U  c #5C835B",
"Y  c #6B8243",
"T  c #638149",
"R  c #768442",
"E  c #658859",
"W  c #648A5B",
"Q  c #778F5A",
"!  c #6D945C",
"~  c #6D985C",
"^  c #759859",
"/  c #739C5C",
"(  c #77A25D",
")  c #7BA45D",
"_  c #7EA95D",
"`  c #598666",
"'  c #5D9264",
"]  c #4B8379",
"[  c #568C75",
"{  c #59857A",
"}  c #6D8D6B",
"|  c #669764",
" . c #6B9C62",
".. c #659875",
"X. c #76A465",
"o. c #73A572",
"O. c #9BB94E",
"+. c #86A45B",
"@. c #83AC5D",
"#. c #8BAE5C",
"$. c #92AD5B",
"%. c #8EB256",
"&. c #87B059",
"*. c #8BB159",
"=. c #94B553",
"-. c #9BB654",
";. c #9CB851",
":. c #94B25A",
">. c #9BB359",
",. c #9BB859",
"<. c #A3AE57",
"1. c #A2B655",
"2. c #A9B757",
"3. c #A4B852",
"4. c #AAB954",
"5. c #A3B559",
"6. c #AAB759",
"7. c #AAB859",
"8. c #B1B857",
"9. c #9A8B6D",
"0. c #899D76",
"q. c #AA906A",
"w. c #90B366",
"e. c #8EA175",
"r. c #92A273",
"t. c #9CA678",
"y. c #9AB476",
"u. c #A5BA68",
"i. c #A7A37B",
"p. c #A3B773",
"a. c #C8A876",
"s. c #CCAE7B",
"d. c #CEB17E",
"f. c #AFC270",
"g. c #5E6F86",
"h. c #587C80",
"j. c #6B7D8A",
"k. c #3E888B",
"l. c #5B8484",
"z. c #578985",
"x. c #5E8B8B",
"c. c #5A928B",
"v. c #488990",
"b. c #45979A",
"n. c #599896",
"m. c #678B89",
"M. c #79878A",
"N. c #6B938D",
"B. c #629494",
"V. c #679896",
"C. c #669C9C",
"Z. c #6A9D9D",
"A. c #789B96",
"S. c #44A09F",
"D. c #6BA29C",
"F. c #78A697",
"G. c #489BA2",
"H. c #5A9BA5",
"J. c #6D9EA2",
"K. c #45A4A4",
"L. c #47ABA9",
"P. c #4AAAA9",
"I. c #56A8A9",
"U. c #5AB3B0",
"Y. c #6BA2A2",
"T. c #68A9AD",
"R. c #71A5A4",
"E. c #73AAAB",
"W. c #76ABAB",
"Q. c #77B0AE",
"!. c #67B4B3",
"~. c #7DB4B4",
"^. c #78B9B7",
"/. c #7BC5BC",
"(. c #8F9594",
"). c #8C9695",
"_. c #A69F81",
"`. c #8FB285",
"'. c #84A59B",
"]. c #B8AF8B",
"[. c #A2B583",
"{. c #A8A997",
"}. c #BBB89B",
"|. c #939FAE",
" X c #9BA5A5",
".X c #91B5A9",
"XX c #82B7B7",
"oX c #86BDBC",
"OX c #A2ABAC",
"+X c #A8B1A3",
"@X c #ABB4B5",
"#X c #B0B7BA",
"$X c #C6B688",
"%X c #D2B783",
"&X c #B8C98B",
"*X c #87C3BC",
"=X c #9AC4B7",
"-X c #A6CCBC",
";X c #BCC8B6",
":X c #CAC096",
">X c #DBC490",
",X c #D5C99B",
"<X c #E2CE99",
"1X c #E5D29D",
"2X c #CAC4A1",
"3X c #E8D7A2",
"4X c #EFE1AB",
"5X c #F1E6B9",
"6X c #8BC6C3",
"7X c #9CCCC4",
"8X c #99D4C7",
"9X c #B8C1C3",
"0X c #ACD7C9",
"qX c #A8D8CB",
"wX c #B4DECC",
"eX c #B8E1CE",
"rX c #B9E6D4",
"tX c #BBE9D6",
"yX c #D1D3D6",
"uX c #C1EBD6",
"iX c #C2EDD9",
"pX c #C7F1DC",
"aX c #F6EFD3",
"sX c #F3F2EA",
"dX c white",
/* pixels */
"L.L.L.L.L.L.L.L.L.L.L.L.L.L.L.L.L.L.L.L.L.L.L.L.L.L.L.L.L.L.L.L.L.L.L.L.L.L.L.L.L.L.L.L.L.L.L.L.L.L.L.L.L.L.L.L.L.L.L.L.L.L.L.L.",
"L.L.L.L.L.L.L.L.L.L.L.L.L.L.L.L.L.L.L.L.L.L.L.L.L.L.L.L.L.L.L.L.L.L.L.L.L.L.L.L.L.L.L.L.L.L.L.L.L.L.L.L.L.L.L.L.L.L.L.L.L.L.L.L.",
"L.L.L.L.L.L.L.L.L.L.L.L.L.L.L.L.L.L.L.L.L.L.L.L.L.L.L.L.P.L.L.L.L.L.L.L.L.L.L.L.L.L.L.L.L.L.L.L.L.L.L.L.L.L.L.L.L.L.L.L.L.L.L.L.",
"L.L.L.L.L.L.L.L.L.L.L.L.L.L.L.L.L.L.L.L.L.L.U.!.B.< l N.J.!.L.P.L.L.L.L.L.L.L.L.L.L.L.L.L.L.L.L.L.L.L.L.L.L.L.L.L.L.L.L.L.L.L.L.",
"L.L.L.L.L.L.L.L.L.L.P.P.L.L.L.L.K.L.L.L.L.T.  * r g.g.g.v r g.!.L.L.L.L.L.L.L.L.L.L.L.L.L.L.L.L.L.L.L.L.L.L.L.L.L.L.L.L.L.L.L.L.",
"L.L.L.L.L.b.0 N q h.C l.N C c.c.` B b B m.  , r l c g.g.g.g.g.< F.N.c.c.x.C b B E s B U ] ] z.c.] ` N C v.0 0 q K.L.L.L.L.L.L.L.",
"L.L.L.L.k.5 # _ ! / W o.! _ &.( @.( ! X.  : r x v v g.v l x c g.M &.@.&./ ! @.@.&.@.) %.+.~ X._ X._ W / % ( ^ T 8 S.L.L.L.L.L.L.",
"L.L.L.L.0 ^ ! *.*.-.<.2.1.@.=.O.1.$.>.y.  < l g.g.g.g.g.g.g.l x x u.3.-.#.:.=.%.O.O.O.4.4.-.-.>.3.,.&.*.! @.@.^ E N k.L.L.L.L.L.",
"L.L.L.L.0 a +.7.4.3.3.=.:.%.;.4.4.2.3.y.X < k x l r r l g.g.g.r v t.4.4.3.-.&.%.%.=.*.-.O.O.O.-.:.%.*.,.5.>.@./ E N b.L.L.L.L.L.",
"L.L.L.L.0 ! _ ,.O.=.=.O.=.=.O.=.=.=.O.p.; r r r O     : l g.g.r t e.=.:.O.O.=.;.=.1.=.;.O.O.=.O.O.=.=.=.4.:.@.@.E q L.L.L.L.L.L.",
"L.L.L.L.C p +.5.4.:.1.O.=.%.%.%.-.%.=.H   : < r r * X * r g.l <   *.,.%.=.O.O.=.*.=.;.;.4.1.,.=.O.%.%.O.%. . .~ E b K.L.L.L.L.L.",
"L.L.L.L.0  .&.1.7.1.3.1.1.1.:.:.>.p.  :   X r r :   <   r l <   L h f.-.O.O.O.=.=.=.=.=.-.=.O.3.3.1.>.>.:.#._ X.( N b.L.L.L.L.L.",
"L.L.L.L.} X.X.X.#.1.3.=.=.*.>.3.-.  : r <   r :   K %XK < r F q.s.1Xa.u.4.;.O.O.=.1.-.%.=.O.;.&X;X@X[.1.-.4.5._ o.N ] L.L.L.L.L.",
"L.L.L.L.[ F.o. . .@.=.O.;.O.=.=.t.X < r r   r X   _.>Xa.a.a.a.%X3X%Xa.&XO.O.O.O.-.O.=.%.%.&X9X#XOXJ [.=.O.;.:.o.] z.S L.L.L.L.L.",
"L.L.L.L.{  .| X.@.=.=.1.O.O.%.%.`.* r r r   < X <   : L L {.4X4X3X1X1X%X-.=.%.*.%.%.=.%.%.;XOX). XJ [.&.*.%.w.X.' c.m L.L.L.L.L.",
"L.L.L.L.z. .X._ -.4.>.2.1.=.=.%._.O r r , , : L >X%XK K $X4X4X4Xi.4X4X%Xu.=.%.%.=.O.;.4.f.9X#X X Xj.p.%.O.3.7.@. .b 0 L.L.L.L.L.",
"L.L.L.L.Z ( @.%.-.O.3.=.=.-.O.O.u.  r r r r . ].a.a.a.<X4X4X4X4X  ].4X%Xi.%.%.%.%.=.,.,.9X9X;X#X(.H y.;.O.4.1.) ~ f 0 L.L.L.L.L.",
"L.L.L.L.f _ :.,.-.=.=.-.-.=.=.O.-.j X : r X   4Xa.a.a.%X4X4X4X4X> L 4X$X  O.=.;.1.,.,.&X#X#X9XOX).F [.-.-.-.5.Q U E 7 L.L.L.L.L.",
"L.L.L.L.u ) +.$.:.=.&.#.%.=.O.O.O.O.r.d     @ <Xa.a.a.4X4X4X4X4Xi   4Xi } =.%.=.%.%.y.9X). X#X(.J y =.O.-.=.$.Q ! ( f L.L.L.L.L.",
"L.L.L.L.f _ f / >.1.O.=.=.=.O.%.y j =.O.O.r.i %Xa.a.a.].L L L L <         j O.O.=.;.&X X).@X X).4 y.=.=.=.@.Q ^ f u 6 L.L.L.L.L.",
"L.L.L.L.y U a ! @.O.O.%.=.*.=.j F   j >.O.r.L a.a.%X4X$Xe             > 4X  O.O.O.O.+X).).OX).(.y =.%.%.%.%.-.6.^ E 7 L.L.L.L.L.",
"L.L.L.L.5 f ~ / :.>.3.1.1.%.r.  F yX(.j y.  9.a.a.a.a.%X1X,X_.i e   i :Xd.  y.=.=.y.4 ).(.OX).4 t.-.%.3.3.1.-.$.! B 9 L.L.L.L.L.",
"L.L.L.L.4 N ` ) 2.8.;.%.:.%.r.L L l 9XyXl   w q.a.a.a.a.a.%X%X5Xi.  4Xd.a.h y.%.=.  G ).M ).J   u.%.=.3.3.4.2.^ 4 z.S L.L.L.L.L.",
"L.L.L.L.b ` ~ ( %.>.>.O.=.%.0.L j.].L #XdXdX@X(.        a.a.a.a._.  4Xa.a.h y.O.e.  (.M.J ).: j O.%.%.=.-.:.:.^ T p 2 L.L.L.L.L.",
"L.L.L.L.8 / ~  .:.4.1.3.3.1.0.L g.g.(.}.4XaXaXsXdXdXsX  a.a.a.a._.  4Xs.q.< t ;.y F ).H ).j.  u.3.3.=.%.:.&.+./ X.p - L.L.L.L.L.",
"L.L.L.L.7 ' ( _ :.4.4.3.2.,.t.L g.g.g.g.4X4X4X4X4XaX|.  a.a.a.a._.e 4Xq.  4 O j : (.F j.(.r r.3.1.2.5.1.@. . .U a e 1 L.L.L.L.L.",
"L.L.L.L.C ' X. .( #.=.-.:.%.e.L g.g.g.g.4X4X4X4X3XaX|.  < q.a.a.4X4X4X+ = = ;   t } * J M.o O.O.=.*.*.>.) (  . .~ ! 2 L.L.L.L.L.",
"L.L.L.L.N N '  .| | X.%.*.=.e.L j.g.g.g.<X3X4X4X4X5X|.  ; X e h 9.9.> k ;   z z : * o M e 0.O.O.O.3.3.-.%.%.@.@. .V.N L.L.L.L.L.",
"L.L.L.L.S N | / @.@.=.1.-.=.e.L 4X{.g.g.%Xa.3X4X4X4Xg.. r g.4 ;     g.r X   k ; l l O     y   j 3.,.1.:.=.-.5.^ ! A V L.L.L.L.L.",
"L.L.L.L.m U @.:.,.-.3.>.-.=.u.e 4X4X<X(.{.>X%X3X4X4Xj.= ; r c g.g.c k * <   t h   O : : . O g.= p.-.=.O.1.4.:.! f s 1 L.L.L.L.L.",
"L.L.L.L.B U &.6.4.*.=.1.>.%.%.y ,X4X<Xs.<Xg.(.}.}.4XJ 4 * r r r , r r r < * w w h K o O : : g.; p.:.%.=.O.1.2.=.) E 4 L.L.L.L.L.",
"L.L.L.L.E ! _ :.>.;.%.=.;.O.O.r.L 4X4X%X>Xg.g.g.v = ; , * r r r r r r l < X     a.a.@ r.  O * j -.-.O.O.=.>.4.:._ ~ s L.L.L.L.L.",
"L.L.L.L.s s / _ @.%.*.*.%.=.O.O.j 4X4X>X3Xg.g.g.g.{.: 4 ; < r r r r r : o   ,   $ < 0.=.>.0.0.@.%.%.O.O.O.3.8.>./ / s L.L.L.L.L.",
"L.L.L.L.U / / @.-.-.=.=.=.%.=.%.y.L 4X3X}.g.g.g.g.{., ; . O O O X .         , : y p.-.-.4.3.O.=.O.%.%.=.%.#.:.#.X.f 7 L.L.L.L.L.",
"L.L.L.L.s @.@.:.>.1.O.=.=.%.=.=.:.y.e 4X(.g.g.g.2Xe 4 + $ # # # 2 % R + + % o   p.O.3.4.2.:.3.=.=.=.%.=.=.=.:.>.@.W z L.L.L.L.L.",
"L.L.L.P.s U ! @.:.-.3.=.-.%.;.3.3.1.h L L g.g.2Xe   o I R g Y Y g & R % $ % +.%.=.-.=.=.O.O.O.1.-.=.%.3.4.6.:.@.| B m L.L.L.L.L.",
"L.L.L.L.{ |  .#.2.-.-.;.=.%.=.%.=.*.O.}   g.{.$   $ & Y Y Y P Y Y P Y g P P >.O.=.1.O.O.3.;.=.O.O.=.=.=.:.#.@._  .{ b L.L.L.L.L.",
"L.L.L.L.z./ #.2.6.:.>.=.=.=.%.%.:.=.=.O.j e @ + % R R Y R Y P Y g T Y Y P =.O.=.%.%.O.-.4.5.>.=.O.=.*.=.#.' ' ' | ` 7 L.L.L.L.L.",
"L.L.L.L.V U #.2.4.O.O.4.2.1.:.:.:.;.O.O.O.r.e.,.:.Y R Y R R R R Y g Y $.O.O.O.O.=.=.O.=.O.O.;.3.3.4.1.:.#.@.+.X. .W 7 L.L.L.L.L.",
"L.L.L.L.u / @.:.>.;.3.3.5.:.2.6.4.3.3.3.O.%.=.,.:.*.%.,.5.6.u.>.u.4.4.4.3.3.O.=.=.,.:.&.&.O.O.4.>.>.:.4.-.2.2.&. .s 1 L.L.L.L.L.",
"L.L.L.L.1 f W #.8.8.O.O.O.%.=.;.O.3.O.O.O.O.O.1.=.=.;.;.O.O.=.=.=.O.O.O.O.O.O.O.O.3.-.=.O.O.O.O.;.;.=.=.1.3.=._ / d O L.L.L.L.L.",
"L.L.L.L.3 a ^ / 5.-.1.-.-.=.*.=.>.$.=.:.=.:.>.O.-.&.*.-.1.;.3.,.=.&.=.>.=.=.=.%.=.=.-.&.:.5.=.3.4.4.5.&.%.&.&.( E 2 = L.L.L.L.L.",
"L.L.L.L.4 @ E +.) ) _ ) +.( _ #.$._ _ _ @.#.>.3.=._ _ *.:.E ! +./ *.#.:.5.5.,.=.>.4.#.) :.5.@.>.:.) ( a g a _ U @ N - L.L.L.L.L.",
"L.L.L.L.- 3 E T s | { f ) U ~ | ! E _ ! ! / @.@. .X._ _ X.W s s f ! U U Q +./ *.@./ ^ f ~ X.X.X.X.W 3 2 7 3 a p 8 B.2 L.L.L.L.L.",
"L.L.L.L.- Z.Z b C.~.XXh.` b N ] B s B 0 s ! W ` ' o.`.F.N.S B.c.b N ] N 8 s E f ! B ` b .. .[ o.D.[ C.D.Y.c.N N z.V = L.L.L.L.L.",
"L.L.L.L.1 N.W.Q.oXoX~.T.J.Y.{ S D.W.XXD.x.7 7 x.C.R.Y.Q.oXoX6Xm.1 V.Q.Q.V.C.V.S 4 V.Q.Y.XXY.C.E.6X*X6X6XoXW.~.oXD.5 . L.L.L.L.L.",
"L.L.L.L.- u S C.C.Y.Y.^.oX~.n S oXoX~.E.J.A 2 J.oXT.Y.~.~.~.T.m.7 S R.Y.Q.^.Q.m.n C.Y.R.E.E.Z.; h.Q.~.Q.Y.E.Q.Y.n O 5 L.L.L.L.L.",
"L.L.L.L.0 n Z V.C.C.C.Y.Y.m.7 u B.C.C.C.C.l.n x.Y.C.C.C.C.C.C.C.m S C.C.D.C.C.B.Z C.Z.C.Z.Y.m.7 l.C.C.C.C.C.B.S 7 O k.L.L.L.L.L.",
"L.L.L.L.Q.@ 7 S B.C.C.C.C.C.z 2 l.C.C.C.C.l.6 B.C.C.C.C.C.C.C.x.; m V.R.Y.D.C.x.u V.C.C.C.C.S 4 x.V.C.C.Y.R.R.m.u z P.P.P.L.L.L.",
"L.L.L.L.*X= Z V.Z.V.C.Y.C.x.n 1 B.C.C.C.n.n ; B.Y.C.C.C.B.B.x.S b t Q.Q.E.Y.C.B.6 n.C.C.C.C.S 1 l.B.B.C.Y.~.W.{ 6 S U.P.L.L.L.L.",
"L.L.L.L.=X1 l.XX*XXXE.J.C.C.l.4 l.Z.Z.T.W.A.6 h.C.C.C.C.B.C.C.C.h.1 n.Z.C.C.Z.V.z B.C.C.C.C.S m J.C.C.C.C.C.B.M 2 A.I.P.L.L.L.L.",
"L.L.L.L.7Xu n l.R.J.C.C.C.D.B.n S C.Y.E.Q.V.6 m.B.C.Y.Y.C.C.C.C.l.4 x.C.C.C.C.C.S C.C.C.C.C.h.l.C.C.C.C.C.D.l.n ; Z.P.P.L.L.L.L.",
"L.L.L.L.8X6 M A C.C.C.C.C.C.B.V l.C.Y.C.C.x.6 E.XX~.Q.C.C.C.C.C.{ 6 x.C.C.C.C.C.h.Y.C.C.C.C.l.l.C.C.C.C.C.V.Z b 1 *XL.L.L.L.L.L.",
"L.L.L.L.*Xm.u V x.C.C.C.C.C.B.V x.C.C.C.C.x.6 m.W.Y.C.C.C.C.B.B.S z z.C.C.Y.Y.B.Z B.C.C.C.C.D S n.C.C.C.C.x.V 4 J qXP.L.L.L.L.L.",
"L.L.L.L.!.qXm.u V x.B.V.V.B.A s x.C.C.C.B.A n M B.C.C.C.C.B.B.B.z.n S Z.C.C.Z.l.Z B.C.C.B.x.m m x.C.C.Z.B.h.n M.rX8XL.L.L.L.L.L.",
"L.L.L.L.L./.rX.Xm.m.l.V.Z.Z.'.A.Z l.l.B.B.{ A.M V S m.x.Z A Z V D '.m.B.l.D Z V A.A l.z.D Z N.F.m.h.S S x.m.'.iXtX/.L.L.L.L.L.L.",
"L.L.L.L.L.U.8XwXeX0X-X-XwXtXiXpX'.N.N.F..X-XuX-X'.M.{ D { m.).=XeXpX=XN.N.M.A.=XuX7X.XM.N..XeXwXwX7X.X.X.X7XiXtX8XL.L.L.L.L.L.L.",
"L.L.L.L.L.L.L.I.T.T.XXrXqXqXtXtXtXiXuXuXpXuX^.6XwXwXwXwXwXrX-X7XtXiXrXiXuXuXiXpX6X^.0X0XiXpXpXtXwX7XqXwX7XQ.^.U.L.L.L.L.L.L.L.L.",
"L.L.L.L.L.L.L.L.L.G.b.H.H.G.Y.^.8XtXtXeX8X!.G.K.K.T.oXXXY.H.b.b.I.*X8XtXrXrXqX/.G.k.G.I.~.*X^.U.I.G.G.G.I.I.L.L.L.L.L.L.L.L.L.L.",
"L.L.L.L.L.L.L.L.L.L.G.b.v.G.L.L.b.c.n.v.C C 0 q v.b.L.b.b.v.v.b.b.b.P.U.I.n.v.q q q h.k.b.L.K.L.L.b.b.L.K.L.L.L.L.L.L.L.L.L.L.L.",
"L.L.L.L.L.L.L.L.L.L.L.L.P.P.L.L.L.L.L.L.L.L.L.L.L.L.L.L.L.L.L.L.L.L.L.L.L.L.L.L.L.L.L.L.L.L.L.L.L.L.L.L.L.L.L.L.L.L.L.L.L.L.L.L.",
"L.L.L.L.L.L.L.L.L.L.L.L.P.P.L.L.L.L.L.L.L.L.L.L.L.L.L.L.L.L.L.L.L.L.L.L.L.L.L.L.L.L.L.L.L.L.L.L.L.L.L.L.L.L.L.L.L.L.L.L.L.L.L.L.",
"L.L.L.L.L.L.L.L.L.L.L.L.L.L.L.L.L.L.L.L.L.L.L.L.L.L.L.L.L.L.L.L.L.L.L.L.L.L.L.L.L.L.L.L.L.L.L.L.L.L.L.L.L.L.L.L.L.L.L.L.L.L.L.L.",
"L.L.L.L.L.L.L.L.L.L.L.L.L.L.L.L.L.L.L.L.L.L.L.L.L.L.L.L.L.L.L.L.L.L.L.L.L.L.L.L.L.L.L.L.L.L.L.L.L.L.L.L.L.L.L.L.L.L.L.L.L.L.L.L."
};
