/* XPM */
static char *out[] = {
/* columns rows colors chars-per-pixel */
"64 64 227 2 ",
"   c #161C2E",
".  c #1D2435",
"X  c #242D2F",
"o  c #212537",
"O  c #24283B",
"+  c #282D3D",
"@  c #26343C",
"#  c #333935",
"$  c #445336",
"%  c #59693A",
"&  c #2C2E41",
"*  c #2B3846",
"=  c #353549",
"-  c #383C48",
";  c #3A3E52",
":  c #423F41",
">  c #2D414B",
",  c #34474B",
"<  c #3D5548",
"1  c #384952",
"2  c #3A455A",
"3  c #2C545B",
"4  c #3E5157",
"5  c #3C585A",
"6  c #3B635C",
"7  c #396968",
"8  c #387277",
"9  c #4C4E45",
"0  c #4C4D4D",
"q  c #434055",
"w  c #454959",
"e  c #4C5451",
"r  c #42595B",
"t  c #5E5D57",
"y  c #655A4E",
"u  c #4C674A",
"i  c #56744D",
"p  c #47675A",
"a  c #556659",
"s  c #55765B",
"d  c #587B5B",
"f  c #6B6656",
"g  c #737357",
"h  c #4B4D63",
"j  c #455864",
"k  c #535B62",
"l  c #50576D",
"z  c #4C5A70",
"x  c #555F75",
"c  c #456765",
"v  c #4B6465",
"b  c #4C6B6C",
"n  c #556B6A",
"m  c #48776A",
"M  c #537667",
"N  c #4F6F71",
"B  c #566579",
"V  c #467876",
"C  c #547574",
"Z  c #587A76",
"A  c #567B7B",
"S  c #5A7D7D",
"D  c #666864",
"F  c #646B74",
"G  c #707D72",
"H  c #747C7C",
"J  c #8C795E",
"K  c #857465",
"L  c #827E6C",
"P  c #6E853F",
"I  c #71853F",
"U  c #5C835B",
"Y  c #6B8243",
"T  c #638149",
"R  c #778443",
"E  c #678A57",
"W  c #61865C",
"Q  c #648A5B",
"!  c #778F5A",
"~  c #6D945C",
"^  c #6D985C",
"/  c #759859",
"(  c #739C5C",
")  c #77A25D",
"_  c #7BA45D",
"`  c #7EA95D",
"'  c #598666",
"]  c #5D9264",
"[  c #4B8379",
"{  c #568C75",
"}  c #59857A",
"|  c #768268",
" . c #669764",
".. c #6B9C62",
"X. c #709F63",
"o. c #628674",
"O. c #659875",
"+. c #76A465",
"@. c #73A572",
"#. c #88A04F",
"$. c #98B74F",
"%. c #9BB94F",
"&. c #87A45A",
"*. c #83AC5D",
"=. c #8BAE5C",
"-. c #92AC5B",
";. c #8EB256",
":. c #87B059",
">. c #8BB159",
",. c #94B553",
"<. c #9BB654",
"1. c #9CB850",
"2. c #95B25A",
"3. c #9BB359",
"4. c #9DB858",
"5. c #A3AE57",
"6. c #A2B655",
"7. c #A9B757",
"8. c #A4B852",
"9. c #AAB954",
"0. c #A3B559",
"q. c #AAB759",
"w. c #AAB95A",
"e. c #B1B857",
"r. c #908D6E",
"t. c #AF9872",
"y. c #93B36B",
"u. c #8EA175",
"i. c #92A273",
"p. c #97A97A",
"a. c #A6BD6A",
"s. c #A6AC7E",
"d. c #A3B872",
"f. c #C8A876",
"g. c #C7AD7D",
"h. c #AEC272",
"j. c #3D7D80",
"k. c #5E6F86",
"l. c #597D83",
"z. c #6D7A8B",
"x. c #3E888B",
"c. c #5B8484",
"v. c #578985",
"b. c #5E8B8B",
"n. c #5A928B",
"m. c #488990",
"M. c #45979A",
"N. c #599896",
"B. c #688B88",
"V. c #788689",
"C. c #65958C",
"Z. c #629494",
"A. c #679896",
"S. c #669C9C",
"D. c #6A9D9D",
"F. c #749090",
"G. c #789B96",
"H. c #44A09F",
"J. c #6BA29C",
"K. c #78A597",
"L. c #489BA2",
"P. c #5A9BA5",
"I. c #6D9EA2",
"U. c #45A4A4",
"Y. c #47ABA9",
"T. c #4AAAA9",
"R. c #56A8A9",
"E. c #59B2AF",
"W. c #5AB4B1",
"Q. c #6BA2A2",
"!. c #68A8AC",
"~. c #71A5A4",
"^. c #73AAAB",
"/. c #76ABAB",
"(. c #73B2AF",
"). c #7DB4B4",
"_. c #78B9B7",
"`. c #7BC5BC",
"'. c #8D9190",
"]. c #8C9695",
"[. c #A69F81",
"{. c #8FB285",
"}. c #83A59B",
"|. c #B8AF8B",
" X c #A1B481",
".X c #BEB58F",
"XX c #A6A898",
"oX c #959EA0",
"OX c #9BA5A5",
"+X c #91B5A9",
"@X c #82B7B7",
"#X c #86BDBC",
"$X c #A8B1B2",
"%X c #C8B682",
"&X c #D3B885",
"*X c #B8CA8E",
"=X c #87C3BC",
"-X c #9AC4B7",
";X c #BECBAE",
":X c #A6CCBC",
">X c #C2C386",
",X c #CAC096",
"<X c #DBC490",
"1X c #E2CE99",
"2X c #E5D29D",
"3X c #CAC7A5",
"4X c #E8D8A3",
"5X c #EFE1AB",
"6X c #F1E6B9",
"7X c #AEB7C2",
"8X c #8BC6C3",
"9X c #9CCCC4",
"0X c #99D4C7",
"qX c #B8C1C3",
"wX c #ACD7C9",
"eX c #A8D8CB",
"rX c #B4DECC",
"tX c #B8E1CE",
"yX c #B9E6D4",
"uX c #BBE9D6",
"iX c #C6C8CC",
"pX c #C1EBD6",
"aX c #C2EDD9",
"sX c #C7F1DC",
"dX c #F6EECF",
"fX c #E4E7EA",
"gX c white",
/* pixels */
"Y.Y.Y.Y.Y.Y.Y.Y.Y.Y.Y.Y.Y.Y.Y.Y.Y.Y.Y.Y.Y.Y.Y.Y.Y.Y.Y.Y.Y.Y.Y.Y.Y.Y.Y.Y.Y.Y.Y.Y.Y.Y.Y.Y.Y.Y.Y.Y.Y.Y.Y.Y.Y.Y.Y.Y.Y.Y.Y.Y.Y.Y.Y.Y.",
"Y.Y.Y.Y.Y.Y.Y.Y.Y.Y.Y.Y.Y.Y.Y.Y.Y.Y.Y.Y.Y.Y.Y.Y.Y.Y.Y.Y.Y.Y.Y.Y.Y.Y.Y.Y.Y.Y.Y.Y.Y.Y.Y.Y.Y.Y.Y.Y.Y.Y.Y.Y.Y.Y.Y.Y.Y.Y.Y.Y.Y.Y.Y.Y.",
"Y.Y.Y.Y.Y.Y.Y.Y.Y.Y.Y.Y.Y.Y.Y.Y.Y.Y.Y.Y.Y.Y.Y.Y.Y.Y.Y.Y.Y.Y.Y.T.Y.Y.Y.Y.Y.Y.Y.Y.Y.Y.Y.Y.Y.Y.Y.Y.Y.Y.Y.Y.Y.Y.Y.Y.Y.Y.Y.Y.Y.Y.Y.Y.",
"Y.Y.Y.Y.Y.Y.Y.Y.Y.Y.Y.Y.Y.Y.Y.Y.Y.Y.Y.Y.Y.Y.Y.Y.Y.Y.Y.Y.Y.Y.Y.T.Y.Y.Y.Y.Y.Y.Y.Y.Y.Y.Y.Y.Y.Y.Y.Y.Y.Y.Y.Y.Y.Y.Y.Y.Y.Y.Y.Y.Y.Y.Y.Y.",
"Y.Y.Y.Y.Y.Y.Y.Y.Y.Y.T.T.Y.Y.Y.Y.Y.Y.Y.Y.Y.E.l.z 2 B x x h w /.E.Y.Y.Y.U.Y.Y.Y.Y.U.Y.Y.Y.Y.Y.Y.Y.Y.Y.Y.Y.Y.Y.Y.Y.Y.Y.Y.Y.Y.Y.Y.Y.",
"Y.Y.Y.Y.Y.M.7 m 7 l.V b.m V n.n.' s c M M w & q l k.k.k.k.k.B F }.O.n.N.v.N p M W p s  .[ [ { n.V { m V j.7 7 8 H.Y.Y.Y.Y.Y.Y.Y.",
"Y.Y.Y.Y.x.3 $ ` ~ X.Q X...` :.) *.( / ) p.O q q l l k.B h B k.B w +.:.:.) ^ *.*.>.*._ ,.*.( +.+.*.` E ( u _ / T 6 x.Y.Y.Y.Y.Y.Y.",
"Y.Y.Y.Y.7 / E >.>.4.5.7.3.:.,.1.1.2.2.,.e * : k.k.k.k.k.k.h l k.h s.6.2.>.,.,.;.$.$.%.9.q.3.3.4.6.2.:.>./ *.*.( U ' M.Y.Y.Y.Y.Y.",
"Y.Y.Y.Y.7 i &.w.7.8.9.,.2.>.1.9.9.9.9.;.  : z k.h q q h k.k.: k.l  X9.q.9.<.:.;.;.2.;.,.%.%.%.1.2.;.;.<.0.3.` ) U m M.Y.Y.Y.Y.Y.",
"Y.Y.Y.Y.7 ~ ` 2.%.,.,.%.$.,.$.,.,.;.%.$.  q q q =     = k.k.q k.- i.,.,.%.%.,.$.,.8.,.%.%.1.,.%.1.,.,.,.w.2.*.` Q V Y.Y.Y.Y.Y.Y.",
"Y.Y.Y.Y.V u &.0.q.2.6.,.,.;.;.;.3.;.%.%.  q q q = O     q k.l q   y.3.>.,.%.%.;.;.,.%.1.9.0.4.,.,.;.>.,.;...^ ( U m U.Y.Y.Y.Y.Y.",
"Y.Y.Y.U.7 X.*.0.q.8.8.8.8.4.3.3.3.1.1.a.  & q q q &     q k.h = 9 D h.1.%.%.%.$.,.,.,.,.,.$.4.8.8.8.<.3.2.2.` _ ) m M.U.Y.Y.Y.Y.",
"Y.Y.Y.Y.] @.+.*.=.6.9.,.,.>.3.1.<.5.0       q q = : %X: & : q : f.t.f.h.1.1.%.$.<.6.<.;.,.%.%.1.<.,.;.1.1.7.6.+.@.m m.Y.Y.Y.Y.Y.",
"Y.Y.Y.Y.o.K.@...^ *.;.<.1.%.,.,.$.u.O q q o q q   K f.f.K D K [.g.4X&X>X%.%.%.%.,.1.$.>.;.,.$.%.*X;Xh.,.$.1.2.@.[ } C Y.Y.Y.Y.Y.",
"Y.Y.Y.Y.} ....) >.,.,.1.%.$.;.>.s.  : q q O q &   : K 1X&X1X<X1X4X&X<Xf.,.,.>.;.;.;.,.;.;.$.*XqXqXoX X>.;.2.;.@.] C.b Y.Y.Y.Y.Y.",
"Y.Y.Y.Y.v.X.+.+.,.7.4.q.6.,.,.,.'.& q q q = q o |.y     : K 5X5X5X5X5X&X>X,.;.>.,.1.1.9.1.,X$XOXOXz. X;.,.6.w.*...c 7 Y.Y.Y.Y.Y.",
"Y.Y.Y.Y.Z ) ` ;.<.1.1.,.<.$.%.1.i.. q q q q =   2Xf.f.f.5X5X5X5Xt [.5X2X%X;.>.,.;.,.<.,.h.qX$XoXOXz. X8.1.8.6._ ^ s 7 Y.Y.Y.Y.Y.",
"Y.Y.Y.Y.d ` >.4.<.,.,.<.<.;.,.<.d.  ; q q q o G <Xf.f.f.5X5X5X5X    5X5Xr.u.$.4.6.1.4.<.3XqXqX$X].|  X1.<.3.6.! U E 5 Y.Y.Y.Y.Y.",
"Y.Y.Y.Y.e +.=.-.2.<.:.:.,.,.%.%.%.f . q q +   L &Xf.f.&X5X5X5X5XL   |.4X  i.;.,.;.;.:.h.qXqXqX$X].H  X1.%.,.&.! ~ ( s Y.Y.Y.Y.Y.",
"Y.Y.Y.Y.d _ d ( 3.6.$.<.,.,.$.,.;.$.i.  +     ,Xf.f.f.<X5X5X5X5XL   t y   d.%.%.,.%.,.qXoX$X7XOXV.@ h.,.:.&.&./ s p 4 Y.Y.Y.Y.Y.",
"Y.Y.Y.Y.r U s ~ *.,.%.;.,.:.,.,.;.n e ,.a.G   <Xf.&X<X1X                0 0 d.1.$.$.;XOX].$XoX].k u.>.,.;.;.1.7.( Q 5 Y.Y.Y.Y.Y.",
"Y.Y.Y.Y., U ~ ( 3.3.8.6.6.,.1.a.  '.  d.1.i.L <Xf.f.<X5X,XK           - 5Xg u.,.,.h.qX].].$X].].e ,.,.8.1.6.3.-.~ M j Y.Y.Y.Y.Y.",
"Y.Y.Y.Y.1 m U ) 0.e.6.;.,.;.1.|   '.iX2 | t L f.f.f.f.f.&X1X5X%Xt.  - 4Xg.J | >.:.u.t ].OXOX]., p.;.;.8.9.9.7./ , c.A Y.Y.Y.Y.Y.",
"Y.Y.Y.Y.c ' ..) ;.3.<.%.,.;.$.G 4X0 F gXiX: 9 f J f.f.f.f.%Xf.&X5X  r.&Xf.f.| ;.d.  ].].v ].H . a.,.;.,.<.2.2./ W u , Y.Y.Y.Y.Y.",
"Y.Y.Y.Y.5 ( ^ ..,.7.8.8.9.6.;.G XX'.[.'.iXgXgX'.'.      y f.f.f.5X  L &Xf.f.G $.i.t ].H V.].- f 8.9.<.=.>.:.&.( _ u * Y.Y.Y.Y.Y.",
"Y.Y.Y.Y.6 ] ) ` 2.w.q.8.6.3.q.| XXk.z.XX5X6XdXgXgXgXgXgX: f.f.f.5X  L &Xf.9 t $.  z.].F ].F   9.8.0.4.6.*...X.U i < > Y.Y.Y.Y.Y.",
"Y.Y.Y.Y.V ] +.^ +.=.,.1.;.;.;.r.'.k.k.k.k.5X5X5X4XdXfXz.: &Xf.f.5Xt %X|.# * . e 1 '.e '.].* d.%.,.;.>.1._ +.....^ ~ , Y.Y.Y.Y.Y.",
"Y.Y.Y.Y.m m ] .. . .) ;.>.,.;.t k.k.k.k.XX5X5X5X5XdX7X;   : J f.2X5X6X- 2   *   F k - ].H e ,.%.1.1.6.<.,.;.*.*.X.C.N Y.Y.Y.Y.Y.",
"Y.Y.Y.Y.[ m ] +.*.*.,.6.<.,.;.t k.k.k.k.XX4X5X5X5X6X7X2 = &   O f f - ; k.  j 2   O - n - i.<.8.9.1.6.2.,.1.0.( Q Z N Y.Y.Y.Y.Y.",
"Y.Y.Y.Y.N M *.2.<.<.6.3.<.$.$.t 3XXXz.k.XX%X4X5X5X5XF.z ; k.k.2 = = ; k.&   . 2 h & & *   u.i.a.3.<.,.$.8.7.2.~ U p > Y.Y.Y.Y.Y.",
"Y.Y.Y.Y.s Q =.q.7.;.;.6.3.>.;.| 5X5X2X[.k.2Xf.&X5X5XXXk.O : h k.k.x x & = & & f   & q &   2 l   6.,.:.,.1.6.8.,.) U 1 Y.Y.Y.Y.Y.",
"Y.Y.Y.Y.E ~ _ 3.4.<.,.,.1.%.%.| 5X5X1Xf.&X].XX3X5X5XL k.O 2 2 q h : q q : & J : f.# O = = h k.  3.1.%.1.;.3.e.2.` ( a Y.Y.Y.Y.Y.",
"Y.Y.Y.Y.p p ) +.:.;.:.>.;.,.%.| &X5X4Xf.<Xk.k.k.x D = B = q q q : 2 : 2 :     D f.y | e . ; O u.=.;.$.%.%.8.e.2.( ( p Y.Y.Y.Y.Y.",
"Y.Y.Y.Y.W ( ( *.2.<.,.,.,.,.,.y.w 5X5X&X2Xk.k.k.k.G 2 2 * q q q q q : = . & =     i.%.1.a.i.a.,.,.,.,.,.;.=.3.=.+.d 5 Y.Y.Y.Y.Y.",
"Y.Y.Y.Y.u +.*.2.4.8.1.,.,.;.;.,.D |.5X<X,Xz.k.k.k.r.2 2 O & @ + & &       o q O i.%.9.9.q.3.1.<.,.,.>.,.,.,.3.0.*.Q r Y.Y.Y.Y.Y.",
"Y.Y.T.T.p U ~ *.2.<.6.<.,.,.8.8.8.e t.5X'.k.k.k.XXe 1 X # # # # = # % #   X 9 '.,.,.,.,.1.<.1.1.<.,.,.1.8.7.2.*...m b Y.Y.Y.Y.Y.",
"Y.Y.Y.Y.}  ...-.w.,.4.%.,.;.,.;.,.:.e .XG k.k.3Xw   # g Y I P Y T P P $   $ P $.$.1.%.%.1.1.,.%.<.,.,.,.<.*.*.+.O.o.v Y.Y.Y.Y.Y.",
"Y.Y.Y.Y.} ^ *.q.q.2.1.,.,.,.;.;.,.,.d.  * V.'.9   $ I P R Y P Y P Y P g g P P $.>.,.<.<.q.0.4.,.$.,.;.;.=.] ] ]  .' 5 Y.Y.Y.Y.Y.",
"Y.Y.Y.Y.N Q &.q.7.%.6.9.7.8.2.2.2.1.,.i.. |   # % I I P I R R R Y T % R P I %.$.,.,.$.,.%.%.%.8.8.9.4.-.=.*.&.+...Q r Y.Y.Y.Y.Y.",
"Y.Y.Y.Y.r ) *.=.4.1.8.6.3.2.7.w.7.8.8.8.h.i.d.3.Y i P P I R R Y Y R #.I #.8.%.$.,.2.3.>.;.,.%.9.6.4.3.7.<.7.7.:.~ p * Y.Y.Y.Y.Y.",
"Y.Y.Y.Y.> d ~ &.e.9.1.%.,.,.,.1.1.8.%.%.%.$.%.8.,.3.2.#.Y I P Y Y 2.,.6.%.%.%.%.1.1.1.,.,.%.%.%.1.1.,.,.6.8.;.*.+.s @ Y.Y.Y.Y.Y.",
"Y.Y.Y.Y.< i ~ _ 0.3.6.6.1.,.>.2.,.2.2.2.,.3.<.,.,.:.;.3.8.8.8.8.,.>.,.3.<.,.;.;.,.,.1.:.<.4.<.8.7.q.0.:.;.=.:._ T , & Y.Y.Y.Y.Y.",
"Y.Y.Y.Y., @ T *.) _ &._ &.) +.:.>.*.*._ *.*.0.6.,.` *.>.2.W ! +.( >.;.2.6.7.3.<.<.e.-._ 2.0.:.3.2.&.) i i T *.i @ m * Y.Y.Y.Y.Y.",
"Y.Y.Y.Y.* < E W u O.{ s _ U ( ~ X.W _ ~ ~ ( *.*.X.X.` :.+.Q p p U ~ U ' ! _ ( =.*.( / s ..+.X.:.+.Q < , 5 < d u 7 Z., Y.Y.Y.Y.Y.",
"Y.Y.Y.Y.* ~.C c S.(.@Xl.' c m [ m c M p p ~ W ' { +.{.K.C.Z Z.N.c m [ m 6 p W U ~ M ' c O...{ C.J.{ N.J.Q.n.m m b.N @ Y.Y.Y.Y.Y.",
"Y.Y.Y.Y.> C.~.).#X#X).!.Q.Q.} A J.^.).J.b.r 5 n.Q.Q.!.(.#X#X8Xb.> A./.(.A.J.A.S 1 A.(.~.@XQ.S.^.8X=X8X8X#X(.).@XD.3 . Y.Y.Y.Y.Y.",
"Y.Y.Y.Y.* r Z D.Q.Q.Q.).#X).v S #X#X).^.S.A 1 I.).~.I.).@X).~.b.4 S Q.Q.(._.).c.b S.I.~.^.~.I.* l.).).).Q.~.(.Q.j O 3 Y.Y.Y.Y.Y.",
"Y.Y.Y.Y.7 v C A.S.S.S.Q.D.C.4 r Z.J.S.S.S.c.v B.Q.Q.S.D.S.S.S.A.b A S.S.J.S.S.Z.N S.S.S.S.I.B.r c.S.S.S.S.S.A.A 4 @ x.Y.Y.Y.Y.Y.",
"Y.Y.Y.Y.(.@ 5 S Z.S.S.S.S.S.j , l.S.S.S.S.c.4 A.J.Q.S.S.S.S.S.b.* b A.I.Q.S.S.b.r A.S.S.S.S.A 1 c.A.S.S.Q.Q.~.B.r j R.Y.Y.Y.Y.Y.",
"Y.Y.Y.Y.=X& C A.A.A.Q.Q.S.b.c - Z.S.S.S.Z.v * Z.J.N.Q.S.Z.Z.b.A c w /.).^.Q.Q.Z.4 N.S.S.S.S.A > c.N.A.S.Q.)./.c.4 Z W.Y.Y.Y.Y.Y.",
"Y.Y.Y.Y.-X> c.@X8X@X/.D.S.S.c.1 b.S.Q.~./.D.4 A S.S.S.S.Z.S.S.S.c.- N.S.S.S.S.A.j Z.S.S.S.S.A b Q.S.S.S.S.J.Z.n , G.R.Y.Y.Y.Y.Y.",
"Y.Y.Y.Y.0X4 n c.Q.I.S.S.S.S.Z.c S N.Q.^./.D.w B.Z.S.Q.S.S.S.S.S.v.1 b.S.S.S.S.S.C Q.S.S.S.S.A c.S.S.S.S.S.S.c.v * G.T.Y.Y.Y.Y.Y.",
"Y.Y.Y.Y.0X4 b Z S.S.S.S.S.S.A.N c.S.S.S.J.b.w /.@X).(.D.S.Q.S.S.l.4 b.Q.S.S.S.S.l.S.S.S.S.S.c.b.Q.S.S.S.S.Z.C c > =XY.Y.Y.Y.Y.Y.",
"Y.Y.Y.Y.8XB.r n b.S.S.S.S.S.Z.n b.S.Q.S.J.b.4 c./.Q.S.Q.S.S.S.b.A r c.S.S.Q.~.Z.C N.S.S.S.S.A A N.S.Q.S.S.b.N 1 H eXT.Y.Y.Y.Y.Y.",
"Y.Y.Y.Y.W.rXB.4 b b.Z.S.Z.C.C c b.S.S.S.N.C n M Z.S.S.S.Z.Z.Z.Z.b.j A S.S.S.S.c.C Z.Q.S.Z.b.b b b.D.D.S.Z.c.v V.uX0XY.Y.Y.Y.Y.Y.",
"Y.Y.Y.Y.Y.`.yX+XB.B.c.Z.I.~.}.G.C c.b.Z.Z.S G.n n A b.b.C A C N o.}.B.N.} S A n G.Z c.c.S Z B.}.l.S Z Z b.B.}.aXuX`.Y.Y.Y.Y.Y.Y.",
"Y.Y.Y.Y.Y.E.0XrXtXwX-X9XtXpXaXsX+XB.F.K.+X:XuX-X}.V.S } Z B.].-XtXsX-XF.B.B.].-XuXwXoXF.F.+XtXrXrXwX$X+X+X9XaXaX8XY.Y.Y.Y.Y.Y.Y.",
"Y.Y.Y.Y.Y.Y.Y.P.!.^.@XyXwXeXuXuXuXuXuXpXsXuX_.8XrXrXrXtXtXtX0X0XyXaXuXuXaXaXaXsX@X).0XrXuXsXaXuXrX9X0XeXeX(._.W.Y.Y.Y.Y.Y.Y.Y.Y.",
"Y.Y.Y.Y.Y.Y.Y.Y.Y.L.M.P.I.M.!._.0XuXyXyX0X(.U.U.R.!.=X).~.P.M.m.R.`.0XuXuXuXeX`.L.M.M.R._.=X_.W.T.L.L.L.P.T.Y.Y.Y.Y.Y.Y.Y.Y.Y.Y.",
"Y.Y.Y.Y.Y.Y.Y.Y.Y.Y.L.M.M.M.T.Y.N.m.N.m.8 V 7 V x.M.U.M.M.m.m.M.L.M.R.E.E.N.j.j.m 8 m.x.M.Y.U.Y.U.M.M.Y.Y.Y.Y.Y.Y.Y.Y.Y.Y.Y.Y.Y.",
"Y.Y.Y.Y.Y.Y.Y.Y.Y.Y.Y.Y.Y.Y.Y.Y.Y.Y.Y.Y.Y.Y.Y.Y.Y.Y.Y.Y.Y.Y.Y.Y.Y.Y.Y.Y.Y.Y.Y.Y.Y.Y.Y.Y.Y.Y.Y.Y.Y.Y.Y.Y.Y.Y.Y.Y.Y.Y.Y.Y.Y.Y.Y.Y.",
"Y.Y.Y.Y.Y.Y.Y.Y.Y.Y.Y.Y.Y.Y.Y.Y.Y.Y.Y.Y.Y.Y.Y.Y.Y.Y.Y.Y.Y.Y.Y.Y.Y.Y.Y.Y.Y.Y.Y.Y.Y.Y.Y.Y.Y.Y.Y.Y.Y.Y.Y.Y.Y.Y.Y.Y.Y.Y.Y.Y.Y.Y.Y.Y.",
"Y.Y.Y.Y.Y.Y.Y.Y.Y.Y.Y.Y.Y.Y.Y.Y.Y.Y.Y.Y.Y.Y.Y.Y.Y.Y.Y.Y.Y.Y.Y.Y.Y.Y.Y.Y.Y.Y.Y.Y.Y.Y.Y.Y.Y.Y.Y.Y.Y.Y.Y.Y.Y.Y.Y.Y.Y.Y.Y.Y.Y.Y.Y.Y.",
"Y.Y.Y.Y.Y.Y.Y.Y.Y.Y.Y.Y.Y.Y.Y.Y.Y.Y.Y.Y.Y.Y.Y.Y.Y.Y.Y.Y.Y.Y.Y.Y.Y.Y.Y.Y.Y.Y.Y.Y.Y.Y.Y.Y.Y.Y.Y.Y.Y.Y.Y.Y.Y.Y.Y.Y.Y.Y.Y.Y.Y.Y.Y.Y."
};
