/* XPM */
static char *out[] = {
/* columns rows colors chars-per-pixel */
"64 64 226 2 ",
"   c #161C2E",
".  c #1C2335",
"X  c #222C2F",
"o  c #212637",
"O  c #292B36",
"+  c #24293B",
"@  c #28343A",
"#  c #353739",
"$  c #3C4C35",
"%  c #434F34",
"&  c #5E723B",
"*  c #2C2E41",
"=  c #283243",
"-  c #2C3A48",
";  c #363C45",
":  c #36364A",
">  c #3A3B4D",
",  c #3B3C50",
"<  c #423F40",
"1  c #2D414B",
"2  c #35474A",
"3  c #3D5548",
"4  c #394854",
"5  c #2C545B",
"6  c #3E5157",
"7  c #3C585A",
"8  c #3B635C",
"9  c #3B5D63",
"0  c #396968",
"q  c #387277",
"w  c #4A4C4C",
"e  c #4B5044",
"r  c #434055",
"t  c #454959",
"y  c #455857",
"u  c #5D5C56",
"i  c #4C674A",
"p  c #56744D",
"a  c #47675A",
"s  c #586C5A",
"d  c #55765B",
"f  c #587B5B",
"g  c #6A784D",
"h  c #686858",
"j  c #494E63",
"k  c #465765",
"l  c #525962",
"z  c #50576D",
"x  c #535C72",
"c  c #456765",
"v  c #4B6465",
"b  c #4C6B6C",
"n  c #546C6C",
"m  c #48776A",
"M  c #537667",
"N  c #4E6C70",
"B  c #566579",
"V  c #467876",
"C  c #547574",
"Z  c #587A76",
"A  c #567B7B",
"S  c #5A7D7D",
"D  c #656C72",
"F  c #707571",
"G  c #8C795E",
"H  c #827E6C",
"J  c #6E853F",
"K  c #70853F",
"L  c #5C835B",
"P  c #6B8243",
"I  c #63814A",
"U  c #748343",
"Y  c #788744",
"T  c #678A57",
"R  c #61865C",
"E  c #648A5B",
"W  c #778F5A",
"Q  c #6C935C",
"!  c #6D985C",
"~  c #769859",
"^  c #739C5C",
"/  c #77A25D",
"(  c #7BA45D",
")  c #7EA95D",
"_  c #598666",
"`  c #5D9264",
"'  c #4B8379",
"]  c #568C75",
"[  c #59857A",
"{  c #748168",
"}  c #669764",
"|  c #6B9C62",
" . c #709F63",
".. c #628674",
"X. c #659875",
"o. c #76A465",
"O. c #73A572",
"+. c #85984C",
"@. c #98B74F",
"#. c #9BB94E",
"$. c #86A45A",
"%. c #83AC5D",
"&. c #8BAE5C",
"*. c #92AC5B",
"=. c #8EB256",
"-. c #87B05A",
";. c #8BB159",
":. c #94B553",
">. c #9BB654",
",. c #9CB850",
"<. c #94B25A",
"1. c #9BB359",
"2. c #A3AF5B",
"3. c #A2B655",
"4. c #A9B757",
"5. c #A4B852",
"6. c #AAB954",
"7. c #A3B559",
"8. c #AAB659",
"9. c #A7B859",
"0. c #B1B857",
"q. c #998667",
"w. c #8A9371",
"e. c #A9906A",
"r. c #86A86A",
"t. c #97AE63",
"y. c #9CB86A",
"u. c #93A273",
"i. c #9BA779",
"p. c #9BB575",
"a. c #A5BC69",
"s. c #A4B774",
"d. c #C8A876",
"f. c #CEB17E",
"g. c #B0C575",
"h. c #3D7D80",
"j. c #5E6F86",
"k. c #587C80",
"l. c #3E888B",
"z. c #5B8484",
"x. c #578985",
"c. c #5E8B8B",
"v. c #5A928B",
"b. c #488990",
"n. c #469398",
"m. c #459C9D",
"M. c #599896",
"N. c #688B88",
"B. c #778388",
"V. c #65958C",
"C. c #629494",
"Z. c #679896",
"A. c #669C9C",
"S. c #6A9D9D",
"D. c #719190",
"F. c #789B96",
"G. c #6BA29C",
"H. c #78A597",
"J. c #489BA2",
"K. c #5A9BA5",
"L. c #6D9EA2",
"P. c #45A4A4",
"I. c #47ABA9",
"U. c #4BAAA9",
"Y. c #56A8A9",
"T. c #5BB4B0",
"R. c #6BA2A2",
"E. c #68A8AC",
"W. c #71A5A4",
"Q. c #73AAAB",
"!. c #76ABAB",
"~. c #77B0AE",
"^. c #6BB4B3",
"/. c #7DB4B4",
"(. c #78B9B7",
"). c #7BC5BC",
"_. c #838A8C",
"`. c #8D9694",
"'. c #8D9497",
"]. c #A69F81",
"[. c #81B286",
"{. c #83A59B",
"}. c #B9AE89",
"|. c #A6A898",
" X c #B8B497",
".X c #98A1A1",
"XX c #91B5A9",
"oX c #82B7B7",
"OX c #86BDBC",
"+X c #A2ABAC",
"@X c #AAB3B4",
"#X c #B0B7BA",
"$X c #C4BB87",
"%X c #D1B683",
"&X c #D5BB87",
"*X c #B9C893",
"=X c #87C3BC",
"-X c #9AC4B7",
";X c #BFCBAE",
":X c #A6CCBC",
">X c #C7C187",
",X c #CAC096",
"<X c #DBC490",
"1X c #E2CE99",
"2X c #E5D29D",
"3X c #CDC7A5",
"4X c #EADAA5",
"5X c #EFE1AB",
"6X c #8BC6C3",
"7X c #9CCCC4",
"8X c #99D4C7",
"9X c #B8C1C3",
"0X c #ACD7C9",
"qX c #A8D8CB",
"wX c #B4DECC",
"eX c #B8E1CE",
"rX c #B9E6D4",
"tX c #BBE9D6",
"yX c #CFD2D6",
"uX c #C1EBD6",
"iX c #C2EDD9",
"pX c #C7F1DC",
"aX c #F4EBC7",
"sX c #D6DBE0",
"dX c #FAF6E7",
"fX c white",
/* pixels */
"I.I.I.I.I.I.I.I.I.I.I.I.I.I.I.I.I.I.I.I.I.I.I.I.I.I.I.I.I.I.I.I.I.I.I.I.I.I.I.I.I.I.I.I.I.I.I.I.I.I.I.I.I.I.I.I.I.I.I.I.I.I.I.I.",
"I.I.I.I.I.I.I.I.I.I.I.I.I.I.I.I.I.I.I.I.I.I.I.I.I.I.I.I.I.I.I.I.I.I.I.I.I.I.I.I.I.I.I.I.I.I.I.I.I.I.I.I.I.I.I.I.I.I.I.I.I.I.I.I.",
"I.I.I.I.I.I.I.I.I.I.I.I.I.I.I.I.I.I.I.I.I.I.I.I.I.U.I.I.U.U.I.U.I.I.I.I.I.I.I.I.I.I.I.I.I.I.I.I.I.I.I.I.I.I.I.I.I.I.I.I.I.I.I.I.",
"I.I.I.I.I.I.I.I.I.I.I.I.I.I.I.I.I.I.I.I.I.I.I.T.N , j D.D.^.I.U.I.I.I.I.I.I.I.I.I.I.I.I.I.I.I.I.I.I.I.I.I.I.I.I.I.I.I.I.I.I.I.I.",
"I.I.I.I.I.I.I.I.I.I.I.I.I.I.I.I.I.I.I.I.I.I.^.  , z z j.j.j , ^.I.I.I.I.I.I.I.I.I.I.I.I.I.I.I.I.I.I.I.I.I.I.I.I.I.I.I.I.I.I.I.I.",
"I.I.I.I.I.n.0 m q q k.z.m V v.v._ d 0 M d E   * < z x j.j.j.j.r H.X.v.v.x.N c M R a d ` ' ' ] v.x._ m V q 0 0 q U.I.I.I.I.I.I.I.",
"I.I.I.I.l.5 % ) Q / Q  .Q ) -./ ) / ! / -.p.. r x j.j.j.x j j.j.j p.&.-.o.! o.-.=.%./ <.%.! ) o.( ) T ^ i ) ^ I 8 n.I.I.I.I.I.I.",
"I.I.I.I.0 ! Q =.<.7.2.8.1.-.:.#.5.<.<.:.@.u.* r j.j.j.j.j.j.< j.B ].#.1.&.<.:.=.@.@.#.6.6.1.1.1.1.:.-.&.~ -.%.^ T m n.I.I.I.I.I.",
"I.I.I.I.0 p $.6.5.5.5.:.<.=.5.6.6.6.9.=.-.{ * r r r j j.j.j.j.j j.r 6.6.6.>.-.;.=.<.;.>.#.#.#.,.:.=.=.1.9.1.o./ L m n.I.I.I.I.I.",
"I.I.I.I.0 ! ) 1.#.:.:.@.:.:.@.:.:.:.#.@.:.w r r < + + : j j.j.j j.- :.=.@.#.:.@.@.5.@.@.#.,.>.#.@.@.:.:.9.1.-.) E V I.I.I.I.I.I.",
"I.I.I.I.V i $.1.8.<.3.,.:.=.=.=.1.=.<.u.  . r r r :     * j.j.j z   1.;.:.#.#.:.;.:.@.,.6.1.1.:.@.=.=.:.=.| ! ^ L c P.I.I.I.I.I.",
"I.I.I.I.0 | %.7.8.5.5.3.3.3.1.<.1.1.h   =   : r r r *   + z j.j =   s.>.#.#.#.@.:.:.>.=.>.@.,.3.5.a.1.1.1.&.) ( / m m.I.I.I.I.I.",
"I.I.I.I._ O.r.%.&.3.5.:.:.;.1.,.>.a.  , r : . r r * * G * < z < # e.h >X5.5.#.@.>.3.,.=.:.#.g.3X9Xy.&.5.>.6.9.o.O.m ' I.I.I.I.I.",
"I.I.I.I.[ [.O.} | %.:.@.#.#.:.:.@.s.* < r r   r :   d.%Xe.< r D d.d.2X&X>X#.#.@.:.,.@.-.=.:.9X.X.Xy.@.:.@.>.<.O.' x.A I.I.I.I.I.",
"I.I.I.I.[ | } o.-.:.:.5.,.@.=.;.*.p.* r r +   r :   e.<X%Xd.d.d.%X2X2Xd.>X:.-.=.=.=.@.-.=.*X9X`.+Xt.@.;.=.=.=.O.` V.b I.I.I.I.I.",
"I.I.I.I.x.| o.) <.6.1.8.3.:.:.:.>.e.  r r : r < : H <   u H ].5X5X5X1X4Xd.g.=.;.:.@.5.6.g.:X9X@X@Xt.:.=.@.3.9.%.| c 0 I.I.I.I.I.",
"I.I.I.I.C / %.=.,.5.,.:.,.:.@.5.5.5.u.= r r r : u <Xd.d.&X5X5X5X5XH }.5X<X$X-.:.=.:.>.<.3X9X9X9X`.t.#.#.#.5.3.) ! d 0 I.I.I.I.I.",
"I.I.I.I.f ) <.>.1.:.:.1.,.=.:.,.:.#.s.  : r : o H d.d.d.&X5X5X5X5X  w 5X2Xd.a.1.3.,.>.g.9X'.#X:X`.t.:.:.,.1.7.W L T 7 I.I.I.I.I.",
"I.I.I.I.a o.&.$.:.:.-.&.:.:.@.@.#.#.@.s         ].d.d.d.&X5X5X5X5Xw   5X5X< u.=.=.=.-.*X+X'.@X.X`.( :.#.>.:.$.W Q / d I.I.I.I.I.",
"I.I.I.I.p $.f ^ 1.5.:.:.:.:.@.:.:.w.u.@.g.w.y   ].d.d.d.1X5X5X5X5XH   ].H   9.#.:.>.a.#X.X'.@X`.B.Y :.@.*.%.+.~ d a 6 I.I.I.I.I.",
"I.I.I.I.y L d Q %.:.#.:.:.=.:.:.D D   h #.#.r.  &X%Xd.d.$XH H F H w           a.@.#.s.+X`.+X.X`.y $.-.:.=.-.>.4.~ E 7 I.I.I.I.I.",
"I.I.I.I.4 f ! ^ 1.1.5.5.3.=.1.u.  '.9Xz h a.u.e %Xd.%X5X$Xw .             }.w.p.@.@.{ `.`.#X.X`.  7.=.5.5.5.1.*.Q M 9 I.I.I.I.I.",
"I.I.I.I.5 m M ) 7.0.5.=.:.=.1.u.H H < 9XsXj.  u e.d.d.d.&X2X5X].u u   w ,X<Xh { =.s.O `.`._.`.4 y <.:.5.5.6.8.~ 4 z.C I.I.I.I.I.",
"I.I.I.I.c _ ! ) =.1.1.@.:.=.:.:.w '.3XH w.sXfXfX'.        d.d.<X5X5X  ].f.d.d.{ =.u.l `.F .Xj.  a.:.=.:.1.1.<.~ L i 2 I.I.I.I.I.",
"I.I.I.I.7 / ! | <.8.5.5.5.5.=.&.  `.j._.|.5X5XdXfXfXfXfXD d.d.d.d.5X  ].d.d.d.y @.  B.`.D `.l h 5.5.:.=.<.-.%.^ ( i - I.I.I.I.I.",
"I.I.I.I.8 ` / ) <.6.6.6.3.1.8.8.  '.j.j.j.'.5X5X5XaXdXyX: d.d.d.d.5X. ].d.d.h   F 4 _.w F `.w a.3.7.3.9.%.| ^ L p e 1 I.I.I.I.I.",
"I.I.I.I.m ` /  .o.&.:.>.=.=.1.,.  `.j.j.j.`.5X4X5X5X5XsX, q.d.d.d.5X  $Xd.<   + . t l + D D { #.,.;.;.1.( | | | ! Q 2 I.I.I.I.I.",
"I.I.I.I.m q ` | } } / =.=.:.:.=.  `.j.j.j.'.2X4X5X5X5XdXz < G d.d.5X5X5X< = , : 4 =   : n 2 s.5.#.,.3.,.:.=.%.) O.v.b I.I.I.I.I.",
"I.I.I.I.A m ` o.) %.=.5.,.:.=.=.  2X+XB.j.`.d.1X5X5X5X;Xj * . : h G H u 4 j..   : t < * + + 2 - w 9.3.<.,.1.7.~ E Z N I.I.I.I.I.",
"I.I.I.I.b f %.<.1.>.5.1.,.:.:.#.i.].5X5X$Xj.2X%X%X5X5X3Xj.  j.4 :   . j 4   : * h   . : < . : j.6 t.:.:.5.6.<.Q L a 1 I.I.I.I.I.",
"I.I.I.I.d L &.8.6.=.:.9.1.;.=.5.u.e.5X5Xd.&X|._. X5X5X5X6   r r z z j r r r < t < q.h   + : , j.= 1.=.:.,.1.3.:.( R 3 I.I.I.I.I.",
"I.I.I.I.T Q ( 1.1.#.=.:.5.,.@.:.:.w 5X5X2Xd.|.j.j.j.B h j   r r r < r r r < :     e.G y u.t + + u.#.>.#.:.1.0.<.( ^ a I.I.I.I.I.",
"I.I.I.I.a a ^ o.-.=.-.=.=.:.#.#.#.u. X5X5X&X|.j.j.j.j.H j   < < r r r r r :   > o   y :.1.<.*.%.=.=.@.#.#.5.0.<./ ^ a I.I.I.I.I.",
"I.I.I.I.R ^ ^ %.:.1.:.:.:.=.@.=.=.y.w 5X5X2XB.j.j.j._.H j   j 4 r r r O o     > 4 . a.#.6.5.>.@.@.=.:.:.=.&.<.*./ d 7 I.I.I.I.I.",
"I.I.I.I.a %.&.=.1.3.#.:.@.=.:.=.:.&.y.h $X5Xj.j.j.B.|.- -             # X   # % { u.5.6.4.1.#.:.@.:.=.=.:.:.<.1.%.E c I.I.I.I.I.",
"I.I.U.U.a f Q %.:.1.5.:.1.=.#.5.5.1.3.p.  3X4 j.j.}.    e g P P g G K K $ . % U :.>.:.@.#.@.#.5.:.:.:.5.6.8.<.%.} M b I.I.I.I.I.",
"I.I.I.I.[ | | &.8.1.,.#.:.=.:.=.:.&.:.#.a.; = j.|.w   @ g K J J P J J p P J J J @.,.,.,.5.,.>.>.@.:.:.:.1.&.%.) O...c I.I.I.I.I.",
"I.I.I.I.x.^ %.8.8.<.,.:.@.=.=.=.:.:.#.#.@.p.  F H   # P U J J J p P J J P J K =.-.:.@.1.6.1.>.:.@.:.=.=.&.` ` ` ` M 7 I.I.I.I.I.",
"I.I.I.I.b L &.8.3.#.,.6.6.9.<.<.1.>.#.#.#.,.y.{ h & J J U Y Y Y K P g K J +.1.#.:.:.@.@.#.@.#.5.5.6.3.<.&.%.$.o.^ _ 7 I.I.I.I.I.",
"I.I.I.I.y  .%.<.1.5.5.3.7.<.7.8.9.5.5.5.#.:.<.1.=.&.&.:.+.U U P U Y a.8.#.5.#.:.:.1.<.-.;.@.#.6.3.1.<.8.:.6.7.&.^ a - I.I.I.I.I.",
"I.I.I.I.1 f Q $.0.0.#.@.:.:.:.>.#.5.#.#.#.@.#.5.:.:.@.,.,.#.:.@.:.>.@.#.#.#.#.,.@.5.,.:.@.@.#.#.,.>.:.=.1.5.=.) ^ d . I.I.I.I.I.",
"I.I.I.I.3 p Q ( 7.1.5.,.5.:.=.*.<.:.<.<.:.1.1.:.>.-.;.>.5.>.5.5.:.&.:.1.,.:.=.:.:.:.:.&.<.9.>.5.6.6.3.-.=.&.=.( I 2 = I.I.I.I.I.",
"I.I.I.I.4 @ I %.~ %.) ( ) / %.&.&.) %.%.) &.3.5.>.) %.=.;.T W ) ^ =.=.<.3.7.<.:.1.8.*.) <.1.-.1.1.) / & I L o.I @ m - I.I.I.I.I.",
"I.I.I.I.= 3 T I a X._ d ) f | Q ^ R ) E ! ^ ) &. . .) ) o.E a c L Q _ L W $.^ &.%.~ ^ d | )  .%.o.E 8 2 3 2 p i 0 C.2 I.I.I.I.I.",
"I.I.I.I.1 L.C c A././.z._ c m ' m c _ c 8 Q R _ _ O.[.H.V.Z C.M.0 m m m 0 a R L Q M _ a X.} ] V.G.] A.G.R.v.m m c.V - I.I.I.I.I.",
"I.I.I.I.1 D.!.~.OXOX/.E.L.R.' [ G.W./.G.v.y 7 V.G.W.W.~.OXOX6Xc.1 Z.~.~.Z.S.Z.A 4 Z./.R.oXR.A.Q.6XOX6X6XOXQ./.OXS.4 . I.I.I.I.I.",
"I.I.I.I.- y Z A.R.R.R./.=XoXk S OXOX/.Q.S.C 4 L.OXE.L./.oX/.Q.c.y A R.R.~.(.~.N.v A.R.W.Q.Q.S.- k.~././.R.Q.~.R.v o 5 I.I.I.I.I.",
"I.I.I.I.0 v Z C.A.A.A.A.R.N.7 y C.S.A.A.A.z.v c.S.S.A.A.A.A.A.C.b Z A.A.G.A.A.C.C A.A.A.A.R.N.y z.A.A.A.A.A.C.A 6 @ l.I.I.I.I.I.",
"I.I.I.I.(.O 7 k.C.A.A.A.A.C.k 2 z.A.A.A.A.z.y A.A.A.A.A.A.A.A.c.- b S.W.R.G.A.c.y M.A.A.A.A.C 4 z.C.A.A.R.W.W.N.y 9 U.U.U.I.I.I.",
"I.I.I.I.OX@ C D.S.Z.S.G.A.C.v 1 C.A.A.A.v.v - c.A.A.A.A.C.C.c.A k t !.~.Q.R.A.C.6 C.R.A.A.A.A 1 z.C.A.A.R./.!.z.4 Z T.I.I.I.I.I.",
"I.I.I.I.=X2 z./.OXoX!.S.A.A.z.4 z.A.S.E./.L.4 S A.A.A.A.C.A.A.A.x.1 M.S.A.A.A.Z.k C.A.A.A.A.A b A.A.A.A.A.A.C.n 4 D.T.I.I.I.I.I.",
"I.I.I.I.8Xy b z.E.L.A.S.A.A.C.c A A.R.Q.!.Z.y N.c.R.R.A.A.A.A.A.z.4 c.A.A.A.A.A.C R.A.A.A.A.k.z.R.A.A.A.G.A.z.v - F.U.U.I.I.I.I.",
"I.I.I.I.8X6 b [ A.A.A.A.A.A.Z.C z.A.A.A.A.c.6 !.oXoX~.S.A.A.A.A.[ 6 c.A.A.A.A.A.z.A.A.A.A.A.z.c.A.A.A.A.A.C.n v 1 =XI.I.I.I.I.I.",
"I.I.I.I.6XN.y b c.A.A.A.A.A.C.b z.A.A.R.G.c.6 N.!.E.S.A.A.A.C.C.A y c.A.A.R.R.C.C M.A.A.A.A.A A M.A.A.A.A.c.C 4 S qXU.I.I.I.I.I.",
"I.I.I.I.^.qXN.6 b c.C.A.Z.C.Z v C.A.A.A.C.C v n C.A.A.A.A.C.C.C.c.v A A.A.A.S.z.C C.A.A.C.c.b b N.A.A.A.C.k.v N.uXqXI.I.I.I.I.I.",
"I.I.I.I.I.).tXXXN.N.z.Z.S.H.F.F.C z.z.C.C.[ F.n n A c.c.C C C C [ `.C.v.z.S Z n F.A z.z.S C D.H.N.A A A c.D.{.iXtX).I.I.I.I.I.I.",
"I.I.I.I.I.T.8XwXeX0X-X7XeXuXpXiX{.N.D.H.XX:XuX:X.X..S S Z N.F.-XeXpX-XD.N.N.{.XXtX0X{.D.D.XXeXwXeX:X@XXXXX7XiXiX6XU.I.I.I.I.I.I.",
"I.I.I.I.I.I.I.Y.E.Q.oXrX0XqXuXtXtXiXiXiXpXtX(.=XeXwXwXwXwXwXqX:XrXiXtXtXiXiXpXpXOX/.qXwXuXpXiXtXwX7X8XqX7X~.(.T.U.I.I.I.I.I.I.I.",
"I.I.I.I.I.I.I.I.I.m.n.K.E.n.E.(.8XtXtXrX8X^.P.P.Y.E.OXoXW.K.n.n.K.).8XtXrXrXqX=XJ.n.n.Y./.=X(.T.U.J.J.J.Y.Y.I.I.I.I.I.I.I.I.I.I.",
"I.I.I.I.I.I.I.I.I.I.P.n.n.J.P.I.M.b.M.b.q V 0 V l.m.P.P.n.b.b.m.J.m.Y.T.Y.M.l.h.V 0 b.l.m.P.P.I.I.m.m.P.I.I.I.I.I.I.I.I.I.I.I.I.",
"I.I.I.I.I.I.I.I.I.I.I.I.U.I.I.I.I.I.I.I.I.I.I.I.I.I.I.I.I.I.I.I.I.I.I.I.I.I.I.I.I.I.I.I.I.I.I.I.I.I.I.I.I.I.I.I.I.I.I.I.I.I.I.I.",
"I.I.I.I.I.I.I.I.I.I.I.I.P.P.I.I.I.I.I.I.I.I.I.I.I.I.I.I.I.I.I.I.I.I.I.I.I.I.I.I.I.I.I.I.I.I.I.I.I.I.I.I.I.I.I.I.I.I.I.I.I.I.I.I.",
"I.I.I.I.I.I.I.I.I.I.I.I.I.I.I.I.I.I.I.I.I.I.I.I.I.I.I.I.I.I.I.I.I.I.I.I.I.I.I.I.I.I.I.I.I.I.I.I.I.I.I.I.I.I.I.I.I.I.I.I.I.I.I.I.",
"I.I.I.I.I.I.I.I.I.I.I.I.I.I.I.I.I.I.I.I.I.I.I.I.I.I.I.I.I.I.I.I.I.I.I.I.I.I.I.I.I.I.I.I.I.I.I.I.I.I.I.I.I.I.I.I.I.I.I.I.I.I.I.I."
};
