/* XPM */
static char *out[] = {
/* columns rows colors chars-per-pixel */
"64 64 217 2 ",
"   c #161C2E",
".  c #1D2234",
"X  c #1A2838",
"o  c #212537",
"O  c #25293B",
"+  c #2A2C3B",
"@  c #28343C",
"#  c #343738",
"$  c #3B4C37",
"%  c #4D5B38",
"&  c #56673A",
"*  c #2C2E41",
"=  c #2A3846",
"-  c #36364A",
";  c #383C48",
":  c #423F40",
">  c #2D414B",
",  c #34474B",
"<  c #3D5548",
"1  c #374B53",
"2  c #3A455A",
"3  c #2C545B",
"4  c #3E5157",
"5  c #3D585B",
"6  c #3B635C",
"7  c #3B5D63",
"8  c #396968",
"9  c #387277",
"0  c #4C4D4D",
"q  c #434055",
"w  c #47485B",
"e  c #465757",
"r  c #5A5452",
"t  c #5E5D57",
"y  c #4C674A",
"u  c #55724E",
"i  c #47675A",
"p  c #57795B",
"a  c #6A6657",
"s  c #6E7651",
"d  c #454C62",
"f  c #4A4D63",
"g  c #465865",
"h  c #525862",
"j  c #50576D",
"k  c #4C5A70",
"l  c #535B71",
"z  c #456665",
"x  c #4B6465",
"c  c #4C6B6C",
"v  c #56686A",
"b  c #48776A",
"n  c #537667",
"m  c #4E6D72",
"M  c #576679",
"N  c #467876",
"B  c #547574",
"V  c #587A76",
"C  c #567B7B",
"Z  c #5A7D7D",
"A  c #646A74",
"S  c #6E7772",
"D  c #8C795E",
"F  c #857465",
"G  c #827E6C",
"H  c #6E853F",
"J  c #72853F",
"K  c #5C835B",
"L  c #6B8242",
"P  c #638149",
"I  c #768442",
"U  c #658859",
"Y  c #648A5B",
"T  c #778F5A",
"R  c #6D945C",
"E  c #6D985C",
"W  c #769859",
"Q  c #739C5C",
"!  c #77A25D",
"~  c #7BA45D",
"^  c #7EA95D",
"/  c #598666",
"(  c #5D9264",
")  c #4B8379",
"_  c #568C75",
"`  c #59857A",
"'  c #748169",
"]  c #788268",
"[  c #669764",
"{  c #6B9C62",
"}  c #739B63",
"|  c #6C8974",
" . c #659875",
".. c #76A465",
"X. c #73A572",
"o. c #859B58",
"O. c #9BB94E",
"+. c #87A55B",
"@. c #83AC5D",
"#. c #8BAE5C",
"$. c #92AC5B",
"%. c #8EB256",
"&. c #87B059",
"*. c #8BB159",
"=. c #94B553",
"-. c #9BB654",
";. c #9CB850",
":. c #94B25A",
">. c #9BB359",
",. c #A2B655",
"<. c #A9B757",
"1. c #A4B952",
"2. c #AAB954",
"3. c #A3B559",
"4. c #AAB759",
"5. c #ACB858",
"6. c #B1B958",
"7. c #9A8869",
"8. c #899A74",
"9. c #A89270",
"0. c #85AD62",
"q. c #95B469",
"w. c #8DA175",
"e. c #93A374",
"r. c #9BB574",
"t. c #A4BC6A",
"y. c #A8AF76",
"u. c #C8A876",
"i. c #ACC374",
"p. c #3D7D80",
"a. c #5E6F86",
"s. c #587C80",
"d. c #677E8A",
"f. c #3E888B",
"g. c #5B8484",
"h. c #578985",
"j. c #5E8B8B",
"k. c #5A928B",
"l. c #488990",
"z. c #45979A",
"x. c #599896",
"c. c #688A88",
"v. c #798587",
"b. c #65978A",
"n. c #74908D",
"m. c #629494",
"M. c #679896",
"N. c #669C9C",
"B. c #6A9D9D",
"V. c #789B96",
"C. c #44A09F",
"Z. c #6BA397",
"A. c #6BA29D",
"S. c #78A597",
"D. c #489BA2",
"F. c #5A9BA5",
"G. c #6C9EA2",
"H. c #45A4A4",
"J. c #47ABA9",
"K. c #4AAAA9",
"L. c #56A8A9",
"P. c #5AB4B0",
"I. c #6BA2A2",
"U. c #68A8AC",
"Y. c #71A5A4",
"T. c #73AAAB",
"R. c #76ABAB",
"E. c #72B2B0",
"W. c #7DB4B4",
"Q. c #78B9B7",
"!. c #7BC5BC",
"~. c #8A9092",
"^. c #8C9695",
"/. c #A69F81",
"(. c #81B286",
"). c #84A59B",
"_. c #A6A898",
"`. c #B8B191",
"'. c #9AA4A4",
"]. c #91B5A9",
"[. c #82B7B7",
"{. c #86BDBC",
"}. c #A7AFB1",
"|. c #D3B985",
" X c #C1B694",
".X c #B9C68E",
"XX c #87C3BC",
"oX c #9AC4B7",
"OX c #A6CCBC",
"+X c #BBC9B2",
"@X c #CEC18E",
"#X c #DBC490",
"$X c #E2CE99",
"%X c #E5D39E",
"&X c #CAC4A1",
"*X c #DAD1A5",
"=X c #E8D7A2",
"-X c #EFE1AB",
";X c #F1E6B9",
":X c #AEB7C2",
">X c #8BC6C3",
",X c #9CCCC4",
"<X c #99D4C7",
"1X c #B8C1C3",
"2X c #ACD7C9",
"3X c #A8D8CB",
"4X c #B4DECC",
"5X c #B8E1CE",
"6X c #B9E6D4",
"7X c #BBE9D6",
"8X c #C4C6CA",
"9X c #C1EBD6",
"0X c #C2EDD9",
"qX c #C7F1DC",
"wX c #F6EECE",
"eX c #F4F1E9",
"rX c white",
/* pixels */
"J.J.J.J.J.J.J.J.J.J.J.J.J.J.J.J.J.J.J.J.J.J.J.J.J.J.J.J.J.J.J.J.J.J.J.J.J.J.J.J.J.J.J.J.J.J.J.J.J.J.J.J.J.J.J.J.J.J.J.J.J.J.J.J.",
"J.J.J.J.J.J.J.J.J.J.J.J.J.J.J.J.J.J.J.J.J.J.J.J.J.J.J.J.J.J.J.J.J.J.J.J.J.J.J.J.J.J.J.J.J.J.J.J.J.J.J.J.J.J.J.J.J.J.J.J.J.J.J.J.",
"J.J.J.J.J.J.J.J.J.J.J.J.J.J.J.J.J.J.J.J.J.N.* : q - d.Q.J.J.J.J.J.J.J.J.J.J.J.J.J.J.J.J.J.J.J.J.J.J.J.J.J.J.J.J.J.J.J.J.J.J.J.J.",
"J.J.J.J.J.J.J.J.J.J.J.J.J.J.J.J.J.J.J.J.m . - a.a.a.k d T.J.J.J.J.J.J.J.J.J.J.J.J.J.J.J.J.J.J.J.J.J.J.J.J.J.J.J.J.J.J.J.J.J.J.J.",
"J.J.J.J.J.J.H.J.J.J.K.K.J.J.J.J.J.J.J.4 O q d k a.a.a.a.j l P.J.J.J.J.J.J.J.J.J.J.J.J.J.J.J.J.J.J.J.J.J.J.J.J.J.J.J.J.J.J.J.J.J.",
"J.J.J.J.J.z.8 b 9 s.N j.b N k.k.n p c.  q w a.a.a.a.d j a.a.v.G.b. .k.x.h.m z n Y i n ( ) ) _ x.) / b N f.8 8 8 H.J.J.J.J.J.J.J.",
"J.J.J.J.f.3 % ^ Y ! Y } E ^ &.! +.~ ~.* q j a.a.a.a.a.q l a.f X.q.^ @.*.{ E &.^ %.@.W *.@.Q ..^ ^ @.U W y ! W P 6 C.J.J.J.J.J.J.",
"J.J.J.J.8 E U *.:.-.3.4.>.&.=.O.O.$.S - q j l f f a.a.a.: a.l /.:.=.1.>.*.=.O.%.O.;.O.2.<.>.=.>.,.:.&.#.T &.^ ! U b f.J.J.J.J.J.",
"J.J.J.J.8 u +.5.<.1.1.=.:.%.;.2.2.<.] : d : o   . - a.a.d a.; w.=.2.2.2.O.>.&.*.%.:.%.=.O.O.O.;.:.%.*.-.,.>.^ ! U b z.J.J.J.J.J.",
"J.J.J.J.8 R ^ >.O.=.;.O.=.=.=.=.>.e.0 ; q q q -   o f a.j : X -.=.=.O.:.O.O.=.O.O.1.=.O.O.-.-.O.O.=.=.=.<.:.0.^ Y 9 J.J.J.J.J.J.",
"J.J.J.J.N y +.>.<.:.-.=.=.%.=.q.f . o . q q q * :   - j q - 0 a .X=.=.*.=.O.O.=.*.=.O.;.2.,.3.-.O.%.%.=.%.{ Q Q Y z H.J.J.J.J.J.",
"J.J.J.J.6 { @.3.<.<.1.1.,.,.>.' o q q o - q o : |.D - q : f u.#X|..X>.-.O.O.O.O.=.=.=.:.-.>..X@X1.1.>.>.:.:.....! b z.J.J.J.J.J.",
"J.J.J.J./ ....0.*.,.1.;.=.*.-.  q q q * * : . a |.u.9.F 9.u.|.;X|.@XO.O.O.O.O.=.;.1.>.:.i.+X:Xd.=.=.&.<.;.2.,.^ X.b ) J.J.J.J.J.",
"J.J.J.J. .S.X.{ { ^ =.=.;.O.=.  q q q * : - :   r 7.9.G $X$X=X|.$Xu.i.O.O.O.O.O.=.O.i.+X}.}.^.v O.O.O.=.;.;.:.X.) h.C J.J.J.J.J.",
"J.J.J.J.` { [ ..&.=.=.1.;.O.%.' q q q q q * -Xu.D a F ;X-X-X-X-X-X#X.X%.=.=.&.%.%.%.+X1X^.'.^.v 1.=.=.&.*.*.*...( b.c J.J.J.J.J.",
"J.J.J.J.h.{ ..^ >.<.>.<.,.=.%.w.* q q q q   %Xu.u.u.-X-X-X-Xt F -X$Xu.O.O.=.%.%.=.-.+X:X}.'.^.v <.-.O.%.-.1.3.0.{ z 8 J.J.J.J.J.",
"J.J.J.J.C ! ^ %.-.;.1.:.=.=.O.t.  + q ; . t #Xu.u.u.-X-X-X-XF   -X-Xa e.O.%.%.=.*.&X1X1X1X^.^.v =.;.=.O.;.1.3.~ E p 8 J.J.J.J.J.",
"J.J.J.J.p ^ :.-.;.=.*.1.;.=.=.O.t.a       t u.u.u.#X-X-X-X-X/.  G |.  t.O.O.=.=.i.1X'.1X1X^.A | -.-.*.;.;.;.3.T K U 5 J.J.J.J.J.",
"J.J.J.J.y ..#.#.:.-.&.&.%.=.O.O.-.O.e.e.  /.u.u.u.#X-X-X-X-X/.  0 ;   e.O.=.&.=.1X'.~.1X'.|   r.%.%.O.O.O.:.$.T R ! p J.J.J.J.J.",
"J.J.J.J.p +.p } -.1.=.=.=.=.=.r.. e q.O.  y.u.u.#X=Xt               G t r.=.O..X}.^.}.'.^.f r.=.O.=.=.=.:.+.W W p e 4 J.J.J.J.J.",
"J.J.J.J.4 K p R +.=.O.:.=.%.r.  rXf 0 e.  #Xu.u.u.#X%X-XG 0       /.%Xa ' %.O.e ^.^.}.^.^.e O.=.=.*.%.%.%.%.;.3.Q Y 5 J.J.J.J.J.",
"J.J.J.J.1 p E Q >.-.1.,.;.=.e.  h rX~.    |.u.u.u.u.u.|.-X-X-X  0 =Xu.7.' ;.t.* ^.~.~.^.h ' 1.2.3.;.=.1.1.,.>.$.R n 7 J.J.J.J.J.",
"J.J.J.J.1 N n ^ 3.6.1.%.:.*.  `.t A eX}.A A 0 D D D D 9.u.|.=X  F |.u.u.7.%.e v ^.S ~.d.. t.O.;.*.%.=.1.1.2.4.W , g.C J.J.J.J.J.",
"J.J.J.J.z K { ! *.>.;.O.=.%.  ^.~.&X/.wXeXrXrX8X~.~.h F u.u.$X  7.|.u.7.S t.  ^.v.S ~.; a -.-.=.O.=.*.=.-.:.:.W U y , J.J.J.J.J.",
"J.J.J.J.5 ! E { :.<.1.1.1.1.  ^.a.a.d.&X-X;XwXeXrXrXA D u.u.$X  S |.D - S a h ^.A ^.v.  t.;.O.1.1.1.=.*.:.*.@.Q ! y = J.J.J.J.J.",
"J.J.J.J.6 ( ! ^ :.<.2.<.<.>.  ^.a.a.a._.-X-X-X-XwX:Xq a u.u.$X/.-X7.    o   v.v ; ^.t S %.=.O.2.<.3.,.<.@.{ } K u < > J.J.J.J.J.",
"J.J.J.J.b ( ! ..! #.=.O.%.%.  ^.a.a.a._.-X-X-X-XwX:X2   ; a |.|.y.* a.  2 * @ o v v X =.=.O.O.O.=.*.*.-.~ Q [ { W [ , J.J.J.J.J.",
"J.J.J.J.b 9 ( { [ [ ! %.%.=.  _.a.a.a._.|.-X-X-X-X:X2 2 *       . l k   = a.k o + ; ' w.w.%.O.O.O.;.,.;.%.%.@.^ { b.m J.J.J.J.J.",
"J.J.J.J.) b / ! ^ @.*.1.-.i.S -X*X_.a.`.u.|.-X-X*Xa.2 f M a.k d a.d . * + # O - - O   2 2 8.=.1.2.-.,.:.;.-.3.W [ V m J.J.J.J.J.",
"J.J.J.J.c K 0.:.>.-.;.>.O.w.7.-X-Xu.`.&X X$X-X-X`.a.2 q : f l f - q : * D   a # o - + k a.] ;.,.-.-.=.;.1.2.:.R p i = J.J.J.J.J.",
"J.J.J.J.p Y @.4.<.*.%.<.-.r.0 -X-X|.u._.a.d._.&X/.a.  q d q q q q q : O # a u.D     @ j * e.%.=.<.:.*.=.;.,.<.#.~ U 1 J.J.J.J.J.",
"J.J.J.J.U R ~ >.,.;.=.=.;.;.0 `.-X=Xu._.a.a.a.j + a.  q : q q q q q * . + # D 0 t.t.8.' e.=.=.%.;.;.O.O.*.;.6.>.~ Q u J.J.J.J.J.",
"J.J.J.J.i i Q ^ @.:.&.*.%.=.O.t -X-X$X_.a.a.a.a.t a.  : q q q 2 * .   O : o v t.%.%.&.=.-.:.%.@.%.%.O.O.O.1.6.>.} Q i J.J.J.J.J.",
"J.J.J.J.Y E Q @.=.-.=.=.=.%.=.w.`.-X%Xa.a.a.a._.w l                     *   ;.;.=.O.O.;.1.<.;.=.=.%.=.=.*.:.-.#.~ p 5 J.J.J.J.J.",
"J.J.J.J.i ^ @.:.3.,.O.=.O.%.:.%.S 7.-Xg a.a._.7.= o % & & % % % r #   $ T t.;.;.O.O.1.2.<.-.1.=.=.=.%.%.*.=.>.>.^ R e J.J.J.J.J.",
"J.J.J.K.i K E +.:.-.1.=.=.%.;.1.O.  t k a.^.0   # I H H J L L L L &   % I =.%.:.=.-.=.=.O.=.O.1.=.=.=.1.1.5.:.@.[ b c J.J.J.J.J.",
"J.J.J.J.Z { { #.<.=.-.;.=.*.O.%.%.r.  a.&X,   & H H J L L H H L H L L P L O.O.=.=.;.O.;.;.;.=.;.;.=.%.=.-.#.@.^  .| z J.J.J.J.J.",
"J.J.J.J.g.E @.4.<.:.;.=.=.=.%.%.=.=.r.; # # & J H I I L I H H L P P L L :.;.O.=.%.=.;.-.2.3.>.=.O.=.%.*.#.( ( ( [ n 7 J.J.J.J.J.",
"J.J.J.J.b Y #.4.<.O.1.2.2.,.:.*.-.;.O.O.O.-.H J H L J H I I I I L s o.>.O.O.O.O.=.=.;.=.;.;.O.1.1.<.-.:.#.@.+...Q K 5 J.J.J.J.J.",
"J.J.J.J.5 Q 0.#.-.1.1.,.3.:.4.4.<.1.1.1.O.%.=.t.0.W L J I I I :.:.2.<.2.2.O.O.=.=.>.:.&.%.=.O.<.-.3.>.5.-.<.,.#.{ i = J.J.J.J.J.",
"J.J.J.J.> p R +.6.6.;.O.=.=.=.;.O.;.O.O.O.O.O.1.=.=.;.;.;.O.=.=.:.;.=.O.O.O.O.O.O.O.;.:.O.O.O.O.O.O.=.=.-.<.%.^ ! p X J.J.J.J.J.",
"J.J.J.J.< u R ~ ,.>.O.,.-.=.%.:.>.:.:.:.:.;.-.=.=.&.*.-.1.;.1.1.=.%.=.-.=.=.*.=.=.=.;.%.:.-.;.1.2.6.O.&.:.*.&.Q U , @ J.J.J.J.J.",
"J.J.J.J.1 @ P @.~ ~ ~ ..+.~ @.#.#.@.^ ^ 0.@.3.1.:.^ @.&.:.U T ^ Q &.*.>.,.3.-.:.-.5.$.~ :.3.#.>.:.+.! u P K 0.P @ b = J.J.J.J.J.",
"J.J.J.J.= < U P y  ._ p ! p Q [ R U ~ R E E +.@.Q { 0.&...Y i z K E K / T +.Q #.@.Q E p [ 0.{ ....Y 6 , < , u y 6 m., J.J.J.J.J.",
"J.J.J.J.= I.B z N.E.[.g./ z b ) n 8 / i i R Y / _ ..(.S.b.Z m.m.z b ) b 6 i Y K R n / z  .{ h.X.Z._ N.N.I.x.b b j.m = J.J.J.J.J.",
"J.J.J.J.> n.T.W.{.{.W.Y.B.I.) C A.T.W.A.j.5 5 j.A.I.Y.E.{.{.>Xj.> M.E.R.M.Z.M.Z 1 M.R.Y.[.I.N.R.>X{.>X>X{.R.W.[.B.1 X J.J.J.J.J.",
"J.J.J.J.= e V N.I.N.I.W.>X[.z s.{.{.W.T.B.B 1 G.[.T.I.W.W.W.T.h.4 Z I.I.E.W.W.g.v N.I.Y.T.T.B.= s.W.W.W.I.Y.E.I.x X 3 J.J.J.J.J.",
"J.J.J.J.8 x B M.N.N.N.G.G.c.4 e M.B.N.N.N.g.x j.G.B.N.N.N.N.G.x.c C N.N.A.N.N.m.m N.N.N.N.I.j.e g.N.N.N.N.N.M.C 4 @ f.J.J.J.J.J.",
"J.J.J.J.E.@ 4 C M.N.N.N.N.N.e 1 g.N.N.N.N.g.e M.N.G.N.N.N.N.N.j.= x M.G.I.N.N.c.e M.N.N.N.N.B 1 g.M.N.N.I.Y.Y.c.e g L.J.J.J.J.J.",
"J.J.J.J.XX= B M.B.m.G.A.N.j.c = m.N.N.N.m.g = m.N.N.N.N.k.m.c.s.g e W.W.T.I.N.x.4 x.N.N.N.N.s.> g.x.m.N.I.[.R.` 1 C P.J.J.J.J.J.",
"J.J.J.J.oX> g.[.XX[.T.G.N.M.g.1 h.N.G.Y.W.Y.1 Z N.x.N.A.m.N.N.N.g.> x.B.N.N.N.N.g M.N.N.N.N.C c G.N.N.N.N.N.m.m , V.L.K.J.J.J.J.",
"J.J.J.J.<Xw x j.Y.I.N.N.N.G.k.x C N.I.T.R.M.1 c.m.G.I.N.N.N.N.N.h.1 j.N.N.N.N.G.N N.N.N.N.N.s.g.N.B.N.N.N.N.g.v - B.K.K.J.J.J.J.",
"J.J.J.J.<X4 c C N.N.N.N.N.N.x.B j.N.N.N.N.c.4 R.[.[.T.I.N.N.N.N.s.4 j.G.N.A.N.M.s.G.N.N.N.N.g.h.N.N.N.N.N.M.B e , XXJ.J.J.J.J.J.",
"J.J.J.J.>Xc.e n k.N.N.G.G.N.m.m h.N.N.N.A.j.4 c.R.I.I.N.N.N.N.c.C e h.N.N.I.I.m.V M.N.N.N.N.Z C x.N.N.N.N.j.m 1 Z 3XK.J.J.J.J.J.",
"J.J.J.J.P.3Xc.4 c j.m.M.M.j.B x j.I.N.M.x.B x B m.N.N.N.x.M.m.m.j.g C N.N.N.M.c.m M.N.N.m.j.c c j.M.N.N.m.s.x c.9X<XJ.J.J.J.J.J.",
"J.J.J.J.J.!.7X].c.c.g.m.I.S.).V.V g.h.m.m.Z V.v m C j.c.B C B m | ).c.x.s.s.B m S.C s.h.Z B n.S.c.Z Z C j.c.].7X0X!.J.J.J.J.J.J.",
"J.J.J.J.J.P.<X4X5X2XoX2X4X9X0X0X).b.n.S.].OX7XoX).| Z Z V c.).oX4XqXoXM.c.v.V.oX7XOX].n.n.].5X4X4X,X].].].,X0X0X>XK.J.J.J.J.J.J.",
"J.J.J.J.J.J.H.L.U.U.{.6X3X3X9X6X7X7X0X0XqX0XQ.>X4X4X5X4X5X4XOX,X6X0X7X7X0X0X0XqX{.W.3X2X7XqX0X7X4X,X3X4X,XE.Q.P.K.J.J.J.J.J.J.J.",
"J.J.J.J.J.J.J.J.J.D.z.F.F.z.U.Q.<X7X6X4X<XE.C.H.L.U.XXW.Y.F.z.z.L.!.<X6X7X7X3XXXz.D.D.L.Q.XXQ.P.L.D.D.D.L.L.J.J.J.J.J.J.J.J.J.J.",
"J.J.J.J.J.J.J.J.J.J.H.l.z.D.H.K.F.l.x.l.9 N 8 N l.D.H.D.z.l.l.z.D.z.L.P.L.x.p.p.9 9 s.f.z.J.H.J.J.z.z.J.H.K.J.J.J.J.J.J.J.J.J.J.",
"J.J.J.J.J.J.J.J.J.J.J.J.K.K.J.J.J.J.J.J.J.J.J.J.J.J.J.J.J.J.J.J.J.J.J.J.J.J.J.J.J.J.J.J.J.J.J.J.J.J.J.J.J.J.J.J.J.J.J.J.J.J.J.J.",
"J.J.J.J.J.J.J.J.J.J.J.J.K.K.J.J.J.J.J.J.J.J.J.J.J.J.J.J.J.J.J.J.J.J.J.J.J.J.J.J.J.J.J.J.J.J.J.J.J.J.J.J.J.J.J.J.J.J.J.J.J.J.J.J.",
"J.J.J.J.J.J.J.J.J.J.J.J.J.J.J.J.J.J.J.J.J.J.J.J.J.J.J.J.J.J.J.J.J.J.J.J.J.J.J.J.J.J.J.J.J.J.J.J.J.J.J.J.J.J.J.J.J.J.J.J.J.J.J.J.",
"J.J.J.J.J.J.J.J.J.J.J.J.J.J.J.J.J.J.J.J.J.J.J.J.J.J.J.J.J.J.J.J.J.J.J.J.J.J.J.J.J.J.J.J.J.J.J.J.J.J.J.J.J.J.J.J.J.J.J.J.J.J.J.J."
};
