/* XPM */
static char *out[] = {
/* columns rows colors chars-per-pixel */
"64 64 216 2 ",
"   c #161C2E",
".  c #1D2234",
"X  c #1A2838",
"o  c #212536",
"O  c #25293B",
"+  c #2A2C3B",
"@  c #362E33",
"#  c #27333E",
"$  c #35353B",
"%  c #443B36",
"&  c #58433A",
"*  c #2C2E41",
"=  c #2A3846",
"-  c #373949",
";  c #423F40",
":  c #34474B",
">  c #3D5548",
",  c #2C4850",
"<  c #394856",
"1  c #3E5157",
"2  c #3C585A",
"3  c #3B635C",
"4  c #3B5D63",
"5  c #396968",
"6  c #387277",
"7  c #4D4D4D",
"8  c #514D4A",
"9  c #405541",
"0  c #434055",
"q  c #484758",
"w  c #43595A",
"e  c #565452",
"r  c #5E5D57",
"t  c #694E40",
"y  c #684948",
"u  c #7A5945",
"i  c #6C4C5B",
"p  c #635B5C",
"a  c #4C674A",
"s  c #55724E",
"d  c #47675A",
"f  c #57795A",
"g  c #6C6455",
"h  c #776D53",
"j  c #4A4C62",
"k  c #465865",
"l  c #525862",
"z  c #50576D",
"x  c #4C5A70",
"c  c #535B71",
"v  c #6A5E6B",
"b  c #4B6465",
"n  c #486868",
"m  c #56686A",
"M  c #49776A",
"N  c #537569",
"B  c #4F6F71",
"V  c #566579",
"C  c #467976",
"Z  c #547574",
"A  c #587A76",
"S  c #567B7B",
"D  c #5A7D7D",
"F  c #72696A",
"G  c #6F6F74",
"H  c #8E625C",
"J  c #90625D",
"K  c #8C795E",
"L  c #AA7959",
"P  c #8F6B6B",
"I  c #857465",
"U  c #827E6C",
"Y  c #8C777A",
"T  c #9C7A76",
"R  c #A17A74",
"E  c #5C835B",
"W  c #60814F",
"Q  c #658959",
"!  c #648A5C",
"~  c #778F5A",
"^  c #6D935C",
"/  c #6D985C",
"(  c #759958",
")  c #739C5C",
"_  c #77A25D",
"`  c #7BA45D",
"'  c #7EA95E",
"]  c #598666",
"[  c #5D9264",
"{  c #508679",
"}  c #59857A",
"|  c #758169",
" . c #669764",
".. c #6B9C62",
"X. c #669872",
"o. c #76A465",
"O. c #73A572",
"+. c #978B51",
"@. c #B09543",
"#. c #95B54F",
"$. c #9AB74E",
"%. c #9BB94F",
"&. c #87A859",
"*. c #83AC5D",
"=. c #8BAD5C",
"-. c #92AC5B",
";. c #8EB256",
":. c #87B059",
">. c #8BB159",
",. c #94B553",
"<. c #9BB654",
"1. c #9CB850",
"2. c #94B25A",
"3. c #9BB359",
"4. c #A1B452",
"5. c #A3B754",
"6. c #A9B756",
"7. c #A4B952",
"8. c #ABB954",
"9. c #A3B559",
"0. c #AAB659",
"q. c #ACB858",
"w. c #B1B857",
"e. c #9A8869",
"r. c #8E8C73",
"t. c #A69272",
"y. c #8FA96F",
"u. c #ADAD71",
"i. c #C8A876",
"p. c #CCAE7B",
"a. c #CEB47B",
"s. c #B5C579",
"d. c #D3C069",
"f. c #D5C57C",
"g. c #E9DF78",
"h. c #EAE178",
"j. c #3D7D80",
"k. c #5E6F86",
"l. c #587C80",
"z. c #3E888B",
"x. c #5B8484",
"c. c #578885",
"v. c #5E8B8B",
"b. c #59918B",
"n. c #4E8F92",
"m. c #45979A",
"M. c #688B88",
"N. c #798587",
"B. c #6B948C",
"V. c #629494",
"C. c #679896",
"Z. c #669C9C",
"A. c #6A9D9D",
"S. c #789B96",
"D. c #44A09F",
"F. c #6BA29C",
"G. c #78A597",
"H. c #489BA2",
"J. c #5A9BA5",
"K. c #6D9EA2",
"L. c #45A4A4",
"P. c #46A9A7",
"I. c #47ABA9",
"U. c #4BAAA9",
"Y. c #56A8A9",
"T. c #5AB4B0",
"R. c #6BA2A2",
"E. c #68A8AC",
"W. c #73AAAB",
"Q. c #74A8A8",
"!. c #73B2AF",
"~. c #7DB4B4",
"^. c #78B9B7",
"/. c #7BC5BC",
"(. c #8A9092",
"). c #8C9695",
"_. c #A69F81",
"`. c #B09288",
"'. c #84A59B",
"]. c #B9B18F",
"[. c #A6A898",
"{. c #9AA4A4",
"}. c #91B5A9",
"|. c #82B7B7",
" X c #86BDBC",
".X c #AAAFB1",
"XX c #C5B58A",
"oX c #D3B985",
"OX c #B6CA9B",
"+X c #92C4B9",
"@X c #AFCAB9",
"#X c #DBC490",
"$X c #E2CE99",
"%X c #E5D39E",
"&X c #CAC4A1",
"*X c #DAD1A5",
"=X c #E8D7A2",
"-X c #EFE1AB",
";X c #F1E6B9",
":X c #AEB7C2",
">X c #8BC6C3",
",X c #9CCCC4",
"<X c #99D4C7",
"1X c #B8C1C3",
"2X c #ACD7C9",
"3X c #A8D8CB",
"4X c #B4DECC",
"5X c #B8E1CE",
"6X c #B9E7D5",
"7X c #C4C6CA",
"8X c #C1EBD6",
"9X c #C2EDD9",
"0X c #C7F1DC",
"qX c #F6EECE",
"wX c #F4F1E9",
"eX c white",
/* pixels */
"I.I.I.I.I.I.I.I.I.I.I.I.I.I.I.I.I.I.I.I.I.I.I.I.I.I.I.I.I.I.I.I.I.I.I.I.I.I.I.I.I.I.I.I.I.I.I.I.I.I.I.I.I.I.I.I.I.I.I.I.I.I.I.I.",
"I.I.I.I.I.I.I.I.I.I.I.I.I.I.I.I.I.I.I.I.P.P.J J J J J J J J J J J J J J J J J J H H I.I.I.I.I.I.I.I.I.I.I.I.I.I.I.I.I.I.I.I.I.I.",
"I.I.I.I.I.I.I.I.I.I.I.I.I.I.I.I.I.I.I.I.P.P.J J J J H J H H H H J J J J J J J J H H I.I.I.I.I.I.I.I.I.I.I.I.I.I.I.I.I.I.I.I.I.I.",
"I.I.I.I.I.I.I.P.I.I.I.I.I.I.I.I.I.I.P.P.J J h.h.h.h.h.h.h.h.h.h.g.h.g.h.h.h.g.g.g.g.H H I.I.I.I.I.I.I.I.I.I.I.I.I.I.I.I.I.I.I.I.",
"I.I.I.I.I.I.P.P.I.I.U.U.I.P.P.I.I.I.P.P.J J h.h.h.h.$Xh.h.h.g.g.h.h.h.h.h.h.h.h.h.h.H H I.I.I.U.I.I.I.I.I.I.I.I.I.I.I.I.I.I.I.I.",
"I.I.I.I.I.m.5 M 6 C C x.M { b.b.M f J J h.h.d.d.d.u.* ; 0 7 r.oXd.d.d.d.d.d.d.d.d.d.h.g.H H } b.{ { M C j.5 3 6 P.I.I.I.I.I.I.I.",
"I.I.I.I.z., > ' ^ ( ! O./ ' :...&._ J J h.h.d.d.F . - k.k.V z q ].d.a.d.d.d.d.d.d.d.h.h.H H ` o.' ' Q ( a ` ( W 3 D.I.I.I.I.I.I.",
"I.I.I.I.5 ( ^ ;.2.9.9.0.<.:.,.%.7.,.J J d.d.a.e O 0 j z k.V V k.l F T J J J J J d.d.d.d.H H <.3.5.2.*.=.( *.:.( Q M z.I.I.I.I.I.",
"I.I.I.I.5 s &.0.6.7.7.,.2.;.1.6.6.6.H J a.d.XX. ; j k.k.k.k.j z k.V Y H J J J J a.a.d.d.H H %.$.3.;.>.<.9.3.' o.Q M z.I.I.I.I.I.",
"I.I.I.I.6 ^ ` 3.%.,.,.%.$.,.1.,.#.;.H H d.d.Y * 0 z k.k.k.k.k.j V k.j L L L J J J J d.d.H H #.%.$.,.,.,.6.2.*.*.E C I.I.I.I.I.I.",
"I.I.I.I.C a *.9.q.2.5.,.,.>.;.;.<.:.J J d.d.F ; 0 c z j j k.k.k.- k.c t.L L J J J J d.d.H H $.$.,.;.;.,.;...../ ! n L.I.I.I.I.I.",
"I.I.I.I.2 ) *.9.q.5.7.7.5.1.3.3.<.7.J J d.d.F ; 0 0 .   . - k.k.j z < T J J J J J J d.d.J J $.8.7.7.<.3.2.2.' o._ M m.I.I.I.I.I.",
"I.I.I.I.[ O.o.*.>.5.8.,.,.>.<.1.<.4.J J a.oX0 - 0 0 0 -   o j k.z ; . L J J J J J J d.d.J J %.%.,.,.;.5.1.8.5.'  .{ c.I.I.I.I.I.",
"I.I.I.I.M.O.O. ...' ,.<.1.1.,.,.#.#.J P e . O . 0 0 0 * %   - z j - 8 p `.J J J J J d.d.H J %.%.%.%.1.,.,.1.2.O.{ c.C I.I.I.I.I.",
"I.I.I.I.}  ..._ >.,.,.1.1.1.;.>.=.,.P v o ; 0 O * 0 O ; i.e.* ; 0 i i.#XoX`.J J J J d.d.H H $.%.8.1.OXOX;.2.>.o.[ V.B I.I.I.I.I.",
"I.I.I.I.b...o.o.3.8.<.0.5.,.,.;.#.5.<.. 0 0 0 * * ;   F XXi.t.Y t.`.a.-XoXXXJ J d.d.J J 7.7.%.8.OX@X1XG ,.7.0.*...n 5 I.I.I.I.I.",
"I.I.I.I.S _ ' ;.<.1.1.,.,.<.1.%.1.7.#.  0 0 0 * - - -   e t.e.e.$X$X-X#X$Xi.R J d.a.J J 7.$.s.@X.X.X).r $.7.6.*.^ f 5 I.I.I.I.I.",
"I.I.I.I.E ' >.<.1.,.,.1.1.;.,.1.<.%.J F 0 0 0 0 ; * ;Xi.I g U -X-X-X-X-X-X$X`.i @.@.@.@.J J @X1X).{.).m <.<.9.^ f Q 2 I.I.I.I.I.",
"I.I.I.I.w ` =.-.3.,.:.>.,.,.1.1.$.#.H Y * 0 0 0 ;   %Xi.i.i.-X-X-X-Xr U -X$Xi.i @.@.@.@.J J 1X1X{..X).m #.,.-.~ / ` f I.I.I.I.I.",
"I.I.I.I.f o.f ) 3.7.,.,.,.,.,.,.;.,.J T   * 0 - . r #Xi.i.i.-X-X-X-XF   -X-Xi G i u @.@.J .X1X1X1X).).m 2.&.( ( f w 1 I.I.I.I.I.",
"I.I.I.I.a E f ^ *.,.1.;.,.>.,.;.=.&.J J u.g       r i.i.i.#X-X-X-X-Xu.  U XX. Y i i @.@.`.:X{.1X1X).m | ;.;.<.9.( ! 2 I.I.I.I.I.",
"I.I.I.I., f ^ ) 2.3.7.0.9.;.<.7.5.-.J J @.@.P G   `.i.i.i.oX-X-X-X-X_.  8 -   G i i @.@.1X{.).1X{.N.  s.7.6.3.-.^ N k I.I.I.I.I.",
"I.I.I.I.< M N ' 0.w.1.>.,.;.<.7.6.5.J T   e v i   u.i.i.$X=Xg               U e Y i @.u..X).{.{.).w u.7.7.8.0.( : c.A I.I.I.I.I.",
"I.I.P.P.n ] / ' >.3.1.%.,.,.,.;.,.;.T   eXc ; G   #Xi.i.i.#X%X-XU 7       _.%Xg v i @.e ).)..X).).7 ;.;.3.3.,._ Q a , I.I.I.I.I.",
"I.I.I.I.3 ../ ..2.6.7.7.7.5.;.>.-.#.Y   j eX(.    oXi.i.i.i.i.#X-X-X-X  7 =Xi.R v i u.* ).(.(.).m | ,.>.2.=.*.) ` a = P.P.I.I.I.",
"I.I.I.I.3 [ ' ' 2.6.8.5.0.<.0.0.6.4.  ].r V wX.XV F 8 K I I K t.i.oX$X  U oXi.i.v i 8 l (.G ).|   u.9.5.&.....E s > , I.P.I.I.I.",
"I.I.I.I.{ E o...` =.<.,.;.;.,.1.#.$.  ).(.&X_.qXwXeXeX7X(.(.l K i.i.$X  U oXi.e.v Y   ).N.G '.= g :.>.<.` _ ....( ^ : I.I.I.I.I.",
"I.I.I.I.M 5 [ )  .[ ' ;.>.,.,.,.#.#.  ).k.k.N.&X-X;XqXwXeXeXv K i.i.$X  U oXe.+ F g e ).G ).N.  s.1.7.1.;.>.*.' X.B.N P.I.I.I.I.",
"I.I.I.I.S M [ o.' *.2.5.<.,.;.>.-.,.  ).k.k.k.[.-X-X-X-XqX.X< F i.i.$X[.-Xe.    .   k.m - ).z | %.1.5.2.<.<.9.)  .N B I.I.I.I.I.",
"I.I.I.I.B E *.2.3.1.1.<.1.,.,.1.$.4.  ).k.k.k.[.-X-X-X-XqX:X<   ; u XXoXu.* k.  < * - + m m O 9.,.<.,.,.7.7.2.^ f d : I.I.I.I.I.",
"I.I.I.I.M Q &.6.0.>.,.0.<.>.;.7.<.5.  [.k.k.k.[.oX-X-X-X-X:X0 < *         k.x   = k.x . + - G y.y.-.>.,.$.5.6.;.` Q < I.I.I.I.I.",
"I.I.I.I.Q ^ ` 3.<.1.;.,.1.1.1.,.;.9.U -X*X[.k.].p.#X-X-X*Xk.< j k.k.k j x <   * + $ O - - + . ; < y.%.%.2.<.w.2.' / d I.I.I.I.I.",
"I.I.I.I.d d ) *.*.;.:.>.;.,.%.%.$.y.r.-X-Xi.].&XXX$X-X-X].k.< 0 - j x j ; 0 0 * K   g @ o - * x k.G %.%.%.7.w.3.) ) d I.I.I.I.I.",
"I.U.I.I.Q / ) *.,.<.,.,.#.;.,.;.;.y.8 -X-XoXi.[.k.k.[.&X_.k.  0 j ; 0 0 0 0 0 O $ g i.K     # l * y.,.,.;.>.3.=.o.f 2 I.I.I.I.I.",
"I.I.I.I.d ' *.>.9.6.1.,.%.>.,.;.;.&.q ].-X%Xi.[.k.k.k.x * k.  0 0 0 0 0 0 0 * . + $ K e T T r.| y.,.;.;.2.,.3.3.*.! w I.I.I.I.I.",
"I.I.I.I.d E / *.2.,.7.,.,.,.7.7.4.<.J r -X-X$X[.k.k.k.k.r k.  - 0 0 0 0 * .   * 0 X F f.H H %.%.3.,.,.7.5.0.2.*. .M N I.I.I.I.I.",
"I.I.I.I.} X./ 2.q.,.3.1.,.;.,.;.,.&.J Y _.-X=Xk.k.k.k.[.7 x                     #   d.d.H H ,.%.%.,.;.,.3.>.*.' X.X.n I.I.I.I.I.",
"I.I.I.I.} ) *.0.q.2.<.%.,.,.;.;.,.;.J J r.r.-Xk k.k.[.r.- o & & & & & & y *   % t.f.d.d.H J <.,.,.,.;.,.=.[ [ [  .N 2 I.I.I.I.I.",
"I.I.I.I.B E =.0.6.1.1.7.7.6.2.2.,.%.J J a.  r x k._.7   @ u u u u u u u u %   % +.d.d.d.H H 1.7.7.8.1.>.>.*.*.o...! 2 I.I.I.I.I.",
"I.I.I.I.2 o.*.>.3.7.7.7.9.2.9.6.6.8.$.7.H T   k.&X$   h +.+.+.+.+.+.+.+.+.+.+.L +.d.H H >.<.%.8.7.3.3.0.3.0.9.>. .d = I.I.I.I.I.",
"I.I.I.I., f ! &.w.w.1.#.,.,.,.1.$.4.1.%.H J XX- $ & h +.+.+.+.+.+.+.+.+.+.+.+.+.a.d.J J ,.1.%.%.1.<.,.#.<.7.;.' ( f # P.P.I.I.I.",
"I.I.I.I.> s ^ &.<.<.5.5.5.,.;.2.<.2.;.3.;.<.J J J P t t y y y y y y y y y y F J J J <.;.3.<.<.7.8.8.7.:.2.=.>._ Q : # I.I.I.I.I.",
"I.I.I.I.: $ W *.` ' ` ` ' ` *.*.-.` *.*.' *.J J H H J K P h y y y y y P J J J J H H -.' 3.<.=.3.2.' _ s W W ' W # M = I.I.I.I.I.",
"I.I.I.I.= 9 Q f a X.} f ` f )  ./ ! ' ! ^ ( *.=.) ) *.:.' E d n f ^ ] ! ~ &.) =.*._ ( f ..o.o.o...^ > : 2 : s a w V., I.I.I.I.I.",
"I.I.I.I.: A.A d Z.~.|.l.] n M { M d N n d ^ ! E ] O.G.G.B.D V.b.n M { M 3 d ! E ^ N ] b X. .} O.F.{ F.F.R.b.M M v.C = I.I.I.I.I.",
"I.I.I.I.= V.W.~. X X~.E.Z.R.{ S F.Q.~.F.b.w 4 b.A.Q.Q.!. X X>XM.: C.W.!.C.Z.C.D : C.!.R.|.R.Z.W.>X+X>X>X XW.~. XA.< X I.I.I.I.I.",
"I.I.I.I.= w S C.A.R.E.~.+X~.b S +X^.^.Q.F.Z : K.^.W.R.~.~.~.W.v.1 D R.R.!.~.~.x.b Z.R.W.W.W.A.= l.W.^.!.R.Q.!.R.b O , I.I.I.I.I.",
"I.I.I.I.5 k Z Z.Z.Z.Z.Z.R.v.1 k V.R.Z.Z.Z.x.x M.R.Z.Z.Z.Z.Z.Z.V.n S Z.Z.F.Z.Z.V.B A.A.Z.A.R.M.2 x.Z.Z.Z.Z.Z.V.S 1 # z.I.I.I.I.I.",
"I.I.I.I.!.X 2 D V.Z.Z.Z.Z.Z.k : x.Z.Z.Z.Z.x.w V.Z.Z.Z.Z.Z.Z.Z.v.= b A.R.R.Z.Z.v.4 V.Z.Z.Z.Z.Z < M.V.Z.Z.R.Q.Q.M.w k U.U.I.I.I.I.",
"I.I.I.I.+X* A C.S.V.K.R.Z.v.b : V.Z.Z.Z.V.b = V.Z.Z.Z.A.V.V.v.S k w W.~.W.R.Z.V.1 V.R.Z.Z.V.S , x.V.V.Z.R.~.Q.D 1 S T.I.I.I.I.I.",
"I.I.I.I.+X: M.|.>X|.Q.Z.Z.Z.x.< x.Z.Z.W.W.Q.< S Z.Z.Z.Z.V.Z.Z.Z.v.= V.Z.Z.Z.Z.Z.k V.Z.Z.Z.Z.S n R.Z.Z.Z.Z.Z.V.N : S.Y.I.I.I.I.I.",
"I.I.I.I.<X1 b c.E.A.Z.Z.Z.Z.V.b S Z.R.W.W.C.1 M.V.Z.R.R.Z.Z.Z.A.x.1 v.Z.Z.Z.Z.Z.Z R.Z.Z.Z.Z.l.x.J.Z.Z.Z.Z.A.x.b = S.U.I.I.I.I.I.",
"I.I.I.I.<X1 b D Z.Z.Z.Z.Z.Z.V.B x.Z.Z.Z.Z.v.1 W.|.~.!.A.Z.Z.Z.Z.D 1 v.Z.Z.Z.Z.V.x.Z.Z.Z.Z.Z.x.v.A.Z.Z.Z.Z.C.B l , +XU.I.I.I.I.I.",
"I.I.I.I.>XM.w N v.Z.Z.Z.Z.Z.V.B v.Z.Z.R.Z.v.1 M.W.R.F.Z.Z.Z.V.V.S w v.F.Z.R.W.V.Z V.Z.Z.Z.Z.S S V.Z.Z.Z.Z.v.B 1 D 3XU.I.I.I.I.I.",
"I.I.I.I.T.4XM.1 B v.V.Z.V.V.A b v.Z.Z.Z.V.A b N V.C.A.Z.V.V.V.V.c.k S Z.Z.Z.Z.M.B V.R.Z.V.M.n B v.Z.Z.Z.V.l.b M.8X<XI.I.I.I.I.I.",
"I.I.I.I.I./.6X}.M.M.x.V.R.G.S.S.Z x.v.V.V.D S.n B D v.v.S S Z B } '.V.v.D D Z B G.Z x.c.l.A B.G.M.D S S v.B.'.9X9X/.I.I.I.I.I.I.",
"I.I.I.I.I.U.<X4X5X2X+X2X4X6X9X9X'.B.B.'.}.@X8X@X'.M.D D A M.'.+X8X0X+XB.N.M.G.}.6X2X}.N.B.}.6X4X4X2X.X}.}.,X9X6X>XU.I.I.I.I.I.I.",
"I.I.I.I.I.I.I.J.E.W. X5X2X2X6X8X6X9X8X8X0X6X^.>X4X4X5X5X5X4X@X,X5X8X6X9X9X9X0X0X X|.,X4X9X0X6X6X3X,X<X3X,X!.^.T.U.I.I.I.I.I.I.I.",
"I.I.I.I.I.I.I.I.P.H.m.J.K.m.E.^.<X6X6X3X<X!.D.P.Y.E. X~.E.J.m.n.Y.>X>X6X6X6X4X/.m.m.m.Y.~.+X^.T.Y.H.H.H.Y.Y.I.I.I.I.I.I.I.I.I.I.",
"I.I.I.I.I.I.I.I.P.P.L.m.m.H.L.U.Y.n.n.c.6 C 5 6 m.m.L.m.m.n.n.m.m.m.T.T.T.n.n.6 6 5 n.z.m.I.L.I.P.m.H.L.U.U.I.I.I.I.I.I.I.I.I.I.",
"I.I.I.I.I.I.I.I.I.I.I.I.I.I.I.I.I.I.I.I.I.I.I.I.L.I.I.I.I.I.I.I.I.I.I.I.P.I.I.I.I.I.I.I.I.I.I.I.I.I.I.I.I.I.I.I.I.I.I.I.I.I.I.I.",
"I.I.I.I.I.I.I.I.I.I.I.I.I.I.I.I.I.I.I.I.I.I.I.I.P.I.I.I.I.I.I.I.I.I.I.I.P.P.I.I.I.I.I.I.I.I.I.I.I.I.I.I.I.I.I.I.I.I.I.I.I.I.I.I.",
"I.I.I.I.I.I.I.I.I.I.I.I.I.I.I.I.I.I.I.I.I.I.I.I.I.I.I.I.I.I.I.I.I.I.I.I.I.I.I.I.I.I.I.I.I.I.I.I.I.I.I.I.I.I.I.I.I.I.I.I.I.I.I.I.",
"I.I.I.I.I.I.I.I.I.I.I.I.I.I.I.I.I.I.I.I.I.I.I.I.I.I.I.I.I.I.I.I.I.I.I.I.I.I.I.I.I.I.I.I.I.I.I.I.I.I.I.I.I.I.I.I.I.I.I.I.I.I.I.I."
};
