/* XPM */
static char *out[] = {
/* columns rows colors chars-per-pixel */
"64 64 222 2 ",
"   c #161C2E",
".  c #1C2334",
"X  c #232738",
"o  c #24293B",
"O  c #362E33",
"+  c #27333E",
"@  c #34333A",
"#  c #463936",
"$  c #574B3B",
"%  c #2C2E41",
"&  c #2A3846",
"*  c #353549",
"=  c #373B48",
"-  c #3B3C50",
";  c #423F40",
":  c #2D414B",
">  c #35474B",
",  c #3C5449",
"<  c #384A52",
"1  c #3A455A",
"2  c #2C545B",
"3  c #3E5157",
"4  c #3C585A",
"5  c #3B635C",
"6  c #3B5D63",
"7  c #396968",
"8  c #387277",
"9  c #4D4D4D",
"0  c #524947",
"q  c #425945",
"w  c #434055",
"e  c #48495E",
"r  c #44595A",
"t  c #5C5B56",
"y  c #684948",
"u  c #6C4C5B",
"i  c #4C6749",
"p  c #54714D",
"a  c #476759",
"s  c #57795A",
"d  c #6A6657",
"f  c #756C53",
"g  c #4A4C62",
"h  c #455B62",
"j  c #525867",
"k  c #4C5A70",
"l  c #555F75",
"z  c #655D69",
"x  c #4B6465",
"c  c #486868",
"v  c #576869",
"b  c #49776A",
"n  c #537569",
"m  c #4F6F71",
"M  c #57657A",
"N  c #467976",
"B  c #547574",
"V  c #587A76",
"C  c #567B7B",
"Z  c #5A7D7D",
"A  c #72686B",
"S  c #636974",
"D  c #737072",
"F  c #817749",
"G  c #8E625C",
"H  c #90625D",
"J  c #8C795E",
"K  c #AA7959",
"L  c #916B68",
"P  c #837B6A",
"I  c #896C71",
"U  c #8B7778",
"Y  c #9D7874",
"T  c #5D825B",
"R  c #60814F",
"E  c #658959",
"W  c #648A5C",
"Q  c #778E5A",
"!  c #6D935C",
"~  c #6D985C",
"^  c #759958",
"/  c #739C5C",
"(  c #77A25D",
")  c #7BA45D",
"_  c #7EA95E",
"`  c #598567",
"'  c #5D9264",
"]  c #508679",
"[  c #59857A",
"{  c #6B846C",
"}  c #669764",
"|  c #6B9C62",
" . c #739C62",
".. c #669872",
"X. c #75A465",
"o. c #73A572",
"O. c #978B51",
"+. c #B09543",
"@. c #B59E55",
"#. c #95B54F",
"$. c #9AB74E",
"%. c #9BB94F",
"&. c #87A859",
"*. c #83AC5D",
"=. c #8BAD5C",
"-. c #92AC5B",
";. c #8EB256",
":. c #87B059",
">. c #8BB159",
",. c #94B553",
"<. c #9BB654",
"1. c #9CB850",
"2. c #94B25A",
"3. c #9BB359",
"4. c #A2B353",
"5. c #A3B655",
"6. c #A9B756",
"7. c #A4B952",
"8. c #ABB954",
"9. c #A3B559",
"0. c #AAB659",
"q. c #ACB858",
"w. c #B1B857",
"e. c #938B6E",
"r. c #AB8F6F",
"t. c #8CA76F",
"y. c #ACB06D",
"u. c #C8A876",
"i. c #CCAE7B",
"p. c #CEB17E",
"a. c #B2C678",
"s. c #D4C169",
"d. c #D5C47B",
"f. c #E9DF78",
"g. c #EAE178",
"h. c #5E6F86",
"j. c #587C80",
"k. c #6E7B8A",
"l. c #3E888B",
"z. c #5B8484",
"x. c #578885",
"c. c #5E8B8B",
"v. c #59918B",
"b. c #4E8F92",
"n. c #45979A",
"m. c #688B88",
"M. c #788588",
"N. c #6B948C",
"B. c #629494",
"V. c #679896",
"C. c #669C9C",
"Z. c #6A9D9D",
"A. c #789B96",
"S. c #44A09F",
"D. c #6BA29C",
"F. c #78A597",
"G. c #489BA2",
"H. c #5A9BA5",
"J. c #6D9EA2",
"K. c #45A4A4",
"L. c #46A9A7",
"P. c #47ABA9",
"I. c #4BAAA9",
"U. c #56A8A9",
"Y. c #5AB4B0",
"T. c #6BA2A2",
"R. c #68A8AC",
"E. c #71A5A4",
"W. c #73AAAB",
"Q. c #76ABAB",
"!. c #73B2AF",
"~. c #7DB4B4",
"^. c #78B9B7",
"/. c #7BC5BC",
"(. c #878F92",
"). c #8C9695",
"_. c #A69F81",
"`. c #AC9289",
"'. c #84A59B",
"]. c #B7AF8C",
"[. c #A6A898",
"{. c #9AA4A4",
"}. c #91B5A9",
"|. c #82B7B7",
" X c #86BDBC",
".X c #ACB1B3",
"XX c #ACB5B6",
"oX c #C3AF8B",
"OX c #C7B987",
"+X c #D3B985",
"@X c #BCC789",
"#X c #87C3BC",
"$X c #9AC4B7",
"%X c #A6CCBC",
"&X c #BECAB2",
"*X c #CEC18C",
"=X c #DBC490",
"-X c #D6CB9D",
";X c #E2CE99",
":X c #E5D29D",
">X c #CDC7A2",
",X c #E8D8A3",
"<X c #EFE1AB",
"1X c #F1E6B9",
"2X c #AEB7C2",
"3X c #8BC6C3",
"4X c #9CCCC4",
"5X c #99D4C7",
"6X c #B8C1C3",
"7X c #ACD7C9",
"8X c #A8D8CB",
"9X c #B4DECC",
"0X c #B8E1CE",
"qX c #B9E6D4",
"wX c #BBE9D6",
"eX c #C4C6CA",
"rX c #C1EBD6",
"tX c #C2EDD9",
"yX c #C7F1DC",
"uX c #F6EECE",
"iX c #F4F1E9",
"pX c white",
/* pixels */
"P.P.P.P.P.P.P.P.P.P.P.P.P.P.P.P.P.P.P.P.P.P.P.P.P.L.L.P.P.P.P.P.P.P.P.P.P.P.P.P.L.P.P.P.P.P.P.P.P.P.P.P.P.P.P.P.P.P.P.P.P.P.P.P.",
"P.P.P.P.P.P.P.P.P.P.P.P.P.P.P.P.P.P.P.P.K.P.H H H G H H H H H H H H H H H G H H G G P.P.P.P.P.P.P.P.P.P.P.P.P.P.P.P.P.P.P.P.P.P.",
"P.P.P.P.P.P.P.P.P.P.P.P.P.P.P.P.P.P.P.P.P.P.G H H H H H H H H H H H H H H H H H G G P.L.P.P.P.P.P.P.P.P.P.P.P.P.P.P.P.P.P.P.P.P.",
"P.P.P.P.P.P.P.P.P.P.P.P.P.P.P.P.P.P.P.P.G H g.g.g.g.g.g.g.g.g.g.f.f.g.g.g.g.f.f.f.g.G G P.P.P.P.P.P.P.P.P.P.P.P.P.P.P.P.P.P.P.P.",
"P.P.P.P.P.P.L.L.L.L.P.I.P.L.L.P.L.L.L.P.H G g.g.g.g.g.g.g.g.g.g.g.g.g.g.g.g.g.g.g.g.G G P.P.P.P.P.P.P.P.P.P.P.P.P.P.P.P.P.P.P.P.",
"P.P.P.P.P.n.7 b 8 j.N z.b ] v.v.` n G G g.g.s.s.s.s.s.s.s.s.s.s.s.s.s.s.s.s.s.s.s.s.g.f.G G x.v.] ] b N N 7 7 7 S.P.P.P.P.P.P.P.",
"P.P.P.P.l.2 q _ ! / W o.~ _ :.| *.^ H H g.g.s.s.OX% w D ].*Xs.s.s.s.s.s.s.s.s.s.s.s.g.g.G G ) X._ _ E ^ i _ / R 5 n.P.P.P.P.P.P.",
"P.P.P.P.7 ^ R 2.>.<.4.0.5.:.,.%.1.,.H H s.s.s.+X  = h.h.j w A H H H H H H H H H s.s.s.s.G G <.3.5.,.*.=.^ *._ / ! b n.P.P.P.P.P.",
"P.P.P.P.7 p &.0.6.7.7.,.2.;.7.8.5.4.H H s.s.+X  - w g h.l h.l w Y G H G H H H H i.s.s.s.G G %.1.2.;.;.<.9.3._ ( T b n.P.P.P.P.P.",
"P.P.P.P.7 ! ) 3.7.,.,.%.,.,.%.,.,.,.H H s.p.  + w l h.h.k h.h.j U K K K K K H H H H s.s.H G ,.%.1.,.,.,.6.2.*._ E 8 P.P.P.P.P.P.",
"P.P.P.P.N p *.5.6.2.<.,.,.;.;.;.<.:.H H s.s.  = w h.h.h.h.g M h.g r.K K K K H H H H s.s.G G 3.<.%.;.;.,.;.| ~ ( W c K.P.P.P.P.P.",
"P.P.P.P.4 | *.9.6.5.7.8.8.<.<.2.3.1.H H s.s.  9 g l l h.h.h.e h.h.r.K K H H H H H H s.s.G H $.7.7.5.3.3.2.2.X.( ( b n.P.P.P.P.P.",
"P.P.P.P.` o.X.*.>.9.7.,.;.>.<.<.$.$.H H i.OXX w w * % e M h.l w h.U K K H H H H H H s.s.G G %.%.,.,.>.5.1.q.9.*.| N ] P.P.P.P.P.",
"P.P.P.P...F.o.| | *.,.%.1.1.,.,.#.#.H H s.U % w w w   X w h.h.g M w H H H H H H H H s.s.G G %.%.%.%.%.,.,.1.2.o.] x.] P.P.P.P.P.",
"P.P.P.P.[ | | ( :.,.,.1.1.%.;.>.:.2.H U   X . w w w *     g h.j g o G H H H H H H H s.s.G G $.%.7.1.,.>.>.>.>.X.' B.m L.P.P.P.P.",
"P.P.P.P.x.| X.X.3.6.9.q.<.,.,.,.%.7.9.  = 9   % w w *     * h.g * @ z Y H H H H s.s.H H 7.7.1.8.@X6X{.;.1.7.9.*.| c 6 P.P.P.P.P.",
"P.P.P.P.N _ *.;.1.1.1.2.<.%.%.%.7.7.t.X w w % % w *   r.; % w w % r.r.u.Y G G G s.i.H H 5.<.@X>X6X.Xv %.1.7.9.) | s 7 P.P.P.P.P.",
"P.P.P.P.T X.2.<.1.,.,.<.<.;.,.1.,.%.A * w * X % w   f i.u.G d L r.i.,X+X`.u u u +.+.+.+.G [.6X{.{.).v ,.<.<.5.Q s E 4 P.P.P.P.P.",
"P.P.P.P.r ) &.-.2.3.*.:.;.,.%.%.%.$.A w w - % w *     A :X=X=X;X;X<X+X=Xu.u u u +.+.+.+.G XX6X{.{.).v %.$.,.-.Q ~ ( s P.P.P.P.P.",
"P.P.P.P.s X.s / <.7.,.%.,.,.%.;.;.,.U + w w w w % ].f @     { <X<X<X<X<X+X`.u u u u +.+.`.2X6XXX{.).v $.2.&.^ ^ s a 3 P.P.P.P.P.",
"P.P.P.P.q T s ! *.,.1.;.,.>.,.;.=.*.Y   % w w w . ,Xu.u.u.<X<X<X<Xe._.,X;XoXu u u u +.+.XXXX6X6X).(.v ,.;.>.<.9.^ W 4 P.P.P.P.P.",
"P.P.P.P.3 s ~ / 3.<.7.9.5.;.<.7.5.3.H e.  X %   d +Xu.u.u.<X<X<X<Xt   <X<Xe.I u u u +.*X.X{.6XXX).= t.7.7.8.9.-.! n 6 P.P.P.P.P.",
"P.P.P.P.< b n _ 9.w.5.;.,.;.<.7.6.6.H H r.9     t +Xu.u.+X<X<X<X<X_.  ].<X  D u u u +.&X{.).6X).M.  >.7.8.8.9.^ < j.B P.P.P.P.P.",
"P.P.P.P.7 ` ~ _ >.3.1.%.,.;.,.;.#.:.A   r.@.I   e.u.u.u.=X<X<X<X<X_.  t t   I u u u ]..X).}.{.).9 y.>.;.2.2.,.^ E i > P.P.P.P.P.",
"P.P.P.P.5 ( ~ | 2.6.7.7.7.5.2.>.-.d M eX  e.u   r.u.u.+X;X                9 9 U u u 9 ).)..X).).9 7.<.>.>.>.) / ) i & P.P.P.P.P.",
"P.P.P.P.4 ' ( _ 2.6.6.8.9.<.0.q.5.    eXpX- g   ;Xu.i.+X<X<XP           @ <XA D u I & ).(.M.).j { 9.9.5.*.~ X.T p q : P.P.P.P.P.",
"P.P.P.P.N ' X.| ) *.,.,.;.;.,.1.$.  ].t S iXXXS A 0 P J J e.OX<X>X_.  = ,Xp.J A u w v ).S (.{   y.;.:.<.) ( | | ~ ! > P.P.P.P.P.",
"P.P.P.P.b b ' | } } ) ;.>.,.,.,.#.  ).(.>Xy.iXiXpXpXeX(.).e J u.+X:X  P +Xu.u.z @.  ).M.M.).- d 1.7.7.<.,.>.*._ ..N.n P.P.P.P.P.",
"P.P.P.P.C b '  ._ *.2.7.1.,.;.>.:.  ).S h.M.>X,X1XuXiXpXpXS J u.u.;X  P +Xi.u.z d j ).D ).k.  a.7.1.9.2.,.<.9./ ! B m P.P.P.P.P.",
"P.P.P.P.m T *.3.3.<.<.<.<.,.,.1.$.  ).h.h.h.[.1X<X<X<XuX2X1 J u.u.;X  P +Xr.@     M.v = ).t { 0.1.<.,.%.7.6.3.! s a : P.P.P.P.P.",
"P.P.P.P.s T *.q.6.;.;.8.<.>.;.7.<.  ).h.h.h.[.,X<X<X<XuX2X1 J u.u.;XP 1Xy.. % * % o X v v X =.3.5.2.:.,.1.5.0.,.) E 3 P.P.P.P.P.",
"P.P.P.P.E ! ) 3.9.1.;.,.1.1.1.,.;.  [.h.h.h.[.+X<X<X<X<X2X1 @ e.u.=X<X<X* k 1 o h.k . o = A t.t.1.1.%.1.;.<.q.2._ ~ a P.P.P.P.P.",
"P.P.P.P.a a / *.:.;.:.:.;.,.%.%.%.  <X-X[.k.[.u.+X<X<X<Xh.1 & o   0 0 @ g 1 . o O o - * X   1 1 t.;.%.%.%.%.w.3./ / a P.P.P.P.P.",
"P.P.P.P.T /  .*.2.<.,.,.,.,.,.:.;.  <X<X=XoX>X[.=X:X<X1Xk 1 * e M 1 * 1 - % w 0   d @ X * % k h.D #.,.,.;.=.3.-.X.s 6 P.P.P.P.P.",
"P.P.P.P.a *.*.>.3.8.1.,.,.;.,.,.;.v *X<X:Xu.=Xh.h.[.[.,X1 1 * w w w w w w - =   d u.J     % k % t.,.;.,.;.,.3.3.*.E a P.P.P.P.P.",
"P.P.P.P.a T ! *.2.<.7.<.<.;.1.7.7.y.D <X<Xp.=Xh.h.h.l < 1 1 * w w w w w w - . % % O.9 d.Y I D t.3.,.;.1.6.q.2.*.} n c P.P.P.P.P.",
"P.P.P.P.[ | | -.6.,.<.1.,.,.,.;.;.:.A <X<X;X<Xh.h.h.h.D 1 1 * w w w w = *   % w . A d.s.G G ,.1.1.,.;.,.<.>._ _ ....c P.P.P.P.P.",
"P.P.P.P.x.| &.0.q.2.<.,.,.,.;.;.,.;.Y 9 <X,X[.h.h.h.h.e.k + X % + o @         % . s.s.s.G G <.,.%.,.;.2.=.' ' } ' n 4 P.P.P.P.P.",
"P.P.P.P.c T =.0.8.%.1.8.7.5.2.-.2.$.H Y = -Xe.h.h.k.].< . O O O O O O $ O   # I d.s.s.s.G H 1.7.7.8.<.>.*.*.*.X. .W 4 P.P.P.P.P.",
"P.P.P.P.a  .*.>.3.7.7.5.9.2.0.0.6.8.$.7.Y = e h.M.].    f O.O.O.O.O.O.O.f   $ O.s.s.G G ;.,.%.8.<.9.3.q.<.q.9.>.~ a & P.P.P.P.P.",
"P.P.P.P.: s ! &.w.q.$.$.,.,.,.1.$.7.$.$.G U   h.].    F O.O.O.O.O.O.O.O.O.O.O.O.i.s.G G ,.1.%.1.1.1.,.,.<.7.#._  .s o P.P.P.P.P.",
"P.P.P.P., p ^ / 5.3.5.5.1.,.>.,.<.-.2.2.;.<.U = @ O 0 y y y y y y y y y y y y H G G $.;.3.<.1.7.q.q.9.:.,.:.:.( R > + P.P.P.P.P.",
"P.P.P.P.> + E &.) _ ) ) *.) *.=.=._ *._ *.*.H H L y y y y y y y y y y y y G L H H H =._ 2.3.*.3.2.*.( p s R _ R + b & P.P.P.P.P.",
"P.P.P.P.& , E R i ..[ s ) s | } ^ T _ ! ! / *.&.X.( *.*.! i > , q p ` {  .&.^ =.*./ ^ s | _ X.X.X.W , > , , s i a B.< L.P.P.P.P.",
"P.P.P.P.: E.B a C.~.|.j.` c b ] s 7 ` c a ! W ` ' o.F.F.N.C B.v.a b ] b 5 a W T ! n ` c ..} [ o.D.] D.D.T.v.m b x.m & P.P.P.P.P.",
"P.P.P.P.: m.Q.~. X X~.R.Z.T.] C D.E.~.D.c.r 4 c.D.T.E.!. X X3Xm.: V.!.Q.B.D.V.j.< V.Q.E.|.T.C.W.#X#X3X3X XQ.!. XJ.2 . P.P.P.P.P.",
"P.P.P.P.& r C C.T.C.T.~. X~.x C  X X~.W.Z.B < J.~.W.T.~.~.~.R.c.3 C T.T.!.~.~.z.x C.T.E.W.W.Z.& j.Q.~.~.T.W.!.T.h o 2 P.P.P.P.P.",
"P.P.P.P.7 h B V.C.C.C.Z.T.B.3 h B.C.C.C.C.z.x c.T.T.C.C.C.C.C.C.m C C.C.D.C.C.B.B C.C.C.C.T.m.r z.C.C.C.C.C.B.C 3 + l.P.P.P.P.P.",
"P.P.P.P.!.+ r C B.C.C.C.C.C.h > j.C.C.C.C.z.4 B.C.C.C.C.C.C.C.c.& c V.J.T.T.C.c.4 B.T.C.C.C.B 1 z.V.C.C.T.E.E.m.r 6 U.P.P.P.P.P.",
"P.P.P.P.#X+ B N.Z.V.T.T.C.c.c * B.T.C.C.B.x * c.T.C.C.C.c.B.m.j.k r Q.~.W.T.C.B.3 B.C.C.C.C.C : x.B.B.C.T.~.Q.z.3 V Y.L.P.P.P.P.",
"P.P.P.P.3X> z.|. X|.W.T.C.C.x.< x.C.C.W.Q.E.3 C C.C.C.C.B.C.C.C.x.& B.C.C.C.C.C.h C.C.C.C.C.C c C.C.C.C.C.C.B.v > A.U.I.P.P.P.P.",
"P.P.P.P.5X3 v z.E.J.C.C.C.C.B.x C C.T.W.Q.V.3 m.B.C.T.T.C.C.C.C.c.< c.C.C.C.C.C.B C.C.C.C.C.z.z.T.T.C.C.C.C.z.v * Z.I.I.P.P.P.P.",
"P.P.P.P.5X3 x C C.C.C.C.C.C.B.m x.Z.C.C.C.c.3 Q.|.~.Q.T.C.C.C.C.C r c.C.C.C.C.V.z.C.C.C.C.C.z.z.C.C.C.C.C.B.B h : #XP.P.P.P.P.P.",
"P.P.P.P.3Xm.r n v.C.C.C.C.C.B.m c.C.C.C.C.z.r m.W.T.C.C.C.C.C.c.C r z.C.C.T.E.B.B B.C.C.C.C.C C B.C.C.C.C.c.m 3 Z 8XI.P.P.P.P.P.",
"P.P.P.P.Y.9Xm.3 v c.B.C.V.B.V x c.C.C.C.V.B x n B.C.C.C.B.C.B.B.x.x C C.C.C.Z.z.B B.T.C.B.m.m c c.C.C.C.B.j.x m.rX5XP.P.P.P.P.P.",
"P.P.P.P.I./.wX}.m.c.z.B.D.D.).A.B z.c.B.B.j.A.x m Z m.c.B C B m [ '.m.B.[ C V m A.C j.x.Z B N.F.m.C C C c.N.'.tXtX/.P.P.P.P.P.P.",
"P.P.P.P.P.Y.5X9X0X7X$X4X9XrXyXyX'.N.N.F.}.%XwX%X'.M.Z Z V m.A.$X0XyX$XN.N.M.A.$XwX4X}.N.A.{.qX9X9X%X%X'.$X$XtXwX3XI.P.P.P.P.P.P.",
"P.P.P.P.P.P.K.U.R.W.|.qX7X7XrXqXwXwXtXrXyXwX^.3X9X9X9X9X9X9X8X4XqXyXqXwXtXtXtXyX3X X4X9XrXyXtXwX9X3X8X9X4X~.^.Y.I.I.P.P.P.P.P.P.",
"P.P.P.P.P.P.P.P.L.G.n.H.H.n.H.3X%XwXwX9X5X!.K.K.U.R. X~.E.H.n.b.H./.5XwXwXwX8X/.n.l.G.U.^.#X^.Y.U.G.G.G.H.I.P.P.I.P.P.P.P.P.P.P.",
"P.P.P.P.P.P.P.P.P.P.K.n.b.G.K.L.U.b.b.b.8 N 7 N l.n.L.n.n.b.b.n.n.G.U.Y.U.n.x.8 8 8 j.l.n.P.K.L.P.n.n.L.P.P.P.P.P.P.P.P.P.P.P.P.",
"P.P.P.P.P.P.P.P.P.P.P.P.I.P.P.P.P.P.P.P.P.P.P.P.P.P.P.P.P.P.P.P.P.P.P.P.P.P.P.P.P.P.P.P.P.P.P.P.P.P.P.P.P.P.P.P.P.P.P.P.P.P.P.P.",
"P.P.P.P.P.P.P.P.P.P.P.P.P.P.P.P.P.P.P.P.P.P.P.P.P.P.P.P.P.P.P.P.P.P.P.P.P.P.P.P.P.P.P.P.P.P.P.P.P.P.P.P.P.P.P.P.P.P.P.P.P.P.P.P.",
"P.P.P.P.P.P.P.P.P.P.P.P.P.P.P.P.P.P.P.P.P.P.P.P.P.P.P.P.P.P.P.P.P.P.P.P.P.P.P.P.P.P.P.P.P.P.P.P.P.P.P.P.P.P.P.P.P.P.P.P.P.P.P.P.",
"P.P.P.P.P.P.P.P.P.P.P.P.P.P.P.P.P.P.P.P.P.P.P.P.P.P.P.P.P.P.P.P.P.P.P.P.P.P.P.P.P.P.P.P.P.P.P.P.P.P.P.P.P.P.P.P.P.P.P.P.P.P.P.P."
};
