/* XPM */
static char *out[] = {
/* columns rows colors chars-per-pixel */
"64 64 220 2 ",
"   c #161C2E",
".  c #1C2234",
"X  c #212536",
"o  c #24283B",
"O  c #2A2C39",
"+  c #26333E",
"@  c #33333A",
"#  c #463936",
"$  c #564D3B",
"%  c #262E41",
"&  c #2C2E41",
"*  c #2A3845",
"=  c #38394A",
"-  c #3B3E52",
";  c #423F40",
":  c #2D414B",
">  c #34484B",
",  c #3C5449",
"<  c #384954",
"1  c #2C545B",
"2  c #3E5157",
"3  c #3C585A",
"4  c #3B635C",
"5  c #3B5D63",
"6  c #396968",
"7  c #387277",
"8  c #4C4F44",
"9  c #464448",
"0  c #4C4D4D",
"q  c #434055",
"w  c #464B57",
"e  c #435959",
"r  c #5A5959",
"t  c #684948",
"y  c #6C4C5B",
"u  c #4A664A",
"i  c #54714D",
"p  c #476759",
"a  c #57785A",
"s  c #6B6542",
"d  c #6F6252",
"f  c #636B5D",
"g  c #414B60",
"h  c #4B4E64",
"j  c #455864",
"k  c #515766",
"l  c #4C5A70",
"z  c #545E74",
"x  c #625A65",
"c  c #4B6465",
"v  c #486868",
"b  c #546C6C",
"n  c #49776A",
"m  c #537569",
"M  c #4F6F71",
"N  c #566579",
"B  c #467976",
"V  c #547574",
"C  c #587A76",
"Z  c #567B7B",
"A  c #5A7D7D",
"S  c #7A6976",
"D  c #6F7371",
"F  c #8E625C",
"G  c #90625D",
"H  c #877650",
"J  c #AA7959",
"K  c #827E6C",
"L  c #8C7073",
"P  c #9D7976",
"I  c #5D825B",
"U  c #60814F",
"Y  c #658959",
"T  c #648A5C",
"R  c #748A5B",
"E  c #6D935C",
"W  c #6D985C",
"Q  c #759958",
"!  c #739C5C",
"~  c #77A25D",
"^  c #7BA55D",
"/  c #7EA95E",
"(  c #598566",
")  c #5D9264",
"_  c #508679",
"`  c #59857A",
"'  c #6B846F",
"]  c #669764",
"[  c #6B9C62",
"{  c #749D62",
"}  c #669872",
"|  c #75A465",
" . c #73A572",
".. c #978B51",
"X. c #B09543",
"o. c #95B54F",
"O. c #9AB74E",
"+. c #9BB94F",
"@. c #87A859",
"#. c #83AC5D",
"$. c #8BAD5C",
"%. c #92AC5B",
"&. c #8EB256",
"*. c #87B059",
"=. c #8BB159",
"-. c #94B553",
";. c #9BB654",
":. c #9CB850",
">. c #94B25A",
",. c #9BB359",
"<. c #A2B353",
"1. c #A3B655",
"2. c #A9B756",
"3. c #A4B952",
"4. c #ABB954",
"5. c #A3B559",
"6. c #AAB659",
"7. c #ACB858",
"8. c #B1B857",
"9. c #968B74",
"0. c #B19D6B",
"q. c #A99474",
"w. c #90AC6E",
"e. c #AFAC71",
"r. c #A5B673",
"t. c #C8A876",
"y. c #CEB17E",
"u. c #B2C678",
"i. c #D4C169",
"p. c #D5C57D",
"a. c #E9DF78",
"s. c #EAE178",
"d. c #3D7D80",
"f. c #5E6F86",
"g. c #587C80",
"h. c #757F80",
"j. c #977E82",
"k. c #3E888B",
"l. c #5B8484",
"z. c #578885",
"x. c #5E8B8B",
"c. c #59918B",
"v. c #4E8F92",
"b. c #45979A",
"n. c #688B88",
"m. c #7A8688",
"M. c #6C938E",
"N. c #629494",
"B. c #679896",
"V. c #669C9C",
"C. c #6A9D9D",
"Z. c #789B96",
"A. c #44A09F",
"S. c #6BA29C",
"D. c #78A597",
"F. c #489BA2",
"G. c #5A9BA5",
"H. c #6D9EA2",
"J. c #45A4A4",
"K. c #46A9A7",
"L. c #47ABA9",
"P. c #4BAAA9",
"I. c #56A8A9",
"U. c #5AB4B0",
"Y. c #6BA2A2",
"T. c #68A8AC",
"R. c #73AAAB",
"E. c #74A8A8",
"W. c #73B2AF",
"Q. c #7DB4B4",
"!. c #78B9B7",
"~. c #7BC5BC",
"^. c #8E9295",
"/. c #8C9695",
"(. c #A68B86",
"). c #B09D86",
"_. c #94B284",
"`. c #84A59B",
"'. c #B4AA8B",
"]. c #A3B581",
"[. c #ABA796",
"{. c #BDBA9D",
"}. c #939FAE",
"|. c #93B0A7",
" X c #82B7B7",
".X c #86BDBC",
"XX c #A2ABAC",
"oX c #ABB4B5",
"OX c #B3B5B9",
"+X c #C4B28A",
"@X c #D3B985",
"#X c #B2C884",
"$X c #87C3BC",
"%X c #9AC4B7",
"&X c #A6CCBC",
"*X c #BBC8B9",
"=X c #D0C28E",
"-X c #D9C592",
";X c #E3D09B",
":X c #CAC4A1",
">X c #E8D7A2",
",X c #EFE1AB",
"<X c #AEB7C2",
"1X c #8BC6C3",
"2X c #9CCCC4",
"3X c #99D4C7",
"4X c #B8C1C3",
"5X c #ACD7C9",
"6X c #A8D8CB",
"7X c #B4DECC",
"8X c #B8E1CE",
"9X c #B9E6D4",
"0X c #BBE9D6",
"qX c #D8D9DC",
"wX c #C1EBD6",
"eX c #C2EDD9",
"rX c #C7F1DC",
"tX c #F6EECE",
"yX c #FAF6E7",
"uX c #FEFEFC",
/* pixels */
"L.L.L.L.L.L.L.L.L.L.L.L.L.L.L.L.L.L.L.L.L.L.L.L.L.L.L.L.L.L.L.L.L.L.L.L.L.L.L.L.L.L.L.L.L.L.L.L.L.L.L.L.L.L.L.L.L.L.L.L.L.L.L.L.",
"L.L.L.L.L.L.L.L.L.L.L.L.L.L.L.L.L.L.L.L.K.K.G G G G G F G G G G G G G G G F G G F F L.L.L.L.L.L.L.L.L.L.L.L.L.L.L.L.L.L.L.L.L.L.",
"L.L.L.L.L.L.L.L.L.L.L.L.L.L.L.L.L.L.L.L.K.L.F G G G G G G G G G G G G G G G G G F F L.L.L.L.L.L.L.L.L.L.L.L.L.L.L.L.L.L.L.L.L.L.",
"L.L.L.L.L.L.L.L.L.L.L.L.L.L.L.L.L.L.K.L.F G s.s.s.s.s.s.s.s.s.s.s.s.s.s.s.s.s.s.a.s.F F L.L.L.L.L.L.L.L.L.L.L.L.L.L.L.L.L.L.L.L.",
"L.L.L.L.L.L.L.L.L.L.P.P.L.L.L.L.L.L.L.L.G G s.s.s.s.s.s.s.s.s.s.s.s.s.s.s.s.s.s.s.s.F F L.L.L.L.L.L.L.L.L.L.L.L.L.L.L.L.L.L.L.L.",
"L.L.L.L.L.b.4 n 7 B B l.n B c.c.m a F G s.s.i.i.i.i.=X@Xp.i.i.y.i.i.i.i.i.i.i.i.i.i.s.a.F F ` c._ _ n B 7 6 4 7 L.L.L.L.L.L.L.L.",
"L.L.L.L.k.1 , / E ~ T  .W / *.~ / ~ G G s.s.i.i.f   & l w ; '.-Xi.i.i.i.i.i.i.i.i.i.s.s.F F ^ | / / Y Q i ^ ! U 4 A.L.L.L.L.L.L.",
"L.L.L.L.6 Q Y -.%.5.5.2.,.*.-.:.:.-.G G i.i.i.'.O = h f.f.N z ; (.G G G G G G G i.i.i.i.F F ;.;.;.>.$.$.Q #.#.Q Y n k.L.L.L.L.L.",
"L.L.L.L.6 i @.7.4.3.1.-.>.=.:.4.2.2.F G y.i.p.. q q h f.f.f.f.f.h (.F F G G G G y.i.i.i.F F O.<.-.=.=.;.5.,./ | I n b.L.L.L.L.L.",
"L.L.L.L.7 Q | -.+.-.o.+.:.-.o.-.o.&.G G i.i.L @ q h f.f.f.f.; f.f.w q.J J J G G G G i.i.F F o.O.:.o.-.-.2.>.#.#.T B L.L.L.L.L.L.",
"L.L.L.L.B u @.5.2.>.1.o.-.=.-.=.;.=.G G i.i.L @ q f.f.f.f.f.f.; f.f.(.J J J G G G G i.i.F F <.O.o.=.&.-.&.[ W W I v K.L.L.L.L.L.",
"L.L.L.L.3 ! #.5.4.1.3.1.3.;.,.,.,.O.G G i.i.  = q h h g h f.f.z g f.; J G G G G G G i.i.F F O.4.3.4.;.,.>.>./ | ~ n b.L.L.L.L.L.",
"L.L.L.L.) | | #.=.5.3.-.-.=.;.:.O.O.G G y.y.  ; q q X   & h f.f.q f.& J G G G G G G i.i.G G +.+.-.-.=.1.:.4.5./ [ _ _ L.L.L.L.L.",
"L.L.L.L.` D. .[ [ #.-.+.:.:.-.-.o.o.G G @X    - q q -     & f.f.h l   G G G G G G G i.t.G G +.+.:.+.:.-.:.;.>. ._ z.B L.L.L.L.L.",
"L.L.L.L.` [ [ | *.-.&.3.:.+.&.=.$.>.G P . O & & q q q o   X l f.h o & P G G G G G G i.i.G G O.+.3.o.#Xr.=.=.=.| ) N.M K.L.L.L.L.",
"L.L.L.L.z.| | | -.2.5.7.;.-.-.-.O.1.,.  - ; q . q q & ; +X& q ; ; ; +Xq.+XG G G i.i.G G 3.3.3.4.:X4XoX_.:.3.5.#.[ v 5 L.L.L.L.L.",
"L.L.L.L.Z ~ / &.;.3.:.-.:.+.+.:.:.3.r.  w ; g % q q   t.t.q.- ; x t.t.>Xt.).G G i.y.G G 1.+.u.*X&XoXm.r.O.4.1./ W a 6 K.K.L.L.L.",
"L.L.L.L.a / >.;.;.-.-.;.;.=.-.:.>.:.L   < ; - & q =   S 9.@X@X@X@X-X>X-X@X+Xy y X.X.X.X.F G *XoX/.XXm.].;.,.1.R I Y 3 L.L.L.L.L.",
"L.L.L.L.u ^ $.%.>.-.*.=.&.-.:.+.+.O.F   - q ; q ; o q.d     0 9.,X,X,X,X>Xt.j.y X.X.X.X.F [.4X4XXX}.m.r.o.-.%.R E ~ a L.L.L.L.L.",
"L.L.L.L.a | a { ,.3.o.o.-.-.+.-.&.o.F x & q q q -   -Xt.t.@X,X,X,X,XL @X,X-X(.y y y X.X.G 4X4X4XoX/.m._.@.@.@.Q a p 2 K.L.L.L.L.",
"L.L.L.L.e I a ] #.-.:.&.-.=.-.=.%.@.G P   & ; ; X 0 @Xt.t.@X,X,X,X,X. K ,X;Xq.y y y X.X.).OXoX4XXX^.D ].=.=.;.5.Q T 5 L.L.L.L.L.",
"L.L.L.L.> a W ! ,.;.1.5.5.=.:.3.<.5.G G q.w   . . R @Xt.t.=X,X,X,X,Xr 9 ,X,Xo y y y X.X.OX/./.4X/.^.w 3.3.3.,.%.E m 3 L.L.L.L.L.",
"L.L.L.L.< n m / 5.8.3.=.-.&.:.3.2.2.G P q.X.j.z   '.t.t.t.;X,X,X,X,X9.  ,X0 x y y y X.t.XX/.XXXX/.r w.3.3.7.6.! < g.Z L.L.L.L.L.",
"L.L.L.L.v ( W ^ =.,.:.+.-.-.-.=.-.@.P     q.; j.  >Xt.t.t.t.D 9.K K 9         r y y X.].XX/.oX/./.. r.&.-.,.-.~ Y u > L.L.L.L.L.",
"L.L.L.L.3 ~ W [ >.7.3.3.3.3.=.=.%.r.  x OX- S S r -Xt.y.;X-X9.k           = =X  S y 0.  /./.oX/.q R >.=.>.=.#.! ^ u * L.L.L.L.L.",
"L.L.L.L.4 ) ~ #.-.7.4.1.6.,.7.7.2.r.0 0 ^.uX^.  w t.t.t.t.t.@X,X,XK K   K ,Xy.  S y   e ^.b /.m.  r.1.1.#.[ W I i , : L.L.L.L.L.",
"L.L.L.L.n ) | W ~ $.>.+.&.&.-.:.o.r.9.[.r j uXqX^.w @ d y d d t.-X,X,X  ,X@Xt.d S L   /.^.D /.k f =.&.;.^ | [ [ ! W > L.L.L.L.L.",
"L.L.L.L.n 7 ) [ ] ] ~ &.=.-.-.-.o.r.D f.m.{.9.tXyXuXuXoXOXOX  t.t.t.,X  ,Xt.t.d 9.9.D /.D /./.% r.1.3.;.&.&.#./ } M.m K.L.L.L.L.",
"L.L.L.L.Z n ) | / #.=.1.:.-.&.=.*.r.9.N f.f.f.{.,X,X,XtXyX<X  t.t.t.,X  ,Xt.q.  f % ^.m.b /.k ' 3.:.1.>.;.;.5.! T n M L.L.L.L.L.",
"L.L.L.L.v I #.>.,.:.1.:.;.:.o.:.o.r.D f.f.f.f.{.,X,X,X,XtX}.  t.t.t.,X= ,Xt.@     = h.= r ^.= r.:.:.o.:.3.4.>.E a a : L.L.L.L.L.",
"L.L.L.L.m I *.7.7.=.-.1.,.=.=.3.o.r.D f.f.f.f.{.,X,X,X,XtX}.  d 0.t.>X,X@X@ <   < - %   r w 0 :.6.;.*.-.;.;.2.$.^ T < L.L.L.L.L.",
"L.L.L.L.Y E / ,.,.:.&.-.:.:.+.o.&.r.9.=Xm.f.f.'.@X,X,X,X,XZ.  &   ; d d   l N     2 h O     f   m :.o.:.-.;.8.,.^ { p L.L.L.L.L.",
"L.L.L.L.p p W / *.=.*.=.&.-.+.+.o.r.9.,X,X[.f.[.t.@X,X,X,Xf.  f.j %     l f.o X ; @ X = = X   z % w.o.O.O.3.8.,.! ! p P.L.L.L.L.",
"L.L.L.L.T ! ! #.-.:.-.-.-.-.-.&.*.r.D ,X,Xt.+X{.{.-X>X,X,XN   q h f.f.f.h & = & d = d   & ; % z < /.-.-.&.&.,.$.~ a 3 L.L.L.L.L.",
"L.L.L.L.p / #.>.,.5.:.-.o.&.&.-.&.=.= >X,X@Xt.'.N f./.9.).5   q ; q q q q q -   @ H t.8 h   & < 0 r.&.-.-.>.,.,.#.T j L.L.L.L.L.",
"L.L.L.L.p I W #.>.;.1.:.-.&.3.3.1.;.k 9.,X,Xy.'.f.f.f.f.w h   q g q q q q ; & % & @ ; D G G w.9.-.-.-.1.1.7.>./ ] n n P.L.L.L.L.",
"L.L.L.L.` [ [ %.7.-.;.:.-.&.o.&.-.@.G   ,X,X-X+Xf.f.f.f.D k   q q q ; ; q &   q q . e.i.F G -.:.+.-.&.-.:.=.#./ } } v L.L.L.L.L.",
"L.L.L.L.z.W #.6.7.>.:.-.-.-.&.&.-.&.G P ' ,X>X^.f.f.f.{.9 w   O o % & . .   ; h o q.i.i.F G ;.-.o.-.&.>.$.) ) ] ] m 3 L.L.L.L.L.",
"L.L.L.L.M I $.7.3.:.3.3.4.1.>.>.-.o.G G @X0 ,XD f.f.[.0 & X # # ; ; # $ #     G i.i.i.i.G F :.3.3.4.:.=.#.#.#.| { I 3 L.L.L.L.L.",
"L.L.L.L.e | #.$.;.3.3.5.5.>.5.2.2.3.3.3.G x 0 j f.m.9.    H ......J ......t O ..e.i.F F *.+.:.4.;.5.,.7.,.2.5.=.[ p * L.L.L.L.L.",
"L.L.L.L.: a T %.8.8.O.O.o.-.>.+.O.<.+.+.F G e.% [.' . $ ..................H s d ..i.G G +.+.:.:.:.:.-.o.;.3.&.#.! a % L.L.L.L.L.",
"L.L.L.L., i R ^ 5.,.1.;.1.-.=.-.;.>.>.,.&.;.F j.    $ t t t t t t t t t t t t t G G :.&.,.;.-.3.2.4.1.*.=.$.&.Q U > % L.L.L.L.L.",
"L.L.L.L.> @ Y / ^ / #.{ / ^ #.$.$.#./ #.^ $.F F G t t t t t t t t t t t t t t G F F >.| -.,.*.:.>.#./ i U U #.U + n * L.L.L.L.L.",
"L.L.L.L.* , Y U u } ` a / a W ] W Y ^ T E ! | @.[ ~ *.^ { i > , u u u m R @.| $.#.^ ! a ] / | / | T , > 3 > a u p N.< K.L.L.L.L.",
"L.L.L.L.: S.V v V.Q.Q.` ( v n _ n p m v p ] T I (  .D.D.M.` x.N.4 n ( n 6 p T I E m ' 4 } [ ` M.S._ S.S.Y.c.n n x.M + L.L.L.L.L.",
"L.L.L.L.: M.E.W..X.XQ.T.H.V._ Z S.E.Q.S.x.e 3 x.S.E.E.W..X.X1Xn.* B.W.W.N.V.B.A < B.R.Y..XY.V.R.1X.X1X1X.XR.W..XC.1 . L.L.L.L.L.",
"L.L.L.L.* e C C.Y.Y.Y.Q.1XQ.c g.$X.XQ.R.C.V < H.Q.R.Y.Q.Q.Q.T.x.2 A Y.Y.W. XQ.l.c V.Y.E.E.R.C.* n.R.Q.W.Y.E.Q.Y.c . 1 K.L.L.L.L.",
"L.L.L.L.6 c V B.V.V.V.V.H.x.2 e B.V.V.V.V.x.c x.Y.V.V.V.V.V.V.B.M Z V.V.V.V.V.N.V V.V.V.V.Y.n.3 g.V.V.V.V.V.N.Z 3 % k.L.L.L.L.L.",
"L.L.L.L.W.+ 2 A N.S.V.V.V.V.j > l.V.V.V.V.l.e V.V.V.V.V.V.V.V.x.* c C.Y.T.V.V.x.3 V.V.V.V.V.Z < z.B.V.V.Y.Y.E.n.e 3 I.L.L.L.L.L.",
"L.L.L.L.$X+ C M.C.N.Y.V.V.x.c : N.V.V.V.N.c * x.V.V.V.V.N.N.x.Z j e R.Q.E.Y.V.N.2 x.Y.V.V.V.Z : l.N.N.V.Y.Q.E.n.< C U.L.L.L.L.L.",
"L.L.L.L.%X: l. X1X XE.Y.V.V.l.< l.V.H.T.R.Z.2 A V.V.V.V.N.V.V.V.z.= N.V.V.V.V.V.j N.V.V.V.V.Z v Y.V.V.V.V.V.N.b < Z.I.L.L.L.L.L.",
"L.L.L.L.3X2 b l.Y.H.V.V.V.V.N.c Z V.Y.R.R.C.2 n.N.V.Y.Y.V.V.V.V.z.2 x.V.V.V.V.V.V V.V.V.V.V.g.l.V.V.V.V.V.V.l.b * Z.P.L.L.L.L.L.",
"L.L.L.L.3X2 c A V.V.V.V.V.V.N.V z.V.V.V.V.n.e R. XQ.W.H.V.V.V.V.A 2 x.V.V.V.V.N.l.V.V.V.V.V.l.x.V.V.V.V.V.N.V e : $XL.L.L.L.L.L.",
"L.L.L.L.1Xn.e M x.V.V.V.V.V.N.b x.V.V.V.V.x.2 n.E.T.C.V.V.V.N.N.Z e x.V.V.Y.T.M.V N.Y.V.V.V.Z Z N.V.V.V.V.x.M 2 A 6XP.L.L.L.L.L.",
"L.L.L.L.U.7Xn.3 M x.N.V.B.N.V c x.V.V.V.N.V c m N.V.V.V.N.B.N.N.x.j Z V.V.V.V.z.M N.V.V.N.n.M v x.V.V.V.N.g.c n.wX6XL.L.L.L.L.L.",
"L.L.L.L.L.~.9X|.n.n.l.N.H.D.D.Z.V l.x.N.N.A Z.c b A x.x.V Z V M ` `.n.N.` A Z M /.Z l.z.A V M.D.n.g.Z Z x.M.`.eX0X~.L.L.L.L.L.L.",
"L.L.L.L.L.P.3X7X7X5X%X2X7XeXrXeX`.n.M.D.|.&X9X&X`.n.A A C n./.%X8XrX%XM.M.n./.%X0X2X|.n.M.|.8X7X7X&X%X|.|.2XeXeX1XP.L.L.L.L.L.L.",
"L.L.L.L.L.L.K.G.T.R. X9X5X5XwX0X9XeXrXwXrXeX$X$X7X7X7X7X8X8X3X2X9XeX9X0XwXeXeXeX.X!.5X7XeXrXeX0X7X1X6X7X3XW.!.U.P.L.L.L.L.L.L.L.",
"L.L.L.L.L.L.L.L.K.F.b.G.H.b.T.!.3X9X0X6X3XW.A.K.I.T.1X!.E.G.v.b.I.1X1X0X9X9X6X~.b.b.F.I. X$X!.U.I.F.F.F.G.I.L.L.L.L.L.L.L.L.L.L.",
"L.L.L.L.L.L.L.L.K.K.J.b.b.F.J.L.I.v.v.z.7 B 6 7 v.b.L.k.b.v.v.b.b.b.U.U.I.F._ d.7 7 g.k.b.L.J.L.K.b.b.L.L.L.L.L.L.L.L.L.L.L.L.L.",
"L.L.L.L.L.L.L.L.L.L.L.L.L.L.L.L.L.L.L.L.L.L.L.L.L.L.L.L.L.L.L.L.L.L.L.L.L.L.L.L.L.L.L.L.L.L.L.L.L.L.L.L.L.L.L.L.L.L.L.L.L.L.L.L.",
"L.L.L.L.L.L.L.L.L.L.L.L.L.L.L.L.L.L.L.L.L.L.L.L.L.L.L.L.L.L.L.L.L.L.L.L.L.L.L.L.L.L.L.L.L.L.L.L.L.L.L.L.L.L.L.L.L.L.L.L.L.L.L.L.",
"L.L.L.L.L.L.L.L.L.L.L.L.L.L.L.L.L.L.L.L.L.L.L.L.L.L.L.L.L.L.L.L.L.L.L.L.L.L.L.L.L.L.L.L.L.L.L.L.L.L.L.L.L.L.L.L.L.L.L.L.L.L.L.L.",
"L.L.L.L.L.L.L.L.L.L.L.L.L.L.L.L.L.L.L.L.L.L.L.L.L.L.L.L.L.L.L.L.L.L.L.L.L.L.L.L.L.L.L.L.L.L.L.L.L.L.L.L.L.L.L.L.L.L.L.L.L.L.L.L."
};
