/* XPM */
static char *out[] = {
/* columns rows colors chars-per-pixel */
"64 64 216 2 ",
"   c #161C2E",
".  c #1C2335",
"X  c #222636",
"o  c #292934",
"O  c #24293B",
"+  c #362F33",
"@  c #25333E",
"#  c #35353A",
"$  c #55523C",
"%  c #2C2E41",
"&  c #2B3747",
"*  c #363C45",
"=  c #36364A",
"-  c #3A3B4D",
";  c #3B3C50",
":  c #423F40",
">  c #2D414B",
",  c #34474A",
"<  c #3C5449",
"1  c #394854",
"2  c #2C545B",
"3  c #3E5157",
"4  c #3C585A",
"5  c #3B635C",
"6  c #396968",
"7  c #387277",
"8  c #4A4B4C",
"9  c #4F5047",
"0  c #434055",
"q  c #464958",
"w  c #445859",
"e  c #5D5A57",
"r  c #684948",
"t  c #6C4C5B",
"y  c #795856",
"u  c #4A664A",
"i  c #476759",
"p  c #567050",
"a  c #57785A",
"s  c #6B6557",
"d  c #756B5A",
"f  c #494E63",
"g  c #465765",
"h  c #525962",
"j  c #50576D",
"k  c #535C72",
"l  c #665E6B",
"z  c #4B6465",
"x  c #486868",
"c  c #546C6C",
"v  c #49776A",
"b  c #537569",
"n  c #4F6F71",
"m  c #566579",
"M  c #467976",
"N  c #547574",
"B  c #587A76",
"V  c #567B7B",
"C  c #5A7D7D",
"Z  c #7B7564",
"A  c #656C72",
"S  c #7B6774",
"D  c #707173",
"F  c #8E625C",
"G  c #90625D",
"H  c #AA7959",
"J  c #886A6E",
"K  c #827E6C",
"L  c #8A767A",
"P  c #9D7A77",
"I  c #5D825B",
"U  c #60814F",
"Y  c #658959",
"T  c #648A5C",
"R  c #748E53",
"E  c #6D935C",
"W  c #6D985C",
"Q  c #759958",
"!  c #739C5C",
"~  c #77A25D",
"^  c #7BA45D",
"/  c #7EA95E",
"(  c #598567",
")  c #5D9264",
"_  c #508679",
"`  c #59857A",
"'  c #6C8F69",
"]  c #669764",
"[  c #6B9C62",
"{  c #669872",
"}  c #76A466",
"|  c #73A572",
" . c #978B51",
".. c #819D58",
"X. c #AF9543",
"o. c #B09543",
"O. c #95B54F",
"+. c #9AB74E",
"@. c #9BB94F",
"#. c #87A859",
"$. c #83AC5D",
"%. c #8BAD5C",
"&. c #92AC5B",
"*. c #8EB256",
"=. c #87B059",
"-. c #8BB159",
";. c #94B553",
":. c #9BB654",
">. c #9CB851",
",. c #94B25A",
"<. c #9BB359",
"1. c #AEA757",
"2. c #A3B655",
"3. c #A9B756",
"4. c #A4B952",
"5. c #ABB954",
"6. c #A3B55A",
"7. c #AAB659",
"8. c #ACB858",
"9. c #B1B857",
"0. c #998667",
"q. c #8E9272",
"w. c #AD916D",
"e. c #86AC64",
"r. c #96AC6E",
"t. c #A9AF75",
"y. c #C8A876",
"u. c #CEB17E",
"i. c #AEC474",
"p. c #D4C169",
"a. c #D4C47C",
"s. c #E9DF78",
"d. c #EAE178",
"f. c #5E6F86",
"g. c #587C80",
"h. c #967D82",
"j. c #3E888B",
"k. c #5B8484",
"l. c #578885",
"z. c #5E8B8B",
"x. c #59918B",
"c. c #4E8F92",
"v. c #45979A",
"b. c #688B88",
"n. c #778388",
"m. c #6B948C",
"M. c #629494",
"N. c #679896",
"B. c #669C9C",
"V. c #6A9D9D",
"C. c #789B96",
"Z. c #44A09F",
"A. c #6BA29C",
"S. c #78A597",
"D. c #489BA2",
"F. c #5A9BA5",
"G. c #6D9EA2",
"H. c #45A4A4",
"J. c #46A9A7",
"K. c #47ABA9",
"L. c #4BAAA9",
"P. c #56A8A9",
"I. c #5AB4B0",
"U. c #6BA2A2",
"Y. c #68A8AC",
"T. c #73AAAB",
"R. c #74A8A8",
"E. c #73B2AF",
"W. c #7DB4B4",
"Q. c #78B9B7",
"!. c #7BC5BC",
"~. c #838A8C",
"^. c #8D9694",
"/. c #8D9497",
"(. c #A48782",
"). c #A69F81",
"_. c #84A59B",
"`. c #B9AA89",
"'. c #A6A898",
"]. c #B7AE99",
"[. c #98A1A1",
"{. c #91B5A9",
"}. c #82B7B7",
"|. c #86BDBC",
" X c #AAB1B2",
".X c #AAB3B4",
"XX c #C1A48C",
"oX c #D4B986",
"OX c #92C4B9",
"+X c #BBCAAC",
"@X c #A6CCBC",
"#X c #CFC181",
"$X c #CAC096",
"%X c #DBC490",
"&X c #E2CE99",
"*X c #E5D29D",
"=X c #CDC7A5",
"-X c #EADAA5",
";X c #EFE1AB",
":X c #8BC6C3",
">X c #9CCCC4",
",X c #99D4C7",
"<X c #B8C1C3",
"1X c #ACD7C9",
"2X c #A8D8CB",
"3X c #B4DECC",
"4X c #B8E1CE",
"5X c #B9E7D5",
"6X c #CFD2D6",
"7X c #C1EBD6",
"8X c #C2EDD9",
"9X c #C7F1DC",
"0X c #F4EBC7",
"qX c #D6DBE0",
"wX c #FAF6E7",
"eX c white",
/* pixels */
"K.K.K.K.K.K.K.K.K.K.K.K.K.K.K.K.K.K.K.K.K.K.K.K.K.K.K.K.L.L.J.J.J.K.K.K.K.K.K.K.K.K.K.K.K.K.K.K.K.K.K.K.K.K.K.K.K.K.K.K.K.K.K.K.",
"K.K.K.K.K.K.K.K.K.K.K.K.K.K.K.K.K.K.K.K.J.K.G F G G G G G G G G G G G G G G G G F F K.K.K.K.K.K.K.K.K.K.K.K.K.K.K.K.K.K.K.K.K.K.",
"K.K.K.K.K.K.K.K.K.K.K.K.K.K.K.K.K.K.K.K.J.K.F F G G F G G G G G G G G G G G G G F F K.K.K.K.K.K.K.K.K.K.K.K.K.K.K.K.K.K.K.K.K.K.",
"K.K.K.K.K.K.K.K.K.K.K.K.K.K.K.K.K.K.J.K.F F s.d.d.d.s.s.d.d.d.d.d.d.d.d.d.d.d.d.s.s.F F K.K.K.K.K.K.K.K.K.K.K.K.K.K.K.K.K.K.K.K.",
"K.K.K.K.K.K.K.K.K.K.L.L.K.J.J.J.J.J.J.K.G G d.d.d.d.d.d.d.d.d.d.d.d.d.d.d.d.d.d.d.d.F F K.J.K.K.K.K.K.K.K.K.J.J.K.K.K.K.K.K.K.K.",
"K.K.K.K.K.v.6 6 7 7 g.k.v _ x.x.( a F F d.d.p.p.p.p.p.p.p.p.p.p.p.p.p.p.p.p.p.p.p.p.s.s.F F l.x._ _ v M M 6 6 7 Z.K.K.K.K.K.K.K.",
"K.K.K.K.j.2 < / E ~ T } W / =.~ #.Q G G d.d.p.p.p.u.p.p.p.p.p.u.p.p.p.p.p.p.p.p.p.p.d.d.F F ^ ^ / / Y Q u ~ ~ U 5 v.J.J.K.K.K.K.",
"K.K.K.K.6 Q R *.,.<.6.3.<.=.;.@.4.;.G G p.p.p.p.P e - w L L (.G G G G G G G G G p.p.p.p.F F :.<.2.;.$.%.Q $.$.Q Y v v.K.K.K.K.K.",
"K.K.K.K.6 p #.8.5.4.4.;.,.*.>.5.4.4.G G u.p.u.a.  ; f f f.f.f.: w.G G G G G G G u.u.u.p.F F @.+.,.*.*.,.2.<./ ~ Y v v.K.K.K.K.K.",
"K.K.K.K.6 E ^ ,.@.;.;.@.+.;.+.;.;.O.G G p.p.G   % 0 f f.f.f.f.f.f w.H H H H G G G G p.p.F F +.+.>.+.;.;.8.,.$.$.T 7 K.J.K.K.K.K.",
"K.K.K.K.M p $.2.3.,.2.O.;.-.*.*.,.#.G G p.p.0.. 0 f.f.f.f.f f f.f.: w.H H H G G G G p.p.F F 2.+.+.-.=.+.*.[ [ W T x H.J.K.K.K.K.",
"K.K.K.K.5 W $.6.8.2.2.4.4.2.,.<.:.2.G G p.p.L # : j f.f.f.f.f.: f.f.(.H G G G G G G p.p.F F +.4.4.4.<.<.<.-./ } ~ v v.J.K.K.K.K.",
"K.K.K.K.( | } $.-.2.4.;.,.-.:.>.:.+.G G p.u.f.% 0 0 0 j k f.f.f.f f.: H G G G G G G p.p.F F @.@.;.;.-.2.:.5.:.e.[ M _ K.K.K.K.K.",
"K.K.K.K.{ S.| [ [ $.;.>.@.@.;.;.O.O.G G p.u.: 0 0 ; O O = j f.f.f f.= G G G G G G G p.p.F F +.@.>.@.@.;.@.>.,.| _ l.V K.K.K.K.K.",
"K.K.K.K.` [ [ ~ =.;.;.>.>.+.*.-.#.O.G G y.  . 0 0 0 =     % f.f.f j   G G G G G G G p.p.F F +.@.>.@.+.=.-.*.-.} ) M.n J.K.K.K.K.",
"K.K.K.K.l.[ } } <.8.<.7.2.;.;.;.+.2.+.l   o   = 0 0 0 %   % j f.f %   h.G G G G p.p.G G 4.4.@.9.6.<.6.*.>.4.6.$.[ x 6 K.K.K.K.K.",
"K.K.K.K.M ~ $.*.>.4.>.,.;.>.>.@.4.4.t.  ; 0 ; . 0 0 % # J o 0 j : + w.d XXG F F p.p.F F 4.@.4.i.+X<Xi.O.4.4.2.} W a 6 K.K.K.K.K.",
"K.K.K.K.a e.,.<.<.;.;.>.>.*.;.>.;.@.q.% : 0 :   0 =   XXy.w.0 : S y.y.*XoX(.t t o.o.o.o.F F ;.<X[.[.r.;.:.:.2.R a Y 4 K.K.K.K.K.",
"K.K.K.K.w } %.#.,.;.=.-.*.;.>.@.@.+.P % 0 0 %   : =   w.%Xu.y.t.y.oX&X*XXX`.t t o.o.o.o.F F +X<X^.{.*.@.+.,.&.R W ^ a K.K.K.K.K.",
"K.K.K.K.a $.a ! :.4.;.;.;.;.@.*.*.O.F   ; 0 ; ; : = K 9   e q.w.;X-X;X&X-Xy.h.t t t X.X.F P <X<X.X.Xr.@.*.e.Q Q a i 3 J.K.K.K.K.",
"K.K.K.K.u I a ] $.;.@.;.;.-.;.-.=.=.F L % 0 0 0 = e &Xy.y.oX;X;X;X;XK `.;X%X`.t t t o.o.F .X<X<X<X^.e.:.*.*.:.3.Q T 4 K.K.K.K.K.",
"K.K.K.K., a E ! <.<.4.2.2.*.>.4.4.,.G P   = 0 = X K y.y.y.oX;X;X;X;X  8 ;X*Xy.J t t o.o.(.<X/..X<X^.e.4.4.2.<.&.T b g K.K.K.K.K.",
"K.K.K.K.1 v b / 6.9.4.*.;.-.2.4.4.4.F F y         ).y.y.y.oX;X;X;X;X8   ;X;X: S t t o.o.]. X^..X[.^...4.4.5.7.Q < g.V K.K.K.K.K.",
"K.K.K.K.6 ( ! ^ -.:.<.@.;.*.;.*.O.*.L P o.w.f.0   t.y.y.y.&X;X;X;X;XK   ).K   J t t o.1..X^.^..X^.n.R O.<.<.,.Q U i , K.K.K.K.K.",
"K.K.K.K.4 ~ W [ ,.8.4.4.4.2.*.-.&.s A   s X.t S   %Xy.y.XXXXq.Z K K q           S t X.w. X^. X[.^.h #.-.,.%.$.! / u & K.K.K.K.K.",
"K.K.K.K.5 ) ~ / ,.5.5.4.7.<.7.7.q.  ~.6Xj s S S 8 oXy.oX;XoX8               `.K L t X.Z ^.^..X[.^.  <.7.#.[ [ I p 9 > K.K.K.K.K.",
"K.K.K.K.v ) ~ [ ~ %.;.:.*.*.;.>.r.Z q.; .XqX~.  e w.y.y.y.oX&X;X).e s   8 $X%Xs l t 1.+ ^.^.n.^.1 w -.>.^ ! [ [ [ W , K.K.K.K.K.",
"K.K.K.K.v 7 ) [ ] ] } *.-.;.;.;.*.8 ^.=XZ h.qXeXeX/.        y.y.%X;X;X  t.oXy.y.Z o.w.h ^.D ^.n.  t.2.>.*.*.$.$.[ m.n K.K.K.K.K.",
"K.K.K.K.V v ) ~ $.$.*.2.>.+.*.=.%.  ^.f.~.'.;X;X0XeXeXeXeXm y.y.y.y.;X  ).y.y.y.9 o.  f.^.D ^.h s >.>.,.;.>.6.W E N b K.K.K.K.K.",
"K.K.K.K.n I e.<.<.:.2.<.:.;.+.:.+.  ^.f.f.f.^.;X;X;X0XwX6X& y.y.y.XX;X  ).y.y.s   Z 1 ^.3 D ^.0 i.+.;.>.2.3.<.E a i > J.K.K.K.K.",
"K.K.K.K.a T $.8.5.*.*.4.<.=.*.>.:.  ^.f.f.f.^.;X;X;X;X0XqX1 0.y.y.y.;X  oXy.#   O   q h O A A ' 4.,.=.;.>.2.3.;.^ T 2 L.K.K.K.K.",
"K.K.K.K.Y T ^ <.<.>.;.;.>.>.>.+.*.  ^.f.f.f.^.&X;X;X;X;XwXg : 0.y.y.;X;X;X: & ; = 1 &   * c > t.:.>.@.@.*.:.8.,./ W i K.K.K.K.K.",
"K.K.K.K.i i [ $.=.-.=.-.*.;.@.@.;.  *X'.n.f.^.y.%X;X;X;X.Xj O O * s 0.0.e 1 f..   & q ; O O O , & w <.>.@.4.9.<.! [ i K.K.K.K.K.",
"K.K.K.K.T ! ! $.,.:.;.+.;.;.;.=.=.q.).;X;X`.n.*XoXu.;X;X=Xf.  j q %     1 1   = # y   . ; : . & f.; ,.;.*.*.<.-.} a 4 K.K.K.K.K.",
"K.K.K.K.i ^ $.*.<.4.>.;.+.-.;.;.*.e.).;X;Xy.oX'.~.XX;X;X;Xf   0 0 j j f 0 0 ; 0 9 :  .s   O = ; f.% ,.,.;.,.,.<.$.T w K.K.K.K.K.",
"K.K.K.L.i I E #.,.:.2.;.:.*.>.4.2.<.8 ;X;X&Xy.'.f.f.f.m h j . : 0 0 0 0 0 0 : =     w.J q L 8 % O r.;.4.4.8.,.#.] b n J.K.K.K.K.",
"K.K.K.K.B { } -.8.,.:.@.;.;.;.*.*.=.L `.;X;XoX'.f.f.f.f.K g   f 0 0 : : 0 0 ;   ; O   e G F ;.@.;.*.*.;.:.-.$./ { { x K.K.K.K.K.",
"K.K.K.K.` ] #.7.8.,.:.+.;.;.*.*.,.*.P 8 ;X;X&X~.f.f.f./.K g   : 0 0 f ; % O     ; :   #XF G <.;.+.;.*.,.%.) ) ) ] b 4 K.K.K.K.K.",
"K.K.K.K.v T e.7.7.>.>.5.4.2.,.&.O.+.G P D $X;Xm f.f.n.'.& &             + o   % u 0.t.p.F F >.4.4.5.2.-.=.$.e.} W T 4 K.K.K.K.K.",
"K.K.K.K.w ~ $.-.:.>.4.4.6.,.3.8.3.4.4.4.P   $X1 f.f.`..   $  . . . . . .H $   9  .u.G F *.>.@.5.<.<.<.7.<.5.2.%.W i > K.K.K.K.K.",
"K.K.K.K.> a E #.9.9.+.+.O.;.,.@.+.2.@.+.G P # & f.'.8   #  . . . . . . . . . . . .p.F F +.@.@.>.@.;.O.O.:.4.*./ ! a @ K.K.K.K.K.",
"K.K.K.K.< p E ^ <.<.4.2.>.;.*.;.:.&.,.,.*.<.P   D Z . o r r r r t r r r r r r r G G :.=.<.<.;.4.5.8.>.*.,.=.*.Q U , @ K.K.K.K.K.",
"K.K.K.K.1 @ U $.^ / / } $.^ $.%.%.$.} $.$.$.G P S e $ r r r r r r r r r r r y G F F &.^ ,.<.e.,.<.#.^ p I U / U & v & K.K.K.K.K.",
"K.K.K.K.& < R U i { ( a ~ a [ ] W Y $.Y E ! $.#.[ ! $.$.} p < , u u w ( ' #.! %.$.^ ! a [ / } / [ T 5 , < , I u 5 M., K.K.K.K.K.",
"K.K.K.K.& U.N i B.W.W.g.( v 6 _ v i b x i E T ( ( | S.S.m.B M.M.5 v v v 6 i T I E b ( z { ] ` | A._ B.A.A.x.v x z.M & K.K.K.K.K.",
"K.K.K.K.> m.R.W.|.|.W.T.V.A._ V A.R.W.A.z.4 4 z.U.U.S.Q.|.|.|.z.> N.W.T.N.A.N.C 1 N.T.R.}.U.B.T.:XOX:X:X:XT.E.|.G.> . K.K.K.K.K.",
"K.K.K.K.& w B B.U.U.U.W.|.}.z V OX|.W.T.B.B 1 G.}.R.U.W.Q.W.R.z.w C U.U.E.W.W.k.z B.U.R.T.T.B.& g.W.Q.E.U.R.W.U.g O 2 J.K.K.K.K.",
"K.K.K.K.6 z N B.B.B.B.B.U.b.4 g M.B.B.B.B.k.z z.U.B.B.B.U.B.B.B.x V B.B.A.B.B.M.n B.B.B.B.U.b.w k.B.B.B.B.B.M.V 3 @ j.K.K.K.K.K.",
"K.K.K.K.E.@ 3 V B.B.B.B.B.M.g 1 k.B.B.B.B.k.w M.B.B.A.B.B.B.B.z.& z N.U.U.U.B.z.4 M.B.B.B.B.V 1 k.N.B.B.U.R.R.b.w g P.K.K.K.K.K.",
"K.K.K.K.OX% N M.V.M.B.U.B.b.x > x.B.B.B.M.g & M.B.B.B.B.M.M.z.B z 3 W.W.T.U.B.M.3 M.B.B.B.V.M > k.M.M.B.U.W.R.C 3 B I.K.K.K.K.K.",
"K.K.K.K.OX, k.}.|.}.R.U.B.B.k., z.B.U.R.W.R.1 B B.B.B.B.M.B.B.B.k.& M.B.B.B.B.B.g B.B.U.B.B.V x U.B.B.B.B.B.N.c , C.P.K.K.K.K.K.",
"K.K.K.K.,Xw x k.R.U.B.B.B.B.M.x V B.U.T.T.N.3 b.M.U.U.B.B.B.B.B.z.1 z.B.B.B.B.B.N B.B.B.B.B.g.k.B.B.B.B.B.B.k.z & V.L.K.K.K.K.K.",
"K.K.K.K.,X3 z C B.B.B.B.B.B.N.n k.B.B.B.B.z.3 R.}.W.T.U.B.B.B.B.V 4 z.B.B.B.B.M.k.B.B.B.B.B.k.z.U.B.B.B.B.N.N g > OXK.K.K.K.K.K.",
"K.K.K.K.:Xb.w c M.B.B.B.B.B.M.c z.B.B.B.B.z.3 b.T.U.U.B.B.B.M.M.V w z.B.B.U.R.M.N M.B.B.B.B.V V M.B.B.B.B.z.c 3 C 2XL.K.K.K.K.K.",
"K.K.K.K.I.2Xb.w n z.M.M.M.M.B z z.B.B.B.M.B z N M.B.B.B.M.M.M.M.z.g B B.B.B.B.k.N M.B.B.M.b.x n z.B.B.B.M.k.z m.7X,XK.K.K.K.K.K.",
"K.K.K.K.K.!.5X{.b.k.k.N.G.S.S.C.N k.z.M.M.C C.z c V z.z.V B N n ` _.b.M.g.` B c C.N k.z.g.B m.S.k.g.V V b.b._.5X8X!.K.K.K.K.K.K.",
"K.K.K.K.K.L.,X3X4X1X@X>X3X7X8X8X_.m.m.S.{.@X5X@X_.b.C C B b._.{.4X9XOXC.b.b.^.OX5X@X{.m.C.[.5X3X3X>X{.{.{.>X8X8X:XL.K.K.K.K.K.K.",
"K.K.K.K.K.K.K.F.Y.T.}.5X1X2X7X5X5X9X8X7X9X8XQ.OX3X3X3X3X3X4X2X>X5X8X5X8X7X8X9X9X|.W.2X1X8X9X5X5X3X>X2X3X2XE.Q.I.L.K.K.K.K.K.K.K.",
"K.K.K.K.K.K.K.K.K.D.v.F.Y.c.Y.Q.,X5X5X2X,XE.H.H.P.Y.|.W.T.F.c.v.P.!.,X5X5X5X2X!.v.D.D.P.Q.OXQ.I.P.D.D.D.F.L.K.K.K.K.K.K.K.K.K.K.",
"K.K.K.K.K.K.K.K.K.K.D.v.v.v.K.K.F.c.c.l.7 M 6 M v.v.Z.D.v.c.c.v.v.v.P.I.I.v._ 7 7 7 g.j.v.J.H.J.J.v.v.J.J.J.K.K.K.K.K.K.K.K.K.K.",
"K.K.K.K.K.K.K.K.K.K.K.K.J.K.K.K.K.K.K.K.K.K.K.K.J.K.K.K.K.K.K.K.K.K.K.K.J.K.K.K.K.K.K.K.K.K.K.K.K.K.K.K.K.K.K.K.K.K.K.K.K.K.K.K.",
"K.K.K.K.K.K.K.K.K.K.K.K.J.J.K.K.K.K.K.K.K.K.K.K.J.J.K.K.K.K.K.K.K.K.K.K.J.K.K.K.K.K.K.K.K.K.K.K.K.K.K.K.K.K.K.K.K.K.K.K.K.K.K.K.",
"K.K.K.K.K.K.K.K.K.K.K.K.K.K.K.K.K.K.K.K.K.K.K.K.K.K.K.K.K.K.K.K.K.K.K.K.K.K.K.K.K.K.K.K.K.K.K.K.K.K.K.K.K.K.K.K.K.K.K.K.K.K.K.K.",
"K.K.K.K.K.K.K.K.K.K.K.K.K.K.K.K.K.K.K.K.K.K.K.K.K.K.K.K.K.K.K.K.K.K.K.K.K.K.K.K.K.K.K.K.K.K.K.K.K.K.K.K.K.K.K.K.K.K.K.K.K.K.K.K."
};
