/* XPM */
static char *out[] = {
/* columns rows colors chars-per-pixel */
"64 64 217 2 ",
"   c #161C2E",
".  c #1D2435",
"X  c #222535",
"o  c #24283B",
"O  c #282D3D",
"+  c #352D33",
"@  c #25333E",
"#  c #333339",
"$  c #564D3B",
"%  c #2C2E41",
"&  c #2B3846",
"*  c #353549",
"=  c #383C48",
"-  c #3A3E52",
";  c #423F41",
":  c #34484B",
">  c #3C5449",
",  c #2C4850",
"<  c #384952",
"1  c #3A455A",
"2  c #3E5157",
"3  c #3C585A",
"4  c #3B635C",
"5  c #3B5D63",
"6  c #396968",
"7  c #387277",
"8  c #4C4C4C",
"9  c #534947",
"0  c #425945",
"q  c #434055",
"w  c #494858",
"e  c #455858",
"r  c #5B5B56",
"t  c #684948",
"y  c #6C4C5B",
"u  c #635C52",
"i  c #4C6749",
"p  c #56754C",
"a  c #476759",
"s  c #57795A",
"d  c #6C6555",
"f  c #746A55",
"g  c #4B4D63",
"h  c #465864",
"j  c #535B62",
"k  c #50576D",
"l  c #4C5A70",
"z  c #555F75",
"x  c #655D69",
"c  c #4B6465",
"v  c #486868",
"b  c #546B6B",
"n  c #49776A",
"m  c #537569",
"M  c #4F6F71",
"N  c #566579",
"B  c #467976",
"V  c #547574",
"C  c #587A76",
"Z  c #567B7B",
"A  c #5A7D7D",
"S  c #676666",
"D  c #7A6A76",
"F  c #6F7571",
"G  c #747C7C",
"H  c #8E625C",
"J  c #90625D",
"K  c #8C795E",
"L  c #AA7959",
"P  c #857465",
"I  c #827E6C",
"U  c #8C6F71",
"Y  c #9C7A77",
"T  c #A17B77",
"R  c #5D825B",
"E  c #60814F",
"W  c #65895A",
"Q  c #778F5A",
"!  c #6D935C",
"~  c #6D985C",
"^  c #759959",
"/  c #739C5C",
"(  c #77A25D",
")  c #7BA45D",
"_  c #7EA95E",
"`  c #598567",
"'  c #5D9264",
"]  c #508679",
"[  c #59857A",
"{  c #62876E",
"}  c #758169",
"|  c #669764",
" . c #6B9C63",
".. c #719C63",
"X. c #669872",
"o. c #75A466",
"O. c #73A572",
"+. c #978B51",
"@. c #B09543",
"#. c #98B64F",
"$. c #9BB94F",
"%. c #87A75A",
"&. c #83AC5D",
"*. c #8BAD5C",
"=. c #92AC5B",
"-. c #8EB256",
";. c #87B059",
":. c #8BB159",
">. c #94B553",
",. c #9BB654",
"<. c #9DB850",
"1. c #94B25A",
"2. c #9BB359",
"3. c #A3AE57",
"4. c #A3B655",
"5. c #A9B756",
"6. c #A4B952",
"7. c #ABB954",
"8. c #A3B559",
"9. c #AAB659",
"0. c #ACB858",
"q. c #B1B857",
"w. c #928C6F",
"e. c #AD9175",
"r. c #90B16E",
"t. c #96A375",
"y. c #AAB072",
"u. c #C8A876",
"i. c #C7AD7D",
"p. c #CEB17E",
"a. c #D4C169",
"s. c #D6C577",
"d. c #E9DF78",
"f. c #EAE178",
"g. c #3D7D80",
"h. c #5E6F86",
"j. c #587C80",
"k. c #6D7A8B",
"l. c #3E888B",
"z. c #5B8484",
"x. c #578885",
"c. c #5E8B8B",
"v. c #59918B",
"b. c #4E8F92",
"n. c #45979A",
"m. c #688B88",
"M. c #788689",
"N. c #6C938E",
"B. c #629494",
"V. c #679896",
"C. c #669C9C",
"Z. c #6A9D9D",
"A. c #789B96",
"S. c #44A09F",
"D. c #6BA29C",
"F. c #78A597",
"G. c #489BA2",
"H. c #5A9BA5",
"J. c #6D9EA2",
"K. c #45A4A4",
"L. c #46A9A7",
"P. c #47ABA9",
"I. c #4BAAA9",
"U. c #56A8A9",
"Y. c #5AB4B0",
"T. c #6BA2A2",
"R. c #68A8AC",
"E. c #73AAAB",
"W. c #74A8A8",
"Q. c #73B2AF",
"!. c #7DB4B4",
"~. c #78B9B7",
"^. c #7BC5BC",
"/. c #8E908F",
"(. c #8C9695",
"). c #A68D84",
"_. c #A69F81",
"`. c #96B284",
"'. c #84A59B",
"]. c #B2AF8C",
"[. c #A6A898",
"{. c #959EA0",
"}. c #9BA5A5",
"|. c #91B5A9",
" X c #82B7B7",
".X c #86BDBC",
"XX c #AAB2B3",
"oX c #C1A488",
"OX c #D3B885",
"+X c #B2C88C",
"@X c #92C4B9",
"#X c #ABCCB8",
"$X c #CBC092",
"%X c #DBC490",
"&X c #E2CE99",
"*X c #E5D29D",
"=X c #CBC5A4",
"-X c #E8D8A3",
";X c #EFE1AB",
":X c #F1E6B9",
">X c #AEB7C2",
",X c #8BC6C3",
"<X c #9CCCC4",
"1X c #99D4C7",
"2X c #B8C1C3",
"3X c #ACD7C9",
"4X c #A8D8CB",
"5X c #B4DECC",
"6X c #B8E1CE",
"7X c #B9E7D5",
"8X c #C6C8CC",
"9X c #C1EBD6",
"0X c #C2EDD9",
"qX c #C7F1DC",
"wX c #F6EECF",
"eX c #E4E7EA",
"rX c white",
/* pixels */
"P.P.P.P.P.P.P.P.P.P.P.P.P.P.P.P.P.P.P.P.P.P.P.P.P.P.P.P.I.L.I.L.P.P.P.P.P.L.P.P.P.P.P.P.P.P.P.P.P.P.P.P.P.P.P.P.P.P.P.P.P.P.P.P.",
"P.P.P.P.P.P.P.P.P.P.P.P.P.P.P.P.P.P.P.P.L.L.J J J J J J J J J J J J J J J J J J H H P.P.P.P.P.P.P.P.P.P.P.P.P.P.P.P.P.P.P.P.P.P.",
"P.P.P.P.P.P.P.P.P.P.P.P.P.P.P.P.P.P.P.P.L.P.H J J J H J J J J J J J J J J J J J H H P.L.P.P.P.P.P.P.P.P.P.P.P.P.P.P.P.P.P.P.P.P.",
"P.P.P.P.P.P.P.L.P.P.P.P.P.P.P.P.P.P.L.L.J J f.f.f.f.f.f.f.f.f.f.f.f.f.f.f.f.f.f.d.f.H H P.P.P.P.P.P.P.P.P.P.P.P.P.P.P.P.P.P.P.P.",
"P.P.P.P.P.P.L.L.L.L.P.L.P.L.L.P.P.P.L.P.J J f.f.f.f.f.f.f.f.f.f.f.f.f.f.f.f.f.f.f.d.H H P.P.P.L.P.P.P.P.P.P.P.P.P.P.P.P.P.P.P.P.",
"P.P.P.P.P.n.6 n 7 j.B z.n ] v.v.m s H H f.f.a.a.a.a.a.a.a.a.a.a.a.a.a.a.a.a.a.a.a.a.d.d.H H x.v.] ] n B 7 6 4 7 L.P.P.P.P.P.P.P.",
"P.P.P.P.l., > _ W ( ! O.~ _ ;./ &.) J J f.f.p.a.a.a.a.a.a.a.a.p.a.a.a.a.a.a.a.a.a.a.f.f.H H ) ) _ &.W ^ i _ ( E 4 n.P.P.P.P.P.P.",
"P.P.P.P.6 ^ ! -.:.,.3.5.2.;.>.<.6.,.J J a.s.I k 1 z z z g w ).U J J J J J J J J a.a.a.a.H H 2.2.,.1.;.*.^ &.&.^ W n l.P.P.P.P.P.",
"P.P.P.P.6 p ) 7.7.6.6.1.-.-.<.7.6.6.J J p.u & q k h.h.h.h.h.z x e.J J J J J J J p.p.a.a.H H $.<.1.-.-.2.8.2._ ( W n n.P.P.P.P.P.",
"P.P.P.P.6 ^ _ 2.<.>.#.<.#.>.>.>.>.>.J J s.X ; ; k g h.h.g h.h.h.- L L L L L J J J J a.a.H H #.$.>.#.>.>.7.1.&.&.W 7 P.P.P.P.P.P.",
"P.P.P.P.B a %.8.5.1.4.#.>.-.-.-.2.%.J J r * ; h.h.h.h.h.h.w k h.g ).L L L L J J J J a.a.H H 4.#.$.-.-.#.-. . ./ W v K.P.P.P.P.P.",
"P.P.P.P.3 / &.8.0.4.6.4.6.,.2.2.,.<.J J   - k h.g q ; g h.h.- h.k e.L L J J J J J J a.a.H H $.6.6.6.2.2.1.*._ o.o.n n.P.P.P.P.P.",
"P.P.P.P.| o.o.&.:.4.6.<.1.-.2.<.#.#.J J   q q q *     * z h.g z * Y L L J J J J J J a.a.H H $.$.>.>.-.4.<.0.4._  .n ] P.P.P.P.P.",
"P.P.P.P.[ F.O.|  .;.-.>.<.$.>.>.>.#.J J   q q q * o     k h.k q   Y H H H J J J J J a.a.H H $.$.$.$.<.>.>.<.1.O.] x.j.P.P.P.P.P.",
"P.P.P.P.[  . .( ;.>.-.6.<.<.-.-.*.1.J Y   % q q ; %     q h.g % ; r e.H J J J J J J a.a.H H $.$.6.<.#.&.:.-.:.o.X.v.v P.P.P.P.P.",
"P.P.P.P.v. .o.o.2.5.4.0.,.>.>.-.,.8.w     . q q - + oX; * q ; 9 u.e.u.Y J J J J a.a.H H 6.6.$.7.6.,.>.-.,.6.8.&. .v 6 P.P.P.P.P.",
"P.P.P.P.B o.;.-.<.<.<.>.,.>.$.$.6.t.o ; 1 o q q   w.u.u.f f P e.OX-XOXoXJ J J J a.a.J J 4.<.6.4.+X#X+X$.6.6.3.) ~ s 6 L.P.P.P.P.",
"P.P.P.P.R _ :.,.<.1.1.<.,.>.>.<.y.  - q q o q %   # I &X&XOX%X&X-XOX&Xu.y y y y @.@.@.@.H J +X2X2X}.y.$.#.,.8.Q R W 3 P.P.P.P.P.",
"P.P.P.P.e o.%.=.1.>.&.-.-.>.$.$.r.O 1 g q * q o ].f     = I ;X;X;X;X;XOX).y y y @.@.@.@.H [.XX}.}.k.y.#.#.-.%.Q ! ( s P.P.P.P.P.",
"P.P.P.P.p %.s ..2.6.#.>.>.>.>.>.t.. ; ; q q *   -Xu.u.u.;X;X;X;Xr _.-X&XoXy y y y y @.@.T 2XXX{.XX} `.>.:.%.%.^ s e 2 P.P.P.P.P.",
"P.P.P.P.e ` s ! &.#.<.-.>.;.>.-.r.  - q q q . U %Xu.u.u.;X;X;X;X    ;X;Xw.D y y y y @.@.XX2X2XXX(.G `.>.>.-.,.8.^ W 3 P.P.P.P.P.",
"P.P.P.P.> s ~ / 2.2.6.4.<.-.<.6.8.S o ; q %   D OXu.u.p.;X;X;X;XI   ].;X  D y y y y @.u.2X2X2XXX(.G `.6.6.8.2.=.W m 6 P.P.P.P.P.",
"P.P.P.P.< n s o.8.q.6.-.>.-.$.6.6.5.w.  O     $Xu.u.i.%X;X;X;X;XI   u r   U y y y y @.2X}.}.2X}.M.% r.6.7.7.8.^ > j.Z P.P.P.P.P.",
"P.P.P.P.6 ` ~ _ -.2.,.>.#.-.>.>.:.d 9 J e.F   %Xu.p.%X*X                8 8 U y y y #XXX(.}.{.(.j t.>.>.,.2.1.) E a : P.P.P.P.P.",
"P.P.P.P.3 ( ~  .1.7.6.6.6.4.:.y.  /.  Y @.e.} OXi.u.%X-XOXG   .       ; ;Xf D y y D 2X(.(.XX(.(.8 6.>.:.1.:.%./ %.i & P.P.P.P.P.",
"P.P.P.P.4 ' ( _ 1.0.7.4.5.2.9.F   (.8X- f r w.u.u.u.u.i.OX&X;XoX_.  = ;XOXK x y y D j (.}.}.(.< y.8.8.4.&. . .R p > & P.P.P.P.P.",
"P.P.P.P.n ' (  .o.*.,.#.-.-.>.} ;X8 N rX8X- 8 d w.u.u.u.u.u.u.OX;X  I OXu.u.x y U   (.(.b (.G   r.1.:.4.) (  . ./ ~ : P.P.P.P.P.",
"P.P.P.P.n 7 ' / | | ( :.-.>.>.} [.M.e./.8XrXrX(./.      9 u.u.u.;X  I OXu.oXx y w.j (.G M.(.* d <.<.6.>.-.-.&._ X.N.m P.P.P.P.P.",
"P.P.P.P.Z n ' o.&.&.-.4.<.>.-.{ [.h.M.[.;X:XwXrXrXrXrXrX9 u.u.u.;X  w.%Xu.9 w y   k.(.S (.C . <.7.<.6.1.>.,.8.^ W V n P.P.P.P.P.",
"P.P.P.P.M R &.1.,.,.6.2.,.#.>.w.(.h.h.h.h.;X;X;X;XwXeXk.9 u.u.u.;Xr OXoX# * . 8 < /.j /.(.& y.6.,.,.>.>.6.7.1.! R a , P.P.P.P.P.",
"P.P.P.P.s R &.0.7.:.-.4.2.:.-.r h.h.h.h.[.;X;X;X;XwXXX1   ; w.u.&X;X-X= 1   &   S b = (.G 8 :.<.4.2.:.>.<.4.9.1.) W 2 P.P.P.P.P.",
"P.P.P.P.W ! o.8.2.<.>.>.<.<.<.r h.h.h.h.[.-X;X;X;X:X>X1 & %   + d d ; 1 h.  l 1   X = b - U >.-.,.$.$.$.-.,.q.1.) ~ a P.P.P.P.P.",
"P.P.P.P.a a / _ ;.-.;.-.-.>.>.r =X[.k.h.[.p.*X;X;X;XM.g - h.N w & & 1 h.o . . 1 h % O &   U t.r.&.:.#.$.<.6.q.2./ ~ a P.P.P.P.P.",
"P.P.P.P.R / / &.1.2.>.#.>.>.>.} ;X;X-X_.h.*Xu.p.;X:X}.h.o 1 g N h.N k % * % % y   O ; %   1 l   -.-.>.>.-.:.,.*.o.s 3 P.P.P.P.P.",
"P.P.P.P.a &.&.1.2.6.<.>.>.-.#.} ;X;X&Xu.%X/.[.=X;X;XF h.o ; q q - ; 1 q ; % K ; u.+ . = * l h.  >.>.-.>.1.>.1.2.&.W e P.P.P.P.P.",
"P.P.P.P.a R ! %.1.,.6.>.,.-.6.} $X;X*Xu.%Xh.h.h.z S & h.* q q q ; g q q -     f u.u w.r . - o t.2.>.-.6.6.5.2.&.| m n P.P.P.P.P.",
"P.P.P.P.[ |  .*.0.>.2.$.>.-.>.r.8 ;X;X%X*Xh.h.h.h.G 1 1 * q q q q q ; +   % -   . y.p.a.Y w.y.<.$.>.-.>.2.:._ _ X.{ v P.P.P.P.P.",
"P.P.P.P.z.| *.9.0.1.,.>.>.>.-.-.S ].;X%X=Xh.h.h.h.w.1 1 o O O % % %       o ; o _.a.a.a.H H >.>.#.>.-.-.*.' ' | | m 5 P.P.P.P.P.",
"P.P.P.P.n W *.0.6.$.<.7.7.4.1.:.1.8 t.;X/.h.h.h.[.8 1 X + + + + + + $ +   X ; T a.a.a.a.H H $.6.6.7.,.1.&.&.&.o. .W e P.P.P.P.P.",
"P.P.P.P.e o.&.:.2.$.7.6.8.1.9.9.6.5.r ].w.h.h.=X8   + +.+.+.+.+.+.+.+.d   u +.p.a.a.H H -.1.$.7.,.8.2.5.,.0.8.:.~ v & P.P.P.P.P.",
"P.P.P.P., s ! %.q.q.$.#.#.>.>.<.$.6.y.  & M.w.8   $ +.+.+.+.+.+.+.+.+.+.+.+.+.p.p.a.J J >.$.$.$.,.<.>.>.,.7.-.&.( s @ P.P.P.P.P.",
"P.P.P.P.> p ^ ^ 2.,.4.4.$.-.-.1.,.1.1.t.. G   # 9 t t t t t t t t t t t t t U J J J $.#.2.2.<.7.7.7.4.;.1.&.-./ E : @ P.P.P.P.P.",
"P.P.P.P.< @ E &.) ) %...&.) &.*.*._ &.o.r.t.Y J t t t t t t t t t t t t f J J J H J >.) 1.4.&.2.1.%.( p E p &.E @ n & P.P.P.P.P.",
"P.P.P.P.& > W E a X.{ s ) s  .~ ~ W ) ! | ..&.&./ o._ ( p i > > 0 ^ { { Q %./ *.&./ ^ p ~ o.o.o.o.W > : 3 > p i a B., L.P.P.P.P.",
"P.P.P.P.: J.V a C.!. X[ ` v n ] n a m 6 6 ! W m ` O.F.F.N.A B.B.v n n n v a W R ! m { a X.| [ O.D.] C.C.T.B.n n c.B & P.P.P.P.P.",
"P.P.P.P.& N.W.!..X.X!.R.D.T.] Z D.W. XD.c.e e v.D.W.F.Q..X.X.Xc.: V.Q.Q.B.D.V.j.< V.E.T..XT.C.E.,X@X,X,X.XE.Q..XJ., . P.P.P.P.P.",
"P.P.P.P.& e C C.T.C.T.!..X!.h j.@X.X!.E.C.V < T..XT.T.Q.!.!.R.m.2 A T.T.Q.~.!.z.c C.T.W.W.E.Z.& j.Q.~.Q.T.R.Q.T.c o , P.P.P.P.P.",
"P.P.P.P.6 c V C.C.C.C.T.Z.B.3 e B.C.C.C.C.c.c m.T.Z.C.D.C.C.C.C.v Z C.C.D.C.C.B.V C.C.C.C.T.m.3 z.C.C.D.C.C.V.Z 2 O l.P.P.P.P.P.",
"P.P.P.P.Q.@ 2 Z C.C.C.C.C.B.h : z.C.C.C.C.z.3 B.Z.C.C.C.C.C.C.c.& c Z.C.W.C.C.B.2 C.C.C.C.C.V < z.C.C.C.T.T.W.m.2 h U.P.P.P.P.P.",
"P.P.P.P.@X% V B.Z.B.T.C.C.B.b & B.C.C.C.B.c & B.C.C.C.C.B.B.c.C c e E.!.W.C.C.B.2 B.C.C.C.C.Z , z.B.B.C.T.!.W.m.< C Y.P.P.P.P.P.",
"P.P.P.P.@X: z. X.X XE.T.C.C.z.: z.C.C.R.E.A.2 Z C.C.C.T.B.C.C.C.z.& B.C.C.C.C.C.h C.C.C.C.C.Z v T.C.C.C.C.D.B.M : A.Y.P.P.P.P.P.",
"P.P.P.P.1X2 b x.W.Z.C.C.C.D.B.c A C.T.E.E.Z.2 m.B.Z.T.C.C.C.C.C.c.< c.C.C.C.C.C.V C.C.C.C.C.j.z.C.C.C.C.C.C.z.c & A.K.P.P.P.P.P.",
"P.P.P.P.1X2 b Z C.C.C.C.C.C.V.M z.C.C.C.C.c.2 W. X!.Q.Z.C.C.Z.C.j.3 c.C.C.C.C.B.z.T.C.C.C.C.z.c.C.C.C.C.C.V.M j , @XP.P.P.P.P.P.",
"P.P.P.P.,Xm.e b B.C.C.C.C.C.B.M z.C.D.C.C.c.2 m.W.R.Z.C.C.C.B.B.Z e c.C.C.T.E.B.M B.C.C.C.C.Z Z V.C.C.C.C.c.M 2 A 4XI.P.P.P.P.P.",
"P.P.P.P.Y.4Xm.2 v c.V.V.B.B.V c B.C.C.C.B.V c V B.C.C.C.B.B.B.B.c.h Z C.C.C.C.z.M V.T.H.B.m.M v c.C.C.C.B.j.c m.9X1XP.P.P.P.P.P.",
"P.P.P.P.P.^.7X|.m.m.z.B.J.F.F.A.V z.c.B.B.j.F.v b A c.c.Z Z V M [ F.m.B.Z z.C b A.C [ z.A V N.F.m.Z Z Z c.N.'.9X9X^.P.P.P.P.P.P.",
"P.P.P.P.I.I.1X5X6X3X#X<X6X9X0X0X'.N.N.F.|.#X7X#X'.m.A A C m.(.@X9XqX@XA.m.M.A.@X7X<X|.N.M.|.6X5X6X#XXX|.|.<X0X7X,XI.P.P.P.P.P.P.",
"P.P.P.P.P.P.L.U.R.R. X7X4X4X9X7X7X0X0X0XqX7X~.@X5X5X6X5X6X5X4X<X6X9X7X7X9X9X9XqX,X.X<X5X0XqXqX7X4X<X1X4X<X!.~.Y.I.P.P.P.P.P.P.P.",
"P.P.P.P.P.P.P.P.L.G.n.H.H.n.H.,X1X7X7X5X1XQ.K.K.U.R.@X~.W.H.n.n.H.^.1X7X7X7X3X@XG.l.G.U.~.@X~.Y.I.K.G.G.U.U.P.P.P.P.P.P.P.P.P.P.",
"P.P.P.P.P.P.P.P.P.P.G.n.b.G.K.L.H.b.b.b.7 B 6 B l.n.L.l.n.b.x.n.G.n.Y.Y.U.S.g.g.7 7 j.l.S.L.S.P.L.n.G.L.L.P.P.P.P.P.P.P.P.P.P.P.",
"P.P.P.P.P.P.P.P.P.P.P.P.P.P.P.P.P.P.P.P.P.P.P.P.P.P.P.P.P.P.P.P.P.P.P.P.P.P.P.P.P.P.P.P.P.I.P.P.I.P.P.P.P.P.P.P.P.P.P.P.P.P.P.P.",
"P.P.P.P.P.P.P.P.P.P.P.P.P.P.P.P.P.P.P.P.P.P.P.P.P.P.P.P.P.P.P.P.P.P.P.P.P.P.P.P.P.P.P.P.P.P.P.P.P.P.P.P.P.P.P.P.P.P.P.P.P.P.P.P.",
"P.P.P.P.P.P.P.P.P.P.P.P.I.P.P.P.P.P.P.P.P.P.P.P.P.P.P.P.P.P.P.P.P.P.P.P.P.P.P.P.P.P.P.P.P.P.P.P.P.P.P.P.P.P.P.P.P.P.P.P.P.P.P.P.",
"P.P.P.P.P.P.P.P.P.P.P.P.P.P.P.P.P.P.P.P.P.P.P.P.P.P.P.P.P.P.P.P.P.P.P.P.P.P.P.P.P.P.P.P.P.P.P.P.P.P.P.P.P.P.P.P.P.P.P.P.P.P.P.P."
};
