/* XPM */
static char *out[] = {
/* columns rows colors chars-per-pixel */
"64 64 224 2 ",
"   c #161C2E",
".  c #1D2435",
"X  c #212537",
"o  c #2B2B32",
"O  c #24293B",
"+  c #27333E",
"@  c #343138",
"#  c #483A38",
"$  c #55523C",
"%  c #60493D",
"&  c #2C2E41",
"*  c #293143",
"=  c #2C3A49",
"-  c #353549",
";  c #393B48",
":  c #3E3C50",
">  c #423F40",
",  c #2D414B",
"<  c #35474B",
"1  c #3D5548",
"2  c #394854",
"3  c #2C545B",
"4  c #3E5157",
"5  c #3C585A",
"6  c #3B635C",
"7  c #3B5D63",
"8  c #396968",
"9  c #387277",
"0  c #4B4C4D",
"q  c #514B48",
"w  c #4C5548",
"e  c #434055",
"r  c #454958",
"t  c #445858",
"y  c #5A5A56",
"u  c #684948",
"i  c #6C4C5B",
"p  c #695C50",
"a  c #4C674A",
"s  c #55724E",
"d  c #476759",
"f  c #57795A",
"g  c #706A44",
"h  c #6A6657",
"j  c #454E63",
"k  c #4A4D63",
"l  c #465865",
"z  c #525361",
"x  c #50576D",
"c  c #525D73",
"v  c #615963",
"b  c #4B6465",
"n  c #486868",
"m  c #546B6B",
"M  c #49776A",
"N  c #537568",
"B  c #4F6F71",
"V  c #57677A",
"C  c #467976",
"Z  c #547574",
"A  c #587A76",
"S  c #567B7B",
"D  c #5A7D7D",
"F  c #646B72",
"G  c #716D72",
"H  c #737B7C",
"J  c #8E625C",
"K  c #90625D",
"L  c #8B7A59",
"P  c #AA7959",
"I  c #8D6C6E",
"U  c #827E6C",
"Y  c #8C777A",
"T  c #9C7C7A",
"R  c #A07D7A",
"E  c #5D825B",
"W  c #60814F",
"Q  c #658959",
"!  c #648A5C",
"~  c #778F5A",
"^  c #6D935C",
"/  c #6D985C",
"(  c #759958",
")  c #739C5C",
"_  c #77A25D",
"`  c #7BA45D",
"'  c #7EA95E",
"]  c #598666",
"[  c #5D9264",
"{  c #508679",
"}  c #59857A",
"|  c #64876C",
" . c #669764",
".. c #6B9C62",
"X. c #719D64",
"o. c #669872",
"O. c #76A465",
"+. c #73A572",
"@. c #978B51",
"#. c #AF9543",
"$. c #B09543",
"%. c #95B54F",
"&. c #9AB74E",
"*. c #9BB94F",
"=. c #87A859",
"-. c #83AC5D",
";. c #8BAD5C",
":. c #92AC5B",
">. c #8EB256",
",. c #87B059",
"<. c #8BB159",
"1. c #94B553",
"2. c #9BB654",
"3. c #9CB850",
"4. c #94B25A",
"5. c #9BB359",
"6. c #A2B353",
"7. c #A3B655",
"8. c #A9B756",
"9. c #A4B952",
"0. c #ABB954",
"q. c #A4B559",
"w. c #AAB659",
"e. c #ACB858",
"r. c #B1B857",
"t. c #958F70",
"y. c #AA906A",
"u. c #AB8B76",
"i. c #94A274",
"p. c #9AB573",
"a. c #B1AB6F",
"s. c #C8A876",
"d. c #CCAE7B",
"f. c #CEB37C",
"g. c #D4C169",
"h. c #D4C47C",
"j. c #E9DF78",
"k. c #EAE178",
"l. c #3D7D80",
"z. c #5E6F86",
"x. c #587C80",
"c. c #6E7B8A",
"v. c #3E888B",
"b. c #5B8484",
"n. c #578885",
"m. c #5E8B8B",
"M. c #59918B",
"N. c #4E8F92",
"B. c #45979A",
"V. c #688B88",
"C. c #79878A",
"Z. c #6B948C",
"A. c #629494",
"S. c #679896",
"D. c #669C9C",
"F. c #6A9D9D",
"G. c #789B96",
"H. c #44A09F",
"J. c #6BA29C",
"K. c #78A597",
"L. c #489BA2",
"P. c #5A9BA5",
"I. c #6D9EA2",
"U. c #45A4A4",
"Y. c #46A9A7",
"T. c #47ABA9",
"R. c #4BAAA9",
"E. c #56A8A9",
"W. c #5AB4B0",
"Q. c #6BA2A2",
"!. c #68A8AC",
"~. c #73AAAB",
"^. c #74A8A8",
"/. c #73B2AF",
"(. c #7DB4B4",
"). c #78B9B7",
"_. c #7BC5BC",
"`. c #8C9695",
"'. c #909292",
"]. c #A78F8A",
"[. c #A69F81",
"{. c #93B284",
"}. c #84A59B",
"|. c #B8AF8B",
" X c #AEAF93",
".X c #939FAE",
"XX c #9BA5A5",
"oX c #91B5A9",
"OX c #82B7B7",
"+X c #86BDBC",
"@X c #A2AAAB",
"#X c #ABB4B5",
"$X c #B0B7BA",
"%X c #C6B686",
"&X c #D2B783",
"*X c #B2C785",
"=X c #92C4B9",
"-X c #A6CCBC",
";X c #BAC8B7",
":X c #CDC188",
">X c #DBC490",
",X c #D5C99B",
"<X c #E2CE99",
"1X c #E5D29D",
"2X c #CAC4A1",
"3X c #E8D7A2",
"4X c #EFE1AB",
"5X c #F1E6B9",
"6X c #8BC6C3",
"7X c #9CCCC4",
"8X c #99D4C7",
"9X c #B8C1C3",
"0X c #ACD7C9",
"qX c #A8D8CB",
"wX c #B4DECC",
"eX c #B8E1CE",
"rX c #B9E7D5",
"tX c #D1D3D6",
"yX c #C1EBD6",
"uX c #C2EDD9",
"iX c #C7F1DC",
"pX c #F6EFD3",
"aX c #F3F2EA",
"sX c white",
/* pixels */
"T.T.T.T.T.T.T.T.T.T.T.T.T.T.T.T.T.T.T.T.T.T.T.T.T.T.T.T.R.R.Y.T.T.T.Y.Y.T.T.T.T.T.T.T.T.T.T.T.T.T.T.T.T.T.T.T.T.T.T.T.T.T.T.T.T.",
"T.T.T.T.T.T.T.T.T.T.T.T.T.T.T.T.T.T.T.T.Y.Y.K K K J K K K K K K K K K K K K K K J J T.T.T.T.T.T.T.T.T.T.T.T.T.T.T.T.T.T.T.T.T.T.",
"T.T.T.T.T.T.T.T.T.T.T.T.T.T.T.T.T.T.T.T.Y.Y.K K K K K K K K K K K K K J K K K K J J T.T.T.T.T.T.T.T.T.T.T.T.T.T.T.T.T.T.T.T.T.T.",
"T.T.T.T.T.T.T.Y.T.T.T.T.T.T.T.T.T.T.Y.Y.K K k.k.k.k.k.k.k.k.k.k.k.k.k.k.k.k.k.k.j.j.J J T.T.T.T.T.T.T.T.T.T.T.T.T.T.T.T.T.T.T.T.",
"T.T.T.T.T.T.Y.Y.T.Y.R.R.T.T.T.T.Y.T.Y.Y.K K k.k.k.k.k.k.k.k.k.k.k.k.k.k.k.k.k.k.k.k.J J T.Y.T.T.T.T.T.T.T.T.T.T.T.T.T.T.T.T.T.T.",
"T.T.T.T.T.B.8 M 9 x.C b.M { M.M.N f J K k.k.g.g.g.g.g.g.g.g.g.g.g.g.g.g.g.g.g.g.g.g.j.j.J J n.M.{ { M C 9 8 6 9 H.T.T.T.T.T.T.T.",
"T.T.T.T.v.3 1 -.^ ) ! +./ ' -.) ` _ K K k.k.g.g.g.g.g.g.g.f.g.f.g.g.g.g.g.g.g.g.g.g.k.k.J J ` ` ' -.Q ( a ' ) W 6 B.Y.T.T.T.T.T.",
"T.T.T.T.8 ( W 1.<.2.6.w.5.,.1.*.9.1.K K g.g.g.g.I u.G e z Y t.R K K K K K K K K g.g.g.g.J J 2.5.7.>.-.;.( ,.-.) Q M B.T.T.T.T.T.",
"T.T.T.T.8 s =.e.0.9.0.4.>.>.7.0.7.6.K K f.g.f.h.  & e z.z.z.z.k G R K K K K K K f.f.g.g.J J *.*.4.>.>.2.q.5.' _ ! M v.T.T.T.T.T.",
"T.T.T.T.8 ^ ` 4.3.1.%.*.%.1.*.1.%.>.K K g.g.R   : e k x z.z.z.z.V 0 u.P P P K K K K g.g.J J %.*.3.%.1.1.0.4.-.' E C T.T.T.T.T.T.",
"T.T.T.T.C s -.q.0.4.2.%.1.>.>.>.5.>.K K g.g.  - : x c c z.k k x x F v P P P K K K K g.g.J J 6.&.%.>.>.1.>.....) ! n U.T.T.T.T.T.",
"T.T.T.T.7 / -.q.e.7.9.8.0.2.5.4.5.&.K K g.g.  0 k z.z.z.z.z.z.z.k x x u.K K K K K K g.g.J J &.0.7.8.5.5.5.;.' O._ M B.T.T.T.T.T.",
"T.T.T.T. .O.O.-.<.7.7.3.>.<.5.3.&.*.K K f.%XX e k z.e : e k z.z.z.> c ].J J K K K K g.g.K K *.*.1.1.>.3.3.0.q.' ..M n.T.T.T.T.T.",
"T.T.T.T.} K.+. ...' 1.3.3.*.1.*.%.%.K K f.%X& e > : X     - k z.z.k j Y J J K K K K g.g.J J *.*.*.*.3.1.%.2.4.+.{ n.S T.T.T.T.T.",
"T.T.T.T.} ...._ ,.1.1.2.3.*.<.,.<.4.K K g.t.  - e e e & . & > z.k -   K J K K K K K g.g.J J &.*.9.3.1.>.>.>.>.+.[ A.C T.T.T.T.T.",
"T.T.T.T.M...O.O.5.e.2.e.2.1.1.1.&.*.&.p.  &   X e e -   >   j x >   I p R K K K g.g.K K 9.9.*.0.7.5.1.>.3.7.q.-...n 8 T.T.T.T.T.",
"T.T.T.T.C ` -.>.2.3.9.1.1.3.*.3.3.7.:.  - e :   j -   u.s.h > e h y.f.1Xs.R J J g.f.J J 9.3.3.2.1.*X;X#X|.0.8.-./ f 8 T.T.T.T.T.",
"T.T.T.T.f -.<.2.1.1.1.2.2.1.1.*.%.3.T . > e >   > O   ].>Xs.s.s.s.&X3X&Xs.].i i $.$.$.$.J J 1.*X9X$X@X| {.q.7./ f Q 5 T.T.T.T.T.",
"T.T.T.T.t ) ;.:.1.5.,.,.>.1.3.*.%.*.t.& e e j   >   0   @ t.U [.4X4X3X1X<X%Xi i $.$.#.$.J J ,.;X@X`.XXc.p.5.:.~ / _ f T.T.T.T.T.",
"T.T.T.T.f -.f X.5.9.1.1.1.1.*.1.>.1.T & e e : : - U >Xs.L t.%X5X4X4X].4X3X&XG i i i #.#.J J |.9X$XXXXXH {.;.~ ( f d 4 Y.T.T.T.T.",
"T.T.T.T.t E f ^ -.1.3.1.1.,.1.1.,.=.T   e e e e . |.s.s.s.>X4X4X4X4X  %X4X>X].i i i $.$.K K 9X9X9X#X`.H {.1.2.6.( Q 5 T.T.T.T.T.",
"T.T.T.T.1 f / / 5.2.0.q.2.>.2.9.9.4.J v . : e .   4Xs.s.s.>X4X4X4X4X- U 4X%X  i i i $.$.K  X#X$X9X@X`.G  X8.5.:.^ N 7 T.T.T.T.T.",
"T.T.Y.T.2 C N ' q.r.7.>.1.>.2.9.9.9.K K t.i     @ >Xs.s.s.4X4X4X4X4Xy   4Xh v i i i $.$.T 9XXXXX$X`.H w 9.e.8.( 2 x.S T.T.T.T.T.",
"T.T.Y.Y.8 ] ) ` <.2.2.3.1.>.1.4.%.>.e i $.#.i c.y &Xs.s.s.|.U U U U ;         y i i $.$. XXX`.XXXX`.2 p.%.1.4.` Q a < T.T.T.T.T.",
"T.T.T.T.5 _ / ..4.0.9.9.9.7.>.,.:.h V   p #.i G G s.s.&X4X|.0             ; 4X  i i #.#.@X`.`.#X`.`.t >.4.,.-.) ` a = T.T.T.T.T.",
"T.T.T.T.6 [ _ -.4.0.0.8.q.5.8.w.i.  F tX'.y Y   u.s.s.s.d.&X1X,X[.p 0   y ,Xd.  Y i #.y.2 `.`.XX`.r i.7.-.) X.E s 1 , T.T.T.T.T.",
"T.T.T.T.M [ X.O.O.-.1.1.1.>.5.3.i.U U z tXtXt   q t.s.s.s.s.s.f.>X4X[.  4Xf.s.p I i #.  F `.z `.H   p.3.` ......) ^ < T.T.T.T.T.",
"T.T.T.T.M 9 [ ../  .` >.,.1.1.1.i.U C.|.U $XsXsX$X`.        s.s.s.s.[.  4Xs.s.h a.$.t.  `.'.H `.= h 9.2.1.>.,.O.o.Z.N Y.T.T.T.T.",
"T.T.T.T.} M [ X.' -.>.7.3.1.>.,.i.G z.z.'. X4XpXpXaXsXsXaX  s.s.s.s.[.  4Xs.y.> e #.0 F `.G `.H   p.9.5.1.3.q.( ^ A B T.T.T.T.T.",
"T.T.T.T.n E -.5.5.2.9.5.2.%.*.3.i.U z.z.z.z.4X4X4X4X4XpX.X  s.s.s.s.[.q 4Xy.  2 * h ; `.F H `.2 i.2.%.3.9.0.:./ E d , T.T.T.T.T.",
"T.T.T.T.f Q =.e.8.>.1.8.5.>.>.2.i.t.V z.z.z.4X4X4X4X4XpX.X  > u.s.s.3X4X4X& & * =   r H * | C.+ 8.4.>.1.3.7.8.1._ E < T.T.T.T.T.",
"T.T.T.T.Q  .` 5.5.3.>.1.3.3.3.1.i.G c.z.z.z.<X3X4X4X4X5X.X  = . q h t.t.; x -   k l = & O F 2 i.2.3.%.*.>.5.e.4.' ) d T.T.T.T.T.",
"T.T.T.T.d d ..-.,.>.,.>.>.1.*.*.i.U 4X Xz.z.>Xs.3X4X4X4Xz.  j z.2 &     c e .   q * j k O     0   N &.*.*.9.r.5.) ) d T.T.T.T.T.",
"T.T.T.T.Q X.( -.4.5.1.%.1.1.1.>.p.e 4X4X,X'. X>Xf.<X4X4Xc.* - e x z.z.c x & e   y h   X : - X O z.* p.1.>.;.5.;._ f 5 T.T.T.T.T.",
"T.T.T.T.d ` -.>.2.8.3.1.%.>.1.>.,.0 ,X4X<Xd.<Xz.'.%X#X4Xc.: * e > e e e e e e * q q g I O O - - z.= p.1.1.1.5.5.-.^ l T.T.T.T.T.",
"T.T.T.R.d E ^ -.4.5.7.2.1.>.3.9.9.i.U 4X4X&X>Xz.z.z.c * - 2 * e e e e e e e e X     s.s.@ Y   O * h 1.7.7.8.4.-. .M n T.T.T.T.T.",
"T.T.T.T.}  ...:.0.5.1.3.1.1.1.>.1.=.h 4X4X>X1Xz.z.z.z.@X= 2 & > e e > > e - X   >   > > Y K 1.i.i.>.>.1.5.,.-.` X.} n T.T.T.T.T.",
"T.T.T.T.n.) -.w.8.4.3.1.1.1.>.>.>.>.T U 4X1X Xc.z.z.z. X: - . X & & & o         < ; y %XK K 2.1.%.1.>.>.;.[ [  .[ ] 5 T.T.T.T.T.",
"T.T.T.T.N E ;.w.0.*.3.0.0.7.4.4.1.2.K T 0 4X'.z.z.z.2Xq 2 o # # > # # % u o O u o   :Xg.K K 3.9.8.e.2.4.,.-.-.O.X.! 5 T.T.T.T.T.",
"T.T.T.T.5 O.-.,.5.9.9.7.q.:.q.e.8.9.9.7.p G t.z.z.2X0   o @.@.@.@.L @.@.@.g $ g a.g.J J ,.*.*.0.3.5.5.e.5.e.q.;...d = T.T.T.T.T.",
"T.T.T.T., f ^ =.r.e.*.&.1.1.5.&.2.3.*.*.J G   V [.<   $ L @.@.@.@.@.@.@.@.@.@.@.f.g.K J 3.*.3.*.3.3.1.1.2.0.1.` ( f + Y.Y.T.T.T.",
"T.T.T.T.1 s ( ) 7.5.9.7.3.1.>.>.2.:.4.2.>.5.v q > o # u u u u u u u u u u u u K K K &.>.4.5.1.9.0.e.q.,.1.-.,.` Q < + T.T.T.T.T.",
"T.T.T.T.< + Q =.` ` -.) -.` -.;.:.' -.O.-.-.K Y Y I K % u u u u u u u u u I K J J J ;.' 4.q.-.5.4.` _ s f W ,.W + M * T.T.T.T.T.",
"T.T.T.T.* 1 Q W a o.} f _ f .. ./ ! ` ^ ..( -.-...O.-.,.' ^ N N | X.| E ~ ` ( ;.-._ ( f ..-...O...^ 1 < 1 1 s a 6 A.2 T.T.T.T.T.",
"T.T.T.T., I.Z n D.(.OX} ] n M { M n N 6 d ! ! ] [ +.K.K.Z.A A.A.b M { M 6 d Q E ^ N | d o. .} +.J.{ J.J.Q.M.9 M m.B + T.T.T.T.T.",
"T.T.T.T., Z.^./.+X+X(.!.D.Q.{ S J.~.OXJ.m.t 7 m.J.Q.^./.+X+X6Xm.= A./.~.S.D.S.S 2 S./.Q.OXQ.D.^.6X=X6X6X=X~./.+XI.3 . T.T.T.T.T.",
"T.T.T.T.= t A F.Q.F.I.).+XOXb D +X+X(.~.F.Z < I.(.~.Q.(.(.(.~.n.4 A ^.Q./.(./.V.b D.Q.^.~.~.F.= x.~.)./.Q.~./.Q.l O 3 T.T.T.T.T.",
"T.T.T.T.8 b Z S.D.D.D.F.F.A.4 t A.J.D.D.D.m.b V.Q.D.D.Q.D.D.D.D.B S D.D.J.D.D.A.B F.F.D.D.Q.V.5 V.D.D.D.D.D.A.S 4 + v.T.T.T.T.T.",
"T.T.T.T./.+ 5 D A.D.D.D.D.D.t 2 b.D.D.D.D.b.t A.D.D.D.D.D.D.D.m.= b F.Q.Q.D.D.m.5 S.D.D.D.D.S 2 b.A.D.D.Q.Q.^.V.t l E.T.T.T.T.T.",
"T.T.T.T.=X* B A.F.S.Q.Q.D.m.n = A.D.D.D.A.b , m.J.D.D.D.m.A.m.x.l t ~.(.~.Q.D.A.4 A.P.D.D.D.S , b.A.A.D.Q.(.^.x.4 D W.T.T.T.T.T.",
"T.T.T.T.=X< b.OX6XOX~.F.D.A.b.2 b.D.F.!.~.I.r S D.D.D.D.A.D.D.Q.n., A.D.D.D.D.S.l S.D.D.D.D.S n !.D.D.D.D.D.S.N < G.E.T.T.T.T.T.",
"T.T.T.T.8X4 m b.Q.I.D.D.J.J.A.b S D.Q.^.~.F.4 V.A.D.Q.Q.D.D.D.D.b.2 m.D.D.D.D.D.Z D.D.D.D.D.x.b.D.D.D.D.F.D.b.b = G.R.Y.T.T.T.T.",
"T.T.T.T.8X4 n D D.D.D.D.D.D.A.B m.D.D.D.D.V.t ^.OX(./.I.D.D.D.D.b.4 m.D.D.D.D.D.b.J.D.D.D.D.b.m.D.D.D.D.D.A.Z l , =XT.T.T.T.T.T.",
"T.T.T.T.=XV.t B A.D.D.D.D.D.A.B m.D.D.D.D.b.4 V.~.Q.D.D.D.D.A.m.D t b.D.D.Q.^.A.Z A.D.D.D.A.x.x.A.D.D.D.D.m.B 4 D qXR.T.T.T.T.T.",
"T.T.T.T.W.wXV.4 B m.A.A.S.A.A b m.D.D.D.A.Z b Z A.D.D.D.A.A.A.A.b.l S D.D.D.D.b.Z A.D.D.A.V.n m m.A.D.D.A.x.b V.yX8XT.T.T.T.T.T.",
"T.T.T.T.T._.rXoXV.b.b.A.I.K.K.G.A b.n.A.A.b.G.b B D m.V.Z S Z Z } }.A.A.S D A Z G.Z b.n.x.S Z.K.V.D x.D m.Z.}.uXuX_.T.T.T.T.T.T.",
"T.T.T.T.T.W.8XwXeX0X-X7XwXyXuXuX}.Z.Z.K.oX-XrX-X}.V.D } A V.`.=XyXiX=XG.V.V.}.oXuX0X}.V.G.oXeXwXwX-X#XoXoX7XiXrX6XT.T.T.T.T.T.T.",
"T.T.T.T.T.T.U.E.!.~.OXrX0XqXyXrXrXrXiXyXiXyX).6XwXwXwXwXeXeX8X7XeXyXrXrXuXuXiXiX+X_.qXwXyXiXuXrXwX7X8XqX7X/.).W.R.T.T.T.T.T.T.T.",
"T.T.T.T.T.T.T.T.T.L.B.P.P.L.!.).8XrXrXqX8X/.U.U.E.!.6X).^.P.B.B.E.=X6XrXrXrXqX=XB.v.L.E.(.6X).W.R.L.L.L.E.E.T.T.T.T.T.T.T.T.T.T.",
"T.T.T.T.T.T.T.T.T.T.L.B.N.B.Y.R.P.N.M.N.9 C 8 C N.B.T.v.N.N.n.B.B.B.W.W.E.B.v.l.9 9 x.v.B.Y.H.T.Y.B.L.R.Y.R.T.T.T.T.T.T.T.T.T.T.",
"T.T.T.T.T.T.T.T.T.T.T.T.R.T.T.T.T.T.T.T.T.T.T.T.T.T.T.T.T.T.T.T.T.T.T.T.T.T.T.T.T.T.T.T.T.T.T.T.T.T.T.T.T.T.T.T.T.T.T.T.T.T.T.T.",
"T.T.T.T.T.T.T.T.T.T.T.T.R.T.T.T.T.T.T.T.T.T.T.T.T.T.T.T.T.T.T.T.T.T.T.T.T.T.T.T.T.T.T.T.T.T.T.T.T.T.T.T.T.T.T.T.T.T.T.T.T.T.T.T.",
"T.T.T.T.T.T.T.T.T.T.T.T.T.T.T.T.T.T.T.T.T.T.T.T.T.T.T.T.T.T.T.T.T.T.T.T.T.T.T.T.T.T.T.T.T.T.T.T.T.T.T.T.T.T.T.T.T.T.T.T.T.T.T.T.",
"T.T.T.T.T.T.T.T.T.T.T.T.T.T.T.T.T.T.T.T.T.T.T.T.T.T.T.T.T.T.T.T.T.T.T.T.T.T.T.T.T.T.T.T.T.T.T.T.T.T.T.T.T.T.T.T.T.T.T.T.T.T.T.T."
};
