/* XPM */
static char *out[] = {
/* columns rows colors chars-per-pixel */
"64 64 221 2 ",
"   c #161C2E",
".  c #1C2234",
"X  c #252836",
"o  c #24283B",
"O  c #27333E",
"+  c #353338",
"@  c #463936",
"#  c #5B4D3D",
"$  c #2C2E41",
"%  c #2B3846",
"&  c #343549",
"*  c #393A4A",
"=  c #423F40",
"-  c #2D414B",
";  c #35474B",
":  c #3C5449",
">  c #394953",
",  c #3A455A",
"<  c #2C545B",
"1  c #3E5157",
"2  c #3C585A",
"3  c #3B635C",
"4  c #3B5D63",
"5  c #396968",
"6  c #387277",
"7  c #4C4C4D",
"8  c #514B48",
"9  c #495748",
"0  c #434055",
"q  c #484859",
"w  c #445859",
"e  c #5C5B56",
"r  c #684948",
"t  c #6C4C5B",
"y  c #735753",
"u  c #4A664A",
"i  c #54714D",
"p  c #476759",
"a  c #57795A",
"s  c #6F6252",
"d  c #6C655E",
"f  c #736854",
"g  c #4A4E64",
"h  c #465964",
"j  c #535B62",
"k  c #50576D",
"l  c #4C5A70",
"z  c #545E74",
"x  c #635B66",
"c  c #4B6465",
"v  c #486868",
"b  c #55696A",
"n  c #49776A",
"m  c #537569",
"M  c #4F6F71",
"N  c #566579",
"B  c #467976",
"V  c #547574",
"C  c #587A76",
"Z  c #567B7B",
"A  c #5A7D7D",
"S  c #656D72",
"D  c #7B6A76",
"F  c #6A7371",
"G  c #727A7A",
"H  c #8E625C",
"J  c #90625D",
"K  c #8C795E",
"L  c #AA7959",
"P  c #857465",
"I  c #827E6C",
"U  c #8E7172",
"Y  c #9C7A77",
"T  c #A07D7A",
"R  c #5D825B",
"E  c #60814F",
"W  c #658859",
"Q  c #648A5C",
"!  c #778E5A",
"~  c #6D935C",
"^  c #6D985C",
"/  c #759958",
"(  c #739C5C",
")  c #77A25D",
"_  c #7BA55D",
"`  c #7EA95E",
"'  c #598566",
"]  c #5D9264",
"[  c #508679",
"{  c #59857A",
"}  c #708D6C",
"|  c #669764",
" . c #6B9C62",
".. c #669872",
"X. c #76A466",
"o. c #73A572",
"O. c #978B51",
"+. c #AF9543",
"@. c #B09543",
"#. c #96B54E",
"$. c #9AB74E",
"%. c #9BB94F",
"&. c #87A859",
"*. c #83AC5D",
"=. c #8BAD5C",
"-. c #92AC5B",
";. c #8EB256",
":. c #87B059",
">. c #8BB159",
",. c #94B553",
"<. c #9BB654",
"1. c #9CB850",
"2. c #94B25A",
"3. c #9BB359",
"4. c #A1B452",
"5. c #A3B655",
"6. c #A9B756",
"7. c #A4B952",
"8. c #ABB954",
"9. c #A3B559",
"0. c #AAB659",
"q. c #ACB858",
"w. c #B1B857",
"e. c #9A8869",
"r. c #948D73",
"t. c #AB9270",
"y. c #83AC63",
"u. c #98AE74",
"i. c #ABB372",
"p. c #C8A876",
"a. c #CEB47B",
"s. c #B1C479",
"d. c #D4C169",
"f. c #D4C478",
"g. c #E9DF78",
"h. c #EAE178",
"j. c #3D7D80",
"k. c #5E6F86",
"l. c #587C80",
"z. c #6E7B8A",
"x. c #3E888B",
"c. c #5B8484",
"v. c #578885",
"b. c #5E8B8B",
"n. c #59918B",
"m. c #4E8F92",
"M. c #45979A",
"N. c #688B88",
"B. c #778587",
"V. c #6B948C",
"C. c #629494",
"Z. c #679896",
"A. c #669C9C",
"S. c #6A9D9D",
"D. c #789B96",
"F. c #44A09F",
"G. c #6BA29C",
"H. c #78A597",
"J. c #489BA2",
"K. c #5A9BA5",
"L. c #6D9EA2",
"P. c #45A4A4",
"I. c #46A9A7",
"U. c #47ABA9",
"Y. c #4BAAA9",
"T. c #56A8A9",
"R. c #5AB4B0",
"E. c #6BA2A2",
"W. c #68A8AC",
"Q. c #73AAAB",
"!. c #74A8A8",
"~. c #73B2AF",
"^. c #7DB4B4",
"/. c #78B9B7",
"(. c #7BC5BC",
"). c #8A9193",
"_. c #8D9694",
"`. c #A69F81",
"'. c #AC9188",
"]. c #81B286",
"[. c #84A59B",
"{. c #B7AE8B",
"}. c #AEAB9B",
"|. c #9AA4A4",
" X c #91B5A9",
".X c #82B7B7",
"XX c #86BDBC",
"oX c #A3ABAB",
"OX c #AFB4B7",
"+X c #C6B58C",
"@X c #D3B985",
"#X c #AAC488",
"$X c #87C3BC",
"%X c #9AC4B7",
"&X c #BECAAF",
"*X c #A6CCBC",
"=X c #CFC185",
"-X c #DBC490",
";X c #D4C498",
":X c #E2CE99",
">X c #E5D29D",
",X c #CFC8A6",
"<X c #E8D7A2",
"1X c #EFE1AB",
"2X c #8BC6C3",
"3X c #9CCCC4",
"4X c #99D4C7",
"5X c #B8C1C3",
"6X c #ACD7C9",
"7X c #A8D8CB",
"8X c #B4DECC",
"9X c #B8E1CE",
"0X c #B9E6D4",
"qX c #BBE9D6",
"wX c #CCCFD3",
"eX c #C1EBD6",
"rX c #C2EDD9",
"tX c #C7F1DC",
"yX c #F6EDCE",
"uX c #EFEEE7",
"iX c white",
/* pixels */
"U.U.U.U.U.U.U.U.U.U.U.U.U.U.U.U.U.U.U.U.U.U.U.U.U.U.U.U.Y.Y.U.U.U.U.Y.U.U.U.U.U.U.U.U.U.U.U.U.U.U.U.U.U.U.U.U.U.U.U.U.U.U.U.U.U.",
"U.U.U.U.U.U.U.U.U.U.U.U.U.U.U.U.U.U.U.U.I.I.J J H J J J J J J J H J H J H J H J H H U.U.U.U.U.U.U.U.U.U.U.U.U.U.U.U.U.U.U.U.U.U.",
"U.U.U.U.U.U.U.U.U.U.U.U.U.U.U.U.U.U.U.U.I.U.H J J J J J J J J J J J J J J J J J H H U.U.U.U.U.U.U.U.U.U.U.U.U.U.U.U.U.U.U.U.U.U.",
"U.U.U.U.U.U.U.U.U.U.U.U.U.U.U.U.U.U.I.I.H H h.h.h.h.h.g.h.h.h.h.h.h.h.h.h.h.h.h.g.h.H H U.U.U.U.U.U.U.U.U.U.U.U.U.U.U.U.U.U.U.U.",
"U.U.U.U.U.U.I.I.U.U.Y.Y.U.I.I.U.U.U.I.I.J J h.h.h.h.h.h.h.h.h.h.h.h.h.h.h.h.h.h.h.h.H H U.U.U.U.U.U.Y.Y.U.U.U.U.U.U.U.U.U.U.U.U.",
"U.U.U.U.U.M.5 n 6 B B c.n [ n.n.' a H H h.h.d.d.d.d.=X@X=X=X=Xd.d.d.d.d.d.d.d.d.d.d.h.h.H H { n.[ [ n B j.5 3 6 I.U.U.U.U.U.U.U.",
"U.U.U.U.x.< : *.~ / Q o.^ ` :. .` / J J h.h.d.d.=X    k l g 0 0 =Xd.d.d.d.d.d.d.d.d.h.h.H H _ X.` *.W / u _ / E 3 M.U.U.U.U.U.U.",
"U.U.U.U.5 / E ,.2.9.9.6.3.:.<.%.7.2.J J d.d.d.f.  $ q N k.k.k.N g t.J J J J J J d.d.d.d.H H 3.3.5.>.*.=./ *.:.( Q n x.U.U.U.U.U.",
"U.U.U.U.5 i &.q.6.7.5.2.;.>.1.8.4.8.J J a.d.d.d & 0 g z k.N k N k.q T J J J J J a.a.d.d.H H $.1.2.>.;.<.3.3.` ) R n M.I.U.U.U.U.",
"U.U.U.U.6 ~ _ 3.%.,.$.1.$.,.%.,.;.;.J J d.d.J . 0 0 k.k.k.k.N g z k.0 L L L J J J J d.d.H H #.$.1.$.,.,.q.3.*.*.R [ U.U.U.U.U.U.",
"U.U.U.U.B u &.3.q.2.<.$.,.>.;.;.3.;.J J d.d.Y X 0 k k.k.k.k.k.z g k.k t.L L J J J J d.d.H H <.#.$.;.>.,.;. . .) R v P.U.U.U.U.U.",
"U.U.U.U.2 ( *.9.q.5.7.7.7.5.2.3.3.7.J J d.d.K & 0 0 & & 0 k k.k.g z k '.J J J J J J d.d.J J $.7.7.5.<.3.3.>.X.X.) n M.U.U.U.U.U.",
"U.U.U.U.' o.X.*.=.5.7.%.,.>.<.1.,.$.J J d.a.U & 0 0 *     $ N k.z k g t.H H J J J J d.d.J H %.7.,.,.>.5.3.8.5.`  .B [ U.U.U.U.U.",
"U.U.U.U...H.o. . .*.;.%.1.1.,.,.#.#.J J f.D   o 0 0 0 *     g k.z 0 o Y H H J J J J d.d.H H $.$.%.%.%.,.%.1.2.o.[ v.Z I.U.U.U.U.",
"U.U.U.U.[  . .) :.,.;.7.1.%.;.:.:.,.J Y   O &   0 0 0 $ + X & k g & + d '.J J J J J d.d.H H $.$.1.,.s.#X>.>.>.` ] n.M I.U.U.U.U.",
"U.U.U.U.v.X.X.X.2.q.5.q.3.,.,.,.%.7.$.  & 0 0 & $ 0 $ = p.t.$ 0 0 t p.@X@X+XJ J d.d.J J 7.7.4.8.#X&X5XG %.5.9.y. .v 5 U.U.U.U.U.",
"U.U.U.U.[ ) *.;.1.1.7.<.,.%.%.1.7.7.,.. & 0 0 & $ 0 o f @Xp.t.P e.p.p.<X@Xp.H H d.d.H H %.%.4.&X5XoX|.b 7.8.5._ ^ a 5 U.U.U.U.U.",
"U.U.U.U.a ` 2.<.1.;.;.<.3.;.,.1.$.%.J 7 & , 0 * 0 0 O   e r.e.r.+X:X1X:X-Xp.'.t @.@.@.@.H H {.5X_.|._.x ,.<.5.! a W 2 U.U.U.U.U.",
"U.U.U.U.p _ &.-.3.,.:.>.;.;.%.%.$.%.H U o 0 0 0 0 $ `.p.K s I 1X1X1X1X1X1X<X}.t @.@.@.@.H H 5X5XoXOX_.b #.2.&.! ^ ) a U.U.U.U.U.",
"U.U.U.U.i X.a ( 3.7.,.,.%.,.%.;.;.;.J J   & 0 0 ,   t.p.p.p.1X1X1X1XI e 1X1Xp.t t t @.@.H }.5X5X&X|._.b &.&.&./ a p 1 I.U.U.U.U.",
"U.U.U.U.w R a ~ *.,.1.,.,.>.,.;.;.&.J J t.  X X     ;Xp.p.p.1X1X1X1X`.  <X1Xr.D t t @.@.Y 5X|.5X5X_.B.F ,.;.#.6./ W 2 U.U.U.U.U.",
"U.U.U.U.> a ^ ( 3.3.7.5.5.;.<.7.4.2.J J @.@.D       @Xp.p.@X1X1X1X1X1X  r.1X+ U t t @.@.}.oX).OX|._.> i.7.7.3.-.Q m 4 U.U.U.U.U.",
"U.U.U.U.> n m ` 9.w.1.>.,.;.<.7.7.7.J J e.+.t t   r.@Xp.p.@X1X1X1X1X1X  7 7   D t t @.@.5X_._.OX_._.7 6.8.8.0./ > c.Z U.U.U.U.U.",
"U.U.U.U.5 ' ^ ` ;.3.3.%.%.;.,.;.,.;.Y q w 8 D t   t.p.p.:X<Xe             . e e D y @.t._._.|.oX_., u.>.<.2.2._ W u ; U.U.U.U.U.",
"U.U.U.U.3 ( ^  .,.q.7.7.7.5.;.>.-.#.    wX_.. x   <Xp.p.p.@X>X1X`.7       I <Xs   t @.  F _.oX_.G   ,.>.2.>.&.( _ u % U.U.U.U.U.",
"U.U.U.U.3 ] ) ` 2.q.8.6.0.3.0.0.4.4.  I * iXwX*   t.p.p.p.p.p.@X<X1X1Xe 7 1Xa.e.  t e.  _.G G _.% d 9.5.*. . .R i 9 - U.U.U.U.U.",
"U.U.U.U.[ R )  .` *.,.$.;.;.,.1.#.$.  ;Xr.  wXiX)._.  s s s y e.p.@X<Xe I -Xp.p.  y   w _.S _.G   u.;.<._ X. . .^ ~ ; U.U.U.U.U.",
"U.U.U.U.n 6 ] ^ | | ) >.>.,.,.,.#.;.  }.z.|.`.,XyXuXiXwXOXOXN s p.p.-Xe I -Xp.t.. t.$ _.).B._.w } 1.7.<.;.;.*._  .V.M U.U.U.U.U.",
"U.U.U.U.Z n ] X.` *.2.7.1.,.>.:.:.2.  `.k.k.k._.1X1X1XyXyXuX, s p.p.-Xe I -Xt.    7 G _.j _._.  8.1.5.2.,.1.9.( Q n M U.U.U.U.U.",
"U.U.U.U.M R y.3.3.<.<.<.<.,.$.1.$.4.  }.k.k.k._.1X1X1X1X1XwX, d p.a.-Xt.1X-X+   % . z.S + _.S } <.<.,.1.7.q.2.~ a a - U.U.U.U.U.",
"U.U.U.U.a R *.q.q.>.;.6.3.>.;.1.$.4.  }.k.k.k._.<X1X1X1X1XwX*   e K a.:X+X* ,   g , $ X ; b . i.5.,.>.,.1.5.q.2.X.Q > U.U.U.U.U.",
"U.U.U.U.W ~ _ 3.<.1.,.,.1.1.%.$.;.#.  1X_.k.k._.p.<X1X1X1XoX, , %         l z     % k & X     w . i.$.1.;.<.8.3._ ( p U.U.U.U.U.",
"U.U.U.U.p p ^ y.:.;.:.:.;.,.%.%.$.<.  1X1X,X).).p.p.<X1X1X_., , k.k., , l k.o o   8   $ 0 $   , l   ,.<.%.7.w.3.( ( p Y.U.U.U.U.",
"U.U.U.U.W ( ( *.<.<.,.$.,.;.$.;.:.-.  1X1X@X+X;X).{.,X1X1XB., $ q k z z g & & $ s 8 K s . $ & q z   ,.,.;.>.3.>.X.a 4 U.U.U.U.U.",
"U.U.U.U.p ` *.>.3.5.1.,.$.>.,.;.;.&.U I 1X1Xp.@Xk.k.k.l I e , $ 0 0 0 0 0 0 0 o   8 p.O.q e   $ . u.;.,.,.2.3.3.*.~ w U.U.U.U.U.",
"U.U.U.U.p R ~ *.2.<.7.3.,.;.1.7.4.1.Y   1X1X-X@Xk.k.k.k.G % , $ 0 0 0 0 0 0 &   0   s   Y J i.u.i.,.;.7.7.8.2.` | n v U.U.U.U.U.",
"U.U.U.U.C  . .2.9.,.3.1.,.;.$.;.,.&.J Y r.1X1X+Xk.k.k.k.{.* , $ 0 0 0 0 & $ . o > o {.d.H H ,.1.%.,.;.,.3.>.*.` ....v U.U.U.U.U.",
"U.U.U.U.v.^ *.0.q.3.1.,.,.,.;.>.2.;.J J i.i.1X,Xk.k.k.).I h .               q f   e a.d.H H 3.,.#.#.;.;.>.] ] ] | m 2 U.U.U.U.U.",
"U.U.U.U.M R y.q.0.1.1.8.8.5.2.2.,.$.J J a.  {.`.k.k.z.{.  X @ @ @ @ @ @ # +   @ f.d.d.d.H H 1.7.7.8.<.2.*.*.y.X. .Q 2 Y.U.U.U.U.",
"U.U.U.U.p ) *.>.3.1.7.7.9.2.9.6.6.8.%.7.H Y e q k.B.r.  X s O.O.O.O.O.O.O.O.  # O.d.H H >.1.1.7.1.3.3.q.<.q.6.>.~ p % U.U.U.U.U.",
"U.U.U.U.- a ~ -.w.w.$.<.#.,.,.<.$.7.%.%.H J d.e G {.  + O.O.O.O.O.O.O.O.O.O.O.O.O.a.H H %.%.%.1.1.<.,.,.<.8.;.*.( a O U.U.U.U.U.",
"U.U.U.U.: i ~ ( <.3.7.<.1.,.>.,.3.2.2.2.;.3.H Y     + r r r r r r r r r r r r r H H #.;.3.3.%.7.8.8.5.:.;.*.;./ W ; O U.U.U.U.U.",
"U.U.U.U.; O E *._ ` &.( *.X.*.=.=.` *.*.` *.H J H J y r r r r r r r r r r r y J H H -._ 2.3.y.2.3._ ` i E a *.E O n % U.U.U.U.U.",
"U.U.U.U.% 9 W E u ..{ a _ a ( | ^ W ` Q ~ / *.&.)  .*.y.X.W ; : 9 u u a } y.( =.*.) / a ^ ` X.X. .~ : ; : : a u 3 C.; I.U.U.U.U.",
"U.U.U.U.- L.V v A.^.^.c.' v n [ n v ' v p ~ Q R ] o.].H.V.C C.C.v n [ n 3 p W R ~ m } 5 ..| { o.G.[ G.G.E.b.n n b.M O U.U.U.U.U.",
"U.U.U.U.- V.!.~.XXXX^.W.A.E.[ Z G.!.^.G.b.2 4 n.G.E.Q.Q.XXXX2XN.- Z.Q.~.Z.A.Z.l.> Z.Q.E..XG.A.Q.2X$X2X2XXX~.~.XXL.< . U.U.U.U.U.",
"U.U.U.U.% w C S.E.E.E.^.2X^.c Z .XXX^.!.E.V > L./.Q.E.^.^.^.W.b.w Z !.E.~.^.^.c.c A.E.!.!.!.S.* l.Q.^.~.E.Q.~.E.h o < I.U.U.U.U.",
"U.U.U.I.5 c V Z.A.A.A.E.A.N.1 w C.G.A.A.A.c.h b.E.A.A.A.A.A.A.A.v Z Z.A.G.A.A.C.M A.A.A.A.E.b.w N.A.A.S.A.A.C.Z 1 O x.U.U.U.U.U.",
"U.U.U.U.~.O 2 A A.Z.A.A.A.Z.h ; c.A.A.A.A.c.2 Z.A.A.A.A.A.A.A.b.% c S.E.E.E.A.b.2 C.A.A.A.A.Z > c.A.A.A.E.!.!.N.w h T.U.U.U.U.U.",
"U.U.U.U.$XO V V.S.Z.E.A.Z.C.v % b.A.A.A.C.c % C.A.A.A.A.C.C.b.Z h w Q.^.Q.E.A.Z.1 C.A.A.A.A.Z - c.C.C.A.E.^.!.A > Z R.U.U.U.U.U.",
"U.U.U.U.%X- c.^.XX.X!.E.A.S.c.> b.A.A.Q.~.D., A A.A.A.A.C.A.A.S.v.% C.A.A.A.A.Z.h A.A.A.A.A.Z v A.A.A.A.A.A.C.M ; D.R.U.U.U.U.U.",
"U.U.U.U.3Xw v N.W.L.A.A.A.A.C.v Z A.E.Q.Q.S.1 N.C.S.E.E.A.A.A.A.v.1 b.A.A.A.A.A.V A.A.A.A.A.l.c.A.A.A.A.A.A.{ c % D.P.Y.U.U.U.U.",
"U.U.U.U.4X1 v Z A.A.A.A.A.A.Z.M v.A.A.A.A.b.> Q..X^.~.S.A.A.A.A.l.1 b.A.A.A.A.Z.c.A.A.A.A.A.l.b.A.A.A.A.A.C.V c - $XU.U.U.U.U.U.",
"U.U.U.U.2XN.w M n.A.A.A.A.A.C.m b.A.A.A.A.b.w N.Q.E.A.A.A.A.Z.b.A w b.A.A.E.E.C.V C.A.A.A.A.l.Z A.A.A.A.A.b.M > z.7XY.U.U.U.U.U.",
"U.U.U.U.R.8XN.1 M b.C.Z.A.C.V c b.E.A.A.C.Z c m C.A.A.A.C.C.C.C.b.h Z A.A.A.A.c.V C.A.A.Z.N.M v b.A.A.A.C.l.c B.0X4XU.U.U.U.U.U.",
"U.U.U.U.Y.(.0X XN.N.c.C.G.E._.D.V c.b.b.C.A D.b M A b.N.Z Z V M { [.N.C.c.A Z b D.Z c.v.A V V.H.N.Z Z Z b.N. X0XrX(.U.U.U.U.U.U.",
"U.U.U.U.U.R.4X8X8X6X*X3X8XeXrXtX[.V.V.H. X*XqX*X|.{ A A { B.[. X8XtX%XV.B.V.D.%X0X*X XB.D. X9X8X8X*XOX X X*XrXrX2XU.U.U.U.U.U.U.",
"U.U.U.U.U.U.P.T.W.Q..X9X6X7XeX0XqXqXeXeXtXeX/.$X8X8X9X8X8X9X4X4X0XtXqXqXqXtXrXtXXX^.3X9XqXtXrXqX8X3X4X7X4X~./.R.U.U.U.U.U.U.U.U.",
"U.U.U.U.U.U.U.U.I.J.M.K.K.m.K.$X4XqXqX7X4X~.P.P.Y.W.XX^.E.K.M.m.K.(.4XqXqX0X7X$XM.J.J.T./.$X/.R.Y.J.J.J.T.T.U.U.U.U.U.U.U.U.U.U.",
"U.U.U.U.U.U.U.U.U.U.P.M.M.J.I.U.K.m.n.m.6 B 5 B m.M.P.J.M.m.m.M.M.F.T.R.T.m.m.6 6 5 m.x.M.U.P.U.I.M.M.I.I.I.U.U.U.U.U.U.U.U.U.U.",
"U.U.U.U.U.U.U.U.U.U.U.U.Y.U.U.U.U.U.U.U.U.U.U.U.U.U.U.U.U.U.U.U.U.U.U.U.U.U.U.U.U.U.U.U.U.U.U.U.U.U.U.U.U.U.U.U.U.U.U.U.U.U.U.U.",
"U.U.U.U.U.U.U.U.U.U.U.U.Y.U.U.U.U.U.U.U.U.U.U.U.U.U.U.U.U.U.U.U.U.U.U.U.U.U.U.U.U.U.U.U.U.U.U.U.U.U.U.U.U.U.U.U.U.U.U.U.U.U.U.U.",
"U.U.U.U.U.U.U.U.U.U.U.U.U.U.U.U.U.U.U.U.U.U.U.U.U.U.U.U.U.U.U.U.U.U.U.U.U.U.U.U.U.U.U.U.U.U.U.U.U.U.U.U.U.U.U.U.U.U.U.U.U.U.U.U.",
"U.U.U.U.U.U.U.U.U.U.U.U.U.U.U.U.U.U.U.U.U.U.U.U.U.U.U.U.U.U.U.U.U.U.U.U.U.U.U.U.U.U.U.U.U.U.U.U.U.U.U.U.U.U.U.U.U.U.U.U.U.U.U.U."
};
