/* XPM */
static char *out[] = {
/* columns rows colors chars-per-pixel */
"64 64 217 2 ",
"   c #161C2E",
".  c #1C2334",
"X  c #252837",
"o  c #24293B",
"O  c #302933",
"+  c #28323E",
"@  c #333439",
"#  c #55523C",
"$  c #2C2E41",
"%  c #293143",
"&  c #2C3A48",
"*  c #353549",
"=  c #383B4A",
"-  c #3E3C50",
";  c #423F40",
":  c #2D414B",
">  c #35474A",
",  c #3C5449",
"<  c #384854",
"1  c #2C545B",
"2  c #3E5157",
"3  c #3C585A",
"4  c #3B635C",
"5  c #3B5D63",
"6  c #396968",
"7  c #387277",
"8  c #4D4E4D",
"9  c #524946",
"0  c #425945",
"q  c #434055",
"w  c #494757",
"e  c #43585A",
"r  c #5E5D57",
"t  c #545C5B",
"y  c #674948",
"u  c #684948",
"i  c #6C4C5B",
"p  c #4A664A",
"a  c #57754B",
"s  c #476759",
"d  c #546950",
"f  c #57795A",
"g  c #736A49",
"h  c #6B6557",
"j  c #494D63",
"k  c #465765",
"l  c #505767",
"z  c #4C5A70",
"x  c #555E74",
"c  c #605860",
"v  c #4B6465",
"b  c #486868",
"n  c #55696A",
"m  c #497669",
"M  c #537569",
"N  c #4F6F71",
"B  c #566579",
"V  c #467976",
"C  c #547574",
"Z  c #577A75",
"A  c #567B7B",
"S  c #5A7D7D",
"D  c #646C72",
"F  c #6F6E71",
"G  c #796C77",
"H  c #8E625C",
"J  c #90625D",
"K  c #8C795E",
"L  c #AA7959",
"P  c #827E6C",
"I  c #896B70",
"U  c #8B777A",
"Y  c #9B7B79",
"T  c #5D825B",
"R  c #60814F",
"E  c #658959",
"W  c #648A5C",
"Q  c #778E5A",
"!  c #6D935C",
"~  c #6D985C",
"^  c #759958",
"/  c #739C5C",
"(  c #77A25D",
")  c #7BA55D",
"_  c #7EA95E",
"`  c #598567",
"'  c #5D9264",
"]  c #508679",
"[  c #578579",
"{  c #669764",
"}  c #6B9C63",
"|  c #6E906D",
" . c #669872",
".. c #75A465",
"X. c #73A572",
"o. c #978B51",
"O. c #B09543",
"+. c #B19748",
"@. c #96B54E",
"#. c #9AB74E",
"$. c #9BB94F",
"%. c #87A859",
"&. c #83AC5D",
"*. c #8BAD5C",
"=. c #92AC5B",
"-. c #8DB256",
";. c #87B059",
":. c #8BB059",
">. c #94B553",
",. c #9BB654",
"<. c #9CB850",
"1. c #94B25A",
"2. c #9BB359",
"3. c #A1B452",
"4. c #A3B654",
"5. c #A9B756",
"6. c #A4B952",
"7. c #ABB954",
"8. c #A4B559",
"9. c #AAB659",
"0. c #ACB858",
"q. c #B1B857",
"w. c #9A8565",
"e. c #959571",
"r. c #A89170",
"t. c #90AB6F",
"y. c #A9B272",
"u. c #C8A876",
"i. c #CEB17E",
"p. c #D4C169",
"a. c #E9DF78",
"s. c #EAE178",
"d. c #3D7D80",
"f. c #5E6F86",
"g. c #587C80",
"h. c #977E82",
"j. c #3E888B",
"k. c #5B8484",
"l. c #578885",
"z. c #5E8B8B",
"x. c #59918B",
"c. c #4C8F92",
"v. c #45979A",
"b. c #688B88",
"n. c #798589",
"m. c #6B948C",
"M. c #629494",
"N. c #679896",
"B. c #669C9C",
"V. c #6A9D9D",
"C. c #789B96",
"Z. c #44A09F",
"A. c #6BA29C",
"S. c #78A597",
"D. c #489BA2",
"F. c #5A9BA5",
"G. c #6D9EA2",
"H. c #45A4A4",
"J. c #46A9A7",
"K. c #47ABA9",
"L. c #4BAAA9",
"P. c #56A8A9",
"I. c #5AB4B0",
"U. c #6BA2A2",
"Y. c #68A8AC",
"T. c #73AAAB",
"R. c #74A8A8",
"E. c #73B2AF",
"W. c #7DB4B4",
"Q. c #78B9B7",
"!. c #7BC5BC",
"~. c #828B8D",
"^. c #8C9694",
"/. c #919293",
"(. c #A48884",
"). c #A79F81",
"_. c #8FB884",
"`. c #84A59B",
"'. c #B9AC8B",
"]. c #A6A898",
"[. c #B3A797",
"{. c #93B0A7",
"}. c #82B7B7",
"|. c #86BDBC",
" X c #A2AAAC",
".X c #ABB4B5",
"XX c #B1B6BA",
"oX c #D3B985",
"OX c #C8BA91",
"+X c #B9CA8E",
"@X c #92C4B9",
"#X c #BDCAA9",
"$X c #A6CCBC",
"%X c #CAC096",
"&X c #DBC591",
"*X c #E2CE99",
"=X c #E5D29D",
"-X c #CEC7A2",
";X c #E8D7A2",
":X c #EFE1AB",
">X c #AEB7C2",
",X c #8BC6C3",
"<X c #9CCCC4",
"1X c #99D4C7",
"2X c #B8C1C3",
"3X c #ACD7C9",
"4X c #A8D8CB",
"5X c #B4DECC",
"6X c #B8E1CE",
"7X c #B9E7D5",
"8X c #CDD1D5",
"9X c #C1EBD6",
"0X c #C2EDD9",
"qX c #C7F1DC",
"wX c #F6EED0",
"eX c #FCFAF1",
"rX c white",
/* pixels */
"K.K.K.K.K.K.K.K.K.K.K.K.K.K.K.K.K.K.K.K.K.K.K.K.K.K.K.K.J.J.L.L.K.K.K.K.K.K.K.K.K.K.K.K.K.K.K.K.K.K.K.K.K.K.K.K.K.K.K.K.K.K.K.K.",
"K.K.K.K.K.K.K.K.K.K.K.K.K.K.K.K.K.K.K.K.J.J.H J J J J J J H J J J J J J J J J H H H K.K.K.K.K.K.K.K.K.K.K.K.K.K.K.K.K.K.K.K.K.K.",
"K.K.K.K.K.K.K.K.K.K.K.K.K.K.K.K.K.K.K.K.J.J.J J J H J J H H H H J H J J J J J J H H K.K.K.K.K.K.K.K.K.K.K.K.K.K.K.K.K.K.K.K.K.K.",
"K.K.K.K.K.K.K.K.K.K.K.K.K.K.K.K.K.K.J.J.J J s.s.s.s.s.s.s.s.s.s.s.s.s.s.s.s.s.s.a.a.H H K.K.K.K.K.K.K.K.K.K.K.K.K.K.K.K.K.K.K.K.",
"K.K.K.K.K.K.J.K.K.K.L.L.K.J.J.K.J.J.J.J.J J s.s.s.s.s.s.s.s.s.s.s.s.s.s.s.s.s.s.s.a.H H K.K.K.K.K.K.K.K.K.K.K.K.K.K.K.K.K.K.K.K.",
"K.K.K.K.K.v.6 m 7 V V k.m ] x.x.M f H J s.s.p.p.p.p.p.p.p.p.p.p.p.p.p.p.p.p.p.p.p.p.a.a.H H [ x.] ] m V 7 6 4 7 Z.K.K.K.K.K.K.K.",
"K.K.K.K.j.1 0 _ ! ^ W X.~ _ ;.} ) ) J J s.s.p.p.p.p.p.p.p.p.p.i.p.p.p.p.p.p.p.p.p.p.s.s.H H ) ....&.E ^ d _ / R 4 v.K.K.K.K.K.K.",
"K.K.K.K.6 ^ R 1.1.8.8.9.,.;.>.$.6.1.J J p.p.p.p.J Y Y U U h.(.H J J J J J J J J p.p.p.p.H H ,.2.7.>.&.*.^ ;._ / E m v.K.K.K.K.K.",
"K.K.K.K.6 a %.9.7.6.6.>.1.-.<.7.5.3.J J p.p.p.p.h.  o j f.x j ; G J J J J J J J i.i.p.p.H H $.$.1.-.-.,.8.2.&.( T m j.K.K.K.K.K.",
"K.K.K.K.7 ! ) 1.<.>.>.$.#.>.>.>.>.-.J J p.p.J J ; * q ; z f.f.f.l F L L L L J J J J p.p.H H #.#.<.>.>.>.5.1.&.&.T ] K.K.K.K.K.K.",
"K.K.K.K.V p &.8.7.1.,.>.>.:.>.-.,.%.J J p.p.J Y o q q x f.f.x x B x F r.L L J J J J p.p.H H 3.#.>.>.:.>.-.} } / T b H.K.K.K.K.K.",
"K.K.K.K.3 / &.8.0.4.6.5.6.4.1.2.,.$.J J p.p.J U * q x f.f.f.f.B j x f.j h.J J J J J p.p.H H #.7.6.6.,.2.2.*.....( m v.K.K.K.K.K.",
"K.K.K.K.{ X...&.:.8.6.<.>.:.,.<.@.3.J J p.i.H   q q f.f.f.f.f.f.f.j f.f.h.H J J J J p.p.J J $.$.>.>.:.4.,.6.4.&.} m l.K.K.K.K.K.",
"K.K.K.K.[ S...} } _ >.,.<.<.>.>.@.@.J J p.u.H   q q q * o * l B f.z z f.I H J J J J p.p.J J #.$.$.$.>.>.<.<.1.X.] l.g.K.K.K.K.K.",
"K.K.K.K.[ } } ( ;.>.>.<.<.>.-.:.-.1.J J p.p.h.  - q q $     o l f.x j ; F H H H J J p.p.H H #.$.6.<.$.:.:.-.1... .x.m K.K.K.K.K.",
"K.K.K.K.l.......1.7.,.0.4.>.>.>.@.6.@.-.J 9     $ q q q $     q f.j $   h.H J J p.p.J J 6.6.#.7.8.<.>.-.,.6.8.&.} 6 6 K.K.K.K.K.",
"K.K.K.K.A ( _ -.<.<.6.>.,.<.$.$.<.6.>.-.U . q = . q q -   i   q x ;   L g Y J J p.p.H H <.,.<.6.>.$.+X2X/.6.8.) ~ f 6 J.K.K.K.K.",
"K.K.K.K.f _ :.,.,.>.-.,.,.-.>.,.>.<.H J   = q q o q q . r.u.I ; ; l r.u.=Xu.h.i O.O.O.O.J H >.<.#XXX.X.Xn ,.8.Q T E 3 K.K.K.K.K.",
"K.K.K.K.e ..*.=.1.>.;.;.-.>.$.$.$.$.H J   q q q $ ; =   ).*Xi.u.oXu.oX=X&Xu.'.i O.O.O.O.H H :._.2X^. X^.c 1.=.Q ! ( f K.K.K.K.K.",
"K.K.K.K.f &.f / 2.4.>.<.>.>.<.>.-.>.H J   q q q o ; + =     P P I :X:X:X*X=Xu.G i i O.O.H H >.#X2X{.XX^.n %.^ ^ f e 2 K.K.K.K.K.",
"K.K.K.K.0 T f ! &.>.,.>.>.:.>.-.%.%.J J 8 O ; w ; -   =Xu.P w.%X:X:X:X).%X:X%X(.i i O.O.J J +X2X2XXX{.^.n >.,.8.^ E 3 K.K.K.K.K.",
"K.K.K.K.2 f ~ / 2.,.6.4.4.-.,.6.5.=.J J y.  - q - X w oXu.u.oX:X:X:X:X  w.:X=Xr.i i O.O.J J 2X X2X2X^.D w 4.2.=.! M 6 K.K.K.K.K.",
"K.K.K.K.< m m _ 8.q.<.:.>.-.,.6.3.6.J J O.r.        P oXu.u.oX:X:X:X:Xw r :X:X@ i i O.O.J (.XX^..X.X^.l e.7.9./ > g.A K.K.K.K.K.",
"K.K.K.L.6 ` / _ :.2.,.<.<.-.>.-.>.-.J J O.O.I f.    P u.u.u.*X:X:X:X:XG   :X'.w i i O.O.J [. X^..X^.^.o y.,.>.( E p > K.K.K.K.K.",
"K.K.K.K.4 ( ~ } 1.0.4.6.6.6.-.:.=.@.Y   8 +.i i h.  ;Xu.u.u.oX).y.).).r   r   * G i O.O.J  X^.^. X^.D n 1.*.&./ ) p & K.K.K.K.K.",
"K.K.K.K.4 ' ( _ 1.7.6.5.8.2.9.9.5.y.  rXj 8 i i G w &Xu.oX:XOX8               %X  i O.O.w.F ^. X X^.* y.%.} } T a 0 : K.K.K.K.K.",
"K.K.K.K.] T ..} ..*.>.,.>.-.>.,.,.t.= t 8XXX  G < w.oXu.u.u.&X:X:XP       8 '.&X  G O.+.l D ^. X^.F   2.) ( } } ~ W > K.K.K.K.K.",
"K.K.K.K.m 6 ' } { { ( -.:.>.>.>.>.t.).).h f.rX>XD l 9 K K P w.u.oX*X:X:X  %X&Xu.9 r.O.r.. ~.~.n.^.+ Q ,.-.:.&.&.X.m.N K.K.K.K.K.",
"K.K.K.K.A m ' ..&.&.-.5.,.>.>.;.%.,.r f.~.-Xw.wXeXrXrX/.~./.9 u.u.u.u.:X  :Xu.u.h h O.h l ^.D ^.D   8.=.>.<.8.^ W Z N K.K.K.K.K.",
"K.K.K.K.N T &.2.,.,.<.,.,.>.>.<.#.4.r f.f.f.~.%X:X:XwXrXrX8X9 u.u.u.u.:X  :Xu.u.> % r.  ^.~.| ^.< t.>.<.6.5.1.{ T s : K.K.K.K.K.",
"K.K.K.K.f W &.9.5.-.-.5.,.:.>.<.,.3.r f.f.f.f.].:X:X:X:XrXf.8 u.u.u.u.:XO :Xu.9 & o 8 l ~.- G ^.t >.:.>.<.4.0.>.( T < K.K.K.K.K.",
"K.K.K.K.E W ) 2.2.,.>.>.<.,.$.>.-.@.r f.f.f.f.].:X:X:X:XwX>X* ; o.u.u.:X:X:Xq o   f.. o = % n w t.,.#.$.-.,.0.1._ / d K.K.K.K.K.",
"K.K.K.K.s s } &.;.-.;.-.-.>.$.$.#.#.r ~.f.f.f.].&X:X:X:X:X>X*     8 w.oX&X8 % <   $ x z % $ w - t.e.y.>.$.6.q.2./ / s K.K.K.K.K.",
"K.K.K.K.E / / &.1.,.>.>.-.>.>.:.%.-.r :X-Xf.f.].u.;X:X:X:Xf.& < z o       $ z .       * - *       <   _.-.-.2.*...f 3 K.K.K.K.K.",
"K.K.K.K.s ) &.-.,.8.$.>.,.-.>.>.-.%.G :X:X:X)./.%XoXoX:X:Xn.k $ q j j < - z * - $   h @ $ $ - $ & f.< y.-.1.2.2.&.! e K.K.K.K.K.",
"K.K.L.L.s ` ~ %.1.,.6.,.>.-.<.6.3.#.I OX:X;Xu.u./.f.~.].:XP k $ q q q q ; q q ; ;   * u.u.@   . ; b   $.6.0.1.&.{ m b K.K.K.K.K.",
"K.K.K.K.[ } } *.0.>.,.,.>.-.>.-.@.%.Y 8 :X:XoXu.^.f.f.x %   k $ q q j ; q q q q *     o.w.8 y.f .   y.>.>.;._ _  . .b K.K.K.K.K.",
"K.K.K.K.l.} *.9.0.1.<.>.>.>.-.-.1.>.H F y.:X;XoX^.f.f.f.].  k $ q q q ; q * * $   * *   q Y 8.>.,.1.-.-.*.' ' { ' M 5 K.K.K.K.K.",
"K.K.K.K.b T *.9.0.<.<.6.7.4.1.1.>.#.J J F %X:X=Xf.f.f.f.'.% 2                   @ X +   H H <.6.8.7.<.1.&.&.&.../ W e K.K.K.K.K.",
"K.K.K.K.v / &.:.,.6.6.6.8.1.8.5.5.7.3.3.J c :X:Xx f.f. X8 z O # 9 9 # # h o.9 o o.# U Y -.@.$.7.8.2.2.9.,.0.8.*.{ s & K.K.K.K.K.",
"K.K.K.K.: f E =.q.0.$.@.@.>.1.<.#.3.<.@.J U 8 :Xk f.f.w.    g o.o.o.o.o.o.o.g # g o.J J ,.$.<.<.,.,.>.>.,.5.1._ / f + J.J.K.K.K.",
"K.K.K.K., a ~ ^ 8.2.4.4.<.>.-.>.,.1.>.1.-.2.U = < n.[.+ . 9 y y u u u u u u u u u J @.-.>.8.>.6.7.0.<.;.-.;.;.( R > + K.K.K.K.K.",
"K.K.K.K.> @ E &.^ &.&...&...&.*.*._ &._ &.&.J J w G   O y y y y y y u u u u y y J J =._ 1.,.;.>.1.&._ a R R &.R + m & K.K.K.K.K.",
"K.K.K.K.% , E R s  .` f ) f / { ~ E ) ! ! / %.%.t.| t.;.a p > , 0 d 0 p d a ..1.&./ ^ f ~ ....;...W , > 3 > a p s M.< J.K.K.K.K.",
"K.K.K.K.: V.C b N.W.W.k.` b m ] m s M b s ! E T ` X.S.S.m.Z V.N.m A [ [ 4 s E f ~ M ` v  .{ [ m.A.] A.A.U.x.m m k.V % K.K.K.K.K.",
"K.K.K.K.: m.R.W.|.|.W.Y.B.U.] A A.R.W.A.z.3 3 x.A.U.R.E.}.|.,Xz.: N.T.E.N.V.N.A > V.W.U.}.A.B.T.,X|.,X@X|.T.E.|.G.1 . K.K.K.K.K.",
"K.K.K.K.& e Z V.U.U.B.Q.@XW.b A @X|.W.T.B.A < G.}.T.U.W.W.W.T.l.2 S U.U.E.W.E.b.b V.U.R.T.T.V.& g.T.Q.E.U.T.W.U.v X 1 J.K.K.K.K.",
"K.K.K.K.6 v C M.B.B.B.U.U.z.2 k M.B.B.B.B.k.v z.U.U.B.B.B.B.B.B.N A B.B.A.B.V.M.N V.B.B.B.U.b.3 z.B.B.B.B.B.M.g.3 . j.K.K.K.K.K.",
"K.K.K.K.E.o 3 A M.A.B.B.B.B.k > l.B.B.B.B.k.2 B.B.B.B.B.B.B.B.z.& z V.U.U.U.B.z.5 N.B.B.B.B.A < k.N.B.B.U.R.R.b.e k L.K.K.K.K.K.",
"K.K.K.K.@X+ C N.V.M.U.V.B.z.v : M.B.B.V.M.v & M.B.B.B.B.z.M.z.g.v e T.W.T.U.B.M.2 z.U.B.B.B.A : k.M.N.B.U.W.R.S 2 Z I.K.K.K.K.K.",
"K.K.K.K.@X> k.}.,X}.T.U.B.B.k.< k.B.B.T.T.G.w A B.B.B.A.M.B.B.B.l.& M.B.B.B.B.N.k M.B.B.B.B.A b U.B.B.B.B.B.M.N > C.P.K.K.K.K.K.",
"K.K.K.K.1X2 n k.U.V.B.B.B.A.M.v A B.U.T.T.V.2 b.M.B.U.B.B.B.B.B.l.< z.B.B.B.B.B.C B.B.B.B.B.k.k.B.B.B.B.B.B.k.v & C.L.K.K.K.K.K.",
"K.K.K.K.1X2 b S B.B.B.B.B.B.M.N k.V.B.B.B.z.2 R.}.W.E.V.B.B.B.B.A 2 z.A.B.B.B.N.k.U.B.B.B.B.k.k.B.B.B.B.B.M.C t & @XK.K.K.K.K.K.",
"K.K.K.K.@Xb.e C M.B.B.B.B.B.M.N k.B.B.B.A.z.2 b.T.U.B.B.B.B.B.b.Z k l.B.B.U.R.M.C M.B.B.B.B.A A M.B.B.B.B.z.N 2 b.4XL.K.K.K.K.K.",
"K.K.K.K.I.4Xb.3 b z.M.M.B.M.Z v M.B.B.B.M.C n N M.B.B.B.M.M.M.M.l.v A B.B.B.B.b.N B.B.B.M.b.b N z.N.B.B.M.S v b.7X1XK.K.K.K.K.K.",
"K.K.K.K.K.!.7X{.b.b.k.N.V.S.C.C.C l.k.M.M.[ C.b N S z.b.A A C N S `.b.M.[ A C N C.C k.l.g.Z m.S.b.g.g.A z.M.`.0X9X!.K.K.K.K.K.K.",
"K.K.K.K.J.I.1X5X6X3X@X3X5X7X0X0X`.m.m.C.{.$X7X$X`.b.S S S | C.@X6XqX@XC.b.b.^.@X7X3X{.m.n.{.7X5X6X$X.X{.{.<X0X7X,XL.K.K.K.K.K.K.",
"K.K.K.K.K.K.J.P.Y.T.|.6X3X3X7X9X7X7XqXqXqX7XQ.@X5X5X5X5X5X5X4X$X7XqX7X7X9X0XqXqX|.Q.<X5X0XqX7X7X5X<X1X4X1XW.Q.I.L.K.K.K.K.K.K.K.",
"K.K.K.K.K.K.K.K.J.D.v.F.F.c.Y.Q.1X7X7X4X1XE.Z.J.F.Y.|.Q.Y.F.v.v.F.!.1X7X7X7X4X@Xv.v.D.P.Q.@XQ.I.K.D.D.D.P.P.K.K.K.K.K.K.K.K.K.K.",
"K.K.K.K.K.K.K.K.J.J.H.v.v.D.J.L.F.c.x.c.7 ] 6 7 c.D.H.D.c.c.x.v.v.Z.P.I.P.v.d.d.7 7 g.j.Z.J.H.J.K.v.v.L.J.J.K.K.K.K.K.K.K.K.K.K.",
"K.K.K.K.K.K.K.K.K.K.K.K.L.K.K.K.K.K.K.K.K.K.K.K.K.K.K.K.K.K.K.K.K.K.K.K.K.K.K.K.K.K.K.K.K.K.K.K.K.K.K.K.K.K.K.K.K.K.K.K.K.K.K.K.",
"K.K.K.K.K.K.K.K.K.K.K.K.L.L.K.K.K.K.K.K.K.K.K.K.K.K.K.K.K.K.K.K.K.K.K.K.K.K.K.K.K.K.K.K.K.K.K.K.K.K.K.K.K.K.K.K.K.K.K.K.K.K.K.K.",
"K.K.K.K.K.K.K.K.K.K.K.K.K.K.K.K.K.K.K.K.K.K.K.K.K.K.K.K.K.K.K.K.K.K.K.K.K.K.K.K.K.K.K.K.K.K.K.K.K.K.K.K.K.K.K.K.K.K.K.K.K.K.K.K.",
"K.K.K.K.K.K.K.K.K.K.K.K.K.K.K.K.K.K.K.K.K.K.K.K.K.K.K.K.K.K.K.K.K.K.K.K.K.K.K.K.K.K.K.K.K.K.K.K.K.K.K.K.K.K.K.K.K.K.K.K.K.K.K.K."
};
