/* XPM */
static char *out[] = {
/* columns rows colors chars-per-pixel */
"64 64 231 2 ",
"   c #161C2E",
".  c #1A1E2D",
"X  c #1D232F",
"o  c #1C2232",
"O  c #1A2838",
"+  c #212635",
"@  c #252B38",
"#  c #242A3B",
"$  c #26303D",
"%  c #2B323D",
"&  c #2A393E",
"*  c #33353A",
"=  c #2F403C",
"-  c #3B483A",
";  c #4C5B3C",
":  c #1F3240",
">  c #2C2E41",
",  c #2C3442",
"<  c #2C3B47",
"1  c #363947",
"2  c #323C45",
"3  c #363649",
"4  c #373D51",
"5  c #423F49",
"6  c #364648",
"7  c #3B454B",
"8  c #344F4E",
"9  c #3D4A4D",
"0  c #3C4353",
"q  c #3A4B55",
"w  c #3A455A",
"e  c #3D5256",
"r  c #3B5858",
"t  c #3A625C",
"y  c #3C5962",
"u  c #396969",
"i  c #377378",
"p  c #454C4E",
"a  c #514A46",
"s  c #455846",
"d  c #434055",
"f  c #434D53",
"g  c #47495C",
"h  c #455757",
"j  c #4C5A5B",
"k  c #575C5B",
"l  c #4D6549",
"z  c #556844",
"x  c #59764B",
"c  c #476656",
"v  c #506C55",
"b  c #577A57",
"n  c #54755B",
"m  c #696657",
"M  c #796E5D",
"N  c #474C61",
"B  c #4A4D63",
"V  c #495866",
"C  c #545D62",
"Z  c #545A6A",
"A  c #4D5B71",
"S  c #555F74",
"D  c #4B6465",
"F  c #486767",
"G  c #5A6466",
"H  c #5A6566",
"J  c #526D6C",
"K  c #487669",
"L  c #537568",
"P  c #4C6E71",
"I  c #54647C",
"U  c #58667A",
"Y  c #467775",
"T  c #547574",
"R  c #567876",
"E  c #567B7A",
"W  c #597D7C",
"Q  c #676866",
"!  c #636C6D",
"~  c #716D6C",
"^  c #697667",
"/  c #767869",
"(  c #656974",
")  c #6B7373",
"_  c #67797A",
"`  c #747B7B",
"'  c #8C795E",
"]  c #837D6B",
"[  c #5D835A",
"{  c #65824D",
"}  c #778C4A",
"|  c #668857",
" . c #648A5C",
".. c #778E5A",
"X. c #6C945C",
"o. c #6E985C",
"O. c #739C5C",
"+. c #789A58",
"@. c #76A25D",
"#. c #7BA45D",
"$. c #7EA95E",
"%. c #598668",
"&. c #5D9264",
"*. c #4B8379",
"=. c #58867A",
"-. c #5F917E",
";. c #658866",
":. c #6E8E6E",
">. c #659665",
",. c #6C9C62",
"<. c #75A464",
"1. c #70A26F",
"2. c #809753",
"3. c #9BB94F",
"4. c #87A65B",
"5. c #83AD5D",
"6. c #8AAD5C",
"7. c #95AC5B",
"8. c #8DB256",
"9. c #87B05B",
"0. c #8CB15A",
"q. c #94B554",
"w. c #9BB653",
"e. c #9DB951",
"r. c #94B25A",
"t. c #9BB35A",
"y. c #A3B656",
"u. c #AAB757",
"i. c #A3B952",
"p. c #ABB954",
"a. c #AEB856",
"s. c #A4B559",
"d. c #AAB659",
"f. c #938E6D",
"g. c #8C8778",
"h. c #A9906C",
"j. c #8AAA6A",
"k. c #99B764",
"l. c #95A374",
"z. c #9CB377",
"x. c #A5BC68",
"c. c #A9B574",
"v. c #C8A876",
"b. c #CCAE7B",
"n. c #CEB17E",
"m. c #5E6F86",
"M. c #577B83",
"N. c #6D7987",
"B. c #3E888B",
"V. c #5B8383",
"C. c #588A87",
"Z. c #5E8B8B",
"A. c #5A928B",
"S. c #4C8D90",
"D. c #459799",
"F. c #698B88",
"G. c #788688",
"H. c #64918E",
"J. c #74948D",
"K. c #629494",
"L. c #689796",
"P. c #669D9D",
"I. c #6A9E9D",
"U. c #789C97",
"Y. c #44A09F",
"T. c #6AA29C",
"R. c #79A39D",
"E. c #489CA2",
"W. c #579AA4",
"Q. c #6E9EA1",
"!. c #45A4A4",
"~. c #47ABA9",
"^. c #4AAAA9",
"/. c #54A7A8",
"(. c #57B2AF",
"). c #5CB6B2",
"_. c #6CA2A3",
"`. c #69A8AC",
"'. c #71A5A3",
"]. c #73AAAA",
"[. c #75ABAA",
"{. c #6BB4B2",
"}. c #78B0B0",
"|. c #7CB3B4",
" X c #7AB8B6",
".X c #7BC6BD",
"XX c #899090",
"oX c #8C9695",
"OX c #839F98",
"+X c #A69F81",
"@X c #96A48F",
"#X c #84A49B",
"$X c #B6AC8D",
"%X c #A6A898",
"&X c #9299A6",
"*X c #9AA4A4",
"=X c #90B3A7",
"-X c #84B8B7",
";X c #85BBBC",
":X c #A5ADAF",
">X c #ACB5B7",
",X c #C6B58B",
"<X c #D3B985",
"1X c #90C4BA",
"2X c #A4C9BA",
"3X c #CAC096",
"4X c #DBC490",
"5X c #E2CE99",
"6X c #E5D29D",
"7X c #CDC7A2",
"8X c #E8D8A3",
"9X c #EFE1AB",
"0X c #EDE2B5",
"qX c #88BFC0",
"wX c #AFB8C1",
"eX c #8BC5C3",
"rX c #98D0C4",
"tX c #B8C1C3",
"yX c #ACD7C9",
"uX c #A9D9CB",
"iX c #B3DDCC",
"pX c #B7E0CE",
"aX c #B7E5D3",
"sX c #BBE9D6",
"dX c #C4C6CA",
"fX c #C2EBD7",
"gX c #C2EDD9",
"hX c #C7F1DC",
"jX c #F6EECE",
"kX c #F4F1E9",
"lX c white",
/* pixels */
"~.~.~.~.~.~.~.~.~.~.~.~.~.~.~.~.~.~.~.~.~.~.~.~.~.~.~.~.~.~.{.{.(.{.^.~.~.~.~.~.~.~.~.~.~.~.~.~.~.~.~.~.~.~.~.~.~.~.~.~.~.~.~.~.",
"~.~.~.~.~.~.~.~.~.~.~.~.~.~.~.~.~.~.~.~.~.~.~.~.~.~.~.~.~.{.7 G J 7 {.~.~.~.~.~.~.~.~.~.~.~.~.~.~.~.~.~.~.~.~.~.~.~.~.~.~.~.~.~.",
"~.~.~.~.~.~.~.~.~.~.~.~.~.~.~.~.~.~.~.~.~.~.~.~.~.~.~.~.~.{.j ! k 9 {.~.~.~.~.~.~.~.~.~.~.~.~.~.~.~.~.~.~.~.~.~.~.~.~.~.~.~.~.~.",
"~.~.~.~.~.~.~.~.~.~.~.~.~.~.~.~.~.~.~.~.~.~.~.~.~.~.~.~.(.N j Q ) 2 M.~.~.~.~.~.~.~.~.~.~.~.~.~.~.~.~.~.~.~.~.~.~.~.~.~.~.~.~.~.",
"~.~.~.~.~.~.~.~.~.~.^.^.~.~.~.~.~.~.~.~.^.^.^.^.~.~.~.~.T   j H ! $ o P.~.~.~.~.~.~.~.~.~.~.~.^.~.~.~.~.~.~.~.~.~.~.~.~.~.~.~.~.",
"~.~.~.~.D.u u u Y i M.V.*.A.A.*.&.n F n n ;.n ;.K *.A.N.7   f ! C f O 7 U.C.Y c b | c K  .*.*.=.A.A.*.%.i S.i u u i ~.~.~.~.~.~.",
"~.~.~.B.t - $.o.#.<.b 1.+.9.@.@.5.#.O.@.0.z.> 5 ! @X` ) @ O H ! ! `   7 f :.l.<.5.8.5.#.8.4.o.5.@.<.5.O.+.{ 6 @.@.{ t B.~.~.~.~.",
"~.~.~.t X.| 8.k.s.d.7.d.q.3.3.3.y.r.q.q.z.o 3 m.m.Z d Z +   ) j ) j   @ C H f z.8.q.3.w.p.p.t.q.q.t.p.9.4.} O.9.$.o. .%.B.~.~.~.",
"~.~.!.u x 6.u.p.i.p.e.q.8.y.i.p.p.p.p.z.  4 4 B m.m.m.S 5 1 ! ! G j   + 9 C ! j ^ k.q.6.q.i.3.3.3.w.q.8.t.t.s.t.$.@.[ K D.~.~.~.",
"~.~.~.i o.<.t.e.q.q.3.3.q.3.q.q.q.8.3.  > 5 m.m.m.Z U m.S S f C j ) > 0 6 j j ) G j g.x.3.w.3.q.q.3.e.q.q.p.a.r.9.$. .i ~.~.~.~.",
"~.~.~.Y l 6.s.d.t.y.t.q.8.8.8.y.q.8.x.  3 5 m.m.m.m.B U m.B Q ( j H # A > w q f h H D j l.y.y.t.p.q.3.8.q.q.9.,.,.o.[ F !.~.~.~.",
"~.~.~.u X.5.d.a.t.3.3.i.3.8.0.r.z.z.!   5 B m.S m.m.m.g m.U XX( H j   A 3 I A , h h k ! Q :.z.k.e.w.i.e.9.8.9.$.,.o.@.K Y.~.~.~.",
"~.~.~.8 <.0.t.d.p.p.p.p.s.s.d.d.+XC N.o d d 3 > 5 m.m.S 5 m.N.( ) j @ N g A m.O 0 h f p k H j x.i.p.p.s.d.d.s.s.k.5.<.L S.~.~.~.",
"~.~.~.%.1.<.5.0.y.p.e.w.q.t.y.q.) 5 C > d d d   # 5 m.m.g m.d ( ) G , B g U I 3 A m.@ 4 9 , f l.3.i.q.8.e.w.w.p.t.5.,.*.*.~.~.~.",
"~.~.~.V.1.1.o.#.8.8.8.3.3.8.8.q.B   # o d d d 3     B m.Z d > Q ) G @ V m.m.N.N g m.w 3 2 f $ H 3.3.e.3.8.8.q.q.0.1.%.A.E ~.~.~.",
"~.~.~.C.,.<.$.r.p.t.p.p.w.q.q.x.  3 d   > d 5 3     3 m.B 3 * Z oX` % w I N m.N B S N 4 4 ( tX:Xt.u.p.w.8.w.w.i.d.9.,.t u ~.~.~.",
"~.~.~.T @.$.8.e.3.e.e.q.3.3.i.l.X 5 d > > d 3   h.5 > 5 d 3 ' h.v.XX, w w A m.N w m.I ) >XwX:XG 3.e.q.3.3.e.i.i.y.$.o.n u ~.~.~.",
"~.~.~.n $.5.t.e.8.8.q.y.6.8.i.:.3 5 3 > > d   ~ v.v.M m ] h.<X8X<X$X# N A V m.m.N m.&XtX*X*XoXG 8.w.y.0.q.e.i.p.t.| [ | r ~.~.~.",
"~.~.~.| <.t.p.w.3.q.q.e.e.3.3.^ 5 d 4 > 5 3     ' 5X5X<X4X4X9X<X<Xv.> 4 m.A m.m.N I >XtX*X:XoXG 8.q.w.w.3.q.8.q.d.2.^  .t ~.~.~.",
"~.~.~.c $.4.6.r.r.8.5.4.q.e.3.l.3 5 d d 5 > $Xm *     ] 9X9X9X9X0X<XXXo w N Z m.5 N.tXtX>X*XoXC 8.5.8.q.3.3.q.q.4...o.@.b ~.~.~.",
"~.~.~.b $.n O.t.i.3.8.3.q.3.8.x.  > d d d o 8Xv.v.v.9X9X9X9Xg.+X9X5X$Xp , 1 V N g wX>XwXtXoXXXG q.q.q.q.q.q.8.5.O.+.b h e ~.~.~.",
"~.~.~.r | n X.5.q.3.3.8.8.8.8.8.oX  > >   k 4Xv.v.v.9X9X9X9Xk   9X9Xf.Z ! p 0 m.&X>X*XwX>XoX, @X3.q.q.8.q.8.q.8.w.d.O. .r ~.~.~.",
"~.~.~.8 b O.O.t.t.i.a.y.w.w.i.i.~ ( 5 o   Q <Xv.v.<X9X9X9X9X+X  ,X9X. k + G G 4 >X*XoXwXoXG.  l.i.p.p.q.i.i.p.i.t.7.X.L y ~.~.~.",
"~.~.~.8 T L <.s.a.i.i.8.8.i.i.:.  ( 5 N.  ] v.v.v.5X9X9X9X9X+X  k k . Z 7 2 p oX>XXX:X:XoXg ( ^ 3.w.8.8.i.e.p.p.s...8 V.E ~.~.~.",
"~.~.~.F %.o.$.8.t.s.w.3.q.q.H ! dX  ( B . f.v.v.<X8X. .             a p ) j f d oXoX:XoXoX0 3 / w.3.3.q.q.q.w.r.r.#.{ l 8 ~.~.~.",
"~.~.~.r ,.o.,.r.y.p.i.i.i.0.. . dXlX4 g . 5Xv.v.<X0X9X]         . * 9XM Z f ) % oXXXXXXXC U A > e.e.y.w.0.t.6.9.4.+.$.z < ~.~.~.",
"~.~.~.t &.<.5.r.p.p.p.p.s.d.  $Xk ( kX>X( ~ a ' ' ' ' ,X9X,X+X  5 8Xn.' g o 7 C oX) XXG.  ( B > x.a.y.s.y.r.@.,.,.[ v 8 6 ~.~.~.",
"~.~.~.Y &.,.<.@.6.r.q.q.8.t.  oXXX7X+XjXkXlXlXdXoXoXZ ' v.<X8X. ] <Xv.v.~ j   oXG.` oX3 C $ 3 3 x.3.q.8.y.5.@.<.,.,.O.X.8 ~.~.~.",
"~.~.~.K K &.,.,.>.o.5.8.8.q.  oXm.m.N.7X9X0XjXkXlXlX( ] v.v.5X. g.<Xv.v.g.Q Z oX! oXG.  ` ) C O / 3.3.i.t.q.8.8.5.$.1.H.P ~.~.~.",
"~.~.~.=.K &.<.5.5.9.q.i.w.8.  oXm.m.m.%X9X9X9X9XjXwX5 ' v.v.5X. ] <Xh.>     G.G 4 oXC G f k ! k o x.p.e.r.w.q.e.s.+. .R P !.~.~.",
"~.~.~.P [ $.r.0.t.y.p.s.w.x.  oXm.m.m.%X9X9X9X9XjXwX4 ] v.b.5X] 9Xc.  > 3 > # @ H G + j f 7 6 ! h . i.w.q.i.i.p.r.@. .r < ~.~.~.",
"~.~.~.P n $.r.p.w.w.3.q.q.x.  %Xm.m.m.%X<X9X9X9X8XwXw * ' b.4X9X9X5 A w O m.A o @ 4 h Z ) 9 f * C 2 q.q.3.i.i.p.r. .n n 8 ~.~.~.",
"~.~.~.n  .5.u.d.0.8.q.p.q.k.. 9X7X%XN.%Xv.<X9X0X0Xm.w 3 #   a a * B w o > > # 5 3 #   w w ( p 9 o 7 y.q.q.3.w.i.p.8.O. .q ~.~.~.",
"~.~.~. .X.4.t.t.w.q.8.q.w.x.  9X9X4X,X7X%X4X6X8X0XA w 3 N U w 4 4 3 > d 5 . m * + 3 > A m.V f 6 9 k.t.3.3.q.8.t.a.r.$.O.v ~.~.~.",
"~.~.~.n b O.5.8.q.8.8.8.q.3.H 3X9X8Xv.4Xm.m.%X%X8Xw w 3 5 5 d d 5 d d 3   M v.' .   % A > Z o $ l.8.q.8.3.q.q.q.s.7.@. .h ~.~.~.",
"~.~.~.c 5.5.q.t.i.3.e.q.8.8.z.M 9X9X<X4Xm.m.m.I 4 w w 3 5 g d d g 5 4 # > * ' 5 0X0X` ! ) 7 . x.3.q.3.8.q.8.q.t.t.t.5. .r ~.~.~.",
"~.~.~.n o.#.9.8.8.e.u.w.q.y.i.g.9X9X5X9Xm.m.m.m.` w w 3 d d d d 5 3   > 5 + 5 +X6X6XC H ! & - i.y.p.w.q.y.p.p.u.0.5. .K F ~.~.~.",
"~.~.^.r F ;.$.t.p.i.w.q.q.3.e.x.a 9X8X%Xm.m.m.m.] A > # > > > >       . >   3 ' 4X,XH C ! * z i.3.3.q.q.i.3.i.u.t.$.<.=.T ~.~.~.",
"~.~.^.E >.,.0.p.w.t.e.3.q.q.8.t.z.1 7Xg.m.m.G.$X0 # # . O . o @ 3     + C N.3 ' b.f.h ! ) * x w.r.3.3.8.3.q.y.5.5.<.,.-.F ~.~.~.",
"~.~.~.C.,.6.s.d.r.y.w.q.q.8.8.t.r.j.7 a m.G.$X  . % 9 , 0 V V A A 4 . @ 5 C 5 b.v.a j ! G - 7.r.y.q.3.8.8.r.4.&.>.>.&.L r ~.~.~.",
"~.~.~.L [ 5.u.d.3.3.e.p.p.r.r.r.k.} Q   m.$X    % 6 p X 7 w d N 4 g w , 2 ! p C ! + G G k z } 3.3.i.p.i.r.6.6.5.$.@.O.;.r ~.~.~.",
"~.~.~.t +.5.0.t.i.e.p.y.t.d.d.y.d.2.* ! * * . 2 % * 7 X X X . X +   . o f j 2 h 9 @ j j 6 z } e.i.p.y.t.d.q.w.p.y.6.,.c 6 !.~.~.",
"~.~.~.6 n X.6.a.a.i.3.3.q.q.3.3.t.2.- 1 p h X 6 6 @ 6 + 1 % > d 3 # 4 d 7 j 2 j 6 @ p 6 2 x } w.3.3.w.q.q.r.i.i.0.$.@.b : ~.~.~.",
"~.~.~.9 x o.+.s.w.w.y.y.3.8.8.t.7.} z p 9 h @ f p % 6 X > @ @ S Z d 3 , 7 j $ 9 % 2 9 f $ } } t.e.i.p.d.6.8.8.9.0.+.| = : ~.~.~.",
"~.~.~.q & | 5.#.#.@.9.+.$.5.6.r.#.{ l 9 6 j @ z z O j % ; l 9 s s z ; - 6 c * z - 2 j 7 2 } } j.5.t.t.$.x z o.{ $.{ , K < ~.~.~.",
"~.~.~.< 9 | { l -.-.%.b X.o.>.o.X.l x 9 s l z { x 6 s 6 [ [ z e h x t v = p s x { l l s 6 v | <.O.<.,.b 8 r 8 8 [ l y K.8 ~.~.~.",
"~.~.~.< Q.T t P.}.qX|.=.L K *.L L e c r F >.;.;.%.[ ;.-.J.-.V T u r R K t 8 t  .;. .L :.8 L b -.A.1.T.A.T.'.T.A.u K V.T , ~.~.~.",
"~.~.~.2 H.[.}.1XqX;X}._._.*.E T.T.[.|.T.H.h r Z.T.'.'.}.-X-X-X-XD L. X'.[.L.I.L.W 9 L.[.'. XT._.P.'.eX1XeXeX X].}.1XI.q O ~.~.~.",
"~.~.~.< h E P._.I.I.`.|.-XV E ;X;X;X|.].I.T 8 Q.-X]._.|. X X|.`.P W '.`._.}. X}.V.P P._.].'.].}.V.< V.|.}.'.I.].}._.D O 8 ~.~.~.",
"~.~.~.8 D E P.P.P.P.I.`.I.6 r L._.P.I.P.P.C.V V._.I.P.P.P.P.I.I.V.V.P.P.P.P.P.P.K.T _.P.P.P.].}.V.q E P.P.P.P.P.P.K.F $ i ~.~.~.",
"~.~.~.i V L K.I.P.P.P.P.P.F V C.P.P.P.P.P.Z.J K.P.I.P.P.P.P.P.P.V.T L.L.P.P.P.P.K.F P.P.P.P.P.K.J D H.P.P.P.P.P.Z.D < # Y.~.~.~.",
"~.~.~.{.> r E K.P.P.P.P.P.h 0 R K.P.P.P.P.V.e K.P.P.P.P.P.P.P.P.F F I.L._._._.P.Z.r K.P.P.P.P.Z.D q V.P.P._._._.'.H.N u ^.~.~.~.",
"~.~.~..X< T L.U.K.I._.T.K.D < V.P.P.P.P.K.V 2 K.P.P.P.P.K.Z.K.Z.P e ].|.}.].I.P.K.e H.I.P.P.P.K.V 6 C.K.P.I.].|.].M.q R ).~.~.~.",
"~.~.~.rXq T I.|.[._._._.P.C.h T K.P._._.}.I.e M.K.I.I.I.P.P.P.P.K.4 V.P.P.P.P.P.P.P P.P.P.P.P.P.V Y T.P.P.I.P.P.Z.J 6 L.^.~.~.~.",
"~.~.~.rXe D W P.I.I.P.P.P.K.T T K.P.P.P.I.F.e }. X X}.Q.P.P.P.P.Z.e E P.P.P.P.P.P.M.P.P.P.P.P.K.P Z.P.P.P.P.P.K.T j 0 1X~.~.~.~.",
"~.~.~.rXJ D E P.P.I.P.I.P.K.T J P.P.P.P.P.Z.e F.]._.I.P.P.P.P.P.V.e E P.P.P._.P.F.R P.P.P.P.P.P.T V.P.P.P.P.P.P.E F V uX(.~.~.~.",
"~.~.~..X#Xe J V.P.P.I.P.P.K.P M.P.P.P.P.I.Z.h =.}.'.I.P.P.P.T.K.V.D T K.P.I._.].I.J K.P.P.P.P.V.D P Z.P.P.P.L.W D < #XuX~.~.~.~.",
"~.~.~.).iXN.e P Z.K.K.K.K.E V =.P.P.T.P.K.T D J K.P.P.P.L.K.L.K.Z.D J Z.P.P.I.P.V.J L.P.P.K.F.V.e D Z.L.P.P.K.W D F.sXrX~.~.~.~.",
"~.~.~.~..XaX=XF.V.E Z.K.T.#XU.J W V.Z.K.K.W OXD J M.H.Z.E L R J W OXF.Z.A.W M.R L R.R V.V.E R R #X#XF.E E C.A.H.#XfXgX.X~.~.~.~.",
"~.~.~.~.(.rXuXaXyX2X2X2XsXfXfX2XF.F.J.R.=XrXsX2X#XF.=._ R W F.U.yXgXiX#XU.J.F.U.:XaXyX*XJ.J.=XyXgXiXiX2X=X=X>XrXfXsXeX~.~.~.~.~.",
"~.~.~.~.~.^.W.`.`.}.rXaXyXaXaXpXsXgXgXsXhXsX XeXuXiXiXiXiXiXpXyXuXgXiXsXfXgXgXhXhX;X XrXaXsXhXgXgXsXaXrXuXiX;X}. X).~.~.~.~.~.~.",
"~.~.~.~.~.~.~.~.E.D.S.W.W.`..XeXaXaXsXaXrX{.!.!./.`.;X-X`.`.W.D.W..X.XuXaXaXaXuX.XE.E.E./. X1X{.{.).^.E.E.W././.~.~.~.~.~.~.~.~.",
"~.~.~.~.~.~.~.~.^.^.D.D.D.!.~./.S.A.A.S.i Y u Y D.D.!.E.D.S.S.S.D.Y./.(.(./.E.S.i Y u B.B.E.~.E.~.~.^.D.!.~.~.~.~.~.~.~.~.~.~.~.",
"~.~.~.~.~.~.~.~.~.~.~.~.~.~.~.~.~.~.~.~.~.~.~.~.~.~.~.~.~.~.~.~.~.~.~.~.~.~.~.!.~.~.~.~.~.~.~.~.~.~.~.~.~.~.~.~.~.~.~.~.~.~.~.~."
};
