/* XPM */
static char *out[] = {
/* columns rows colors chars-per-pixel */
"64 64 230 2 ",
"   c #161C2E",
".  c #1A1E2D",
"X  c #1C2232",
"o  c #1A2838",
"O  c #212635",
"+  c #242A37",
"@  c #242A3B",
"#  c #2A2D3D",
"$  c #26303D",
"%  c #2B323D",
"&  c #28393D",
"*  c #33363B",
"=  c #2F403C",
"-  c #3A473A",
";  c #414E3A",
":  c #57683F",
">  c #2C2E41",
",  c #2B3342",
"<  c #2C3A48",
"1  c #323B45",
"2  c #353847",
"3  c #353549",
"4  c #3A3B4D",
"5  c #393E51",
"6  c #413E4A",
"7  c #354748",
"8  c #3A444B",
"9  c #344F4E",
"0  c #3D4A4D",
"q  c #3A4756",
"w  c #3B5658",
"e  c #3A625C",
"r  c #3B5C62",
"t  c #396969",
"y  c #377378",
"u  c #474C4D",
"i  c #514A46",
"p  c #455846",
"a  c #434155",
"s  c #434C52",
"d  c #46485C",
"f  c #455758",
"g  c #4C595A",
"h  c #525953",
"j  c #5E5D57",
"k  c #515B5E",
"l  c #60575C",
"z  c #4D6549",
"x  c #556844",
"c  c #59764B",
"v  c #476656",
"b  c #5A685A",
"n  c #577A57",
"m  c #54755B",
"M  c #6C6555",
"N  c #464B60",
"B  c #4A4D63",
"V  c #495867",
"C  c #545C62",
"Z  c #525869",
"A  c #4D5B71",
"S  c #555E74",
"D  c #4B6465",
"F  c #486767",
"G  c #5A6466",
"H  c #5A6467",
"J  c #526D6C",
"K  c #487669",
"L  c #537568",
"P  c #4C6E71",
"I  c #56667A",
"U  c #54657C",
"Y  c #467775",
"T  c #547574",
"R  c #567876",
"E  c #567B7A",
"W  c #597D7C",
"Q  c #60626B",
"!  c #636D6D",
"~  c #6B7965",
"^  c #656A74",
"/  c #6B7577",
"(  c #71797C",
")  c #8D795D",
"_  c #827E6C",
"`  c #5D835A",
"'  c #65824D",
"]  c #768C4A",
"[  c #668857",
"{  c #648A5C",
"}  c #778E5A",
"|  c #6C945C",
" . c #6E985C",
".. c #739C5C",
"X. c #789A58",
"o. c #76A25D",
"O. c #7BA45D",
"+. c #7EA95E",
"@. c #598668",
"#. c #5D9264",
"$. c #4B8379",
"%. c #58867A",
"&. c #5F917E",
"*. c #658866",
"=. c #659665",
"-. c #6C9C62",
";. c #6F8F70",
":. c #75A464",
">. c #70A26F",
",. c #809753",
"<. c #9BB94F",
"1. c #87A65B",
"2. c #83AD5D",
"3. c #8AAD5C",
"4. c #95AC5B",
"5. c #8DB256",
"6. c #87B05B",
"7. c #8CB05A",
"8. c #93B554",
"9. c #9BB654",
"0. c #9CB851",
"q. c #94B25A",
"w. c #9BB35A",
"e. c #A3B756",
"r. c #AAB757",
"t. c #A3B952",
"y. c #AAB954",
"u. c #A4B559",
"i. c #AAB659",
"p. c #B1B857",
"a. c #9A8565",
"s. c #879179",
"d. c #A58F6E",
"f. c #8DA76F",
"g. c #99B867",
"h. c #9CB378",
"j. c #A6BC69",
"k. c #A8A67C",
"l. c #A3B972",
"z. c #C8A876",
"x. c #CEB17E",
"c. c #5E6F86",
"v. c #577B83",
"b. c #6B788A",
"n. c #767B84",
"m. c #3E888B",
"M. c #5B8383",
"N. c #588A87",
"B. c #5E8B8B",
"V. c #5A928B",
"C. c #4C8D90",
"Z. c #459799",
"A. c #698B88",
"S. c #788588",
"D. c #64918E",
"F. c #788F93",
"G. c #629494",
"H. c #689796",
"J. c #669D9D",
"K. c #6A9E9D",
"L. c #789C97",
"P. c #44A09F",
"I. c #6AA29C",
"U. c #79A39D",
"Y. c #489CA2",
"T. c #579AA4",
"R. c #6E9EA1",
"E. c #45A4A4",
"W. c #47ABA9",
"Q. c #4AAAA9",
"!. c #54A7A8",
"~. c #57B2AF",
"^. c #5CB6B2",
"/. c #6CA2A3",
"(. c #69A8AC",
"). c #71A5A3",
"_. c #73AAAA",
"`. c #75ABAA",
"'. c #6BB4B2",
"]. c #78B0B0",
"[. c #7CB3B4",
"{. c #7AB8B6",
"}. c #7BC6BD",
"|. c #828B8D",
" X c #878C96",
".X c #8C9694",
"XX c #839F98",
"oX c #959A95",
"OX c #A79F81",
"+X c #84A49B",
"@X c #9CAE92",
"#X c #B7AD8B",
"$X c #A6A898",
"%X c #B2AD90",
"&X c #9299A4",
"*X c #93ADA6",
"=X c #84B8B7",
"-X c #85BBBC",
";X c #A3ABAD",
":X c #ABB4B5",
">X c #B1B7B7",
",X c #D3B985",
"<X c #C8BA91",
"1X c #90C4BA",
"2X c #A4C9BA",
"3X c #AAD0BF",
"4X c #C9C297",
"5X c #DBC591",
"6X c #E2CE99",
"7X c #E5D29D",
"8X c #CEC7A2",
"9X c #E8D7A2",
"0X c #EFE1AB",
"qX c #A1BAC1",
"wX c #8BC5C3",
"eX c #98D0C4",
"rX c #B8C1C3",
"tX c #ACD7C9",
"yX c #A9D9CB",
"uX c #B3DDCC",
"iX c #B7E0CE",
"pX c #B7E5D3",
"aX c #BBE9D6",
"sX c #CDD1D5",
"dX c #C2EBD7",
"fX c #C2EDD9",
"gX c #C7F1DC",
"hX c #F6EED0",
"jX c #FCFAF1",
"kX c white",
/* pixels */
"W.W.W.W.W.W.W.W.W.W.W.W.W.W.W.W.W.W.W.W.W.W.W.W.W.W.W.W.Q.Q.'.'.~.'.Q.W.W.W.W.W.W.W.W.W.W.W.W.W.W.W.W.W.W.W.W.W.W.W.W.W.W.W.W.W.",
"W.W.W.W.W.W.W.W.W.W.W.W.W.W.W.W.W.W.W.W.W.W.W.W.W.W.W.W.Q.'.8 H J 8 '.W.W.W.W.W.W.W.W.W.W.W.W.W.W.W.W.W.W.W.W.W.W.W.W.W.W.W.W.W.",
"W.W.W.W.W.W.W.W.W.W.W.W.W.W.W.W.W.W.W.W.W.W.W.W.W.W.W.W.W.'.k ! C u (.W.W.W.W.W.W.W.W.W.W.W.W.W.W.W.W.W.W.W.W.W.W.W.W.W.W.W.W.W.",
"W.W.W.W.W.W.W.W.W.W.W.W.W.W.W.W.W.W.W.W.W.W.W.W.W.W.W.W.!.w k Q / 1 v.W.W.W.W.W.W.W.W.W.W.W.W.W.W.W.W.W.W.W.W.W.W.W.W.W.W.W.W.W.",
"W.W.W.W.W.W.W.W.W.W.Q.Q.W.W.W.W.Q.W.W.W.W.W.W.W.W.W.W.W.T   k H ! # X K.W.W.W.W.W.W.W.W.W.W.W.W.W.W.Q.W.W.W.W.W.W.W.W.W.W.W.W.W.",
"W.W.W.W.Z.t t y Y y v.M.$.&.V.$.#.m F L m | n *.K $.C./ 0   f ! D s O 8 U.N.Y v ` [ e L =.Y $.%.N.V.$.$.K C.y t e y P.W.W.W.W.W.",
"W.W.W.m.e - +...O.O.m >.X.6.o.o.2.o...o.7.5.8.5.g.@X/ n.Q Z Q ! ! /   7 f ( f.:.2.5.2.X.8.1.X.2.o.:.2.o. .n - O.o.' e Z.W.W.W.W.",
"W.W.W.e | [ q.7.u.i.4.r.8.9.<.<.e.8.q.8.<.8.0.l.  O N c.U N 6 ^ / k   + k H s l.8.8.9.0.t.y.w.8.8.9.e.7.3.] o.6.+...[ K Z.W.W.W.",
"W.W.W.t c 1.i.y.t.y.t.8.5.t.y.y.y.t.y.8.2.8.h.a 3 6 6 Z c.c.c.B Q k   + s g ! h ~ g.8.6.8.<.<.<.<.9.8.8.9.w.i.w.+.o.` K Z.W.W.W.",
"W.W.W.y  .:.9.0.8.8.<.<.8.8.8.8.8.8.<.9.h.;.n.@ a a c.S c.S S c.S ^ ^ 5 1 B D / G g s.l.<.0.0.8.8.0.0.8.8.t.p.q.6.+.{ y W.W.W.W.",
"W.W.W.Y z 1.u.i.q.e.9.8.5.5.5.e.8.6.u.;.Q / ;.3 a c.c.c.c.c.S B S c.d n.> q q d f ! b g f.y.r.q.r.8.8.5.8.0.2.-.-. .` F E.W.W.W.",
"W.W.W.t  .6.i.p.w.0.9.t.0.5.7.5.h.h.b C Q u . 6 6 c.c.c.c.c.c.c.N c.c.b.> c.A > h s k G Q ;.h.g.<.0.0.0.7.7.2.+. . .o.K P.W.W.W.",
"W.W.W.9 :.7.w.i.y.t.y.y.y.i.i.i.k.f H g 6 B   a a a 3 @ 3 B c.c.S Z c.c.a S c.X q d s 0 C G g l.t.y.y.i.i.i.e.u.g.2.:.@.Z.W.W.W.",
"W.W.W.@.>.:.2.7.r.y.t.0.5.w.e.8.~ 0 , f 5 B   a a a >     > B c.S N 6 ^ 6 c.c.3 U U @ 8 s , d f.<.<.8.5.e.9.0.y.w.2.-.K $.W.W.W.",
"W.W.W.%.>.>.-.O.5.5.5.<.<.5.5.5.  # B 6 5     > a a a > . . 6 c.B >   n.c.b.b.N a U N 3 1 f % M 8.<.t.<.5.8.8.8.7.>.@.V.T W.W.W.",
"W.W.W.N.-.:.+.q.y.q.y.r.0.8.8.<.1 q > ^ O 6 3   a a 6   l X a S 6 . ) M b.B c.N V S N 5 5 X 8 ~ 8.4XrX.X5.8.0.i.u.2.=.F t W.W.W.",
"W.W.W.R o.2.5.0.0.t.0.8.8.<.<.<.h . 3   4 d 6 > 6 d X d.z.) 6 6 l d.z.6X#Xb.c.N d A S 6 U @ . >X>X:X;XH <.<.t.t.e.+.-.m t W.W.W.",
"W.W.W.D +.6.w.0.5.6.8.e.4.8.t.<.j.M A   6 6 a @ 6 4   OX,X,Xz.,Xz.,X7X5Xz.OXc.c.q c.c.N S 3 ;.rX.X;X&XH 8.t.t.r.w.{ { [ w W.W.W.",
"W.W.W.[ 2.w.e.0.<.8.8.0.9.<.<.5.g.7 d   a a a X 6 > 4 . X _ _ _ 0X0X0X6X6Xz. Xc.N c.c.d 6 4 ;XrXoX>X.XG <.8.5.8.y.,.L [ f W.W.W.",
"W.W.W.v O.1.3.q.8.5.2.6.5.<.<.<.j.G # 8 > a a a 6   6Xz.) _ <X0X0X0XOX6X0X,XoXc.5 N S N Z c.rXrX>X*X.XG <.<.8.8.1.} ..O.m W.W.W.",
"W.W.W.n :.m ..u.t.<.8.8.8.<.8.8.k.X A c.  3 a 5 O u ,Xz.z.,X0X0X0X0X. _ 0X7XOXB d c.A 5 c.rX;XrXrX.X! f 9.8.5.+.X.X.m v w W.W.W.",
"W.W.W.w [ m | 2.8.<.8.8.5.8.5.5.;.3 c.d b.        _ ,Xz.z.,X0X0X0X0Xi l 0X0X# S N c.c.A  X>X X:X>X.XZ f.5.7.8.5.w.i...{ w W.W.W.",
"W.W.W.9 n ....q.9.t.p.e.8.9.t.t.~ B A d c.b.b.    _ z.z.z.7X0X0X0X0X_   0X#Xa 3 c.r c.A &X;X.X:X.X.X, h.t.t.t.y.w.4.| J w W.W.W.",
"W.W.W.9 T L :.u.p.t.t.5.5.t.t.t.@ ^   5 c.c.a Z   9Xz.z.z.<XOXOXOXOXl   C   3 c.  5 c.c.&X.XoX;X.X^ b 5.t.t.y.y.i.} 9 N.E W.W.W.",
"W.W.W.F @. .o.5.w.u.9.8.8.8.5.9.Z   kXB 6 5 d n.u ,Xz.,X0X<Xi               <X  k 2 q S./ .X;X*X.X1 l.5.8.q.9.q.8.X.` z 9 W.W.W.",
"W.W.W.w -. .-.q.y.y.t.t.t.3.3.h.Q 6 l rX>X  b.4 s.x.z.z.z.6X0X0X_       i #X5X  ^ ! s d ^ .X;X.X(   t.0.5.q.7.6.1...+.x < W.W.W.",
"W.W.W.e #.o.2.q.y.y.y.y.u.i.i.k.Q k.oXl |.kX:X^ Q i ) ) ) a.z.,X6X0X0X  <X5Xz.i / g S.  S.|.S..X# ;.r.e.i.q.o. .-.` c 9 7 W.W.W.",
"W.W.W.Y #.:.-.:.3.9.8.8.8.8.9.;.6 j c.|.8X_ hXjXkXkX X X Xi z.z.z.z.0X  0Xz.z.M B f g C .X/ .X^   t.8.7.9.2.o.o.-.-. .| 7 W.W.W.",
"W.W.W.K K #.-.-.=.-.2.5.5.8.8.  > j c.c.c.|.8X0X0XhXkXkXsXi z.z.z.z.0X  0Xz.z.u > /   .X|.( .Xa s.<.<.t.0.8.5.5.2.+.>.D.P W.W.W.",
"W.W.W.$.K #.:.2.2.6.9.9.8.5.f.% Q j c.c.c.c.$X0X0X0X0XkXb.i z.z.z.z.0X% 0Xz.i 3 @ < Z |.8 ( |.B   j.t.t.q.w.8.w.w...| T P W.W.W.",
"W.W.W.P ` 6.w.5.w.e.y.i.0.l., G d j c.c.c.c.$X0X0X0X0XhXqX< 4 a.z.z.0X0X0X4 O   c.o # 4 * G f n.f   u.9.8.0.y.y.q...{ e < W.W.W.",
"W.W.W.P n :.q.i.9.0.<.8.8.j.k s 1 j |.c.c.c.$X5X0X0X0X0XrX3     i a.,X5Xu > q   # I A > O f 6 Z ( C 8.8.0.t.t.y.w.[ m m 7 W.W.W.",
"W.W.Q.m { 3.i.i.5.5.8.t.8.h.  2 u l 0X8Xn.c.$Xz.7X0X0X0Xc.> q A +       > A o   . . 3 6 3 .     q   l.f.8.<.9.w.y.8.O.{ q W.W.W.",
"W.W.Q.[ | O.w.e.9.8.5.8.<.j.+ s 8 C 0X0X9XOX.X<X,X5X0X0Xn.A > a B B a 5 B 3 5 @ . M > * > 6 > 3 c.q l.0.<.8.5.9.p.q.O. .v W.W.W.",
"W.W.W.n ` ..2.3.8.8.5.5.5.8.g.f.8 Z #X0X9Xz.z..Xc.F.oX0X_ A > d 6 6 a a a a a a   * z.x.>   O a A   8.8.<.8.8.9.u.4.o.{ v W.W.W.",
"W.W.W.v :.2.5.9.r.0.0.8.8.8.8.8.f.d u 0X0X,Xz..Xc.c.c.,   B > 6 6 d a a a a a 3 . . a.) 6 ^ 6     l.8.5.8.5.8.q.q.u.2.{ w W.W.W.",
"W.W.W.m ..O.6.5.5.0.y.w.q.t.t.t.u.; Q OX0X9X,XoXc.c.c.$X  V > 6 a a a a 3 3 >   6 3   6 ( 1 ; 9.y.y.w.8.t.y.t.p.7.1.#.m F W.W.W.",
"W.W.Q.r F @.1.w.e.t.<.8.8.<.t.t.i.x k C <X0X9Xc.c.c.c.#X, q                   O O >   k ! % : t.<.8.8.8.t.t.t.y.w.+.:.%.T W.W.W.",
"W.W.W.E =.-.4.y.9.q.0.<.8.8.5.w.q.c 8 ^ Q 0X0XU c.c.$Xu A   O # # X X # 6 #   M ; s./ ! ! * ' 8.9.<.<.5.8.q.e.3.:.2.>.%.F W.W.W.",
"W.W.W.&...2.u.i.q.t.9.8.8.5.5.9.g.] X ! ( u 0XB c.c._     d V A V Z B 4 6 * O M ) i f ! G - 4.9.e.8.<.5.5.8.2.#.#.=.#.L w W.W.W.",
"W.W.W.K { 3.i.i.9.<.t.t.t.4.q.q.w.] - h k ( 6 8 n.%X# . , q q N 8 q N , * u 1 u ! + G G k : ] 8.<.t.t.r.7.7.7.2.2.o.-.*.w W.W.W.",
"W.W.W.w ..2.7.w.t.t.t.t.w.r.i.e.i.] - 8 G 7 + a s.  O O X X . X X     X % 8 % k 0 + g g 7 : ] t.t.y.e.w.p.q.9.y.i.2...v 7 W.W.W.",
"W.W.W.7 m { 3.p.p.t.<.<.8.q.<.<.w.,.; 1 0 0 + ! / H k O 2 # 3 q 3 # # # % D 0 g 7 $ 0 8 , c ] e.<.<.9.8.q.8.t.t.5.+...n $ W.W.W.",
"W.W.W.7 c | 1.w.9.9.<.t.9.5.q.9.g.} : 8 0 g @ 8 7 + h $ 5 6 6 S Z d a > 8 g # 0 % * 8 f % ] ] q.<.t.y.i.3.5.5.6.7...[ = $ W.W.W.",
"W.W.Q.9 & ' 2.+.+.o.2.o.2.:.3.q.X.[ z 0 7 g @ : : o f $ : z 0 p p x : - 7 g * x ; 1 g 8 2 ] ] f.2.w.q.O.c x  .' 2.` , K < W.W.W.",
"W.W.W.< 0 [ ` z &.&.@.n |  .|  .| z c 0 p z x ' ` * p 0 n ' z w f c e z = 0 p c ' z z z 7 m [ :.-.2.:.m 9 w 9 9 c z r G.9 W.W.W.",
"W.W.W.< /.T v H.[.-X[.%.L K $.L L w v w D =.*.*.%.` *.*.H.%.V T t w T K e 9 e { *.[ J *.9 L n &.V.>.I.V.K.).I.V.K K N.P , W.W.W.",
"W.W.W.1 D._.].wX-X-X[.)./.$.W I.I.`.[.I.D.f w V././._.=X=X=X=X=XD H.{.`.].G.I.H.W 0 H.]./.{.I.I.G.).wX1XwXwX{.].].-XK.9 o W.W.W.",
"W.W.W.< f E J./.J././.{.-XV E -X-X-X{._.R.T 9 R.=X(.R.[.{.=X[.(.P v.)././.].{.].B.F J./.(._._.].B.< M.[.].)./.).].).t X 9 W.W.W.",
"W.W.W.9 F E J.J.J.J.J.(.H.8 w H./.J.J.J.J.v.g v././.J.J.J.J.J.J.M.M.J.K.J.J.J.J.D.E J.J.J.J.).].M.q E J.J.J.J.J.J.G.F $ y W.W.W.",
"W.W.W.y V L G.J.J.J.J.J.G.D D N.J.J.J.J.J.B.J J.J.J.J.J.J.J.J.J.M.T G.J.J.J.J.J.J.D J.J.J.J.J.G.J D D.J.J.J.J.J.B.F < $ P.W.W.W.",
"W.W.W.'.@ f v.G.J.J.J.J.J.V 8 E D.J.J.J.J.M.w H.J.J.J.J.J./.J.J.F F R.H.)./.J.J.B.w H.J.K.J.J.N.D q N.G.J././.R.).B.V V W.W.W.W.",
"W.W.W.}., E H.L.G.J././.V.F 1 N.J.J.J.J.G.V < D.J.J.J.J.G.B.G.B.P w ).[.[._./.J.G.q G.J.J.I.J.G.V 7 M.G.J./._.{._.M.q E ^.W.W.W.",
"W.W.W.eX9 T K.[.]./././.J.B.f T V.J./._.].K.w M.H./.J.J.J.J.J.J.G.5 M.J.J.J.J.J.J.P H.J.J.J.J.J.D Y J.J.J.J.J.J.B.J 7 L.Q.W.W.W.",
"W.W.W.eXq D W H.J.J.J.J.J.H.P E G.J.J.J.K.A.w `.[.{.].J.J.J.J.J.B.f E J.J.J.J.J.J.M.J.J.J.J.J.G.J B.J.J.J.J.J.G.T V 7 -XW.W.W.W.",
"W.W.W.eXT D W K.J.J.J.J.J.H.J J J.J.J.J.J.B.0 B.).)./.J.J.J.J.J.N.q E J.J.J.J.J.A.E J.J.J.J.J.J.T M.J.J.J.J.J.J.%.f V yX~.W.W.W.",
"W.W.W.}.XXs D M.J.J.J.J.J.V.J M.J.J.J.J./.B.f A.].).K.J.J.J.J.V.B.V T G.J.J./.`.H.J G.J.J.J.J.M.F J N.J.J.J.H.W F < +XyXW.W.W.W.",
"W.W.W.^.uXA.w J B.G.G.H.J.T D W J.J.K.J.G.T D J G.J.J.G.H.G.H.G.B.D J M.J.J.J.J.M.T G.I.J.G.A.M.w D B.J.J.J.G.v.D A.aXeXW.W.W.W.",
"W.W.W.W.}.pX*XD.A.E N.G.K.+XL.J %.M.B.V.V.W L.D P W D.D.W P R T R +XD.D.V.%.M.R L U.E M.M.W R R +X+XA.E E N.V.D.+XdXdX}.W.W.W.W.",
"W.W.W.W.~.eXyXpXtX:X2XeXiXfXdX2XA.F.A.U.*XtXaX2X+XA.W %.E / S.L.3XgXuX+XL.S.A.L.;XaX3X*XA.L.*XtXdXuXiX2X*X*X:XeXfXdXwXW.W.W.W.W.",
"W.W.W.W.W.Q.T.(._.[.wXpXtXpXaXiXfXfXfXaXgXaX{.1XuXyXuXuXuXiXiXtXyXfXiXaXdXdXfXfXgX-X{.eXuXaXgXfXfXaXpXeXyXuX-X].{.^.W.W.W.W.W.W.",
"W.W.W.W.W.W.W.W.Y.Z.C.T.T.(.}.wXpXaXaXpXeX'.P.E.!.(.-X=X(./.T.Z.Y.}.}.yXpXaXpXyX1XY.Y.Y.!.{.1X'.'.^.Q.Y.Y.T.!.!.E.W.W.W.W.W.W.W.",
"W.W.W.W.W.W.W.W.W.Q.Y.Z.Z.E.W.!.C.C.V.C.y Y t Y Z.Y.E.Y.Z.Z.C.C.Z.P.!.~.~.!.Y.C.y y y m.C.Z.W.Y.W.W.Q.Z.W.W.W.W.W.W.W.W.W.W.W.W.",
"W.W.W.W.W.W.W.W.W.W.W.W.W.W.W.W.W.W.W.W.W.W.W.W.W.W.W.W.W.W.W.Q.Q.Q.W.W.W.W.W.E.W.W.E.W.W.W.W.W.W.W.W.W.W.W.W.W.W.W.W.W.W.W.W.W."
};
