/* XPM */
static char *out[] = {
/* columns rows colors chars-per-pixel */
"64 64 235 2 ",
"   c #161C2E",
".  c #1A1E2D",
"X  c #1C222F",
"o  c #1D2333",
"O  c #1A2838",
"+  c #212635",
"@  c #232A38",
"#  c #24293A",
"$  c #2A2D3C",
"%  c #26303D",
"&  c #2B363A",
"*  c #33343A",
"=  c #34493F",
"-  c #3A4939",
";  c #56683F",
":  c #1F3240",
">  c #2C2E41",
",  c #2C3442",
"<  c #2C3A48",
"1  c #323B45",
"2  c #343846",
"3  c #35364A",
"4  c #3A3C4C",
"5  c #383D51",
"6  c #423F41",
"7  c #413E52",
"8  c #354548",
"9  c #3B444C",
"0  c #344F4E",
"q  c #3C4A4D",
"w  c #3C4352",
"e  c #394A54",
"r  c #3A455A",
"t  c #3B5658",
"y  c #3A625C",
"u  c #3F4D63",
"i  c #3B5C62",
"p  c #396969",
"a  c #377378",
"s  c #464C4D",
"d  c #514A46",
"f  c #445B44",
"g  c #434055",
"h  c #454A58",
"j  c #4A5456",
"k  c #455658",
"l  c #4D595B",
"z  c #575C5A",
"x  c #655A4E",
"c  c #4C6549",
"v  c #526A49",
"b  c #59764B",
"n  c #476557",
"m  c #58665B",
"M  c #54755B",
"N  c #577A58",
"B  c #6D6454",
"V  c #716D59",
"C  c #474B60",
"Z  c #4A4D63",
"A  c #495766",
"S  c #555D62",
"D  c #545967",
"F  c #50576D",
"G  c #4E5C72",
"H  c #555F74",
"J  c #456364",
"K  c #4B6465",
"L  c #496968",
"P  c #5A6566",
"I  c #5B6566",
"U  c #526D6C",
"Y  c #487669",
"T  c #537568",
"R  c #4C6E71",
"E  c #56667A",
"W  c #54647C",
"Q  c #467775",
"!  c #547574",
"~  c #567876",
"^  c #567B7A",
"/  c #597D7C",
"(  c #656769",
")  c #636D6D",
"_  c #697766",
"`  c #797E6D",
"'  c #646A73",
"]  c #6A7576",
"[  c #737A7C",
"{  c #8C795E",
"}  c #857465",
"|  c #827E6C",
" . c #857D74",
".. c #5D835B",
"X. c #63824F",
"o. c #778C4A",
"O. c #668857",
"+. c #648A5C",
"@. c #778E5A",
"#. c #6C945C",
"$. c #6E985C",
"%. c #739C5C",
"&. c #789A58",
"*. c #76A25D",
"=. c #7BA45D",
"-. c #7EA95E",
";. c #598668",
":. c #5D9264",
">. c #4B8379",
",. c #58867A",
"<. c #5F917E",
"1. c #658866",
"2. c #6D8F6F",
"3. c #659665",
"4. c #6C9C62",
"5. c #75A464",
"6. c #70A26F",
"7. c #809753",
"8. c #9BB94F",
"9. c #87A65B",
"0. c #83AD5D",
"q. c #8AAD5C",
"w. c #95AC5B",
"e. c #8DB256",
"r. c #87B05B",
"t. c #8CB15A",
"y. c #93B554",
"u. c #9BB653",
"i. c #9CB851",
"p. c #94B25A",
"a. c #9BB35A",
"s. c #A0B94F",
"d. c #A3B656",
"f. c #AAB757",
"g. c #A3B952",
"h. c #ABB954",
"j. c #A4B559",
"k. c #AAB659",
"l. c #B1B857",
"z. c #8D8D72",
"x. c #AF9872",
"c. c #8BA96C",
"v. c #9AB966",
"b. c #95A577",
"n. c #9CB378",
"m. c #A5BC6A",
"M. c #A5BC72",
"N. c #C8A876",
"B. c #C8AD7C",
"V. c #ACC07E",
"C. c #5E6F86",
"Z. c #577B83",
"A. c #6D7B8A",
"S. c #3E888B",
"D. c #5B8383",
"F. c #588A87",
"G. c #5E8B8B",
"H. c #5A928B",
"J. c #4C8D90",
"K. c #459799",
"L. c #698B88",
"P. c #798688",
"I. c #64918E",
"U. c #768E93",
"Y. c #629494",
"T. c #689796",
"R. c #669D9D",
"E. c #6A9E9D",
"W. c #789C97",
"Q. c #44A09F",
"!. c #6AA29C",
"~. c #79A39D",
"^. c #489CA2",
"/. c #579AA4",
"(. c #6E9EA1",
"). c #45A4A4",
"_. c #47ABA9",
"`. c #4AAAA9",
"'. c #54A7A8",
"]. c #57B2AF",
"[. c #5CB6B2",
"{. c #6CA2A3",
"}. c #69A8AC",
"|. c #71A5A3",
" X c #73AAAA",
".X c #75ABAA",
"XX c #6BB2B1",
"oX c #68BCB6",
"OX c #78B0B0",
"+X c #7CB3B4",
"@X c #7AB8B6",
"#X c #7BC6BD",
"$X c #8C918F",
"%X c #8C9695",
"&X c #A69D83",
"*X c #9BAD85",
"=X c #84A49B",
"-X c #B9AE8A",
";X c #ACB487",
":X c #A6A898",
">X c #949CA3",
",X c #9BA5A5",
"<X c #90B3A7",
"1X c #84B8B7",
"2X c #85BBBC",
"3X c #A8B1B3",
"4X c #D3B885",
"5X c #B2C787",
"6X c #90C4BA",
"7X c #A4C9BA",
"8X c #B3CDB5",
"9X c #DBC490",
"0X c #E2CE99",
"qX c #E5D29D",
"wX c #CDC7A2",
"eX c #E8D8A3",
"rX c #EFE1AB",
"tX c #F1E6B9",
"yX c #A1BAC1",
"uX c #8BC5C3",
"iX c #98D0C4",
"pX c #B8C1C3",
"aX c #ACD7C9",
"sX c #A9D9CB",
"dX c #B3DDCC",
"fX c #B7E0CE",
"gX c #B7E5D3",
"hX c #BBE9D6",
"jX c #C6C8CC",
"kX c #C2EBD7",
"lX c #C2EDD9",
"zX c #C7F1DC",
"xX c #F6EECF",
"cX c #E4E7EA",
"vX c white",
/* pixels */
"_._._._._._._._._._._._._._._._._._._._._._._._._._._._._._.XXXX].XX`.`._._._._._._._._._._._._._._._._._._._._._._._._._._._._.",
"_._._._._._._._._._._._._._._._._._._._._._._._._._._._._.XX8 I U 8 XX_._._._._._._._._._._._._._._._._._._._._._._._._._._._._.",
"_._._._._._._._._._._._._._._._._._._._._._._._._._._._._.XXl ) m s }._._._._._._._._._._._._._._._._._._._._._._._._._._._._._.",
"_._._._._._._._._._._._._._._._._._._._._._._._._._._._.].u z I ] 2 Z._._._._._._._._._._._._._._._._._._._._._._._._._._._._._.",
"_._._._._._._._.`.`.`.`._._._._._._._._._._._._._._._._.R   l I ) # o R._._._._._._._._._._._._._._._._._._._._._._._._._._._._.",
"_._._._.K.p p a >.a Z.D.>.<.H.Q ..T L ..M #.N +.Y >.H.] e   j ) K h + 9 ~.F.Q n N O.n Y :.>.>.<.H.H.>.;.a J.a p p p Q._._._._._.",
"_._._.S.y - -.%.*.%.M 6.*.r.*.=.0.=.$.*.r.e.y.e.0.b.n ] # O I ) ) [   9 j 2.b.5.-.e.0.&.e.9.%.0.5.5.0.%.$.b 0 =.=.X.y K._._._._.",
"_._._.y #.O.p.t.j.k.w.f.y.u.8.8.i.p.a.y.8.y.8.m.z.k ] 8 @   ] l ] l   + S P q n.e.8.8.8.h.h.a.y.y.a.h.t.t.o.&.r.-.%.O.Y K._._._.",
"_._.).p b 9.k.h.g.h.g.y.e.i.h.h.h.h.g.e.q.e.n.m S ' j 4 + X ' ( I j . @ q S P j _ v.p.t.y.s.8.8.8.u.y.e.a.d.k.a.-.*.+.Y K._._._.",
"_._._.a $.-.a.i.y.y.8.8.y.u.y.y.y.y.8.u.n.z.P h g H H H Z 7 A.( l ] $ w 8 k K ] I l z.m.8.8.i.y.y.8.8.y.y.d.f.p.r.-.+.a _._._._.",
"_._._.Q c 0.j.k.p.j.u.y.e.e.e.d.w.t.m.1.P h > g F C.C.C.C.C.H H ] P # G > r r k j P P l z.h.j.a.f.y.u.e.y.8.r.4.4.$...J )._._._.",
"_._._.p #.0.k.l.u.i.u.g.8.e.r.p.v.n.m I P.# g g F F C.H Z ' C.C.g l   G 3 W G > k h m P ( 2.n.a.8.u.8.i.r.t.r.*.4.$.*.Y K._._._.",
"_._._.0 5.t.a.k.h.g.h.f.f.j.k.f.b.z I l w 3 7 C.C.C.C.C.C.Z F C.Z A.+ Z C G G > r k k q z P l M.g.h.h.k.k.k.d.k.v.0.5.;.K._._._.",
"_._.`.;.6.5.0.t.d.h.s.8.e.a.i.a._ q , j   7 F C.Z 7 7 Z C.C.7 C.F $X> A h E C.3 W W + 5 s , h c.8.s.y.t.d.u.u.h.a.0.4.Q >._._._.",
"_._._.D.6.6.4.=.e.e.y.u.8.e.e.y.. % l g   7 7 7 3   . 3 H C.Z H 3 ' @ A C.A.A.C h C.C 3 1 j > ( 8.8.s.8.e.y.y.y.t.6.;.H.~ _._._.",
"_._._.F.4.5.-.p.h.a.h.f.u.y.y.8., e > 7   7 7 7 3 >   . Z C.F 7   $X* r H C C.r Z G h 5 5 o 8 _ a.h.f.u.y.y.y.f.k.0.4.y p _._._.",
"_._._.Q =.0.e.i.8.u.s.y.y.8.8.s.j X 3 '   > 7 7 7 $ .   7 C.Z > 6 D D C u A C.C u G H 5 W # . z.i.8.y.y.8.8.g.g.d.-.#.M p _._._.",
"_._._.M -.0.a.i.e.e.y.d.p.y.g.8.m.B h .   o 7 7 3 * N.6 3 7 7 6 N.x.N.C.G A C.C.C C.C.C G , m v.e.u.d.e.y.s.g.f.a.+.+.O.t _._._.",
"_._._.O.-.a.d.a.8.y.e.u.u.y.8.e.n.P # g 7 o 7 C   z.N.N.V ( } N.4XqX4X&XC.G C.C.C C.C.h 7 3 3 u.V.8X5Xi.8.y.e.y.f.7.T O.n _._._.",
"_._._.n 5.9.w.y.y.e.0.r.y.8.8.8.V.  4 g 7 > 7 >   * | qX9X9X9X0XeX4X4XN.u C G C.7 5 G C F 3 %X8X8X,X*Xy.8.8.y.y.9.@.%.=.M _._._.",
"_._._.N =.N %.a.g.u.y.8.y.8.y.y.$X> g g 7 3 7 > -XB     2  .rXrXrXrXrX4X .3 Z C C G G C C.>X3X>X,X[ n.y.u.y.e.0.&.&.M n t _._._.",
"_._._.t O.M 3.0.y.8.y.y.e.y.e.t.$X# g 7 7 g 3   eXN.N.N.rXrXrXrXz &XrXqX4Xg 5 C.C C.C.G A.pXpX>X3X[ *Xe.y.r.y.e.a.j.&.+.t _._._.",
"_._._.0 N %.&.a.u.g.l.d.y.u.g.g.z.  5 7 7 7 o  .9XN.N.N.rXrXrXrX    rXrXz.[ S 5 G G G C.3XpXpX3X%X[ ;Xy.g.g.g.g.a.w.+.T i _._._.",
"_._._.0 ! T 5.j.l.g.s.e.e.g.g.g.# C + 7 7 >   | 4XN.N.4XrXrXrXrX| . -XrX  P k F O u C.A.pXpXpX,X%X[ *Xy.g.g.h.l.j.&.0 D.~ _._._.",
"_._._.J ;.$.-.r.a.d.u.8.y.y.t.u.2 3 '   $     4X4XN.N.4XrXrXrXrX|   x m   [ h s S 8 r pX>X,XpX,XP.& m.y.y.p.a.p.p.&.X.c 0 _._._.",
"_._._.t 4.$.4.p.h.g.g.g.g.t.t.n.3 A 5 3 l S   9XN.4X4X0X            . . s d ] k 9 ( 3X,X%X3X,X%XD b.g.g.e.p.t.r.9.%.-.v < _._._.",
"_._._.y :.5.0.p.f.h.h.f.d.k.k.;X  $X  D I A.| 9XN.N.9XtX4X[           2 rXV ' k l ) pX%X%X3X%X%Xj h.d.d.f.e.*.$.5...v q 8 _._._.",
"_._._.Q :.*.4.*.q.p.8.y.e.a.i.]   %XjXw ( Z | N.N.N.N.N.4X0XrX4X&X. 4 eX4X{ Z 9 l ' S %X,X,X%Xw *Xs.y.r.d.0.*.5.4.4.4.#.0 _._._.",
"_._._.Y Y :.5.3.3.$.0.e.e.y.y.h rXh ' vXjX5 s B z.N.N.N.N.N.N.4XrX  z.4XN.N.(   D   %X%XP %X]   z.8.8.s.a.y.e.e.0.-.6.I.R _._._.",
"_._._.,.Y :.5.0.0.0.y.g.u.e.b.A :X$Xx.$XjXvXvX%X$X.     6 N.N.N.rX  | 4XN.N. .{ l A %X[ $X%X3 S o m.g.g.p.u.y.i.d.*.+.~ R )._._.",
"_._._.R ..-.p.t.a.d.h.d.u.M., ( :XC.A.:XeXtXxXvXvXvXvXvXd N.N.N.rX  ` 4XN.6 ( B.  P.%X) $XE . ) j o d.i.y.i.h.h.p.%.+.t < _._._.",
"_._._.R M -.p.h.u.u.8.y.y.m.l ] $XC.C.C.C.rXrXrXrXxXcXA.d N.N.N.rXz 4X-X* 3 + z 8 $XS $X%X1 ' , S , y.y.g.s.g.g.a.+.M M 0 _._._.",
"_._.`.N +.q.k.f.t.e.y.d.p.n.o z C.C.C.C.:XeXrXrXeXxXyXr   6 { N.qXrXrX2 r   3   ' S 4 %X[ w q q o 8 f.e.y.8.i.i.f.e.=.+.e _._._.",
"_._._.O.#.=.a.d.u.y.y.y.8.m.+ x C.C.C.C.:XeXrXrXrXxXyXr 3 > o * B B 6 r C.  A r   o 9 P 4 D k 1 q v.u.8.8.y.e.a.f.a.=.$.n `._._.",
"_._.`.N N %.0.q.y.y.e.e.y.8.v.z wX:XA.C.:X4XeXeXrXrXU.Z 5 C.H u 3 3 r W > o o r Z 3 $ ,   S D h b.e.y.y.8.y.y.u.k.w.*.+.n _._._.",
"_._.`.n 5.0.y.u.d.8.8.y.y.e.t.` rXrXeX&XC.0XN.4XrXrX:XC.> 7 Z C.C.H G > 3 > * B   > 7 >   r G   u.u.y.e.y.e.y.p.a.a.0.+.t _._._.",
"_._._.M $.=.9.e.e.g.h.u.y.g.g.@.rXtX9XB.9X%X:XwXrXrX} C.# 7 7 g C 7 7 7 5 > } 6 N.* O 3 3 A C.  g.h.g.y.g.g.h.f.t.0.+.Y L _._._.",
"_._.`.i L 1.-.a.d.g.u.y.y.8.g.` 4XtXeXN.9XC.C.C.H ( 3 E 3 7 7 g 7 7 7 7 5   . B N.x ' w o 5 O b.8.y.e.y.g.s.g.f.a.-.5.,.R `._._.",
"_._._.^ 3.4.p.h.y.a.i.8.e.y.t.M.j rXrX4XqXC.C.C.C.[ r r 3 7 7 7 7 7 7 3   > 7   . z.j ) P.( z.e.u.u.8.e.y.e.d.q.0.-.3.<.L _._._.",
"_._._.F.4.q.j.k.p.d.u.y.8.e.t.u.( -XeX9XwXC.C.C.C.z.r r $ > > > > 3       + 7 + &Xd l ) I * a.y.g.y.8.e.y.p.9.:.:.3.3.T t _._._.",
"_._._.Y O.q.k.d.8.8.g.h.g.p.p.p.a.s &XrX&XC.C.C.:Xj w . + @ # # # # 3 .   X 2 [ ( @ I P z v o.8.8.g.h.d.p.r.t.0.=.5.*.:.t _._._.",
"_._._.y &.0.t.a.8.g.h.d.a.d.k.d.k.o.4 -X` C.C.wXs   + + X . . o +   .   . @ @ j q @ l j 9 ; o.8.g.h.d.a.k.a.u.h.d.r.#.n < `._._.",
"_._._.8 N +.q.l.l.g.8.u.y.y.8.8.a.o._   > P.$Xd . X - + 3 $ 3 5 3 $ $ > & 8 @ l 8 @ s 8 , b o.a.8.8.u.y.y.a.d.g.y.-.*.M % _._._.",
"_._._.q b #.&.j.a.i.g.u.a.e.y.a.v.@.; ) # `   X $ X 8 X & # @ 7 3 $ > + * 8 9 9 , 1 8 j & o.o.a.8.g.h.d.q.e.e.r.q.&.O.= > _._._.",
"_._._.0 & O.-.=.5.5.0.=.0.5.q.p.=.X.c q P ] j B - + 8 + - - * = - - - & 8 m * v - 8 j g 1 o.o.c.0.w.p.=.b v $.X.-.b , Y < _._._.",
"_._._., q #.X.c 3.<.1.M $.$.#.$.+.v b q f n v X.b q c s f c - & * N n M = q f b X.c c c = M X.5.5.-.5.N 0 t 0 = ..c i Y.0 _._._.",
"_._._.8 (.~ n R.+X2X+X,.T Y >.Y T t n t K 3.1.1.;.;.1.<.T.2.A ! L t Q Y t 0 y +.1.O.U 1.0 T M <.H.6.!.H.!. X!.H.Y Y F.! > _._._.",
"_._.`.< I..X+X2X2X2X+X{.{.>.^ ~.!..X+X!.I.t t G.!.|.{.OX1X1X1X1XL W.1X|.OXY.!.T./ q T.OX{.1X!.!.Y.{.uX6XuXuX@X.XOX2XE.0 O _._._.",
"_._._.: k ^ E.{.R.E.{.@X1XA ^ 2X2X2X@X XR.~ 0 W.2X|.{.+X@X@X+X}.R / }.{.{.OX@X+XD.L R.{.|.|. XOXL.< D.+X+X{.{. X X{.J O 0 _._._.",
"_._._.i L ~ R.R.R.R.{.{.Y.e t R.{.R.R.R.R.Z.A Z.{.{.R.R.E.R.{.R.L.Z.E.R.R.R.R.R.Y.^ R.R.R.R. XOXD.e ^ R.R.R.R.R.R.Y.L % a _._._.",
"_._._.a J U Y.R.R.R.R.{.Y.J A D.R.R.R.R.R.G.U Y.R.R.R.R.R.E.R.R.Z.! Y.R.R.R.R.R.R.K R.R.R.R.R.Y.R L G.R.R.R.R.R.Y.J < : Q._._._.",
"_._._.XX# k Z.Y.R.R.R.R.R.J q ~ Y.R.R.R.R.D.t R.R.R.R.R.R.R.R.R.J L W.T.|.{.R.R.G.t R.R.R.R.R.G.K e D.R.R.E.{.|.|.L.k A _._._._.",
"_._._.#X, ! T.W.T.E.{.{.Y.K 1 F.R.R.R.R.Y.K < I.{.R.R.R.Y.G.Y.G.R u  X+XOX X{.R.Y.e Y.E.R.R.R.Y.A 8 D.Y.R.{. X+X XZ.e ^ [._._._.",
"_._._.iXe ! T.+X X{.{.R.R.F.k ! G.R.{. XOXT.e L.Y.R.E.R.R.R.R.R.Y.8 D.R.R.R.R.R.R.R R.R.R.R.R.R.A Q R.R.R.R.R.R.G.U 9 T.`._._._.",
"_._._.iXt K / R.R.R.R.R.R.T.R ~ Y.R.R.R.R.I.e OX@X@XOXE.R.R.R.R.G.e ^ R.R.R.R.R.Y.D.R.R.R.R.R.R.! G.E.R.R.R.R.Y.! A 8 6X_._._._.",
"_._._.iXU K / R.R.R.R.R.R.T.! U T.R.R.R.R.G.e I. X{.E.R.R.R.R.R.G.t ^ R.R.R.E.E.I.~ R.R.R.R.R.Y.U F.R.R.R.R.R.R.Z.n A sX]._._._.",
"_._._.#X=Xh L Z.R.R.R.R.R.H.R D.R.R.R.R.R.G.k ,.OX|.R.R.R.R.R.Y.D.K ! Y.R.R.{. XT.! Y.R.R.R.Y.G.K R G.R.R.R.R.^ J 1 ~.sX_._._._.",
"_._._.[.dXL.e R G.Y.Y.Y.Y.^ K / R.E.!.R.Y.! K U Y.R.R.R.R.Y.T.H.H.A U G.R.R.R.R.D.T T.R.R.Y.G.,.t L G.R.R.Y.Y./ K L.hXsX_._._._.",
"_._._._.#XgX<XL.L.>.G.R.E.=XW.U ,.D.G.H.Y.] ~.U U ^ I.G.^ U ! ! ~ =XI.G.Y.,.D.~ U ~.~ Z.D./ ! ] =X=X,.] ^ G.Y.I.=XkXlX#X_._._._.",
"_._._._.].iXgXgXaX3X7X7XfXlXkX7XL.L.U.~.<XiXhX7X=XL./ / ] ,.P.W.8XzXdX=XU.L.L.W.3XkX7X<XL.W.<XaXlXdXdX7X<X<X3XiXlXhXuX_._._._._.",
"_._._._._.`./.}.}.+XuXhXaXhXgXdXhXhXzXhXzXkX@XuXdXaXdXdXdXdXfXaXsXkXfXhXkXkXlXzXzXuX@XiXfXhXzXlXlXgXdXiXdXdXuXOXOX[._._._._._._.",
"_._._._._._._._.^.J.K././.}.#XuXgXhXhXgXiXXX).).'.}.2X1X}.}./.K.^.#X#XsXhXhXgXsX#X^.^.^.'.@XuXXXoXoX'.^.K./.'.).)._._._._._._._.",
"_._._._._._._._._.`.).J.K.).`.'.J.H.H.J.a Q p a J.).).^.K.K.J.F.K.Q.'.].].'.^.J.a Q a S.J.S.).).)._._.^._._._._._._._._._._._._.",
"_._._._._._._._._._._._.`._._._._._._._._._._._._._._._._._._._.`.`._._._._._.)._._._._._._._._._._._._._._._._._._._._._._._._."
};
