/* XPM */
static char *out[] = {
/* columns rows colors chars-per-pixel */
"64 64 234 2 ",
"   c #161C2E",
".  c #1A1E2D",
"X  c #1A1F32",
"o  c #1C2232",
"O  c #1A2838",
"+  c #232836",
"@  c #242A3B",
"#  c #2A2D3D",
"$  c #28333D",
"%  c #2B323C",
"&  c #32373C",
"*  c #2F403C",
"=  c #3A4739",
"-  c #4C5B3D",
";  c #1F3240",
":  c #2C2E41",
">  c #2D3542",
",  c #2C3A48",
"<  c #343747",
"1  c #323B45",
"2  c #353549",
"3  c #3A3A4D",
"4  c #383E51",
"5  c #423F40",
"6  c #413E52",
"7  c #354648",
"8  c #3B444B",
"9  c #344F4E",
"0  c #3C4A4D",
"q  c #3C4252",
"w  c #3A4B56",
"e  c #3A455A",
"r  c #3D5256",
"t  c #3B5858",
"y  c #3A625C",
"u  c #3B5C62",
"i  c #396969",
"p  c #377378",
"a  c #454C4D",
"s  c #514A45",
"d  c #465748",
"f  c #434055",
"g  c #444D52",
"h  c #46485C",
"j  c #465658",
"k  c #4D595A",
"l  c #5B5B57",
"z  c #515B5E",
"x  c #655A4E",
"c  c #4C664A",
"v  c #556745",
"b  c #59764B",
"n  c #476656",
"m  c #5A685A",
"M  c #577A57",
"N  c #54755B",
"B  c #6F6252",
"V  c #646A5E",
"C  c #474B60",
"Z  c #4A4E64",
"A  c #495967",
"S  c #545C62",
"D  c #50576D",
"F  c #5A5D6A",
"G  c #4D5B72",
"H  c #545E74",
"J  c #4B6465",
"K  c #486767",
"L  c #5A6466",
"P  c #5A6566",
"I  c #526D6C",
"U  c #487669",
"Y  c #537568",
"T  c #4C6E71",
"R  c #56667A",
"E  c #54657C",
"W  c #467775",
"Q  c #547574",
"!  c #567876",
"~  c #567B7A",
"^  c #597D7C",
"/  c #636C6D",
"(  c #6B7766",
")  c #727466",
"_  c #646A72",
"`  c #6A7576",
"'  c #707876",
"]  c #737B7D",
"[  c #8C795E",
"{  c #857465",
"}  c #827E6C",
"|  c #5D835A",
" . c #65824D",
".. c #768C4A",
"X. c #668857",
"o. c #648A5C",
"O. c #778E5A",
"+. c #6C945C",
"@. c #6E985C",
"#. c #739C5C",
"$. c #789A58",
"%. c #76A25D",
"&. c #7BA45D",
"*. c #7EA95E",
"=. c #598668",
"-. c #5D9264",
";. c #4B8379",
":. c #58867A",
">. c #5F917E",
",. c #658866",
"<. c #659665",
"1. c #6C9C62",
"2. c #6E8F71",
"3. c #75A464",
"4. c #70A26F",
"5. c #809753",
"6. c #9BB94F",
"7. c #87A65B",
"8. c #83AD5D",
"9. c #8AAD5C",
"0. c #95AC5B",
"q. c #8DB256",
"w. c #87B05B",
"e. c #8CB05A",
"r. c #93B554",
"t. c #9BB654",
"y. c #9CB851",
"u. c #94B25A",
"i. c #9BB35A",
"p. c #A3B656",
"a. c #AAB757",
"s. c #A3B952",
"d. c #ABB954",
"f. c #A4B559",
"g. c #AAB659",
"h. c #B1B857",
"j. c #9A8869",
"k. c #8C9175",
"l. c #A7916E",
"z. c #8AA96B",
"x. c #9AB865",
"c. c #95A676",
"v. c #9CB378",
"b. c #A6BC69",
"n. c #A0AA79",
"m. c #A5BB71",
"M. c #C8A876",
"N. c #C8AA7C",
"B. c #B4C579",
"V. c #5E6F86",
"C. c #577B83",
"Z. c #6C7586",
"A. c #69788C",
"S. c #3E888B",
"D. c #5B8383",
"F. c #588A87",
"G. c #5E8B8B",
"H. c #5A928B",
"J. c #4C8D90",
"K. c #459799",
"L. c #698B88",
"P. c #788586",
"I. c #738D8E",
"U. c #64918E",
"Y. c #629494",
"T. c #689796",
"R. c #669D9D",
"E. c #6A9E9D",
"W. c #789C97",
"Q. c #44A09F",
"!. c #6AA29C",
"~. c #79A39D",
"^. c #489CA2",
"/. c #579AA4",
"(. c #6E9EA1",
"). c #45A4A4",
"_. c #47ABA9",
"`. c #4AAAA9",
"'. c #54A7A8",
"]. c #57B2AF",
"[. c #5CB6B2",
"{. c #6CA2A3",
"}. c #69A8AC",
"|. c #71A5A3",
" X c #73AAAA",
".X c #75ABAA",
"XX c #6BB4B2",
"oX c #78B0B0",
"OX c #7CB3B4",
"+X c #7AB8B6",
"@X c #7BC6BD",
"#X c #8C9292",
"$X c #8D9694",
"%X c #839F98",
"&X c #A69F81",
"*X c #84A49B",
"=X c #B6AC8C",
"-X c #A7A797",
";X c #BEBB9E",
":X c #939AA5",
">X c #9AA4A4",
",X c #90B3A7",
"<X c #84B8B7",
"1X c #85BBBC",
"2X c #A3ABAB",
"3X c #ADB3B7",
"4X c #D3B985",
"5X c #C6B890",
"6X c #B3C786",
"7X c #90C4BA",
"8X c #A4C9BA",
"9X c #B6CCB6",
"0X c #DAC491",
"qX c #E2CE99",
"wX c #E5D29D",
"eX c #CFC8A6",
"rX c #E8D7A2",
"tX c #EFE1AB",
"yX c #88BFC0",
"uX c #8BC5C3",
"iX c #98D0C4",
"pX c #B8C1C3",
"aX c #ACD7C9",
"sX c #A9D9CB",
"dX c #B3DDCC",
"fX c #B7E0CE",
"gX c #B7E5D3",
"hX c #BBE9D6",
"jX c #CCCFD3",
"kX c #C2EBD7",
"lX c #C2EDD9",
"zX c #C7F1DC",
"xX c #F6EDCE",
"cX c #F8F8F5",
/* pixels */
"_._._._._._._._._._._._._._._._._._._._._._._._._._._._.`._.XXXX].XX_._._._._._._._._._._._._._._._._._._._._._._._._._._._._._.",
"_._._._._._._._._._._._._._._._._._._._._._._._._._._._.`.XX8 L I 8 XX_._._._._._._._._._._._._._._._._._._._._._._._._._._._._.",
"_._._._._._._._._._._._._._._._._._._._._._._._._._._._.`.XXz / S a }._._._._._._._._._._._._._._._._._._._._._._._._._._._._._.",
"_._._._._._._._._._._._._._._._._._._._._._._._._._._._.`.j k / ` 1 C._._._._._._._._._._._._._._._._._._._._._._._._._._._._._.",
"_._._._._._._._._._._.)._._._._._._._._._._._._._._._._.T   z P / % o E._._._._._._._._._._._._._._._._._._._._._._._._._._._._.",
"_._._._.K.i i p W i J.D.U H.H.;.-.Y K M N +.M o.U ;.J.` 8   h / S g O 8 ~.F.T n M o.n U o.;.;.>.H.H.;.;.U J.p i y p Q._._._._._.",
"_._._.S.y = *.%.%.%.Y z.$.w.%.&.w.%.@.%.w.q.q.q.9.c.2.#XF S ] / / '   3 g 2.c.*.8.q.8.$.q.8.#.*.%.3.8.#.@.M = &.%. .y K._._._._.",
"_._._.y +.X.u.e.f.g.0.g.r.t.6.6.y.u.u.r.6.6.t.f.$X.   D D Z 6 6 P.k   @ z P r v.r.6.r.y.s.d.u.t.t.u.a.q.9...%.w.*.#.X.U K._._._.",
"_._.).i b 7.g.d.s.d.y.r.e.s.d.s.d.d.d.q.w.q.v.' X : C H V.V.V.H h '   + g z / j ( x.r.w.6.t.6.6.t.t.t.q.i.p.a.u.*.%.| U K._._._.",
"_._._.p @.*.i.y.r.r.6.6.r.6.r.r.r.r.t.6.m.2.z z 2 6 Z H V.H D V.V.h F 4 1 k S / P z k.b.t.y.6.r.r.6.6.r.r.s.h.u.w.*.o.p _._._._.",
"_._._.W c 8.f.g.u.f.t.6.q.q.r.f.q.w.b.) / ' _ o 6 6 V.V.V.V.R Z V.V.f H : e g j k P P j k.d.f.u.p.r.6.q.6.r.8.1.1.@.| K )._._._.",
"_._._.i +.8.g.h.i.6.t.s.s.q.9.e.x.v.m L L g / @ 6 D Z.V.V.V.V.H f V.D Z.2 E G : j g L P / O.n.x.y.y.s.y.w.w.8.*.1.@.%.U Q._._._.",
"_._._.9 3.e.i.g.d.d.d.d.f.f.g.g.c.z S z a h Z.: h f 3 2 3 D V.V.Z V.D Z.h D V.@ e j g 0 S P j m.s.d.d.f.g.g.p.p.x.8.%.:.J._._._.",
"_._._.=.4.3.8.e.d.d.s.r.q.t.i.t.( 0 & j 8   Z.2 6 6 3 X   # H V.G D Z Z.h R E 2 H E @ 8 g > g c.6.s.t.r.p.t.t.d.i.8.1.U ;._._._.",
"_._._.:.4.4.1.&.q.q.r.t.6.r.q.r.  @ k f D h X @ f f 6 3     Z V.H 6 + Z.V.Z.A.C h E C 2 1 j % V 6.6.t.r.q.q.q.t.e.4.=.F.~ _._._.",
"_._._.F.1.3.*.u.a.r.d.d.r.r.r.6.1 0 # _ o : 2 X 3 f 6 : & # 2 G Z 2 & l :Xh R C Z E C 3 4 o 8 ( t.h.B.6Xq.6.y.p.g.8.1.i i _._._.",
"_._._.Q %.8.q.t.s.s.6.q.6.6.6.6.l   2   2 f f 2 : 6 : 5 M.l.: 6 6 l M.4X4X&XV.D e G H 3 E @ . k.B.9X9XZ.6.6.s.s.p.&.@.N i _._._.",
"_._.).Y *.w.i.y.e.q.r.s.0.e.s.6.b.m D   2 6 6 2 2 6 : ) 4XM.l.{ [ M.M.rX4XM.V.R C V.V.C G > m 9XpX2X>XF t.6.s.d.i.X.| X.t _._._.",
"_._._.X.8.i.p.t.6.q.q.6.6.6.6.q.v.* h q 2 f f 3 6 6 :   s } l.j.4XwXtXqXqXN.>XR C V.V.h 6 3 ] pX$X>X$X/ 6.q.q.r.g.5.( o.y _._._.",
"_._._.n %.7.9.u.r.q.8.w.r.6.6.6.b.V # _ : f f 6 6 : &XM.j.B { tXtXtXtXtXtXwX-XV.6 e H C D : pXpX2X3X$XL 6.6.6.q.7.O.@.%.M _._._.",
"_._._.M &.N #.f.s.r.r.6.r.6.r.r.c.O G C   3 6 6 6 X l.M.M.M.tXtXtXtX} l tXtXM.D C G V.4 E :XpXpXpX>X$XL 6.q.q.8.$.%.N j r _._._.",
"_._._.t o.N +.8.r.6.6.q.q.q.q.q.2.2 V.h A.  X :     qXN.M.M.tXtXtXtX&XX tXtXj.A.C V.V.G A.pX>XpX3X$XP.' q.q.r.q.i.g.#.X.t _._._.",
"_._._.9 M @.#.0.t.s.h.p.r.6.s.s.) Z G h V.E Z.      4XM.M.4XtXtXtXtXtX  } tX< H G G G V.:X>X$X3X>X$Xq m.s.s.s.d.i.0.+.Y u _._._.",
"_._._.w T =.3.f.h.s.s.q.e.s.d.s.# 6 2 C Z.V.4 > X } 4XM.M.4XtXtXtXtXtX  a s   Z.; e G V.3X$X$X3X$X$Xj r.s.s.d.d.f.$.9 D.! _._._.",
"_._._.K =.@.*.w.t.f.t.6.q.r.q.t.< : F q D 4 _ S   n.M.M.0XrXx X             l l ' 1 e I.:X$X>X>X$X8 c.r.r.u.y.u.u.$. .c 9 _._._.",
"_._._.t 1.@.1.u.g.s.s.s.s.0.e.v.2 D     jX#X  F   wXM.M.M.4XrXtX&Xh   X   } rXB   / g   _ $X2X$X]   s.t.e.u.e.w.7.$.*.c , _._._.",
"_._._.y -.%.8.u.d.d.d.p.f.g.a.n.2 C   } 2 cXjXe   l.M.M.M.M.N.4XrXtXtXl s tX4X[   k Z.  $X] ] $X1 ( p.f.g.r.%.1.1.| b 9 7 _._._.",
"_._._.W -.1.3.%.9.r.r.t.q.r.s.2.6 2   eXk.  jXcX#X#X  B B B B [ M.4XqXx } qXM.M.  k . A $X_ $XP.  b.6.e.i.8.%.#.1.1.@.+.9 _._._.",
"_._._.U U -.3.<.<.1.8.q.q.r.q.  : g   -XA.-X#XwXxXcXcXjXpX3XR B M.M.0Xl } 0XM.l.  ` : $X#XP.$Xj _ y.6.y.t.r.r.q.*.*.4.U.T _._._.",
"_._._.~ U -.3.8.8.9.t.s.r.q.c.# P /   -XV.V.A.$XtXtXrXxXxXcXe B M.M.0Xx } 0Xl..   q ` $XS $X$X  o g.s.p.u.i.r.t.i.%.o.! T _._._.",
"_._._.T | 8.u.e.i.p.d.f.y.m.> P k &   -XV.V.V.$XtXtXtXtXtXjX4 B M.M.0Xn.tXqX& . :   Z._ # $X_ _ j o p.y.r.y.s.d.i.%.o.j , _._._.",
"_._._.U N *.u.a.t.t.6.r.r.b.k g > j   -XV.V.V.$XwXtXtXtXtXjXe   x [ M.qX5X2 6 . A w 1 + 8 S + z S 1 q.t.6.s.d.d.u.o.N N 7 _._._.",
"_._.`.N o.8.g.a.w.q.r.p.6.v.  & g 8   tX#XV.V.$XM.wXtXtXtX2Xe e 2         G H     2 D 2 o     q   L f.r.r.6.t.p.d.e.%.o.w _._._.",
"_._._.X.+.7.u.p.t.r.q.6.6.b.O g 1 j   tXtX;X#X$XM.N.rXtXtX$Xe e V.V.e e G V.: @   s   : f : X e G   t.t.6.r.q.t.h.u.&.#.n _._._.",
"_._._.N M #.8.w.r.r.q.q.q.r.x.c.8   X tXtX0X4X5X$X=X0XtXtXP.e : C D H H Z 2 2 : B s [ B o : 2 e E   q.r.r.6.r.t.f.u.#.o.n _._._.",
"_._.`.N 3.8.u.i.p.6.t.r.r.r.r.q.z.  _ } tXtXN.4XV.V.V.D } S e : 6 6 6 6 6 6 6 o   s M.j.g h   2   m.r.q.r.q.r.u.u.f.8.o.j _._._.",
"_._._.N @.&.q.q.q.s.d.p.r.p.d.d.g.5 ] . tXtX4X4XV.V.V.V.` 2 e : 6 6 6 6 h 6 3 X 6 X B X ] % V c.b.d.t.u.s.s.d.d.e.8.o.U K _._._.",
"_._._.t K ,.&.t.p.s.6.r.r.6.t.s.f.v z P.k.tXtX0XV.V.V.V.;X, e : 6 6 h 6 2 : X @ 6 : ] _ / % v 6.6.t.r.r.s.s.s.d.i.*.3.:.T _._._.",
"_._._.~ <.1.u.g.u.i.t.6.r.r.q.t.u.b a / ] =XtX;XV.V.V.#X} A   o X X     . . 4 )   g k / / =  .t.t.6.6.q.r.0.s.8.8.*.4.:.K _._._.",
"_._._.F.1.9.f.a.u.y.6.r.r.q.q.i.x...o / L   =X&XV.V.A.=X  O 1 1 2 2 : @ 2 o X 5 N.s k / S = 0.t.s.r.r.r.r.u.7.-.-.<.<.Y t _._._.",
"_._._.U X.8.g.a.6.6.s.d.s.r.u.u.i...& l z P.8 s V.P.k.  o 2 e h q C e > & g   % a % L L z v ..6.6.s.d.f.e.8.w.8.&.%.#.,.t _._._.",
"_._.`.y $.8.9.t.s.6.d.s.u.g.g.p.g...= 8 P 7 + q ' =XX   +   . . o     X % a % 7 & 1 k k 7 v ..6.s.d.s.i.g.t.s.d.f.w.1.n 7 _._._.",
"_._._.7 N +.9.h.h.s.6.6.r.r.t.6.i...- 1 0 0 @ /     + + 2 # 2 q 2 # # # % * + 7 0 + a 8 1 b ..i.6.6.t.t.t.u.s.s.r.*.%.M O _._._.",
"_._._.0 b +.$.f.i.i.s.s.t.q.r.i.i.O.v 8 0 k @ 7 8 1 d o # @ + f 3 # # @ & 7 % j % 1 0 g $ ....i.t.s.s.a.9.q.q.w.9.$.X.* > _._._.",
"_._._.w $  .*.&.*.%.8.$.&.*.9.u.#. .c 0 0 k + v v + k 7 v c & * = = = - g z & v = 7 h a 1 ....z.8.u.u.&.b v @. .8.b > T , _._._.",
"_._._.> 0 +. .c >.>.=.M +.#.<.@.+.c b d c d v  .M * d 7 |  .c t d b y n * 0 d b  .c c c 7 N  .3.#.*.3.N 9 t 9 9  .c i Y.9 _._._.",
"_._._.7 (.Q i T.oXyX<X:.Y U :.U Y r n t K ,.o.,.:.M ,.2.T.>.A Q i t Q U y 9 y o.o.X.I ,.9 Y M >.H.4.!.H.E.|.!.H.i U F.T > _._._.",
"_._._.1 U..XoX7X1X1XoX{.{.;.! !.!..XOX!.U.j u H.{.|.|.oX<X<X<X<XK T.<X|.oXT.!.T.C.0 T.oX{.<X!.!.Y.|.uX7XuXuX+XoXOX1XE.9 O _._._.",
"_._._.; t ~ R.E.E.E.{.+X<XA C.1XyX1XOX XE.Q 9 (.<X X{.oX+X<XOX}.T ^ }.{.{.oX+XOXL.K R.{.|. X XoXG., D.OXOX{.E. XoX{.A O 9 _._._.",
"_._._.u I ^ R.R.R.R.{.{.T.7 r R.{.R.R.R.R.D.k C.{.{.R.R.R.R.E.E.D.D.E.R.R.R.R.R.Y.~ E.R.R.E.}.oXD.w ~ R.R.R.R.R.R.Y.K ; p _._._.",
"_._._.p j T Y.R.R.R.R.R.Y.J J D.R.R.R.R.R.G.I Y.R.R.R.R.R.R.R.R.D.Q Y.R.R.R.R.R.Y.K R.R.R.R.R.Y.I J U.R.R.R.R.R.G.K , > Q._._._.",
"_._._.XX$ j C.T.R.R.R.{.R.j w Q Y.R.R.R.R.D.r R.R.R.R.R.R.R.R.R.K J W.T.{.{.{.R.G.u Y.R.R.R.R.G.J e F.Y.R.{.{.(.|.L.A t _._._._.",
"_._._.7X; ~ I.E.T.!.{.{.Y.K , G.R.R.R.E.Y.J 1 G.R.R.R.R.Y.G.Y.G.T r  XOXOX XR.R.Y.w Y.E.R.E.R.Y.A 7 D.Y.R.{. X+X XD.g ^ [._._._.",
"_._._.iX9 Q E.OX X{.{.R.R.F.j Q Y.R.E.}..XT.w L.Y.{.R.R.R.R.R.R.Y.4 D.R.R.R.R.R.R.K R.R.R.R.R.R.J W R.R.R.R.R.R.G.I 1 T.`._._._.",
"_._._.iXr I ~ R.R.R.R.R.R.Y.I Q Y.R.R.R.R.G.r .X<XOXoX{.R.R.R.R.G.r ~ R.R.R.R.R.R.C.R.R.R.R.R.Y.I G.R.R.R.R.R.Y.Q A 7 1X_._._._.",
"_._._.uXI J ! R.R.R.R.R.R.R.I Q R.R.R.R.R.U.r U. X{.R.R.R.R.R.R.G.w ~ R.R.R.E.R.L.~ R.R.R.R.R.Y.Q D.R.R.R.R.R.R.:.k J sX]._._._.",
"_._._.@X%Xw I C.R.R.R.R.R.Y.I C.R.R.R.R.E.G.j D.oX XR.R.R.R.T.Y.D.J I T.R.R.{. XT.Q Y.R.R.R.T.G.A I G.R.R.R.T.^ A , ~.sX_._._._.",
"_._._.XXdXL.r T G.Y.Y.Y.Y.~ J D.R.!.R.R.Y.Q J I Y.R.R.R.R.Y.R.U.G.J I G.R.R.R.R.D.I Y.R.R.Y.U.:.r J G.R.R.R.Y.^ J L.hXsX_._._._.",
"_._._._.@XgX,XL.L.D.U.T.W.~.W.I :.D.G.Y.Y.D.W.J I ~ G.H.~ I ! Q ! %XU.G.U.:.C.! U *X! C.D.:.! ! *X*XL.! ~ F.H.U.*XlXlX@X_._._._.",
"_._._._.].iXdXgXaX,X8X8XgXkXkX8XL.L.I.~.,X8XkX8X*XL.` :.! ` L.W.aXzXdX*XW.L.L.W.3XkX8X,XI.I.,XaXlXdXdX8X,X,X3XiXlXhXuX_._._._._.",
"_._._._._.).'.}.}.oX7XgXsXgXgXfXlXlXlXhXzXhX+X7XdXsXdXdXdXdXfXaXsXlXdXhXkXlXkXzXzX1X+XiXfXhXzXlXlXgXsXiXsXdX1XoXoX[._._._._._._.",
"_._._._._._._.).^.J./././.}.@XuXgXhXgXgXiXXXQ.).'.}.1X<X}.{./.K./.@X@XsXhXgXgXsX7X^.^.^.'.+X7XXX@X].].).K.'.'.'.)._._._._._._._.",
"_._._._._._._._._._.).K.K.)._.'.J.J.H.J.p W p W S.^._.^.K.K.J.J.K.Q.'.].[.'./.S.p p p S.J.K._.).)._.).K._._._._._._._._._._._._.",
"_._._._._._._._._._._._._._._.)._._._._._._._._._._._._._._._._._._._._._._._.)._._.)._._._._._._._._._._._._._._._._._._._._._."
};
