/* XPM */
static char *out[] = {
/* columns rows colors chars-per-pixel */
"64 64 238 2 ",
"   c #161C2E",
".  c #1A1E2D",
"X  c #1C222F",
"o  c #1C2233",
"O  c #1A2838",
"+  c #212635",
"@  c #232B36",
"#  c #25293A",
"$  c #2A2C3C",
"%  c #26303D",
"&  c #2A323D",
"*  c #2C393C",
"=  c #33353B",
"-  c #2F403C",
";  c #3B493A",
":  c #4C5B3C",
">  c #1F3240",
",  c #262E41",
"<  c #2C2E41",
"1  c #2C3442",
"2  c #2B3C47",
"3  c #323B45",
"4  c #343846",
"5  c #363649",
"6  c #3B3B4E",
"7  c #373E51",
"8  c #423F40",
"9  c #413E52",
"0  c #364648",
"q  c #3B454B",
"w  c #344F4E",
"e  c #3D4A4E",
"r  c #3A4855",
"t  c #3D5256",
"y  c #3B5858",
"u  c #3A625C",
"i  c #3F4D63",
"p  c #3B5C62",
"a  c #396969",
"s  c #377378",
"d  c #484C4D",
"f  c #514A46",
"g  c #445848",
"h  c #434055",
"j  c #434C52",
"k  c #46495B",
"l  c #445757",
"z  c #485557",
"x  c #4D5A5B",
"c  c #515B5E",
"v  c #5B5B58",
"b  c #4C664A",
"n  c #556848",
"m  c #59764B",
"M  c #476656",
"N  c #546458",
"B  c #577A57",
"V  c #54755B",
"C  c #6F6252",
"Z  c #636D5E",
"A  c #464B60",
"S  c #4B4E64",
"D  c #485766",
"F  c #545B62",
"G  c #545969",
"H  c #4D5B72",
"J  c #555E73",
"K  c #456364",
"L  c #4B6465",
"P  c #496968",
"I  c #5B6566",
"U  c #5A6567",
"Y  c #526D6C",
"T  c #487669",
"R  c #537568",
"E  c #4C6E71",
"W  c #57667A",
"Q  c #54657C",
"!  c #467775",
"~  c #547574",
"^  c #567876",
"/  c #567B7A",
"(  c #597D7C",
")  c #636D6D",
"_  c #686869",
"`  c #697766",
"'  c #767969",
"]  c #656976",
"[  c #6B7473",
"{  c #6B797B",
"}  c #737A7A",
"|  c #8C795E",
" . c #827E6C",
".. c #5D835A",
"X. c #65824D",
"o. c #778C4A",
"O. c #668857",
"+. c #648A5C",
"@. c #778E5A",
"#. c #6C945C",
"$. c #6E985C",
"%. c #739C5C",
"&. c #789A58",
"*. c #76A25D",
"=. c #7BA45D",
"-. c #7EA95E",
";. c #598668",
":. c #5D9264",
">. c #4B8379",
",. c #58867A",
"<. c #5F917E",
"1. c #658866",
"2. c #659665",
"3. c #6C9C62",
"4. c #6A9270",
"5. c #75A464",
"6. c #70A26F",
"7. c #809753",
"8. c #9BB94F",
"9. c #87A65B",
"0. c #83AD5D",
"q. c #8AAD5C",
"w. c #95AC5B",
"e. c #8DB256",
"r. c #87B05B",
"t. c #8CB05A",
"y. c #93B554",
"u. c #9BB653",
"i. c #9DB951",
"p. c #94B25A",
"a. c #9BB35A",
"s. c #A0B94F",
"d. c #A3B656",
"f. c #AAB757",
"g. c #A3B952",
"h. c #ABB954",
"j. c #A4B559",
"k. c #AAB659",
"l. c #B1B857",
"z. c #908F79",
"x. c #A8936F",
"c. c #8AA86C",
"v. c #9AB865",
"b. c #94A577",
"n. c #9BB477",
"m. c #A6BD65",
"M. c #A5B974",
"N. c #C8A876",
"B. c #CCAE7B",
"V. c #CEB17E",
"C. c #5E6F86",
"Z. c #577B83",
"A. c #6C7A87",
"S. c #3E888B",
"D. c #5B8383",
"F. c #588A87",
"G. c #5E8B8B",
"H. c #5A928B",
"J. c #4C8D90",
"K. c #459799",
"L. c #698B88",
"P. c #7A8688",
"I. c #64918E",
"U. c #768E93",
"Y. c #629494",
"T. c #689796",
"R. c #669D9D",
"E. c #6A9E9D",
"W. c #789C97",
"Q. c #44A09F",
"!. c #6AA29C",
"~. c #79A39D",
"^. c #489CA2",
"/. c #579AA4",
"(. c #6E9EA1",
"). c #45A4A4",
"_. c #47ABA9",
"`. c #4AAAA9",
"'. c #54A7A8",
"]. c #57B2AF",
"[. c #5CB6B2",
"{. c #6CA2A3",
"}. c #69A8AC",
"|. c #71A5A3",
" X c #73AAAA",
".X c #75ABAA",
"XX c #6BB2B1",
"oX c #68BCB6",
"OX c #78B0B0",
"+X c #7CB3B4",
"@X c #7AB8B6",
"#X c #7BC6BD",
"$X c #848A8B",
"%X c #8C9695",
"&X c #8F9597",
"*X c #839F98",
"=X c #A69F81",
"-X c #9DAD8A",
";X c #84A49B",
":X c #B6AA8B",
">X c #A7B488",
",X c #A6A897",
"<X c #BDBA9D",
"1X c #929CA9",
"2X c #92ADA6",
"3X c #84B8B7",
"4X c #85BBBC",
"5X c #A2ABAC",
"6X c #ABB4B5",
"7X c #ADB5BB",
"8X c #B1B5BA",
"9X c #D3B985",
"0X c #C1B694",
"qX c #90C4BA",
"wX c #A4C9BA",
"eX c #AAD0BF",
"rX c #D3C191",
"tX c #D9C492",
"yX c #E4D09B",
"uX c #CAC4A1",
"iX c #E8D7A2",
"pX c #EFE1AB",
"aX c #8BC5C3",
"sX c #98D0C4",
"dX c #B8C1C3",
"fX c #ACD7C9",
"gX c #A9D9CB",
"hX c #B3DDCC",
"jX c #B7E0CE",
"kX c #B7E5D3",
"lX c #BBE9D6",
"zX c #D8D9DC",
"xX c #C2EBD7",
"cX c #C2EDD9",
"vX c #C7F1DC",
"bX c #F6EECE",
"nX c #FAF6E7",
"mX c #FEFEFC",
/* pixels */
"_._._._._._._._._._._._._._._._._._._._._._._._._._._._._._.XXXX].XX`._._._._._._._._._._._._._._._._._._._._._._._._._._._._._.",
"_._._._._._._._._._._._._._._._._._._._._._._._._._._._._.XXq I Y q XX_._._._._._._._._._._._._._._._._._._._._._._._._._._._._.",
"_._._._._._._._._._._._._._._._._._._._._._._._._._._._._.XXc ) F e XX`._._._._._._._._._._._._._._._._._._._._._._._._._._._._.",
"_._._._._._._._._._._._._._._._._._._._._._._._._._._._.].t c U [ 3 Z.`._._._._._._._._._._._._._._._._._._._._._._._._._._._._.",
"_._._._._._._._._.`.`.`._._._._._._._._._._._._._._._._.~   c U ) , o E._._._._._._._.`._._._._._._._._._._._._._._._._._._._._.",
"_._._._.K.a a a ! s Z.D.>.H.H.>.:.V K R V #.B +.T >.J.{ q   j ) F j + q W.F.! M V O.M T 2.>.>.,.H.H.>.;.! J.s a u s Q._._._._._.",
"_._._.S.u ; -.$.=.5.B 6.&.r.*.=.0.=.%.%.0.y.M.-Xv.b.L [ @ O U ) ) }   q z 1.b.5.-.e.0.&.e.9.%.0.*.5.0.%.$.X.; =.*.X.u Q._._._._.",
"_._._.u #.O.t.v.j.k.w.d.y.8.8.8.j.p.y.y.Z   < H S h $X_ @   [ x [ x   # F I j n.e.8.8.8.h.h.a.y.y.a.d.t.q.O.%.r.-.$...;.S._._._.",
"_._.).a m 9.k.h.g.h.g.e.e.g.g.h.h.f.h.b.o 5 S C.C.J G 9 F   ) ) U l   @ e c ) z ` v.y.r.y.s.8.8.8.i.y.e.a.u.k.a.-.*...T K._._._.",
"_._._.s $.-.a.i.y.y.u.8.y.8.y.y.y.y.m.o h 7 G C.C.J C.C.S ] j F x [ < r 3 x c [ U x z.M.u.8.8.y.u.8.8.y.y.h.h.p.-.r.+.s _._._._.",
"_._._.! b 0.j.k.a.j.u.8.e.e.e.j.p.e.b.< h H C.C.C.J 9 C.C.S } ] x ) + H $ i r x z U N x b.k.j.p.h.y.y.e.y.y.0.3.3.$...P )._._._.",
"_._.`.a #.0.k.l.a.8.u.8.8.e.r.p.n.b.} 5 h C.C.C.C.C.C.9 W J $X_ I x   H 5 Q H 1 z j I U _ 1.n.a.i.u.g.i.e.t.0.-.$.$.5.T K._._._.",
"_._._.w 5.t.a.k.h.g.h.h.f.d.k.k.b.v   6 9 S S S H C.C.J S C.9 ] [ x # S k H Q # r l j e I I x M.g.h.h.j.k.k.j.j.p.0.$.;.K._._._.",
"_._._.;.6.5.0.t.d.h.g.i.e.a.g.a.` 9   9 9 9 o   < S C.C.k C.< _ [ F 1 S k W Q 5 H C.# q e 1 j b.i.8.y.p.d.u.i.h.a.0.6.>.>._._._.",
"_._._.D.6.6.3.=.e.e.e.8.8.e.e.e.S     9 k 9 6     < C.C.S J . _ { I @ D C.C.A.A k H A 5 3 j & Z 8.i.8.8.e.y.y.y.t.6.;.H.^ _._._.",
"_._._.F.3.5.-.p.h.a.h.h.u.y.y.m.o < < < h 9 9 <   # S C.9 + = $X[ } 1 r Q A C.A S Q A 7 7 + A.z.a.h.d.u.e.y.i.d.k.r.2.K a _._._.",
"_._._.~ *.-.e.i.8.8.8.y.8.8.g.  6 9 9 # 9 9 5 8 N.= 9 9 9 8 N.x.:X[ 5 r i H C.D A J J 9 1XdX6X-Xg.i.e.8.8.8.g.g.d.0.#.V a _._._.",
"_._._.V -.0.a.i.e.e.y.j.e.e.m.  9 9 9 , 9 9   N.N.x.9 9 C B.N.iXN.,XO A H S C.Q A C.U.8X6X6XP.-Xe.i.a.e.y.g.g.d.a.O.+.O.y _._._.",
"_._._.O.0.a.d.u.y.y.y.i.i.y.b.  9 9 9 < 7 5   ' z.tX9X9XtXtXiXtX9X:X< 7 C.H A.C.A C.8X6X*X5XP.>Xe.y.g.u.8.y.t.y.k.7.R +.y _._._.",
"_._._.M *.q.q.p.a.e.0.0.y.8.8.  5 9 9 9 9 # x.C   o f  .pXpXpXpXpXN.[   i A H C.9 &XdXeX5X1XP.>Xr.0.e.y.8.8.y.y.9.@.&.=.B _._._.",
"_._._.B =.B 5.j.g.8.y.8.y.8.y.Z < 9 9 9 6   yXN.N.9XpXpXpXpX .0XpX9X$Xd = 4 S A A dXdXdX7X%XP.>X8.e.y.y.8.e.e.0.&.&.V M t _._._.",
"_._._.l B V 3.0.y.8.u.e.e.e.e.n.o < 9 9 # h 9XN.B.9XpXpXpXpXo  .pXyXx.= ) j r C.A.8X8XdX5X%X} ,X8.y.y.q.y.e.y.e.u.j.&.+.y _._._.",
"_._._.w B %.&.w.a.s.h.d.y.i.g.g.$X9 . .    .9XN.N.9XpXpXpXpXv d pXpX$ + o I F 0 8X&X1X8X&X&Xq b.g.h.d.y.g.g.g.g.a.w.+.R D _._._.",
"_._._.w ~ R 5.j.l.g.g.e.e.g.h.m.G 6 G G   :XN.N.N.yXpXpXpXpX .  pXd G 4 q 3 z P.6X&X1X5X%XF ] ` 8.8.y.y.g.g.h.h.j.&.w F./ _._._.",
"_._._.a ;.$.-.e.a.a.u.8.y.y.n.    G h A.. yXN.N.N.:X . . . .d         k e z z %X2X%X6X&X%X  k ' i.y.8.e.y.p.a.p.w.&.X.b w _._._.",
"_._.`.y 3.3.3.p.h.h.i.g.d.n.  ] 8X6 ] G I 9XN.9XyXtX .v         . 6 tX  j j {   %X%X6X%Xq ] H < 8.g.g.i.e.p.t.r.9.%.-.n 2 _._._.",
"_._.`.u :.*.0.p.h.h.h.h.j.M.z f &XmX&X. f B.N.N.N.N.tXpXpX . .   .pXV.. S o   x %XI %XP.  ] S < m.h.h.j.d.y.*.$.5...m w 0 _._._.",
"_.`.`.! :.5.3.*.q.a.y.y.y.M. .,Xv S mXzX$XG < C C C C N.tXpXpX  pXV.N.C z.F   %X$X} %XF G < 5 5 M.s.y.r.j.0.*.*.3.3.$.+.w _._._.",
"_._._.T T :.3.3.2.$.0.e.e.n.' W P.<Xz.bXnXnXmX8X8X8X  N.N.N.pX  iXN.N.C :X=X] %XP.%X%X# [ [ F + @.8.8.d.u.y.e.e.r.-.6.I.E _._._.",
"_._._./ T :.5.0.0.r.a.g.8.n.z.C.C.C.C.<XpXpXpXbXnX8X  N.N.N.pX  pXN.x.  _ < %XP.U %XF G j c ) c o m.g.d.y.a.y.a.a.%.#.~ E _._._.",
"_._._.T ..r.p.t.a.j.g.d.u.>Xz.C.C.C.C.<XpXpXpXpXbX1Xo N.N.N.pX8 pXB.=     3 } 6 F $X3 { z q 0 ) z o d.u.y.g.h.h.p.%.+.y 2 _._._.",
"_._._.E V 5.a.k.a.8.8.y.y.>X' W C.C.C.<XpXpXpXpXbX1X  C x.B.iXpX0X= i   r 7 <   F j 4 @ l d j = F 1 y.y.8.g.g.g.a.+.V R 0 _._._.",
"_._._.V +.q.f.k.r.e.y.h.p.>X .uXP.C.C.,X9XpXpXpXpXU.  1   9 C C o H J     A A <     S   k z j e o q g.y.y.8.i.i.h.y.*.+.w _._._.",
"_._._.O.2.=.a.a.i.y.e.y.i.M. .pXpX,XC.:XN.9XpXpXpXC.  C.D <     H C.# # 8 1 + 6 6 # . J < I j 3 j v.y.u.8.y.e.a.h.w.=.%.N _._._.",
"_._.`.V B %.0.e.y.y.t.y.e.n. .pXpXB.0X0X<X9XiXpXpXC.  h S C.C.J G < 5 < C = C   $ 9 + Q r G o & c.e.y.y.8.y.y.a.k.w.5.+.l _._._.",
"_._.`.M 0.r.y.a.d.i.i.y.y.v.4 iXpX9XN.:XC.C.&Xz.=XA   h 9 9 9 9 9 9 6   =  .N.f _   < r r F   m.g.u.y.e.y.e.e.u.a.a.0.+.p _._._.",
"_._._.V $.=.e.e.e.i.h.j.y.d.Z z.pXpXN.:XC.C.C.C.h S   7 h h h k 9 9 < , $ = 8 v yXiX{ } ) * ; g.g.f.a.y.g.h.h.k.t.-...V K _._._.",
"_._.`.p P ..=.a.h.i.i.y.y.8.g.  pXpXtX<XC.C.C.C. .D   h h 9 h 9 9 <   9 9 o ] | rX9XU c ) = n 8.8.y.y.y.g.8.g.h.u.-.5.,.~ _._._.",
"_._._./ 4.3.p.h.y.a.i.8.y.y.e.m. .pXiX%XC.C.C.<Xk r   , + # # +     1 k + } 5 x.B.z.z ) ) = X.y.u.8.8.e.y.y.d.9.0.5.4.<.K _._._.",
"_._._.<.3.q.j.f.p.d.y.y.y.e.r.a.n.d pX} C.C.,Xd 1 o $ + , 5 5 r 7     S v x 4 N.N.f z ) I ; w.a.j.y.8.e.y.p.0.:.2.2.:.;.y _._._.",
"_._._.T +.9.k.k.8.8.i.f.g.p.w.a.v.v d F C.$X'     = j X q r r A 7 < o 1 j ) j I U + I U c n o.8.8.g.h.g.t.q.q.0.-.5.3.+.y _._._.",
"_._.`.u %.0.q.a.g.g.h.g.a.k.k.j.k.7._ , ,X .  $ & = q @ o o . o +       * x 4 z e @ x x d : o.8.g.h.j.a.k.y.i.h.d.r.#.M 0 _._._.",
"_._._.0 B +.q.l.h.g.8.8.y.y.i.y.a.7.; _   . X q 0 + q X 5 $ < q 5 $ $ $ j x 3 x 0 @ j q * m o.a.8.8.u.y.y.a.g.g.y.0.%.B % _._._.",
"_._._.0 m $.&.j.u.j.i.d.y.e.y.u.w.@.: d z 0 X & * X ; + 1 $ $ 9 5 $ $ 6 0 x & q & 3 e d & o.o.v.8.g.h.k.q.e.e.r.r.&.O.0 > _._._.",
"_._.`.w 3 X.-.-.5.*.r.=.-.-.q.a.&.X.b e q z 3 n n @ q @ ; ; = g N n n ; 0 M = n ; 3 z q 4 o.o.q.0.a.p.=.m n $.X.0.m , T 2 _._._.",
"_._._.2 e O.X.b 2.<.;.V #.$.#.#.2.b m g g b n X.B * g ; X...n t l m u b - d g m X.b b N - V ..5.3.0.5.V w y w w X.b a Y.0 _._._.",
"_._._.2 {.~ a T.+X4X+X,.R a >.T R t M y L 1.+.1.;.;.1.4.T.,.K ~ a y ~ T u w u +.1.+.R 1.w R B <.H.6.!.H.R.|.!.G.a T G.~ , _._._.",
"_._.`.3 I..XOXqX4X4X+X}.{.,./ ~.!..X+X!.I.l p G.(.|.}.OX3X3X3X3XL T.3X|.OXY.E.T.( e T..X|.3X!.{.Y.|.aXqXaXaX4XXXOXqX(.w O _._._.",
"_._._.2 l / R.{.E.R.{.@X3XD / 4XaX4X+X XR.~ w (.3X X{.+X@X+X+X}.E ( |.}.{.+X+X+XD.P R.{.{. X X+XG.2 D.+X+X}.E. X.X|.K @ y _._._.",
"_._._.w L / R.R.R.R.{.{.T.r t R.{.E.R.R.R.D.D Z.{.(.R.R.R.R.R.{.D.D.E.E.R.R.R.R.Y./ {.R.R.R. X.XD.r / R.R.R.R.R.R.Y.L # s _._._.",
"_._._.s D R Y.E.R.R.R.R.T.K K D.R.R.R.R.R.G.Y Y.R.R.R.R.R.R.R.R.D.~ T.Y.R.R.R.R.Y.P T.R.R.R.R.Y.Y L G.R.R.R.R.R.I.K 2 > K._._._.",
"_.`.`.oX% l Z.T.R.R.{.R.R.l r ~ G.R.R.R.R.D.t R.R.R.R.R.R.R.R.R.H P E.T.{.{.R.R.G.y R.R.R.R.R.G.L r D.R.R.E.{.|.|.L.D p _._._._.",
"_._._.#X, / T.T.T.E.{.{.Y.K 0 F./.R.R.R.Y.L 3 G.R.R.R.R.Y.I.Y.G.E t  X+X+X X{.R.Y.t G.E.R.R.R.Y.D 0 D.Y.R.E. X+X.XZ.t ( ]._._._.",
"_._._.sXr / E.+X.X}.{.E.R.G.t ~ I.R.E. X.X(.t D.Y.{.R.R.Y.R.R.R.Y.0 D.R.R.R.R.R.R.E R.R.R.R.R.R.K ! R.R.R.R.R.R.I.Y 3 T.`._._._.",
"_._._.sXt L / R.R.R.R.R.R.Y.Y / R.R.R.R.R.L.t OX3X3XOX{.R.R.R.R.G.t / R.R.R.R.R.T.Z.R.R.R.R.R.R.Y G.R.R.R.R.R.Y.~ x r 3X_._._._.",
"_._._.sXY F / R.R.R.R.R.R.R.Y Y R.R.R.R.R.G.j I.{.{.R.R.R.R.R.{.F.t / R.R.R.R.E.I./ R.R.R.R.R.Y.~ G.R.R.R.R.R.R.,.D K gX]._._._.",
"_._._.#X;Xr L D.R.R.!.R.R.Y.E ,.R.R.R.R.R.G.l Z.OX}.R.R.R.R.R.Y.D.L Y T.R.R.{..XT.~ Y.R.R.R.T.G.K Y F.R.R.R.T.( D 0 ;XgX_._._._.",
"_._._.[.hXL.t E G.Y.Y.T.Y.^ L / R.R.R.E.Y.~ L R Y.R.R.R.R.Y.Y.Y.G.D Y G.R.R.!.R.D.R Y.E.R.Y.G.,.t P G.R.R.R.Y.( K L.lXsX_._._._.",
"_._._._.#XkX2XU.L./ G.Y.W.~.W.Y ,.D.F.Y.Y.,.W.L Y / L.G./ Y ~ ~ ( ;XL.I.Y.,.Z.^ ~ ;X~ Z.D.,.~ ^ ;X;XL./ / F.H.I.;XxXcX#X_._._._.",
"_._._._.].sXgXkXfX6XqXeXkXcXxXwXL.U.L.~.2XeXlXwX;XL.( ,.^ { P.W.eXvXhX~.W.L.L.W.2XlXeX2XU.U.2XfXcXhXjXwX2X2X6XsXxXlXaX_._._._._.",
"_._._._._.^.'.}.}.OXsXkXgXkXkXjXlXcXcXlXvXlX@XaXhXfXhXhXhXjXjXgXgXlXjXlXxXcXcXvXvX4X+XgXhXlXvXvXcXkXhXsXgXhX4XOX@X[._._._._._._.",
"_._._._._._._._.^.K.J././.}.#XaXkXlXlXkXsXXX).).'.}.4X3X}.{./.K./.#X#XgXkXkXkXgX#X^.^.^.'.@XqXXXoXoX`.^.^./.'.'._._._._._._._._.",
"_._._._._._._._.`.`.^.K.K.)._.'.J.H.H.J.s ! a ! K.K.).).K.K.J.J.K.Q.'.].[.'.^.>.s ! s S.S.^._.^._._.`.K.)._._._._._._._._._._._.",
"_._._._._._._._._._._._._._._._._._.`._._._._._._._._.`._._._._._._._._._._._._._._.)._._._._._._._._._._._._._._._._._._._._._."
};
