/* XPM */
static char *out[] = {
/* columns rows colors chars-per-pixel */
"64 64 232 2 ",
"   c #161C2E",
".  c #1A1E2D",
"X  c #1B212D",
"o  c #1C2232",
"O  c #1A2838",
"+  c #212635",
"@  c #242A37",
"#  c #242A3B",
"$  c #2A2D3D",
"%  c #26303D",
"&  c #2B353C",
"*  c #35383B",
"=  c #2F403C",
"-  c #3A4739",
";  c #50603D",
":  c #1F3240",
">  c #2C2E41",
",  c #2B3442",
"<  c #2C3A48",
"1  c #323A45",
"2  c #343847",
"3  c #36364A",
"4  c #3A3B4D",
"5  c #393D50",
"6  c #423F40",
"7  c #413E52",
"8  c #354648",
"9  c #3B454B",
"0  c #344F4E",
"q  c #3D4A4E",
"w  c #3A4755",
"e  c #3C4B52",
"r  c #3A455A",
"t  c #3D5256",
"y  c #3B5858",
"u  c #3A625C",
"i  c #3B5C62",
"p  c #396969",
"a  c #377378",
"s  c #474B4D",
"d  c #534D49",
"f  c #445646",
"g  c #434055",
"h  c #434B53",
"j  c #47495B",
"k  c #455757",
"l  c #4D595B",
"z  c #565B5A",
"x  c #4C664A",
"c  c #556846",
"v  c #59764B",
"b  c #476656",
"n  c #55675A",
"m  c #577A57",
"M  c #54755B",
"N  c #6D6454",
"B  c #756B5A",
"V  c #464B61",
"C  c #4B4E64",
"Z  c #495666",
"A  c #545C62",
"S  c #50576D",
"D  c #545968",
"F  c #4E5C73",
"G  c #545C72",
"H  c #4B6465",
"J  c #486767",
"K  c #5A6566",
"L  c #5A6667",
"P  c #526D6C",
"I  c #487669",
"U  c #537568",
"Y  c #4C6E71",
"T  c #576679",
"R  c #54647C",
"E  c #467775",
"W  c #547574",
"Q  c #567876",
"!  c #567B7A",
"~  c #597D7C",
"^  c #65656A",
"/  c #636D6D",
"(  c #6B7965",
")  c #757769",
"_  c #656B72",
"`  c #6A7273",
"'  c #6C7879",
"]  c #737A7B",
"[  c #8C795E",
"{  c #827E6C",
"}  c #857D74",
"|  c #5D835A",
" . c #65824D",
".. c #768C4A",
"X. c #668857",
"o. c #648A5C",
"O. c #778E5A",
"+. c #6C945C",
"@. c #6E985C",
"#. c #739C5C",
"$. c #789A58",
"%. c #76A25D",
"&. c #7BA45D",
"*. c #7EA95E",
"=. c #598668",
"-. c #5D9264",
";. c #4B8379",
":. c #58867A",
">. c #5F917E",
",. c #658866",
"<. c #659665",
"1. c #6C9C62",
"2. c #6B936F",
"3. c #7A8578",
"4. c #75A464",
"5. c #70A26F",
"6. c #829A54",
"7. c #9BB94F",
"8. c #87A65B",
"9. c #83AD5D",
"0. c #8AAD5C",
"q. c #95AB5A",
"w. c #8DB256",
"e. c #87B05B",
"r. c #8CB15A",
"t. c #93B554",
"y. c #9BB653",
"u. c #9CB851",
"i. c #94B25A",
"p. c #9BB35A",
"a. c #A3B656",
"s. c #ABB757",
"d. c #A3B952",
"f. c #ABB954",
"g. c #A4B559",
"h. c #AAB659",
"j. c #B1B857",
"k. c #998667",
"l. c #899374",
"z. c #A9906A",
"x. c #8BAB69",
"c. c #9AB866",
"v. c #95A576",
"b. c #9CB378",
"n. c #A5BC68",
"m. c #A9AF74",
"M. c #C8A876",
"N. c #5E6F86",
"B. c #577B83",
"V. c #6C798A",
"C. c #3E888B",
"Z. c #5B8383",
"A. c #588A87",
"S. c #5E8B8B",
"D. c #5A928B",
"F. c #4C8D90",
"G. c #459799",
"H. c #698B88",
"J. c #778487",
"K. c #64918E",
"L. c #629494",
"P. c #689796",
"I. c #669D9D",
"U. c #6A9E9D",
"Y. c #769091",
"T. c #789C97",
"R. c #44A09F",
"E. c #6AA29C",
"W. c #79A39D",
"Q. c #489CA2",
"!. c #579AA4",
"~. c #6E9EA1",
"^. c #45A4A4",
"/. c #47ABA9",
"(. c #4AAAA9",
"). c #54A7A8",
"_. c #57B2AF",
"`. c #5CB6B2",
"'. c #6CA2A3",
"]. c #69A8AC",
"[. c #71A5A3",
"{. c #73AAAA",
"}. c #75ABAA",
"|. c #6BB2B1",
" X c #68BCB6",
".X c #78B0B0",
"XX c #7CB3B4",
"oX c #7AB8B6",
"OX c #7BC6BD",
"+X c #838A8C",
"@X c #8E9593",
"#X c #8D9694",
"$X c #839F98",
"%X c #A69F81",
"&X c #A99E8E",
"*X c #84A49B",
"=X c #B7AC89",
"-X c #ABAA96",
";X c #98A1A4",
":X c #90B3A7",
">X c #84B8B7",
",X c #85BBBC",
"<X c #A8B0B2",
"1X c #AAB3B5",
"2X c #D4B986",
"3X c #90C4BA",
"4X c #A4C9BA",
"5X c #B3CEB8",
"6X c #CAC096",
"7X c #DBC490",
"8X c #E2CE99",
"9X c #E5D29D",
"0X c #CDC7A5",
"qX c #EADAA5",
"wX c #EFE1AB",
"eX c #88BFC0",
"rX c #8BC5C3",
"tX c #98D0C4",
"yX c #B8C1C3",
"uX c #ACD7C9",
"iX c #A9D9CB",
"pX c #B3DDCC",
"aX c #B7E0CE",
"sX c #B7E5D3",
"dX c #BBE9D6",
"fX c #CFD2D6",
"gX c #C2EDD9",
"hX c #C7F1DC",
"jX c #F4EBC7",
"kX c #D6DBE0",
"lX c #FAF6E7",
"zX c white",
/* pixels */
"/./././././././././././././././././././././././././././.(./.|.|._.|././././././././././././././././././././././././././././././.",
"/./././././././././././././././././././././././././././.(.|.e K H q |./././././././././././././././././././././././././././././.",
"/./././././././././././././././././././././././././././.(.|.l / A s |./././././././././././././././././././././././././././././.",
"/./././././././././././././././././././././././././././.(.k l ^ ` 1 B./././././././././././././././././././././././././././././.",
"/././././././././././.^././././././././././././././././.W   l K ` % o U./.(.(././././././././.^././././././././././././././././.",
"/./././.G.p p a E p F.Z.I D.D.;.-.M J U M +.| o.I ;.F.' 9   k / z h O 9 W.A.E b m X.b I -.;.;.>.D.D.E =.E F.a p u a R./././././.",
"/././.C.u - *.%.%.%.U x.$.e.%.&.9.&.@.%.*.w.w.w.e.v.n ` @ O K / / '   4 k ,.v.4.*.w.9.%.w.8.#.e.4.4.9.#.@. .- &.%. .u G././././.",
"/././.u +.X.i.r.g.h.q.h.t.y.7.7.d.i.t.w.7.7.7.n.l.k / 9 @   ` l ` l . @ A K h b.w.7.7.u.f.f.p.t.t.p.f.e.0.X.%.e.*.#.X.I G./././.",
"/././.p v 8.s.f.d.f.y.t.w.y.f.f.f.f.f.w.e.t.b.) C 7 C _ ^ C ^ ^ L l   @ e l / k ( c.t.0.t.7.7.7.7.u.t.w.y.g.g.p.*.%.| I G./././.",
"/././.a @.*.p.u.t.t.7.7.t.7.t.t.t.t.u.t.b.3.' . 7 S G N.N.G 7 J.l ` $ w 1 l A ` L l l.n.7.u.u.t.y.7.7.t.t.d.s.i.e.*.o.E /./././.",
"/././.E x 8.g.h.i.g.y.7.t.w.w.a.i.w.p.3./ `   $ 7 S G N.N.N.N.7 ' L # F > r h h k ^ K l v.h.a.i.g.t.t.w.t.t.0.1.1.@.| p ^./././.",
"/././.p +.9.h.j.p.u.y.d.y.w.e.i.c.b.n A K ` o g S N.N.N.S C N.N.j _   F , N.F , k k A L L ) b.c.u.u.d.u.r.w.0.4.@.@.%.I G./././.",
"/././.0 4.r.g.g.f.f.f.f.g.g.h.g.v.l A z g ` > g G N.N.N.N.N.7 G T V.# C j F N.O w j k q z K l n.d.f.f.g.g.h.f.a.c.9.4.=.G./././.",
"/.^./.=.5.4.9.0.d.f.d.t.t.p.d.y.( h 1 k g C > g 7 7 S N.N.N.N.C N.g % Z j T R 3 R R # 4 h , t v.7.d.t.t.a.y.u.f.y.9.1.I ;./././.",
"/././.Z.5.5.1.%.e.t.t.y.7.w.w.t.  # l w $ 4 7 7 7 # # 3 S N.N.C N.3 $ C N.V.V.V g R j 3 1 k $ N 7.7.u.u.w.t.t.i.r.5.:.D.! /././.",
"/././.A.1.4.*.p.f.t.f.f.y.t.w.7.1 q > ^   o 7 7 7 3     > N.N.C D . , r R V R V Z R V 5 4 + 9 ( p.f.g.y.w.t.u.f.g.9.1.p i /././.",
"/././.! 4.*.w.u.u.d.7.t.7.7.7.d.l X j . >   3 7 7 7 3 . # S N.C >   D V r Z N.C r N.R 7 R # . l.7.n.t.t.7.7.d.d.g.8.+.M p /././.",
"/./.^.M *.e.p.u.w.w.t.g.i.w.d.y.n.) . 4 7 4 + g 7 > $ [ $ 7 C 7 * z.B &XN.Z N.R V F N.g F , 3.5XyXn.a.w.t.d.d.d.q.X.o.o.y /././.",
"/././.X.9.p.a.y.t.t.t.u.7.7.7.w.b./ $ g 7 7   7 3   M.M.z.7 7 N M.M.9X2X#XG V.N.V N.N.V 7 3 yX;X;Xc.y.y.7.t.w.t.h.6.| o.k /././.",
"/././.b %.8.0.i.t.w.9.e.w.7.7.7.n.3., g 7 >   7 > . m.2X2XM.M.M.2X8X9XM.&XV S V.7 r R V S +XyX#X;Xx.w.t.7.7.t.t.8.O.1.$.m /././.",
"/././.m *.m #.g.d.u.t.t.t.7.w.t.v.#   3 g 5 5 7 2 ) d   z { %XwXwXwX8XqXM.] C C g N.F 5 J.yXyX1X1Xx.t.t.7.t.w.9.$.#.M k y /././.",
"/././.k | M <.9.t.7.t.t.w.w.w.w.l.4 V.> g g 7 4 N 7XM.M.2XwXwXwXwX{ =XwX7X%X5 R V N.N.S 1XyXyXyX#Xq.t.w.t.e.w.w.u.g.#.X.y /././.",
"/././.0 m @.#.q.y.d.f.a.t.u.d.d.) V V.  3 7 4 + } M.M.M.2XwXwXwXwX  s wX9XM.V.5 F N.N.V.yX#X1XyX#Xm.d.t.d.d.d.f.p.q.+.U i /././.",
"/././.w E U 9.g.j.d.d.r.t.d.d.f.# 4 3 S         %XM.M.M.2XwXwXwXwXd   wXwX2 _ C O r N.;X<X#X1X;X#X8.w.w.d.d.f.f.g.$.t B.Q /././.",
"/././.p =.@.%.e.p.a.y.t.t.t.t.p.2 D _ C V.^ 5   m.M.M.M.8XqXwXwXwX}   z.}   L h z 4 S yX;X#X1X#X3...u.t.t.i.a.i.i.$.X.x 0 /././.",
"/./.(.y %.<.1.t.f.f.d.d.d.r.r.b.j _   V @ s ]   2X2XM.M.=Xl.{ { { s         . T e L ` ;X#X;X;X#XZ q.d.y.r.i.r.r.8.#.*.x < ^././.",
"/./.(.u -.%.e.i.f.f.f.f.p.h.g.%X  #XfXj D V.' d 2XM.2XqX2Xj   o   . .   . =Xl.` k l _ #X#X1X;X#X  s.f.a.a.t.%.1.4.| M - 8 /././.",
"/./.(.E -.4.1.%.0.q.7.t.w.t.u.J.] k.7 1XkXJ.  z z.M.M.M.2X9XwXz.z z . s 6X2XN D l / # #X#XJ.#Xe l 7.t.e.a.9.%.1.1.1.@.+.0 /././.",
"/././.I I -.4.<.<.1.9.w.w.t.w.X d #X0X{ +XfXzXzX+X        M.M.8XwXwX  %X2XM.M.j 1 ` l #X] #XV.  l.7.7.d.y.w.t.w.9.*.5.K.Y /././.",
"/././.! I -.4.*.9.e.t.d.y.w.v.#   @XN.+X-XwXjXjXzXzXzXzX^ M.M.M.M.wX  %XM.M.M.j     J.#X` @Xz D o n.d.d.q.y.t.y.a.#.o.W Y ^././.",
"/././.Y | e.i.i.y.a.f.a.y.n.< ^   @XN.N.N.@XwXwXqXjXlXfX> M.M.M.M.wX  %XM.M.N . ` g +Xh ] #Xg 3.k . g.y.t.d.f.f.i.#.o.b < /././.",
"/././.I M *.i.g.y.y.y.t.t.n.l h   #XN.N.N.@XwXwXwXwXjXkXr } M.M.M.wX  2XM.6   #   h L # _ ` A , A 1 t.t.7.d.d.d.p.o.M U 0 /././.",
"/././.M o.0.h.f.r.w.t.f.t.b.  &   #XN.N.N.#XqXwXwXwXwXlXC 6 } M.M.wXwXwX6 > r < r >   4 K 4 _ w o 9 g.i.t.7.y.y.h.t.#.o.w /././.",
"/././.X.+.&.p.a.u.t.w.t.7.n.@ k   qX-XJ.N.#XM.2XwXwXwX0XC # $ 6 N k.k.z r R >   < j 5 # O @ 3 < 9 c.y.7.7.t.w.y.j.i.*.@.n /././.",
"/././.m m #.9.r.t.w.w.w.w.7.c.v.T %XwXwX=XV.9X2X2XqXwX0XN.  S V ,     r r   3 $ N . o 2 7 @ 3 N.r 0.w.t.7.t.t.t.g.q.4.o.b /././.",
"/././.n 4.9.0.g.f.7.7.t.t.w.w.t.+X%XwXwXM.2X-XY.<XwXwXwXZ   7 j F S V 5 7 7 7 d 6 k.N   + 3 5 N., p.t.w.t.t.t.p.p.p.9.o.y /././.",
"/././.M @.&.e.w.w.u.f.a.t.a.f.f.h.s wXwX8XM.-XN.N.N.^ z Z   5 7 7 7 7 7 7 7 3     z.{ g ] 4 # # v.f.y.t.d.f.f.h.r.9.o.M J /././.",
"/././.i I | &.y.a.d.u.t.t.u.7.d.g.) =XwXwX2X-XN.N.N.N.{ C   r 7 g j 7 7 7 5   5 +   g z ` & c u.7.t.w.7.d.d.d.f.p.*.4.;.Y /././.",
"/././.! 2.@.i.h.t.p.u.7.t.t.w.p.x.O.s wXwX9X+XN.N.N.+X{ Z   7 7 g g 7 > #     4 7 . / / / *  .t.y.7.7.w.t.t.a.9.9.4.2.>.J /././.",
"/././.>.1.0.g.s.i.a.t.t.t.w.w.y.i...w ^ 2XwXR N.N.J.-X3 <   .     o   + o   + d { ` l ^ K - p.i.g.t.7.w.w.i.8.-.<.<.-.=.y /././.",
"/././.I o.0.h.h.7.7.d.d.f.i.q.i.c...- )   6Xw N.N.=X    # r r V 5 V r > @ . + s K + K K z c ..7.y.d.d.d.i.9.0.9.*.%.1.o.k /././.",
"/././.y #.9.0.p.d.d.f.d.p.g.h.g.h.6.* 9 ] 2 , N.-Xs   . o X . + +   o   & 9 @ - q @ l l 9 ; ..u.d.f.a.p.h.t.d.f.g.0.1.b 8 ^././.",
"/././.8 M +.0.j.j.7.7.7.t.t.7.y.y...- 8 q _ . ] { . X @ 3 $ > 5 3 $ > > & 9 % K 8 @ s 9 1 v ..p.7.7.u.y.t.t.d.d.w.9.#.m : /././.",
"/././.8 v @.$.g.p.a.y.d.y.w.t.t.q.O.c s q k h D s X 8 X , $ $ 9 3 $ $ + & k 1 q & 1 q h & ....i.7.f.f.g.0.q.w.e.e.$.X.= : /././.",
"/././.0 & X.9.&.%.4.e.%.9.4.0.p.%.X.; q 9 l @ c c @ K 8 ; - * = - - c f 9 l * c - 1 k 9 * ....x.9.p.i.&.v c +. .*. .% I < /././.",
"/././.< q X. .x 2.>.=.M +.@.+.+.+.x v q f x c  .m = f 8 | | x t k v b x 8 q f v ..x x l 8 M  .4.1.*.4.M 0 u 0 0 | x i L.0 /././.",
"/././.< [.W u I.XX,XXX:.U I ;.I U 0 b y J ,.o.,.:.m ,.2.K.>.H Y p y E I u 0 u o.,.X.P ,.0 U m >.D.5.E.D.U.[.E.D.p I S.W , /././.",
"/././.< K.}..X3X,X,XXX'.'.;.:.W.E.}.>XE.K.k i S.U.[.{.}.>X>X>X>XH P.>X[.}.L.P.P.B.0 P..X[.>XE.E.L.[.rX3XrXrXoX{..X3XU.w O /././.",
"/././.< k ! I.'.I.'.'.oX>XZ B.,XeX,XXX{.I.W 0 ~.>X{.'.XX>XoXXX{.Y ~ {.'.'..XoXXXH.J I.'.{.].{..XS.< Z.XXXX].U.{.}.[.Z O 0 /././.",
"/././.0 J ~ I.I.I.I.'.'.I.8 k L.'.'.I.I.I.Z.Z B.'.U.I.I.I.I.U.I.Z.Z.I.U.I.I.I.I.L.! I.I.I.I.{..XZ.w ! I.I.I.U.I.I.L.J , a /././.",
"/././.a Z U L.I.I.I.I.I.L.J H Z.L.I.I.I.I.S.P L.I.I.I.I.I.I.I.I.B.W L.P.I.I.I.I.L.J I.I.I.I.I.L.W H K.I.I.I.I.I.S.H < : R./././.",
"/././.oX# k B.L.I.I.I.I.L.Z 8 ! K.I.I.I.I.Z.t I.I.I.I.I.I.I.I.I.Z Y ~.P.[.'.U.I.S.y L.I.I.I.I.A.H w A.L.I.U.'.[.[.K.k Z /./././.",
"/././.3X: ! P.T.L.U.'.'.L.J < S.I.I.I.I.L.H < L.I.I.I.I.L.S.L.S.Y y {.XX.X{.U.I.L.t K.I.I.I.I.L.k 8 A.L.I.U.{.XX}.B.e ~ _./././.",
"/././.tX0 ! U.XX.X'.'.I.E.A.k W L.I.'.]..XU.e Z.L.'.I.I.I.I.I.I.L.8 B.I.I.I.I.I.I.Y L.I.I.I.I.I.Z E I.I.I.I.I.I.K.P 8 P.(./././.",
"/././.tXe J ~ I.U.I.I.I.I.I.W W L.'.I.I.P.K.h .X>XXX.X'.I.I.I.I.S.t ! I.I.I.I.I.I.B.'.I.I.I.'.L.W S.I.I.I.I.I.L.P Z 8 ,X/./././.",
"/././.rXP H ! I.I.I.I.I.I.L.P P L.I.I.I.I.S.t H.{.'.I.I.I.I.I.I.S.t ! I.I.I.U.I.K.! I.I.I.I.E.L.W Z.I.I.I.I.I.I.~ H J iX_./././.",
"/././.OX*Xe H B.I.I.U.I.I.K.P B.U.I.I.I.E.S.k :..X].I.I.I.I.I.L.Z.H P L.U.I.'.}.P.P L.I.I.I.L.S.H P Z.I.I.I.I.! H < W.iX/./././.",
"/././.`.pXH.t Y S.L.L.P.L.! H :.I.I.I.I.L.W H P L.I.I.I.L.L.L.L.S.H P S.I.I.I.I.Z.U I.U.I.L.S.Z.t H S.I.I.L.L.! b H.dXiX/./././.",
"/./././.OXdX:XY.H.Z.H.L.W.W.Y.P :.Z.S.L.L.~ $XH P ! H.S.~ W Q W Q $XH.K.K.:.B.Q Y W.Q B.Z.:.Q ` *X*XH.! ! S.L.K.*XgXgXOX/./././.",
"/./././._.tXiXsXuX:X4XtXsXgXgX4XH.H.Y.T.:XtXdX4X*XH.~ :.Q ' J.$XuXhXpXW.T.J.H.W.1XdX5X:XH.Y.:XuXgXpXpX4X:X:X1XtXgXdXrX/././././.",
"/././././.Q.).].]..XtXdXiXsXsXaXgXgXgXdXhXdXoX3XpXiXpXpXpXpXsXtXiXgXpXdXdXgXgXgXhXeXoXtXpXgXhXgXhXdXpXtXiXpX,X.X.X`././././././.",
"/./././././././.Q.G.F.!.!.].OXrXsXdXdXsXtX|.^.^.).].,X>X{.'.!.G.Q.OXOXiXdXsXsXiXOXQ.Q.Q.).oXrX X X`._.Q.Q.!.).).^./././././././.",
"/./././././././.(.(.G.G.G.^./.).F.F.D.F.a E p E G.R.^.Q.G.G.F.F.G.R.)._._._.Q.;.a E a C.F.C.^.^././.^.Q././././././././././././.",
"/./././././././././././././././././././././././.(./././././.(./.(.(././././././././././././././.^././.^././././././././././././."
};
