/* XPM */
static char *out[] = {
/* columns rows colors chars-per-pixel */
"64 64 235 2 ",
"   c #161C2E",
".  c #1A1E2D",
"X  c #1A1F32",
"o  c #1C222E",
"O  c #1D2234",
"+  c #1A2838",
"@  c #212536",
"#  c #232B36",
"$  c #262839",
"%  c #252A3B",
"&  c #2A2C3D",
"*  c #2B333C",
"=  c #29343C",
"-  c #34373C",
";  c #394739",
":  c #364A3E",
">  c #4C5C3C",
",  c #1F3240",
"<  c #2C2E41",
"1  c #2B3442",
"2  c #2C3B47",
"3  c #323B45",
"4  c #343846",
"5  c #36364A",
"6  c #3A3C4D",
"7  c #363D51",
"8  c #413E4C",
"9  c #354549",
"0  c #3A444B",
"q  c #344F4E",
"w  c #3D4A4D",
"e  c #3D4352",
"r  c #394B54",
"t  c #3A455A",
"y  c #3B5658",
"u  c #3A625C",
"i  c #3B5C62",
"p  c #396969",
"a  c #377378",
"s  c #464B4E",
"d  c #514A46",
"f  c #445748",
"g  c #434055",
"h  c #434D52",
"j  c #46485C",
"k  c #465658",
"l  c #4D595B",
"z  c #575B59",
"x  c #4C6549",
"c  c #576945",
"v  c #59764B",
"b  c #476557",
"n  c #59675B",
"m  c #577957",
"M  c #54745B",
"N  c #6C6555",
"B  c #474B61",
"V  c #4A4D63",
"C  c #495868",
"Z  c #535766",
"A  c #545C62",
"S  c #51576D",
"D  c #4D5B72",
"F  c #525C72",
"G  c #4B6465",
"H  c #486767",
"J  c #5A6466",
"K  c #5A6766",
"L  c #5C646B",
"P  c #526D6C",
"I  c #487669",
"U  c #537568",
"Y  c #4C6E71",
"T  c #596577",
"R  c #54657C",
"E  c #467775",
"W  c #547574",
"Q  c #567876",
"!  c #567B7A",
"~  c #597D7C",
"^  c #636C6D",
"/  c #6B7865",
"(  c #73736A",
")  c #666A76",
"_  c #6A7372",
"`  c #687779",
"'  c #727A7D",
"]  c #8C795E",
"[  c #857465",
"{  c #827E6C",
"}  c #5D835B",
"|  c #65824D",
" . c #768C4A",
".. c #668757",
"X. c #648A5C",
"o. c #778E5A",
"O. c #6C945C",
"+. c #6E985C",
"@. c #739C5C",
"#. c #789A58",
"$. c #76A25D",
"%. c #7BA45D",
"&. c #7EA95E",
"*. c #598668",
"=. c #5D9264",
"-. c #4B8379",
";. c #58867A",
":. c #5F917E",
">. c #658866",
",. c #6F8D6F",
"<. c #659665",
"1. c #6C9C62",
"2. c #75A464",
"3. c #70A26F",
"4. c #809753",
"5. c #9BB94F",
"6. c #87A65B",
"7. c #83AD5D",
"8. c #8AAD5C",
"9. c #95AC5B",
"0. c #8DB256",
"q. c #87B05B",
"w. c #8CB05A",
"e. c #93B554",
"r. c #9BB653",
"t. c #9CB851",
"y. c #94B25A",
"u. c #9BB35A",
"i. c #A3B656",
"p. c #AAB757",
"a. c #A3B952",
"s. c #ABB954",
"d. c #A4B559",
"f. c #AAB659",
"g. c #B1B857",
"h. c #9A8869",
"j. c #879673",
"k. c #A89270",
"l. c #8AA96B",
"z. c #99B865",
"x. c #95A476",
"c. c #9CB377",
"v. c #A5BC69",
"b. c #A9AF77",
"n. c #C8A876",
"m. c #CCAE7B",
"M. c #CEB17E",
"N. c #A6C27B",
"B. c #5E6F86",
"V. c #577B83",
"C. c #6E7988",
"Z. c #3E888B",
"A. c #5B8383",
"S. c #588A87",
"D. c #5E8B8B",
"F. c #5A928B",
"G. c #4C8D90",
"H. c #459799",
"J. c #698B88",
"K. c #788587",
"L. c #64918E",
"P. c #74948D",
"I. c #629494",
"U. c #689796",
"Y. c #669D9D",
"T. c #6A9E9D",
"R. c #789C97",
"E. c #44A09F",
"W. c #6AA29C",
"Q. c #79A39D",
"!. c #489CA2",
"~. c #579AA4",
"^. c #6E9EA1",
"/. c #45A4A4",
"(. c #47ABA9",
"). c #4AAAA9",
"_. c #54A7A8",
"`. c #57B2AF",
"'. c #5CB6B2",
"]. c #6CA2A3",
"[. c #69A8AC",
"{. c #71A5A3",
"}. c #73AAAA",
"|. c #75ABAA",
" X c #6BB4B2",
".X c #78B0B0",
"XX c #7CB3B4",
"oX c #7AB8B6",
"OX c #7BC6BD",
"+X c #8D9091",
"@X c #8C9695",
"#X c #839F98",
"$X c #A69F81",
"%X c #84A49B",
"&X c #AEA392",
"*X c #A6A898",
"=X c #B8B191",
"-X c #999DA5",
";X c #9AA4A4",
":X c #90B3A7",
">X c #84B8B7",
",X c #85BBBC",
"<X c #A7AFB2",
"1X c #D3B985",
"2X c #C1B694",
"3X c #B9C99D",
"4X c #90C4BA",
"5X c #A4C9BA",
"6X c #B5CABB",
"7X c #DBC490",
"8X c #E2CE99",
"9X c #E5D39E",
"0X c #CAC4A1",
"qX c #DAD1A5",
"wX c #E8D7A2",
"eX c #EFE1AB",
"rX c #F1E6B9",
"tX c #88BFC0",
"yX c #AEB7C2",
"uX c #8BC5C3",
"iX c #98D0C4",
"pX c #B8C1C3",
"aX c #ACD7C9",
"sX c #A9D9CB",
"dX c #B3DDCC",
"fX c #B7E0CE",
"gX c #B7E5D3",
"hX c #BBE9D6",
"jX c #C4C6CA",
"kX c #C2EBD7",
"lX c #C2EDD9",
"zX c #C7F1DC",
"xX c #F6EECE",
"cX c #F4F1E9",
"vX c white",
/* pixels */
"(.(.(.(.(.(.(.(.(.(.(.(.(.(.(.(.(.(.(.(.(.(.(.(.(.(.(.(.(.(. X X`. X).(.(.(.(.(.(.(.(.(.(.(.(.(.(.(.(.(.(.(.(.(.(.(.(.(.(.(.(.(.",
"(.(.(.(.(.(.(.(.(.(.(.(.(.(.(.(.(.(.(.(.(.(.(.(.(.(.(.(.(. X9 J P 9  X(.(.(.(.(.(.(.(.(.(.(.(.(.(.(.(.(.(.(.(.(.(.(.(.(.(.(.(.(.",
"(.(.(.(.(.(.(.(.(.(.(.(.(.(.(.(.(.(.(.(.(.(.(.(.(.(.(.(.(. Xl ^ z h  X(.(.(.(.(.(.(.(.(.(.(.(.(.(.(.(.(.(.(.(.(.(.(.(.(.(.(.(.(.",
"(.(.(.(.(.(.(.(.(.(.(.(.(.(.(.(.(.(.(.(.(.(.(.(.(.(.(.(.`.B z K _ 4 V.).(.(.(.(.(.(.(.(.(.(.(.(.(.(.(.(.(.(.(.(.(.(.(.(.(.(.(.(.",
"(.(.(.(.(.(.(.(.(.(.).).(.(.(.(.(.(.(.(.(.(.(.(.(.(.(.(.W   l L ^ & X Y.(.(.(.(.(.(.(.(.(.(.(.(.(.(.(.(.(.(.(.(.(.(.(.(.(.(.(.(.",
"(.(.(.(.H.p p a E a A.A.I F.F.-.=.M H U M O.} X.I -.G.` 0   k ^ G h @ 0 R.S.E b } ..u M <.-.-.;.F.F.E *.E G.a p p p E.(.(.(.(.(.",
"(.(.(.Z.u : q.+.$.$.m 3.#.q.$.%.q.$.+.$.7.0.e.0.w.x.n _ % O K ^ ^ '   0 k ,.x.2.7.0.7.#.0.6.@.7.2.2.7.@.+.| : %.$.| u H.(.(.(.(.",
"(.(.(.u O...w.y.d.f.9.p.y.t.5.5.i.y.e.e.e.5.t.z.j.k ^ 9 #   _ l _ l   $ l J h c.0.5.e.5.s.s.u.e.e.u.i.0.8...$.7.&.@...U H.(.(.(.",
"(.(./.p v 6.p.p.a.s.a.e.0.r.s.s.s.s.s.e.7.e.c.n Z C.< 8 g 8 ) +XK l   # w l ^ k / z.y.7.e.5.5.5.5.r.e.0.r.d.f.y.&.$.} I H.(.(.(.",
"(.(.(.a +.&.u.t.e.e.5.5.e.5.e.e.e.e.5.e.b.,.z L Z X 7 B.B.F S V C.( < 7 7 l n _ J l j.v.t.t.r.e.e.5.5.e.e.a.g.y.q.&.X.E (.(.(.(.",
"(.(.(.E x 7.d.f.y.d.t.e.0.0.0.d.e.8.d.,.^ _ _ 0 & 8 g S B.B.F B.S ) 6 F % t t k l K J l x.s.i.z.i.e.r.0.e.5.8.1.1.+.} p /.(.(.(.",
"(.(.).p O.7.f.g.u.a.t.r.5.w.8.e.c.c.n A J h _   8 V B.B.B.B.B S B.T F F 5 R D 1 k h z L K ( c.z.a.t.t.r.q.w.w.2.1.+.$.I H.(.(.(.",
"(.(.(.q 2.w.u.f.s.a.p.s.s.d.f.f.x.z A l g j B.< 8 S B.B.B.B.B.B F B.V V j F D < t k k h z J k v.a.s.p.i.i.f.i.f.z.7.2.*.H.(.(.(.",
"(.(.(.*.3.2.7.8.i.s.a.t.0.u.d.e./ 0 3 k g X T 8 j F F V S B.B.B.g T S C.B T B.5 D B.% 6 w 1 k x.5.a.e.e.i.r.t.s.u.7.1.I -.(.(.(.",
"(.(.(.A.3.3.1.$.0.0.e.5.5.e.0.e.  = l h & 5 T 8 g g $   X 5 B.B.V S g C.B.B.C.B g B.B < 4 k & N 5.5.t.r.w.0.e.r.0.3.;.F.Q (.(.(.",
"(.(.(.S.1.7.2.e.s.u.p.i.t.e.0.5.2 e < 6 8 ) j 5 g g 8 5   O V B.S g + t F B B.B C D B 7 7 @ 9 / u.s.d.t.0.5.r.i.d.7.1.u p (.(.(.",
"(.(.(.W $.&.0.t.t.t.t.9.5.5.5.5.z . 5 Z e O @ O 8 j 8 < 8   5 F j < d z +XS B.S t B.F 7 R $ . j.5.t.0.t.5.5.a.a.a.6.1.M p (.(.(.",
"(.(.(.M &.7.u.t.q.0.e.s.0.0.a.t.v.N S F @ g 8 @ < 8 % 8 n.] 5 8 8 z n.7X1X+XB.F B D B.B D < n z.e.t.3X3Xe.a.a.s.9...X...y (.(.(.",
"(.(.(...2.u.i.r.5.e.e.t.t.5.e.0.z.0 j   g j j < & 8   ( M.n.k.[ k.n.1XeX1X&XC.B.B B.B.B 8 6 6 5.N.6XyX' 5.e.q.e.f.6.m ..k (.(.(.",
"(.(.(.b &.6.9.y.e.0.7.q.e.5.5.5.v.n <   g 8 8 < 8 5 4   z k.h.h.8X8XeX1X8Xn.C.B.7 B F B C 5 ) 6X<X<X@XK 5.5.e.e.6.o.O.2.M (.(.(.",
"(.(.(.m &.m @.d.a.e.e.e.e.e.e.9.x.$ F Z g g g g 8 < eXn.] N [ eXeXeXeXeXeX8X+XV 8 B.D 7 B.V -XpX@X;X@XL e.e.0.7.#.@.m k y (.(.(.",
"(.(.(.k } M <.7.e.t.5.0.e.e.0.0.j.5 B.B.< g g g 8 . 9Xn.n.n.eXeXeXeXz { eX8Xn.F V B.B.D F D yXpX<X<X@XL e.0.e.0.u.f.@.X.y (.(.(.",
"(.(.(.q m +.@.u.r.a.s.i.e.5.a.a.( V D T   < g 7 X z 7Xn.n.n.eXeXeXeX( . eXeXN ) D B.B.D V <XpXpX<X@X@XL t.a.s.a.d.9.X.U k (.(.(.",
"(.(.(.r E U %.d.g.a.a.0.e.t.s.a.< 6 5 V C.S X X . z n.n.n.7XeXeXeXeX$X. { 2X  B.X t D B.` pX;XpXjX@X_ ,.a.a.s.s.f.+.q S.! (.(.(.",
"(.(.(.H *.+.$.w.u.d.t.e.e.e.0.r.< 5 8 V D t ) '   $Xn.n.n.7XeXeXeXeX$X  d 6   ) A 6 r R yX;X#XpX-XC.. c.e.e.d.y.y.#.| x q (.(.(.",
"(.(.(.u $.<.1.y.s.s.a.a.a.0.8.c.5 S V F   0 ^ h   b.n.n.8XwXN               { z ^ L h C.<X@X;X;X@Xl v.r.0.y.8.w.6.#.&.x 2 (.(.(.",
"(.(.(.u =.$.7.y.s.s.s.a.i.d.f.b.5 V T   vXZ g ) X 1Xn.n.n.7X9XeX[ j .   O k.9XN L l K e @X+X<X@X@Xz a.d.d.e.$.1.1.} v q 9 (.(.(.",
"(.(.(.I =.$.1.&.8.9.e.t.e.9.r.,.8 < )   V vX@X  X 1Xn.n.n.n.n.1XeXeXeX  s 9Xn.h.L l ` 1 @X+X+X@Xz / e.8.d.7.$.1.1.1.+.O.q (.(.(.",
"(.(.(.I a =.1.<.<.+.7.0.0.e.0.  < k . =Xz ) cX<X) ) d ] ] ] ] k.n.1X8X  h.1Xm.n.Z l e J @X_ +XK.. v.5.a.t.e.0.0.q.&.3.L.Y (.(.(.",
"(.(.(.! *.=.2.7.7.q.e.a.5.0.x.* ^ ^ . @X+X0X$XxXcXvXvXjX+X+XZ ] n.n.8X  ( 1Xn.h.j L   @XK.' +X4 h v.a.a.y.r.e.r.u.#.X.W Y (.(.(.",
"(.(.(.Y } &.e.0.u.i.s.d.r.c.3 K k - X @XB.B.C.0XeXrXxXcXvXvX) ] n.n.8X  j.1Xh.< ( e A @X_ @XC.. _ O d.t.e.t.a.s.y.$.>.u 2 (.(.(.",
"(.(.(.Y M %.u.i.r.r.5.e.e.v.l h < h   @XB.B.B.*XeXeXeXeXxXyXt N n.n.8X$XeXh.    O   K.L 9 @XA Z A 1 e.e.a.a.a.s.u.X.M m 9 (.(.(.",
"(.(.(.M X.8.f.s.w.w.e.i.e.c.  = h 0   +XB.B.B.*XeXeXeXeXxXyXt   4 N 1X1X$X% B.  e < % @ J J @ w O 9 i.y.e.5.5.r.s.0.$.X.r (.(.(.",
"(.(.(...O.%.u.u.5.e.0.5.5.v.# h 5 h   *XB.B.B.*X1XeXeXeXeXyXt t < .     X R D   5 B.D O % 6 L L ) z.t.5.5.5.0.u.p.u.%.+.b ).(.(.",
"(.(.(.M m @.8.0.e.0.0.0.0.5.v.x.0 6 j.eXqX*XB.=Xn.7XeXeXqXB.t V F B.S V B.B X % $ - $ 5 5 %   t t j.0.e.e.e.e.u.f.9.$.X.b (.(.(.",
"(.(.(.b 7.7.8.i.i.5.r.e.e.0.0.e.l.Z ( eXeXn.=X0X2X7XeXeX&XB.t j 8 V S V 7 8 8 < ] . N - @ 5 < D B./ e.0.e.0.e.e.u.u.7.X.k (.(.(.",
"(.(.(.M +.%.8.0.0.a.s.i.e.d.a.a.d.^ d eXeX1Xn.*XB.K.*X0X$XB.  8 g g g g 8 g g % - N n.] . . < S 1 x.r.e.a.s.s.p.8.7.>.M H (.(.(.",
"(.(.).i I } %.u.i.a.r.e.e.t.a.a.d.c g =XeXwXn.*XB.B.B.V * B.  8 g g g g 8 g < X < < ] g ,.j / / x.t.e.e.a.a.a.s.u.&.2.-.Y (.(.(.",
"(.(.).! <.1.w.p.u.u.r.5.e.e.0.u.u.v 0 z eXeX8X*XB.B.B.B.z B.  g g g g g < X X < 8 @ z ' ) -  .9.r.5.5.0.e.y.d.8.7.&.3.;.H (.(.(.",
"(.(.(.S.1.8.f.p.y.t.e.5.e.0.0.r.y. .# ' =XeXwXB.B.B.B.*Xh D             X       <   l ^ L ; 9.e.d.e.e.e.0.e.7.=.=.<.=.*.y (.(.(.",
"(.(.(.U } 6.p.i.5.5.a.s.a.y.8.u.z. .; z L { eXV B.B.*X{ 2 X 5 5 < 7 5 + - #   # ^ 0 J J z c  .5.5.a.a.d.w.8.w.7.7.1.1.X.y (.(.(.",
"(.(.(.u $.7.y.r.a.a.a.a.u.f.s.d.f.4.; 0 n   z D B.$Xs     . . X X   X   * -   # - # l l 9 c  .5.a.s.d.u.f.e.t.s.d.w.O.b 9 (.(.(.",
"(.(.(.9 m X.6.g.g.a.5.5.e.e.t.t.e.4.; - 0 ^ . B.0X0 . o 5 - < e < $ < & * 0 * 4 * # s 0 1 v  .r.5.5.r.t.e.u.a.a.y.&.$.M + (.(.(.",
"(.(.(.w v O.2.d.u.r.a.a.t.w.e.y.9.o.c s w l A 4 -   - # < $ $ e 6 & & $ * 9 # 3 0 3 w f *  . .z.t.a.s.d.8.0.0.q.w.#...: 1 (.(.(.",
"(.(.).q - ..&.&.2.2.q.2.7.2.8.y.$.| x w 0 l # c c 3 9 o ; ; = ; 0 ; ; = = : - v ; 3 k 0 3  . .l.7.y.y.%.v c +.| &.| 2 H 2 (.(.(.",
"(.(.).2 w ..| x <.;.*.m O.+.O.O.O.c v w f x c | m - f f ..v : : : > : M w f f v | x x z 9 v | 2.@.&.2.m q y q q | f p I.q (.(.(.",
"(.(.(.2 {.W u Y.XXtXXXA.I I -.U U q b y H >.X.>.*.*.>.:.P.;.C Y i y W I u q b X.>...U >.q U m :.F.3.W.F.T.{.T.F.p I S.W 1 (.(.(.",
"(.(.).2 L.|..X4X,X>XXX].W.;.;.{.W.|.XXW.L.k i D.^.{.{..X,X,X>X>XH U.>X{..XI.Y.U.V.w U..X].oXW.].I.{.uX4XuXuX>X X.X4X^.q + (.(.(.",
"(.(.(.2 k ! Y.].Y.].].oX>XC ~ ,XtX,XoX}.T.W 9 ^.>X}.].XXoXoXXX}.P ~ [.{.]..XoXXXJ.H Y.].[.}.[.XXD.2 A.XXXX].T.}..X].C + q (.(.(.",
"(.(.(.q H Q Y.Y.Y.Y.T.[.T.9 k I.T.T.Y.Y.Y.A.C A.].].Y.Y.Y.Y.T.Y.A.A.Y.Y.Y.Y.T.Y.I.Q T.Y.Y.T.}..XA.e ! Y.Y.Y.Y.Y.Y.I.H , a (.(.(.",
"(.(.(.a C U I.Y.Y.Y.Y.Y.I.b G A.Y.Y.Y.Y.Y.D.P I.Y.Y.Y.Y.Y.].Y.Y.A.W I.Y.Y.Y.Y.Y.I.H T.Y.Y.Y.Y.I.P G I.Y.Y.Y.Y.Y.L.H 2 1 E.(.(.(.",
"(.(.(. X% k V.U.Y.Y.Y.Y.Y.C r Q I.Y.Y.Y.Y.A.y I.Y.Y.Y.Y.Y.Y.Y.Y.H H R.U.^.[.Y.Y.D.y I.Y.Y.Y.Y.D.G r S.I.Y.T.].{.{.J.k i (.(.(.(.",
"(.(.(.OX1 ! P.T.U.T.].].I.H 2 D.Y.Y.Y.T.I.G 3 I.Y.Y.Y.Y.I.D.I.D.Y y }.XXXX}.T.Y.I.y D.^.Y.Y.Y.I.C 9 A.I.Y.].}.oX|.V.r ! '.(.(.(.",
"(.(.(.iXr W T.XX|.].].T.Y.S.k W I.Y.Y.[..XT.r V.I.].Y.Y.Y.Y.Y.Y.I.7 V.Y.Y.Y.Y.Y.Y.Y I.Y.Y.Y.Y.Y.C E Y.Y.Y.Y.Y.Y.L.P 9 U.).(.(.(.",
"(.(.(.iXy G ! Y.Y.Y.Y.Y.T.I.Y W Y.Y.Y.Y.T.J.k |.>X>X.X].Y.Y.Y.Y.D.k ! Y.Y.Y.Y.Y.I.A.Y.Y.Y.Y.Y.I.W D.Y.Y.Y.Y.Y.I.P C 9 4X(.(.(.(.",
"(.(.(.iXP G ! Y.Y.Y.Y.Y.Y.I.W P I.Y.Y.Y.Y.D.y J.].].Y.Y.Y.Y.Y.Y.A.y ! Y.Y.Y.Y.T.L.V.Y.Y.Y.Y.Y.I.P S.Y.Y.Y.Y.Y.Y.~ G C sX`.(.(.(.",
"(.(.(.OX#Xh P A.Y.Y.Y.Y.Y.I.P V.Y.Y.Y.Y.Y.S.k V..X[.Y.Y.Y.Y.Y.I.A.G U I.T.Y.].|.U.U I.Y.Y.W.I.J.G P D.Y.Y.Y.Y.! G 2 %XsX(.(.(.(.",
"(.(.(.'.dXJ.t Y D.I.I.I.I.! C ;.Y.Y.Y.].I.W G U I.Y.Y.I.I.I.U.F.D.C P D.Y.Y.Y.Y.A.W I.Y.Y.I.L.;.y H D.Y.Y.I.I.~ G J.hXiX(.(.(.(.",
"(.(.(.(.OXhX:XJ.J.~ J.I.W.%XR.P ;.A.S.I.I.~ #XG P ~ L.J.;.P Q W ! %XP.L.I.;.V.Q P R.Q ! A.V.W Q %X%X;.` ! D.I.L.%XkXlXOX(.(.(.(.",
"(.(.(.(.`.iXsXgXaX4X5X5XhXlXkX5XK.J.P.Q.:XiXhX5X%XJ.;.~ ~ ` K.R.5XzXdX{.R.J.K.R.<XgXaX:XP.P.:XaXlXdXdX5X:X:X<XiXkXhXuX(.(.(.(.(.",
"(.(.(.(.(.!._.[.}.XXuXgXaXkXhXgXhXlXlXhXzXhXoXuXdXsXdXdXdXfXfXaXsXlXdXhXkXlXlXzXzX,XoXsXgXhXzXlXlXhXgXiXdXdXtX.XoX'.(.(.(.(.(.(.",
"(.(.(.(.(.(.(.(.!.H.G.~.~.~.OX4XgXhXhXgXiX X/./._.[.,X>X[.[.~.H.!.OXOXsXgXgXgXsXuX!.H.!._.oX4X X X'.).!.H.~._.)./.(.(.(.(.(.(.(.",
"(.(.(.(.(.(.(.(.(.(.!.H.H./.(._.F.G.F.G.a E p a G.!.).!.H.G.G.G.H.E._.`.`._.H.G.a a p Z.Z.!.(.!./.(.).!.(.(.(.(.(.(.(.(.(.(.(.(.",
"(.(.(.(.(.(.(.(.(.(.(.(.(.(.(.(.(.(.(.(.(.(.(.(.(.(.(.(.(.(.(.(.).).(.(.(.(.(.(.(.(.(.(.(.(.(.(.(.(.(.(.(.(.(.(.(.(.(.(.(.(.(.(."
};
