/* XPM */
static char *out[] = {
/* columns rows colors chars-per-pixel */
"64 64 233 2 ",
"   c #161C2E",
".  c #1A1E2D",
"X  c #19202C",
"o  c #1D2333",
"O  c #1A2838",
"+  c #212536",
"@  c #262B39",
"#  c #24293B",
"$  c #2A343C",
"%  c #33383B",
"&  c #2F403C",
"*  c #3A4738",
"=  c #4C5C3C",
"-  c #1F3240",
";  c #2C2E41",
":  c #2B3342",
">  c #2C3948",
",  c #333B45",
"<  c #353549",
"1  c #3B3B4E",
"2  c #3A3D50",
"3  c #423F49",
"4  c #354648",
"5  c #3B444B",
"6  c #344F4E",
"7  c #3D4A4D",
"8  c #3A4853",
"9  c #3A455A",
"0  c #3B5658",
"q  c #3A625C",
"w  c #3B5C62",
"e  c #396969",
"r  c #377378",
"t  c #474C4D",
"y  c #4B5147",
"u  c #434055",
"i  c #444D53",
"p  c #45465B",
"a  c #454B5B",
"s  c #4A5556",
"d  c #455759",
"f  c #4D595B",
"g  c #565C5B",
"h  c #4C6549",
"j  c #536946",
"k  c #59764B",
"l  c #486557",
"z  c #5A675B",
"x  c #54755B",
"c  c #577958",
"v  c #6C6455",
"b  c #474C61",
"n  c #4A4D63",
"m  c #4A5768",
"M  c #545D62",
"N  c #565A67",
"B  c #50576D",
"V  c #4E5B72",
"C  c #545F75",
"Z  c #4B6465",
"A  c #486767",
"S  c #5A6566",
"D  c #5A6567",
"F  c #526D6C",
"G  c #487669",
"H  c #537568",
"J  c #4C6E71",
"K  c #54657D",
"L  c #5A687A",
"P  c #467775",
"I  c #547574",
"U  c #567876",
"Y  c #567B7A",
"T  c #597D7C",
"R  c #676865",
"E  c #636D6D",
"W  c #6C7966",
"Q  c #727C6B",
"!  c #646973",
"~  c #6B7373",
"^  c #6A7679",
"/  c #73767C",
"(  c #727B7D",
")  c #8C795E",
"_  c #827E6C",
"`  c #5D835A",
"'  c #65824D",
"]  c #768C4A",
"[  c #668857",
"{  c #648A5C",
"}  c #778E5A",
"|  c #6C945C",
" . c #6E985C",
".. c #739C5C",
"X. c #789A58",
"o. c #76A25D",
"O. c #7BA45D",
"+. c #7EA95E",
"@. c #598668",
"#. c #5D9264",
"$. c #4B8379",
"%. c #58867A",
"&. c #5F917E",
"*. c #658866",
"=. c #659665",
"-. c #6C9C62",
";. c #6C9070",
":. c #75A464",
">. c #70A26F",
",. c #809753",
"<. c #9BB94F",
"1. c #87A65B",
"2. c #83AD5D",
"3. c #8AAD5C",
"4. c #95AC5B",
"5. c #8EB256",
"6. c #87B05B",
"7. c #8CB15A",
"8. c #93B554",
"9. c #9BB653",
"0. c #9CB851",
"q. c #94B25A",
"w. c #9BB35A",
"e. c #A3B656",
"r. c #AAB757",
"t. c #A3B952",
"y. c #ABB954",
"u. c #A4B559",
"i. c #AAB659",
"p. c #B1B857",
"a. c #919071",
"s. c #AA906A",
"d. c #99B865",
"f. c #94A577",
"g. c #9CB378",
"h. c #A5BC69",
"j. c #A8A67C",
"k. c #A5B973",
"l. c #C8A876",
"z. c #CCAE7B",
"x. c #CEB17E",
"c. c #5E6F86",
"v. c #577B83",
"b. c #6B7687",
"n. c #6E7887",
"m. c #3E888B",
"M. c #5B8383",
"N. c #588A87",
"B. c #5E8B8B",
"V. c #5A928B",
"C. c #4C8D90",
"Z. c #459799",
"A. c #698B88",
"S. c #788789",
"D. c #758B8F",
"F. c #64918E",
"G. c #629494",
"H. c #689796",
"J. c #669D9D",
"K. c #6A9E9D",
"L. c #789C97",
"P. c #44A09F",
"I. c #6AA29C",
"U. c #79A39D",
"Y. c #489CA2",
"T. c #579AA4",
"R. c #6E9EA1",
"E. c #45A4A4",
"W. c #47ABA9",
"Q. c #4AAAA9",
"!. c #54A7A8",
"~. c #57B2AF",
"^. c #5CB6B2",
"/. c #6CA2A3",
"(. c #69A8AC",
"). c #71A5A3",
"_. c #73AAAA",
"`. c #75ABAA",
"'. c #6BB2B1",
"]. c #68BCB6",
"[. c #78B0B0",
"{. c #7CB3B4",
"}. c #7AB8B6",
"|. c #7BC6BD",
" X c #8F9394",
".X c #8C9695",
"XX c #88989A",
"oX c #A69F81",
"OX c #9CB084",
"+X c #84A49B",
"@X c #B8AD89",
"#X c #A6B683",
"$X c #B0AF98",
"%X c #939EAB",
"&X c #9BA5A5",
"*X c #90B3A7",
"=X c #84B8B7",
"-X c #85BBBC",
";X c #A2ABAC",
":X c #ABB4B5",
">X c #B0B7BA",
",X c #C4B68D",
"<X c #D2B783",
"1X c #AEC687",
"2X c #90C4BA",
"3X c #A4C9BA",
"4X c #B7CBBB",
"5X c #CAC096",
"6X c #DBC490",
"7X c #D5C99B",
"8X c #E2CE99",
"9X c #E5D29D",
"0X c #CAC4A1",
"qX c #E8D7A2",
"wX c #EFE1AB",
"eX c #F1E6B9",
"rX c #88BFC0",
"tX c #8BC5C3",
"yX c #98D0C4",
"uX c #B8C1C3",
"iX c #ACD7C9",
"pX c #A9D9CB",
"aX c #B3DDCC",
"sX c #B7E0CE",
"dX c #B7E5D3",
"fX c #BBE9D6",
"gX c #D1D3D6",
"hX c #C2EBD7",
"jX c #C2EDD9",
"kX c #C7F1DC",
"lX c #F6EFD3",
"zX c #F3F2EA",
"xX c white",
/* pixels */
"W.W.W.W.W.W.W.W.W.W.W.W.W.W.W.W.W.W.W.W.W.W.W.W.W.W.W.W.W.W.'.'.~.'.Q.Q.W.W.W.W.W.W.W.W.W.W.W.W.W.W.W.W.W.W.W.W.W.W.W.W.W.W.W.W.",
"W.W.W.W.W.W.W.W.W.W.W.W.W.W.W.W.W.W.W.W.W.W.W.W.W.W.W.W.W.'.7 S Z 7 '.W.W.W.W.W.W.W.W.W.W.W.W.W.W.W.W.W.W.W.W.W.W.W.W.W.W.W.W.W.",
"W.W.W.W.W.W.W.W.W.W.W.W.W.W.W.W.W.W.W.W.W.W.W.W.W.W.W.W.W.'.f E M i '.W.W.W.W.W.W.W.W.W.W.W.W.W.W.W.W.W.W.W.W.W.W.W.W.W.W.W.W.W.",
"W.W.W.W.W.W.W.W.W.W.W.W.W.W.W.W.W.W.W.W.W.W.W.W.W.W.W.W.!.w g S ~ , v.W.W.W.W.W.W.W.W.W.W.W.W.W.W.W.W.W.W.W.W.W.W.W.W.W.W.W.W.W.",
"W.W.W.W.W.W.W.W.W.W.Q.Q.W.W.W.W.W.W.W.W.W.W.W.W.W.W.W.W.J   f S ! @ o J.W.W.W.W.W.W.W.W.W.W.W.W.W.W.Q.W.W.W.W.W.W.W.W.W.W.W.W.W.",
"W.W.W.W.Z.e e r P r v.M.$.V.V.G #.H A c x | c { G $.V.^ 8   s E Z i + 5 U.%.G A c [ l G =.$.$.%.V.V.$.$.G C.r q e e P.W.W.W.W.W.",
"W.W.W.m.q * +...O.:.c >.o.6.o.O.6.o. .o.6.5.8.5.6.f.l ! # O S E E /   5 s ;.f.:.2.7.2.X.5.1...2.o.:.6... .k 6 O.o.' q P.W.W.W.W.",
"W.W.W.q | [ q.7.u.i.4.u.8.<.t.<.t.q.8.8.8.<.<.d.a.d ~ 5 #   ~ f ~ f   + M D 7 g.8.<.8.<.t.y.w.8.8.w.e.7.3.] o.6.+...[ G Z.W.W.W.",
"W.W.E.e k 1.i.y.t.y.t.8.5.t.y.y.y.y.y.5.1.8.g.z M E n 1 .   R ! S f   @ 8 g E d W d.8.3.8.<.t.<.<.0.q.5.9.w.u.w.6.o.` G Z.W.W.W.",
"W.W.W.r  .+.w.0.8.8.<.<.8.8.8.8.8.5.<.<.k.;.g E ^ / ! 3 n R n.n.f ~ @ 8 , f M ~ D f a.h.<.<.<.8.<.<.<.8.8.r.p.q.2.+.{ r W.W.W.W.",
"W.W.W.P h +.u.i.w.e.9.8.5.5.5.t.8.5.h.*.R / ~ S   ; u c.c.c.c.u ! S.# V # 9 9 9 s S Z f f.y.e.w.u.8.<.7.8.<.7.-. .-.` A E.W.W.W.",
"W.W.W.e | 2.i.p.w.<.9.t.t.5.3.5.g.g.z S N i E   2 3 p B c.c.c.c.L 3 1 V < c.V ; f i S S S Q g.d.0.9.0.0.7.7.7.:. .| o.G P.W.W.W.",
"W.W.W.6 :.7.w.i.y.y.y.y.u.i.i.i.f.g M s 8 b   < 3 B C C c.C n B B c.n n p C c.o 9 d i 7 z S s k.t.y.y.i.e.i.e.u.d.2.:.@.Z.W.W.W.",
"W.W.W.@.>.:.2.7.t.y.t.8.5.9.e.8.W 8 , s 1 2   u B c.c.c.c.c.c.c.b B n b.3 L c.< C K # 2 8 : s f.<.0.8.5.t.9.9.y.w.2.-.G $.W.W.W.",
"W.W.W.&.>.>.-.O.7.5.8.0.<.5.5.5.  @ s u @ ! + u b B n 3 u n c.c.c.3 c.b.c.b.b.b p K b < , s @ z <.<.0.<.5.8.8.w.7.>.@.V.I W.W.W.",
"W.W.W.N.-.:.+.w.r.8.y.r.9.8.8.<., i @ 1 1 b.; p 3 < ;     < n c.C 3 p c.c.p c.p m C b 2 2 + 4 Q w.y.i.9.5.8.0.e.u.2.=.A e W.W.W.",
"W.W.W.I o.+.5.9.<.t.<.8.8.<.<.t.g X < u p L   < u u u ;   ; u c.n 1   3 9 m c.n p c.K 1 K # X a.<.0.8.8.<.0.t.t.e.2.=.x e W.W.W.",
"W.W.W.x +.6.w.0.7.5.8.e.q.8.t.<.h.z B b.  ;   + p 3 <   3   u B 3   ) v D.m c.K b K K b V : z d.5.0.u.5.9.t.t.t.w.{ { [ 0 Q.W.W.",
"W.W.W.[ :.w.e.9.<.8.5.0.9.<.8.5.d.4 a   < 3 1   p < . s.<Xv 3 3 R s.z.qX<Xn.b.c.b K c.p 2 1 1 8.8.1X4X:X#X8.7.8.i.1.c [ d W.W.W.",
"W.W.W.d +.1.4.q.8.5.2.7.5.<.<.<.h.v N + p p 3   3 + . oX6Xl.l.l.<X<X9X<Xl. XC c.2 b C b B ; t #XuX:X;X/ OX<.<.8.1.} =.O.c W.W.W.",
"W.W.W.c +.c ..u.t.9.8.8.8.8.8.8.oX; n.; 3 u u   3 o t   3 _ _ oXqXwXqX9X9Xj.N n p c.V p c.n ; 4X;X.X&X^ k.5.5.2.X.X.c l 0 W.W.W.",
"W.W.W.0 ` x | 2.8.<.8.8.5.8.5.5.;.2 n.; p u 2 2 ; _ 6Xl.) a.5XwXwXwXoXwXwXz.N L b K c.B V B b.uX>X&X&X( OX7.8.5.w.i...[ 0 W.W.W.",
"W.W.W.6 c | ..q.9.t.r.u.9.0.t.t.~ n c.  u u 3 p o @Xl.l.l.6XwXwXwXwX  @XwX6X X2 V V V c.B B uXuXuX>X.X( #Xt.y.t.w.4.*.H 0 W.W.W.",
"W.W.W.6 I @.:.u.p.t.t.5.8.0.t.t.; 3 < n + 2 u + . wXl.l.l.6XwXwXwXwX3 _ wX,X  m - 9 c.V p XX:X>XuX;X.XE #Xt.y.y.u.X.6 M.Y W.W.W.",
"W.W.W.A @. .+.7.9.e.9.<.8.8.5.9.; < 3 n b.a   . $ 6Xl.l.l.wXwXwXwXwXg   wXg N u g 5 9 K B uX.X;X>XXX( s 8.5.w.q.q.X.' h 6 W.W.W.",
"W.W.W.0 -.| -.q.u.y.t.t.r.3.7.g.< B 9 b + 7 M ! g <Xl.l.l.@X_ _ _ _ 3       . g 8 S i ; XX;X X;X&X.X5 h.7.w.7.7.1...+.j > W.W.W.",
"W.W.W.q #.:.2.q.y.y.y.u.u.u.i.j.< B !   N ! g ! _ l.l.<XwX@Xt             3 wX. f f D i %X.X.X:X.X.Xs r.r.5.o.-...` x 6 4 W.W.W.",
"W.W.W.P #.o.-.+.3.q.8.<.8.8.t.*.!   ! gX Xf /   s.l.l.l.x.<X8X0XoXg 3 . g <Xz.  ^ f f  X5 .X.X;X.X8 f.7.e.2.:...-.-. .| 4 W.W.W.",
"W.W.W.G G #.-.=.=. .2.5.5.8.8.  N _ _ N gXgXs   g s.l.l.l.l.l.<X6XwXoX  wX<Xl.v D f s   ! .XS .X/ X h.0.9.8.8.5.2.+.>.F.J W.W.W.",
"W.W.W.Y $.#.:.2.2.2.8.t.9.5.f.$ n._ n.@X_ >XxXxX;X X        l.l.l.l.oX  wXz.l.v a 5 ^ . .XS.( .X, R t.t.q.9.8.9.w...| I J W.W.W.",
"W.W.W.J ` +.8.5.w.e.y.u.9.k.: S / _ c.c. X$XwXlXlXzXxXxXzX  l.l.l.l.oX. wXl.s.3 u   5 ! .X^ .X(   1 e.9.8.<.t.y.q...{ 0 > W.W.W.",
"W.W.W.J x O.8.r.9.0.<.8.8.h.f i S _ c.c.c.c.wXwXwXwXwXlX%X  l.l.l.l.oXt wXs.  2 # M , .X~ ( .X8 / > 8.<.<.t.y.y.w.{ x x 6 W.W.W.",
"W.W.W.x { 2.i.r.5.7.8.t.8.g.  $ ! Q c.c.c.c.wXwXwXwXwXlX%X  3 s.l.l.eXeXwX% ; ; <   a ( : ( S.: o 4 e.q.8.<.0.e.u.8.o.{ 8 W.W.W.",
"W.W.W.[ | +.w.e.0.8.7.<.<.h.+ s ! a.n.! c.c.8X9XwXwXwXlX%X  < + y v ) a.3 n <   n n < : @ S p D t d.9.<.<.8.5.9.p.q.+. .l W.W.W.",
"W.W.W.x c ..2.3.8.5.5.5.5.<.d.f.D _ wX&Xc.c.6Xl.9XwXwXwXc.  9 c.3 ;     V 9 O   g ; n n #     2   z 5.8.<.8.8.9.u.4.o.{ l W.W.W.",
"W.W.W.l 2.2.q.9.r.0.0.8.8.5.8.5.OXt wXwX8X X$X6Xx.8XwXeXn.; 2 p B c.c.B B ; 3   g v . @ 1 < + # c.; k.5.8.5.5.w.w.w.2.{ d W.W.W.",
"W.W.W.x  .O.7.5.5.0.y.w.8.e.y.y.i.3 7XwX8Xz.8Xc..X$X0XwXn.9 ; 3 u u u u 3 u u ; t 3 v ) @ # < < c.> k.8.r.t.y.y.3.2.=.x A W.W.W.",
"W.W.W.w G ` O.w.t.t.0.8.8.<.t.0.h.W _ wXwXx.6Xc.c.c.V : > 9 ; 3 u u u u p u u #     l.l.% D   # : v 5.8.t.0.t.r.w.2.-.$.J W.W.W.",
"W.W.W.U ;.-.q.i.w.q.0.<.8.8.5.9.q.k N wXwX6X8Xc.c.c.c.$X> 9 ; 3 u u u u u < +   3   * 3 n.% ] a.f.0.<.5.<.5.e.3.2.:.>.%.A W.W.W.",
"W.W.W.M. .2.u.y.q.t.9.8.8.5.5.w.q.] N _ wXqX$Xc.c.c.c.$X2 < O + # # # o         3 < 3 S.S * 4.8.w.5.<.5.7.q.2.#.=.=.=.H 0 W.W.W.",
"W.W.W.H ` 3.r.u.<.<.t.y.t.q.q.q.d.] * Q y wXa.c.c.c.0Xt 9 + ; : # ; ; # , @ o % o   ( S g j ] <.<.t.y.u.q.7.7.6.1.....` q W.W.W.",
"W.W.W.q o.2.3.9.t.t.t.t.w.i.r.u.i.,.% 5 N _ _ c.c.0Xt   . . . + +       $ % o % s # f s 5 = ] t.t.y.t.w.i.8.w.y.e.6.| l 4 W.W.W.",
"W.W.W.4 c | 3.p.p.t.<.<.8.8.9.9.w.,.* 5 i N   c.$X% X X < @ < 2 ; # ; ; $ 4 @ 4 i # i 4 , k ] 9.<.<.9.8.q.8.t.t.5.+...c O W.W.W.",
"W.W.W.7 k | X.u.w.9.t.u.9.5.8.8.4.} = t 7 f p t & X % O $ @ @ 2 1 ; ; + $ * + d $ % 7 s $ ] ] d.0.t.y.i.3.5.5.6.7.o.[ 4 : W.W.W.",
"W.W.W.8 $ [ 2.O.:.o.2.o.+.:.3.w.o.' j 7 5 s + Q Q , M @ * * % & 5 * * & $ z % j * 4 s u % ] ] 3.2.q.w.O.k j  .` +.' : G > W.W.W.",
"W.W.W.: 7 [ ' h =.&.@.c  . .| | | h k 7 h h j ' k & 7 * c { c f z c l l 4 * y k ' h h l 4 x ` :.-.2.-.x 6 0 6 * ` h w G.6 W.W.W.",
"W.W.W.4 R.I e H.{.-X=X%.H G $.H H 6 l 0 Z =.W @.%.` *.;.L.%.A J m 0 G G q 6 q { *.{ H *.6 H c &.V.>.I.V.I.(.I.V.e G B.J : W.W.W.",
"W.W.W.> F.`.[.2X-X=X[.(./.$.Y ).I.`.{.I.F.d w V.R./._.[.=X=X=X=XA H.-X).`.G.I.H.T 7 H.`./.=XI.I.G.`.tX2XtX2X=X[.[.-XR.6 O W.W.W.",
"W.W.W.- 0 U J.K./.J./.=X=Xm Y rX-X-X{._.K.I 6 R.=X(./.{.}.-X{.).J T (.).(.[.}.{.A.A J./.).(._.{.A.> M.{.{././._._./.Z # 6 W.W.W.",
"W.W.W.w F U J.J.J.J.K.(.J.4 0 G./.J.K.J.J.M.f v./.R.J.K.J.J.J.J.M.M.K.J.J.J.K.J.G.U J.J.J.J._.[.M.8 Y J.J.J.J.J.J.G.A O r W.W.W.",
"W.W.W.r A F G.J.J.J.J.J.G.l Z M.J.J.J.J.J.B.F J.J.J.J.J.J.J.J.J.M.I G.H.J.J.J.J.G.A J.J.J.J.J.G.J A B.J.J.J.J.G.G.A > : P.W.W.W.",
"W.W.W.'.# d T G.J.J.J.J.J.m 8 U F.J.J.J.J.M.0 G.J.J.J.J.J.J.J.J.m A R.H.R./.K.J.B.0 J.J.J.J.J.B.Z 8 M.J.J././.).).A.d w W.W.W.W.",
"W.W.W.|.$ I D.K.H.R.(./.G.A > N.J.J.J.J.G.Z , F.J.K.J.J.G.B.G.B.J w ).{.[._.K.J.J.0 F.J.J./.J.G.m 4 M.G.J./._.}._.v.7 T ~.W.W.W.",
"W.W.W.yX6 I K.{._./.K.J.J.B.d I F.J./.(.[.K.8 M.H.K.J.J.J.J.J.J.G.4 M.J.J.J.J.J.J.A J.J.J.J.J.G.A P J.J.J.J.J.J.F.F 4 H.Q.W.W.W.",
"W.W.W.yX0 Z T K.J.J.J.J.J.H.F U J.J.J.J.J.F.8 [.}.=X`./.J.J.J.J.B.a Y J.J.K.J.J.J.v.J.J.J.J.J.G.F M./.J.J.J.J.G.I f 4 -XW.W.W.W.",
"W.W.W.yXF Z T K.J.J.J.J.J.G.I F G.J.J.J.J.B.0 A.).(.K.J.J.J.J.J.M.0 Y J.J.J.K.J.A.U J.J.J.J.J.G.I M.J.J.J.J.J.J.%.m V pX~.W.W.W.",
"W.W.W.|.XXi A v.J.J.J.J.J.G.F M.J.J.J./.J.N.d T _.(.I./.J.J.J.G.M.Z I G.J.J./.`.H.I G.J.J.J.H.B.m J B.J.J.J.H.T m 4 +XpXW.W.W.W.",
"W.W.W.^.aXA.0 J B.G.G.G.G.Y A T J.K.J.J.G.U Z F G.J.J.G.H.G.H.F.B.A F M.J.J.I.J.M.F G.K.J.G.A.%.0 Z B.J.J.H.G.%.l A.fXyXW.W.W.W.",
"W.W.W.W.|.dX*XA.A.U A.H.K.+XL.Z %.M.N.G.G.^ U.F F T A.B.Y F U I U XXF.F.F.%.T U H U.U v.M.T U U +X+XA.U Y B.D.F.+XjXfX|.W.W.W.W.",
"W.W.W.W.~.yXdXdXiX2X3X3XdXjXjX3XA.A.D.U.*XyXdX3X+XA.T T ^ %.A.L.iXkXaXU.L.A.A.L.:XhX3X*XA.L.*XiXjXaXaX3X*X*X-XyXfXfXyXW.W.W.W.W.",
"W.W.W.W.W.E.T.(._.{.tXfXiXfXdXsXjXjXjXfXkXfX}.2XaXpXaXaXaXaXsXpXpXhXsXfXhXhXhXjXkX-X=XyXaXfXkXjXjXdXaXyXpXpXrX{.}.^.W.W.W.W.W.W.",
"W.W.W.W.W.W.W.W.Y.Z.C.T.T.(.|.tXdXfXfXdXyX'.P.E.!.(.2X=X(.(.T.Z.T.|.|.pXfXfXdXpX|.Y.Y.Y.!.}.2X'.].].~.Y.Y.T.T.!.E.W.W.W.W.W.W.W.",
"W.W.W.W.W.W.W.W.W.Q.Z.Z.Z.E.W.!.C.C.V.C.r P r P m.Y.E.P.Z.C.C.C.Z.P.!.~.~.!.T.m.r P r m.m.Y.W.E.E.W.E.Z.W.W.W.W.W.W.W.W.W.W.W.W.",
"W.W.W.W.W.W.W.W.W.W.W.W.W.W.W.W.W.W.W.W.W.W.W.W.W.W.W.W.W.W.W.W.W.W.W.W.W.W.W.W.W.W.E.W.W.W.W.W.W.W.W.W.W.W.W.W.W.W.W.W.W.W.W.W."
};
