/* XPM */
static char *out[] = {
/* columns rows colors chars-per-pixel */
"64 64 224 2 ",
"   c #161C2E",
".  c #1C2335",
"X  c #222C2F",
"o  c #212637",
"O  c #292B36",
"+  c #24293B",
"@  c #26343B",
"#  c #343838",
"$  c #414E34",
"%  c #5E703D",
"&  c #2C2E41",
"*  c #283243",
"=  c #2C3A48",
"-  c #363C45",
";  c #36364A",
":  c #3A3B4D",
">  c #3B3C50",
",  c #423F40",
"<  c #2D414B",
"1  c #35474A",
"2  c #3D5548",
"3  c #394854",
"4  c #2C545B",
"5  c #3E5157",
"6  c #3C585A",
"7  c #3B635C",
"8  c #3B5D63",
"9  c #396968",
"0  c #387277",
"q  c #4A4C4C",
"w  c #4B5345",
"e  c #434055",
"r  c #454959",
"t  c #465857",
"y  c #5D5C56",
"u  c #4C674A",
"i  c #57744B",
"p  c #47675A",
"a  c #55765B",
"s  c #587B5A",
"d  c #6A7A4C",
"f  c #676959",
"g  c #494E63",
"h  c #465765",
"j  c #525962",
"k  c #50576D",
"l  c #535C72",
"z  c #456765",
"x  c #4B6465",
"c  c #4C6B6C",
"v  c #546C6C",
"b  c #48776A",
"n  c #537667",
"m  c #4F6F71",
"M  c #566579",
"N  c #467876",
"B  c #547574",
"V  c #587A76",
"C  c #567B7B",
"Z  c #5A7D7D",
"A  c #656C72",
"S  c #707670",
"D  c #8C795E",
"F  c #827E6C",
"G  c #6F853F",
"H  c #71853E",
"J  c #5C835B",
"K  c #6C8243",
"L  c #62814C",
"P  c #748442",
"I  c #7A8542",
"U  c #678B57",
"Y  c #61865C",
"T  c #648A5C",
"R  c #6C935C",
"E  c #6D985C",
"W  c #799156",
"Q  c #769858",
"!  c #739C5C",
"~  c #77A25D",
"^  c #7BA45D",
"/  c #7EA95D",
"(  c #598666",
")  c #5D9264",
"_  c #4B8379",
"`  c #568C75",
"'  c #58867A",
"]  c #758268",
"[  c #669764",
"{  c #6B9C62",
"}  c #709F63",
"|  c #698776",
" . c #659875",
".. c #76A566",
"X. c #73A572",
"o. c #98B74F",
"O. c #9BB94F",
"+. c #87A55B",
"@. c #83AC5D",
"#. c #8BAD5C",
"$. c #92AC5B",
"%. c #8EB256",
"&. c #87B05A",
"*. c #8BB159",
"=. c #94B553",
"-. c #9BB654",
";. c #9CB850",
":. c #95B25A",
">. c #9BB359",
",. c #A2B755",
"<. c #A9B757",
"1. c #A4B852",
"2. c #AAB954",
"3. c #A3B559",
"4. c #AAB759",
"5. c #ACB858",
"6. c #B1B857",
"7. c #998667",
"8. c #8F9172",
"9. c #889978",
"0. c #A9906A",
"q. c #84AA63",
"w. c #9DB96B",
"e. c #8DA175",
"r. c #95A274",
"t. c #85B271",
"y. c #9BB774",
"u. c #A4BC6C",
"i. c #A8BD6A",
"p. c #B0A27E",
"a. c #A4B874",
"s. c #C8A876",
"d. c #CEB17E",
"f. c #B6C677",
"g. c #3D7D80",
"h. c #5E6F86",
"j. c #587C80",
"k. c #3E888B",
"l. c #5B8484",
"z. c #578A85",
"x. c #5E8B8B",
"c. c #5A928B",
"v. c #488990",
"b. c #45979A",
"n. c #599896",
"m. c #688B88",
"M. c #778388",
"N. c #65978A",
"B. c #73938C",
"V. c #629494",
"C. c #679896",
"Z. c #669C9C",
"A. c #6A9D9D",
"S. c #789B96",
"D. c #6BA397",
"F. c #6BA29D",
"G. c #78A597",
"H. c #489BA2",
"J. c #5A9BA5",
"K. c #6D9EA2",
"L. c #45A4A4",
"P. c #47ABA9",
"I. c #4BAAA9",
"U. c #56A8A9",
"Y. c #5AB4B0",
"T. c #6BA2A2",
"R. c #68A8AC",
"E. c #71A5A4",
"W. c #73AAAB",
"Q. c #76ABAB",
"!. c #74B2B0",
"~. c #7DB4B4",
"^. c #78B9B7",
"/. c #7BC5BC",
"(. c #838A8C",
"). c #8D9694",
"_. c #8D9497",
"`. c #A69F81",
"'. c #91B082",
"]. c #84A59B",
"[. c #B9AE89",
"{. c #A6A898",
"}. c #B8B497",
"|. c #98A1A1",
" X c #91B5A9",
".X c #82B7B7",
"XX c #86BDBC",
"oX c #A2ABAC",
"OX c #AAB3B4",
"+X c #B0B8BB",
"@X c #C6BB87",
"#X c #D1B683",
"$X c #D5BB87",
"%X c #BDCC99",
"&X c #87C3BC",
"*X c #9AC4B7",
"=X c #BFCAAF",
"-X c #A6CCBC",
";X c #C4C386",
":X c #CAC096",
">X c #DBC490",
",X c #E2CE99",
"<X c #E5D29D",
"1X c #CDC7A5",
"2X c #EADAA5",
"3X c #EFE1AB",
"4X c #8BC6C3",
"5X c #9CCCC4",
"6X c #99D4C7",
"7X c #B8C1C3",
"8X c #ACD7C9",
"9X c #A8D8CB",
"0X c #B4DECC",
"qX c #B8E1CE",
"wX c #B9E6D4",
"eX c #BBE9D6",
"rX c #CFD2D6",
"tX c #C1EBD6",
"yX c #C2EDD9",
"uX c #C7F1DC",
"iX c #F4EBC7",
"pX c #D6DBE0",
"aX c #FAF6E7",
"sX c white",
/* pixels */
"P.P.P.P.P.P.P.P.P.P.P.P.P.P.P.P.P.P.P.P.P.P.P.P.P.P.P.P.P.P.P.P.P.P.P.P.P.P.P.P.P.P.P.P.P.P.P.P.P.P.P.P.P.P.P.P.P.P.P.P.P.P.P.P.",
"P.P.P.P.P.P.P.P.P.P.P.P.P.P.P.P.P.P.P.P.P.P.P.P.P.P.P.P.P.P.P.P.P.P.P.P.P.P.P.P.P.P.P.P.P.P.P.P.P.P.P.P.P.P.P.P.P.P.P.P.P.P.P.P.",
"P.P.P.P.P.P.P.P.P.P.P.P.P.P.P.P.P.P.P.P.P.P.P.P.P.P.P.P.P.P.P.P.P.P.P.P.P.P.P.P.P.P.P.P.P.P.P.P.P.P.P.P.P.P.P.P.P.P.P.P.P.P.P.P.",
"P.P.P.P.P.P.P.P.P.P.P.P.P.P.P.P.P.P.P.P.P.P.P.P.P.P.P.P.P.P.P.P.P.P.P.P.P.P.P.P.P.P.P.P.P.P.P.P.P.P.P.P.P.P.P.P.P.P.P.P.P.P.P.P.",
"P.P.P.P.P.P.P.P.P.P.I.I.P.P.P.P.L.P.P.P.I.I.I.I.P.P.P.P.P.P.P.P.P.P.P.P.P.P.P.P.P.P.P.P.P.P.P.P.P.P.I.I.P.P.P.P.P.P.P.P.P.P.P.P.",
"P.P.P.P.P.b.9 b 0 N N l.b _ c.c.( n z n a R s Y b _ c.' ` ` C.A.N. .c.n.z.b p n Y p a [ _ _ ' c.N ( b N k.9 7 0 P.P.P.P.P.P.P.P.",
"P.P.P.P.k.4 $ / R ~ T X.R / &.! @.~ Q ! @.:.y.v : g 9.(.'.X.q.t.t.@.&.#.~ E &.@.%.@.^ %.+.! / ....@.U ! u ~ Q L 7 L.P.P.P.P.P.P.",
"P.P.P.P.9 E U :.:.3.3.<.>.&.=.O.;.:.=.:.=.u.  > k k h.M l r a.>.%.-.;.>.*.:.=.%.o.=.O.2.5.=.-.>.<.%.&.*.W @.@.! U n k.P.P.P.P.P.",
"P.P.P.P.9 i +.5.1.1.1.=.:.%.-.2.2.<.2.%.&.  & e g h.h.h.h.h.g `.-.O.2.2.2.-.&.%.%.:.%.=.O.O.O.-.=.%.%.>.3.>./ ..J b b.P.P.P.P.P.",
"P.P.P.P.0 R / :.O.=.=.o.o.=.o.=.=.=.O.o.y.. , k h.h.h.g e h.h., f.=.=.%.=.O.=.O.=.1.=.O.O.-.=.O.-.=.=.=.<.:.@.@.J N P.P.P.P.P.P.",
"P.P.P.P.N u +.3.5.:.3.o.=.%.%.%.-.&.=.O.r.& , h.h.h.h.h.h., h.h.'.%.-.%.=.O.O.=.%.=.O.;.2.,.>.=.o.%.%.=.%.{ E E T z L.P.P.P.P.P.",
"P.P.P.P.6 E @.3.5.,.1.1.,.-.>.>.>.1.O.O.] @ e e e k h.h.h.h.g h., >.>.-.O.O.O.o.=.:.=.=.o.-.;.1.1.1.-.>.>.#./ ....b b.P.P.P.P.P.",
"P.P.P.P.) X...q.#.,.1.o.:.%.-.,.-.1.O.O.e e e , + + ; g h.h.g h.; 3.-.O.O.O.O.o.-.,.-.%.=.O.O.O.=.=.%.,.;.2.,.@.X.b _ P.P.P.P.P.",
"P.P.P.P.` G...{ E @.%.O.O.O.=.=.-.-.r.  + e e e ;     & h.h.g k   :.O.=.O.O.O.-.=.O.o.%.%.=.O.O.O.O.o.:.=.;.:.X._ z._ P.P.P.P.P.",
"P.P.P.P.' { { } &.=.:.-.O.O.%.&.q.f   &   > e e , &   & k h.g &   a.%.:.=.=.&.%.%.%.=.%.%.o.o.O.%X-.o.&.&.:.*...[ c.c P.P.P.P.P.",
"P.P.P.P.z.} ../ >.<.,.<.,.=.%.=.`.  , e ; . e e & & D + e g , & 0.f ;X,.;.=.%.%.o.=.1.1.O.f.=X7X+X-.o.%.=.2.4.q.{ z 9 P.P.P.P.P.",
"P.P.P.P.C ~ / %.-.;.1.=.-.=.O.O.a.* e e e   e ;   s.s.0., e f #Xs.<X>X;X;.%.&.=.&.:.-.-.,.7X|.|.oX-.o.O.;.1.,.^ E a 9 P.P.P.P.P.",
"P.P.P.P.J / *.-.-.=.%.;.-.=.=.O.a.# g , +   e &   p.>Xd.s.#Xs.#X<X,Xs.@XO.o.-.;.1.1.;.;.%X7X).oX).-.=.=.-.>.3.W J Y 6 P.P.P.P.P.",
"P.P.P.P.t ^ #.$.:.-.&.&.=.=.-.O.-.  : r > e e ; F q   y F `.3X3X3X,X2Xs.f.=.=.%.%.%.&.u.7X7XOXOX).%.o.O.-.=.+.W R ~ a P.P.P.P.P.",
"P.P.P.P.s ..s ! >.1.=.=.=.=.o.%.%.9.@ , e , ; y $Xs.s.$X2X3X3X3X] [.3X>X@X-.O.O.=.O.=.=X7X7X7X).).=.=.=.%.+.+.Q a p 5 P.P.P.P.P.",
"P.P.P.P.t J s R q.=.;.%.=.%.%.%.&.y.  ; e ; o F s.s.s.$X3X3X3X3X  q 3X<Xs.u.O.O.o.O.f.7X).+X7X).).%.&.=.&.=.-.3.Q T 6 P.P.P.P.P.",
"P.P.P.P.1 s R ! >.-.1.2.3.%.;.1.,.:.f         `.s.s.s.#X3X3X3X3Xq   3X3X# e.=.=.o.o.%XoX).OX|.).j -.=.1.1.,.>.$.R n 8 P.P.P.P.P.",
"P.P.P.P.3 b J ~ 3.6.1.%.%.%.;.1.9.r.1.w.8.q   `.s.s.s.,X3X3X3X3XF   `.8.  w.*.&.%.u.+X|.).OX).M.  %.=.;.1.5.3.Q 3 j.V P.P.P.P.P.",
"P.P.P.P.z ( E ..*.>.-.o.=.=.:.f A   f o.-.).  >Xs.s.s.@XF F F F q           f.=.=.a.|.).oX|.).j f =.%.=.-.:.:.^ Y u 1 P.P.P.P.P.",
"P.P.P.P.6 ~ E { :.<.1.1.1.1.e.  _.rXr f f.r.w d.s.$X3X$Xq               }.F a.1.=.S ).).OX|.).  i.1.-.%.%.*.+.! ^ u = P.P.P.P.P.",
"P.P.P.P.7 ) ~ @.:.<.2.2.3.>.r.F 8.> +XpXh.  y 0.s.s.s.$X,X3X`.y y   q @X$Xf S -.u.+ ).).M.).1 t 4.3.3.,.@.{ } J i 2 < P.P.P.P.P.",
"P.P.P.P.b ) ~ } ~ #.=.=.%.%.-.q _.1XF 8.pXsXsX_.        s.s.>X3X2X  `.#Xs.s.] O.r.y {.h.).M.  u.=.&.%.-./ } { { ! R 1 P.P.P.P.P.",
"P.P.P.P.b 0 ) { [ [ ^ %.%.=.=.  _.h.M.{.3XiXiXsXsXsXsXA s.s.s.s.3X  `.s.s.s.w O.X h.).A ).y f o.O.,.,.-.%.%.@./ { N.m I.P.P.P.P.",
"P.P.P.P._ b ) } / @.:.,.-.=.%.  _.h.h.h.|.3X3X3XiXaXrX= s.s.s.s.3X  `.s.s.f   S 1 (.r | _.1 u.1.1.,.,.:.=.-.3.Q T b m P.P.P.P.P.",
"P.P.P.P.m J q.>.>.-.;.>.;.=.=.  ).h.h.h.).3X3X3X3X3XpX3 D s.s.s.3X. @Xs.$   +   r k O A A ] ;.,.-.-.o.=.1.2.:.R s a < P.P.P.P.P.",
"P.P.P.P.a Y @.5.<.%.=.2.>.&.%.  ).h.h.h.).<X3X3X3X3XsXg , D s.s.3X3X2X, * 3 ; 3 &   - v : a.*.o.,.:.&.=.;.,.<.$./ Y 3 P.P.P.P.P.",
"P.P.P.P.T R ^ >.>.;.%.=.1.O.O.  <X{.h.h.).s.>X3X3X3X=Xg & * , f F 7.j 3 M +   ; g , O o o 1 ; t i.O.O.O.%.>.6.:./ ! p P.P.P.P.P.",
"P.P.P.P.p p E q.&.%.&.%.%.=.O.r.p.3X3X[.h.,X$X#X3X3X1Xh.  l r * .   g e   ; & f   o , , + ; h.3 9.%.=.O.O.O.6.>.! ! p P.P.P.P.P.",
"P.P.P.P.Y ! ! @.=.-.=.=.=.%.=.e.`.3X3Xs.>XoX(.}.3X3X3Xg   , 3 k k g e e e e q , 7.f   o ; > h.* u.=.=.=.%.:.>.#...a 6 P.P.P.P.P.",
"P.P.P.P.p / @.%.>.,.-.=.o.%.%.=., 3X3X,Xs.}.h.h.h.M y k   e e e , e e e , ;     0.D w r.r + + r.=.=.&.=.%.=.>.>.@.T h P.P.P.P.P.",
"P.P.P.I.p J R @.:.-.1.-.=.%.1.1.r.[.3X3X$X{.h.h.h.h.S k   e e e e e e e >   , o   t :.=.-.o.-.,.>.=.=.1.1.5.$.@.{ n z P.P.P.P.P.",
"P.P.P.P.' [ { :.4.:.-.O.=.%.=.%.a.q 3X3X,X(.h.h.h.(.F k   e e e e e @ o     > , . u.O.O.1.-.=.O.O.=.%.=.>.&.@.^  .| z P.P.P.P.P.",
"P.P.P.P.' E q.4.5.:.;.=.=.=.%.%.=.w.S @X3XM h.h.h.@X= =             # .   & q S e.=.o.-.2.-.3.=.o.=.%.%.#.) ) [ ) ( 6 P.P.P.P.P.",
"P.P.P.P.m T #.4.,.O.1.2.2.,.:.:.-.-.a.  :X3 h.h.[.    $ K I I I P L K $ . $ I -.=.=.o.=.-.O.O.1.1.2.-.:.#.@.@...! T 6 P.P.P.P.P.",
"P.P.P.P.6 ! q.:.>.;.1.1.3.:.,.<.,.<.1.i.- & h.{.q   @ K I P P P P I I I H I P =.=.:.-.&.%.=.O.2.,.>.>.5.-.<.3.#.R p < P.P.P.P.P.",
"P.P.P.P.< s R +.5.6.;.o.o.%.=.-.;.1.O.O.a.  S F   # G G G G H P K H G H H H -.O.O.O.-.=.=.O.O.O.;.-.=.=.-.1.%.@...a @ P.P.P.P.P.",
"P.P.P.P.2 i E Q 3.-.,.,.;.=.%.:.>.:.:.:.%.i.] f % L G G P G H H K L K K W $.%.%.=.=.-.%.>.>.-.1.5.5.-.&.:.#.*.~ U - * P.P.P.P.P.",
"P.P.P.P.1 @ U +.^ ^ / ^ +.~ / #.#.@./ / q.@.>.3.=...@.Q d u u i i q.#.>.3.3.>.-.>.5.#./ :.>.@.-.:.+.~ i i L ..L @ b = P.P.P.P.P.",
"P.P.P.P.= 2 U L u  .' a ^ J E [ E Y / R E ! @.@.} ! @./ ~ T p p s R J ( W +.! #.@.! Q a { @.} &...T 2 1 6 2 i u 7 n.1 P.P.P.P.P.",
"P.P.P.P.= E.B z Z.~.~.l.( z b _ n z ( 7 p R Y J ` ..G.G.N.V V.V.z b b _ 7 p Y s R n ( z  .{ ' N.D.` Z.F.T.c.b b l.m * P.P.P.P.P.",
"P.P.P.P.< N.Q.!.XXXX~.R.T.T.' ' F.W.~.F.x.6 8 c.T.T.G.^.XXXX4Xx.< C.!.Q.C.A.C.C 3 C.!.E..XT.C.W.4X&X4X4XXXW.~.XXA.4 . P.P.P.P.P.",
"P.P.P.P.= t V A.T.Z.T.~.XX~.h C XXXX~.W.A.B 3 K.XXE.T.~..X~.T.x.5 C T.T.!.~.~.m.x Z.T.E.W.W.A.= j.Q.^.!.T.W.!.T.x + 4 P.P.P.P.P.",
"P.P.P.P.9 j B C.Z.Z.Z.T.T.m.6 t V.Z.Z.Z.T.l.x m.A.A.Z.Z.Z.Z.Z.Z.n C Z.Z.D.Z.Z.n.m A.A.Z.Z.T.m.6 m.Z.Z.Z.Z.Z.V.C 5 @ k.P.P.P.P.P.",
"P.P.P.P.!.@ 6 Z V.Z.T.Z.Z.V.h 3 l.Z.Z.Z.Z.j.5 C.D.Z.Z.T.Z.Z.Z.x.= c A.K.T.T.T.x.6 C.Z.Z.Z.Z.C 3 l.V.Z.Z.T.E.E.m.t 8 I.I.P.P.P.P.",
"P.P.P.P.&X* B C.A.C.A.T.Z.x.z < V.Z.Z.Z.V.x = V.Z.Z.Z.Z.V.V.x.C z r Q.~.E.T.Z.V.5 n.Z.Z.Z.Z.C = l.V.V.Z.T.~.Q.l.3 V Y.P.P.P.P.P.",
"P.P.P.P.*X< l.~.XX.XW.A.Z.Z.l.3 x.Z.A.R.Q.E.3 C n.Z.Z.Z.V.Z.Z.Z.j.< n.Z.Z.Z.Z.C.h V.Z.Z.Z.Z.C c T.Z.T.Z.Z.A.V.n 3 B.Y.P.P.P.P.P.",
"P.P.P.P.6X5 v l.E.T.Z.Z.Z.Z.N.x C Z.T.E.!.C.r m.V.T.T.Z.Z.Z.Z.Z.l.3 x.Z.Z.Z.Z.Z.B F.Z.Z.Z.Z.j.l.Z.A.J.Z.Z.Z.l.x - A.U.L.P.P.P.P.",
"P.P.P.P.6X5 c C Z.Z.Z.Z.Z.Z.C.B l.T.Z.Z.A.c.5 Q..X.X!.A.T.Z.Z.Z.' 5 x.Z.Z.T.Z.C.l.A.Z.Z.Z.Z.l.x.T.Z.Z.Z.Z.C.B h < &XI.P.P.P.P.P.",
"P.P.P.P./.m.t m x.Z.Z.T.Z.Z.V.c x.Z.Z.Z.Z.l.t l.Q.T.A.Z.Z.Z.V.V.C h l.Z.Z.T.T.V.B n.Z.Z.Z.Z.Z C n.Z.A.Z.Z.x.v 5 j.9XI.P.P.P.P.P.",
"P.P.P.P.^.9Xm.5 c x.V.V.V.V.V x x.T.Z.Z.V.V z B V.Z.Z.Z.V.Z.V.V.z.x C Z.Z.Z.Z.l.B V.T.Z.V.x.m x x.A.A.Z.V.l.z m.tX9XP.P.P.P.P.P.",
"P.P.P.P.P./.eX Xm.m.l.C.F.E.].B.B j.x.V.V.' ).x v C x.x.B B B m | ].m.V.' Z C v S.B l.l.j.B B.G.j.Z C C m.m.].tXyX/.P.P.P.P.P.P.",
"P.P.P.P.P.Y.6X9XqX8X-X-X0XeXyXyX].B.B.G. X-XeX-X].| Z Z V m.).*XqXuX*XC.B.m.).*XeX8X].B.B. XwX0XqX-XOX X X*XyXeX4XP.P.P.P.P.P.P.",
"P.P.P.P.P.P.I.U.R.R.XXqX9X9XtXeXeXeXyXyXuXeX^.4XqX0XqX0XqXqX6X6XwXyXeXeXtXtXyXyXXX^.9X0XtXuXeXeX0X5X6X9X6X~.^.Y.I.P.P.P.P.P.P.P.",
"P.P.P.P.P.P.P.P.P.H.b.J.J.b.R.^.6XeXeX0X6X!.L.P.U.R.&X~.E.J.b.v.J./.6XeXwXwX9X/.b.b.H.U.~.&X^.Y.I.H.H.H.U.U.P.P.P.P.P.P.P.P.P.P.",
"P.P.P.P.P.P.P.P.P.P.L.b.b.H.L.I.n.v.n.v.0 N 9 0 v.H.P.b.b.v.v.b.H.b.I.Y.U.n.v.g.0 0 j.k.H.L.L.P.P.b.H.L.P.I.P.P.P.P.P.P.P.P.P.P.",
"P.P.P.P.P.P.P.P.P.P.P.P.I.I.I.P.P.P.P.P.P.P.P.P.P.P.P.P.P.P.P.P.P.P.P.P.P.P.P.P.P.P.P.P.P.P.P.P.P.P.P.P.P.P.P.P.P.P.P.P.P.P.P.P.",
"P.P.P.P.P.P.P.P.P.P.P.P.I.I.P.P.P.P.P.P.P.P.P.P.P.P.P.P.P.P.P.P.P.P.P.P.P.P.P.P.P.P.P.P.P.P.P.P.P.P.P.P.P.P.P.P.P.P.P.P.P.P.P.P.",
"P.P.P.P.P.P.P.P.P.P.P.P.P.P.P.P.P.P.P.P.P.P.P.P.P.P.P.P.P.P.P.P.P.P.P.P.P.P.P.P.P.P.P.P.P.P.P.P.P.P.P.P.P.P.P.P.P.P.P.P.P.P.P.P.",
"P.P.P.P.P.P.P.P.P.P.P.P.P.P.P.P.P.P.P.P.P.P.P.P.P.P.P.P.P.P.P.P.P.P.P.P.P.P.P.P.P.P.P.P.P.P.P.P.P.P.P.P.P.P.P.P.P.P.P.P.P.P.P.P."
};
