/* XPM */
static char *out[] = {
/* columns rows colors chars-per-pixel */
"64 64 224 2 ",
"   c #161C2E",
".  c #1D2435",
"X  c #242D2F",
"o  c #212537",
"O  c #24283B",
"+  c #282D3D",
"@  c #28353A",
"#  c #323836",
"$  c #485737",
"%  c #586939",
"&  c #2C2E41",
"*  c #2B3846",
"=  c #353549",
"-  c #383C48",
";  c #3A3E52",
":  c #423F41",
">  c #2D414B",
",  c #34474B",
"<  c #3D5548",
"1  c #384952",
"2  c #3A455A",
"3  c #2C545B",
"4  c #3E5157",
"5  c #3E545C",
"6  c #3C5C5A",
"7  c #3B635C",
"8  c #3B5D63",
"9  c #396968",
"0  c #387277",
"q  c #4C4F45",
"w  c #4C4D4D",
"e  c #434055",
"r  c #44465B",
"t  c #4B5451",
"y  c #42595B",
"u  c #5E5D57",
"i  c #655A4E",
"p  c #4C674A",
"a  c #56744D",
"s  c #47675A",
"d  c #556659",
"f  c #57795B",
"g  c #696757",
"h  c #717357",
"j  c #4A4D63",
"k  c #465864",
"l  c #535B62",
"z  c #50576D",
"x  c #525D73",
"c  c #456765",
"v  c #4B6465",
"b  c #4C6B6C",
"n  c #546B6B",
"m  c #48776A",
"M  c #537667",
"N  c #4F6F71",
"B  c #566579",
"V  c #467876",
"C  c #547574",
"Z  c #587A76",
"A  c #567B7B",
"S  c #5A7D7D",
"D  c #6A7071",
"F  c #747C7C",
"G  c #8C795E",
"H  c #857465",
"J  c #827E6C",
"K  c #6E853F",
"L  c #73853F",
"P  c #5C835B",
"I  c #6B8242",
"U  c #638149",
"Y  c #738442",
"T  c #7A8542",
"R  c #658859",
"E  c #648A5B",
"W  c #778F5A",
"Q  c #6D945C",
"!  c #6D985C",
"~  c #759859",
"^  c #739C5C",
"/  c #77A25D",
"(  c #7BA45D",
")  c #7EA95D",
"_  c #598666",
"`  c #5D9264",
"'  c #4B8379",
"]  c #568C75",
"[  c #59857A",
"{  c #758267",
"}  c #748168",
"|  c #669764",
" . c #6B9C62",
".. c #709F63",
"X. c #698673",
"o. c #659875",
"O. c #76A465",
"+. c #73A572",
"@. c #9BB94F",
"#. c #87A55B",
"$. c #83AC5D",
"%. c #8BAD5C",
"&. c #93AB5A",
"*. c #8EB256",
"=. c #87B059",
"-. c #8BB159",
";. c #94B553",
":. c #9BB654",
">. c #9BB850",
",. c #94B25A",
"<. c #9BB35A",
"1. c #A2B655",
"2. c #A9B757",
"3. c #A4B952",
"4. c #AAB954",
"5. c #A3B559",
"6. c #AAB759",
"7. c #AEB858",
"8. c #B1B857",
"9. c #938C6C",
"0. c #AF9872",
"q. c #8DB26C",
"w. c #9DBA6B",
"e. c #8EA175",
"r. c #94A274",
"t. c #99A875",
"y. c #A7BD68",
"u. c #A4BC6D",
"i. c #A5B774",
"p. c #C8A876",
"a. c #C7AD7D",
"s. c #CEB17E",
"d. c #B9C677",
"f. c #3D7D80",
"g. c #5E6F86",
"h. c #4B7A83",
"j. c #6D7A8B",
"k. c #3E888B",
"l. c #4A848A",
"z. c #5B8484",
"x. c #578985",
"c. c #5E8B8B",
"v. c #5A928B",
"b. c #488E99",
"n. c #45979A",
"m. c #579796",
"M. c #688B88",
"N. c #788689",
"B. c #6C938E",
"V. c #629494",
"C. c #679896",
"Z. c #669C9C",
"A. c #6A9D9D",
"S. c #789B96",
"D. c #44A09F",
"F. c #6BA29C",
"G. c #78A597",
"H. c #489BA2",
"J. c #5A9BA5",
"K. c #6D9EA2",
"L. c #45A4A4",
"P. c #47ABA9",
"I. c #4AAAA9",
"U. c #56A9AA",
"Y. c #5AB4B0",
"T. c #6BA2A2",
"R. c #68A8AC",
"E. c #71A5A4",
"W. c #73AAAB",
"Q. c #76ABAB",
"!. c #77B0AE",
"~. c #68B4B2",
"^. c #7DB4B4",
"/. c #78B9B7",
"(. c #7BC5BC",
"). c #8D9190",
"_. c #8C9695",
"`. c #839D98",
"'. c #A69F81",
"]. c #84A59B",
"[. c #B8AF8B",
"{. c #A5B482",
"}. c #BEB58F",
"|. c #A6A898",
" X c #959EA0",
".X c #9BA5A5",
"XX c #91B5A9",
"oX c #82B7B7",
"OX c #86BDBC",
"+X c #A8B1B2",
"@X c #C6BB86",
"#X c #D3B885",
"$X c #B3C990",
"%X c #87C3BC",
"&X c #9AC4B7",
"*X c #A6CCBC",
"=X c #BCCAB0",
"-X c #C1C684",
";X c #CAC096",
":X c #DBC490",
">X c #E2CE99",
",X c #E5D29D",
"<X c #CDC7A2",
"1X c #E8D8A3",
"2X c #EFE1AB",
"3X c #F1E6B9",
"4X c #AEB7C2",
"5X c #8BC6C3",
"6X c #9CCCC4",
"7X c #99D4C7",
"8X c #B8C1C3",
"9X c #ACD7C9",
"0X c #A8D8CB",
"qX c #B4DECC",
"wX c #B8E1CE",
"eX c #B9E6D4",
"rX c #BBE9D6",
"tX c #C6C8CC",
"yX c #C1EBD6",
"uX c #C2EDD9",
"iX c #C7F1DC",
"pX c #F6EECF",
"aX c #E4E7EA",
"sX c white",
/* pixels */
"P.P.P.P.P.P.P.P.P.P.P.P.P.P.P.P.P.P.P.P.P.P.P.P.P.I.P.P.L.P.P.P.P.P.P.P.P.P.P.P.P.P.P.P.P.P.P.P.P.P.P.P.P.P.P.P.P.P.P.P.P.P.P.P.",
"P.P.P.P.P.P.P.P.P.P.P.P.P.P.P.P.P.P.P.P.I.b.h.f.h.b.b.h.h.J.I.I.P.P.P.P.P.P.P.P.P.P.P.P.P.P.P.P.P.P.P.P.P.P.P.P.P.P.P.P.P.P.P.P.",
"P.P.P.P.P.P.P.P.P.P.P.P.P.P.P.P.P.P.P.P.k & : z g.g.g.g.g.z g.R.P.P.P.P.P.P.P.P.P.P.P.P.P.P.P.P.P.P.P.P.P.P.P.P.P.P.P.P.P.P.P.P.",
"P.P.P.P.P.P.P.P.P.P.P.P.P.P.P.P.P.P.P.~.O : j z j g.g.z g.g.g.e P.P.P.P.P.P.P.P.P.P.P.P.P.P.P.P.P.P.P.P.P.P.P.P.P.P.P.P.P.P.P.P.",
"P.P.P.P.P.P.P.P.P.P.I.I.P.P.P.P.P.P.P.5 = : g.g.g.g.g.g.r z g.r W.P.P.P.P.P.P.P.P.P.P.L.P.P.P.P.P.P.P.P.P.P.P.P.P.P.P.P.P.P.P.P.",
"P.P.P.P.P.n.9 m 9 h.V c.m V v.v._ M c   e z g.j e : r g.g.e g.z `.o.v.m.c.V c M R s f ` ' ' ] v.l._ m V ' 9 9 0 D.P.P.P.P.P.P.P.",
"P.P.P.P.k.3 $ $.Q / E ..Q ) =./ ( ( X.  e e e =     ; g.g.j g.= _.) =.-.^ Q #.$.*.$.( *.$.^ O.O.) ) R ~ p ( ~ U 7 k.P.P.P.P.P.P.",
"P.P.P.P.9 ! R *.%.5.5.6.:.$.;.>.5.,.,.  e e e = O     j g.z :   w.@.:.<.-.,.;.*.@.;.@.4.7.<.:.<.1.;.$.%.Q $.$.^ P _ n.P.P.P.P.P.",
"P.P.P.P.9 a #.6.6.3.3.;.,.*.>.4.4.7.y.  & : e e &     : g.j & : f d.4.4.3.:.=.*.*.,.*.;.>.3.@.>.,.*.*.<.1.<.) / P m n.P.P.P.P.P.",
"P.P.P.P.0 ~ ( ,.>.;.;.@.@.;.;.;.:.w     o r e = : [.: & e : : p.0.p.y.&.@.@.;.;.>.3.;.@.@.>.;.@.@.;.;.;.6.,.$.) E V P.P.P.P.P.P.",
"P.P.P.P.V p #.5.7.,.:.;.;.-.*.*.).o e e o e e   G p.p.H D H 0.#X1X#X@X-.;.@.@.;.*.;.>.>.4.5.:.$X=X$X*.;.*. .^ ^ P m L.P.P.P.P.P.",
"P.P.P.P.6 ! $.5.7.3.3.2.3.3.<.i.  ; e e & : &   = H >X:X:X:X>X2X#X:Xp.:.@.@.@.;.;.;.;.;.;.$X8X4X Xi.<.<.,.,.O./ / m n.P.P.P.P.P.",
"P.P.P.P.` +.$.$.%.3.3.;.,.-.:.r.& e e e = : O [.i     : J 2X2X2X2X2X#X-X3.@.@.@.;.2.:.*.$X+X.X.XF {.=.:.:.4.2.) ..' l.P.P.P.P.P.",
"P.P.P.P.] G.+.|  .$.;.>.@.@.;.e.. e e e e =   1Xp.p.p.2X2X2X2Xu '.2X>Xs.@.@.@.@.;.>.;.w.8X8X.X.XF {.;.;.;.>.,.+.' ' A P.P.P.P.P.",
"P.P.P.P.[  .| O.-.;.;.:.>.;.*.w.. : e e e O J :Xp.p.p.2X2X2X2X    2X2X9.r.;.=.=.*.*.;.=X8X8X+X_.F {.@.-.*.*.,.+.| v.b P.P.P.P.P.",
"P.P.P.P.x...O.) ,.2.1.6.5.;.;.*.l . e e &   H #Xp.p.#X2X2X2X2XJ   [.2X  r.;.*.*.;.>.d.8X8X8X+X_.F {.;.*.>.3.5.$. .c 8 P.P.P.P.P.",
"P.P.P.P.A / ) *.:.>.3.;.:.;.@.@.3.t.  O     ;Xp.p.p.#X3X2X2X2XJ   u u   i.-.-.*.*.;.8X X+X4X.XN.* y.;.@.@.4.1.#.! f 9 P.P.P.P.P.",
"P.P.P.P.f ) -.:.:.;.*.>.:.;.;.>.g t @.u.}   :Xp.#X:X1X                w w i.@.:.1.=X+X_..X X_.l r.>.;.;.:.:.5.Q f R 6 P.P.P.P.P.",
"P.P.P.P.y O.%.&.,.:.=.-.;.;.y.  _.  i.@.e.F :Xp.p.#X2X#XJ           : 2Xh e.*.;.w.4X_._.+X_._.t -.*.@.@.;.;.&.W Q / f P.P.P.P.P.",
"P.P.P.P.a #.f ..<.>.@.;.;.;.}   _.tX1 D d 9.p.p.p.p.p.#X>X2X}.'.  - 1Xs.H { @.@.e.l _..X.X_.1 t.@.;.;.;.,.#.~ ~ f s 4 P.P.P.P.P.",
"P.P.P.P.y P f Q $.;.>.*.;.*.} 2Xw D sXtX- w i 9.p.p.p.p.p.p.#X2X  F s.p.p.{ @.u.  _._.n _.F   w.;.*.-.;.*.-.>.6.~ R 8 P.P.P.P.P.",
"P.P.P.P.< f Q ! <.:.2.1.1.,.{ |.).0.N.tXsXsX).).      q p.p.p.2X  9.#Xp.p.} >.r.t _.F )._.* g 5.1.;.*.3.3.2.<.&.E M 8 P.P.P.P.P.",
"P.P.P.P.1 m _ ( 5.8.3.*.,.*.{ |.g.j.|.2X3XpXsXsXsXsXsXw p.p.p.2X  J #Xp.: l =.  N._.D ).D   @.>.*.*.;.3.3.7.5.~ 4 h.C P.P.P.P.P.",
"P.P.P.P.c _  ./ *.<.:.@.;.*.} _.g.g.g.g.2X2X2X2XpXaXj.w p.p.p.2Xu ;Xa.# * . w 2 ).l N._.* i.>.;.@.;.*.;.;.<.;.~ R p , P.P.P.P.P.",
"P.P.P.P.6 / !  .;.6.3.3.4.3.u g.g.g.g.|.2X2X2X2XpX4X2   = G p.,X2X2X= 2   *   B v - _.F t :.@.1.3.2.;.*.,.=.#.^ #.p * P.P.P.P.P.",
"P.P.P.P.6 ` / ) ,.2.4.2.5.<.u g.g.g.g.|.1X1X2X2X3X4X2 = O   # g i $ ; g.  z 2   o - n : e.;.@.4.2.5.5.5.$. ...P a q > P.P.P.P.P.",
"P.P.P.P.' ` O.../ %.;.;.,.*.u <X|.j.g.|.s.1X2X2X3XN.j 2 g.g.2 = = 2 g.o o o 2 j = + &   e.e.u.@.;.*.-.:.( ^  . .! Q , P.P.P.P.P.",
"P.P.P.P.m 9 ` ^ | | ( *.*.:.} 2X2X1X).g.>Xp.#X2X2X|.g.. ; j g.g.g.j & = & # g   & e &   ; z   @.@.>.3.>.*.*.$.$.+.v.N P.P.P.P.P.",
"P.P.P.P.A m ` ..) $.*.3.:.;.} 3X2X,Xp.:X).|.<X2X2XF g.O ; : e e e e e : & G : p.# o = = k g.  3.3.:.2.,.;.:.5.^ E C b P.P.P.P.P.",
"P.P.P.P.b P $.,.<.:.3.:.:.;.} @X2X1Xs.#Xg.g.g.B g = x = r r e e e e e ;     i p.i } t . ; O r.:.:.:.;.;.3.2.,.Q P s > P.P.P.P.P.",
"P.P.P.P.M P $.7.2.,.*.2.<.*.w.w 2X2X#X1Xg.g.g.g.F 2 2 = e e e e e e =   = :     t.1.2.y.r.u.*.>.2.,.*.;.>.3.2.,./ E 1 P.P.P.P.P.",
"P.P.P.P.R Q ) <.:.>.*.;.3.@.;.f [.2X#X<Xg.g.g.g.9.2 2 & & & & & &       O : o r.>.>.;.:.;.;.;.;.;.>.@.@.*.:.7.,.) ! a P.P.P.P.P.",
"P.P.P.P.s s / O.$.*.-.-.*.;.@.>.t '.1X'.g.g.g.|.t 1 X # # @ # # & q #   X q e.;.*.*.=.;.:.,.-.$.*.*.@.@.@.3.8.<.^ ! s P.P.P.P.P.",
"P.P.P.P.P ~ ^ $.;.:.;.;.;.;.;.-.*.y [.J g.g.<Xw   # L Y K K K I I I $   $ K @.@.;.@.@.>.3.3.>.;.@.*.;.;.*.%.<.%.O.f 6 P.P.P.P.P.",
"P.P.P.P.s $.$.,.5.1.@.;.;.*.;.;.*.t.  & N.).q   $ Y Y Y K K I I I I I U U I @.@.@.@.3.3.6.,.3.:.;.*.=.;.;.;.<.<.$.E y P.P.P.P.P.",
"P.P.P.P.s P Q $.,.:.1.;.:.*.>.3.4.:.r.O J   # % I K K K K K I I I T Y Y Y ;.*.*.,.:.;.>.>.>.@.>.:.;.;.3.3.2.,.$.| M b P.P.P.P.P.",
"P.P.P.P.Z  . .&.2.;.<.>.;.;.;.*.,.*.;.d.r.u.&.K K Y Y I I K K I I I I ( ;.@.@.@.;.>.>.>.3.:.;.>.@.;.*.;.<.-.) ) o.X.c P.P.P.P.P.",
"P.P.P.P.x.Q $.6.7.,.>.;.;.;.*.-.,.;.;.;.@.*.=.@.,.5.&.I Y I K I %.%.<.*.;.@.@.;.*.;.>.:.4.:.:.;.@.;.*.*.%.` ` | ` _ 5 P.P.P.P.P.",
"P.P.P.P.m R #.7.1.@.3.4.4.1.,.,.:.@.@.@.@.@.;.;.;.:.:.:.@.3.3.4.,.-.,.;.@.@.@.@.;.;.>.;.>.>.@.3.3.4.3.,.%.$.$.O.^ ` y P.P.P.P.P.",
"P.P.P.P.y / $.%.<.3.3.1.5.,.5.6.2.4.@.@.@.*.;.1.*.=.*.@.3.2.1.<.5.7.4.4.3.3.@.;.,.:.,.=.*.;.3.4.:.<.,.6.:.2.5.%.Q s > P.P.P.P.P.",
"P.P.P.P.> f E %.6.8.@.@.;.;.;.>.@.@.>.@.@.>.>.1.;.;.@.>.@.@.;.;.,.>.;.@.@.@.@.>.>.3.>.;.>.>.>.@.>.>.;.;.:.2.;.) ^ f * P.P.P.P.P.",
"P.P.P.P.< a Q #.1.<.1.1.>.;.-.;.:.,.,.;.;.<.:.;.;.=.*.:.3.>.2.:.;.-.;.:.;.;.;.*.;.;.>.$.,.1.;.3.4.4.1.=.;.$.%.( U , . P.P.P.P.P.",
"P.P.P.P.1 @ U ) ( ( #.^ $.( $.%.%.$.O.) $.$.1.1.;.) ) *.q.R Q #...*.*.<.1.5.<.;.:.8.&.( ,.:.=.,.<.#./ a P a O.U @ m * P.P.P.P.P.",
"P.P.P.P.* < R U p o.] f ( f  .| ! R $.Q Q ~ $.$.../ ) =.) E s s f Q P _ W #.^ %.$.^ ! f ! ) ..$...E < , 6 < a p 9 V.1 P.P.P.P.P.",
"P.P.P.P.> K.C c Z.^.^.z._ c m ' M c M s s E E _ ] O.G.G.B.Z V.V.c m ' m 7 s R P Q M _ c o. .] B.F.] Z.F.F.v.m m M.V * P.P.P.P.P.",
"P.P.P.P.> B.E.^.OXOX^.R.A.T.[ A F.Q./.T.c.6 6 V.F.E.E.!.OXOX5Xc.> C.!.!.m.F.S.h.1 C.!.E.oXT.Z.W.5X%X5X5X5XQ.!.OXA.> . P.P.P.P.P.",
"P.P.P.P.* y A A.T.T.T.^.5X^.c Z %XOX^.W.A.C 1 A.^.W.T.^.^.^.T.c.4 A E.T.!./.!.z.b Z.T.E.W.W.A.* g.!.^.!.T.W.!.T.v . 3 P.P.P.P.P.",
"P.P.P.P.9 v C C.Z.Z.Z.Z.T.M.5 y V.Z.Z.Z.Z.z.v M.T.Z.Z.Z.F.Z.Z.Z.N A Z.Z.F.C.F.V.N Z.Z.Z.Z.K.M.y x.Z.Z.Z.Z.Z.m.A 4 & k.P.P.P.P.P.",
"P.P.P.P.~.@ y h.C.A.Z.Z.Z.Z.k 1 h.A.A.Z.Z.[ y C.Z.Z.Z.Z.Z.Z.Z.c.* z A.K.E.Z.Z.c.5 V.Z.Z.Z.Z.A 1 c.Z.Z.Z.T.E.E.M.y k U.P.P.P.P.P.",
"P.P.P.P.%X@ C B.S.C.T.Z.Z.c.v * V.Z.A.Z.V.v * V.Z.Z.Z.Z.V.V.c.A c y Q.^.W.T.Z.V.5 V.Z.Z.Z.Z.C > z.v.V.Z.T.^.Q.[ 4 Z Y.P.P.P.P.P.",
"P.P.P.P.&X> z.oXOXoXW.T.Z.Z.z.1 c.Z.F.R.!.K.r A Z.Z.Z.F.V.Z.Z.Z.z.* m.A.Z.Z.Z.C.k C.Z.T.Z.Z.A b T.Z.Z.Z.Z.Z.V.n 1 B.Y.I.P.P.P.P.",
"P.P.P.P.6X4 n x.E.T.Z.Z.Z.F.V.v A Z.T.W.Q.C.4 M.V.Z.T.Z.Z.Z.Z.A.x.1 c.Z.Z.Z.Z.Z.V F.Z.Z.Z.Z.h.z.Z.Z.Z.Z.Z.A.z.n * S.I.I.P.P.P.P.",
"P.P.P.P.7X4 n A Z.Z.Z.Z.Z.Z.m.C z.Z.Z.Z.Z.M.4 Q.oX^.Q.T.Z.Z.Z.Z.[ 4 c.Z.Z.Z.Z.Z.z.Z.Z.Z.Z.Z.z.c.Z.Z.Z.Z.Z.Z.C y > OXP.P.P.P.P.P.",
"P.P.P.P.5XM.y n c.Z.Z.Z.Z.Z.V.n c.Z.Z.Z.Z.c.4 M.Q.T.A.Z.Z.Z.V.V.A k z.Z.Z.T.E.V.C V.Z.Z.Z.Z.A A V.Z.Z.Z.Z.c.N 4 F 0XI.P.P.P.P.P.",
"P.P.P.P.Y.0XM.4 b c.V.Z.Z.M.C v c.F.A.A.V.C s n V.Z.Z.Z.Z.C.m.V.c.c A Z.Z.Z.Z.z.C V.T.Z.V.M.b c c.Z.Z.Z.V.S v M.rX7XP.P.P.P.P.P.",
"P.P.P.P.P.(.rXXXM.M.z.V.F.F.].S.C z.c.V.V.h.S.n N S c.c.C C C n S ].M.V.[ S A n S.Z z.z.S C B.].M.S A A c.M.].uXrX(.P.P.P.P.P.P.",
"P.P.P.P.P.Y.7XqXwX9X&X6XwXyXuXuX].M.B.G.XX*XyX*X].M.S X.Z M.].XXwXiX&XB.B.M.].XXyX*XXXB.B.XXwXqXwX6XXXXX&X6XrXrX5XP.P.P.P.P.P.P.",
"P.P.P.P.P.I.L.U.R.W.OXeX9X0XyXrXrXyXuXuXiXyX/.%XqXqXqXqXqXqX0X0XeXuXeXrXyXyXiXiXOX^.0X9XyXiXuXrXqX6X0XqX6X^./.~.P.P.P.P.P.P.P.P.",
"P.P.P.P.P.P.P.P.P.D.b.J.J.H.R./.7XeXrXqX7X~.D.I.J.R.%X/.E.J.n.n.U.%X7XrXeXeX0X%Xn.H.n.U.oX%X/.Y.U.H.H.H.J.I.P.P.P.P.P.P.P.P.P.P.",
"P.P.P.P.P.P.P.P.P.P.L.b.b.n.P.P.U.l.m.l.0 V 9 V n.n.L.n.b.b.l.n.n.n.U.Y.U.m.k.f.0 0 h.k.n.P.L.P.P.n.n.L.P.P.P.P.P.P.P.P.P.P.P.P.",
"P.P.P.P.P.P.P.P.P.P.P.P.I.P.P.P.P.P.P.P.P.P.P.P.P.P.P.P.P.P.P.P.P.P.P.P.P.P.P.P.P.P.P.P.P.P.P.P.P.P.P.P.P.P.P.P.P.P.P.P.P.P.P.P.",
"P.P.P.P.P.P.P.P.P.P.P.P.I.P.P.P.P.P.P.P.P.P.P.P.P.P.P.P.P.P.P.P.P.P.P.P.P.P.P.P.P.P.P.P.P.P.P.P.P.P.P.P.P.P.P.P.P.P.P.P.P.P.P.P.",
"P.P.P.P.P.P.P.P.P.P.P.P.P.P.P.P.P.P.P.P.P.P.P.P.P.P.P.P.P.P.P.P.P.P.P.P.P.P.P.P.P.P.P.P.P.P.P.P.P.P.P.P.P.P.P.P.P.P.P.P.P.P.P.P.",
"P.P.P.P.P.P.P.P.P.P.P.P.P.P.P.P.P.P.P.P.P.P.P.P.P.P.P.P.P.P.P.P.P.P.P.P.P.P.P.P.P.P.P.P.P.P.P.P.P.P.P.P.P.P.P.P.P.P.P.P.P.P.P.P."
};
