/* XPM */
static char *out[] = {
/* columns rows colors chars-per-pixel */
"64 64 225 2 ",
"   c #161C2E",
".  c #1C2234",
"X  c #232738",
"o  c #24283B",
"O  c #2F3237",
"+  c #27333B",
"@  c #3D4D35",
"#  c #424E34",
"$  c #526438",
"%  c #2C2E41",
"&  c #2B3846",
"*  c #343549",
"=  c #393A4A",
"-  c #423F40",
";  c #2D414B",
":  c #35474B",
">  c #3D5548",
",  c #394953",
"<  c #3A455A",
"1  c #2C545B",
"2  c #3E5157",
"3  c #3C585A",
"4  c #3B635C",
"5  c #396968",
"6  c #387277",
"7  c #4F4E47",
"8  c #4B4C4C",
"9  c #434055",
"0  c #46485C",
"q  c #4B5451",
"w  c #43595B",
"e  c #595153",
"r  c #5E5D57",
"t  c #655A4E",
"y  c #4C674A",
"u  c #56744D",
"i  c #47675A",
"p  c #506C55",
"a  c #57795B",
"s  c #6F6252",
"d  c #676D5D",
"f  c #6A7A52",
"g  c #4A4E64",
"h  c #465964",
"j  c #535B62",
"k  c #50576D",
"l  c #4C5A70",
"z  c #545E74",
"x  c #456666",
"c  c #4B6465",
"v  c #4C6B6C",
"b  c #55696A",
"n  c #48776A",
"m  c #537667",
"M  c #4F6F71",
"N  c #566579",
"B  c #467876",
"V  c #547574",
"C  c #587A76",
"Z  c #567B7B",
"A  c #5A7D7D",
"S  c #656D72",
"D  c #697679",
"F  c #727A7A",
"G  c #8C795E",
"H  c #857465",
"J  c #827E6C",
"K  c #6E853F",
"L  c #72853F",
"P  c #5C835B",
"I  c #6C8243",
"U  c #63814A",
"Y  c #768543",
"T  c #678A57",
"R  c #61865C",
"E  c #648A5B",
"W  c #778F54",
"Q  c #6D945C",
"!  c #6D985C",
"~  c #759859",
"^  c #739C5C",
"/  c #77A25D",
"(  c #7BA45D",
")  c #7EA95D",
"_  c #598666",
"`  c #5D9264",
"'  c #4B8379",
"]  c #568C75",
"[  c #59857A",
"{  c #669764",
"}  c #6B9C62",
"|  c #709F63",
" . c #6E8370",
".. c #659875",
"X. c #76A465",
"o. c #73A572",
"O. c #88A04F",
"+. c #99B74F",
"@. c #9BB94E",
"#. c #86A45B",
"$. c #83AC5D",
"%. c #8BAE5C",
"&. c #92AB5B",
"*. c #8EB256",
"=. c #87B059",
"-. c #8BB159",
";. c #94B553",
":. c #9BB654",
">. c #9CB850",
",. c #94B25A",
"<. c #9BB359",
"1. c #9CB859",
"2. c #A1B552",
"3. c #A2B655",
"4. c #A9B757",
"5. c #A4B852",
"6. c #AAB954",
"7. c #A3B559",
"8. c #AAB759",
"9. c #ACB858",
"0. c #B1B857",
"q. c #9A8869",
"w. c #8E8F76",
"e. c #A7916E",
"r. c #84AD62",
"t. c #9BB868",
"y. c #8DA275",
"u. c #92A373",
"i. c #9CB575",
"p. c #A5BB6A",
"a. c #A3B774",
"s. c #C8A876",
"d. c #CEB17E",
"f. c #AAC377",
"g. c #3D7D80",
"h. c #5E6F86",
"j. c #587C80",
"k. c #6E7B8A",
"l. c #3E888B",
"z. c #5B8484",
"x. c #578985",
"c. c #5E8B8B",
"v. c #5A928B",
"b. c #488990",
"n. c #449396",
"m. c #48949B",
"M. c #459C9D",
"N. c #599896",
"B. c #688B88",
"V. c #778587",
"C. c #65978A",
"Z. c #73938C",
"A. c #629494",
"S. c #679896",
"D. c #669C9C",
"F. c #6A9D9D",
"G. c #789B96",
"H. c #6BA29C",
"J. c #78A597",
"K. c #489BA2",
"L. c #5A9BA5",
"P. c #659EA4",
"I. c #729FA1",
"U. c #45A4A4",
"Y. c #47ABA9",
"T. c #4AAAA9",
"R. c #57AAAA",
"E. c #58B2AF",
"W. c #5DB5B1",
"Q. c #6BA2A2",
"!. c #68A8AC",
"~. c #71A5A4",
"^. c #73AAAB",
"/. c #76ABAB",
"(. c #77B0AE",
"). c #68B4B2",
"_. c #7DB4B4",
"`. c #78B9B7",
"'. c #7BC5BC",
"]. c #8A9193",
"[. c #8D9694",
"{. c #A69F81",
"}. c #8BB687",
"|. c #84A59B",
" X c #B7AE8B",
".X c #A6A898",
"XX c #BEBB9E",
"oX c #9AA4A4",
"OX c #91B5A9",
"+X c #82B7B7",
"@X c #86BDBC",
"#X c #A3ABAB",
"$X c #ADB3B6",
"%X c #C6BA8D",
"&X c #D1B683",
"*X c #D5BB87",
"=X c #B7C88C",
"-X c #87C3BC",
";X c #9AC4B7",
":X c #A6CCBC",
">X c #BCC9B2",
",X c #DBC490",
"<X c #D4C498",
"1X c #E2CE99",
"2X c #E5D29D",
"3X c #CFC8A6",
"4X c #E8D7A2",
"5X c #EFE1AB",
"6X c #8BC6C3",
"7X c #9CCCC4",
"8X c #99D4C7",
"9X c #B8C1C3",
"0X c #ACD7C9",
"qX c #A8D8CB",
"wX c #B4DECC",
"eX c #B8E1CE",
"rX c #B9E6D4",
"tX c #BBE9D6",
"yX c #CCCFD3",
"uX c #C1EBD6",
"iX c #C2EDD9",
"pX c #C7F1DC",
"aX c #F6EDCE",
"sX c #EFEEE7",
"dX c white",
/* pixels */
"Y.Y.Y.Y.Y.Y.Y.Y.Y.Y.Y.Y.Y.Y.Y.Y.Y.Y.Y.Y.Y.Y.Y.Y.Y.Y.Y.Y.Y.Y.Y.Y.Y.Y.Y.Y.Y.Y.Y.Y.Y.Y.Y.Y.Y.Y.Y.Y.Y.Y.Y.Y.Y.Y.Y.Y.Y.Y.Y.Y.Y.Y.Y.Y.",
"Y.Y.Y.Y.Y.Y.Y.Y.Y.Y.Y.Y.Y.Y.Y.Y.Y.Y.Y.Y.Y.Y.Y.E.E.E.E.R.Y.T.Y.Y.Y.Y.Y.Y.Y.Y.Y.Y.Y.Y.Y.Y.Y.Y.Y.Y.Y.Y.Y.Y.Y.Y.Y.Y.Y.Y.Y.Y.Y.Y.Y.Y.",
"Y.Y.Y.Y.Y.Y.Y.Y.Y.Y.Y.Y.Y.Y.Y.Y.Y.Y.Y.Y.Y.).    k k g 9 9 W.Y.Y.Y.Y.Y.Y.Y.Y.Y.Y.Y.Y.Y.Y.Y.Y.Y.Y.Y.Y.Y.Y.Y.Y.Y.Y.Y.Y.Y.Y.Y.Y.Y.Y.",
"Y.Y.Y.Y.Y.Y.Y.Y.Y.Y.Y.Y.Y.Y.Y.Y.Y.Y.Y.Y.W.  % 0 N h.h.h.z g ).Y.Y.Y.Y.Y.Y.Y.Y.Y.Y.Y.Y.Y.Y.Y.Y.Y.Y.Y.Y.Y.Y.Y.Y.Y.Y.Y.Y.Y.Y.Y.Y.Y.",
"Y.Y.Y.Y.Y.Y.Y.Y.Y.Y.T.T.Y.Y.Y.Y.Y.Y.Y.Y.z * 9 g z h.h.k N h.g ^.Y.Y.Y.Y.Y.Y.Y.Y.Y.Y.Y.Y.Y.Y.Y.Y.Y.Y.Y.Y.Y.Y.Y.Y.Y.Y.Y.Y.Y.Y.Y.Y.",
"Y.Y.Y.Y.Y.n.5 n 5 j.B c.n B v.v._ m x a . 9 9 h.h.h.h.z g z h.9 C.C.v.v.x.M x m E i a ` ' ' x.v.' _ n B l.5 5 5 Y.Y.Y.Y.Y.Y.Y.Y.",
"Y.Y.Y.Y.l.1 @ ) Q } T | } ) =./ $.~ | y.o 9 k h.h.h.h.h.z g h.k }.=.$.-.| ! $.$.*.) ( *.#.! X.) X.$.T ~ y ( ~ U 4 M.Y.Y.Y.Y.Y.Y.",
"Y.Y.Y.Y.5 ~ Q -.,.<.7.4.<.=.;.>.:.,.<.y.% 9 9 = * = k h.h.g N k a.>.>.:.-.;.+.*.+.+.@.6.4.:.:.<.3.,.=.%.W $.) / T n l.Y.Y.Y.Y.Y.",
"Y.Y.Y.Y.5 u #.4.4.5.5.;.,.*.>.6.4.6.6.y.% 9 9 =     % z h.z k g a.6.6.6.6.:.=.*.*.,.*.;.@.@.@.:.,.*.-.:.7.<.$.^ P n n.Y.Y.Y.Y.Y.",
"Y.Y.Y.Y.6 W ) ,.>.;.>.@.;.;.>.;.,.i.d   o 9 9 9 =     g h.z 9 o a.;.;.*.+.@.;.+.;.5.;.@.@.@.:.@.@.;.;.;.3.,.r.$.E B Y.Y.Y.Y.Y.Y.",
"Y.Y.Y.Y.6 y #.7.9.,.3.;.;.*.*.*.i.. % * . = 9 9 % O o * k g * O d =X1.*.;.@.@.;.-.;.>.>.6.7.7.f.=X*.*.;.;.} } ^ P x U.Y.Y.Y.Y.Y.",
"Y.Y.Y.Y.4 ^ $.7.4.3.5.3.3.3.,.<.  * 9 9 * % 9 % - s.e.% 9 9 e s.*X&X%X:.@.@.@.;.;.;.;.;.:.f.>X9XF 5.<.<.<.%.( / / n M.Y.Y.Y.Y.Y.",
"Y.Y.Y.Y.{ o.X.$.%.3.5.;.;.-.:.1.  * 9 9 * % 9 % H &Xs.e.H q.&Xs.2X*Xs.@.@.5.@.+.:.3.1.*.>X9X#XoXb ;.*.3.>.6.3.r.} ' ' Y.Y.Y.Y.Y.",
"Y.Y.Y.Y.] J.o.} ! $.;.+.@.@.;.;.q * 9 9 * 9 9 O   e J q.q.&X<X5X1X1Xd.f.@.@.+.@.;.@.;.=X9X[.oX|.b @.+.;.;.1.,.o.' x.Z Y.Y.Y.Y.Y.",
"Y.Y.Y.Y.[ } { X.=.;.*.5.@.@.*.*.y.o 9 9 9 9 % {.s.q.s J 5X5X5X5X5X5X2X<X;.;.%.*.;.;.;.9X9XoX$X[.j +.+.=.*.-.-.X.{ v.v Y.Y.Y.Y.Y.",
"Y.Y.Y.Y.x.| X.) ,.4.7.4.3.;.;.*.:.  * 9 9 9   e.s.s.s.5X5X5X5XJ t 5X5Xs.@.;.*.*.;.;.=X9X9X9XoX[.b :.+.*.>.3.8.r.} x 5 Y.Y.Y.Y.Y.",
"Y.Y.Y.Y.C / ) *.:.2.@.;.:.+.@.@.5.a.  . X     1Xs.s.s.5X5X5X5X{.  4X5Xq.u.*.=.;.-.a.9XoX9X9X[.k.F @.+.@.:.5.7.( ! a 5 Y.Y.Y.Y.Y.",
"Y.Y.Y.Y.a ) ,.1.:.;.;.:.:.;.;.:.:.5.+.u.      *Xs.s.*X5X5X5X5X5X  w.5X= p.+.+.:.3.=X#X[.$X.X[., p.3.*.:.:.:.7.W P E 3 Y.Y.Y.Y.Y.",
"Y.Y.Y.Y.w ( %.&.,.:.=.=.*.;.+.@.@.u.@.;.&.  w.&Xs.s.*X5X5X5X5X5X  8 8   u.;.*.;.*.>X[.[.$X[.[.q *.*.+.@.:.;.&.W Q ( a Y.Y.Y.Y.Y.",
"Y.Y.Y.Y.a ( a ^ <.5.;.;.;.;.+.t.q 0 q p.@.  u.s.s.,X4Xr               r r u.@.@.i.oX[.oXoX[., u.;.;.;.+.;.#.~ ~ a w 2 Y.Y.Y.Y.Y.",
"Y.Y.Y.Y.q P a Q $.;.+.;.;.*.;.    yX].   .  2Xs.s.s.*X2X5X{.8       J 4Xs   @.@.  N [.#X[.F   ;.;.;.=.;.*.=.:.4.^ E 3 Y.Y.Y.Y.Y.",
"Y.Y.Y.Y.1 a ! ~ :.<.5.7.1.*.1.  J * dXyX=   e.s.s.d.s.s.*X4X5X4Xr 8 5Xd.q.  +.y.  [.F F [.= d 6.3.,.*.5.5.5.<.&.Q m 3 Y.Y.Y.Y.Y.",
"Y.Y.Y.Y., n a ) 7.0.5.;.;.*.>.  3Xw.  yXdX[.].  s s s s q.s.&X4Xr J ,Xs.s.  %.  w ].D [.k.  p.:.*.;.;.5.6.4.8.~ , j.Z Y.Y.Y.Y.Y.",
"Y.Y.Y.Y.5 _ } / %.<.:.+.;.*.;.  .Xk..X[.4XaXsXdXyX$X$XS s s.s.,Xr J ,Xs.e.  p.O [.].V.[.q  .:.;.+.;.*.;.:.,.,.~ R y : Y.Y.Y.Y.Y.",
"Y.Y.Y.Y.3 / ! } ,.4.5.5.6.5.-.  .Xh.h.h.[.5X5X5XaXaXsX< s s.s.,Xr J ,Xe..   q D [.j [.[.  >.@.5.5.5.;.*.,.%.$.^ ( y & Y.Y.Y.Y.Y.",
"Y.Y.Y.Y.4 ` / $.,.4.6.4.7.<.4.  .Xh.h.h.].5X5X5X5X5XyX< s s.s.,Xe.5X,XO   % .  .D % [.S  .;.@.6.3.7.7.3.$.} } P u > ; Y.Y.Y.Y.Y.",
"Y.Y.Y.Y.n ` / } / %.,.@.*.*.:.  .Xh.h.h.[.4X5X5X5X5XyX=   t G &X4X%X= <   l < & X = b . p.@.@.@.:.*.*.1.) ^ } } ! Q , Y.Y.Y.Y.Y.",
"Y.Y.Y.Y.n 6 ` | { { / *.-.;.;.  5X].h.h.[.s.4X4X5X5X#X< < *         l z     * k = .     q   p.@.@.:.5.:.*.*.$.) | C.M Y.Y.Y.Y.Y.",
"Y.Y.Y.Y.Z n ` | ) $.*.5.:.;.*.  5X5X3X].].s.s.4X5X5X[.9 < h.h.< < k h.o .   8   O 9 %   < l   @.6.:.5.,.:.1.3.~ E C v Y.Y.Y.Y.Y.",
"Y.Y.Y.Y.v P $.<.<.:.5.1.:.;.;.  5X5X,X&X%X]. X<X5X5Xk.< O 0 k z z g * = % s 7 H s . % * < N   5.:.:.+.:.5.6.,.Q P i ; Y.Y.Y.Y.Y.",
"Y.Y.Y.Y.a R $.9.4.-.*.3.1.-.*.u.J 5X5Xs.*Xh.h.h.l F r < % 9 9 9 9 9 9 9 X   7 s.q.q d   *   i.:.3.,.$.;.>.<.4.;./ P , Y.Y.Y.Y.Y.",
"Y.Y.Y.Y.E Q ( <.3.>.;.;.5.+.+.p.  5X5X,X*Xh.h.h.h.F & < % 9 9 9 9 9 9 =   9   s   p.;.p.u.a.;.;.:.+.@.@.;.:.9.,.) ^ p Y.Y.Y.Y.Y.",
"Y.Y.Y.Y.i i ! r.$.*.=.-.*.;.@.@.a.w.5X5X<Xh.h.h.h.XX& , O 9 9 9 9 * O . o 9 % y.t.*.=.;.<.,.*.$.*.*.+.@.@.@.0.<.| ~ i Y.Y.Y.Y.Y.",
"Y.Y.Y.Y.R ^ ^ $.;.:.;.;.;.*.;.*.*.u. X5XXXh.h.h.].J g                 7 f . q :.;.>.>.>.5.5.@.;.;.;.*.;.*.,.<.%.X.a 3 Y.Y.Y.Y.Y.",
"Y.Y.Y.Y.i $.$.-.7.3.>.;.+.*.*.;.*.=.   X{.h.h.V. X  X # @ @ @ @ # $ O   @ <.+.+.+.@.5.6.9.:.5.:.;.;.*.;.*.;.<.<.$.T h Y.Y.Y.Y.Y.",
"Y.Y.Y.Y.i a Q $.,.:.5.:.;.*.5.5.5.3.p.q 8 h.V.w.  . $ K L K K f f L L   # I -.;.;.:.;.@.@.;.@.:.:.;.*.5.5.9.&.$.} n v Y.Y.Y.Y.Y.",
"Y.Y.Y.Y.[ { } ,.4.;.1.+.;.*.;.*.;.=.;.@.7 D  X  O K L I f L L K I I I u I I 1.@.;.5.@.@.@.:.,.@.@.;.*.;.:.%.) ) | [ x Y.Y.Y.Y.Y.",
"Y.Y.Y.Y.[ ! r.4.9.,.:.;.;.;.*.*.,.;.+.@.f.    @ K L Y I L L L K I I I I I O.@.;.%.;.;.:.6.3.1.;.+.;.*.*.%.` ` { { _ 3 Y.Y.Y.Y.Y.",
"Y.Y.Y.Y.M E %.4.4.:.@.6.4.3.,.,.,.+.@.@.@.+.,.Y I I L K L Y Y L I U I W :.@.@.@.;.;.+.;.@.+.@.6.5.4.:.,.$.$.#.X.} R 3 Y.Y.Y.Y.Y.",
"Y.Y.Y.Y.w ^ $.&.1.@.6.5.7.,.7.9.6.6.5.5.@.*.,.:.t.%.#.L L Y L f &.8.8.6.5.5.@.;.;.<.;.=.*.:.@.5.:.7.<.9.1.9.3.-.! c & Y.Y.Y.Y.Y.",
"Y.Y.Y.Y.: a E %.0.0.@.+.;.;.;.>.+.2.>.@.@.;.@.5.;.;.@.@.@.@.;.;.*.+.+.@.@.@.@.@.@.5.>.;.:.@.@.@.:.>.;.;.3.5.;.) ^ a + Y.Y.Y.Y.Y.",
"Y.Y.Y.Y.> u ! ~ <.<.3.2.@.;.;.,.:.,.;.,.,.:.:.+.,.=.-.:.:.5.3.5.;.%.;.:.;.;.;.*.;.;.;.=.;.1.:.5.6.6.3.O.*.%.$.( T : o Y.Y.Y.Y.Y.",
"Y.Y.Y.Y.: + T $.( ) ( X.$.( $.r.%.$.$.r.$.$.7.3.;.) $.-.,.T Q $.^ -.%.<.7.7.<.;.:.9.&.) ,.7.r.<.,.#./ u U a X.U + n & Y.Y.Y.Y.Y.",
"Y.Y.Y.Y.& > T f y ..] a ( a } T ! R ( T ! ^ $.$.| | $.) X.T i x a Q P _ W #.^ &.$.^ ^ a } ) | =.X.E 4 : > > u y 4 A.: Y.Y.Y.Y.Y.",
"Y.Y.Y.Y.; I.V i S._.+Xz._ x n ' m x _ 5 i Q R _ ] X.}.J.Z.C A.N.x n ' n 4 i R a Q m _ x ..{ ] C.H.] H.H.Q.v.n n c.M & Y.Y.Y.Y.Y.",
"Y.Y.Y.Y.; B.~.`.@X@X_.~.F.Q.[ Z H.~._.H.c.3 w v.H.Q.Q.(.@X@X6Xc.; S.(.(.N.H.S.Z , S.(.~.+X~.D.^.6X-X6X6X@X/._.@XF.1 . Y.Y.Y.Y.Y.",
"Y.Y.Y.Y.& w A D.Q.H.Q._.6X(.x Z @X@X_.^.F.V , I.+X^.Q._._._.~.c.2 C ~.Q.(._.(.B.c D.Q.~.~.^.F.& j./.`./.Q.^.(.Q.h o 1 Y.Y.Y.Y.Y.",
"Y.Y.Y.Y.5 c V S.P.D.D.P.Q.B.2 w S.D.D.S.P.z.c c.Q.D.D.D.D.P.D.D.M Z D.D.H.D.H.N.M F.P.D.D.Q.B.w c.D.D.D.D.D.N.Z 2 + l.Y.Y.Y.Y.Y.",
"Y.Y.Y.Y.(.+ 2 A S.D.D.D.D.D.h , z.D.D.D.D.A w S.D.D.D.D.D.D.D.c.& l G.I.Q.D.D.c.3 A.D.P.D.D.Z , z.S.D.D.Q.~.~.B.w h R.Y.Y.Y.Y.Y.",
"Y.Y.Y.Y.-X& V A.F.A.Q.Q.S.c.c ; N.D.D.D.A.c & v.P.D.H.D.A.A.c.Z x 3 /.(.!.Q.Q.S.2 A.D.D.D.D.Z ; z.N.S.D.Q._./.j.2 Z E.Y.Y.Y.Y.Y.",
"Y.Y.Y.Y.;X; z._.-X+X^.F.D.S.z., c.D.D.^.(.I.2 Z S.D.D.D.N.S.S.F.z.; N.D.D.D.D.S.h S.D.D.D.D.Z v D.D.D.D.D.D.A.m : G.R.Y.Y.Y.Y.Y.",
"Y.Y.Y.Y.7Xw c B.~.F.P.D.D.H.v.c A S.Q.^./.S.0 B.A.F.H.P.H.D.D.P.z., c.D.H.D.D.D.V D.D.D.D.D.j.j.D.P.D.D.D.D.z.c & G.T.Y.Y.Y.Y.Y.",
"Y.Y.Y.Y.8X2 c [ D.D.D.D.D.D.S.M z.D.D.D.D.c.2 /.+X_./.F.D.D.P.S.j.3 c.D.D.D.D.S.z.H.D.D.D.D.z.c.P.D.D.D.D.S.M c ; -XY.Y.Y.Y.Y.Y.",
"Y.Y.Y.Y.6XB.w M A.D.D.P.D.D.A.M c.D.D.D.D.z.q B.^.~.P.D.D.P.S.v.Z w z.D.D.Q.Q.A.V A.D.D.D.D.Z Z A.D.D.D.D.c.M , D qXT.Y.Y.Y.Y.Y.",
"Y.Y.Y.Y.W.qXB.2 v c.A.A.S.A.Z c c.P.D.S.A.Z c V N.D.D.D.A.S.A.A.z.x Z D.D.D.D.z.M N.D.D.A.c.v v c.S.D.D.A.j.c V.tX8XY.Y.Y.Y.Y.Y.",
"Y.Y.Y.Y.Y.'.tXOXB.B.c.A.F.J.G.G.V z.c.A.N.A G.c M A B.c.V C V M B.|.B.A.z.A V V [.Z z.x.j.V Z.J.B.A Z Z c.B.OXtXpX'.Y.Y.Y.Y.Y.Y.",
"Y.Y.Y.Y.Y.T.8XwXwX:X:X7XwXuXiXiX|.Z.Z.G.OX:XuX:X|.B.D A C B.|.;XwXpX;XZ.B.B.|.OXtX7XoXZ.Z.OXeXwXeX:X$XOXOX7XiXtX6XY.Y.Y.Y.Y.Y.Y.",
"Y.Y.Y.Y.Y.Y.Y.L.).^.+XrX0X0XuXtXtXuXuXuXpXtX`.6XwXwXeXwXeXeX:X7XrXuXrXuXuXiXpXpX@X_.qXwXuXiXiXrXqX7X8X0X8X_.`.W.Y.Y.Y.Y.Y.Y.Y.Y.",
"Y.Y.Y.Y.Y.Y.Y.Y.Y.K.m.L.P.m.P.'.8XtXtXwX8X).U.U.T.!.-X+X!.L.n.m.R.'.6XtXtXtXqX-XK.n.m.R.`.-X`.W.E.K.K.K.L.T.Y.Y.Y.Y.Y.Y.Y.Y.Y.Y.",
"Y.Y.Y.Y.Y.Y.Y.Y.Y.Y.U.n.m.K.U.T.M.v.N.b.6 B 5 B b.M.U.M.n.b.b.n.m.M.E.W.E.N.g.g.n 6 l.l.M.Y.U.Y.U.M.M.Y.T.T.Y.Y.Y.Y.Y.Y.Y.Y.Y.Y.",
"Y.Y.Y.Y.Y.Y.Y.Y.Y.Y.Y.Y.Y.Y.Y.Y.Y.Y.Y.Y.Y.Y.Y.Y.Y.Y.Y.Y.Y.Y.Y.Y.Y.Y.Y.Y.Y.Y.Y.Y.Y.Y.Y.Y.Y.Y.Y.Y.Y.Y.Y.Y.Y.Y.Y.Y.Y.Y.Y.Y.Y.Y.Y.Y.",
"Y.Y.Y.Y.Y.Y.Y.Y.Y.Y.Y.Y.Y.Y.Y.Y.Y.Y.Y.Y.Y.Y.Y.Y.Y.Y.Y.Y.Y.Y.Y.Y.Y.Y.Y.Y.Y.Y.Y.Y.Y.Y.Y.Y.Y.Y.Y.Y.Y.Y.Y.Y.Y.Y.Y.Y.Y.Y.Y.Y.Y.Y.Y.Y.",
"Y.Y.Y.Y.Y.Y.Y.Y.Y.Y.Y.Y.Y.Y.Y.Y.Y.Y.Y.Y.Y.Y.Y.Y.Y.Y.Y.Y.Y.Y.Y.Y.Y.Y.Y.Y.Y.Y.Y.Y.Y.Y.Y.Y.Y.Y.Y.Y.Y.Y.Y.Y.Y.Y.Y.Y.Y.Y.Y.Y.Y.Y.Y.Y.",
"Y.Y.Y.Y.Y.Y.Y.Y.Y.Y.Y.Y.Y.Y.Y.Y.Y.Y.Y.Y.Y.Y.Y.Y.Y.Y.Y.Y.Y.Y.Y.Y.Y.Y.Y.Y.Y.Y.Y.Y.Y.Y.Y.Y.Y.Y.Y.Y.Y.Y.Y.Y.Y.Y.Y.Y.Y.Y.Y.Y.Y.Y.Y.Y."
};
