/* XPM */
static char *out[] = {
/* columns rows colors chars-per-pixel */
"64 64 231 2 ",
"   c #161C2E",
".  c #1C2234",
"X  c #252C2F",
"o  c #212537",
"O  c #24283B",
"+  c #2A2C3C",
"@  c #26333E",
"#  c #33333A",
"$  c #3E4D35",
"%  c #424F34",
"&  c #495D3A",
"*  c #5D713C",
"=  c #262E41",
"-  c #2C2E41",
";  c #293243",
":  c #2A3B47",
">  c #363847",
",  c #3A3A4D",
"<  c #3B3E52",
"1  c #423F40",
"2  c #2D414B",
"3  c #34474B",
"4  c #3D5548",
"5  c #384954",
"6  c #2C545B",
"7  c #3E5157",
"8  c #3C585A",
"9  c #3B635C",
"0  c #3B5D63",
"q  c #396968",
"w  c #387277",
"e  c #4C4D4D",
"r  c #495044",
"t  c #434055",
"y  c #464B56",
"u  c #445859",
"i  c #5A5C58",
"p  c #4C674A",
"a  c #56744D",
"s  c #47675A",
"d  c #576958",
"f  c #57795B",
"g  c #677F47",
"h  c #6F6252",
"j  c #626D5E",
"k  c #414B60",
"l  c #4B4E64",
"z  c #455864",
"x  c #515866",
"c  c #4C5A70",
"v  c #545E74",
"b  c #456765",
"n  c #4B6465",
"m  c #4C6B6C",
"M  c #556C6B",
"N  c #48776A",
"B  c #537667",
"V  c #4E6D72",
"C  c #566579",
"Z  c #467876",
"A  c #547574",
"S  c #587A76",
"D  c #567B7B",
"F  c #5A7D7D",
"G  c #6E716D",
"H  c #747B7B",
"J  c #8C795E",
"K  c #827E6C",
"L  c #6E853F",
"P  c #72853F",
"I  c #5C835B",
"U  c #6C8243",
"Y  c #63814A",
"T  c #768543",
"R  c #678A57",
"E  c #61865C",
"W  c #648A5B",
"Q  c #778F5A",
"!  c #6D945C",
"~  c #6D985C",
"^  c #769858",
"/  c #739C5C",
"(  c #77A25D",
")  c #7BA45D",
"_  c #7EA95D",
"`  c #598666",
"'  c #5D9264",
"]  c #4B8379",
"[  c #568C75",
"{  c #59857A",
"}  c #758268",
"|  c #669764",
" . c #6B9C62",
".. c #709F63",
"X. c #668676",
"o. c #659875",
"O. c #76A465",
"+. c #73A572",
"@. c #889D54",
"#. c #9BB94E",
"$. c #82A45B",
"%. c #8EA55A",
"&. c #83AC5D",
"*. c #8BAE5C",
"=. c #94AA5B",
"-. c #8EB256",
";. c #87B059",
":. c #8BB159",
">. c #94B553",
",. c #9BB654",
"<. c #9CB850",
"1. c #94B25A",
"2. c #9BB359",
"3. c #9EBA58",
"4. c #A1B552",
"5. c #A2B655",
"6. c #A9B757",
"7. c #A4B952",
"8. c #AAB954",
"9. c #A3B559",
"0. c #AAB759",
"q. c #ACB958",
"w. c #B1B857",
"e. c #8B9475",
"r. c #AB956F",
"t. c #88A96C",
"y. c #9BB96B",
"u. c #92A274",
"i. c #9AAE7B",
"p. c #9AB476",
"a. c #A6BA69",
"s. c #B0A378",
"d. c #A3B674",
"f. c #ABB875",
"g. c #C8A876",
"h. c #CEB17E",
"j. c #A6C276",
"k. c #3D7D80",
"l. c #5E6F86",
"z. c #587C80",
"x. c #757F80",
"c. c #3E888B",
"v. c #5B8484",
"b. c #578985",
"n. c #5E8B8B",
"m. c #5A928B",
"M. c #488990",
"N. c #449396",
"B. c #48949B",
"V. c #459C9D",
"C. c #599896",
"Z. c #688B88",
"A. c #7A8688",
"S. c #65978A",
"D. c #629494",
"F. c #679896",
"G. c #669C9C",
"H. c #6A9D9D",
"J. c #749090",
"K. c #789B96",
"L. c #44A09F",
"P. c #6BA29C",
"I. c #78A597",
"U. c #489BA2",
"Y. c #5A9BA5",
"T. c #669DA3",
"R. c #729FA1",
"E. c #45A4A4",
"W. c #47ABA9",
"Q. c #4AAAA9",
"!. c #57AAAA",
"~. c #5BB4B0",
"^. c #6BA2A2",
"/. c #68A8AC",
"(. c #71A5A4",
"). c #73AAAB",
"_. c #76AAAB",
"`. c #77B0AE",
"'. c #6AB4B3",
"]. c #7DB4B4",
"[. c #78B9B7",
"{. c #7BC5BC",
"}. c #878D93",
"|. c #8C9695",
" X c #939D9C",
".X c #A69F81",
"XX c #94AE8B",
"oX c #84A59B",
"OX c #B4AA8B",
"+X c #A5B482",
"@X c #A6A898",
"#X c #BDBA9D",
"$X c #939FAE",
"%X c #89ADA4",
"&X c #95B1A9",
"*X c #82B7B7",
"=X c #86BDBC",
"-X c #A2ABAC",
";X c #ABB4B5",
":X c #B1B5BA",
">X c #C4B78D",
",X c #D3B985",
"<X c #B5C78C",
"1X c #87C3BC",
"2X c #9AC4B7",
"3X c #A6CCBC",
"4X c #BBC8B7",
"5X c #D0C18F",
"6X c #D9C592",
"7X c #E3D09B",
"8X c #CAC4A1",
"9X c #E8D7A2",
"0X c #EFE1AB",
"qX c #AEB7C2",
"wX c #8BC6C3",
"eX c #9CCCC4",
"rX c #99D4C7",
"tX c #B8C1C3",
"yX c #ACD7C9",
"uX c #A8D8CB",
"iX c #B4DECC",
"pX c #B8E1CE",
"aX c #B9E6D4",
"sX c #BBE9D6",
"dX c #D8D9DC",
"fX c #C1EBD6",
"gX c #C2EDD9",
"hX c #C7F1DC",
"jX c #F6EECE",
"kX c #FAF6E7",
"lX c #FEFEFC",
/* pixels */
"W.W.W.W.W.W.W.W.W.W.W.W.W.W.W.W.W.W.W.W.W.W.W.W.W.W.W.W.W.W.W.W.W.W.W.W.W.W.W.W.W.W.W.W.W.W.W.W.W.W.W.W.W.W.W.W.W.W.W.W.W.W.W.W.",
"W.W.W.W.W.W.W.W.W.W.W.W.W.W.W.W.W.W.W.W.W.W.W.~.!.~.W.W.W.W.W.W.W.W.W.W.W.W.W.W.W.W.W.W.W.W.W.W.W.W.W.W.W.W.W.W.W.W.W.W.W.W.W.W.",
"W.W.W.W.W.W.W.W.W.W.W.W.W.W.W.W.W.W.W.W.W.C   = c t 1 _.'.Q.W.W.W.W.W.W.W.W.W.W.W.W.W.W.W.W.W.W.W.W.W.W.W.W.W.W.W.W.W.W.W.W.W.W.",
"W.W.W.W.W.W.W.W.W.W.W.W.W.W.W.W.W.W.W.Q.T.o > l l.l.l.c 1 '.W.W.W.W.W.W.W.W.W.W.W.W.W.W.W.W.W.W.W.W.W.W.W.W.W.W.W.W.W.W.W.W.W.W.",
"W.W.W.W.W.W.E.W.W.W.Q.Q.W.W.W.W.W.W.W.~.. t , l.l.l.l.l.l.t ).W.W.W.W.W.W.E.W.W.W.W.W.W.W.W.W.W.W.W.W.W.W.W.W.W.W.W.W.W.W.W.W.W.",
"W.W.W.W.W.N.q N w Z Z v.N Z m.m.` f b X.- t l l.l.l.l.1 l.l.k $XS.S.m.m.n.l.q N E s B W ] ] [ m.] ` N Z M.q q w E.W.W.W.W.W.W.W.",
"W.W.W.W.c.6 & &.! / R +./ O.;.( $.( Q }.- t l.l.l.l.l.l., l.c  Xt.;.&.;./ ~ &.&.-.&.( >.&./ O.O.O.&.W / p ) ^ Y 9 c.W.W.W.W.W.W.",
"W.W.W.W.q ~ R :.1.9.9.6.2.;.>.<.,.=.1.  < t l l l l l.l.l.t l.1 >.<.7.,.*.>.>.-.#.>.#.6.8.2.,.2.7.>.;.:.R :.;.^ R ] c.W.W.W.W.W.",
"W.W.W.W.q a $.q.6.7.7.1.1.-.#.8.w.8.7.  1 1 t .   - l l.l.l l.- >.8.8.8.7.#.;.-.-.>.-.,.<.<.#.,.1.:.:.,.5.2._ / I N V.E.W.W.W.W.",
"W.W.W.W.w ^ _ 1.#.>.#.#.>.>.#.>.=.XX    1 k t <     - l.l.l l   >.>.>.>.>.#.>.#.>.4.>.#.<.<.#.<.#.<.>.>.q.1.&.&.I ] W.W.W.W.W.W.",
"W.W.W.W.Z p $.9.8.1.5.>.>.-.-.-.s.  - - - t t t -   o l l.l o + p.-.3.;.>.#.#.>.:.>.#.,.8.5.,.<Xj.>.;.>.-. . ./ W b E.W.W.W.W.W.",
"W.W.W.W.9 ~ ;.5.q.5.7.5.7.5.1.2.  < t t o t t - 1 g.- t t 1 1 g.r.>X3.3.#.#.#.#.-.>.,.-.3.<X:X;Xf.4.3.2.2.*._ ) ( N V.W.W.W.W.W.",
"W.W.W.W.' +.O._ *.7.7.#.1.-.1.a.  t t t O t t   g.,XJ 1 1 G ,X,X9Xg.<X7.#.7.#.>.<.7.,.f.4X;X;XA.+X1.-.,.,.6.5.O. .N ] W.W.W.W.W.",
"W.W.W.W.X.I.+. .~ &.-.>.#.#.>.u.  1 t < - 1 ,   J K 6X6X,X,X,X9X5X,X>X#.#.#.#.#.>.<.,.4X;X|.-XA.+X>.#.>.#.<.1.+.] b.b.W.W.W.W.W.",
"W.W.W.W.{  .| ..;.>.-.7.<.#.-.;.  1 t t t t o r.h   o 1 K 0X0X0X0X0Xh.j.#.>.;.-.-.-.<XtXtX-X$XA.+X<.>.-.;.1.1.+.o.m.m E.W.W.W.W.",
"W.W.W.W.b...O._ 2.6.9.0.3.>.>.>.v - t t t ,   7Xg.g.6X0X0X0X0XK >X0X6X5X#.>.-.-.>.#.tXtXtX;X|.A.+X<.>.-.<.7.5.&. .s q W.W.W.W.W.",
"W.W.W.W.A _ _ -.,.<.4.>.<.>.#.4.a.  - 1 1 O y ,Xg.g.,X0X0X0X0X  e.0X7Xs.<.-.;.>.-.<X;X:XtX-X|.H +X<.>.#.,.7.5._ ~ f q W.W.W.W.W.",
"W.W.W.W.f O.:.3.,.>.>.,.,.>.>.,.<.f.u   .   K ,Xg.g.,X0X0X0X0Xi 1 0X0XO #.>.<.<.<.4X X X:X X|.y 2.<.-.<.,.,.5.Q f E 8 W.W.W.W.W.",
"W.W.W.W.p _ %.=.1.,.:.:.-.>.#.<.a.p.<.y.H   OXg.g.g.7X0X0X0X0XK   9Xe } #.>.-.>.j.;X|. X-X|.x u.-.>.>.#.#.>.%.Q / ) f W.W.W.W.W.",
"W.W.W.W.f O.f / ,.4.>.>.>.>.>.y.    y.<.d.  7Xg.g.g.>XK K K K e         j #.#.#.@X&X|.;X X|.  y.>.>.>.>.1.&.^ ^ f u 7 W.W.W.W.W.",
"W.W.W.W.u I f ! &.>.<.-.>.-.p.  C :X< u.e.i 6Xg.h.7X,XK i           , 6X  y.#.d.  |.|.;X|.3 } ,.>.-.-.-.-.-.,.0.^ W 8 W.W.W.W.W.",
"W.W.W.W.3 f  .~ 2.,.8.9.9.-.d.e e }.lX}.  e g.g.g.g.,X,X0X0XK K   K 0Xh.  u.>.  x |.n |.A.  a.w.5.<.>.4.7.5.,.=.! B 0 W.W.W.W.W.",
"W.W.W.W.5 N B _ 9.w.4.-.>.-.f.K @Xh l lXdX}.i # h h h h g.6X0X0X  0X,Xg.h u.i.  |.}.H |.x j <.<.:.1.-.7.7.8.0.^ 5 z.D W.W.W.W.W.",
"W.W.W.W.b ` ~ _ *.,.,.#.>.-.p.K l.A.#Xe.jXkXkXlX:X:X:X  g.g.g.0X  0Xg.g.h u.e.G |.X.|.|.O a.>.<.#.>.-.>.,.1.1.^ E p 3 W.W.W.W.W.",
"W.W.W.W.8 ( ~  .1.6.7.7.7.5.p.K l.l.l.l.#X0X0X0XjXkXqX  g.g.g.0X  0Xg.r.  j + |.A.M |.i G #.#.<.7.6.,.;.1.;.$./ ) p : W.W.W.W.W.",
"W.W.W.W.9 ' ( &.1.6.8.7.9.,.f.K l.l.l.l.#X0X0X0X0XkX$X  g.g.g.0X> 0Xg.;     > H , x }.> p.#.#.8.7.9.3.7.&. ...I a 4 : W.W.W.W.W.",
"W.W.W.W.N ' ( ..( *.1.#.>.-.p.K l.l.l.l.#X9X0X0X0XjX$X  h r.>X9X0X5X# 7   < 5 -   i y e >.#.#.#.>.:.;.5._ ~  . ./ ! 3 W.W.W.W.W.",
"W.W.W.W.N w '  .| | ( -.%.>.p.K 8XA.l.l.OX,X0X0X0X0Xx.  -   1 h h   c v     7 l -     M   j >.#.#.7.5.<.>.-.&._  .S.A W.W.W.W.W.",
"W.W.W.W.D N ' O.&.&.-.7.<.>.p.K 0X0X@Xl.OXg.,X0X0X0Xl.  l.c ;     c l.O = > # o > , o   v = u.7.7.3.5.1.<.2.9.^ | N V W.W.W.W.W.",
"W.W.W.W.m I &.1.2.,.7.2.,.>.p.e.0X0Xg.>X#X>X6X9X0X0Xv   1 l l.l.l.c = < - h # h   o 1 = C 5 u.7.,.,.>.<.4.8.1.! f d 2 W.W.W.W.W.",
"W.W.W.W.B I ;.q.6.:.-.7.2.;.y.# 0X0X,Xg.@Xl.l.}.}..Xl   t t t t 1 t t 1   # J g.e j   + < u y.>.5.,.:.>.,.5.6.-.) E 5 W.W.W.W.W.",
"W.W.W.W.R W _ 2.3.<.1.>.7.#.#.j K 0X0X>XOXl.l.l.l.e l   t t t t t t 1 - - - # 1 j <.>.u.u.1.>.1.<.#.>.#.-.,.w.2._ / s W.W.W.W.W.",
"W.W.W.W.s s ~ &.*.-.;.-.-.>.#.#.  9X0X6X#Xl.l.l.l.K l   t t t t t t -   1 1 o .X-.-.-.1.,.1.-.&.-.-.>.#.#.#.w.2...^ s W.W.W.W.W.",
"W.W.W.W.E / / &.>.>.>.>.>.-.>.-.y.e.0X9X|.l.l.l.#Xy 7   O O O o .     r x + e.1.>.#.#.<.5.7.#.>.>.>.>.>.1.:.,.*.O.f 8 W.W.W.W.W.",
"W.W.W.W.s ) *.1.2.5.<.1.>.-.>.>.-.i.e 0XH C l.@Xe = X % % % % $ e %     ^ -.#.#.#.#.8.8.6.,.4.>.>.>.-.>.1.>.1.3.&.W u W.W.W.W.W.",
"W.W.Q.Q.s I | &.1.,.7.,.<.-.#.7.4.,.j e x l.}.K     * L P P g g g g % X P @.-.-.>.>.>.>.#.>.#.7.>.>.>.4.5.0.1.$.| B m W.W.W.W.W.",
"W.W.W.W.{  . .*.6.,.,.<.>.-.>.-.>.;.>.u.@ @XK   % U P U T P L L U L * & * L #.<.>.#.#.<.<.,.>.<.<.>.-.>.<.*.&._ +.X.b W.W.W.W.W.",
"W.W.W.W.{ ~ &.0.0.1.2.>.>.>.-.-.,.1.#.#.u.    * U T T T g P P g g g g U L <.#.>.-.>.#.,.8.3.3.,.#.>.-.1.*.' ' | ' B 8 W.W.W.W.W.",
"W.W.W.W.V E *.0.7.#.4.8.6.5.1.=.1.#.#.#.#.<.U L U U U P P T T T U g U L 3.#.#.#.>.>.>.>.<.<.<.7.7.8.5.:.*.&.$.O. .W 8 W.W.W.W.W.",
"W.W.W.W.u ..&.:.,.7.7.7.3.1.6.0.8.8.7.4.#.-.1.a.$.$.T L P T T U %.=.a.8.7.7.#.>.1.2.,.;.-.>.<.7.3.2.2.0.1.8.5.:.~ s 2 W.W.W.W.W.",
"W.W.W.W.2 f W %.w.w.<.#.>.>.>.#.#.4.#.#.#.#.#.4.,.>.#.#.#.#.#.>.>.,.#.<.#.#.#.#.#.7.<.1.<.#.<.<.<.,.>.>.,.7.-.&./ f = W.W.W.W.W.",
"W.W.W.W.4 a ! _ 9.,.7.,.,.>.-.1.>.1.1.1.-.2.,.#.>.;.;.2.5.<.5.<.>.-.-.,.<.>.-.-.>.>.>.;.1.5.#.7.8.8.3.;.-.*.-.^ R 3 = W.W.W.W.W.",
"W.W.W.W.5 @ Y &.) ) _ O.$.( &.*.=._ &._ _ *.2.7.>._ ;.-.1.R Q _ / ;.=.,.9.9.2.,.,.q.=._ 1.9.;.2.1.$._ a Y I _ I @ N : W.W.W.W.W.",
"W.W.W.W.: 4 R Y s | { f ) I ~ | ~ E _ ! ~ / _ *....._ _ O.W s b f ! I ` Q $./ *.&./ / f ~ O...;...! 4 3 4 3 a p 9 D.3 W.W.W.W.W.",
"W.W.W.W.: R.A b H.`.*Xz.` b N ] B b B s s ! E ` [ O.XXI.S.F D.m.b N N Z 9 s E I ! B ` b o. .[ S.P.[ G.P.^.m.N N n.V @ W.W.W.W.W.",
"W.W.W.W.2 S._.].1X=X*X(.^.^.] F P._.[.P.n.8 8 m.P.(.^.'.=X=XwXZ.2 F.`.`.F.P.F.z.5 F._.(.*X^.G._.wX=XwXwX=X_.].=XH.6 . W.W.W.W.W.",
"W.W.W.W.: u S G.^.G.T.[.=X*Xb D =X=X*X).T.A 5 R.*X).^.].*X]./.n.7 D ^.^.`.[.`.v.n G.^.(.).).H.: z.`.].`.^.).`.^.n o 6 W.W.W.W.W.",
"W.W.W.W.q z A F.G.G.G.^.^.Z.7 u D.P.G.G.G.v.n n.T.G.G.G.G.G.G.G.B D G.G.P.P.G.D.V H.G.G.G.^.Z.8 v.G.G.T.G.G.D.D 7 @ c.W.W.W.W.W.",
"W.W.W.W.`.@ u D F.G.G.G.G.F.z 3 v.G.G.G.G.{ u G.G.T.G.G.G.T.G.n.: m F.^.(.G.H.m.8 F.T.G.G.G.D 5 v.G.G.G.^.(.(.Z.u z !.W.W.W.W.W.",
"W.W.W.W.1X@ A F.K.D.^.G.H.Z.b 2 D.G.G.G.F.z : m.G.G.G.G.m.D.Z.D z y `.].).T.T.C.7 m.G.T.G.G.D : v.D.D.G.^.]._.v.7 S ~.W.W.W.W.W.",
"W.W.W.W.1X3 v.].=X*X_.T.G.G.v.5 n.G.G./.`.R.7 F G.G.G.G.D.G.F.G.b.: D.G.G.G.G.F.z D.G.G.G.G.D m T.G.T.G.G.G.F.M 3 J.~.W.W.W.W.W.",
"W.W.W.W.eXu n Z./.^.G.G.G.G.D.n D G.^.)._.F.y Z.Z.^.T.G.G.G.G.G.v.7 n.G.G.G.G.G.A ^.G.G.G.G.v.v.G.G.G.G.G.G.v.m : K.Q.W.W.W.W.W.",
"W.W.W.W.rX7 m D G.G.G.G.G.G.G.V v.P.G.G.G.m.7 `.*X].).^.G.G.G.G.F 7 n.T.G.G.G.F.v.G.G.G.G.G.v.v.T.G.G.G.G.F.A u 2 =XW.W.W.W.W.W.",
"W.W.W.W.wXZ.u N n.G.G.T.G.G.D.M n.G.G.G.T.n.y v._./.^.G.G.G.F.D.D u n.G.G.^.(.F.A C.G.G.G.G.D D D.G.G.G.G.n.M 5 H uXQ.W.W.W.W.W.",
"W.W.W.W.'.uXZ.7 m n.D.F.G.D.S n n.G.G.G.F.A b B D.G.G.F.C.F.D.D.b.z D G.G.G.G.v.A F.T.G.D.n.m b n.F.G.G.D.F n Z.sXrXW.W.W.W.W.W.",
"W.W.W.W.W.{.sX&XZ.Z.v.F.H.I.I.J.A v.n.D.D.F |.n V F n.Z.A D A V X.oXZ.D.F F S M K.S v.v.{ A J.oXZ.F D D n.S.%XfXsX{.W.W.W.W.W.W.",
"W.W.W.W.W.Q.rXiXpXyX2XyXiXfXgXgX%XZ.J.I.&X3XsX3XoXZ.F F S Z.K.2XaXhX2XJ.Z.Z.oX&XgXyX%XJ.J.&XaXiXiX3X3X%X&XeXhXsXwXW.W.W.W.W.W.W.",
"W.W.W.W.W.W.W.Y./.).=XaXuXuXfXaXsXgXfXfXhXsX[.wXiXiXpXiXpXpX3XuXaXgXaXsXgXgXhXhX=X[.eXiXfXhXsXsXiXeXeXyXrX].[.~.W.W.W.W.W.W.W.W.",
"W.W.W.W.W.W.W.W.W.L.B.!.T.B.T.{.rXsXaXiXrX'.E.E.!./.1X].).Y.N.N.!.{.rXaXaXaXuX{.U.c.U.!.[.1X'.'.!.U.U.U.!.Q.W.W.W.W.W.W.W.W.W.W.",
"W.W.W.W.W.W.W.W.W.W.U.c.B.U.E.Q.V.m.m.M.w Z q Z M.V.E.V.N.M.M.N.B.V.!.~.!.C.M.k.w w z.c.V.W.E.W.E.V.V.Q.E.Q.W.W.W.W.W.W.W.W.W.W.",
"W.W.W.W.W.W.W.W.W.W.W.W.W.W.W.W.W.W.W.W.W.W.W.W.W.W.W.W.W.W.W.W.W.W.W.W.W.W.W.W.W.W.W.W.W.W.W.W.W.W.W.W.W.W.W.W.W.W.W.W.W.W.W.W.",
"W.W.W.W.W.W.W.W.W.W.W.W.W.W.W.W.W.W.W.W.W.W.W.W.W.W.W.W.W.W.W.W.W.W.W.W.W.W.W.W.W.W.W.W.W.W.W.W.W.W.W.W.W.W.W.W.W.W.W.W.W.W.W.W.",
"W.W.W.W.W.W.W.W.W.W.W.W.W.W.W.W.W.W.W.W.W.W.W.W.W.W.W.W.W.W.W.W.W.W.W.W.W.W.W.W.W.W.W.W.W.W.W.W.W.W.W.W.W.W.W.W.W.W.W.W.W.W.W.W.",
"W.W.W.W.W.W.W.W.W.W.W.W.W.W.W.W.W.W.W.W.W.W.W.W.W.W.W.W.W.W.W.W.W.W.W.W.W.W.W.W.W.W.W.W.W.W.W.W.W.W.W.W.W.W.W.W.W.W.W.W.W.W.W.W."
};
