/* XPM */
static char *out[] = {
/* columns rows colors chars-per-pixel */
"64 64 222 2 ",
"   c #161C2E",
".  c #1C2335",
"X  c #222C2F",
"o  c #212637",
"O  c #292B36",
"+  c #24293B",
"@  c #26343B",
"#  c #343838",
"$  c #414E34",
"%  c #5E703D",
"&  c #2C2E41",
"*  c #283243",
"=  c #2C3A48",
"-  c #363C45",
";  c #36364A",
":  c #3A3B4D",
">  c #3B3C50",
",  c #423F40",
"<  c #2D414B",
"1  c #35474A",
"2  c #3D5548",
"3  c #394854",
"4  c #2C545B",
"5  c #3E5157",
"6  c #3C585A",
"7  c #3B635C",
"8  c #3B5D63",
"9  c #396968",
"0  c #387277",
"q  c #4A4C4C",
"w  c #4B5345",
"e  c #434055",
"r  c #454959",
"t  c #465857",
"y  c #5D5C56",
"u  c #4C674A",
"i  c #57744B",
"p  c #47675A",
"a  c #55765B",
"s  c #587B5A",
"d  c #6A7A4C",
"f  c #676959",
"g  c #494E63",
"h  c #465765",
"j  c #525962",
"k  c #50576D",
"l  c #535C72",
"z  c #456765",
"x  c #4B6465",
"c  c #4C6B6C",
"v  c #546C6C",
"b  c #48776A",
"n  c #537667",
"m  c #4F6F71",
"M  c #467876",
"N  c #547574",
"B  c #587A76",
"V  c #567B7B",
"C  c #5A7D7D",
"Z  c #656C72",
"A  c #707670",
"S  c #8C795E",
"D  c #827E6C",
"F  c #6F853F",
"G  c #71853E",
"H  c #5C835B",
"J  c #6C8243",
"K  c #62814C",
"L  c #748442",
"P  c #7A8542",
"I  c #678B57",
"U  c #61865C",
"Y  c #648A5C",
"T  c #6C935C",
"R  c #6D985C",
"E  c #799156",
"W  c #769858",
"Q  c #739C5C",
"!  c #77A25D",
"~  c #7BA45D",
"^  c #7EA95D",
"/  c #598666",
"(  c #5D9264",
")  c #4B8379",
"_  c #568C75",
"`  c #58867A",
"'  c #758268",
"]  c #669764",
"[  c #6B9C62",
"{  c #709F63",
"}  c #698776",
"|  c #659875",
" . c #76A566",
".. c #73A572",
"X. c #98B74F",
"o. c #9BB94F",
"O. c #87A55B",
"+. c #83AC5D",
"@. c #8BAD5C",
"#. c #92AC5B",
"$. c #8EB256",
"%. c #87B05A",
"&. c #8BB159",
"*. c #94B553",
"=. c #9BB654",
"-. c #9CB850",
";. c #95B25A",
":. c #9BB359",
">. c #A2B755",
",. c #A9B757",
"<. c #A4B852",
"1. c #AAB954",
"2. c #A3B559",
"3. c #AAB759",
"4. c #ACB858",
"5. c #B1B857",
"6. c #998667",
"7. c #8F9172",
"8. c #889978",
"9. c #A9906A",
"0. c #84AA63",
"q. c #9DB96B",
"w. c #8DA175",
"e. c #95A274",
"r. c #85B271",
"t. c #9BB774",
"y. c #A4BC6C",
"u. c #A8BD6A",
"i. c #B0A27E",
"p. c #A4B874",
"a. c #C8A876",
"s. c #CEB17E",
"d. c #B6C677",
"f. c #3D7D80",
"g. c #5E6F86",
"h. c #587C80",
"j. c #3E888B",
"k. c #5B8484",
"l. c #578A85",
"z. c #5E8B8B",
"x. c #5A928B",
"c. c #488990",
"v. c #45979A",
"b. c #599896",
"n. c #688B88",
"m. c #778388",
"M. c #65978A",
"N. c #73938C",
"B. c #629494",
"V. c #679896",
"C. c #669C9C",
"Z. c #6A9D9D",
"A. c #789B96",
"S. c #44A09F",
"D. c #6BA397",
"F. c #6BA29D",
"G. c #78A597",
"H. c #489BA2",
"J. c #5A9BA5",
"K. c #6D9EA2",
"L. c #45A4A4",
"P. c #47ABA9",
"I. c #4AAAA9",
"U. c #56A8A9",
"Y. c #5AB4B0",
"T. c #6BA2A2",
"R. c #68A8AC",
"E. c #71A5A4",
"W. c #73AAAB",
"Q. c #76ABAB",
"!. c #73B2AF",
"~. c #7DB4B4",
"^. c #78B9B7",
"/. c #7BC5BC",
"(. c #838A8C",
"). c #8D9694",
"_. c #8D9497",
"`. c #A69F81",
"'. c #91B082",
"]. c #84A59B",
"[. c #B9AE89",
"{. c #A6A898",
"}. c #98A1A1",
"|. c #91B5A9",
" X c #82B7B7",
".X c #86BDBC",
"XX c #A2ABAC",
"oX c #AAB3B4",
"OX c #B0B8BB",
"+X c #C6BB87",
"@X c #D1B683",
"#X c #D5BB87",
"$X c #BDCC99",
"%X c #87C3BC",
"&X c #9AC4B7",
"*X c #BFCAAF",
"=X c #A6CCBC",
"-X c #C4C386",
";X c #DBC490",
":X c #E2CE99",
">X c #E5D29D",
",X c #CDC7A5",
"<X c #EADAA5",
"1X c #EFE1AB",
"2X c #8BC6C3",
"3X c #9CCCC4",
"4X c #99D4C7",
"5X c #B8C1C3",
"6X c #ACD7C9",
"7X c #A8D8CB",
"8X c #B4DECC",
"9X c #B8E1CE",
"0X c #B9E6D4",
"qX c #BBE9D6",
"wX c #CFD2D6",
"eX c #C1EBD6",
"rX c #C2EDD9",
"tX c #C7F1DC",
"yX c #F4EBC7",
"uX c #D6DBE0",
"iX c #FAF6E7",
"pX c white",
/* pixels */
"P.P.P.P.P.P.P.P.P.P.P.P.P.P.P.P.P.P.P.P.P.P.P.P.P.P.P.P.P.P.P.P.P.P.P.P.P.P.P.P.P.P.P.P.P.P.P.P.P.P.P.P.P.P.P.P.P.P.P.P.P.P.P.P.",
"P.P.P.P.P.P.P.P.P.P.P.P.P.P.P.P.P.P.P.P.P.P.P.P.P.P.P.P.P.P.P.P.P.P.P.P.P.P.P.P.P.P.P.P.P.P.P.P.P.P.P.P.P.P.P.P.P.P.P.P.P.P.P.P.",
"P.P.P.P.P.P.P.P.P.P.P.P.P.P.P.P.P.P.P.P.P.P.P.P.P.P.P.P.P.P.P.I.P.P.P.P.P.P.P.P.P.P.P.P.P.P.P.P.P.P.P.P.P.P.P.P.P.P.P.P.P.P.P.P.",
"P.P.P.P.P.P.P.P.P.P.P.P.P.P.P.P.P.P.P.P.P.P.P.P.P.P.P.P.P.P.P.I.P.P.P.P.P.P.P.P.P.P.P.P.P.P.P.P.P.P.P.P.P.P.P.P.P.P.P.P.P.P.P.P.",
"P.P.P.P.P.P.P.P.P.P.I.I.P.P.P.P.P.P.P.P.I.I.I.I.P.P.P.P.P.P.I.I.P.P.P.P.P.I.P.P.P.P.P.P.P.P.P.P.P.P.P.P.P.P.P.P.P.P.P.P.P.P.P.P.",
"P.P.P.P.P.v.9 b 0 M M k.b ) x.x./ a z n a T a Y b ) x.x._ _ V.Z.M.| x.x.l.b p / Y p n ( ) ) _ x.) / b M c.9 9 9 P.P.P.P.P.P.P.P.",
"P.P.P.P.j.4 $ ^ T ! Y ..T ^ %.Q ^ ! W Q +.;.t.v : g } (.'. .r.r.r.+.%.%.{ R ^ +.$.+.W $.+.Q ^  . .+.I W u ~ W K 7 v.P.P.P.P.P.P.",
"P.P.P.P.9 R I ;.;.2.2.,.:.%.*.o.>.;.;.*.*.y.  > k k g.Z l e p.=.$.=.>.:.@.*.*.$.X.-.-.1.,.:.;.:.<.*.+.@.I $.^ ! I b j.P.P.P.P.P.",
"P.P.P.P.9 i O.4.<.<.<.*.;.$.=.1.,.,.1.$.%.  & e g g.g.g.g.g.g `.=.<.<.1.<.:.%.&.$.;.&.*.=.o.o.-.$.&.$.:.2.:.^ ! H b v.P.P.P.P.P.",
"P.P.P.P.9 T ^ ;.o.*.*.X.X.*.X.*.*.*.o.X.t.. , k g.g.g.g e g.g., d.*.X.$.X.X.X.X.o.<.X.-.-.-.X.-.-.o.*.*.1.;.+.^ Y M P.P.P.P.P.P.",
"P.P.P.P.M u +.2.4.;.2.X.*.$.$.$.=.&.-.o.e.& , g.g.g.g.g.g., g.g.'.*.:.&.*.o.o.*.$.*.o.=.,.<.:.*.-.$.&.*.$.[ R R H b L.P.P.P.P.P.",
"P.P.P.P.9 [ %.,.4.>.<.<.>.=.:.:.=.=.o.o.' @ e e , k g.g.g.g.g g.e ;.:.=.o.o.o.X.*.*.*.$.X.-.=.<.<.,.:.:.:.&.^ ! ! b v.P.P.P.P.P.",
"P.P.P.P.( .. . .@.>.<.X.*.$.:.>.=.>.o.o., e e e & + ; k g.g.g g.; <.=.=.o.<.o.X.=.<.=.$.*.-.o.o.*.*.&.=.-.1.>.^ [ b ) P.P.P.P.P.",
"P.P.P.P.} G. .] [ +.*.X.=.o.*.*.*.:.e.  + e e e ;     & g.g.g k   *.X.X.o.o.o.X.*.-.X.&.$.*.X.o.o.o.-.*.*.-.q...) l.h.P.P.P.P.P.",
"P.P.P.P.` [ [ { +.*.$.>.o.X.$.$.O.f   &   > e e , &   + k g.g &   t.$.*.*.*.%.$.$.$.*.$.*.X.X.o.$Xo.X.%.$.;.&. .| x.c P.P.P.P.P.",
"P.P.P.P.l.[  .^ :.1.>.,.>.*.*.$.i.  > e ; . e e & & S + e k , & 9.f +X>.o.*.$.$.X.*.<.<.-.d.*X5XOX:.o.$.*.<.2.+.{ z 8 P.P.P.P.P.",
"P.P.P.P.N ! +.$.=.-.<.*.*.-.-.o.p.* e e e   , >   a.a.9., e f a.a.>X#X-X=.&.&.*.$.*.-.:.=.5X}.}.XX-.o.-.<.<.2.~ T a 9 P.P.P.P.P.",
"P.P.P.P.s ^ ;.=.=.*.*.=.=.$.*.-.p.* e e &   e * . `.;Xs.a.@Xa.@X>X>Xa.+Xo.X.X.=.<.=.-.=.$X5X).XX).*.*.*.=.=.2.E H I 6 P.P.P.P.P.",
"P.P.P.P.t ~ @.O.;.*.%.%.*.*.-.o.o.  : e > e e ; D ,   y D `.1X1X1X:X<Xa.d.*.$.*.$.$.%.y.5X5XoXoX).*.X.-.X.$.O.E T ! s P.P.P.P.P.",
"P.P.P.P.a 0.s Q :.<.*.o.*.*.X.$.*.8.# , e , ; j ;Xa.a.#X1X1X1X1X7.[.1X;X+X-.o.o.*.-.X.*X5X5X5X_.).*.*.*.@.O.O.W a t 5 P.P.P.P.P.",
"P.P.P.P.t H a T +.*.-.;.*.&.*.&.%.t.  ; e ; o D a.a.a.@X1X1X1X1X  q <X>Xa.y.-.o.X.-.d.5X).OX*X_.).&.&.$.$.$.=.3.Q Y 6 P.P.P.P.P.",
"P.P.P.P.1 H R Q :.=.,.=.>.$.=.<.<.;.f         `.a.a.a.@X1X1X1X1Xq   1X1X# e.X.*.X.X.$XXX).oX}._.j *.*.<.<.<.:.#.T n 8 P.P.P.P.P.",
"P.P.P.P.4 b H ! 2.5.<.$.$.$.>.<.8.e.,.q.7.g   `.a.a.a.:X1X1X1X1X7.  `.A   y.+.&.#.y.OX}.).oX).g.. $.;.<.<.1.,.W 1 k.V P.P.P.P.P.",
"P.P.P.P.z / R  .&.:.=.o.*.*.$.f Z   f o.X.8.  ;Xa.a.a.@XD D D D q           u.*.*.p.|.).XXXX).j a *.$.*.:.;.*.W U u 1 P.P.P.P.P.",
"P.P.P.P.7 ! R [ *.,.<.<.<.<.w.  _.wXr f d.e.$ #Xa.#X1X#Xq               [.D p.X.*.' ).).OX}.).  u.<.*.&.;.%.~ Q ~ u = P.P.P.P.P.",
"P.P.P.P.7 ( ! ^ ;.,.1.,.3.:.e.D 7.> OXuXg.  y 9.a.a.a.#X:X1X`.y y   e +X;Xf A X.q.O _.).m.).3 w ,.2.2.,.+.R  .H i 2 = P.P.P.P.P.",
"P.P.P.P.) H ! [  .@.*.-.$.$.*.q _.,XD 7.uXpXpX).        a.a.;X1X1X  i.@Xa.a.' o.e.t ).m.).m.  d.*.&.$.=.~ { [ [ R ] 1 P.P.P.P.P.",
"P.P.P.P.b 0 ( R R ] ! $.&.*.*.  _.g.(.}.1XyXyXpXpXpXpXZ a.a.a.a.1X  `.a.a.a.w o.  m.).Z ).t f =.o.=.>.-.$.$.+.^ { M.v I.P.P.P.P.",
"P.P.P.P.V b (  .^ +.&.<.=.X.$.  ).g.g.g.}.1X1X1XyXiXwX= [.a.a.a.1X  `.a.a.f   A 3 (.e A ).e u.o.1.=.>.;.*.=.2.W Y B c P.P.P.P.P.",
"P.P.P.P.c s 0.:.:.:.>.=.=.*.X.  ).g.g.g.).1X1X1X1X1XuX3 S a.a.a.1X. +Xa.q   X   r k @ Z Z ' =.>.:.-.X.o.>.1.:.T H p < P.P.P.P.P.",
"P.P.P.P.a U +.4.,.&.$.>.:.&.$.  ).g.g.g.).>X1X1X1X1XiXg , S a.a.1X1X1X, * 3 = 3 &   - v 1 y.$.*.,.*.%.*.X.>.<.;.~ Y 5 P.P.P.P.P.",
"P.P.P.P.I T ~ :.=.-.*.*.>.o.o.  :X{.g.g.).a.;X1X1X1X*Xk & & , f D 7.y 3 l o   ; g , O o o 1 ; t y.=.X.o.*.:.5.;.^ R p P.P.P.P.P.",
"P.P.P.P.p p Q +.%.$.%.&.$.*.o.e.`.1X1X[.m.>X#Xs.1X1X*Xg.  l g *     g e   ; & f   . ; , + ; g.3 w.$.X.-.o.o.5.:.{ Q p I.P.P.P.P.",
"P.P.P.P.U Q Q +.;.=.*.X.X.$.*.w.`.1X1Xa.#X{.(.OX1X1X1Xk   , 3 k k g e e e e , , 6.f   o ; > g.* y.$.*.*.$.&.:.#.~ a 6 P.P.P.P.P.",
"P.P.P.P.p ~ +.@.:.,.o.*.*.$.*.*.q 1X1X:Xa.{.g.g.g.l y k   , e e , e e e e ; o   9.S w e.q + + w.*.*.&.*.;.*.:.:.+.Y t P.P.P.P.P.",
"P.P.I.I.p H T +.;.*.>.;.X.$.>.o.e.[.1X1X#X{.g.g.g.g.A g . e e e e e e e ;   , o   t *.X.=.=.>.>.:.*.$.<.<.4.#.+.] b m P.P.P.P.P.",
"P.P.P.P.` [ [ #.,.:.-.o.*.$.*.$.y.q 1X1X:Xm.g.g.g._.D g   e e e e e * o     > ,   d.X.X.<.=.*.o.-.*.$.X.:.%.+.^ | } z P.P.P.P.P.",
"P.P.P.P.l.R +.3.4.;.-.*.*.*.$.$.;.q.A +X<Xg.g.g.g.+X= ;             # X   # q A w.*.X.*.1.2.:.*.X.*.$.;.@.( ( ( ] n 6 P.P.P.P.P.",
"P.P.P.P.c H @.3.,.o.=.1.1.,.;.#.;.=.y.  #X3 g.g.[.    $ G P P P J J J $   $ P =.*.*.o.*.o.X.o.<.<.1.=.&.%.+.+. .{ H 6 P.P.P.P.P.",
"P.P.P.P.p Q +.&.:.<.<.>.:.;.,.,.,.1.<.u.- * g.{.q   @ J L L L L L P P P G P L ;.*.:.;.%.&.X.o.1.<.:.:.4.:.,.,.@.Q p < P.P.P.P.P.",
"P.P.P.P.< s Y O.4.5.o.X.X.$.*.o.X.<.o.o.p.  A D   X G F F F F J J F F F G G :.o.o.o.o.*.X.o.o.o.-.-.*.*.=.1.$.+.! a @ P.P.P.P.P.",
"P.P.P.P.2 i T O.2.=.>.>.=.*.$.;.:.;.;.*.;.y.' f % d J L P G P G J K J J E #.$.$.*.*.-.@.;.2.-.>.1.4.=.%.;.+.@.! I 1 @ P.P.P.P.P.",
"P.P.P.P.1 @ I ~ ~ ^ ~ { +.~ ^ @.@.+.+.^ +.+.:.<.;. .+.W K u u i i @.0.:.:.,.:.-.:.4.#.~ ;.:.%.;.;.+.! i K K  .K @ b * P.P.P.P.P.",
"P.P.P.P.= 2 I K p ( } a ~ H R ] T U ~ T T Q 0.+.! [ ^ ^ ^ Y p p s T / U E O.Q @.+.W Q a [ +.[ %. .Y 2 1 6 1 i u 7 b.3 P.P.P.P.P.",
"P.P.P.P.< E.N z C.~. Xk./ z b ) n z / 7 p T U / _  .'.G.M.C B.x.z b ) b 7 p U s T n / z | [ _ M.D._ C.F.T.x.b b k.m * P.P.P.P.P.",
"P.P.P.P.= M.E.~..X.X~.E.T.T.` V F.W.~.F.z.6 t x.F.T.R.Q..X.X2Xz.< V.!.Q.V.D.V.V 3 V.Q.T. XT.C.W.2X.X2X2X.XW.~..XZ.4 . P.P.P.P.P.",
"P.P.P.P.= t B Z.T.C.T.^..X~.z h..X.X~.W.Z.V 3 K. XW.T.~. X~.W.z.5 C T.T.!.~.~.n.c C.T.W.W.W.Z.= h.Q.^.~.T.W.!.E.x o 4 P.P.P.P.P.",
"P.P.P.P.9 x N V.C.C.C.T.T.n.5 t B.C.C.C.C.k.x z.T.C.C.C.C.C.C.C.c V C.C.F.C.C.b.v C.C.C.C.T.n.t k.C.C.C.C.C.B.V 5 @ j.P.P.P.P.P.",
"P.P.P.P.!.@ 6 B V.C.C.C.C.V.h 1 k.C.C.C.C.k.t C.C.C.C.C.C.C.C.z.= x Z.Z.T.T.C.z.t V.C.C.C.C.V 3 z.B.C.C.T.E.E.n.t h I.I.P.P.P.P.",
"P.P.P.P.%X* N V.Z.B.Z.T.C.z.x < b.C.C.Z.B.z = x.C.C.C.C.z.B.z.h.h t Q.~.W.T.C.B.5 b.C.C.C.C.V < k.B.B.C.T.~.Q.h.5 C Y.P.P.P.P.P.",
"P.P.P.P.&X< k. X2X XW.Z.C.C.k.3 k.C.C.W.Q.E.3 C C.C.C.C.B.C.C.C.l.= b.Z.C.C.C.V.h B.C.C.C.C.V c C.C.C.C.C.C.B.m 1 A.U.P.P.P.P.P.",
"P.P.P.P.4X5 v k.E.K.C.C.C.F.B.x V C.T.W.Q.V.r n.B.T.T.C.C.C.C.C.z.3 z.C.C.C.C.C.N C.C.C.C.C.h.h.T.T.C.C.C.C.k.x = Z.U.P.P.P.P.P.",
"P.P.P.P.4X5 c V C.C.C.C.C.C.B.m k.C.C.C.C.z.5 Q. X~.Q.T.C.C.C.C.C 5 z.C.C.C.C.C.k.C.T.C.C.C.k.z.C.C.C.C.C.V.N p < %XI.P.P.P.P.P.",
"P.P.P.P.2Xn.t v B.C.C.C.C.C.B.m z.C.C.C.C.z.5 n.Q.T.T.C.C.C.C.z.V t z.C.C.T.T.B.N b.C.C.C.C.V V b.C.C.C.C.z.m 3 A 7XI.P.P.P.P.P.",
"P.P.P.P.Y.7Xn.5 c z.V.B.V.B.B x n.C.C.C.B.N x v B.C.C.C.B.B.B.B.z.j V C.C.C.Z.k.N B.C.C.B.z.c c z.V.C.C.B.h.x m.qX4XP.P.P.P.P.P.",
"P.P.P.P.P./.qX|.n.n.h.B.T.G.G.A.N k.z.B.B.` A.c v V z.z.V V N v ` ].B.x.k.C B v A.V k.k.C N N.G.n.C V V z.n.|.0XqX/.P.P.P.P.P.P.",
"P.P.P.P.P.I.4X8X9X6XoX4X9XqXrXtX|.n.N.G.|.=XqX=X].} C C B n.].|.8XtX&XN.n.n.].|.qX3X|.N.N.|.0X8X9X=XoX|.|.3XrXqX4XP.P.P.P.P.P.P.",
"P.P.P.P.P.P.P.J.R.W..X0X7X7X0XqXqXqXqXeXtXqX^.2X9X8X9X8X8X9X7X4X0XrX0XqXrXrXtXtX2X.X3X8XeXtXrXqX8X3X4X7X4X~.^.Y.P.P.P.P.P.P.P.P.",
"P.P.P.P.P.P.P.P.L.S.v.J.J.H.R./.4XqXqX8X4X!.L.L.U.R..X XW.J.v.c.J./.4X0XqXqX7X%Xv.j.H.U.~.%X^.Y.I.H.H.H.J.I.P.P.P.P.P.P.P.P.P.P.",
"P.P.P.P.P.P.P.P.P.P.H.v.v.v.L.I.b.c.b.c.0 M 9 M c.H.L.L.c.c.c.v.v.H.Y.Y.Y.b.f.f.0 0 h.j.v.P.L.P.P.v.H.P.P.I.P.P.P.P.P.P.P.P.P.P.",
"P.P.P.P.P.P.P.P.P.P.P.P.I.I.P.P.P.P.P.P.P.P.P.P.P.P.P.P.P.P.P.P.P.P.P.P.P.P.P.P.P.P.P.P.P.P.P.P.P.P.P.P.P.P.P.P.P.P.P.P.P.P.P.P.",
"P.P.P.P.P.P.P.P.P.P.P.P.I.I.P.P.P.P.P.P.P.P.P.P.P.P.P.P.P.P.P.P.P.P.P.P.P.P.P.P.P.P.P.P.P.P.P.P.P.P.P.P.P.P.P.P.P.P.P.P.P.P.P.P.",
"P.P.P.P.P.P.P.P.P.P.P.P.P.P.P.P.P.P.P.P.P.P.P.P.P.P.P.P.P.P.P.P.P.P.P.P.P.P.P.P.P.P.P.P.P.P.P.P.P.P.P.P.P.P.P.P.P.P.P.P.P.P.P.P.",
"P.P.P.P.P.P.P.P.P.P.P.P.P.P.P.P.P.P.P.P.P.P.P.P.P.P.P.P.P.P.P.P.P.P.P.P.P.P.P.P.P.P.P.P.P.P.P.P.P.P.P.P.P.P.P.P.P.P.P.P.P.P.P.P."
};
