/* XPM */
static char *out[] = {
/* columns rows colors chars-per-pixel */
"64 64 226 2 ",
"   c #161C2E",
".  c #1C2334",
"X  c #212537",
"o  c #24293B",
"O  c #2A2C3B",
"+  c #28353B",
"@  c #333737",
"#  c #3C4C36",
"$  c #455435",
"%  c #586839",
"&  c #61733A",
"*  c #2C2E41",
"=  c #2A3846",
"-  c #353549",
";  c #373B48",
":  c #3B3C50",
">  c #423F40",
",  c #2D414B",
"<  c #35474B",
"1  c #3D5548",
"2  c #384A52",
"3  c #3A455A",
"4  c #2C545B",
"5  c #3E5157",
"6  c #3C585A",
"7  c #3B635C",
"8  c #3B5D63",
"9  c #396968",
"0  c #387277",
"q  c #4C4D4D",
"w  c #514A46",
"e  c #475347",
"r  c #434055",
"t  c #48495E",
"y  c #455858",
"u  c #5E5D57",
"i  c #4C674A",
"p  c #56744D",
"a  c #47675A",
"s  c #586C5A",
"d  c #57795B",
"f  c #67695A",
"g  c #717454",
"h  c #4A4C62",
"j  c #455B62",
"k  c #515868",
"l  c #4C5A70",
"z  c #555F75",
"x  c #456765",
"c  c #4B6465",
"v  c #4C6B6C",
"b  c #566869",
"n  c #48776A",
"m  c #537667",
"M  c #4F6F71",
"N  c #58667A",
"B  c #467876",
"V  c #547574",
"C  c #587A76",
"Z  c #567B7B",
"A  c #5A7D7D",
"S  c #71756F",
"D  c #636974",
"F  c #8C795E",
"G  c #827D6B",
"H  c #6E853F",
"J  c #72853F",
"K  c #5C835B",
"L  c #6C8243",
"P  c #63814A",
"I  c #768442",
"U  c #678A57",
"Y  c #61865C",
"T  c #648A5B",
"R  c #778F5A",
"E  c #6D945C",
"W  c #6D985C",
"Q  c #769859",
"!  c #739C5C",
"~  c #77A25D",
"^  c #7BA45D",
"/  c #7EA95D",
"(  c #598666",
")  c #5D9264",
"_  c #4B8379",
"`  c #568C75",
"'  c #59857A",
"]  c #748168",
"[  c #669764",
"{  c #6B9C62",
"}  c #709F63",
"|  c #628674",
" . c #659875",
".. c #76A465",
"X. c #73A572",
"o. c #9BB94E",
"O. c #87A55B",
"+. c #83AC5D",
"@. c #8BAE5C",
"#. c #92AC5B",
"$. c #8EB256",
"%. c #87B059",
"&. c #8BB159",
"*. c #94B553",
"=. c #9BB654",
"-. c #9CB850",
";. c #94B25A",
":. c #9BB359",
">. c #9EB958",
",. c #A1B552",
"<. c #A2B655",
"1. c #A9B757",
"2. c #A4B852",
"3. c #AAB954",
"4. c #A3B559",
"5. c #AAB759",
"6. c #ABB85B",
"7. c #B1B857",
"8. c #998667",
"9. c #8E8A76",
"0. c #899975",
"q. c #AA926D",
"w. c #84AD62",
"e. c #90B06C",
"r. c #98B769",
"t. c #8DA175",
"y. c #93A273",
"u. c #9CB378",
"i. c #A5BB6A",
"p. c #A9B374",
"a. c #C8A876",
"s. c #CCAE7B",
"d. c #AEC375",
"f. c #3D7D80",
"g. c #5E6F86",
"h. c #587C80",
"j. c #6F7B88",
"k. c #3E888B",
"l. c #5B8484",
"z. c #578985",
"x. c #5E8B8B",
"c. c #5A928B",
"v. c #488990",
"b. c #449396",
"n. c #48949B",
"m. c #459C9D",
"M. c #599896",
"N. c #688B88",
"B. c #788588",
"V. c #65978A",
"C. c #73938C",
"Z. c #629494",
"A. c #679896",
"S. c #669C9C",
"D. c #6A9D9D",
"F. c #789B96",
"G. c #44A09F",
"H. c #6BA397",
"J. c #6BA29D",
"K. c #78A597",
"L. c #489BA2",
"P. c #5A9BA5",
"I. c #659EA4",
"U. c #729FA1",
"Y. c #45A4A4",
"T. c #47ABA9",
"R. c #4AAAA9",
"E. c #56A8A9",
"W. c #5AB4B0",
"Q. c #6BA2A2",
"!. c #68A9AD",
"~. c #71A5A4",
"^. c #73AAAB",
"/. c #76ABAB",
"(. c #77B0AE",
"). c #66B4B2",
"_. c #7DB4B4",
"`. c #78B9B7",
"'. c #7BC5BC",
"]. c #878F92",
"[. c #8C9695",
"{. c #A69F81",
"}. c #8BB583",
"|. c #84A59B",
" X c #B6AF8E",
".X c #A6A898",
"XX c #9AA4A4",
"oX c #91B5A9",
"OX c #82B7B7",
"+X c #86BDBC",
"@X c #A5ADAF",
"#X c #ACB5B6",
"$X c #C7B588",
"%X c #D3B985",
"&X c #B4C790",
"*X c #87C3BC",
"=X c #9AC4B7",
"-X c #A6CCBC",
";X c #BCC8B6",
":X c #C6C18E",
">X c #DBC490",
",X c #D6CB9D",
"<X c #E2CE99",
"1X c #E5D29D",
"2X c #CDC7A2",
"3X c #E8D8A3",
"4X c #EFE1AB",
"5X c #F1E6B9",
"6X c #AEB7C2",
"7X c #8BC6C3",
"8X c #9CCCC4",
"9X c #99D4C7",
"0X c #B8C1C3",
"qX c #ACD7C9",
"wX c #A8D8CB",
"eX c #B4DECC",
"rX c #B8E1CE",
"tX c #B9E6D4",
"yX c #BBE9D6",
"uX c #C4C6CA",
"iX c #C1EBD6",
"pX c #C2EDD9",
"aX c #C7F1DC",
"sX c #F6EECE",
"dX c #F4F1E9",
"fX c white",
/* pixels */
"T.T.T.T.T.T.T.T.T.T.T.T.T.T.T.T.T.T.T.T.T.T.T.T.T.T.T.T.T.T.T.T.T.T.T.T.T.T.T.T.T.T.T.T.T.T.T.T.T.T.T.T.T.T.T.T.T.T.T.T.T.T.T.T.",
"T.T.T.T.T.T.T.T.T.T.T.T.T.T.T.T.T.T.T.T.T.T.T.T.T.T.T.T.T.T.T.T.T.T.T.T.T.T.T.T.T.T.T.T.T.T.T.T.T.T.T.T.T.T.T.T.T.T.T.T.T.T.T.T.",
"T.T.T.T.T.T.T.T.T.T.T.T.T.T.T.T.T.T.T.T.T.T.).O r N ^.).T.T.T.T.T.T.T.T.T.T.T.T.T.T.T.T.T.T.T.T.T.T.T.T.T.T.T.T.T.T.T.T.T.T.T.T.",
"T.T.T.T.T.T.T.T.T.T.T.T.T.T.T.T.T.T.T.T.T.).  - g.g.l r N T.T.T.T.T.T.T.T.T.T.T.T.T.T.T.T.T.T.T.T.T.T.T.T.T.T.T.T.T.T.T.T.T.T.T.",
"T.T.T.T.T.T.T.T.T.T.T.R.T.T.T.T.Y.T.T.T.!.  : r k N g.g.z r !.T.T.T.T.T.T.T.T.T.T.T.T.T.T.T.T.T.T.T.T.T.T.T.T.T.T.T.T.T.T.T.T.T.",
"T.T.T.T.T.b.9 n 9 h.B l.n _ c.c.( d x m   O r N g.g.k N g.k j.D.V.V.c.c.z.M a ( T a m T _ _ z.c._ ` n B f.9 7 0 G.T.T.T.T.T.T.T.",
"T.T.T.T.k.4 $ / E } U X.W / %.! / ~ ! !   - r g.g.g.g.h g.g.h }.e./ +.&.~ W / +.$.+.Q *./ ! ^ ^ / / U ! i ^ ! P 7 k.T.T.T.T.T.T.",
"T.T.T.T.9 W U ;.&.>.4.1.:.+.*.o.2.;.;.i.  r t N z g.g.g.t z g.u.*.-.-.:.@.*.*.$.o.*.-.3.3.*.:.:.2.*.%.@.Q +.+.! U _ b.T.T.T.T.T.",
"T.T.T.T.9 p O.1.3.2.2.*.$.$.4.3.3.3.3.u.X r r - * t z g.z r g.].*.3.3.3.2.=.%.$.$.;.%.-.o.o.o.-.;.$.$.:.4.;./ ~ K n m.T.T.T.T.T.",
"T.T.T.T.9 Q ^ ;.-.*.-.o.*.*.o.*.*.*.o.] * r r r   * r g.g.t z r *.o.*.$.o.o.*.*.o.2.*.o.o.o.*.o.o.o.*.*.3.;.+.+.T _ T.T.T.T.T.T.",
"T.T.T.T.B a O.4.3.;.4.*.*.$.$.$.:.0.  X . r r r -   X h g.k t O $.$.>.%.*.o.o.$.%.*.o.=.2.4.>.*.*.$.$.*.;.{ { W K x Y.T.T.T.T.T.",
"T.T.T.T.7 ! +.4.5.<.2.2.2.:.:.;.i.  - r   * r r -     - N t : > f d.>.>.o.o.o.o.*.*.*.*.o.*.&X0XXX2.:.:.:.@./ ..~ n b.T.T.T.T.T.",
"T.T.T.T.) X.w.+.@.4.2.*.*.$.:.<.y.O r r * * r -   q.> * r r * F q.a.d.o.o.o.o.o.=.<.>.%.d.;X0X@Xb *.$.4.=.3.<./ } n _ T.T.T.T.T.",
"T.T.T.T.` K.X.[ W +.*.o.o.o.*.*.] - r - o * r   f s.a.F f F q.%X3X%X:Xo.o.o.o.o.*.o.;.&X0XXXXX[.b ,.o.*.-.-.;.X._ z.h.T.T.T.T.T.",
"T.T.T.T.' { [ ..%.*.*.-.o.o.$.%.S r r : * r -     F <X>X<X>X>X4X$X>Xs.:.*.*.$.%.*.$.*.2X0XXX@X[.b -.o.%.%.;.$.X.) Z.v T.T.T.T.T.",
"T.T.T.T.z.} ../ ;.3.4.1.:.o.$.*.9.* r r r r * $Xu O     G 4X4X4X4X4X%X&Xo.*.$.$.*.-.d.6X0X#XXX[.b -.*.$.-.2.<.w.{ x 9 T.T.T.T.T.",
"T.T.T.T.B ~ +.$.-.=.,.;.o.*.o.o.i.  * r r r . 3Xa.a.a.4X4X4X4XG y.4X<X$X-.$.$.*.%.*.;X#X6X;X].].k o.o.o.o.2.<.^ W d 9 T.T.T.T.T.",
"T.T.T.T.d +.&.>.-.*.*.=.=.*.*.o.:.i.  o *   u >Xa.a.a.4X4X4X4Xu   4X4X8.y.o.*.:.-.2X#X[.0X#X[.; y.<.$.=.-.:.4.R K U 6 T.T.T.T.T.",
"T.T.T.T.y ^ #.O.;.=.%.%.$.*.o.o.o.o.i.e     u %Xa.a.%X4X4X4X4X{.  $X4X  y.*.$.*.*.0XXX[.0X[.B.  $.$.*.o.o.*.#.R E ~ d T.T.T.T.T.",
"T.T.T.T.d w.d ! :.2.*.*.*.*.*.*.]   y.i.i.  9.a.a.a.>X4X4X4X4X{.  u u   u.o.o.-.&X#X[.@XXX[.y u.*.*.*.o.$.O.Q Q d y 5 T.T.T.T.T.",
"T.T.T.T.e Y d E +.*.o.*.*.$.*.s D uX  0.o.  9.a.a.>X1X.               q q u.>.-.e [.[.#X[.[.y o.*.$.%.*.$.$.=.1.! T 6 T.T.T.T.T.",
"T.T.T.T.4 d E ! :.:.2.<.:.$.4.    uXfX: f   <Xa.a.%X4X4XG           ; 4Xg y.*.i.* [.B.C.[.u S 3.<.=.*.2.,.4.:.#.E m 8 T.T.T.T.T.",
"T.T.T.T.2 B d ^ 4.7.2.$.*.$.>.   Xu D dX#XD S w F F F F $X4X%X{.  ; 3X%XF ] @.e k [.S ].B.  d.-.$.$.*.,.2.1.5.Q 2 h.Z T.T.T.T.T.",
"T.T.T.T.x ( ! ..@.>.=.o.*.$.*.  ].].2X{.sXdXfXfXuX].[.k G a.%X3X  G %Xa.a.] i.  [.].j.[.= f *.*.o.*.$.*.-.;.;.Q Y i < T.T.T.T.T.",
"T.T.T.T.7 ~ W { ;.6.2.2.2.2.$.  [.g.g.j.2X4X5XsXdXfXfXD F a.a.<X  G >Xa.a.] f y [.D [.j.  i.o.2.2.2.;.$.;.%.+.! ^ i = T.T.T.T.T.",
"T.T.T.T.7 ) ~ / ;.3.3.2.4.:.6.  [.g.g.g..X4X4X4X5XsX6X3 F a.a.<X  G %Xq.@     ].D < [.u ] *.o.3.<.4.4.<.+.! { K p 1 , T.T.T.T.T.",
"T.T.T.T._ K ..! ~ @.;.-.*.$.*.  [.g.g.g..X4X4X4X4XsX6X3 G a.a.<XG 4Xq.  * = O O X u b X *.-.o.o.-.&.&.>.^ { { { ! E 2 T.T.T.T.T.",
"T.T.T.T.n 9 ) } [ [ ~ $.%.*.*.  .Xg.g.g..X%X4X4X4X3X6X3 @ 8.a.>X4X4Xr l 3 X g.l . O < S t.t.*.o.o.=.2.-.*.$.+./ { V.v T.T.T.T.T.",
"T.T.T.T.Z n ) ../ +.*.<.-.*.$.  4X1X.Xj..Xs.%X4X4X4Xg.3 - o   w w * h r . O @ o - - o   3 3 0.2.3.=.2.;.-.=.4.! T C v T.T.T.T.T.",
"T.T.T.T.v K +.;.:.>.<.:.=.*.o.  5X3X%X$X2X.X>X1X4X4Xl 3 - h z 3 : r : O r w   f @ X - * l g.] 2.-.:.*.-.,.3.;.E K a , T.T.T.T.T.",
"T.T.T.T.d K %.6.3.$.$.<.:.&.$.f :X4X1Xa.>Xg.g..X.X4X3 3 - r r r r r r r -   f a.F     * k * 0.=.<.;.%.*.-.4.2.*.~ K 2 T.T.T.T.T.",
"T.T.T.T.K E ^ :.>.-.$.*.,.o.o.u.S 4X4X%X>Xg.g.g.N < 3 3 - : r r r r r : . O @ F e d.r.0.] t.*.*.=.o.o.o.$.:.7.;./ ! s T.T.T.T.T.",
"T.T.T.T.a a W w.%.$.%.&.$.$.o.o.] 4X4X1X4Xg.g.g.g.S 3 3 - r r r r r *   O r X f r.$.%.*.:.;.$.+.$.$.o.o.o.,.7.:.! ! a T.T.T.T.T.",
"T.T.T.T.Y ! ! +.*.:.*.*.*.$.o.&.r.w 4X1X.Xg.g.g.g.9.l + o + O + *         *   -.*.o.o.o.3.2.o.*.*.$.*.*.&.&.:.@.^ d 6 T.T.T.T.T.",
"T.T.T.T.a +.+.$.>.<.-.*.o.&.*.*.*.r.< ,X9.g.g.B. X< o @ @ @ @ @ @ % +   # R d.o.o.o.2.3.<.:.,.*.*.*.&.*.*.;.:.:.+.U j T.T.T.T.T.",
"T.T.T.T.a d E +.;.:.2.*.-.$.o.,.2.4.p.; q g.j. X    % H J J L H L I %   # H $.$.*.:.*.o.o.o.o.2.*.*.*.,.2.1.;.+.[ n v T.T.T.T.T.",
"T.T.T.T.' [ { #.1.:.-.o.*.$.*.$.;.%.*.y.. g. X    & I L L J H P H H J p H H o.o.*.-.o.o.,.o.;.o.-.*.*.*.:.@./ /  .| x T.T.T.T.T.",
"T.T.T.T.z.~ +.5.1.;.=.*.*.*.$.$.;.*.o.o.y.@ + $ % I I L I L J L L P H P H =.o.$.$.*.*.>.3.4.:.*.o.*.$.$.@.) ) [ [ m 6 T.T.T.T.T.",
"T.T.T.T.v K @.5.2.o.,.3.3.4.;.#.;.o.o.o.o.o.:.H L L I H J I I I P p L O.2.o.o.o.*.*.o.*.o.o.-.2.2.3.:.;.@.O.+.....K a T.T.T.T.T.",
"T.T.T.T.y ! w.@.>.,.2.2.4.;.5.1.3.3.,.2.o.$.*.:.r.@.Q H J I I L :.7.6.3.2.2.o.*.*.:.;.%.$.*.o.3.>.>.:.1.*.1.4.%.W a = T.T.T.T.T.",
"T.T.T.T., d E O.7.3.o.o.*.*.;.-.o.2.o.o.o.-.o.2.*.*.-.-.o.o.*.*.;.o.o.o.o.o.o.o.o.,.o.*.*.o.o.o.:.-.*.$.:.3.$.+.! d o T.T.T.T.T.",
"T.T.T.T.1 p E O.4.:.<.<.=.*.$.*.;.;.;.=.*.>.:.*.*.%.$.:.2.-.2.2.*.&.*.:.-.*.*.$.*.;.-.%.;.>.-.2.3.3.4.%.*.+.&.! U < o T.T.T.T.T.",
"T.T.T.T.2 + P / Q +.+.! +.^ +.+.$.w./ ../ +.4.2.*./ +.%.;.Y R / ! $.@.:.2.4.:.:.:.5.@.^ ;.4.%.;.;.O.~ & K p w.P + n = T.T.T.T.T.",
"T.T.T.T.= 1 U P i  .` d ^ d ! [ W Y / U W ! / @.} } w./ ..T a x d E ( K R ^ ! @.+.! Q d { / } %.} T 7 < 1 1 p i 7 Z.< T.T.T.T.T.",
"T.T.T.T., ~.V x A._._.l.( x n _ m x ( x a E Y ( ` ..}.K.V.C Z.Z.x n _ n 7 a T K E m ( x  .{ ' V.H.` S.J.Q.c.n n x.M = T.T.T.T.T.",
"T.T.T.T.= Z./.(.+X+X_.!.Q.Q._ Z J.^._.J.c.y 6 c.J.~.Q.(.+X+X7Xx., A.(.(.Z.S.A.h.2 A.(.Q.OXJ.S.^.7X*X7X7X*X/.(.+XD.4 . T.T.T.T.T.",
"T.T.T.T.= y C S.Q.Q.Q._.7XOXc Z OX+X_.^.I.V 2 U.OX^.Q._.OX_.!.l.5 C Q.Q.(.`.(.l.c D.Q.^.^.^.D.= h.(._.(.Q.!.(.Q.c . 4 T.T.T.T.T.",
"T.T.T.T.9 c V A.S.S.S.D.I.N.6 y Z.S.S.A.D.l.c x.D.I.S.S.S.S.S.S.v ' S.S.J.J.S.Z.M D.S.S.S.Q.N.y l.S.S.I.S.S.Z.Z 5 = k.T.T.T.T.T.",
"T.T.T.T.).+ y A A.A.D.S.S.S.8 2 l.A.S.S.S.l.y A.S.S.S.S.S.S.S.x.= v A.~.Q.J.I.x.y Z.S.S.S.S.Z 2 l.S.S.S.Q.~.~.N.y j E.T.T.T.T.T.",
"T.T.T.T.*X+ V Z.D.A.Q.Q.A.N.c = M.S.S.S.M.c = M.S.S.S.S.M.Z.N.Z x t (.(.^.Q.S.A.5 Z.S.S.S.I.Z = l.Z.Z.S.Q._./.' 3 Z W.T.T.T.T.T.",
"T.T.T.T.=X, l.OX+XOX^.I.S.S.l.2 x.S.Q.~.(.U.r A A.S.S.S.Z.S.A.S.h., M.D.S.S.S.A.j A.S.S.S.S.Z v Q.S.I.S.D.S.Z.V < F.W.T.T.T.T.T.",
"T.T.T.T.9X5 b z.~.Q.S.S.S.S.Z.c Z A.Q.^./.A.5 N.Z.D.Q.Q.J.S.S.I.l.2 x.S.S.S.S.S.B S.S.I.S.S.l.l.S.S.S.S.S.S.h.b = F.Y.R.T.T.T.T.",
"T.T.T.T.9X5 b Z S.S.S.J.S.S.A.V l.S.S.S.S.N.5 /.OX_.(.I.S.S.I.A.A 6 x.S.S.S.S.A.l.S.S.S.S.S.l.l.S.S.S.S.S.A.V y , *XT.T.T.T.T.T.",
"T.T.T.T.7XN.y M M.S.S.S.S.S.Z.M x.S.I.S.J.z.5 N./.Q.J.S.S.S.Z.N.Z y l.S.S.Q.~.Z.V A.I.S.S.S.Z Z Z.S.S.S.S.x.M 5 A wXR.T.T.T.T.T.",
"T.T.T.T.).wXN.5 v l.Z.Z.A.Z.V c x.Q.S.A.M.V b M Z.S.S.S.A.A.Z.M.N.j Z S.S.S.D.' V Z.S.S.Z.x.v v x.A.S.S.M.A c N.iXwXT.T.T.T.T.T.",
"T.T.T.T.T.'.yXoXN.N.l.A.J.U.|.C.V l.x.Z.Z.A F.c M A x.x.V V V V A |.Z.Z.h.h.V V F.C l.l.A V C.K.N.A C Z N.Z.|.pXyX'.T.T.T.T.T.T.",
"T.T.T.T.T.W.9XeXrXqX=X8XeXiXaXpX|.N.C.K.oX-XyX-XXX| A A C N.|.oXrXaX=XC.N.N.|.oXyXqXoXN.C.oXrXeXeX-X#XoXoX8XpXpX7XR.T.T.T.T.T.T.",
"T.T.T.T.T.T.Y.P.!.^.+XtXqXqXiXyXyXpXpXpXaXyXOX7XwXeXeXeXeXeXwXwXtXpXtXiXpXpXaXaX+X+X8XeXpXaXpXyXwX8X9XqX8X(.`.W.R.T.T.T.T.T.T.T.",
"T.T.T.T.T.T.T.T.Y.L.n.P.I.L.!.`.9XyXtXeX9X).Y.Y.E.!.*XOX~.P.m.b.E.'.9XyXtXtXwX*Xm.k.L.E._.*X).).E.L.L.L.E.E.T.T.T.T.T.T.T.T.T.T.",
"T.T.T.T.T.T.T.T.T.T.Y.b.b.n.T.R.L.c.c.v.0 B 9 B b.L.Y.L.b.v.v.b.n.m.E.W.E.M.k.f.0 0 h.k.L.T.Y.T.T.m.m.T.T.T.T.T.T.T.T.T.T.T.T.T.",
"T.T.T.T.T.T.T.T.T.T.T.T.T.T.T.T.T.T.T.T.T.T.T.T.T.T.T.T.T.T.T.T.T.T.T.T.T.T.T.T.T.T.T.T.T.T.T.T.T.T.T.T.T.T.T.T.T.T.T.T.T.T.T.T.",
"T.T.T.T.T.T.T.T.T.T.T.T.T.T.T.T.T.T.T.T.T.T.T.T.T.T.T.T.T.T.T.T.T.T.T.T.T.T.T.T.T.T.T.T.T.T.T.T.T.T.T.T.T.T.T.T.T.T.T.T.T.T.T.T.",
"T.T.T.T.T.T.T.T.T.T.T.T.T.T.T.T.T.T.T.T.T.T.T.T.T.T.T.T.T.T.T.T.T.T.T.T.T.T.T.T.T.T.T.T.T.T.T.T.T.T.T.T.T.T.T.T.T.T.T.T.T.T.T.T.",
"T.T.T.T.T.T.T.T.T.T.T.T.T.T.T.T.T.T.T.T.T.T.T.T.T.T.T.T.T.T.T.T.T.T.T.T.T.T.T.T.T.T.T.T.T.T.T.T.T.T.T.T.T.T.T.T.T.T.T.T.T.T.T.T."
};
