/* XPM */
static char *out[] = {
/* columns rows colors chars-per-pixel */
"64 64 219 2 ",
"   c #161C2E",
".  c #1C2334",
"X  c #242C2F",
"o  c #232739",
"O  c #24293B",
"+  c #28323C",
"@  c #333538",
"#  c #3E4D35",
"$  c #445434",
"%  c #556A3B",
"&  c #61703E",
"*  c #2C2E41",
"=  c #293143",
"-  c #2C3A48",
";  c #363B47",
":  c #353549",
">  c #3A3B4D",
",  c #3E3C50",
"<  c #423F40",
"1  c #2D414B",
"2  c #35464A",
"3  c #3D5548",
"4  c #384854",
"5  c #2C545B",
"6  c #3E5157",
"7  c #3D585B",
"8  c #3B635C",
"9  c #3B5D63",
"0  c #396968",
"q  c #387277",
"w  c #4C4D4D",
"e  c #514A46",
"r  c #434055",
"t  c #48485E",
"y  c #4C5550",
"u  c #43585A",
"i  c #5E5D57",
"p  c #535C5B",
"a  c #60575C",
"s  c #4C674A",
"d  c #47675A",
"f  c #557050",
"g  c #57795B",
"h  c #6D744E",
"j  c #686859",
"k  c #494D63",
"l  c #465765",
"z  c #505767",
"x  c #4C5A70",
"c  c #555E74",
"v  c #456765",
"b  c #4B6465",
"n  c #4C6B6C",
"m  c #566969",
"M  c #48776A",
"N  c #537667",
"B  c #4F6F71",
"V  c #566579",
"C  c #467876",
"Z  c #547574",
"A  c #587A76",
"S  c #567B7B",
"D  c #5A7D7D",
"F  c #646C72",
"G  c #6C7674",
"H  c #8C795E",
"J  c #827E6C",
"K  c #6E853F",
"L  c #73853F",
"P  c #5C835B",
"I  c #6B8242",
"U  c #648148",
"Y  c #758442",
"T  c #658859",
"R  c #648A5B",
"E  c #778F5A",
"W  c #6D945C",
"Q  c #6D985C",
"!  c #759859",
"~  c #739C5C",
"^  c #77A25D",
"/  c #7BA45D",
"(  c #7EA95D",
")  c #598666",
"_  c #5D9264",
"`  c #4B8379",
"'  c #568C75",
"]  c #59857A",
"[  c #669764",
"{  c #6B9C62",
"}  c #709F63",
"|  c #6D8370",
" . c #669872",
".. c #76A465",
"X. c #73A572",
"o. c #98B74F",
"O. c #9BB94F",
"+. c #87A55B",
"@. c #83AC5D",
"#. c #8BAD5C",
"$. c #92AC5B",
"%. c #8EB256",
"&. c #87B059",
"*. c #8BB159",
"=. c #94B553",
"-. c #9BB654",
";. c #9CB851",
":. c #94B25A",
">. c #9BB359",
",. c #99B859",
"<. c #A2B655",
"1. c #A9B757",
"2. c #A4B852",
"3. c #AAB954",
"4. c #A3B559",
"5. c #AAB759",
"6. c #ABB85B",
"7. c #B1B857",
"8. c #9A8565",
"9. c #879778",
"0. c #A78D69",
"q. c #93B368",
"w. c #8EA075",
"e. c #92A273",
"r. c #A5BC6B",
"t. c #AFA27B",
"y. c #A3B773",
"u. c #C8A876",
"i. c #AEC376",
"p. c #3D7D80",
"a. c #5E6F86",
"s. c #587C80",
"d. c #647886",
"f. c #3E888B",
"g. c #5B8484",
"h. c #578985",
"j. c #5E8B8B",
"k. c #5A928B",
"l. c #488990",
"z. c #45979A",
"x. c #589897",
"c. c #688B88",
"v. c #798589",
"b. c #6B948C",
"n. c #629494",
"m. c #679896",
"M. c #669C9C",
"N. c #6A9D9D",
"B. c #789B96",
"V. c #44A09F",
"C. c #6BA29C",
"Z. c #78A597",
"A. c #489BA2",
"S. c #5A9CA4",
"D. c #6D9EA2",
"F. c #45A4A4",
"G. c #47ABA9",
"H. c #4AAAA9",
"J. c #57A9AA",
"K. c #5BB4B0",
"L. c #6BA2A2",
"P. c #68A9AD",
"I. c #71A5A4",
"U. c #73AAAB",
"Y. c #76ABAB",
"T. c #73B2AF",
"R. c #7DB4B4",
"E. c #78B9B7",
"W. c #7BC5BC",
"Q. c #828B8D",
"!. c #8C9694",
"~. c #909596",
"^. c #A69F81",
"/. c #AB9E84",
"(. c #81B286",
"). c #84A59B",
"_. c #B8AF8B",
"`. c #A6A898",
"'. c #B2AD90",
"]. c #93B0A7",
"[. c #82B7B7",
"{. c #86BDBC",
"}. c #A2ABAB",
"|. c #ABB4B5",
" X c #B1B6BA",
".X c #C8BA8D",
"XX c #D1B683",
"oX c #D5BB87",
"OX c #B6C891",
"+X c #87C3BC",
"@X c #9AC4B7",
"#X c #A6CCBC",
"$X c #BAC9B3",
"%X c #CAC096",
"&X c #DBC490",
"*X c #D6CB9D",
"=X c #E2CE99",
"-X c #E5D29D",
";X c #CEC7A2",
":X c #E8D7A2",
">X c #EFE1AB",
",X c #AEB7C2",
"<X c #8BC6C3",
"1X c #9CCCC4",
"2X c #99D4C7",
"3X c #B8C1C3",
"4X c #ACD7C9",
"5X c #A8D8CB",
"6X c #B4DECC",
"7X c #B8E1CE",
"8X c #B9E6D4",
"9X c #BBE9D6",
"0X c #CDD1D5",
"qX c #C1EBD6",
"wX c #C2EDD9",
"eX c #C7F1DC",
"rX c #F6EED0",
"tX c #FCFAF1",
"yX c white",
/* pixels */
"G.G.G.G.G.G.G.G.G.G.G.G.G.G.G.G.G.G.G.G.G.G.G.G.G.G.G.G.G.G.G.G.G.G.G.G.G.G.G.G.G.G.G.G.G.G.G.G.G.G.G.G.G.G.G.G.G.G.G.G.G.G.G.G.",
"G.G.G.G.G.G.G.G.G.G.G.G.G.G.G.G.G.G.G.G.G.G.J.J.x.J.J.J.G.J.G.G.G.G.G.G.G.G.G.G.G.G.G.G.G.G.G.G.G.G.G.G.G.G.G.G.G.G.G.G.G.G.G.G.",
"G.G.G.G.G.G.G.G.G.G.G.G.G.G.G.G.G.G.G.G.G.K.  o k a.V t < d.H.H.G.G.G.G.G.G.G.G.G.G.G.G.G.G.G.G.G.G.G.G.G.G.G.G.G.G.G.G.G.G.G.G.",
"G.G.G.G.G.G.G.G.G.G.G.G.G.G.G.G.G.G.G.G.G.7 > r < z V a.a.x V H.G.G.G.G.G.G.G.G.G.G.G.G.G.G.G.G.G.G.G.G.G.G.G.G.G.G.G.G.G.G.G.G.",
"G.G.G.G.G.G.G.G.G.G.G.H.G.G.G.G.F.G.G.G.P.. r r a.a.a.c c a.c a.U.G.G.G.G.G.G.G.G.G.G.G.G.G.G.G.G.G.G.G.G.G.G.G.G.G.G.G.G.G.G.G.",
"G.G.G.G.G.z.0 M q C C g.M C k.k.) N v N d.: r a.a.a.a.a.c t c a.k ).k.k.j.C v N T d N R ` ` h.k.` ) M C p.0 0 q F.G.G.G.G.G.G.G.",
"G.G.G.G.f.5 # ( W ~ R X.W ( &.^ ( ^ E }   < r a.a.a.a.a.a.a.t a.a.9.@.*.~ Q @.@.%.( / %.+.~ ( ....( R ~ s ( ! U 8 z.G.G.G.G.G.G.",
"G.G.G.G.0 ! W *.:.4.4.1.<.@.=.O.2.:.:.q.  t r r * o * k a.a.x z c 9.2.>.*.:.=.%.o.o.O.3.3.=.-.>.2.,.&.*.! @.@.! W M f.G.G.G.G.G.",
"G.G.G.G.0 f +.6.3.2.3.=.=.%.;.3.3.3.3.w.  > r r *     o x a.c k , | 5.3.3.-.*.%.%.:.*.=.;.O.O.,.:.%.*.-.4.>...^ P M z.G.G.G.G.G.",
"G.G.G.G.0 W ( :.;.=.=.O.=.=.;.=.;.:.y     * r r < *     < a.k :   y.=.:.o.O.=.=.;.2.=.O.O.;.o.;.;.o.=.=.3.>.@.@.P C G.G.G.G.G.G.",
"G.G.G.G.C s +.4.1.:.-.=.=.%.%.%.$.9.. r : . < r < . a   t x < . 8.j i.*.=.O.O.=.%.=.O.;.3.4.r.OX3X!.*.=.%.{ Q Q R v F.G.G.G.G.G.",
"G.G.G.G.8 } @.4.1.1.2.3.1.<.:.:.q.  , r < * t r * H _.H r r a 0.u.=Xu.OXO.O.O.o.=.:.=.=.,.OX X|.}.m -.>.:.:.@./ ^ M z.G.G.G.G.G.",
"G.G.G.G._ X.@.@.#.<.2.=.=.*.-.-.;.  < t r O r < . /.&XXXu.u.u.XX=X&Xu..XO.O.O.o.;.<.-.%.i. X~.}.~.m $.2.,.3.<...{ M ` G.G.G.G.G.",
"G.G.G.G.] Z.X.[ { @.=.o.O.O.=.=.=.  t < r . r * <     J J J >X>X>X=X-Xu.i.O.O.o.=.o.o.&.$X3X~. X!.m o.=.o.;.:.X.` h.h.G.G.G.G.G.",
"G.G.G.G.] { { ^ #.=.=.<.O.=.%.*.#.w : r r r <   =Xu.H H .X>X>X>Xt.&X>XoXi.=.%.&.=.=.=.OX3X3X X].~.z ;.#.%.:.:..._ x.B G.G.G.G.G.",
"G.G.G.G.h.} ....=.3.-.1.1.=.=.=.:.t.  : r , * < XXu.XXoX>X>X>X>X  J >X-Xt.o.%.%.=.=.O.3X}.3X3X!.F u o.%.,.2.4.@.{ v 9 G.G.G.G.G.",
"G.G.G.G.A ^ ( %.-.2.;.:.;.=.;.O.2.2.w.        9.oXu.u.oX>X>X>X>Xw i >X>X@ %.%.%.%.o.OX|.!.|.|.!.p e.;.O.;.2.4./ Q g 0 G.G.G.G.G.",
"G.G.G.G.g ( :.,.;.=.=.-.;.=.=.;.-.;.;.r.e.    G u.u.u.=X>X>X>X>XJ   >X_.y o.-.>.2.O.OX}.!.|.~.!.+ y.%.;.-.-.4.E P T 7 G.G.G.G.G.",
"G.G.G.G.y ..#.$.:.=.@.#.%.=.o.y.  y >.=.%.y.  -Xu.u.u..X/./.^.^.i   i   2 w.=.=.%.%.}.!.~.}.~.F p %.;.O.o.=.$.E W ~ g G.G.G.G.G.",
"G.G.G.G.g / g ~ >.2.o.=.=.=.r.  yXz y ;.O.y.e &Xu.oX>X.Xw               .X  O.O.=.r.G !.}.}.~.; y.=.=.=.=.+.! E g d 6 G.G.G.G.G.",
"G.G.G.G.s g g W @.=.;.=.=.%.w.; k 0X|.  e.w J XXu.u.u.oX>X>XJ       w _.oX  e.O.o.j Z !.}.!.G   o.%.*.%.%.%.o.1.! T 7 G.G.G.G.G.",
"G.G.G.G.5 g W ~ >.-.2.<.-.%.y.^./.a d.yX XF a e H J H 0.u.oX=X>X>X  .X&Xu.e e.-.y.. v.Q.v.!.* G <.,.=.2.2.<.>.$.W N 9 G.G.G.G.G.",
"G.G.G.G.4 M g ..4.7.2.%.:.%.2.i a.Q.*X9.rXtXyXyX~.Q.~.e u.u.u.u.>X  >Xu.u.j m *.j z !.F !.F   ;.*.=.%.2.3.7.4.! 4 s.S G.G.G.G.G.",
"G.G.G.G.v ) Q ( *.>.-.o.=.=.=.i a.a.a.Q.%X>XrXrXyXyX0Xe u.u.u.u.>X. >Xu.u.$ = e.  !.!.G ~.4 w.;.O.=.%.=.=.:.:./ T s 2 G.G.G.G.G.",
"G.G.G.G.7 ^ Q { :.1.2.2.3.2.*.i a.a.a.a.`.>X>X>X>XyXa.e u.u.u.u.>X+ >Xu.e - O 2 z v.4 G Q.p O.2.3.2.=.*.:.&.+.~ / s - G.G.G.G.G.",
"G.G.G.G.8 _ ^ ( :.3.3.3.4.-.1.i a.a.a.a.`.>X>X>X>XrX,X- < 8.u.u.>X>X>X; O   a.O = > * m t e.O.3.1.4.4.1.@.{ } P f 3 1 G.G.G.G.G.",
"G.G.G.G.M _ ^ } ^ #.=.-.%.%.;.i Q.a.a.a.`.&X>X>X>X>X,X:     e 8.XX=Xe * 4   * c x = o k 2 e.e.r.=.%.*.-./ } { { ~ W 2 G.G.G.G.G.",
"G.G.G.G.M q _ { [ [ ^ *.&.=.=.i >X;Xd.a.`.u.-X>X>X>Xa.- 4 x O       * x .       > < :       t   r.O.2.;.%.%.@.( { b.B G.G.G.G.G.",
"G.G.G.G.S M _ ..( @.*.2.;.=.=.G >X>X-X/.!..XoX&X>X>XQ.k * r t z r , k : , *   j @ @ O < = : a.4 y.<.<.:.-.-.4.! R A M G.G.G.G.G.",
"G.G.G.G.B P +.:.,.,.<.-.-.=.o.e..X>X:Xu.u.~.a.Q.`.>XG l * r r r r < t r < t   * u.u.@   O < x   ;.-.o.=.2.3.:.W P d 1 G.G.G.G.G.",
"G.G.G.G.N P @.1.3.*.=.1.>.*.%.y.w >X>XXXu.!.a.a.c *   l * r r r r r r r < :     8.8.y r.F     r.1.:.*.=.-.>.3.%./ T 4 G.G.G.G.G.",
"G.G.G.G.T W ( -.<.;.%.=.2.;.O.=.G t.>X-XoX~.a.a.a.}.  k * r r r r r : : *   : :   y r.o.:.=.=.%.;.;.o.O.=.-.7.:.( Q d G.G.G.G.G.",
"G.G.G.G.d d Q ( @.%.@.%.%.=.O.O.o.j .X>X=Xa.a.a.a._.= 4                   X . +   %.&.=.>.:.%.@.%.%.O.O.O.2.7.:.~ ~ d G.G.G.G.G.",
"G.G.G.G.P ~ ^ @.-.;.=.=.=.%.=.%.%.%.G >X>XV a.a.`.y x X # # # # # y h # X K $ e.y.O.o.O.2.2.;.=.=.%.=.=.%.#.:.$./ g 7 G.G.G.G.G.",
"G.G.G.G.d @.@.:.>.1.;.=.o.%.=.=.%.&.w.w >Xl a.a.J     & L I I I h I U % # % K O.;.O.2.3.1.:.O.-.=.=.%.=.=.:.>.>.@.W l G.G.G.G.G.",
"G.G.G.G.d P W @.:.=.2.-.=.%.<.O.2.;.<.w.; , v.'.@ X & K L I I I I Y L Y Y I &.=.=.-.=.;.;.O.O.2.=.=.%.2.2.1.:.@.[ M v G.G.G.G.G.",
"G.G.G.G.]  .Q :.3.>.-.O.=.%.=.%.:.#.o.O.o.y |   @ I L Y I I K I K K K h I ,.O.O.o.;.;.;.2.;.=.O.;.=.%.o.>.#.@.(  . .v G.G.G.G.G.",
"G.G.G.G.] Q @.1.5.:.;.=.=.=.%.%.=.=.o.O.=.r.e.e.=.Y L h Y I K I U U I #.,.o.O.=.*.%.o.,.3.4.>.=.o.=.%.:.#._ _ _ [ N 7 G.G.G.G.G.",
"G.G.G.G.n R #.5.1.O.;.3.3.1.:.:.:.;.O.O.O.O.-.o.=.o.O.,.4.4.6.6.:.*.:.,.O.O.O.O.o.=.o.=.O.o.;.3.2.3.<.*.&.@.@...{ R u G.G.G.G.G.",
"G.G.G.G.u } @.*.>.2.2.<.4.:.4.6.3.2.2.2.;.%.%.>.%.%.=.O.O.1.4.>.>.1.3.3.2.2.O.=.=.>.:.&.*.o.O.<.<.>.>.1.-.3.4.#.W d 1 G.G.G.G.G.",
"G.G.G.G.1 g W +.7.1.O.o.=.=.=.;.;.2.O.O.O.O.O.O.-.=.o.;.O.O.=.=.=.;.;.O.O.O.O.O.;.2.;.=.o.;.O.O.;.;.=.=.<.<.%.( } g + G.G.G.G.G.",
"G.G.G.G.3 f ! ! 4.>.2.<.<.=.%.:.:.:.:.:.%.>.>.;.=.*.%.-.<.;.2.O.=.*.=.=.=.=.=.%.=.=.;.@.>.-.;.2.3.7.,.&.:.@.*.^ T # = G.G.G.G.G.",
"G.G.G.G.2 + T @./ / ( ~ ( / @.&.#.( ( ( @.@.<.1.:.( @.*.:.T E ( ~ @.#.>.4.4.>.=.-.6.$./ :.>.@.:.:.+.^ % U P @.U = B - G.G.G.G.G.",
"G.G.G.G.- 3 T U s  .' g / g Q [ ~ T ( W Q ~ ( +.} ^ ..&...R d v g W P _ E +.~ *.@.~ ~ g Q ( ..&...R 8 2 3 2 f s 9 k.1 G.G.G.G.G.",
"G.G.G.G.1 D.A v M.R.[.g.) v M ` g 0 ) v d W R ) ) X.(.Z.b.A n.j.v M ` M 8 d R g W N ) v  .{ ' b.C.' C.C.L.k.M M j.B = G.G.G.G.G.",
"G.G.G.G.- b.Y.T.{.{.R.I.D.L.' S N.U.R.C.j.7 7 k.C.I.I.T.{.{.<Xc.1 m.Y.T.m.C.m.S 4 m.R.L.[.L.M.U.<X+X<X<X{.Y.R.{.N.5 . G.G.G.G.G.",
"G.G.G.G.- u A N.L.M.L.R.{.R.b S {.{.R.U.M.Z 4 D.E.U.L.R.E.R.U.j.u A I.L.T.R.T.c.b M.L.I.U.U.N.- d.Y.E.T.L.P.T.L.b . 5 G.G.G.G.G.",
"G.G.G.G.0 b Z n.M.M.M.L.N.n.6 l n.M.M.M.M.g.b c.L.M.M.M.D.M.S.M.n S M.M.C.M.M.n.B N.N.M.M.L.c.7 h.M.M.M.M.M.m.S 6 + f.G.G.G.G.G.",
"G.G.G.G.T.+ 7 A m.M.M.M.M.M.u 4 s.M.M.M.M.g.6 n.N.M.M.M.M.M.D.j.- b N.N.L.L.M.j.7 n.L.M.M.M.Z 4 g.M.M.M.L.I.I.c.u l J.G.G.G.G.G.",
"G.G.G.G.+X+ Z m.N.n.C.D.M.j.v - n.M.M.M.n.b - n.M.M.M.M.j.n.j.S l u Y.R.U.L.M.m.6 n.M.M.M.S.S 1 g.k.M.M.L.R.Y.g.6 A K.G.G.G.G.G.",
"G.G.G.G.@X1 g.[.<X[.Y.D.M.M.g.6 j.M.M.U.R.D.4 S M.M.M.C.n.M.M.M.h.- x.N.M.M.M.m.l m.M.M.M.M.s.n M.M.M.M.M.N.n.B 2 B.J.H.G.G.G.G.",
"G.G.G.G.2X6 m g.L.L.M.M.m.D.k.b S M.L.U.U.m.u c.n.M.L.M.M.M.M.M.g.6 j.M.M.M.M.M.Z C.M.M.M.M.s.g.M.M.M.M.M.M.g.b - N.H.H.G.G.G.G.",
"G.G.G.G.2X6 n S M.M.M.M.M.M.M.B g.M.M.M.M.j.6 Y.[.[.T.D.M.M.M.M.D 6 j.C.M.M.M.m.h.N.M.M.M.M.g.g.M.M.M.M.M.m.Z p 1 +XG.G.G.G.G.G.",
"G.G.G.G.+Xc.u B k.M.M.M.M.M.n.B j.M.M.M.C.j.6 c.Y.L.M.M.M.M.M.j.S u g.M.M.L.L.n.Z x.M.M.M.M.S S n.M.M.M.M.j.B 4 G 5XH.G.G.G.G.G.",
"G.G.G.G.K.6Xc.6 B c.n.m.M.k.Z b j.M.M.M.n.A b m n.M.M.M.m.M.k.m.j.v S M.M.M.M.g.Z n.M.M.m.c.B b j.M.M.M.n.s.b c.9X2XG.G.G.G.G.G.",
"G.G.G.G.H.W.9X].c.j.g.n.N.B.).B.A g.j.n.k.D B.n B S j.c.Z Z Z B c.!.m.k.g.D S m B.A g.g.s.Z b.Z.c.s.S S j.c.].9X9XW.G.G.G.G.G.G.",
"G.G.G.G.G.K.2X6X7X4X|.5X6X9XwXwX).b.b.B.].4XqX#X).c.D D A c.!.@X6XwX@Xb.b.c.!.@X9X4X].b.b.].8X7X6X#X@X].].1XwX9X2XG.G.G.G.G.G.G.",
"G.G.G.G.G.G.F.S.P.U.[.8X5X5X9X9X9X9XqXwXeX9XE.+X6X6X7X6X7X6X5X1X8XwX8X9XwXqXeXeX{.{.1X6XwXeX9X9X5X1X5X5X2XT.E.K.G.G.G.G.G.G.G.G.",
"G.G.G.G.G.G.G.G.F.A.z.S.D.A.P.E.2X9X9X6X2XT.V.G.J.P.{.R.I.x.z.z.S.W.2X9X8X8X5XW.A.f.A.J.R.+XE.K.J.A.A.A.J.J.G.G.G.G.G.G.G.G.G.G.",
"G.G.G.G.G.G.G.G.G.G.F.z.z.z.G.G.x.k.x.l.q C 0 q l.z.F.F.l.z.l.z.z.V.J.K.J.x.f.q q q s.f.z.G.F.G.F.z.z.H.F.H.G.G.G.G.G.G.G.G.G.G.",
"G.G.G.G.G.G.G.G.G.G.G.G.G.G.G.G.G.G.G.G.G.G.G.G.G.G.G.G.G.G.G.G.G.G.G.G.G.G.G.G.G.G.G.G.G.G.G.G.G.G.G.G.G.G.G.G.G.G.G.G.G.G.G.G.",
"G.G.G.G.G.G.G.G.G.G.G.G.G.G.G.G.G.G.G.G.G.G.G.G.G.G.G.G.G.G.G.G.G.G.G.G.G.G.G.G.G.G.G.G.G.G.G.G.G.G.G.G.G.G.G.G.G.G.G.G.G.G.G.G.",
"G.G.G.G.G.G.G.G.G.G.G.G.G.G.G.G.G.G.G.G.G.G.G.G.G.G.G.G.G.G.G.G.G.G.G.G.G.G.G.G.G.G.G.G.G.G.G.G.G.G.G.G.G.G.G.G.G.G.G.G.G.G.G.G.",
"G.G.G.G.G.G.G.G.G.G.G.G.G.G.G.G.G.G.G.G.G.G.G.G.G.G.G.G.G.G.G.G.G.G.G.G.G.G.G.G.G.G.G.G.G.G.G.G.G.G.G.G.G.G.G.G.G.G.G.G.G.G.G.G."
};
