/* XPM */
static char *out[] = {
/* columns rows colors chars-per-pixel */
"64 64 229 2 ",
"   c #161C2E",
".  c #1D2435",
"X  c #212537",
"o  c #292B36",
"O  c #24293B",
"+  c #2C3333",
"@  c #28333B",
"#  c #3E4D35",
"$  c #455434",
"%  c #576838",
"&  c #68793C",
"*  c #2C2E41",
"=  c #293143",
"-  c #2A3B47",
";  c #2E374B",
":  c #353549",
">  c #393B48",
",  c #3E3C50",
"<  c #423F40",
"1  c #2D414B",
"2  c #35474B",
"3  c #3D5548",
"4  c #394854",
"5  c #2C545B",
"6  c #3E5157",
"7  c #3C585A",
"8  c #3B635C",
"9  c #3B5D63",
"0  c #396968",
"q  c #387277",
"w  c #4F4E47",
"e  c #4B4C4D",
"r  c #434055",
"t  c #444958",
"y  c #4B5550",
"u  c #42595B",
"i  c #5E5D57",
"p  c #4C674A",
"a  c #56744D",
"s  c #47675A",
"d  c #5A695A",
"f  c #55765B",
"g  c #587B5B",
"h  c #627F46",
"j  c #6F6252",
"k  c #626D5E",
"l  c #454E63",
"z  c #4A4D63",
"x  c #465865",
"c  c #525765",
"v  c #50576D",
"b  c #4C5A70",
"n  c #555F75",
"m  c #456765",
"M  c #4B6465",
"N  c #4C6B6C",
"B  c #546B6B",
"V  c #48776A",
"C  c #537667",
"Z  c #4F6F71",
"A  c #57677A",
"S  c #467876",
"D  c #547574",
"F  c #587A76",
"G  c #567B7B",
"H  c #5A7D7D",
"J  c #646B72",
"K  c #6B7270",
"L  c #767975",
"P  c #737C7D",
"I  c #8C795E",
"U  c #827E6C",
"Y  c #6E853F",
"T  c #70853E",
"R  c #5C835B",
"E  c #668143",
"W  c #6B8242",
"Q  c #60814F",
"!  c #748442",
"~  c #658859",
"^  c #648A5B",
"/  c #778F5A",
"(  c #6C935C",
")  c #6D985C",
"_  c #759859",
"`  c #739C5C",
"'  c #77A25D",
"]  c #7BA45D",
"[  c #7EA95D",
"{  c #598666",
"}  c #5D9264",
"|  c #4B8379",
" . c #568C75",
".. c #59857A",
"X. c #6D8D6A",
"o. c #669764",
"O. c #6B9C62",
"+. c #669872",
"@. c #76A465",
"#. c #73A572",
"$. c #98B74F",
"%. c #9BB94E",
"&. c #87A55A",
"*. c #83AC5D",
"=. c #8BAE5C",
"-. c #92AC5B",
";. c #8EB256",
":. c #87B05A",
">. c #8BB159",
",. c #94B553",
"<. c #9BB654",
"1. c #9CB850",
"2. c #94B25A",
"3. c #9BB359",
"4. c #9BB859",
"5. c #A3AE57",
"6. c #A2B655",
"7. c #A9B757",
"8. c #A4B952",
"9. c #AAB954",
"0. c #A3B559",
"q. c #AAB659",
"w. c #AAB85B",
"e. c #B1B857",
"r. c #939370",
"t. c #AA906A",
"y. c #86A86A",
"u. c #9AB666",
"i. c #91A274",
"p. c #98A476",
"a. c #9CB676",
"s. c #A5BC6A",
"d. c #A9A17C",
"f. c #A2B673",
"g. c #ACB775",
"h. c #C8A876",
"j. c #CCAE7B",
"k. c #CEB17E",
"l. c #ADC373",
"z. c #3D7D80",
"x. c #5E6F86",
"c. c #587C80",
"v. c #6B7D8A",
"b. c #3E888B",
"n. c #5B8484",
"m. c #578985",
"M. c #5E8B8B",
"N. c #5A928B",
"B. c #488990",
"V. c #45979A",
"C. c #599896",
"Z. c #678B89",
"A. c #79878A",
"S. c #6B938D",
"D. c #629494",
"F. c #679896",
"G. c #669C9C",
"H. c #6A9D9D",
"J. c #789B96",
"K. c #44A09F",
"L. c #6BA29C",
"P. c #78A597",
"I. c #489BA2",
"U. c #5A9BA5",
"Y. c #6D9EA2",
"T. c #45A4A4",
"R. c #47ABA9",
"E. c #4AAAA9",
"W. c #56A8A9",
"Q. c #5AB3B0",
"!. c #6BA2A2",
"~. c #68A9AD",
"^. c #71A5A4",
"/. c #73AAAB",
"(. c #76ABAB",
"). c #77B0AE",
"_. c #66B4B2",
"`. c #7DB4B4",
"'. c #78B9B7",
"]. c #7BC5BC",
"[. c #8F9594",
"{. c #8C9695",
"}. c #A69F81",
"|. c #8EB285",
" X c #84A59B",
".X c #B8AF8B",
"XX c #A4B583",
"oX c #A8A997",
"OX c #BBB89B",
"+X c #939FAE",
"@X c #9BA5A5",
"#X c #91B5A9",
"$X c #82B7B7",
"%X c #86BDBC",
"&X c #A2ABAC",
"*X c #ABB4B5",
"=X c #B0B7BA",
"-X c #C6B788",
";X c #D2B783",
":X c #B8C98D",
">X c #87C3BC",
",X c #9AC4B7",
"<X c #A6CCBC",
"1X c #BDC8B7",
"2X c #DBC490",
"3X c #D5C99B",
"4X c #E2CE99",
"5X c #E5D29D",
"6X c #CAC4A1",
"7X c #E8D7A2",
"8X c #EFE1AB",
"9X c #F1E6B9",
"0X c #8BC6C3",
"qX c #9CCCC4",
"wX c #99D4C7",
"eX c #B8C1C3",
"rX c #ACD7C9",
"tX c #A8D8CB",
"yX c #B4DECC",
"uX c #B8E1CE",
"iX c #B9E6D4",
"pX c #BBE9D6",
"aX c #D1D3D6",
"sX c #C1EBD6",
"dX c #C2EDD9",
"fX c #C7F1DC",
"gX c #F6EFD3",
"hX c #F3F2EA",
"jX c white",
/* pixels */
"R.R.R.R.R.R.R.R.R.R.R.R.R.R.R.R.R.R.R.R.R.R.R.R.R.R.R.R.R.R.R.R.R.R.R.R.R.R.R.R.R.R.R.R.R.R.R.R.R.R.R.R.R.R.R.R.R.R.R.R.R.R.R.R.",
"R.R.R.R.R.R.R.R.R.R.R.R.R.R.R.R.R.R.R.R.R.R.R.R.R.R.R.R.R.E.R.R.R.R.R.R.R.R.R.R.R.R.R.R.R.R.R.R.R.R.R.R.R.R.R.R.R.R.R.R.R.R.R.R.",
"R.R.R.R.R.R.R.R.R.R.R.R.R.R.R.R.R.R.R.R.R.R.R.R.Q.~.Z.4 z v.Y._.R.R.R.R.R.R.R.R.R.R.R.R.R.R.R.R.R.R.R.R.R.R.R.R.R.R.R.R.R.R.R.R.",
"R.R.R.R.R.R.R.R.R.R.R.R.R.R.R.R.R.R.R.R.R.R.R._.  * 4 x.x.x.x.z v._.R.R.R.R.R.R.R.R.R.R.R.R.R.R.R.R.R.R.R.R.R.R.R.R.R.R.R.R.R.R.",
"R.R.R.R.R.R.R.R.R.R.E.E.R.R.R.R.T.R.R.R.R.R.~.  , < r v x.x.x.x.x.< _.R.R.R.R.R.R.R.R.R.R.R.R.R.R.R.R.R.R.R.R.R.R.R.R.R.R.R.R.R.",
"R.R.R.R.R.V.0 V 0 c.S n.V S N.N.{ C m C C X.  : < n v x.x.b z z v A n N.M.S m C ~ s f } | | m.N.S { V S z.0 8 q K.R.R.R.R.R.R.R.",
"R.R.R.R.b.5 # [ ) ` ^ #.) [ :.' [ ' ` ` *.u.  r v x.x.x.x.x.x.x.z v v a.` ) *.*.>.*.' ;.] _ [ ] y.*.^ ` p ] _ Q 8 V.R.R.R.R.R.R.",
"R.R.R.R.0 _ ( >.>.4.5.7.6.*.,.%.1.2.<.2.,.f.X z z v z r r z x.x.x., A p.>.2.,.>.1.$.%.9.9.<.2.3.6.;.:.>._ *.*.` ~ V V.R.R.R.R.R.",
"R.R.R.R.0 a &.w.7.8.8.2.;.>.6.9.9.9.9.;.*.a.* < r < O     : z x.x., 4 d.8.1.:.>.;.2.>.,.%.%.8.1.4.>.,.3.0.2.*.` R V V.R.R.R.R.R.",
"R.R.R.R.0 ( [ 2.1.,.$.1.$.,.$.,.,.,.$.$.$.X.  : r r r *   * r x.z :   =.$.$.$.$.$.8.1.%.1.1.,.1.$.,.,.,.9.2.*.*.^ S R.R.R.R.R.R.",
"R.R.R.R.S p &.6.q.2.6.$.,.>.;.;.3.>.,.s.  *   X r r <   < . < v <   U j l.%.%.,.;.,.,.1.9.6.<.,.,.;.>.,.2.O.o.` ^ V K.R.R.R.R.R.",
"R.R.E.E.0 O.*.0.9.6.6.8.8.<.4.4.3.1.8.  : < ,   r : X I ;Xj z < J t.j.5Xh.l.%.$.,.2.,.,.,.1.%.8.8.:X1X*XXX=.[ ' ` V V.R.R.R.R.R.",
"R.R.R.R.{ #.@.*.=.6.8.$.2.>.<.6.<.%.f.O r r r   r O   }.;Xj.h.h.h.;X7X;Xh.-X%.$.1.8.1.;.,.%.1.:X1X*X&XP XX9.4.*.O.V | R.R.R.R.R.",
"R.R.R.R.+.P.#.O.O.*.,.$.%.%.,.,.$.$.f.o r r r   r   r   : U U }.8X8X7X4X5X-X%.%.,.1.,.;.;.,.,.1X&X{.@XP XX8.2.#.| m.m.R.R.R.R.R.",
"R.R.R.R...O.O.' :.,.;.6.1.$.;.:.=.2.}.O r r , , * U 2X;XI t.-X8X8X8X}.8X8X;Xa.:.;.;.,.:.;.$.:XeX=X@X@XP |.2.;.#.} D.N R.R.R.R.R.",
"R.R.R.R.m.O.@.@.2.9.6.7.6.$.;.,.<.<.f.  r r r < X .Xh.h.h.2X9X8X8X8X  -X8X2Xd.;.,.1.8.9.%.8.=X1XeX*X{.P XX8.7.*.O.m 9 R.R.R.R.R.",
"R.R.R.R.D ' *.;.1.1.1.2.<.$.1.%.8.8.$.d X , < *   8Xh.h.h.2X8X8X8X8X+ U 8X-X  ,.=.4.<.<.0.:X=X=XeX&X{.K f.6.0.[ ) f 0 R.R.R.R.R.",
"R.R.R.R.g [ >.4.1.,.,.<.<.;.,.%.,.8.$.$.i.d     o 2Xh.h.h.8X8X9X8X8Xj   8Xi X.4.8.1.1.1.l.eX{.&X=X[.v.y <.<.0./ g ~ 7 R.R.R.R.R.",
"R.R.R.R.y @.-.&.2.3.:.:.,.,.1.%.%.%.y k >.2.&.i.c ;Xh.h.h..XU U U U >         d ;.;.:.,.:X&X{.&X@X{.4 s.1.,.&./ ) ' f R.R.R.R.R.",
"R.R.R.R.f *.g ` 3.8.$.,.,.,.$.;.;.k J   k ,.,.i.U h.h.;X8X-X<             > 8X  ,.$.1.4.&X{.{.*X{.{.y $.:.&.&._ f s 6 E.R.R.R.R.",
"R.R.R.R.u R f ( *.,.1.;.,.>.,.;.i.  J aX[.i u.  t.;Xh.h.;X;X4X4X}.i e   i 2Xj.  a.%.8.g.< [.{.@X{., p.;.;.;.1.0._ ~ 7 R.R.R.R.R.",
"R.R.R.R.3 f ) ` 3.<.9.6.6.;.1.8.p.U U c aXaXz   w I h.h.h.h.h.;X2X8X}.  8Xj.h.j f.$.%.  B {.B [.K   u.6.8.6.3.-.( C 9 R.R.R.R.R.",
"R.R.R.R.5 V C [ 0.e.8.;.,.;.4.8.p.U v..XU *XjXjX=X[.        h.h.h.h.}.  8Xh.h.j a.2.i.  {.{.P {.> k ,.8.9.9.w._ 4 c.G R.R.R.R.R.",
"R.R.R.E.m { ) ] >.3.<.$.,.;.,.2.i.U x.x.{.OX7XgXgXhXjXjXhX  h.h.h.h.}.  8Xh.t.r 4 1.y J {.K {.P   u.;.,.4.2.2.' ~ p 2 R.R.R.R.R.",
"R.R.R.R.7 ' ) O.4.q.8.8.9.8.>.>.i.U x.x.x.x.8X8X8X8X8XgX+X  .Xj.h.h.}.< 9Xt.  < * B : {.J P {.4 p.8.<.>.2.>.&.` ] p - R.R.R.R.R.",
"R.R.R.R.7 } ' [ 2.8.9.8.0.3.7.q.p.U x.x.x.x.8X8X8X8X8XgX+X  < I h.h.8X8X8Xo ; ; ;   e P @ P A.= 6.0.6.8.*.O.O.R a 3 1 R.R.R.R.R.",
"R.R.R.R.| } @.` ] *.2.1.;.;.<.1.i.U v.x.x.x.4X7X8X8X8X9X+X  ; O w j r.r.: b ;   x x : o O B e r.,.>.>.4.] ` O.O.) ) 2 R.R.R.R.R.",
"R.R.R.R.V 0 } O.o.o.] >.:.,.,.;.i.U 8XoXx.x.2Xh.7X8X8X8Xx.  l x.4 *     b r X   y = z z O     e   k 8.1.;.>.*.[ O.S.Z R.R.R.R.R.",
"R.R.R.R.G V } @.[ *.;.6.1.,.,.>.a.e 8X8X5X[.oX2Xk.5X8X8XA.= , < v x.x.v v * r   e j   X , : . O x.= g.2.,.<.0._ ^ D Z R.R.R.R.R.",
"R.R.R.R.N g *.2.<.4.8.3.<.,.,.1.6.y 3X8X4Xh.4Xx.[.-XOX7XP 4 * r r r r r < r r * w e j U o O : ; x.; a.1.9.9.2.( R f 1 R.R.R.R.R.",
"R.R.R.R.f ^ *.q.9.>.;.6.3.>.;.1.<.p.U 8X8Xj.2Xx.x.x.n = ; 4 * r r r r r r r r O     h.h.+ i.  O = k =.,.1.<.7.;.' R 4 R.R.R.R.R.",
"R.R.R.R.~ ) ] 3.6.<.,.,.8.%.%.$.;.%.k 8X8X2X5Xx.x.x.x.&X; 4 * r r r r r r ; X   ,   < < i.<.,.i.i.1.$.%.,.3.e.2.[ ` s R.R.R.R.R.",
"R.R.R.R.s s ` [ *.;.:.>.;.,.%.%.%.%.a.U 8X5XOXx.x.x.x..X4 ; . O O O o X         , : y a.1.2.;.*.;.;.$.%.%.%.e.3.` ` s R.R.R.R.R.",
"R.R.R.R.~ ) ` *.2.1.,.$.,.;.,.;.;.,.;.s.w 8X[.x.x.x.6Xe 4 + # # $ 2 $ % h + + % X   s.%.9.8.1.,.,.;.,.,.>.2.3.=.] f 7 R.R.R.R.R.",
"R.R.R.R.s [ *.,.<.6.1.2.$.>.;.,.;.:.,.,.k r.L J x.6Xe   X Y ! E h & h h W $ $ % -.1.8.9.0.2.8.,.$.,.;.,.,.2.3.3.*.( x R.R.R.R.R.",
"R.R.R.E.s R ( ] 2.<.8.,.1.;.8.8.8.<.%.,.;.K   x.}.>   $ & W W E h ! ! ! ! ! Y & 2.<.,.1.1.1.%.8.2.,.;.8.8.9.2.*.o.V N R.R.R.R.R.",
"R.R.R.R...o.O.u.q.<.<.%.,.;.,.;.,.:.$.%.1.,.k e > + % W W W T E E E W h W T ! 4.$.1.%.%.1.8.,.%.%.,.;.,.<.=.*.@.+.+.m R.R.R.R.R.",
"R.R.R.R.n.) &.w.q.2.1.,.,.,.;.;.2.,.1.%.$.;.;.i.i.0.s.W ! W T W E E W E W <.%.,.:.,.,.<.9.3.3.,.$.,.;.;.=.} } o.o.C 7 R.R.R.R.R.",
"R.R.R.R.V ^ &.w.6.1.8.9.9.6.2.2.3.$.%.%.1.1.,.,.,.1.1.$.%.w.w.w.3.u.u.,.%.%.%.%.,.,.$.$.1.%.%.8.8.9.<.2.=.*.*.` ` R 7 R.R.R.R.R.",
"R.R.R.R.u ' *.-.3.1.8.8.0.2.0.q.7.8.8.8.1.,.,.6.>.:.;.1.8.8.3.3.0.q.9.9.8.8.%.,.2.4.2.:.>.$.8.9.8.3.3.7.<.7.0.=.O.s - R.R.R.R.R.",
"R.R.R.R.1 f ( &.e.e.%.1.,.,.,.1.%.8.8.1.%.1.%.8.,.$.$.1.%.%.,.,.,.1.%.%.%.%.%.1.1.8.1.,.,.%.%.%.1.4.,.,.<.8.;.*.` f . R.R.R.R.R.",
"R.R.R.R.3 a ( ] 3.<.8.6.1.;.>.2.3.;.;.2.>.<.3.$.,.:.;.4.6.1.9.1.,.*.,.<.,.,.,.;.,.,.1.*.4.6.,.8.9.9.6.:.2.=.:._ ~ 2 = R.R.R.R.R.",
"R.R.R.R.4 @ Q *.] ] *.] *.' *.=.=.*.[ [ *.*.6.8.2.[ *.;.2.~ / [ ` >.=.3.6.0.4.,.<.q.-.] 2.0.*.3.2.&.' a Q h *.R @ N - R.R.R.R.R.",
"R.R.R.R.@ 3 ~ Q p +...f ] g O.( ( ~ [ ( ) ` [ &.' O.[ [ @.~ s m g ) R { / &.` =.*.` ` f ) @.@.@.@.^ 3 2 7 2 a p s C.2 R.R.R.R.R.",
"R.R.R.R.1 ^.D m G.`.$Xc.{ m V | C 0 { m s ( ^ {  .@.|.P.S.G D.D.m V | V 8 s ~ R ( C { m +.O. .#.L. .L.G.L.N.V V M.Z - R.R.R.R.R.",
"R.R.R.R.1 S.(.).%X%X`.~.H.!...G L.^.`.!.M.7 9 M.!.!.~.).$X%X0XM.1 F.).).C.G.F.c.4 F.).!.$X!.G./.0X>X0X0X0X(.).%XH.5 . R.R.R.R.R.",
"R.R.R.R.- u F H.G.!.Y.'.0X).M G %X%X`./.H.D 2 Y.$X/.!.`.`.`./.M.6 H ^.!.).`.).n.M H.!./././.H.; n.).'.(.!.~.).!.x o 5 R.R.R.R.R.",
"R.R.R.R.0 M D F.G.G.G.!.!.Z.6 u F.G.G.G.G.n.M Z.!.G.G.H.G.G.G.C.N G G.G.L.G.L.D.Z H.G.G.G.Y.Z.7 n.G.G.G.G.G.D.G 6 @ b.R.R.R.R.R.",
"R.R.R.R.).@ 7 c.F.G.G.G.G.G.x 2 n.G.G.G.G.n.u F.G.G.G.G.H.G.G.M.; M H.Y.!.G.G.M.7 F.G.G.G.G.G 4 n.G.G.G.!.^.^.Z.u x W.R.R.R.R.R.",
"R.R.R.R.].= D S.H.F.H.!.G.M.M 1 D.G.G.G.C.M - N.G.G.G.G.C.D.Z.c.x u (.)./.!.G.D.6 N.!.G.G.C.G ; n.D.D.G.!.`.).c.6 G Q.R.R.R.R.R.",
"R.R.R.R.,X2 n.$X%X%X/.H.G.F.n.4 n.G.G./.).Y.t H G.G.G.G.D.G.F.G.n.1 C.H.G.G.G.F.x F.G.G.G.G.G N !.G.G.G.G.G.D.C 2 J.W.R.R.R.R.R.",
"R.R.R.R.wXt M n.!.!.G.G.G.L.D.M G G.!./.(.F.t Z.D.H.!.!.G.G.G.G.M.4 M.!.G.G.G.G.D G.G.G.!.G.c.n.G.G.G.G.G.G.n.M ; H.W.R.R.R.R.R.",
"R.R.R.R.wX4 B G G.G.G.G.G.G.C.D n.G.G.G.G.M.6 (.$X`.).H.G.G.G.G.H 6 M.G.G.G.G.G.n.H.G.G.G.G.n.M.G.G.G.G.G.F.D x 1 >XR.R.R.R.R.R.",
"R.R.R.R.0XZ.u C N.G.G.G.G.G.D.B M.G.G.G.G.M.6 Z.(.!.H.G.G.G.F.D.F u M.G.G.!.!.F.D C.G.G.G.G.G G C.G.G.G.G.M.Z 4 P tXE.R.R.R.R.R.",
"R.R.R.R._.tXZ.6 B M.D.F.F.D.F M M.G.G.H.D.F M B D.G.G.G.D.F.C.D.Z.x F G.G.G.G.n.D D.G.G.D.Z.N N M.F.G.G.D.c.M A.iXwXR.R.R.R.R.R.",
"R.R.R.R.R.].pX#XZ.Z.n.F.H.^.J.J.F n.M.N.D.H J.B Z H M.M.D G D B .. XD.N.c.H F N  XG n.n.H D S.P.Z.H G G M.S. XdXpX].R.R.R.R.R.R.",
"R.R.R.R.R.Q.wXyXuXrX<X<XyXpXdXfX XS.S.J.#XrXsX<X XX.H H F Z. X#XyXfX,XS.Z.Z. X#XpXrX#XA.S.#XuXyXyXrX#X#X,X,XpXpXwXR.R.R.R.R.R.R.",
"R.R.R.R.R.R.T.W.~.~.$XiXtXtXsXiXpXdXdXdXdXpX'.0XyXyXuXuXuXyXtXtXiXfXiXdXdXdXfXfX%X].qXyXdXfXdXpXrXqXtXyXqX`.'.Q.R.R.R.R.R.R.R.R.",
"R.R.R.R.R.R.R.R.R.I.V.U.U.I.U.>XwXpXiXiXwX).T.T.W.~.%X`.^.U.V.B.U.].wXpXpXpXtX>XV.b.I.W.`.>X_._.W.I.I.I.W.T.R.R.R.R.R.R.R.R.R.R.",
"R.R.R.R.R.R.R.R.R.R.I.V.V.I.T.R.C.B.C.B.q S 0 q b.I.T.I.V.B.B.V.V.K.W.Q.W.I.| z.q q c.b.I.R.T.R.R.V.V.T.E.E.R.R.R.R.R.R.R.R.R.R.",
"R.R.R.R.R.R.R.R.R.R.R.R.E.E.T.R.R.R.R.R.R.R.R.R.R.R.R.R.R.R.R.R.R.R.R.R.R.R.R.R.R.R.R.R.R.R.R.R.R.R.R.R.R.R.R.R.R.R.R.R.R.R.R.R.",
"R.R.R.R.R.R.R.R.R.R.R.R.E.E.R.R.R.R.R.R.R.R.R.R.R.R.R.R.R.R.R.R.R.R.R.R.R.R.R.R.R.R.R.R.R.R.R.R.R.R.R.R.R.R.R.R.R.R.R.R.R.R.R.R.",
"R.R.R.R.R.R.R.R.R.R.R.R.R.R.R.R.R.R.R.R.R.R.R.R.R.R.R.R.R.R.R.R.R.R.R.R.R.R.R.R.R.R.R.R.R.R.R.R.R.R.R.R.R.R.R.R.R.R.R.R.R.R.R.R.",
"R.R.R.R.R.R.R.R.R.R.R.R.R.R.R.R.R.R.R.R.R.R.R.R.R.R.R.R.R.R.R.R.R.R.R.R.R.R.R.R.R.R.R.R.R.R.R.R.R.R.R.R.R.R.R.R.R.R.R.R.R.R.R.R."
};
