/* XPM */
static char *out[] = {
/* columns rows colors chars-per-pixel */
"64 64 210 2 ",
"   c #1A2838",
".  c #202A38",
"X  c #24313E",
"o  c #28393D",
"O  c #293A46",
"+  c #2B3C46",
"@  c #303E48",
"#  c #2D414B",
"$  c #33424B",
"%  c #354A4A",
"&  c #3D5548",
"*  c #344550",
"=  c #354B52",
"-  c #3A4C52",
";  c #2C545B",
":  c #3E5157",
">  c #3A5B56",
",  c #3E545B",
"<  c #3C5C5D",
"1  c #3B635C",
"2  c #3B5D63",
"3  c #396968",
"4  c #366F73",
"5  c #3C787D",
"6  c #405541",
"7  c #425C52",
"8  c #41565A",
"9  c #435C5D",
"0  c #6B4B5B",
"q  c #4C674A",
"w  c #56744D",
"e  c #466659",
"r  c #4A6A5B",
"t  c #506C55",
"y  c #577857",
"u  c #55765B",
"i  c #577A5C",
"p  c #5A7D5B",
"a  c #445D61",
"s  c #446365",
"d  c #4B6465",
"f  c #436963",
"g  c #4A686A",
"h  c #4C6B6C",
"j  c #516E6D",
"k  c #467268",
"l  c #4A746B",
"z  c #447D6B",
"x  c #4B7C6B",
"c  c #517663",
"v  c #547769",
"b  c #4F6F71",
"n  c #506F70",
"m  c #467876",
"M  c #547574",
"N  c #587A76",
"B  c #567B7B",
"V  c #5A7D7D",
"C  c #677E7D",
"Z  c #90625D",
"A  c #AA7959",
"S  c #5E8050",
"D  c #5C835D",
"F  c #60814F",
"G  c #668754",
"H  c #61865C",
"J  c #648A5C",
"K  c #6A8E5D",
"L  c #778F5A",
"P  c #6A9359",
"I  c #6C935C",
"U  c #6E995E",
"Y  c #759859",
"T  c #739C5C",
"R  c #7DA357",
"E  c #75A25F",
"W  c #7BA45D",
"Q  c #7EA95D",
"!  c #5B8164",
"~  c #588968",
"^  c #5D9264",
"/  c #4B8379",
"(  c #568C75",
")  c #58867A",
"_  c #608667",
"`  c #649463",
"'  c #6B9C62",
"]  c #689966",
"[  c #709F63",
"{  c #63867A",
"}  c #659875",
"|  c #6DA16F",
" . c #72A261",
".. c #78A667",
"X. c #78A975",
"o. c #B09643",
"O. c #98B74F",
"+. c #9BB94F",
"@. c #82A55B",
"#. c #8EA55A",
"$. c #83AC5D",
"%. c #8BAE5C",
"&. c #93A359",
"*. c #92AE5B",
"=. c #8EB256",
"-. c #87B05A",
";. c #8BB159",
":. c #94B553",
">. c #9BB654",
",. c #9CB850",
"<. c #94B25A",
"1. c #9BB359",
"2. c #BFA954",
"3. c #A2B453",
"4. c #A2B655",
"5. c #A9B757",
"6. c #A4B852",
"7. c #AAB954",
"8. c #A3B559",
"9. c #AAB659",
"0. c #AEB858",
"q. c #B2B956",
"w. c #82AE62",
"e. c #85B271",
"r. c #D4C169",
"t. c #EAE178",
"y. c #3D7D80",
"u. c #587C80",
"i. c #3D8488",
"p. c #3F9293",
"a. c #478587",
"s. c #568485",
"d. c #5B8484",
"f. c #5B8C82",
"g. c #548D88",
"h. c #5E8B8B",
"j. c #56928B",
"k. c #5B928B",
"l. c #488E99",
"z. c #449396",
"x. c #48949B",
"c. c #459C9D",
"v. c #599896",
"b. c #688987",
"n. c #6E8B85",
"m. c #628D8D",
"M. c #718F88",
"N. c #65978A",
"B. c #73938C",
"V. c #629494",
"C. c #6A9796",
"Z. c #649A96",
"A. c #669C9C",
"S. c #6A9D9D",
"D. c #7E9D94",
"F. c #749A98",
"G. c #44A09F",
"H. c #75A98B",
"J. c #6BA397",
"K. c #6BA29D",
"L. c #489BA2",
"P. c #5A9BA5",
"I. c #659EA4",
"U. c #729FA1",
"Y. c #45A4A4",
"T. c #4BA7A7",
"R. c #47ABA9",
"E. c #4AACAA",
"W. c #56A8A9",
"Q. c #59B2AF",
"!. c #5CB6B2",
"~. c #6BA2A2",
"^. c #68A8AC",
"/. c #71A5A4",
"(. c #71A9A8",
"). c #73AAAB",
"_. c #79ADAD",
"`. c #77B2AD",
"'. c #79AEB0",
"]. c #68B6B2",
"[. c #7DB4B4",
"{. c #78B9B7",
"}. c #7BC5BC",
"|. c #84A59B",
" X c #8BADA2",
".X c #8EB3A8",
"XX c #91B3A7",
"oX c #82B7B7",
"OX c #86BDBC",
"+X c #99BEB1",
"@X c #87C3BC",
"#X c #9AC4B7",
"$X c #A6CCBC",
"%X c #F4F4A0",
"&X c #8BC3C3",
"*X c #8ACEC3",
"=X c #9CCCC4",
"-X c #99D4C7",
";X c #A4D5C9",
":X c #ACD7C9",
">X c #ADDCCE",
",X c #B4DECC",
"<X c #B8E1CE",
"1X c #B5E3D2",
"2X c #BBE6D4",
"3X c #B9E9D6",
"4X c #BBE9D6",
"5X c #C1EBD6",
"6X c #C2EDD9",
"7X c #C7F1DC",
/* pixels */
"R.R.R.R.R.R.R.R.R.R.R.R.R.R.R.R.R.R.R.R.R.R.R.R.R.R.R.R.R.R.R.R.R.R.R.R.R.R.R.R.R.R.R.R.R.R.R.R.R.R.R.R.R.R.R.R.R.R.R.R.R.R.R.R.",
"R.R.R.R.R.R.R.R.R.R.R.R.R.R.R.R.R.R.R.R.R.R.R.R.R.R.R.R.R.R.R.R.R.R.R.R.R.R.R.R.R.R.R.R.R.R.R.R.R.R.R.R.R.R.R.R.R.R.R.R.R.R.R.R.",
"R.R.R.R.R.R.R.R.R.R.R.R.R.R.R.R.R.R.R.R.R.R.R.R.R.R.R.R.R.R.R.R.R.R.R.R.R.R.R.R.R.R.R.R.R.R.R.R.R.R.R.R.R.R.R.R.R.R.R.R.R.R.R.R.",
"R.R.R.R.R.R.R.R.R.R.R.R.R.R.R.R.R.R.R.R.R.R.R.R.R.R.R.R.R.R.R.R.R.R.R.R.R.R.R.R.R.R.R.R.R.R.R.R.R.R.R.R.R.R.R.R.R.R.R.R.R.R.R.R.",
"R.R.R.R.R.R.R.R.R.R.R.R.R.E.R.R.R.R.R.R.R.R.R.R.R.R.R.R.R.R.R.R.R.R.R.R.R.E.E.R.R.R.R.R.E.E.R.R.R.R.E.R.R.R.R.R.R.R.R.R.R.R.R.R.",
"R.R.R.R.R.z.3 k 4 y.u.u.z m k.j.! c 3 i u P p J l / g.g.( ( Z.K.N.N.k.k.( m f i G e c ` / / ( j./ ~ x m y.3 1 4 Y.R.R.R.R.R.R.R.",
"R.R.R.R.p.; 6 Q P T K ..I Q -.E W W T E -.=.=.=.%.$.Q <.w.X...e.e.Q -.-.T I $.$.-.$.W =.@.U ....w.Q G Y q R T F 1 c.R.R.R.R.R.R.",
"R.R.R.R.1 U G <.<.8.3.5.4.$.>.+.6.<.:.:.O.O.O.:.O.O.:.:.1.1.6.1.:.,.4.1.;.:.:.=.+.:.+.7.7.1.>.>.4.<.$.%.Y $.$.T G x z.R.R.R.R.R.",
"R.R.R.R.3 w @.0.5.6.6.:.=.=.4.7.5.7.6.=.$.:.-.1.=.:.>.6.,.>.:.=.,.7.7.7.7.,.-.:.=.:.;.>.,.+.+.>.<.=.=.1.8.1...T D k c.R.R.R.R.R.",
"R.R.R.R.4 P Q 1.+.:.O.O.:.:.O.:.:.:.+.>.:.+.O.6.O.:.:.:.>.O.O.:.:.:.:.:.:.,.:.:.:.6.,.:.,.,.O.,.+.:.:.:.0.<.-.$.J m R.R.R.R.R.R.",
"R.R.R.R.m q @.8.5.<.4.:.:.=.=.=.1.=.O.O.+.=.=.O.>.6.7.1.1.O.:.=.=.=.>.-.:.+.,.,.=.:.:.,.7.4.1.:.:.=.=.:.=.' ' T D f Y.R.R.R.R.R.",
"R.R.R.R.1 T $.8.5.4.6.5.6.>.1.1.>.,.+.6.+.Z Z Z :.:.:.O.,.6.6.4.1.>.1.>.+.,.+.Z Z Z Z :.O.,.,.6.6.6.>.1.>.%.Q E E x z.E.R.R.R.R.",
"R.R.R.R.~ X...Q %.4.6.O.<.-.>.4.,.6.,.+.+.Z Z Z :.=.:.+.,.,.:.:.<.6.,.,.,.,.,.Z Z Z Z :.:.:.+.+.>.:.-.6.>.0.4.w.' / a.R.R.R.R.R.",
"R.R.R.R.{ X.X.] ' $.=.,.+.+.:.:.O.:.O.Z Z r.r.r.Z Z Z Z Z Z Z Z Z Z Z Z Z Z Z r.r.r.r.Z Z :.+.+.+.+.>.:.O.,.<.| ~ s.B R.R.R.R.R.",
"R.R.R.R.) ] ]  .-.1.:.,.,.O.=.-.=.:.:.Z Z r.r.r.Z Z Z Z Z Z Z Z Z Z Z Z Z Z Z r.r.r.r.Z Z :.:.+.6.,.O.-.-.<.*...^ v.h R.R.R.R.R.",
"R.R.R.R.g.' ..Q 1.7.8.9.>.O.:.:.O.Z Z %X%Xt.t.t.t.t.t.t.t.t.t.t.t.t.t.t.t.t.t.t.t.t.t.t.t.Z Z q.4.>.O.=.>.6.8.w.' f 2 R.R.R.R.R.",
"R.R.R.R.B E Q =.,.,.6.1.O.O.+.+.6.Z Z %X%Xt.t.t.t.t.t.t.t.t.t.t.t.t.t.t.t.t.t.t.t.t.t.t.t.Z Z ,.:.>.:.+.6.6.5.W U y 3 R.R.R.R.R.",
"R.R.R.R.p Q <.>.+.=.=.,.,.=.:.,.:.Z Z o.o.%X%X%Xt.t.t.t.t.t.t.t.r.r.t.t.t.t.t.t.t.t.t.o.o.Z Z O.>.>.=.>.:.1.4.I D H < R.R.R.R.R.",
"R.R.R.R.e W #.#.<.1.%.-.=.:.+.+.+.Z Z o.o.%X%X%Xt.t.t.t.t.t.t.t.r.r.t.t.t.t.t.t.t.t.t.o.o.Z Z Q =.=.+.+.,.:.&.L I W u R.R.R.R.R.",
"R.R.R.R.y W p  .1.6.O.:.:.:.:.:.:.Z Z o.o.0 0 0 0 0 0 0 0 0 r.r.r.r.0 0 0 0 0 0 0 0 0 o.o.Z Z :.O.=.O.:.:.$.Y Y y e - R.R.R.R.R.",
"R.R.R.R.7 D u I $.:.O.=.:.-.:.=.-.Z Z o.o.0 0 0 0 0 0 0 0 0 r.r.r.r.0 0 0 0 0 0 0 0 0 o.o.Z Z :.:.=.-.:.=.=.>.8.Y J < R.R.R.R.R.",
"R.R.R.R.= y I T 1.1.7.4.4.=.>.6.6.Z Z o.o.0 0 0 0 0 0 0 0 0 0 0 0 0 0 0 0 0 0 0 0 0 0 o.o.Z Z 0.4.>.=.6.6.6.1.&.K c 2 R.R.R.R.R.",
"R.R.R.R.= m c Q 8.q.6.=.:.=.>.6.7.Z Z o.o.0 0 0 0 0 0 0 0 0 0 0 0 0 0 0 0 0 0 0 0 0 0 o.o.Z Z >.=.=.:.6.6.7.9.Y - u.N R.R.R.R.R.",
"R.R.R.R.f ! U Q =.1.>.+.:.=.:.:.:.Z Z o.o.0 0 0 0 0 0 0 0 0 0 0 0 0 0 0 0 0 0 0 0 0 0 o.o.Z Z O.,.:.=.:.1.<.<.R G q * R.R.R.R.R.",
"R.R.R.R.> E P ' *.0.6.6.7.6.=.%.<.Z Z o.o.o.0 0 0 0 0 0 0 0 0 0 0 0 0 0 0 0 0 0 0 o.o.o.o.Z Z 6.6.7.1.=.<.-.@.T ..q O R.R.R.R.R.",
"R.R.R.R.1 ^ W -.<.9.0.6.8.>.8.0.5.Z Z o.o.o.0 0 0 0 0 0 0 0 0 0 0 0 0 0 0 0 0 0 0 o.o.o.o.Z Z 7.6.8.1.6.$.'  .D w 6 # R.R.R.R.R.",
"R.R.R.R.m ~ E ' W %.:.:.=.=.1.,.O.Z Z 2.2.o.o.o.o.o.o.o.o.o.o.o.o.o.o.o.o.o.o.o.o.o.o.2.2.Z Z +.O.-.-.4.W T ' ' T I % E.R.R.R.R.",
"R.R.R.R.l z ^ [ ] ` E =.-.:.:.:.O.Z Z 2.2.o.o.o.o.o.o.o.o.o.o.o.o.o.o.o.o.o.o.o.o.o.o.2.2.Z Z +.+.6.4.,.=.=.$.Q } N.j T.R.R.R.R.",
"R.R.R.R.B z ^  .Q $.=.6.>.1.=.-.=.Z Z r.r.2.Z Z Z Z Z Z Z Z Z Z Z Z Z Z Z Z Z Z Z 2.2.r.r.Z Z ,.6.>.4.<.>.,.8.Y K N h R.R.R.R.R.",
"R.R.R.R.h p w.<.1.>.,.>.>.:.>.,.,.Z Z r.r.2.Z Z Z Z Z Z Z Z Z Z Z Z Z Z Z Z Z Z Z 2.2.r.r.Z Z 4.>.>.O.,.6.7.*.I p r # R.R.R.R.R.",
"R.R.R.R.u H %.9.0.=.=.4.>.-.=.,.>.Z Z r.r.r.A A A A A A A A A A A A A A A A A A A r.r.r.r.Z Z >.6.<.-.1.>.1.7.<.W D = R.R.R.R.R.",
"R.R.R.R.J I W 1.>.,.:.1.,.,.,.,.=.Z Z r.r.r.A A A A A A A A A A A A A A A A A A A r.r.r.r.Z Z :.>.+.O.O.:.>.7.<.Q T t R.R.R.R.R.",
"R.R.R.R.e r T $.%.=.$.=.=.:.+.+.+.Z Z r.r.r.A A A A A A A A A A A A A A A A A A A r.r.r.r.Z Z $.=.=.O.+.>.+.q.1.T T r R.R.R.R.R.",
"R.R.R.R.H I T w.<.,.:.:.:.:.:.=.-.Z Z r.r.r.A A A A A A A A A A A A A A A A A A A r.r.r.r.Z Z :.:.:.:.:.=.=.1.%...i , R.R.R.R.R.",
"R.R.R.R.e $.$.=.1.6.+.:.:.-.:.=.:.Z Z r.r.r.A A A A A A A A A A A A A A A A A A A r.r.r.r.Z Z >.1.:.-.:.:.<.1.1.$.K 9 T.R.R.R.R.",
"R.R.R.E.e D I $.<.>.6.:.>.:.+.6.6.Z Z r.r.r.A A A A A A A A A A A A A A A A A A A r.r.r.r.Z Z >.:.:.:.6.6.0.*.$.` x g E.R.R.R.R.",
"R.R.R.R.B ' ' <.5.1.>.+.:.=.:.=.:.%.O.Z Z r.r.r.r.r.r.r.r.r.r.r.r.r.r.r.r.r.r.r.r.r.r.Z Z ,.:.+.O.:.=.:.>.-.$.Q | { s R.R.R.R.R.",
"R.R.R.R.f.U $.9.0.<.>.:.:.:.=.=.<.:.:.Z Z r.r.r.r.r.r.r.r.r.r.r.r.r.r.r.r.r.r.r.r.r.r.Z Z 1.>.:.O.:.=.=.%.^ ^ ] ^ ! , R.R.R.R.R.",
"R.R.R.R.h D #.9.5.+.+.7.7.4.<.*.1.+.O.+.+.Z Z Z Z Z Z Z Z Z Z Z Z Z Z Z Z Z Z Z Z Z Z :.,.>.+.6.6.7.4.<.%.$.W  . .D < R.R.R.R.R.",
"R.R.R.R.e  .Q %.>.6.6.6.8.<.9.0.6.7.6.6.+.=.:.1.<.-.=.+.6.6.4.1.8.0.6.7.6.6.+.:.:.1.>.-.=.:.6.7.>.1.1.9.>.0.8.;.I r + R.R.R.R.R.",
"R.R.R.R.# y K #.0.q.,.O.:.:.:.,.+.+.+.+.+.O.+.6.:.:.O.+.+.+.:.:.<.,.O.+.+.+.+.O.,.6.>.:.:.O.+.+.,.>.:.:.>.6.=.Q E u   R.R.R.R.R.",
"R.R.R.R.& w I W 8.1.6.,.6.:.%.:.1.<.<.<.:.1.>.:.1.%.-.>.6.,.6.6.:.=.:.:.:.:.:.=.:.:.O.-.1.>.>.6.7.7.4.-.<.-.-.R G @ O R.R.R.R.R.",
"R.R.R.R.- o G W R Q $.T W W $.%.%.Q $.Q $.$.8.4.<.$.$.=.*.J L W T -.;.1.5.4.>.1.>.9.*.W 1.8.w.<.1.W E w S F Q F o k O R.R.R.R.R.",
"R.R.R.R.O & G F e ] ) u W p ' ` T H W I I T $.$. .' w.-.W H r f p I ! ^ L W T %.$.W Y u ` $.[ .. .K & % > % y q 1 Z.= R.R.R.R.R.",
"R.R.R.R.@ /.M f A.'.oXd.! f z / c f ! e e K H D ~ X.H.H.N.V V.k.f l / z 1 r J D K v _ s } ] ( X.J.( A.K.~.k.k k h.b O R.R.R.R.R.",
"R.R.R.R.+ b.).[.OXOX{./.U.I.) B U.).{.K.h.9 2 k.K.~.(.`.OXOX&Xh.# Z._.`.Z.Z.C.u.= C.'.~.oXK.A.(.&X@X&X&XOX'.[.OXF.*   R.R.R.R.R.",
"R.R.R.R.O 8 B C.~.~.~.[.&X'.s B OXOX[.).S.M * /.oX).~.[.oX[.(.h.: V ~.~.`.[.[.d.g A.~.(.).).S.@ u.'.{.[.~.(.'.~.s . ; R.R.R.R.R.",
"R.R.R.R.3 d M A.A.A.A.~.~.m.: a V.A.A.A.A.d.d m.~.A.A.A.A.A.I.Z.h B A.A.S.A.A.V.j A.S.A.A.~.m.8 d.A.A.A.A.A.V.B - O i.R.R.R.R.R.",
"R.R.R.R.`.X > V C.A.A.A.A.Z.9 * d.I.S.A.A.d., Z.I.A.A.A.A.A.A.h.O g F.K.~.K.A.h., Z.A.A.A.A.M = d.A.A.A.~././.b.9 a Q.R.R.R.R.R.",
"R.R.R.R.@XX M C.C.V.I.~.A.m.g @ k.A.A.A.V.a @ k.S.A.A.A.m.V.h.V a , _.[.(.~.A.V., m.I.A.I.A.B * d.V.V.A.~.[._.V - B Q.T.R.R.R.R.",
"R.R.R.R.#X# d.oX&XoX).~.A.A.d.* h.A.A.).'.U.- V A.A.A.A.V.A.A.A.s.@ k.I.A.A.A.C.9 Z.A.A.A.A.B g A.A.A.I.A.A.C.j * F.W.E.R.R.R.R.",
"R.R.R.R.=X8 j d.~.~.S.A.A.K.V.d N A.~.)._.C., b.V.S.K.I.A.A.A.A.h.- h.A.I.A.A.A.M A.A.A.A.A.u.s.A.A.A.A.A.A.d.d @ F.T.E.R.R.R.R.",
"R.R.R.R.-X- d V A.A.A.A.A.A.C.n d.A.A.A.S.d.- ).oXoX_.I.A.A.I.A.u.: h.A.A.A.A.A.d.I.A.A.A.A.d.h.~.A.A.A.A.Z.M a $ OXR.R.R.R.R.R.",
"R.R.R.R.*Xn.8 M k.A.A.A.A.A.V.j h.A.A.A.I.m.8 b.).~.S.A.A.A.Z.m.N a d.A.A.~.(.V.M V.A.A.A.A.V N V.A.I.A.A.h.n - C ;XE.R.R.R.R.R.",
"R.R.R.R.].>Xb.: j d.v.C.Z.m.N d m.A.I.A.V.M e j V.A.S.A.V.Z.V.V.h.a B A.A.A.A.d.M V.K.A.V.h.g d h.A.A.A.V.d.d n.2X-XR.R.R.R.R.R.",
"R.R.R.R.R.}.1X.Xn.m.d.C.~./.|.B.M d.h.m.V.) |.h j B h.h.M N M n C |.m.V.u.V N j D.N s.d.u.M B.|.b.B N N h.b. X2X6X}.R.R.R.R.R.R.",
"R.R.R.R.R.E.-X>X1X:X#X=X,X5X7X6X Xn.B.F..X;X4X$X|.{ C V N M.|.+X<X7X+XF.n.n.D.+X2X:X Xn.B.XX<X1X,X$X+X X+X=X6X2X*XE.R.R.R.R.R.R.",
"R.R.R.R.R.R.T.P.^.(.OX3X:X:X5X2X2X6X5X6X7X5X{.&X>X,X,X,X,X1X=X-X2X6X2X6X5X6X7X7XOX{.;X,X5X7X6X3X>X=X:X>X=X'.{.Q.E.R.R.R.R.R.R.R.",
"R.R.R.R.R.R.R.R.R.L.l.P.I.x.^.{.-X4X3X1X-X^.G.Y.W.^.OXoX(.P.x.x.W.}.*X2X3X3X;X}.L.L.L.W.[.@X].!.W.L.L.L.P.T.R.R.E.R.R.R.R.R.R.R.",
"R.R.R.R.R.R.R.R.R.R.Y.z.x.L.T.R.c.j.k.a.5 m 3 m z.L.Y.c.l.l.a.z.c.c.W.!.W.v.a.y.4 4 u.i.L.R.Y.E.Y.c.c.R.R.R.R.R.R.R.R.R.R.R.R.R.",
"R.R.R.R.R.R.R.R.R.R.R.R.R.R.R.R.R.R.R.R.R.R.R.R.R.R.R.R.R.R.R.R.R.R.R.R.R.R.R.R.R.R.R.R.R.R.R.R.R.R.R.R.R.R.R.R.R.R.R.R.R.R.R.R.",
"R.R.R.R.R.R.R.R.R.R.R.R.R.R.R.R.R.R.R.R.R.R.R.R.R.R.R.R.R.R.R.R.R.R.R.R.R.R.R.R.R.R.R.R.R.R.R.R.R.R.R.R.R.R.R.R.R.R.R.R.R.R.R.R.",
"R.R.R.R.R.R.R.R.R.R.R.R.R.R.R.R.R.R.R.R.R.R.R.R.R.R.R.R.R.R.R.R.R.R.R.R.R.R.R.R.R.R.R.R.R.R.R.R.R.R.R.R.R.R.R.R.R.R.R.R.R.R.R.R.",
"R.R.R.R.R.R.R.R.R.R.R.R.R.R.R.R.R.R.R.R.R.R.R.R.R.R.R.R.R.R.R.R.R.R.R.R.R.R.R.R.R.R.R.R.R.R.R.R.R.R.R.R.R.R.R.R.R.R.R.R.R.R.R.R."
};
