/* XPM */
static char *out[] = {
/* columns rows colors chars-per-pixel */
"64 64 210 2 ",
"   c #1A2838",
".  c #202A38",
"X  c #24313E",
"o  c #28393D",
"O  c #293A46",
"+  c #2B3C46",
"@  c #303E48",
"#  c #2D414B",
"$  c #33424B",
"%  c #354A4A",
"&  c #3D5548",
"*  c #344550",
"=  c #354B52",
"-  c #3A4C52",
";  c #2C545B",
":  c #3E5157",
">  c #3A5B56",
",  c #3E545B",
"<  c #3C5C5D",
"1  c #3B635C",
"2  c #3B5D63",
"3  c #396968",
"4  c #366F73",
"5  c #3C787D",
"6  c #405541",
"7  c #425C52",
"8  c #41565A",
"9  c #435C5D",
"0  c #4C674A",
"q  c #56744D",
"w  c #466659",
"e  c #4A6A5B",
"r  c #506C55",
"t  c #577857",
"y  c #55765B",
"u  c #577A5C",
"i  c #5A7D5B",
"p  c #445D61",
"a  c #446365",
"s  c #4B6465",
"d  c #436963",
"f  c #4A686A",
"g  c #4C6B6C",
"h  c #516E6D",
"j  c #467268",
"k  c #4A746B",
"l  c #447D6B",
"z  c #4B7C6B",
"x  c #517663",
"c  c #547769",
"v  c #4F6F71",
"b  c #506F70",
"n  c #467876",
"m  c #547574",
"M  c #587A76",
"N  c #567B7B",
"B  c #5A7D7D",
"V  c #677E7D",
"C  c #90625D",
"Z  c #AA7959",
"A  c #5E8050",
"S  c #5C835D",
"D  c #60814F",
"F  c #668754",
"G  c #61865C",
"H  c #648A5C",
"J  c #6A8E5D",
"K  c #778F5A",
"L  c #6A9359",
"P  c #6C935C",
"I  c #6E995E",
"U  c #759859",
"Y  c #739C5C",
"T  c #7DA357",
"R  c #75A25F",
"E  c #7BA45D",
"W  c #7EA95D",
"Q  c #5B8164",
"!  c #588968",
"~  c #5D9264",
"^  c #4B8379",
"/  c #568C75",
"(  c #58867A",
")  c #608667",
"_  c #669764",
"`  c #6B9C62",
"'  c #709F63",
"]  c #63867A",
"[  c #659875",
"{  c #6DA16F",
"}  c #72A261",
"|  c #78A667",
" . c #78A975",
".. c #B09643",
"X. c #98B74F",
"o. c #9BB94F",
"O. c #82A55B",
"+. c #8EA55A",
"@. c #83AC5D",
"#. c #8BAE5C",
"$. c #93A359",
"%. c #92AE5B",
"&. c #8EB256",
"*. c #87B05A",
"=. c #8BB159",
"-. c #94B553",
";. c #9BB654",
":. c #9CB850",
">. c #94B25A",
",. c #9BB359",
"<. c #A3AE57",
"1. c #BFA954",
"2. c #A3B655",
"3. c #A9B757",
"4. c #A4B852",
"5. c #AAB954",
"6. c #A3B559",
"7. c #AAB759",
"8. c #AEB858",
"9. c #B2B956",
"0. c #B0B758",
"q. c #82AE62",
"w. c #85B271",
"e. c #C49A6C",
"r. c #D4C169",
"t. c #EAE178",
"y. c #3D7D80",
"u. c #587C80",
"i. c #3D8488",
"p. c #3F9293",
"a. c #478587",
"s. c #568485",
"d. c #5B8484",
"f. c #5B8C82",
"g. c #548D88",
"h. c #5E8B8B",
"j. c #56928B",
"k. c #5B928B",
"l. c #488E99",
"z. c #449396",
"x. c #48949B",
"c. c #459C9D",
"v. c #599896",
"b. c #688987",
"n. c #6E8B85",
"m. c #628D8D",
"M. c #718F88",
"N. c #65978A",
"B. c #73938C",
"V. c #629494",
"C. c #6A9796",
"Z. c #649A96",
"A. c #669C9C",
"S. c #6A9D9D",
"D. c #7E9D94",
"F. c #749A98",
"G. c #44A09F",
"H. c #75A98B",
"J. c #6BA397",
"K. c #6BA29D",
"L. c #79A39D",
"P. c #489BA2",
"I. c #5A9BA5",
"U. c #659EA4",
"Y. c #729FA1",
"T. c #45A4A4",
"R. c #4BA7A7",
"E. c #47ABA9",
"W. c #4AACAA",
"Q. c #56A8A9",
"!. c #59B2AF",
"~. c #5CB6B2",
"^. c #6BA2A2",
"/. c #68A8AC",
"(. c #71A5A4",
"). c #71A9A8",
"_. c #73AAAB",
"`. c #79ADAD",
"'. c #77B2AD",
"]. c #79AEB0",
"[. c #7DB4B4",
"{. c #78B9B7",
"}. c #7BC5BC",
"|. c #84A59B",
" X c #8BADA2",
".X c #8EB3A8",
"XX c #91B3A7",
"oX c #82B7B7",
"OX c #86BDBC",
"+X c #99BEB1",
"@X c #DCB98A",
"#X c #87C3BC",
"$X c #9AC4B7",
"%X c #A6CCBC",
"&X c #F4F4A0",
"*X c #8BC3C3",
"=X c #8ACEC3",
"-X c #9CCCC4",
";X c #99D4C7",
":X c #A4D5C9",
">X c #ACD7C9",
",X c #ADDCCE",
"<X c #B4DECC",
"1X c #B8E1CE",
"2X c #B7E5D4",
"3X c #BBE6D4",
"4X c #BBE9D6",
"5X c #C1EBD6",
"6X c #C2EDD9",
"7X c #C7F1DC",
/* pixels */
"E.E.E.E.E.E.E.E.E.E.E.E.E.E.E.E.E.E.E.E.E.E.E.E.E.E.E.E.E.E.E.E.E.E.E.E.E.E.E.E.E.E.E.E.E.E.E.E.E.E.E.E.E.E.E.E.E.E.E.E.E.E.E.E.",
"E.E.E.E.E.E.E.E.E.E.E.E.E.E.E.E.E.E.E.E.E.E.E.E.E.E.E.E.E.E.E.E.E.E.E.E.E.E.E.E.E.E.E.E.E.E.E.E.E.E.E.E.E.E.E.E.E.E.E.E.E.E.E.E.",
"E.E.E.E.E.E.E.E.E.E.E.E.E.E.E.E.E.E.E.E.E.E.E.E.E.E.E.E.E.E.E.E.E.E.E.E.E.E.E.E.E.E.E.E.E.E.E.E.E.E.E.E.E.E.E.E.E.E.E.E.E.E.E.E.",
"E.E.E.E.E.E.E.E.E.E.E.E.E.E.E.E.E.E.E.E.E.E.E.E.E.E.E.E.E.E.E.E.E.E.E.E.E.E.E.E.E.E.E.E.E.E.E.E.E.E.E.E.E.E.E.E.E.E.E.E.E.E.E.E.",
"E.E.E.E.E.E.E.E.E.E.E.E.E.W.E.E.E.E.E.E.E.E.E.W.E.E.E.E.E.E.E.E.E.E.E.E.E.E.E.E.E.E.E.E.E.E.E.E.E.E.E.E.E.E.E.E.E.E.E.E.E.E.E.E.",
"E.E.E.E.E.z.3 j 4 u.n h.l n k.j.! x d u y P i H k ^ j.g.( ( Z.K.N.[ k.v.f.k d Q H w y _ ^ ^ f.j.n ! z n 5 3 3 4 G.E.E.E.E.E.E.E.",
"E.E.E.E.p.; 6 W L Y J ' P W *.R O.E P R @.-.-.*.@.@.E >.*. .| w.w.q.*.#.I I W @.*.@.T -.O.Y | W q.W H U 0 E T D 1 c.E.E.E.E.E.E.",
"E.E.E.E.1 I F >.>.,.<.3.2.@.;.o.:.>.;.-.-.X.:.-.X.X.-.X.;.>.2.-.-.;.:.,.=.-.X.&.X.-.:.3.5.-.-.,.6.>.*.#.U @.W Y F x z.E.E.E.E.E.",
"E.E.E.E.3 q O.3.3.4.3.&.&.&.2.4.4.5.4.-.*.-.=.-.*.-.;.4.o.-.-.&.-.5.5.5.4.;.*.&.&.>.=.-.:.o.o.;.>.&.=.;.6.,.@.' S j z.E.E.E.E.E.",
"E.E.E.E.4 U W ,.o.-.X.o.X.-.:.-.-.&.o.:.-.;.:.;.o.X.-.-.;.o.;.X.X.-.-.-.X.:.-.:.X.4.X.:.:.;.X.:.o.:.-.-.3.>.@.@.S n E.E.E.E.E.E.",
"E.E.E.E.n 0 @.6.3.>.;.X.-.&.&.&.,.C C C C C *.X.X.4.5.,.;.-.-.&.&.&.;.=.-.:.C C C C X.;.5.2.,.-.-.&.=.-.&.` ` Y H j T.E.E.E.E.E.",
"E.E.E.E.< I q.2.3.3.4.4.2.2.>.,.,.C C C C C -.:.-.-.-.X.o.3.4.2.,.;.,.,.:.:.C C C C -.-.X.:.:.4.4.4.;.>.,.%.E R R z z.E.E.E.E.E.",
"E.E.E.E.)  .| W =.2.4.X.-.&.>.C C r.r.r.r.r.C C C C C C C C C C C C C C C C r.r.r.r.C C C :.o.o.-.-.=.2.:.3.2.q.{ l ^ E.E.E.E.E.",
"E.E.E.E.] H.| _ ` @.&.X.:.o.-.C C r.r.r.r.r.C C C C C C C C C C C C C C C C r.r.r.r.C C C -.:.o.o.o.o.-.X.:.>.{ ! s.u.E.E.E.E.E.",
"E.E.E.E.( _ _ } *.-.&.4.o.C C t.t.t.t.t.t.t.e.e.@X@X@X@X@X@X@X@X@X@X@X@Xe.e.t.t.t.t.t.t.t.C C :.4.:.X.*.*.>.=.| [ j.n E.E.E.E.E.",
"E.E.E.E.g.} | W ,.3.2.7.2.C C t.t.t.t.t.t.t.e.e.@X@X@X@X@X@X@X@X@X@X@X@Xe.e.t.t.t.t.t.t.t.C C 8.6.;.-.-.:.3.6.q.` a 2 E.E.E.E.E.",
"E.E.E.E.n } @.&.;.4.o.-.;.C C t.t.t.t.t.e.e.e.e.e.e.@X@X@X@X@X@X@X@Xe.e.e.e.e.e.t.t.t.t.t.C C o.-.;.X.o.:.4.2.W ` t 3 E.E.E.E.E.",
"E.E.E.E.i @.=.2.;.-.-.;.;.C C t.t.t.t.t.e.e.e.e.e.e.@X@X@X@X@X@X@X@Xe.e.e.e.e.e.t.t.t.t.t.C C -.;.;.&.;.;.,.6.K S G > E.E.E.E.E.",
"E.E.E.E.w E +.+.>.-.#.*.&.C C t.t.t.t.t.e.e.e.e.e.e.e.e.e.e.e.e.e.e.e.e.e.e.e.e.t.t.t.t.t.C C @.&.&.X.o.X.-.$.K P E y E.E.E.E.E.",
"E.E.E.E.t O.i ' ,.4.X.-.-.C C t.t.t.t.t.e.e.e.e.e.e.e.e.e.e.e.e.e.e.e.e.e.e.e.e.t.t.t.t.t.C C -.X.-.-.X.-.*.U U t w - E.E.E.E.E.",
"E.E.E.E.7 S y P @.-.;.-.-.C C t.t.t.t.t.e.e.e.e.e.e.e.e.e.e.e.e.e.e.e.e.e.e.e.e.t.t.t.t.t.C C ;.-.&.*.-.&.&.;.3.U G < E.E.E.E.E.",
"E.E.E.E.= y P Y ,.;.4.2.3.C C t.t.t.t.t.e.e.e.e.e.e.e.e.e.e.e.e.e.e.e.e.e.e.e.e.t.t.t.t.t.C C 4.6.-.&.4.4.2.,.$.J x p E.E.E.E.E.",
"E.E.E.E.= z u W 6.9.4.&.-.C C t.t.t.t.t.e.e.e.e.e.e.e.e.e.e.e.e.e.e.e.e.e.e.e.e.t.t.t.t.t.C C ;.&.&.-.4.4.5.7.P - s.N E.E.E.E.E.",
"E.E.E.E.a Q I | *.,.;.X.-.C C &X&Xt.t.t.t.t.t.t.t.t.t.t.t.t.t.t.t.t.t.t.t.t.t.t.t.t.&X&X&XC C -.:.-.&.-.;.>.>.T F 0 * E.E.E.E.E.",
"E.E.E.E.> R L ` >.7.4.4.4.C C &X&Xt.t.t.t.t.t.t.t.t.t.t.t.t.t.t.t.t.t.t.t.t.t.t.t.t.&X&X&XC C 4.4.4.-.&.>.=.O.Y | 0 O E.E.E.E.E.",
"E.E.E.E.1 ~ R *.>.7.5.3.6.C C ....&X&X&X&X&X&X&X&X&X&X&X&X&X&X&X&X&X&X&X&X&X&X&X&X&X......C C 5.2.6.2.3.O.` } S q 6 # E.E.E.E.E.",
"E.E.E.E.n ! } ` R #.-.X.-.C C ....&X&X&X&X&X&X&X&X&X&X&X&X&X&X&X&X&X&X&X&X&X&X&X&X&X......C C o.;.*.*.;.W } ` ` P _ * W.E.E.E.E.",
"E.E.E.E.k l ~ } _ _ E *.*.C C 1.1.......C C C C C C C C t.t.r.r.C C C C C C C C ....1.1.1.C C o.o.4.4.;.-.*.@.W ' N.h R.E.E.E.E.",
"E.E.E.E.N l ~ } @.@.&.4.;.C C 1.1.......C C C C C C C C t.t.r.r.C C C C C C C C ....1.1.1.C C o.4.;.4.>.;.;.6.Y J m v E.E.E.E.E.",
"E.E.E.E.v i @.>.,.;.4.,.;.C C 1.1.1.1.1.Z Z Z Z Z Z Z Z r.r.r.r.Z Z Z Z Z Z Z Z 1.1.1.1.1.C C 2.;.;.-.;.4.4.,.P i e # E.E.E.E.E.",
"E.E.E.E.x S #.8.3.=.-.3.,.C C 1.1.1.1.1.Z Z Z Z Z Z Z Z r.r.r.r.Z Z Z Z Z Z Z Z 1.1.1.1.1.C C ;.6.;.*.-.;.,.3.>.T G = E.E.E.E.E.",
"E.E.E.E.F P E ,.;.:.&.-.:.C C r.r.1.1.1.Z Z Z Z Z Z Z Z Z Z Z Z Z Z Z Z Z Z Z Z 1.1.r.r.r.C C -.;.o.o.o.-.;.5.>.E Y r E.E.E.E.E.",
"E.E.E.E.w e Y | *.&.*.*.&.C C r.r.1.1.1.Z Z Z Z Z Z Z Z Z Z Z Z Z Z Z Z Z Z Z Z 1.1.r.r.r.C C @.&.&.X.o.o.4.9.,.Y Y e E.E.E.E.E.",
"E.E.E.E.G Y Y @.>.;.X.X.-.C C r.r.r.r.r.Z Z Z Z Z Z Z Z Z Z Z Z Z Z Z Z Z Z Z Z r.r.r.r.r.C C -.X.&.-.-.&.=.,.#.} y , E.E.E.E.E.",
"E.E.E.E.w O.@.>.,.3.:.-.X.C C r.r.r.r.r.Z Z Z Z Z Z Z Z Z Z Z Z Z Z Z Z Z Z Z Z r.r.r.r.r.C C ;.X.-.&.-.-.>.,.,.@.H p E.E.E.E.E.",
"E.E.E.E.e S P @.>.-.2.-.;.&.o.C C r.r.r.r.r.r.r.r.r.r.r.r.r.r.r.r.r.r.r.r.r.r.r.r.r.C C C o.o.2.>.-.&.4.4.3.>.O.` z g E.E.E.E.E.",
"E.E.E.E.M _ ` %.7.-.;.:.-.&.-.C C r.r.r.r.r.r.r.r.r.r.r.r.r.r.r.r.r.r.r.r.r.r.r.r.r.C C C ;.-.o.o.-.-.-.,.*.@.W [ ] a E.E.E.E.E.",
"E.E.E.E.f.Y @.7.8.>.;.X.X.&.&.&.>.C C C C C C C C C C C C C C C C C C C C C C C C C -.;.5.6.,.-.o.-.&.&.#.~ ~ _ ~ Q , E.E.E.E.E.",
"E.E.E.E.k G #.8.3.o.:.3.3.3.>.>.,.C C C C C C C C C C C C C C C C C C C C C C C C C o.-.o.o.o.4.4.5.2.&.@.@.q.' R H < E.E.E.E.E.",
"E.E.E.E.9 Y q.=.,.o.4.3.6.>.6.8.3.4.4.4.o.&.-.;.>.*.&.o.4.2.2.,.6.9.3.5.4.4.o.-.-.>.,.*.&.-.4.4.;.,.,.7.;.5.7.#.I e + E.E.E.E.E.",
"E.E.E.E.# t P +.8.0.o.X.X.-.-.:.o.4.o.o.o.X.o.4.X.-.X.o.o.o.-.-.&.o.o.o.o.o.o.X.o.4.;.-.X.X.o.o.;.;.-.-.2.4.*.W Y t . E.E.E.E.E.",
"E.E.E.E.& q P T 6.,.2.2.;.&.*.>.-.>.>.>.-.,.,.X.-.*.=.,.2.:.2.4.-.*.-.;.;.-.-.&.-.-.;.*.,.;.;.4.4.5.2.*.-.*.*.T F # O E.E.E.E.E.",
"E.E.E.E.% o F W T W W U O.T W =.%.W @.@.@.@.;.3.>.W @.>.>.F K E Y #.#.,.2.6.,.-.-.7.+.W >.6.@.>.,.O.T q i D | D o j O E.E.E.E.E.",
"E.E.E.E.O & F D 0 [ / y W S ` J I G W H P Y @.@.} R | *.} J e d i P S ~ K O.Y #.@.T U y _ q.} | ' L > % & % A 0 1 V.= E.E.E.E.E.",
"E.E.E.E.@ Y.m d C.[.oXd.c d l ( x 3 Q w w J G Q !  .H.H.N.B V.k.3 k ^ j 1 e H S J c ) d [ _ (  .J./ A.J.^.k.j j h.v O E.E.E.E.E.",
"E.E.E.E.@ m._.[.OXOX{.).K.U.( N K._.[.K.k.9 < k.K.^.).'.OXOX*Xh.# C.'.'.Z.J.C.u.- C.].^.oX^.A.).*XOX*X*XOX].].OXS.*   E.E.E.E.E.",
"E.E.E.E.O 8 N C.^.U.^.[.#XoXp B OXOX[._.S.m * (.oX).^.[.oX[.).h.: M ^.^.'.{.[.d.f A.^.).).).S.@ u.`.{.[.^.).].).s . ; E.E.E.E.E.",
"E.E.E.E.3 s m A.A.A.S.S.^.m.8 9 V.U.A.A.A.d.s m.^.A.A.A.A.A.U.Z.h M A.A.A.A.A.V.b A.S.A.S.^.m.8 d.A.A.U.A.A.V.N - X i.E.E.E.E.E.",
"E.E.E.E.'.X : N Z.A.A.A.A.A.9 * d.U.A.A.A.d., A.A.A.A.A.K.A.A.h.+ f C.K.^.A.A.m., V.A.A.A.A.m - d.V.A.A.^.(.(.m.8 p Q.E.E.E.E.E.",
"E.E.E.E.#XO m C.C.C.K.^.A.h.s @ k.A.A.A.V.s @ k.U.A.A.A.m.V.h.N p 8 `.[.).^.A.V., V.A.A.A.U.N # h.V.V.A.^.[.`.B - M !.E.E.E.E.E.",
"E.E.E.E.$X# d.[.*XoX_.^.A.A.d.- h.A.^.).`.Y.- u.A.A.S.A.V.A.A.A.s.@ V.A.A.A.U.Z.p V.A.A.A.A.N f ^.A.U.A.A.A.C.h * F.Q.E.E.E.E.E.",
"E.E.E.E.-X8 s b.^.^.A.A.A.A.V.s N Z.^._.`.C.- b.V.S.^.A.A.A.A.U.h.- h.A.S.U.A.A.m K.A.U.A.A.B d.A.A.A.A.S.A.d.s @ F.Q.E.E.E.E.E.",
"E.E.E.E.;X: s ( A.A.A.A.A.A.V.m d.A.A.A.A.m.: _.oX[.].^.A.A.A.A.u.8 d.U.A.A.A.C.s.A.A.A.A.A.d.h.A.A.A.A.A.Z.m 9 $ #XE.E.E.E.E.E.",
"E.E.E.E.*Xb.9 b m.A.A.S.A.A.V.h h.A.A.A.A.h.: b.`.^.S.A.A.A.Z.m.N 9 d.A.A.^.(.V.m V.U.A.A.A.N N V.A.A.A.A.h.m - V :XW.E.E.E.E.E.",
"E.E.E.E.~.,Xb.: g h.v.V.Z.h.m s h.^.A.A.V.m s h V.A.A.A.V.V.V.V.d.s N S.A.A.A.( m V.A.S.V.m.g f h.Z.A.A.V.d.s n.5X;XE.E.E.E.E.E.",
"E.E.E.E.E.}.3XXXn.m.b.V.U.L.L.D.m d.h.m.V.( D.g h N h.h.m N m b ] |.m.V.u.B M h L.M d.d.u.m M.L.b.B B N h.m.|.5X4X}.E.E.E.E.E.E.",
"E.E.E.E.E.!.;X,X1X:X$X:X<X5X6X6X Xn.B.F..X:X5X%X X] B B M n.|.$X1X7X+XF.n.n.D.+X4X-XXXn.B.XX1X1X<X-X+X X+X-X5X4X=XW.E.E.E.E.E.E.",
"E.E.E.E.E.E.R.Q./._.oX3X>X>X5X4X4X6X5X5X7X5X{.*X<X<X<X<X<X2X-X-X3X5X2X5X6X5X7X7XOX[.:X<X6X7X6X2X<X-X:X,X-X].{.~.W.W.E.E.E.E.E.E.",
"E.E.E.E.E.E.E.E.E.P.l.I.U.l./.{.;X4X2X1X;X/.G.T.I./.OXoX).I.x.x.Q.}.=X3X2X2X:X}.P.P.P.Q.[.#X{.~.Q.P.P.P.I.R.E.E.W.E.E.E.E.E.E.E.",
"E.E.E.E.E.E.E.E.E.E.T.z.x.c.E.W.c.j.v.a.5 n 3 n z.c.T.c.l.l.a.z.x.c.!.~.!.v.a.y.4 4 u.a.c.E.T.E.T.c.c.E.E.E.E.E.E.E.E.E.E.E.E.E.",
"E.E.E.E.E.E.E.E.E.E.E.E.E.E.E.E.E.E.E.E.E.E.E.E.E.E.E.E.E.E.E.E.E.E.E.E.E.E.E.E.E.E.E.E.E.E.E.E.E.E.E.E.E.E.E.E.E.E.E.E.E.E.E.E.",
"E.E.E.E.E.E.E.E.E.E.E.E.E.E.E.E.E.E.E.E.E.E.E.E.E.E.E.E.E.E.E.E.E.E.E.E.E.E.E.E.E.E.E.E.E.E.E.E.E.E.E.E.E.E.E.E.E.E.E.E.E.E.E.E.",
"E.E.E.E.E.E.E.E.E.E.E.E.E.E.E.E.E.E.E.E.E.E.E.E.E.E.E.E.E.E.E.E.E.E.E.E.E.E.E.E.E.E.E.E.E.E.E.E.E.E.E.E.E.E.E.E.E.E.E.E.E.E.E.E.",
"E.E.E.E.E.E.E.E.E.E.E.E.E.E.E.E.E.E.E.E.E.E.E.E.E.E.E.E.E.E.E.E.E.E.E.E.E.E.E.E.E.E.E.E.E.E.E.E.E.E.E.E.E.E.E.E.E.E.E.E.E.E.E.E."
};
