/* XPM */
static char *out[] = {
/* columns rows colors chars-per-pixel */
"64 64 210 2 ",
"   c #1A2838",
".  c #202A38",
"X  c #24313E",
"o  c #28393D",
"O  c #293A46",
"+  c #2B3C46",
"@  c #303E48",
"#  c #2D414B",
"$  c #33424B",
"%  c #354A4A",
"&  c #3D5548",
"*  c #344550",
"=  c #354B52",
"-  c #3A4C52",
";  c #2C545B",
":  c #3E5157",
">  c #3A5B56",
",  c #3E545B",
"<  c #3C5C5D",
"1  c #3B635C",
"2  c #3B5D63",
"3  c #396968",
"4  c #366F73",
"5  c #3C787D",
"6  c #405541",
"7  c #425C52",
"8  c #41565A",
"9  c #435C5D",
"0  c #6B4B5B",
"q  c #4C674A",
"w  c #56744D",
"e  c #466659",
"r  c #4A6A5B",
"t  c #506C55",
"y  c #55765A",
"u  c #567859",
"i  c #5A7D5B",
"p  c #445D61",
"a  c #446365",
"s  c #4B6465",
"d  c #466966",
"f  c #4C6B6C",
"g  c #516E6D",
"h  c #477367",
"j  c #4A746B",
"k  c #447D6B",
"l  c #4B7C6B",
"z  c #537569",
"x  c #4F6F71",
"c  c #506F70",
"v  c #467976",
"b  c #547574",
"n  c #587A76",
"m  c #567B7B",
"M  c #5A7D7D",
"N  c #677E7D",
"B  c #8E625C",
"V  c #90625D",
"C  c #AA7959",
"Z  c #5E8050",
"A  c #5C835D",
"S  c #60814F",
"D  c #668853",
"F  c #61865C",
"G  c #648A5C",
"H  c #6A8E5D",
"J  c #778F5A",
"K  c #6A9359",
"L  c #6D935C",
"P  c #6E995E",
"I  c #759958",
"U  c #739C5C",
"Y  c #7DA357",
"T  c #75A25F",
"R  c #7BA45D",
"E  c #7EA95E",
"W  c #5B8164",
"Q  c #588968",
"!  c #5D9264",
"~  c #4D837B",
"^  c #568C75",
"/  c #59857A",
"(  c #608667",
")  c #669764",
"_  c #6B9C62",
"`  c #709F63",
"'  c #63867A",
"]  c #669872",
"[  c #6DA16F",
"{  c #72A261",
"}  c #78A667",
"|  c #78A975",
" . c #AF9543",
".. c #B09643",
"X. c #96B54E",
"o. c #9AB74E",
"O. c #9BB94F",
"+. c #88AF57",
"@. c #81A55B",
"#. c #8EA55A",
"$. c #83AC5D",
"%. c #8BAD5C",
"&. c #93A359",
"*. c #92AE5B",
"=. c #8DB256",
"-. c #87B059",
";. c #8BB159",
":. c #94B553",
">. c #9BB654",
",. c #9CB850",
"<. c #94B25A",
"1. c #9BB359",
"2. c #A0B84F",
"3. c #A3AE57",
"4. c #BFA954",
"5. c #A3B655",
"6. c #A9B756",
"7. c #A4B952",
"8. c #ABB954",
"9. c #A3B559",
"0. c #AAB659",
"q. c #ACB858",
"w. c #B2B956",
"e. c #82AE62",
"r. c #D4C169",
"t. c #E9DF78",
"y. c #EAE178",
"u. c #3D7D80",
"i. c #587C80",
"p. c #3D8488",
"a. c #3F9293",
"s. c #478587",
"d. c #568485",
"f. c #5B8484",
"g. c #588B85",
"h. c #5E8B8B",
"j. c #59918B",
"k. c #488E99",
"l. c #449396",
"z. c #48949B",
"x. c #459C9D",
"c. c #599896",
"v. c #688987",
"b. c #6E8B85",
"n. c #628D8D",
"m. c #718F88",
"M. c #65958C",
"N. c #73938C",
"B. c #629494",
"V. c #6A9696",
"C. c #649A96",
"Z. c #669C9C",
"A. c #6A9D9D",
"S. c #7E9D94",
"D. c #749A98",
"F. c #44A09F",
"G. c #75A98B",
"H. c #6BA397",
"J. c #6BA29D",
"K. c #79A39D",
"L. c #459DA2",
"P. c #4B9AA2",
"I. c #5A9BA5",
"U. c #659EA4",
"Y. c #729FA1",
"T. c #45A4A4",
"R. c #4CA6A7",
"E. c #46A9A7",
"W. c #47ABA9",
"Q. c #4AACAA",
"!. c #56A8A9",
"~. c #59B2AF",
"^. c #6BA2A2",
"/. c #68A8AC",
"(. c #71A5A4",
"). c #71A9A8",
"_. c #73AAAB",
"`. c #79ADAD",
"'. c #77B2AD",
"]. c #79AEB0",
"[. c #68B6B2",
"{. c #7DB4B4",
"}. c #78B9B7",
"|. c #7BC5BC",
" X c #84A59B",
".X c #8BADA2",
"XX c #8EB3A8",
"oX c #91B3A7",
"OX c #82B7B7",
"+X c #86BDBC",
"@X c #99BEB1",
"#X c #87C3BC",
"$X c #9AC4B7",
"%X c #A6CCBC",
"&X c #8BC3C3",
"*X c #8ACEC3",
"=X c #9CCCC4",
"-X c #99D4C7",
";X c #A4D5C9",
":X c #ACD7C9",
">X c #ADDCCE",
",X c #B4DECC",
"<X c #B8E1CE",
"1X c #B5E3D2",
"2X c #BBE6D4",
"3X c #B9E9D6",
"4X c #BBE9D6",
"5X c #C1EBD6",
"6X c #C2EDD9",
"7X c #C7F1DC",
/* pixels */
"W.W.W.W.W.W.W.W.W.W.W.W.W.W.W.W.W.W.W.W.W.W.W.W.W.W.W.W.Q.W.W.W.W.W.W.W.W.W.W.W.W.W.W.W.W.W.W.W.W.W.W.W.W.W.W.W.W.W.W.W.W.W.W.W.",
"W.W.W.W.W.W.W.W.W.W.W.W.W.W.W.W.W.W.W.W.E.E.V V V V V V V V V V V V V V B V V V B B W.W.W.W.W.W.W.W.W.W.W.W.W.W.W.W.W.W.W.W.W.W.",
"W.W.W.W.W.W.W.W.W.W.W.W.W.W.W.W.W.W.W.W.E.E.B V V B V V V V V V V V V V V V V V B B W.W.W.W.W.W.W.W.W.W.W.W.W.W.W.W.W.W.W.W.W.W.",
"W.W.W.W.W.W.W.W.W.W.W.W.W.W.W.W.W.W.E.W.V V y.y.y.y.y.y.y.y.y.y.y.y.y.y.t.y.y.t.t.t.B B W.W.W.W.W.W.W.W.W.W.W.W.W.W.W.W.W.W.W.W.",
"W.W.W.W.W.W.W.W.E.E.W.W.W.Q.Q.W.E.E.E.W.V V t.t.y.y.y.y.y.y.y.y.y.y.y.y.y.y.y.y.y.t.B B W.W.W.W.W.W.W.W.W.W.W.W.W.W.W.W.W.W.W.W.",
"W.W.W.W.W.l.3 h 4 i.v h.k v j.j.W z B B y.t.r.r.r.r.r.r.r.r.r.r.r.r.r.r.r.r.r.r.r.r.t.t.B B ^ j.v ^ l v u.3 3 4 F.W.W.W.W.W.W.W.",
"W.W.W.W.a.; 6 E K T H ` L E +.T Y I V V y.y.r.r.r.r.r.r.r.r.r.r.r.r.r.r.r.r.r.r.r.r.t.y.B B R } } $.G U q R I S 1 x.W.W.W.W.W.W.",
"W.W.W.W.1 P D <.;.1.3.0.5.$.:.O.5.>.V V r.r.r.r.V V V V V V V V V V V V V V V V r.r.r.r.B B >.1.6.:.-.%.I $.$.I D h l.W.W.W.W.W.",
"W.W.W.W.3 w @.q.0.7.7.:.<.=.>.8.7.6.V V r.r.r.r.B V V V V V V V V V V V V V V V r.r.r.r.B B O.,.<.=.=.>.9.1.} U A l x.W.W.W.W.W.",
"W.W.W.W.4 K $.:.,.:.:.O.o.:.,.:.:.=.V V r.r.V V B V C C C C C C C C C C C C V V V V r.r.B B :.O.,.:.:.:.6.<.-.$.G v W.W.W.W.W.W.",
"W.W.W.W.v t @.9.q.<.5.:.:.=.=.=.>.+.V V r.r.B V V B C C C C C C C C C C C C V V V V r.r.B B 9.:.o.=.;.:.:._ _ U A d T.W.W.W.W.W.",
"W.W.W.E.< U $.9.q.5.7.7.5.5.<.1.1.2.V V r.r.B B V B B V C C C C C C C C V V V V V V r.r.B B >.7.7.6.>.1.1.%.e.{ T j l.W.W.W.W.W.",
"W.W.W.W.( | } $.;.5.7.>.:.;.>.>.>.o.V V r.r.V V V V V V C C C C C C C C V V V V V V r.r.B B O.2.:.=.;.5.>.8.5.e.[ k ~ W.W.W.W.W.",
"W.W.W.W.g.| | ) _ -.=.>.,.O.:.>.X.X.V V r.r.V V V V V V V V V V V V V V V V V V V V r.r.B B o.o.O.O.O.:.,.,.<.[ Q g.m E.W.W.W.W.",
"W.W.W.W./ ) _ T -.:.:.,.,.O.=.-.#.:.V V r.r.V V V V V B B V V V V V V V V V V V V V r.r.B B :.o.7.:.o.-.;.;.;.} ^ M.f E.W.W.W.W.",
"W.W.W.W.g.{ } } <.0.>.6.5.:.:.=.X.5.X.#.V V r.r.V V V V V V V V V V V V V V V V r.r.V V 2.7.5.q.6.>.o.=.o.5.6.e._ d 3 W.W.W.W.W.",
"W.W.W.W.b T E =.>.,.7.>.o.:.O.O.7.7.o.-.V V r.r.B B B V V V B V V V V V V V V V r.r.B B 7.O.,.,.:.>.:.O.,.7.9.R P u 3 W.W.W.W.W.",
"W.W.W.W.i E <.>.,.=.=.>.>.=.:.O.o.O.V V ........0 0 0 0 0 0 0 0 0 0 0 0 0 0 0 0 ........B B :.:.>.>.=.,.>.>.9.I A F > W.W.W.W.W.",
"W.W.W.W.e R %.#.<.>.-.-.=.:.O.O.X.X.B V ........0 0 0 0 0 0 0 0 0 0 0 0 0 0 0 0 ........B B =.$.=.:.:.O.,.:.&.J L R y W.W.W.W.W.",
"W.W.W.W.u R i ` 1.5.:.o.>.:.:.:.=.:.V V  ...0 0 0 0 0 0 0 0 0 0 0 0 0 0 0 0 0 0 0 0 ....B B :.=.:.:.:.:.:.$.I U u e - W.W.W.W.W.",
"W.W.W.W.7 A y L e.:.,.:.:.;.=.=.-.-.V V  . .0 0 0 0 0 0 0 0 0 0 0 0 0 0 0 0 0 0 0 0 ....B B ,.>.:.:.=.:.=.-.>.9.I G 8 W.W.W.W.W.",
"W.W.W.W.% u L U <.>.6.5.>.:.,.7.7.<.V V  . .0 0 0 0 0 0 0 0 0 0 0 0 0 0 0 0 0 0 0 0 ....B B 7.7.>.>.=.7.7.7.1.&.H z 2 W.W.W.W.W.",
"W.W.W.W.= v z E 0.w.7.=.<.=.,.7.7.7.B B  . .0 0 0 0 0 0 0 0 0 0 0 0 0 0 0 0 0 0 0 0 ....B B O.>.:.=.:.7.7.q.6.U - d.m W.W.W.W.W.",
"W.W.W.E.d W P E ;.>.>.:.o.=.:.<.:.=.B B  . .0 0 0 0 0 0 0 0 0 0 0 0 0 0 0 0 0 0 0 0 ....B B >.,.>.:.=.:.1.<.:.R D q * W.W.W.W.W.",
"W.W.W.W.> T P _ <.0.7.7.7.5.;.;.%.X.V V  . .0 0 0 0 0 0 0 0 0 0 0 0 0 0 0 0 0 0 0 0 ....B B O.,.7.7.>.;.<.%.@.U R q O Q.W.W.W.W.",
"W.W.W.W.< ! T $.<.6.7.6.0.1.0.q.6.7.V V  . .0 0 0 0 0 0 0 0 0 0 0 0 0 0 0 0 0 0 0 0 ....B B 2.8.6.5.1.6.$._ ` A w 6 @ W.W.W.W.W.",
"W.W.W.W.l ! T P } $.>.:.=.=.>.,.o.o.V V .. .0 0 0 0 0 0 0 0 0 0 0 0 0 0 0 0 0 0 0 0 ....B B O.O.>.-.;.>.R U _ _ P L % W.W.W.W.W.",
"W.W.W.W.l 4 ! ` P ) R =.-.:.:.=.X.:.V V ........0 0 0 0 0 0 0 0 0 0 0 0 0 0 0 0 ........B B ,.O.O.,.7.,.=.=.$.$.] M.g W.W.W.W.W.",
"W.W.W.W.m k ! ` E $.<.7.,.:.;.;.+.>.V V ........0 0 0 0 0 0 0 0 0 0 0 0 0 0 0 0 ........B B :.,.7.>.6.<.>.>.9.U H b x W.W.W.W.W.",
"W.W.W.W.f i e.1.1.>.,.1.>.:.o.,.X.5.V V 4.4....... .................................4.4.B B 7.7.>.>.:.o.7.7.<.L i r # W.W.W.W.W.",
"W.W.W.W.y G $.q.6.=.:.6.1.;.=.,.>.2.V V 4.4....... .................................4.4.B B ;.>.6.:.-.>.,.5.6.<.R F = W.W.W.W.W.",
"W.W.W.W.G K R 1.>.>.=.:.,.,.O.o.=.X.V V r.r.4.4.V V V V V B V V V V V V V V V V 4.4.r.r.B B :.=.>.,.O.:.=.>.q.<.R U t W.W.W.W.W.",
"W.W.W.W.e r P E -.=.-.-.=.:.O.O.O.O.V V r.r.4.4.V V V V V V V V V V V V V V V V 4.4.r.r.B B ;.$.=.=.X.O.O.7.w.1.U ` r W.W.W.W.W.",
"W.W.W.W.F U U $.<.>.:.:.:.:.:.=.;.:.V V r.r.r.r.C C C C C C C C C C C C C C C C r.r.r.r.B B O.:.o.=.:.:.=.%.1.%.R u , W.W.W.W.W.",
"W.W.W.W.e E $.<.>.6.,.>.o.-.:.=.=.$.V V r.r.r.r.C C C C C C C C C C C C C C  .C r.r.r.r.B B O.>.>.:.=.:.:.:.1.1.$.G p W.W.W.W.W.",
"W.W.W.W.e A L $.<.>.,.>.>.=.7.2.2.,.V V r.r.r.r.C C C C C C C C C C C C C C C C r.r.r.r.B B O.5.>.:.=.7.7.q.*.$.) l f W.W.W.W.W.",
"W.W.W.W.n _ _ *.6.:.>.,.:.=.:.=.:.+.B V r.r.r.r.C C C C C C C C C C C C C C C C r.r.r.r.B B >.,.:.:.:.:.>.-.$.E ] ' s W.W.W.W.W.",
"W.W.W.W.g.U $.0.0.<.>.>.:.:.=.=.*.:.V V r.r.r.r.C C C C C C C C C C C C C C C C r.r.r.r.B B 1.:.O.:.=.;.e.! ! ) ! W , W.W.W.W.W.",
"W.W.W.W.j F e.0.6.,.,.7.8.6.<.*.>.>.V V r.r.r.r.C C C C C C C C C C C C C C C C r.r.r.r.B B O.7.7.8.>.<.;.$.$.{ T A < E.W.W.W.W.",
"W.W.W.W.9 T e.%.>.7.7.7.1.1.9.q.6.7.2.2.V V r.r.r.r.r.r.r.r.r.r.r.r.r.r.r.r.r.r.r.r.B B ;.o.2.7.,.1.1.q.1.q.9.%.P r + W.W.W.W.W.",
"W.W.W.W.$ y H #.q.w.O.O.o.=.:.>.X.5.O.o.V V r.r.r.r.r.r.r.r.r.r.r.r.r.r.r.r.r.r.r.r.B B >.O.O.O.>.>.:.:.>.6.=.E U u . W.W.W.W.W.",
"W.W.W.W.& w K R 1.1.7.>.>.:.=.:.>.*.<.<.=.>.V V V V V V V V V B V V V V V V V V V B >.+.<.>.>.2.7.q.5.+.=.-.;.R D % O W.W.W.W.W.",
"W.W.W.W.- o S $.Y R E { $.R E %.%.$.$.E $.$.V V B B V V V V V B V V V V V V V V V V *.R <.9.$.<.1.@.Y w S Z E Z o h + W.W.W.W.W.",
"W.W.W.W.O & D S q ] ' y E i _ ) L F R L L U @.$.U { $.$.} G r r i ) W Q J R I %.$.U U y _ E U E ` K > % > % w q < c.* W.W.W.W.W.",
"W.W.W.W.@ Y.m 3 C.{.OXi.W d k ~ h e z d e H G A Q | G.G.M.M c.n.d j l k 3 r G A L z ( a ] _ ^ G.H.^ C.J.^.j.h j h.x O W.W.W.W.W.",
"W.W.W.W.+ m.`.`.+X+X{.).U.A./ m J.'.{.J.h.9 2 j.J.(.).'.+X+X&Xn.# V.'.'.C.V.V.i.- V.`.^.OX^.Z.).&X&X&X&X+X].].+XA.*   W.W.W.W.W.",
"W.W.W.W.O 8 n V.^.J.^.{.#XOXs m #X+X{._.U.b * Y.OX).^.{.OX{.).h.: M ^.^.'.OX{.f.s Z.^.).).).A.@ i.{.}.].^.).].^.s . ; W.W.W.W.W.",
"W.W.W.W.4 s b C.Z.Z.A.A.U.n.: 9 C.A.Z.C.A.f.s n.J.U.Z.Z.Z.C.Z.Z.f m Z.Z.Z.Z.Z.B.c Z.A.Z.U.^.n.8 f.Z.Z.Z.Z.Z.B.m - O p.W.W.W.W.W.",
"W.W.W.W.'.X > M C.Z.A.Z.Z.C.p = f.Z.Z.Z.Z.i., C.Z.Z.Z.Z.U.Z.Z.h.O f V.J.^.U.Z.n.8 C.Z.Z.Z.Z.b = g.C.Z.U.^.(.(.n.8 p ~.W.W.W.W.W.",
"W.W.W.W.#XX b V.V.V.J.U.C.n.s @ B.Z.Z.Z.B.s + B.U.Z.Z.A.n.C.h.m p 8 `.{._.A.U.C., n.Z.U.Z.U.i.# f.B.B.Z.^.{.`.i.8 n ~.W.W.W.W.W.",
"W.W.W.W.$X# f.OX&XOX_.^.Z.C.f.- h.Z.J.).`.(.- i.C.Z.Z.Z.B.C.C.A.f.@ B.Z.Z.Z.Z.C.p B.Z.Z.Z.Z.m f U.Z.Z.Z.Z.Z.V.g $ N.~.W.W.W.W.W.",
"W.W.W.W.=X8 g f.^.^.Z.Z.Z.U.B.s m C.^._.`.V.- v.B.Z.^.J.Z.Z.Z.U.g.- h.Z.Z.Z.Z.Z.m Z.Z.Z.Z.Z.i.f.Z.Z.Z.Z.Z.A.f.s @ D.R.R.W.W.W.W.",
"W.W.W.W.-X- s M Z.Z.Z.U.Z.Z.C.c f.Z.U.Z.U.n.- _.OXOX`.A.Z.Z.U.C.i., h.Z.Z.J.Z.C.i.J.Z.Z.Z.Z.f.g.Z.Z.Z.Z.Z.C.b p $ +XW.W.W.W.W.W.",
"W.W.W.W.*Xb.8 b h.Z.Z.Z.Z.Z.B.g h.Z.Z.Z.Z.f.8 v._.^.U.Z.Z.Z.C.n.M 8 f.Z.Z.^.^.B.b B.U.Z.Z.Z.m m B.Z.Z.Z.Z.h.c - N ;XQ.W.W.W.W.W.",
"W.W.W.W.[.>Xv.- f h.B.C.Z.n.b s h.Z.Z.Z.B.b r g B.Z.Z.Z.C.C.B.B.f.p M Z.Z.Z.Z.f.b B.Z.Z.B.h.f s h.C.Z.Z.B.i.a b.2X-XW.W.W.W.W.W.",
"W.W.W.W.E.|.2XXXb.n.f.B.Y.(.S.S.b f.h.B.B.M  Xg c M h.h.b n b c v. Xn.B.i.M n g S.n d.f.i.b N. Xv.M M m h.m..X4X6X|.W.W.W.W.W.W.",
"W.W.W.W.E.~.-X>X<X:X%X%X,X2X6X6X.Xb.N.D.XX;X2X$X X' M N n b. X@X,X7X$XN.m.b.K.@X2X%XoXm.N.XX1X,X,X%X$X.X@X=X6X4X*XQ.W.W.W.W.W.W.",
"W.W.W.W.W.W.R.!././.+X2X;X:X6X4X2X6X6X5X6X5X}.&X1X,X,X,X,X<X=X;X2X6X1X5X4X6X7X7X+X{.;X,X6X7X6X3X,X=X;X>X=X].{.~.Q.W.W.W.W.W.W.W.",
"W.W.W.W.W.W.W.W.E.L.k.I.U.z./.}.-X4X3X1X-X_.T.T.!./.+X{.).I.x.z.!.|.-X3X3X3X;X#XL.L.P.!.{.#X[.[.!.L.L.P.I.R.W.W.Q.W.W.W.W.W.W.W.",
"W.W.W.W.W.W.W.W.W.W.E.l.k.x.E.W.x.g.c.s.5 v 3 v l.x.E.x.k.k.s.l.z.x.!.~.!.c.p.5 4 4 i.p.L.E.T.W.T.x.L.W.E.W.W.W.W.W.W.W.W.W.W.W.",
"W.W.W.W.W.W.W.W.W.W.W.W.Q.W.W.W.W.W.W.W.W.W.W.W.E.W.W.W.W.W.W.W.W.W.W.W.W.W.W.W.W.W.W.W.W.W.W.W.W.W.W.W.W.W.W.W.W.W.W.W.W.W.W.W.",
"W.W.W.W.W.W.W.W.W.W.W.W.W.W.W.W.W.W.W.W.W.W.W.W.E.W.W.W.W.W.W.W.W.W.W.W.W.W.W.W.W.W.W.W.W.W.W.W.W.W.W.W.W.W.W.W.W.W.W.W.W.W.W.W.",
"W.W.W.W.W.W.W.W.W.W.W.W.W.W.W.W.W.W.W.W.W.W.W.W.W.W.W.W.W.W.W.W.W.W.W.W.W.W.W.W.W.W.W.W.W.W.W.W.W.W.W.W.W.W.W.W.W.W.W.W.W.W.W.W.",
"W.W.W.W.W.W.W.W.W.W.W.W.W.W.W.W.W.W.W.W.W.W.W.W.W.W.W.W.W.W.W.W.W.W.W.W.W.W.W.W.W.W.W.W.W.W.W.W.W.W.W.W.W.W.W.W.W.W.W.W.W.W.W.W."
};
