/* XPM */
static char *out[] = {
/* columns rows colors chars-per-pixel */
"64 64 230 2 ",
"   c #161C2E",
".  c #1A1F32",
"X  c #1C2333",
"o  c #1A2838",
"O  c #212635",
"+  c #232A36",
"@  c #242B3A",
"#  c #272A3A",
"$  c #27303C",
"%  c #2B323E",
"&  c #2A393E",
"*  c #323B3D",
"=  c #2F403C",
"-  c #3A473A",
";  c #414E3A",
":  c #57683F",
">  c #1F3240",
",  c #2B2D41",
"<  c #2D3542",
"1  c #2C3A47",
"2  c #313346",
"3  c #323B45",
"4  c #34364A",
"5  c #383B4B",
"6  c #383E52",
"7  c #413E52",
"8  c #374747",
"9  c #34434B",
"0  c #3B444B",
"q  c #3D4A4D",
"w  c #3D5245",
"e  c #2C4C55",
"r  c #394757",
"t  c #3C4B52",
"y  c #3D5256",
"u  c #3B5858",
"i  c #3A625C",
"p  c #3F4D63",
"a  c #3B5C62",
"s  c #396969",
"d  c #377378",
"f  c #404646",
"g  c #404B4E",
"h  c #514A46",
"j  c #544F4A",
"k  c #475748",
"l  c #434D52",
"z  c #44455A",
"x  c #44465B",
"c  c #465254",
"v  c #495457",
"b  c #4B5559",
"n  c #435A59",
"m  c #4C595B",
"M  c #525953",
"N  c #515B5E",
"B  c #655A4E",
"V  c #4D6549",
"C  c #556844",
"Z  c #59764B",
"A  c #476656",
"S  c #59665A",
"D  c #577A57",
"F  c #54755B",
"G  c #64655B",
"H  c #717156",
"J  c #474C61",
"K  c #494E64",
"L  c #455A64",
"P  c #4B5369",
"I  c #4D586F",
"U  c #545F60",
"Y  c #535868",
"T  c #4E5C73",
"R  c #525F75",
"E  c #456364",
"W  c #4B6465",
"Q  c #496968",
"!  c #566162",
"~  c #5B6566",
"^  c #5C6A67",
"/  c #526D6C",
"(  c #5F6969",
")  c #487669",
"_  c #537568",
"`  c #4C6E71",
"'  c #53657D",
"]  c #586A7A",
"[  c #467775",
"{  c #547574",
"}  c #567876",
"|  c #567B7A",
" . c #597D7C",
".. c #636D6D",
"X. c #6C7768",
"o. c #747C69",
"O. c #6C7473",
"+. c #657E7D",
"@. c #707875",
"#. c #8B785E",
"$. c #877F69",
"%. c #5D835A",
"&. c #65824D",
"*. c #768C4A",
"=. c #668857",
"-. c #648A5C",
";. c #778E5A",
":. c #6C945C",
">. c #6E985C",
",. c #739C5C",
"<. c #789A58",
"1. c #76A25D",
"2. c #7BA45D",
"3. c #7EA95E",
"4. c #598668",
"5. c #5D9264",
"6. c #4B8379",
"7. c #58867A",
"8. c #5F917E",
"9. c #658866",
"0. c #77826B",
"q. c #659665",
"w. c #6C9C62",
"e. c #798472",
"r. c #689671",
"t. c #75A464",
"y. c #70A26F",
"u. c #809753",
"i. c #9BB94F",
"p. c #87A65B",
"a. c #83AD5D",
"s. c #8AAD5C",
"d. c #95AC5B",
"f. c #8DB256",
"g. c #87B05B",
"h. c #8CB05A",
"j. c #93B554",
"k. c #9BB653",
"l. c #9DB851",
"z. c #94B25A",
"x. c #9BB35A",
"c. c #A0B94F",
"v. c #A3B656",
"b. c #AAB757",
"n. c #A3B952",
"m. c #AAB954",
"M. c #A4B559",
"N. c #AAB659",
"B. c #B1B857",
"V. c #968B6A",
"C. c #868C77",
"Z. c #889275",
"A. c #949977",
"S. c #AD946E",
"D. c #B4986E",
"F. c #8BA86D",
"G. c #99B865",
"H. c #96A676",
"J. c #9CB378",
"K. c #A6BC67",
"L. c #A3B773",
"P. c #C8A876",
"I. c #CCAD7B",
"U. c #587383",
"Y. c #677889",
"T. c #687D91",
"R. c #3E888B",
"E. c #5B8383",
"W. c #588A87",
"Q. c #5E8B8B",
"!. c #5A928B",
"~. c #4C8D90",
"^. c #459799",
"/. c #698B88",
"(. c #708B8F",
"). c #64918E",
"_. c #629494",
"`. c #689796",
"'. c #669D9D",
"]. c #6A9E9D",
"[. c #789C97",
"{. c #44A09F",
"}. c #6AA29C",
"|. c #79A39D",
" X c #489CA2",
".X c #579AA4",
"XX c #6E9EA1",
"oX c #45A4A4",
"OX c #47ABA9",
"+X c #4AAAA9",
"@X c #54A7A8",
"#X c #57B2AF",
"$X c #5CB6B2",
"%X c #6CA2A3",
"&X c #69A8AC",
"*X c #71A5A3",
"=X c #73AAAA",
"-X c #75ABAA",
";X c #6BB2B1",
":X c #68BCB6",
">X c #78B0B0",
",X c #7CB3B4",
"<X c #7AB8B6",
"1X c #7BC6BD",
"2X c #84A49B",
"3X c #A1A68E",
"4X c #90B3A7",
"5X c #84B8B7",
"6X c #85BBBC",
"7X c #D3B885",
"8X c #90C4BA",
"9X c #A4C9BA",
"0X c #D9C18D",
"qX c #D8C694",
"wX c #E2CE99",
"eX c #E5D39E",
"rX c #E9DAA5",
"tX c #EFE1AB",
"yX c #88BFC0",
"uX c #8BC5C3",
"iX c #98D0C4",
"pX c #ACD7C9",
"aX c #A9D9CB",
"sX c #B3DDCC",
"dX c #B7E0CE",
"fX c #B7E5D3",
"gX c #BBE9D6",
"hX c #C2EBD7",
"jX c #C2EDD9",
"kX c #C7F1DC",
/* pixels */
"OXOXOXOXOXOXOXOXOXOXOXOXOXOXOXOXOXOXOXOXOXOXOXOXOXOXOXOXOXOX;X;X#X;X+XOXOXOXOXOXOXOXOXOXOXOXOXOXOXOXOXOXOXOXOXOXOXOXOXOXOXOXOXOX",
"OXOXOXOXOXOXOXOXOXOXOXOXOXOXOXOXOXOXOXOXOXOXOXOXOXOXOXOXOX;Xt ! / t ;XOXOXOXOXOXOXOXOXOXOXOXOXOXOXOXOXOXOXOXOXOXOXOXOXOXOXOXOXOX",
"OXOXOXOXOXOXOXOXOXOXOXOXOXOXOXOXOXOXOXOXOXOXOXOXOXOXOXOXOX;XN ..N f ;X+XOXOXOXOXOXOXOXOXOXOXOXOXOXOXOXOXOXOXOXOXOXOXOXOXOXOXOXOX",
"OXOXOXOXOXOXOXOXOXOXOXOXOXOXOXOXOXOXOXOXOXOXOXOXOXOXOXOX@Xn N ~ O.3 U.+XOXOXOXOXOXOXOXOXOXOXOXOXOXOXOXOXOXOXOXOXOXOXOXOXOXOXOXOX",
"OXOXOXOXOXOXOXOXOXOX+X+XOXOXOXOXOXOXOXOXOXOXOXOXOXOXOXOX`   m ~ ..$ X ].OXOXOXOXOXOXOXOXOXoXOXOXOXOXOXOXOXOXOXOXOXOXOXOXOXOXOXOX",
"OXOXOXOX^.s s d ~.d U.E.6.8.!.6.%._ Q %.F :.%.-.) 6.!.Y.q   c ..U l o 0 *XW.{ A D =.A ) 5.6.6.8.!.!.[ 4.[ ~.d s i d {.OXOXOXOXOX",
"OXOXOXR.i - 3.,.<.1.F t.<.g.1.1.g.1.>.1.3.j.f.f.g.J.S O.+ X ( ....@.  0 n 0.F.t.a.f.a.2.f.p.,.3.1.t.a.,.>.Z - 2.1.&.i ^.OXOXOXOX",
"OXOXOXi :.=.z.h.v.m.d.N.j.k.i.i.l.z.j.j.j.i.i.K.e.m ( 9 o   O.m O.N   @ K ~ c J.f.i.j.k.m.m.x.j.j.x.n.h.s.:.2.g.3.1.=.) ^.OXOXOX",
"OXOXOXs Z p.b.m.n.m.c.j.f.n.n.m.m.b.m.f.g.f.J.S U ..v 9 .   ....~ v   + g N ..v X.G.z.h.j.i.i.i.i.k.j.f.x.k.M.x.3.1.%.) ^.OXOXOX",
"OXOXOXd >.3.x.l.j.j.k.i.j.k.j.j.j.j.i.i.J.e.N ( ( m t 4 r # v U m O., r 5 K S ..~ m Z.L.i.i.i.j.j.i.k.j.j.n.B.z.g.3.9.[ OXOXOXOX",
"OXOXOX[ V a.M.N.z.v.k.j.j.f.j.v.z.h.G.0...@.X.l c , 6 4 P   v ..v ..O T , r l c c ( ! m H.N.v.x.n.j.i.f.j.k.s.w.>.>.%.s oXOXOXOX",
"OXOXOXs :.a.N.B.x.i.k.c.l.f.s.h.G.J.S ! ~ l q b < U.I 6 J   @...~ b   T 2 U.I 2 v c S ^ ( 0.J.x.n.k.l.k.h.f.a.3.>.:.1.) {.OXOXOX",
"OXOXOXe t.g.x.N.m.m.m.m.N.N.M.N.H.N U N 6 x K 6 1 U.x J , @ ....O.m o K x R ' # r n l f Y ~ b L.n.m.b.N.M.M.M.N.G.a.1.7.~.OXOXOX",
"OXOXOX9.y.t.a.h.n.m.c.k.f.x.n.j.X.g 2 c 6   U.P r U.J K 6 $ ! ..O.~ , P x ] ' 4 T U.# 6 g 2 c H.i.c.j.f.n.k.l.m.x.a.w.) 6.OXOXOX",
"OXOXOX7.y.y.>.2.h.f.j.i.i.j.f.j.  @ b 7 , 4 P 7 P U.I U.r $ ! ~ O.~ @ P U.Y.T.J 7 U.x 2 3 c $ G i.i.c.i.f.j.j.x.h.y.4.W.| OXOXOX",
"OXOXOXW.w.t.3.x.m.z.n.N.k.j.f.k.3 q , 6 6 J U.x K I x U.5 $ ! ~ @.@.< r R K ' J P R J 6 6 O 0 X.x.m.M.k.f.j.l.n.M.a.w.s s OXOXOX",
"OXOXOX{ 1.3.f.l.i.i.i.j.j.i.c.c.M X 4 z x ' U.7 I U.x x 4 , ( ~ @.O., x J I U.K J ' ' 7 ' O   Z.i.k.j.j.i.i.n.b.N.3.q.F s OXOXOX",
"OXOXOXF 3.g.x.l.f.f.j.N.j.f.n.i.K.S I P I ' U.J U.U.x U.4 2 ....O...o K U.P U.R x ' ' J I 2 S G.j.k.v.f.j.c.n.n.x.-.-.=.u OXOXOX",
"OXOXOX=.a.x.v.l.k.j.f.k.l.j.i.f.G.0 J x P U.T.K U.Y.J U.o , R ..O.Y 2 6 U.K T.U.K ' ' x 7 5 0 k.f.j.l.l.i.j.f.j.N.u.D -.n OXOXOX",
"OXOXOXn t.p.s.z.j.f.a.g.j.k.i.i.K.G @ 6 ' Y.Y K Y.K P 1 . , K @.U ..2 . J x Y U.z J ' J P 2 f j.h.a.f.j.i.i.j.j.p.;.w.2.D OXOXOX",
"OXOXOXD 2.F ,.M.n.k.j.i.j.j.j.j.3X. U.x J J I J P P , c 3 3 m O.~ O.0 g 2 4 P K x ] ' x ' P 2 L.j.j.j.j.i.f.f.a.<.<.F A t OXOXOX",
"OXOXOXk -.F :.a.j.i.k.f.f.f.f.f.C.2 U.x R U.I I R t ~ U X ....@.@.! b , ..l 9 U.x ' ' I T I 4 H.i.j.j.f.f.f.j.f.k.N.,.=.u OXOXOX",
"OXOXOXe D :.,.d.k.n.m.v.k.i.n.m.X.x P x T U.P R < m f $ X f ~ A.A.S 5 + o ~ ! 4 T I ' U.P I 7 H.m.m.v.j.c.n.n.n.x.d.:._ L OXOXOX",
"OXOX+Xe { 4.t.M.B.n.n.f.f.n.n.n.# 7 4 x U.U.7 2 ..v f 8 % v H C.Z.A.j * 0 < c Y , J U.R 7 z 7 X.i.k.f.j.n.n.m.B.M.;.e E.} OXOXOX",
"OXOXOXQ 4.>.1.f.x.v.l.j.j.f.f.k.2 2 7 K ' 5 l ! c n c 8 +   0.C.e.o.O % f M c g S 5 r U.7 J 2 @.l.k.j.j.j.z.k.z.z.<.&.V e OXOXOX",
"OXOXOXu w.:.w.z.b.m.n.n.N.h.f.J.2 I J 4 @ g U l b c q . + . o.A.C.* #   $ g b c q ( l > 6 U.I , i.n.n.l.h.z.h.s.p.,.3.V 1 OXOXOX",
"OXOXOXi 5.1.a.z.m.m.m.n.M.M.B.H.4 K 6 4 ~ ..N m b 8   # D.D.h h h h D.V.  X q b b m ^ v , K K , K.m.N.v.n.z.1.w.t.%.F w 9 OXOXOX",
"OXOXOX[ 5.t.w.3.s.z.j.k.f.k.l.0.7 2 g ~ ~ ~ m m %   h D.0X7XP.I.P.P.0X7XV.+ X 0 m m m O.( , 2 4 L.c.j.h.k.s.1.t.w.>.>.:.e OXOXOX",
"OXOXOX) 6.5.w.q.q.>.a.h.f.j.f.  , l ~ ~ v m c + + H P.0XtXtXqXqX0XeXrXrXI.P.B   3 b m c U O.U O 0.i.i.n.k.j.f.f.g.3.y.).) OXOXOX",
"OXOXOX| ) 5.1.a.a.g.k.n.j.f.H.$ ....b c m m * # D.P.7X7X0X0XqXqXqXqXwX0X7X7XP.#.  0 b m l N ..N . b.n.l.z.k.j.k.x.<.-.{ Q OXOXOX",
"OXOXOX` %.3.j.z.x.v.b.n.k.L.3 ( b % l m c @ O D.7XtXtX3XC.C.A.A.A.A.C.2X7XrXtXI.#.  & m c 0 8 ..b X M.l.j.n.m.m.z.,.q.n 1 OXOXOX",
"OXOXOX` F 3.z.n.k.k.i.j.j.K.m l < l l b X   V.0XtXrXG C.C.o.C.C.C.e.o.C.X.C.rXrXI.#.. $ c g g % ! 3 j.j.i.c.n.b.x.-.F D 9 OXOXOX",
"OXOX+XF -.s.b.m.h.f.j.n.j.J.  & g 0 b @ X h 7XtXeX* @.G ......K ~ @.O...X.! G eXrXI.h O 3 b g q X 0 n.z.j.c.i.v.N.f.2.-.e OXOXOX",
"OXOXOX=.:.2.x.x.l.j.f.j.i.K.+ c 9 c O % 5 h eXrXS.b 5 b b Y O...@.O.@.O.3 N 5 wXrXeXh 8 @ $ c 3 f G.k.k.i.j.f.k.B.z.2.,.S OXOXOX",
"OXOX+XF D ,.a.s.j.j.f.f.f.i.G.H.9 . 8 l ! X.tXrXj x b N N % , 7 6 X 4 ....5 f V.tXtXo.v 8 @ X $ F.f.f.j.j.j.j.k.N.z.<.-.n OXOXOX",
"OXOX+XA a.a.j.x.N.l.k.j.j.f.j.f.F.  l ..U X.tXwXh X ..U # 2 , 7 7 # , 2 U U O #.tXtX@...S 0   K.n.k.j.f.j.f.j.z.z.x.a.-.u OXOXOX",
"OXOXOXF >.3.g.f.f.l.m.k.j.v.m.m.N.; U ..( m rXqXh + O.0 2 r T T U.P r , N ! < #.rXrXN ( ..< ; k.n.b.k.j.n.m.m.b.h.a.%.F Q OXOXOX",
"OXOXOXa Q %.3.x.n.n.k.j.j.i.l.n.M.: b ~ ..m qX7Xh 5 O.5 U.I U.U.U.I R P N ..5 #.0X0X~ N ..% : l.i.j.j.j.n.n.n.b.x.3.y.7._ OXOXOX",
"OXOXOX| r.>.z.b.j.x.l.i.j.j.h.k.d.Z g ..( ~ D.P.B b ! 0 J 4 7 I K , 2 x N ( 3 V.I.$.b ....* *.f.k.k.i.f.j.j.v.s.a.3.r.8.E OXOXOX",
"OXOX+XW.w.s.M.b.z.v.k.j.j.f.h.k.G.*.O ..~ ..H P.#.v N r I Y.Y.T.T.Y.Y.P b N f P.P.h m ..! - d.z.n.j.i.f.f.z.a.5.5.q.5.4.u OXOXOX",
"OXOXOX) =.p.N.b.i.i.n.n.b.z.z.z.G.*.- b N O.2 ..q v ~ $ P ' T U.K U.U.4 c ..f U ( O ~ ! N : *.i.n.n.m.M.h.g.g.g.2.1.t.%.u OXOXOX",
"OXOXOXi ,.a.s.x.n.c.m.n.x.M.b.N.N.*.- 0 ~ 8 + m 9 q ! $ # X O # , . . . 0 m 5 v t + N m 8 : *.l.n.n.v.x.N.x.l.b.M.g.>.A 9 OXOXOX",
"OXOXOX9 F :.s.B.B.n.i.i.j.j.k.j.x.*.; 5 q g + m m < m $ x 6 7 I x 4 4 4 0 m 9 m 0 + g 0 3 Z *.k.i.i.l.j.x.x.n.n.z.3.,.D $ OXOXOX",
"OXOXOXw Z :.<.M.x.k.l.k.k.f.j.k.d.u.C f q b + 0 0 + b $ 6 2 2 I K 6 4 2 8 m $ q % 3 q c $ *.*.x.l.n.m.n.g.f.f.3.h.1.=.= > OXOXOX",
"OXOXoXe & =.a.2.1.t.3.3.2.3.s.z.<.%.V q 0 m + C C @ m @ : V w k b V : - 8 n * C - 3 b 0 3 *.*.F.a.z.z.2.Z Z :.&.3.&.< ) 1 OXOXOX",
"OXOXOX< q =.&.V r.7.4.D :.>.:.>.:.V Z k V k C &.Z = k w D %.V y c Z A A 3 w w Z *.V V A 8 F =.t.w.a.t.D 8 u e - %.V a _.e OXOXOX",
"OXOXOX9 ].{ s _.,X8X,XE._ ) 7.) _ y A u Q 9.9.9.4.4.9./.`.8.W ` L u [ ) i u u -.4.=./ 9.8 _ D 8.).r.}.!.}.*X}.!.s ) /.{ < OXOXOX",
"OXOXOX9 (.-X,X8X6X5X,X*X%X6.| }.}.-X,X}.).n u !.}.*X&X2X5X5X5X5XQ `.5X*X>X_.`.`. .q `.-X*X<X}.%X'.*XuX8XuXuX5X>X,X<X].9 o OXOXOX",
"OXOXOX1 n  .'.].XX].%X<X6XL  .6XyX6X,X=XXX{ 9 *X5X&X%X,X<X<X,X*X`  .*X&X%X,X<X,XE.Q '.%X=X*X=X>XW.9 U.<X>X%X%X=X-X%XE o e OXOXOX",
"OXOXOXe Q  .'.'.'.'.%X%X'.9 u `.XX'.'.'.'.E.E U.%X%X'.].%X'.'.'.E.E.'.'.'.'.'.'._.{ '.'.'.].&X>XE.q | '.'.'.'.'.'._.E $ d OXOXOX",
"OXOXOXd L / _.XX'.'.'.'._.E U Q.'.'.'.'.'.Q.Q `.].'.'.'.'.'.'.'.E.{ _.'.'.'.'.'.`.Q '.'.'.'.'._./ Q !.'.'.'.'.'.).E 1 $ {.OXOXOX",
"OXOXOX:X@ u  .`.'.'.'.'.'.L 9 { ).'.'.'.'.E.u `.'.'.'.'.'.'.'.'.E W [.`.%X%X'.'.Q.u '.'.'.'.'.Q.W r E.'.'.%X%X*X*X/.L L OXOXOXOX",
"OXOXOX8X$ [ `.`._.XX%X%X_.W 1 Q.'.'.'.'._.W 1 Q.'.'.'.'._.Q._.Q.` p =X,X,X=X'.'.`.y _.'.'.'.'._.L 9 E._.'.%X=X,X=X7.t  .$XOXOXOX",
"OXOXOXiXq | ].,X-X%X%X}.'.Q.n { _.'.%X&X-X].t /._.%X'.'.'.'.'.'._.9 E.'.'.'.'.'.'.Q '.'.'.'.'.'.W [ '.'.'.'.'.'.)./ 9 `.#XOXOXOX",
"OXOXOXiXy Q  .'.'.'.'.'.'._./ } _.'.'.'.'.).y -X5X5X>X%X'.'.'.'.Q.y | '.'.'.'.'.`.U.'.'.'.'.'._./ Q.'.'.'.'.'._./ L 9 6XOXOXOXOX",
"OXOXOXiX/ W  .`.'.'.'.'.'.'./ / '.'.'.'.'.Q.t ).%X%X'.'.'.'.'.'.Q.y | '.'.'.%X'.).| '.'.'.'.%X_.{ E.'.'.'.'.'.'.7.L L aX#XOXOXOX",
"OXOXOX1X2Xt Q U.'.'.'.'.'.Q./ E.'.'.'.'.}.Q.n  .>X&X%X'.'.'.].).E.W / _.}.'.%X=X`./ `.'.'.'.`.Q.L / Q.'.'.'.`.7.L 3 2XaXOXOXOXOX",
"OXOXOX:XsX/.y ` Q._._.'._.} E E.].].'.'._.} Q _ _.'.'.`.`._._.`.Q.L / Q.'.'.%X'.E.{ `.'.'._./.7.y Q Q._.'.'._.U.W /.jXiXoXOXOXOX",
"OXOXOXOX1XfX4X(./.} /._.].2X[./ 7.E.Q._._.U.|.! / | Q.Q. ./ { { } 2X/.Q._.7.| | { 2X} U.E.| { } 2X2X/.} | Q.`.(.4XhXgX1XOXOXOXOX",
"OXOXOXOX#XiXsXfXpX8X9X9XdXjXhX9X/./.(.|.4X9XgX9X2X/.+.+.} 7./.[.pXkXsX2X[././.[.4XgX9X4X(.[.4XpXjXdXsX9X4X4X4XiXhXgXuX+XOXOXOXOX",
"OXOXOXOXOX X@X&X=X,XuXfXpXfXgXdXjXgXjXgXkXgX<XuXsXpXsXsXsXdXdXpXaXjXsXgXhXhXhXjXkXuX<XaXdXgXkXjXjXgXaXiXaXsX8X>X<X$XOXOXOXOXOXOX",
"OXOXOXOXOXOXOXOX X^.~..X.X&X1XuXfXfXgXfXiX;XoXoX@X&X6X5X&X&X.X^. X1X1XaXfXfXgXaX1X X^. X@X<XuX;X:X:X#X X X.X@X+XoXOXOXOXOXOXOXOX",
"OXOXOXOXOXOXOXOXOXOX X^.^.oXOX@X~.!.!.~.d [ s [ ^.^.oXoX^.~.~.~.^.{.@X#X$X@X.XR.d [ d R.~.R.OX XoXOXOX^.OXoXOXOXOXOXOXOXOXOXOXOX",
"OXOXOXOXOXOXOXOXOXOXOXOXOXOXOXOXOXOXOXOXOXOXOXOXOXOXOXOXOXOXOXOX+X+XOXOXOXOXOXoXOXOXOXOXOXOXOXOXOXOXOXOXOXOXOXOXOXOXOXOXOXOXOXOX"
};
