/* XPM */
static char *out[] = {
/* columns rows colors chars-per-pixel */
"64 64 224 2 ",
"   c #1A2838",
".  c #202A38",
"X  c #24313E",
"o  c #28393D",
"O  c #263643",
"+  c #2B3C46",
"@  c #2E3E4A",
"#  c #303E48",
"$  c #2D414B",
"%  c #33424B",
"&  c #344C48",
"*  c #36484E",
"=  c #3D5548",
"-  c #344550",
";  c #354B52",
":  c #3A4C52",
">  c #2C545B",
",  c #3E5157",
"<  c #3A5B56",
"1  c #3E545B",
"2  c #3C5C5D",
"3  c #3B635C",
"4  c #3A6A65",
"5  c #38686A",
"6  c #366F73",
"7  c #3C787D",
"8  c #405541",
"9  c #425C52",
"0  c #41565A",
"q  c #435C5D",
"w  c #4C674A",
"e  c #56744D",
"r  c #466659",
"t  c #4A6A5B",
"y  c #506C55",
"u  c #577857",
"i  c #55765B",
"p  c #577A5C",
"a  c #5A7D5B",
"s  c #435C60",
"d  c #485F61",
"f  c #446365",
"g  c #4B6465",
"h  c #436963",
"j  c #4A686A",
"k  c #4C6B6C",
"l  c #516E6D",
"z  c #467268",
"x  c #4A746B",
"c  c #447D6B",
"v  c #4B7C6B",
"b  c #517663",
"n  c #557E62",
"m  c #53706F",
"M  c #4F6F71",
"N  c #506F70",
"B  c #437673",
"V  c #477976",
"C  c #547574",
"Z  c #587A76",
"A  c #567B7B",
"S  c #5A7D7D",
"D  c #677E7D",
"F  c #5E8050",
"G  c #5C835D",
"H  c #60814F",
"J  c #648551",
"K  c #688A54",
"L  c #678658",
"P  c #61865C",
"I  c #648A5C",
"U  c #6A8E5D",
"Y  c #778F5A",
"T  c #6A9359",
"R  c #6C935C",
"E  c #6E995E",
"W  c #709556",
"Q  c #77995A",
"!  c #739C5C",
"~  c #7DA357",
"^  c #75A25F",
"/  c #7BA45D",
"(  c #7EA95D",
")  c #5B8164",
"_  c #588968",
"`  c #5D9264",
"'  c #4B8379",
"]  c #568C75",
"[  c #58867A",
"{  c #608667",
"}  c #649463",
"|  c #6B9C62",
" . c #689966",
".. c #709F63",
"X. c #63867A",
"o. c #659875",
"O. c #6DA16F",
"+. c #72A261",
"@. c #7BA666",
"#. c #7AA863",
"$. c #73A46E",
"%. c #78A975",
"&. c #97B74F",
"*. c #99B74F",
"=. c #9BB94E",
"-. c #82A55B",
";. c #8EA55A",
":. c #84AD5C",
">. c #8BAE5C",
",. c #93A359",
"<. c #92AE5B",
"1. c #8DB256",
"2. c #87B05A",
"3. c #8BB159",
"4. c #94B553",
"5. c #9BB653",
"6. c #9CB850",
"7. c #94B25A",
"8. c #9BB359",
"9. c #A0B94F",
"0. c #A3AE57",
"q. c #A2B755",
"w. c #A9B757",
"e. c #A4B952",
"r. c #AAB954",
"t. c #A3B559",
"y. c #ABB759",
"u. c #AEB858",
"i. c #B2B956",
"p. c #82AE62",
"a. c #85B271",
"s. c #3D7D80",
"d. c #587C80",
"f. c #3D8488",
"g. c #3F9293",
"h. c #478587",
"j. c #568485",
"k. c #5B8484",
"l. c #5B8C82",
"z. c #548D88",
"x. c #5E8B8B",
"c. c #56928B",
"v. c #5B928B",
"b. c #488E99",
"n. c #449396",
"m. c #48949B",
"M. c #459C9D",
"N. c #599896",
"B. c #668684",
"V. c #6E8B85",
"C. c #628D8D",
"Z. c #6A8E8B",
"A. c #718F88",
"S. c #63958C",
"D. c #679A88",
"F. c #73938C",
"G. c #629494",
"H. c #6A9796",
"J. c #649A96",
"K. c #669C9C",
"L. c #6A9D9D",
"P. c #7E9D94",
"I. c #749A98",
"U. c #44A09F",
"Y. c #75A98B",
"T. c #6BA397",
"R. c #6BA29D",
"E. c #79A39D",
"W. c #459DA2",
"Q. c #4B9AA2",
"!. c #5A9BA5",
"~. c #659EA4",
"^. c #729FA1",
"/. c #45A4A4",
"(. c #4BA7A7",
"). c #47ABA9",
"_. c #4AACAA",
"`. c #56A8A9",
"'. c #59B2AF",
"]. c #5CB6B2",
"[. c #6BA2A2",
"{. c #68A8AC",
"}. c #71A5A4",
"|. c #71A9A8",
" X c #73AAAB",
".X c #79ADAD",
"XX c #77B2AD",
"oX c #79AEB0",
"OX c #68B6B2",
"+X c #7DB4B4",
"@X c #78B9B7",
"#X c #7BC5BC",
"$X c #7AC6BD",
"%X c #81B286",
"&X c #84A59B",
"*X c #8BADA2",
"=X c #8EB3A8",
"-X c #91B3A7",
";X c #82B7B5",
":X c #82B7B8",
">X c #86BDBC",
",X c #99BEB1",
"<X c #87C3BC",
"1X c #9AC4B7",
"2X c #A6CCBC",
"3X c #8BC3C3",
"4X c #8ACEC3",
"5X c #97C9C3",
"6X c #9DCDC4",
"7X c #99D4C7",
"8X c #A5D6C8",
"9X c #A4D4CA",
"0X c #ACD7C9",
"qX c #ADDCCE",
"wX c #B4DECC",
"eX c #B8E1CE",
"rX c #B5E3D2",
"tX c #BBE6D4",
"yX c #B9E9D6",
"uX c #BBE9D6",
"iX c #C1EBD6",
"pX c #C2EDD9",
"aX c #C7F1DC",
"sX c #C8F2DD",
/* pixels */
").).).).).).).).).).).).).).).).).).).).).).).).).).).).).).).).).).).).).).).).).).).).).).).).).).).).).).).).).).).).).).).).",
").).).).).).).).).).).).).).).).).).).).).).).).).).).).).).).).).).).).).).).).).).).).).).).).).).).).).).).).).).).).).).).).",
").).).).).).).).).).).).).).).).).).).).).).).).).).).).).).).).).).).).).).).).).).).).).).).).).).).).).).).).).).).).).).).).",
").).).).).).).).).).).).).).).).).).).).).).).).).).).).).).).).).).).).).).).).).).).).).).).).).).).).).).).).).).).).).).).).",
").).).).).).).).).)._._.).).).).).).).).).).).).).).).).).)._.).).).)._.).).).).).).).).).).).).).).).).).).).).).).).).).).).).",
").).).).).n.4 z 6 7 d.j.c V c.c._ b h n i T a U x V z.z.] ] J.R.D.D.v.v.l.x h ) I r b } ' ' c.c.V _ v V s.4 4 6 U.).).).).).).).",
").).).).g.> 8 ( T ^ U ..R ( 3.^ ~ / ! ^ 2.1.1.3.2.:.( 7.>.%.@.a.a.( :.2.+.E ~ 2.1.:.Q 4.-.! #.#.#.:.I ! w / Q H 3 M.).).).).).).",
").).).).3 E K 7.<.t.0.w.t.:.5.6.t.7.4.7.&.&.&.&.&.&.4.4.8.7.t.4.4.6.6.5.>.7.4.1.=.&.=.r.r.4.5.8.t.4.2.>.W :.:.! I b n.).).).).).",
").).).).5 e -.y.r.e.r.4.7.1.6.r.w.w.r.1.2.4.1.7.1.4.5.e.6.5.4.1.4.r.r.r.r.5.2.1.1.7.3.5.9.9.=.5.7.7.3.5.t.8.:.^ G z M./.).).).).",
").).).).6 W -.7.=.4.4.=.&.4.&.7.4.4.=.&.4.=.&.e.&.&.4.4.4.=.=.4.&.4.&.7.&.&.4.&.&.e.&.6.=.5.4.=.=.&.4.4.w.7.:.#.I V ).).).).).).",
").).).).B y -.t.w.7.5.4.4.3.1.1.8.1.&.=.=.1.1.&.6.q.r.8.8.4.4.1.1.1.8.3.4.=.=.4.2.4.&.5.r.t.8.4.&.1.1.4.1.| | ! G h /.).).).).).",
").).).).2 E :.t.u.q.e.r.q.5.5.8.8.6.6.9.=.4.1.6.4.4.4.&.e.e.e.t.8.8.8.5.9.=.=.&.4.4.4.4.&.&.5.e.e.q.8.8.7.<.-.^ ^ x M.).).).).).",
").).).).{ $.@.:.>.t.e.&.4.3.5.t.6.6.=.=.=.&.6.e.7.4.4.=.=.=.4.4.1.e.5.6.6.9.=.&.5.q.8.1.&.6.=.9.4.4.3.q.5.w.q.p.| ' ' ).).).).).",
").).).).[ %X%. .| :.4.&.6.=.4.4.&.=.=.=.=.=.4.=.1.1.1.4.=.=.=.=.&.4.&.&.=.=.=.=.&.6.&.2.1.4.6.=.=.=.6.4.&.6.7.O._ j.A ).).).).).",
").).).).[  . .^ 2.4.4.t.=.=.1.1.3.7.4.1.2.1.1.4.4.1.4.4.&.=.e.&.4.2.1.7.4.4.3.3.1.1.4.1.1.&.5.9.e.6.&.2.3.7.2.@.o.v.k ).).).).).",
").).).).z.| #.( 7.r.5.w.t.4.4.1.=.6.=.1.3.1.4.6.e.r.=.e.t.w.t.5.4.1.6.6.6.4.3.1.&.5.e.e.9.9.5.u.y.5.&.1.&.q.y.p. .h 5 ).).).).).",
").).).).C ^ ( 1.5.6.e.4.4.6.=.=.e.e.4.1.1.1.3.5.4.5.e.6.6.5.4.5.6.=.e.e.5.1.3.4.1.7.5.7.e.6.6.6.1.6.&.6.=.e.q.( R i 5 ).).).).).",
").).).).G ( 3.5.6.4.1.q.6.1.4.6.4.e.5.&.5.6.t.6.6.e.6.4.1.5.5.4.4.6.4.6.6.&.&.5.q.e.6.6.6.&.1.&.5.5.4.4.5.5.t.Y G I < ).).).).).",
").).).).9 / ;.<.7.5.:.3.1.4.=.=.=.=.4.4.1.4.1.1.:.5.7.7.1.:.1.1.=.=.&.=.=.4.1.4.1.1.2.4.7.7.1.( 3.1.&.6.&.4.;.Y R / i ).).).).).",
").).).).u #.a ! 8.e.4.&.4.4.4.4.4.4.4.=.=.*.4.&.6.6.e.6.4.4.&.4.4.4.4.4.1.6.=.=.4.&.6.6.e.e.&.4.&.4.&.4.7.:.Q ! u r : _.).).).).",
").).).).9 G i R :.4.6.1.4.3.1.1.1.:.1.4.=.=.=.=.e.u.q.t.=.7.4.1.1.4.2.2.3.4.6.=.&.=.9.r.y.8.e.4.4.1.3.1.1.1.5.y.Q P 2 ).).).).).",
").).).).; a R ! 8.8.e.t.q.1.6.e.e.8.5.4.4.&.&.=.6.6.4.6.9.e.t.4.4.e.e.8.5.5.&.4.&.&.6.9.6.&.e.w.t.8.4.q.e.q.5.,.U b s ).).).).).",
").).).).; x n ( y.i.q.1.4.1.q.e.r.e.e.7.:.1.3.5.1.&.=.6.=.4.7.1.5.q.e.r.9.5.2.1.1.8.3.4.=.=.=.4.1.1.4.e.e.u.y.R : d.A ).).).).).",
").).).).j ) | / 3.8.5.&.&.1.4.1.4.1.&.=.=.4.4.5.&.q.e.4.5.=.4.4.1.4.4.1.4.&.&.4.7.5.6.6.e.5.5.6.=.4.1.4.5.8.7.~ L w - ).).).).).",
").).).).< ! | | <.w.e.e.q.q.3.3.7.4.=.=.=.=.4.6.4.5.=.4.=.e.e.e.4.3.7.4.=.=.=.=.4.4.&.4.=.5.=.6.e.e.4.1.7.2.-.! / w + ).).).).).",
").).).).< ` ^ :.7.u.r.w.y.8.y.u.w.w.9.9.=.4.1.5.3.1.1.=.9.r.y.8.t.y.w.u.e.e.=.&.7.7.4.1.1.&.9.r.q.t.t.q.:.| +.G e = $ ).).).).).",
").).).).V ` ..! ( >.4.5.4.3.4.5.*.=.9.9.=.4.=.9.4.4.=.=.=.=.4.4.7.6.6.=.=.=.=.&.*.e.5.4.4.=.=.=.5.3.3.t.( E  .| E U * ).).).).).",
").).).).x c ` ..} } ^ 1.3.4.4.4.4.&.=.=.=.=.4.&.1.2.1.4.=.=.=.=.4.4.4.4.=.=.&.=.4.&.&.2.1.1.&.=.=.6.e.5.1.1.:.( O.D.k _.).).).).",
").).).).A c ` ..( 2.7.e.5.&.1.2.1.5.4.1.:.1.1.4.4.1.4.6.6.e.e.4.4.2.1.7.4.4.2.2.4.1.&.7.4.5.4.9.r.6.t.7.5.5.t.Q U C M ).).).).).",
").).).).M p p.7.8.8.q.5.5.4.6.6.e.e.*.1.1.1.7.5.6.q.=.9.6.t.5.4.&.6.=.e.6.4.1.3.7.4.5.5.e.9.6.q.5.5.4.6.9.e.8.R G t $ ).).).).).",
").).).).i P :.y.q.3.4.q.8.3.1.6.5.q.=.=.6.e.r.e.9.e.9.1.1.6.t.7.3.6.6.q.6.6.6.q.r.e.9.9.9.4.1.5.q.7.3.4.6.t.w.<.^ P ; ).).).).).",
").).).).I T ( 8.t.6.1.4.6.6.6.&.1.=.&.4.7.4.*.5.4.6.4.5.4.7.6.=.&.6.1.&.=.&.4.4.5.6.4.=.5.4.4.7.6.6.&.=.1.5.i.4./ ! y ).).).).).",
").).).).r t R p.:.1.3.3.1.4.=.=.=.&.&.4.7.4.1.1.2.t.8.<.2.2.1.1.6.=.&.=.=.4.1.4.1.1.3.4.8.7.1.:.1.1.&.=.=.9.i.8...E t ).).).).).",
").).).).P ! ! :.7.5.4.4.4.4.4.1.1.1.1.=.&.=.4.=.=.9.9.9.*.4.&.4.4.1.1.1.4.&.=.=.4.6.=.=.e.e.5.4.4.1.4.4.1.3.8.<./ u 1 ).).).).).",
").).).).w #.p.7.8.q.6.4.4.1.4.1.1.1.1.4.=.=.=.=.9.i.t.8.9.4.4.1.1.4.1.2.1.4.=.=.&.6.e.w.y.7.9.5.&.4.1.4.7.4.8.8.p.L q ).).).).).",
").).).).t ) T :.7.5.e.4.5.1.e.e.e.6.q.4.1.&.4.4.4.*.=.*.=.8.8.4.6.e.e.t.6.6.1.1.4.5.4.&.6.=.=.e.7.4.1.e.e.u.<.:. .v k ).).).).).",
").).).).S  .| 7.u.4.5.6.4.1.4.1.4.2.*.=.=.4.5.=.=.=.9.5.8.*.*.1.4.4.4.2.4.=.=.&.4.e.=.6.e.5.4.5.=.4.1.4.8.2.:.#.o.X.g ).).).).).",
").).).).[ E >.t.u.7.6.4.4.4.1.1.7.7.*.=.=.1.1.4.4.q.w.8.5.4.*.4.1.1.7.1.4.=.=.4.1.1.&.5.r.t.5.4.&.4.1.4.>.` ` } ` ) 1 ).).).).).",
").).).).x P ;.y.w.=.e.r.r.q.7.7.8.6.=.=.=.=.4.6.4.4.=.4.=.r.r.r.7.3.7.5.=.=.=.=.4.4.&.4.6.&.=.e.e.r.q.3.>.:.:.+.^ G 2 ).).).).).",
").).).).q ^ p.3.8.9.9.t.8.7.y.w.w.r.9.9.=.1.4.8.7.1.1.=.e.e.8.8.t.i.w.r.e.e.=.4.4.8.8.3.1.4.9.r.q.8.8.y.5.y.y.:.E t + ).).).).).",
").).).).$ u U ;.i.i.=.*.4.4.4.5.*.9.=.=.=.=.=.e.4.4.4.=.=.=.&.4.7.6.=.=.=.=.=.&.=.9.=.4.4.=.=.=.6.4.4.4.8.q.1.~ ^ u X ).).).).).",
").).).).= e R / t.8.q.6.q.4.1.7.8.7.7.7.4.8.5.4.5.:.7.5.q.6.q.q.4.2.4.4.4.4.7.1.4.4.5.>.4.t.5.e.r.u.t.2.4.2.3.Q K $ O ).).).).).",
").).).).* o J :.~ / ( / :.^ :.>.>.:.:.( :.:.t.q.7.:.:.>.<.L R ( ! >.>.8.q.y.8.4.4.w.<./ 7.t.p.7.8./ ~ e J F 2.F o z + ).).).).).",
").).).).o = K a r o._ i / a E } E P / U R ! :.:.+.+.#.p./ I t h a R G ` Y / Q >.:./ Q i } p.+.#.+.I < & < & u w 3 G.- ).).).).).",
").).).).# ^.C h K.+X:Xk.) h c ' x h n r r T P ) _ $.%XY.S.Z G.G.h z ' c 3 t I G U b { h o. .[ %.T.] K.R.[.v.z z x.M O ).).).).).",
").).).).# Z.|.+X>X>X+X[.^.~.[ S R. X+X[.x.2 s v.R.}.|.XX>X>X3XC.$ J..XXXJ.K.H.d.: H..X}.:X[.L.}.3X<X3X3X>X X+X>XL.-   ).).).).).",
").).).).O 0 Z L.[.~.[.+X>X;Xd A >X>X+X|.L.C - ^.:X|.[.+X+X+X|.x., S [.[..X+XXXk.j K.[.}.|.|.L.@ k.oX+X+X[.|.oX[.g . > ).).).).).",
").).).).6 d C J.K.K.K.[.[.x.0 s G.L.K.K.K.x.g x.[.K.K.K.K.K.K.K.l A K.K.K.K.L.J.N L.~.K.K.[.C.0 k.K.K.K.K.K.J.A , X f.).).).).).",
").).).).XXX 1 S J.K.K.K.K.J.q : k.K.K.K.K.d.0 G.K.L.K.K.~.K.K.x.+ j H.R.[.~.K.x.1 J.K.K.K.K.Z ; k.J.K.~.[.}.}.Z.0 s _._._.).).).",
").).).).<Xo C H.I.G.~.R.K.C.g @ J.K.K.K.G.f + G.~.K.K.K.C.G.x.A s 0 .X+X XR.K.G.1 C.K.K.K.~.A $ k.G.J.K.[.+X.Xd.: Z ].).).).).).",
").).).).<X% k.:X3X:X|.[.K.J.k.: k.L.~.|..X}.: k.K.K.K.K.J.J.J.L.j.@ G.K.K.K.K.K.s G.K.~.K.K.A k ~.K.K.K.K.K.G.l * I.`.(.).).).).",
").).).).2X0 k k.[.[.K.K.K.K.G.g Z K.[.|..XH.: B.C.K.[.R.K.K.L.~.x.: x.L.K.K.K.L.C K.K.K.K.K.d.k.K.K.K.K.K.L.k.g # I.(._.).).).).",
").).).).7X, g S K.K.K.K.K.K.J.N k.~.~.K.K.x., .X:X:XoX[.K.K.~.J.S 1 x.K.K.K.K.K.k.K.K.K.K.~.k.k.K.K.K.K.K.J.C d % >X_.).).).).).",
").).).).3XV.q m x.K.K.L.K.K.G.l k.K.K.K.K.l., B. X[.R.K.K.K.J.C.S 0 k.K.K.[.[.G.Z J.K.K.K.J.A A J.K.K.K.K.x.N : D 9X_.).).).).).",
").).).).OXqXB., l x.G.K.K.C.Z d G.K.K.J.J.Z g l G.K.K.K.J.J.N.G.C.d A L.K.K.K.d.l J.~.K.J.x.k g x.K.K.K.G.d.g V.iX7X).).).).).).",
").).).).).$XuX=XZ.B.k.G.~.}.P.P.Z k.j.G.G.S &Xg l S x.x.C C C l d.&XC.v.d.S Z l &XZ j.k.S Z Z.&XB.S A Z x.Z.*XtXpX$X).).).).).).",
").).).).).'.7XwXeX8X1X9XwXiXpXpX*XZ.F.E.=X2XiX2X&XX.D S Z V.P.1XiXaX,XI.V.V.P.1XiX2X*XA.F.-XeXwXwX2X2X*X,X6XpXuX4X_.).).).).).).",
").).).).).)./.`.{. X:XtX0X0XuXuXyXuXiXiXsXuX@X3XrXwXwXwXwXrX7X6XtXiXtXiXiXiXpXaX>X+X9XwXpXsXaXuXwX5X6XqX5XoX@X]._.).).).).).).).",
").).).).).).).).).W.b.!.~.Q.{.@X7XyXuXqX7XOXW./.`.{.>X:X|.!.m.m.!.#X4XuXyXrXqX$XW.W.Q.`.@X3XOX].`.W.W.Q.!.(./.).).).).).).).).).",
").).).).).).).).).)./.n.b.M./._.N.z.N.h.7 B 5 V n.M./.M.b.b.z.n.M.M.'.'.`.N.h.7 6 6 d.f.W././._./.M.M.(.).).).).).).).).).).).).",
").).).).).).).).).).).).).).).).).).).).).).).).).).).).).).).).).).).).).).).).).).).).).).).).).).).).).).).).).).).).).).).).",
").).).).).).).).).).).).).).).).).).).).).).).).).).).).).).).).).).).).).).).).).).).).).).).).).).).).).).).).).).).).).).).).",
").).).).).).).).).).).).).).).).).).).).).).).).).).).).).).).).).).).).).).).).).).).).).).).).).).).).).).).).).).).).).).).).",
").).).).).).).).).).).).).).).).).).).).).).).).).).).).).).).).).).).).).).).).).).).).).).).).).).).).).).).).).).).).).).).)."
};
