/* XPM */
static char *out[] = {
/* columns rows colors chars-per-pixel */
"64 64 221 2 ",
"   c black",
".  c #1A2838",
"X  c #202A38",
"o  c #24313E",
"O  c #28393D",
"+  c #263643",
"@  c #2B3C46",
"#  c #2E3E4A",
"$  c #303E48",
"%  c #2D414B",
"&  c #33424B",
"*  c #344C48",
"=  c #36484E",
"-  c #3D5548",
";  c #344550",
":  c #354B52",
">  c #3A4C52",
",  c #2C545B",
"<  c #3E5157",
"1  c #3A5B56",
"2  c #3E545B",
"3  c #3C5C5D",
"4  c #3B635C",
"5  c #3B5D63",
"6  c #3A6A65",
"7  c #38686A",
"8  c #366F73",
"9  c #3C787D",
"0  c #405541",
"q  c #425C52",
"w  c #41565A",
"e  c #435C5D",
"r  c #4C674A",
"t  c #56744D",
"y  c #466659",
"u  c #4A6A5B",
"i  c #506C55",
"p  c #577857",
"a  c #55765B",
"s  c #5A7D5B",
"d  c #435C60",
"f  c #485F61",
"g  c #446365",
"h  c #4B6465",
"j  c #436963",
"k  c #4A686A",
"l  c #4C6B6C",
"z  c #516E6D",
"x  c #467268",
"c  c #4A746B",
"v  c #447D6B",
"b  c #4B7C6B",
"n  c #517663",
"m  c #557E62",
"M  c #53706F",
"N  c #4F6F71",
"B  c #506F70",
"V  c #437673",
"C  c #477976",
"Z  c #547574",
"A  c #587A76",
"S  c #567B7B",
"D  c #5A7D7D",
"F  c #677E7D",
"G  c #5E8050",
"H  c #5C835D",
"J  c #60814F",
"K  c #648551",
"L  c #688A54",
"P  c #678658",
"I  c #61865C",
"U  c #648A5C",
"Y  c #6A8E5D",
"T  c #778F5A",
"R  c #6A9359",
"E  c #6C935C",
"W  c #6E995E",
"Q  c #709556",
"!  c #77995A",
"~  c #739C5C",
"^  c #7DA357",
"/  c #75A25F",
"(  c #7BA45D",
")  c #7EA95D",
"_  c #5B8164",
"`  c #588968",
"'  c #5D9264",
"]  c #4B8379",
"[  c #568C75",
"{  c #58867A",
"}  c #608667",
"|  c #649463",
" . c #6B9C62",
".. c #689966",
"X. c #709F63",
"o. c #63867A",
"O. c #659875",
"+. c #6DA16F",
"@. c #72A261",
"#. c #7BA666",
"$. c #7AA863",
"%. c #73A46E",
"&. c #78A975",
"*. c #98B74F",
"=. c #9BB94F",
"-. c #82A55B",
";. c #8EA55A",
":. c #83AC5D",
">. c #8BAE5C",
",. c #93A359",
"<. c #92AE5B",
"1. c #8EB256",
"2. c #87B05A",
"3. c #8BB159",
"4. c #94B553",
"5. c #9BB654",
"6. c #9BB850",
"7. c #94B25A",
"8. c #9BB359",
"9. c #A2B453",
"0. c #A2B655",
"q. c #A9B757",
"w. c #A4B852",
"e. c #AAB954",
"r. c #A3B559",
"t. c #AAB759",
"y. c #AEB858",
"u. c #B2B956",
"i. c #B0B758",
"p. c #82AE62",
"a. c #85B271",
"s. c #3D7D80",
"d. c #587C80",
"f. c #3D8488",
"g. c #3F9293",
"h. c #478587",
"j. c #568485",
"k. c #5B8484",
"l. c #5B8C82",
"z. c #548D88",
"x. c #5E8B8B",
"c. c #56928B",
"v. c #5B928B",
"b. c #488E99",
"n. c #449396",
"m. c #48949B",
"M. c #459C9D",
"N. c #599896",
"B. c #668684",
"V. c #6E8B85",
"C. c #628D8D",
"Z. c #6A8E8B",
"A. c #718F88",
"S. c #63958C",
"D. c #679A88",
"F. c #73938C",
"G. c #629494",
"H. c #6A9796",
"J. c #649A96",
"K. c #669C9C",
"L. c #6A9D9D",
"P. c #7E9D94",
"I. c #749A98",
"U. c #44A09F",
"Y. c #75A98B",
"T. c #6BA397",
"R. c #6BA29D",
"E. c #79A39D",
"W. c #459DA2",
"Q. c #4B9AA2",
"!. c #5A9BA5",
"~. c #659EA4",
"^. c #729FA1",
"/. c #45A4A4",
"(. c #4BA7A7",
"). c #47ABA9",
"_. c #4AACAA",
"`. c #56A8A9",
"'. c #59B2AF",
"]. c #5CB6B2",
"[. c #6BA2A2",
"{. c #68A8AC",
"}. c #71A5A4",
"|. c #71A9A8",
" X c #73AAAB",
".X c #79ADAD",
"XX c #77B2AD",
"oX c #79AEB0",
"OX c #68B6B2",
"+X c #7DB4B4",
"@X c #78B9B7",
"#X c #7AC6BD",
"$X c #81B286",
"%X c #84A59B",
"&X c #8BADA2",
"*X c #8EB3A8",
"=X c #91B3A7",
"-X c #82B7B8",
";X c #86BDBC",
":X c #99BEB1",
">X c #87C3BC",
",X c #9AC4B7",
"<X c #A6CCBC",
"1X c #8BC3C3",
"2X c #8ACEC3",
"3X c #97C9C3",
"4X c #9DCDC4",
"5X c #99D4C7",
"6X c #A5D6C8",
"7X c #A4D4CA",
"8X c #ACD7C9",
"9X c #ADDCCE",
"0X c #B4DECC",
"qX c #B8E1CE",
"wX c #B5E3D2",
"eX c #BBE6D4",
"rX c #B9E9D6",
"tX c #BBE9D6",
"yX c #C1EBD6",
"uX c #C2EDD9",
"iX c #C8F2DD",
/* pixels */
").).).).).).).).).).).).).).).).).).).).).).).).).).).).).).).).).).).).).).).).).).).).).).).).).).).).).).).).).).).).).).).).",
").).).).).).).).).).).).).).).).).).).).).).).).).).).).).).).).).).).).).).).).).).).).).).).).).).).).).).).).).).).).).).).).",
").).).).).).).).).).).).).).).).).).).).).).).).).).).).).).).).).).).).).).).).).).).).).).).).).).).).).).).).).).).).).).).).",
").).).).).).).).).).).).).).).).).).).).).).).).).).).).).).).).).).).).).).).).).).).).).).).).).).).).).).).).).).).).).).).).",
").).).).).).).).).).)._.).).).).).).).).).).).).).).).).).)._.).).).).).).).).).).).).).).).).).).).).).).).).).).).).).).).).).",
").).).).).n.6 x 8 9 d.d.v C c.c.` n j m a R s U x S z.z.{ [ J.R.D.D.v.v.l.c y _ U y n Y ] ] l.c.] ` b C s.6 4 8 U.).).).).).).).",
").).).).g., 0 ) R ! Y %.E ) 3./ ) ! ~ / 2.1.1.3.2.) ) 7.2.&.#.a.a.) 2.2./  .) ) 3.:.^ 1.^ ~ ) $.$.:.U ! r ) ! J 4 M.).).).).).).",
").).).).4 W L 7.7.r.9.q.0.:.5.6.w.7.4.4.4.6.6.4.*.*.4.4.8.7.0.4.4.6.5.8.1.4.4.1.=.4.=.e.q.8.8.8.w.1.:.>.Q :.:.~ U b n.).).).).).",
").).).).7 t -.y.q.w.w.4.7.1.w.w.e.e.e.1.2.4.3.4.3.4.5.w.6.4.4.1.4.e.e.e.e.4.2.3.1.7.3.*.=.6.=.6.4.3.3.5.r.8.:.~ H x n.).).).).).",
").).).).8 Q ) 7.6.4.4.=.4.4.6.4.4.1.=.*.4.4.6.w.=.4.4.4.4.=.=.*.4.6.4.1.*.=.4.6.*.e.4.*.=.6.4.=.6.6.4.4.q.7.:.:.U C ).).).).).).",
").).).).V r -.r.q.7.8.6.4.3.1.1.5.3.4.w.=.1.1.=.*.w.e.8.r.4.4.3.1.1.5.3.4.=.=.4.3.4.*.6.q.r.5.4.4.7.3.4.3. ...~ H j /.).).).).).",
").).).).5 ~ :.r.q.w.w.w.q.w.7.8.5.=.w.=.=.*.1.4.4.4.4.6.6.w.w.0.8.8.8.5.6.=.=.6.4.4.4.7.6.6.5.w.w.w.5.7.8.<.) $./ c n._.).).).).",
").).).).` %.#.:.>.0.w.=.1.3.5.5.6.6.=.=.=.4.6.q.7.4.*.=.=.=.4.7.7.w.6.6.w.6.=.*.6.w.6.1.4.6.=.=.4.7.3.w.6.e.w.p. .] ] ).).).).).",
").).).).o.$X&... .:.4.4.=.=.4.4.=.4.=.=.=.=.4.=.1.3.                        =.=.4.6.*.3.1.4.=.=.=.=.*.4.4.6.7.+.` j.j.).).).).).",
").).).).{ ..../ 2.4.1.w.=.4.1.3.1.7.4.1.2.1.                                        4.1.1.4.*.6.w.6.*.2.1.7.3.#.[ D.l ).).).).).",
").).).).z. .$.$.4.q.r.t.w.4.4.4.=.6.=.                                                    w.5.y.r.6.*.1.4.q.r.p...j 7 ).).).).).",
").).).).Z / 2.3.5.w.6.4.5.4.=.=.w.                                                            6.4.6.4.=.=.e.0.-.W p 7 ).).).).).",
").).).).s ) 3.5.6.4.7.6.5.4.4.6.                                                                5.5.3.6.4.5.r.E H U 1 ).).).).).",
").).).).q ( ;.<.7.4.2.3.3.4.=.                                                                    4.*.=.6.7.,.T E ( p ).).).).).",
").).).).p ( s X.8.w.*.4.4.4.                                                                        4.4.4.:.! ! a e < ).).).).).",
").).).).q H a E :.4.*.3.4.                                                                            4.3.3.6.r.! U 3 ).).).).).",
").).).).: s E ~ 8.5.e.0.                                                                                w.w.5.,.Y n 3 ).).).).).",
").).).).: N m ) r.u.w.7.                                                                                e.e.t.! > d.S ).).).).).",
").).).).j m W $.3.8.5.                                                                                    7.7.! P r = ).).).).).",
").).).).1 / R  .7.q.w.                                                                                    3.-.! ( r @ ).).).).).",
").).).).4 ' / 2.7.t.e.                                                                                     ./ H t - % ).).).).).",
").).).).C ` @.X.$.>.4.                                                                                    / ....W | = ).).).).).",
").).).).c v ' X.| | (                                                                                     3.:.:.X.S.z ).).).).).",
").).).).S v ' @.:.:.7.w.                                                                                4.5.r.! Y Z N ).).).).).",
").).).).l H -.7.8.8.6.5.                                                                                w.e.<.E H u # ).).).).).",
").).).).n U :.t.q.1.7.q.8.                                                                            4.5.0.e.1.( I : ).).).).).",
").).).).P E ) 8.5.6.1.4.6.6.                                                                        =.=.4.5.u.<.) W i ).).).).).",
").).).).y y W :.2.1.2.3.1.4.=.                                                                    1.4.=.=.=.u.8.~ ~ u ).).).).).",
").).).).I ~ ~ :.7.5.4.4.4.4.4.1.                                                                4.4.4.4.3.1.8.<.$.a 2 ).).).).).",
").).).).r $.:.7.8.q.6.4.4.1.4.1.1.                                                            5.4.4.1.4.7.4.8.8.:.Y e ).).).).).",
").).).).u _ E >.7.6.w.5.4.1.6.w.q.w.w.                                                    =.=.w.5.4.1.w.w.y.<.:.| b k ).).).).).",
").).).).D .. .p.q.4.5.6.4.1.4.1.4.3.*.=.=.4.                                        =.=.w.6.5.6.4.4.1.4.5.>.p.) O.o.g ).).).).).",
").).).).{ W >.t.t.7.5.4.*.1.1.1.7.1.*.=.*.1.3.*.4.0.                        =.4.3.1.4.5.e.8.8.4.=.4.1.1.>.' ' ..| m 2 ).).).).).",
").).).).c I >.t.q.6.w.w.e.q.7.7.7.6.=.=.=.=.4.4.4.*.6.4.*.e.e.y.8.1.7.5.=.=.=.=.*.4.*.4.*.*.=.w.w.q.5.7.2.:.-.@./ U 3 ).).).).).",
").).).).e ~ p.3.8.w.w.w.r.7.r.q.q.e.=.w.=.4.4.8.7.3.1.=.w.e.5.8.8.y.q.e.w.w.=.4.7.7.5.>.3.6.=.e.w.8.8.y.5.t.r.2.E u # ).).).).).",
").).).).% p Y ;.i.i.6.6.4.4.4.6.=.=.6.=.=.4.=.w.4.4.6.6.=.=.4.4.4.6.6.6.=.=.=.=.=.=.6.4.4.*.=.=.6.6.4.4.5.w.1.) ~ a + /.).).).).",
").).).).- t R ( r.8.w.5.6.4.3.7.8.7.4.7.4.8.5.4.4.>.1.5.0.6.0.6.4.3.7.5.6.4.3.7.1.*.6.>.8.0.6.w.y.y.r.2.7.2.3.! K * + ).).).).).",
").).).).= O L :.^ ) ) ! -.( :.>.<.) :.) ) >.r.w.7.) p.3.7.P T ) ~ 3.>.8.r.r.8.4.5.t.<.) <.0.p.7.7.-./ t J J 2.G O x + ).).).).).",
").).).).+ - Q t r O.[ p $.s  .Y W I ) Y E ~ :.:.X.~ p.p.$.I u j H R ` H T -.~ >.:.! ~ a ..:.X.#.@.U - * 1 * p r 6 G.; ).).).).).",
").).).).$ ^.Z j H.+X-Xj._ j v ] c j m y y E I _ ` %.$XY.S.A G.v.j x v b 6 u U H Y n } g O...[ &.T.[ K.R.[.v.x x k.Z + ).).).).).",
").).).).# Z.|.+X;X;X@X|.^.~.{ S R. X+XR.v.e 5 v.R.[.|.XX;X1X1Xx.% H.XX.XJ.H.H.d.> H.oX[.-X[.K.|.1X>X1X1X;X.X+X;X^.; . ).).).).).",
").).).).+ w D H.[.K.[.+X1X+Xf d.;X;X+X|.~.A = ^.-X|.[.+X-X+X|.x.< D [.[.XX+X+Xk.k K.[.|.|.|.L.# d.oX@X+X~.|.oX[.g X , ).).).).).",
").).).).8 h Z J.L.K.K.~.R.C.w e G.L.K.K.L.k.f C.[.K.K.K.K.K.K.K.c S K.K.K.K.K.G.B L.K.K.R.[.C.w k.K.K.K.K.K.J.S > + f.).).).).).",
").).).).XXo w D G.K.K.K.K.J.d : k.K.K.K.K.d.w G.L.~.K.K.K.K.K.x.@ k H.R.[.[.K.x.w K.K.K.K.K.Z ; x.J.K.K.[.}.}.Z.w d `._.).).).).",
").).).).>XO Z H.H.H.^.R.K.x.h $ G.K.K.K.G.h @ G.K.K.K.K.C.G.x.S d w oX+X X~.K.G.< v.K.K.K.~.S ; k.G.G.K.[.+X.Xd.> A '.).).).).).",
").).).).>X& k.+X1X-X|.~.K.K.k.> x.K.R.|.oX}.> j.J.K.K.K.G.K.K.K.j.# G.K.K.L.K.J.d J.K.K.K.K.S k K.K.K.K.K.K.G.z ; I.`.).).).).).",
").).).).4Xw l B.}.[.K.K.K.K.G.h S J.[. X.XH.> B.G.R.[.L.K.K.K.K.k.> x.K.K.K.K.K.Z K.K.K.~.K.k.k.K.K.K.~.K.L.k.h $ I.(._.).).).).",
").).).).5X< h D K.K.K.K.K.K.G.Z k.~.K.K.K.x.<  X-X+X.X[.K.K.K.K.d.w k.~.K.K.K.K.d.~.K.K.K.K.k.k.~.K.K.K.K.J.Z f & >X_.).).).).).",
").).).).2XB.e B C.K.K.K.K.K.G.z k.K.K.K.R.x.< B..X[.~.K.K.K.K.x.D e k.L.K.[.[.H.A J.K.K.K.K.S S G.K.K.K.K.x.B > F 7X_.).).).).).",
").).).).OX9XB.< l x.G.K.J.C.A f x.~.K.K.G.A h M G.K.K.K.G.K.G.G.k.h S K.K.K.K.k.M G.K.K.G.x.l h x.J.K.K.G.d.h V.eX5X).).).).).).",
").).).).).#XeX=XV.x.k.G.[.}.P.P.A k.x.G.v.D P.l z S x.x.A Z Z z o.%XC.G.d.S A z %XA j.k.D A A.E.B.{ D S C.Z.&XeXuX#X).).).).).).",
").).).).).'.5XqXwX8X,X7X0XyXuXuX&XV.Z.P.*X6XtX<X%Xo.D F A V.%X,XqXiX:XI.V.V.P.:XyX<X=XV.F.*XqXwX0X<X,X&X:X4XuXtX2X_.).).).).).).",
").).).).).(.(.(.{.|.-XeX8X8XuXeXtXuXuXyXiXtX@X1XwX0X0X0XqXqX4X4XeXuXeXyXyXuXiXiX;X+X7X0XuXiXuXrX0X3X7X9X3XoX+X'._.).).).).).).).",
").).).).).).).).).W.b.!.~.b.{.@X5XrXrXwX5X X/./.`.{.>X-X[.!.b.b.!.#X2XtXrXrX6X#XW.W.Q.`.@X>X@X].`.W.Q.Q.!.(.).)._.).).).).).).).",
").).).).).).).).).)./.n.m.M.).).Q.c.v.h.9 V 7 V n.M./.M.n.b.n.n.W.M.'.'.`.N.h.9 8 8 d.f.W././.)./.M.M.).).).).).).).).).).).).).",
").).).).).).).).).).).).).).).).).).).).).).).)./.).).).).).).).).).).).).).).).).).).).).).).).).).).).).).).).).).).).).).).).",
").).).).).).).).).).).).).).).).).).).).).).).).).).).).).).).).).).).).).).).).).).).).).).).).).).).).).).).).).).).).).).).).",
").).).).).).).).).).).).).).).).).).).).).).).).).).).).).).).).).).).).).).).).).).).).).).).).).).).).).).).).).).).).).).).).",
").).).).).).).).).).).).).).).).).).).).).).).).).).).).).).).).).).).).).).).).).).).).).).).).).).).).).).).).).).).).).).).)."
};
